<svg xmlns="http://www.w3.org/2000/svg" width="1200" height="800" viewBox="-42.51975 -11.5775 368.5045 69.465"><path d="M276.746 27.301c0 .413-.03.865-.091 1.347h-12.184c.086-1.234.255-2.438.502-3.582.263-1.211.66-2.291 1.18-3.208.511-.906 1.209-1.634 2.076-2.166.857-.528 1.978-.797 3.33-.797.752 0 1.462.11 2.114.327.631.21 1.176.57 1.623 1.07.445.506.801 1.202 1.058 2.068.261.883.393 2.025.393 3.394v1.547zm6.719 2.74v-.264c0-2.299-.394-4.254-1.174-5.813-.78-1.558-1.763-2.825-2.918-3.77-1.157-.948-2.427-1.641-3.77-2.061-1.345-.418-2.621-.631-3.796-.631-1.968 0-3.84.415-5.561 1.232-1.716.816-3.232 1.909-4.505 3.246-1.276 1.337-2.292 2.894-3.026 4.629-.73 1.742-1.102 3.558-1.102 5.397 0 2.129.359 4.09 1.073 5.827.709 1.738 1.73 3.259 3.032 4.517 1.3 1.26 2.863 2.237 4.641 2.905 1.774.669 3.734 1.007 5.819 1.007 2.096 0 3.832-.332 5.164-.986 1.322-.649 2.39-1.419 3.174-2.288.778-.86 1.357-1.74 1.72-2.615.361-.868.599-1.516.723-1.982l.075-.271-1.432-.288-.074.221c-.163.486-.411 1.127-.735 1.901-.319.755-.813 1.511-1.472 2.248-.652.734-1.561 1.369-2.699 1.887-1.143.521-2.616.783-4.382.783-1.749 0-3.166-.38-4.211-1.127-1.053-.754-1.856-1.72-2.392-2.87-.543-1.168-.899-2.495-1.059-3.943-.164-1.469-.248-2.896-.248-4.245 0-.686.012-1.218.032-1.626.016-.356.026-.693.032-1.021h19.071zm-35.083 15.314h5.872l-.004-19.289c0-2.974-.901-5.177-2.681-6.549-1.757-1.357-4.06-2.045-6.843-2.045-1.726 0-3.235.269-4.486.799-1.246.528-2.313 1.169-3.178 1.907-.866.739-1.564 1.535-2.074 2.363-.275.447-.508.858-.697 1.229V0h-10.656v1.393h4.787l.004 43.962h5.872l-.007-15.186c0-1.623.256-3.141.762-4.512.506-1.374 1.211-2.58 2.095-3.586.885-1.004 1.925-1.799 3.089-2.362 1.164-.561 2.401-.845 3.682-.845 1.541 0 2.644.474 3.363 1.448.73.986 1.1 2.273 1.1 3.826zM224.958 25.85c-.546-3.751-3.025-6.241-5.982-7.457-.479-.211-1.003-.385-1.577-.52-1.017-.254-2.058-.371-3.072-.346v.005c-.08-.001-.157-.005-.238-.005-1.586 0-3.256.254-4.966.754-1.714.502-3.306 1.318-4.728 2.426-1.427 1.112-2.606 2.588-3.506 4.389-.901 1.799-1.357 4.045-1.357 6.677 0 .044.001.088.003.132-.002.045-.003.088-.003.133 0 2.632.457 4.878 1.357 6.678.899 1.801 2.079 3.276 3.506 4.389 1.422 1.108 3.013 1.926 4.728 2.427 1.709.5 3.379.754 4.966.754 2.092 0 3.826-.332 5.155-.985 1.321-.648 2.388-1.417 3.169-2.283.778-.861 1.353-1.738 1.715-2.607.358-.866.596-1.515.722-1.982l.061-.224-1.346-.27-.061.182c-.162.489-.41 1.132-.738 1.909-.321.761-.82 1.524-1.483 2.268-.66.74-1.575 1.38-2.721 1.902-1.146.523-2.629.787-4.411.787-1.646 0-2.996-.331-4.011-.989-1.018-.659-1.829-1.571-2.407-2.71-.588-1.154-.998-2.52-1.219-4.061-.226-1.554-.341-3.235-.341-4.997 0-.046.002-.09.002-.134h.003c0-.062 0-.124-.001-.186.001-.06.001-.122.001-.184h-.003c0-.045-.002-.088-.002-.135 0-1.761.115-3.442.341-4.996.221-1.541.63-2.907 1.219-4.061.579-1.14 1.389-2.051 2.407-2.71 1.015-.657 2.365-.99 4.011-.99.071 0 .14.003.212.004v.003h.15c.07.001.142.001.209.004 2.064.07 4.734 1.089 4.866 7.007h5.37zm-24.061-4.896l.873-1.084c-3.155-2.536-7.024-3.072-10.348-1.436-1.229.605-2.255 1.465-3.011 2.471v-2.74h-5.707 4.91l-4.91.001-.008 27.188h5.711l.003-19.914v-.996c.219-1.934 1.583-3.754 3.626-4.761 2.827-1.391 6.14-.916 8.861 1.271M168.43 36.216c0 .812-.073 1.731-.215 2.734-.142.987-.426 1.916-.845 2.759-.416.833-1.038 1.537-1.849 2.093-.803.553-1.876.833-3.189.833-.908 0-1.654-.159-2.216-.471-.564-.312-1.006-.717-1.313-1.2-.313-.491-.532-1.06-.651-1.694-.121-.644-.182-1.278-.182-1.885 0-1.396.339-2.577 1.01-3.508.675-.935 1.664-1.673 2.938-2.192l4.646-1.865c.908-.381 1.525-.767 1.867-1.165v5.561zm11.345 8.367l-.746-1.028-.175.127c-.435.317-.895.559-1.365.716-.47.156-.925.237-1.355.237-.643 0-1.116-.181-1.447-.551-.334-.37-.502-1.136-.502-2.277V26.339c0-1.134-.169-2.233-.506-3.267-.339-1.042-.919-1.989-1.721-2.817-.805-.826-1.872-1.492-3.176-1.978-1.298-.483-2.926-.729-4.839-.729-.132 0-.255.01-.384.012v.002c-3.456-.054-9.841 2.833-9.915 8.195h5.347c-.147-5.696 2.991-6.799 4.568-6.886.077-.003.153-.006.232-.007.053-.001.105-.007.161-.007.081.001.164.006.248 0 .929.013 1.689.148 2.25.41.583.273 1.018.662 1.331 1.188.313.533.532 1.186.653 1.942.121.771.183 1.658.183 2.636 0 1.222-.093 2.195-.273 2.897-.174.684-.496 1.254-.96 1.698-.472.455-1.144.847-1.999 1.165-.878.329-2.01.726-3.365 1.178-1.158.374-2.312.729-3.427 1.055-1.146.334-2.202.77-3.141 1.292-.955.534-1.74 1.257-2.332 2.149-.601.901-.904 2.112-.904 3.6 0 .638.095 1.335.285 2.073.196.761.599 1.452 1.201 2.057.597.6 1.434 1.106 2.491 1.509 1.05.401 2.472.604 4.223.604 1.541 0 2.836-.183 3.849-.541 1.009-.358 1.834-.812 2.45-1.344.617-.534 1.082-1.1 1.383-1.68.198-.387.366-.722.505-1.015.355 1.364.956 2.454 1.784 3.245.923.885 2.422 1.334 4.45 1.334 1.096 0 2.04-.161 2.807-.482.757-.317 1.419-.691 1.967-1.115zm-31.67.769l.001-18.354c0-6.321-3.141-9.526-9.339-9.526-1.305 0-2.493.171-3.532.511-1.039.339-1.953.802-2.718 1.376-.765.573-1.411 1.231-1.923 1.955-.39.554-.722 1.125-.987 1.705-.562-1.89-1.607-3.282-3.114-4.144-1.629-.931-3.525-1.403-5.634-1.403-2.365 0-4.413.602-6.088 1.79-1.447 1.024-2.612 2.571-3.476 4.605v-5.71h-5.744v-.005l-.003 27.203h5.872V30.418c0-2.114.297-3.923.883-5.375.583-1.452 1.318-2.648 2.183-3.555.864-.902 1.807-1.572 2.805-1.991.999-.42 1.927-.633 2.76-.633 1.175 0 2.086.397 2.786 1.214.701.819 1.057 2.122 1.057 3.873l-.009 21.404 5.878.005V28.366c0-1.615.254-3.046.757-4.252s1.162-2.201 1.959-2.958c.798-.758 1.712-1.336 2.713-1.717 1.003-.381 2.016-.574 3.016-.574 1.246 0 2.239.372 2.952 1.104.714.732 1.077 1.78 1.077 3.113l-.014 22.282zM93.4 45.36l5.881.001V26.066c0-2.974-.902-5.178-2.683-6.549-1.757-1.357-4.06-2.045-6.843-2.045-1.808 0-3.372.29-4.647.862-1.265.571-2.335 1.268-3.181 2.07-.844.802-1.519 1.637-2.005 2.484-.281.488-.522.929-.726 1.317v-6.049H73.46l-.007.009v27.196h5.869V30.17c0-1.619.255-3.137.76-4.512.505-1.375 1.211-2.581 2.096-3.586.884-1.004 1.924-1.799 3.089-2.362 1.163-.561 2.401-.845 3.679-.845 1.542 0 2.644.474 3.365 1.448.73.989 1.102 2.276 1.102 3.826zM62.36 31.897c0 2.898-.226 5.231-.673 6.933-.444 1.691-1.032 3.004-1.748 3.9-.708.881-1.538 1.466-2.471 1.737-.962.282-2.001.425-3.086.425s-2.123-.143-3.086-.425c-.932-.271-1.764-.856-2.471-1.737-.718-.899-1.306-2.212-1.747-3.9-.447-1.704-.675-4.035-.675-6.933 0-2.451.166-4.528.492-6.173.321-1.63.819-2.975 1.48-3.999.65-1.004 1.476-1.731 2.456-2.164.996-.437 2.189-.659 3.55-.659 1.359 0 2.553.222 3.55.659.979.432 1.807 1.16 2.457 2.164.659 1.019 1.157 2.365 1.48 3.999.327 1.647.492 3.725.492 6.173m6.713 0c0-2.056-.458-3.991-1.36-5.755-.898-1.754-2.063-3.29-3.462-4.562-1.397-1.273-2.986-2.28-4.722-2.992-1.739-.711-3.472-1.071-5.146-1.071-1.675 0-3.406.36-5.146 1.071-1.736.713-3.325 1.719-4.721 2.992-1.4 1.274-2.565 2.809-3.463 4.562-.902 1.765-1.359 3.7-1.359 5.755 0 1.974.425 3.854 1.265 5.595.834 1.732 1.946 3.269 3.304 4.567 1.362 1.296 2.941 2.334 4.693 3.083 1.761.754 3.587 1.136 5.428 1.136 1.842 0 3.668-.382 5.429-1.136 1.752-.749 3.331-1.787 4.691-3.083 1.358-1.296 2.471-2.833 3.307-4.567.837-1.739 1.262-3.621 1.262-5.595M26.374 24.83c1.379 1.865 2.079 4.466 2.079 7.729 0 2.298-.208 4.23-.617 5.744-.404 1.495-1.047 2.712-1.912 3.617-.861.902-1.981 1.542-3.328 1.903-1.37.367-3.04.554-4.965.554-1.111 0-1.974-.031-2.566-.092-.524-.054-1.009-.1-1.454-.139V22.05h6.641c2.698 0 4.758.935 6.122 2.78m-4.128-4.528c-.932.284-1.98.428-3.117.428h-5.518V1.868c.492-.066 1.078-.108 1.748-.126.775-.021 1.54-.032 2.272-.032 1.06 0 2.148.104 3.233.308 1.064.201 2.041.629 2.903 1.27.859.64 1.57 1.607 2.112 2.874.547 1.275.824 2.999.824 5.122 0 1.881-.186 3.455-.552 4.678-.362 1.209-.881 2.176-1.54 2.875-.654.694-1.45 1.188-2.365 1.465m5.158 1.78c-1.16-.387-2.314-.667-3.444-.836 1.049-.198 2.072-.5 3.052-.896 1.345-.546 2.552-1.272 3.587-2.16 1.037-.888 1.874-1.939 2.486-3.124.618-1.191.93-2.506.93-3.908 0-1.015-.214-2.163-.636-3.41-.426-1.258-1.223-2.442-2.367-3.522-1.138-1.075-2.717-1.994-4.692-2.73C24.346.763 21.801.391 18.755.391c-.568 0-1.18.01-1.817.031-.597.02-1.245.031-1.94.032-.66.042-1.319.073-1.959.093-.62.021-1.258.032-1.896.032H0v1.32h6.926v42.23H0v1.32h11.143c.775 0 1.467.011 2.114.03.666.021 1.313.053 1.927.094.626.042 1.22.071 1.785.094.563.021 1.144.032 1.724.032 2.88 0 5.441-.329 7.613-.978 2.18-.649 4.011-1.556 5.441-2.69 1.435-1.141 2.527-2.522 3.246-4.107.717-1.582 1.081-3.345 1.081-5.239 0-1.819-.409-3.452-1.215-4.853-.802-1.394-1.862-2.583-3.149-3.532-1.283-.945-2.731-1.691-4.306-2.218" fill="#1c2b39"/><path d="M277.617.002c-.723-.018-1.355.174-1.88.57-.49.371-1.235 1.111-2.412 2.217l-8.747 8.555c-.292.234-.364.632-.166.897l.012.017c.104.128.259.204.435.213h.019c.17.004.281-.051.451-.15l12.919-7.243c.279-.18.603-.408.972-.682.446-.33.725-.811.829-1.428.125-.736-.033-1.406-.468-1.986l-.02-.027c-.454-.592-1.076-.911-1.846-.949-.032-.002-.065-.003-.098-.004" fill="#db4699"/></svg>