<svg xmlns="http://www.w3.org/2000/svg" height="800" width="1200" viewBox="-10.52496 -12.0679 91.21632 72.4074"><path d="M6.2425 39.1752c-.4325-.2412-.9387-.3612-1.4437-.3612-1.9375 0-3.4538 1.3725-3.4538 3.3575 0 1.865 1.5288 3.225 3.3575 3.225.5288 0 1.0588-.1088 1.54-.35V43.194c-.2887.265-.71.4212-1.095.4212-.9025 0-1.54-.6262-1.54-1.5162 0-.8538.6625-1.5038 1.5038-1.5038.4212 0 .8062.1925 1.1312.4325zm4.5841 1.5404c.89 0 1.4075.6375 1.4075 1.3963 0 .7812-.5175 1.3825-1.4075 1.3825s-1.4075-.6013-1.4075-1.3825c0-.7588.5175-1.3963 1.4075-1.3963m3.525-1.6962h-2.19v.6012c-.4562-.5412-1.2025-.8062-1.9125-.8062-1.8287 0-3.0925 1.5162-3.0925 3.285 0 1.7687 1.2875 3.2962 3.1163 3.2962.7225 0 1.48-.2762 1.865-.89h.0237v.6863h2.19zm3.6448-.0005h-2.19v6.1725h2.19v-3.2c0-.7713.2525-1.4325 1.1437-1.4325 1.0825 0 .9863 1.035.9863 1.625v3.0075h2.19v-3.8138c0-1.5162-.6625-2.5637-2.3225-2.5637-.8538 0-1.4688.2537-1.9738.9987h-.0237zm8.1564 1.8047h1.24v-1.805h-1.24v-1.8525h-2.19v1.8525h-.71v1.805h.71v4.3675h2.19zm3.7048.3853c.1325-.6375.6613-.975 1.3-.975.5888 0 1.13.385 1.2388.975zm4.5725 1.035c0-2.1063-1.24-3.43-3.3812-3.43-2.01 0-3.4175 1.24-3.4175 3.2975 0 2.13 1.5287 3.285 3.5737 3.285 1.4075 0 2.7913-.6625 3.14-2.1175h-2.105c-.2412.4087-.5775.565-1.0475.565-.9012 0-1.3712-.4813-1.3712-1.3725H34.43zm3.1875-3.225h-2.19v6.1725h2.19v-2.49c0-1.0588.3013-1.8663 1.5163-1.8663.3362 0 .625.0363.9262.205V38.934h-.4212c-.8538 0-1.5763.3375-1.9975 1.0962h-.0238zm3.4002 6.1725h2.19v-.6863h.0237c.3975.6138 1.1425.8913 1.865.8913 1.8413 0 3.1163-1.5163 3.1163-3.2975 0-1.7688-1.2638-3.285-3.0925-3.285-.71 0-1.4438.265-1.9125.8062v-4.415l-2.19.48zm3.525-4.4763c.8912 0 1.4087.6375 1.4087 1.3963 0 .7825-.5175 1.3837-1.4087 1.3837-.89 0-1.4075-.6012-1.4075-1.3837 0-.7588.5175-1.3963 1.4075-1.3963m4.5025-1.6962v3.7175c0 2.0337 1.4312 2.66 3.285 2.66 1.8525 0 3.285-.6263 3.285-2.66v-3.7175h-2.19v3.2962c0 .7825-.1925 1.3363-1.095 1.3363s-1.095-.5538-1.095-1.3363V39.019zm9.8877 0h-2.19v6.1725h2.19v-2.49c0-1.0588.3013-1.8663 1.5163-1.8663.3362 0 .625.0363.9262.205V38.934h-.4212c-.8538 0-1.5763.3375-1.9975 1.0962h-.0238zm5.8236 5.3302l-2.1062 3.9225h2.455l4.9462-9.2525h-2.4912l-1.6125 3.1638-1.6488-3.1638H61.773z" fill-rule="evenodd" fill="#221f1f"/><path d="M47.5798 11.7375C50.2773 6.2 50.9873 4.9212 54.2035 4.59c4.4438-.4575 5.6788 2.82 9.6113 3.1712 1.9762.1775 4.9162-.1412 5.6987-.235C66.406 2.9912 61.186 0 55.271 0c-9.5237 0-17.2475 7.73-17.2475 17.2537 0 .83.0563 1.6463.1763 2.445 1.195-.8575 8.4962-6.1437 9.38-7.9612" fill="#df1e25"/><path d="M55.2714 34.4954c6.355 0 11.9025-3.45 14.895-8.5612-1.1775-.1775-5.9013-.97-8.53-2.6575-2.6038-1.6738-3.45-2.8788-5.49-5.7175-1.5625-2.1788-4.9688-4.7788-8.5663-2.7925-1.3087.72-7.9487 5.715-9.07 6.5587 1.8375 7.5538 8.6413 13.17 16.7613 13.17M25.055 1.8764C22.71.6751 20.0575.0001 17.2475.0001 7.7238.0001 0 7.7301 0 17.254c0 .83.0638 1.6462.1775 2.445 1.195-.8575 8.495-6.1438 9.3788-7.9613 2.7012-5.5375 3.4087-6.8162 6.6274-7.1475 2.1525-.2175 3.5525.4388 4.8713 1.2125 1.1313-1.4962 2.4813-2.8187 4-3.9262M17.22 17.2539c0-.2525.0075-.5062.0163-.7525-1.7726-1.8375-4.6588-3.4025-7.6788-1.735-1.3088.72-7.95 5.715-9.0688 6.5588 1.8313 7.5537 8.6388 13.17 16.7588 13.17 2.8112 0 5.4625-.685 7.8075-1.875-4.7488-3.45-7.835-9.0588-7.835-15.3663" fill="#df1e25"/><path d="M44.0766 1.893C41.7241.6805 39.0604.0005 36.2441.0005c-9.5337 0-17.255 7.73-17.255 17.2538 0 .83.0638 1.6462.1763 2.445 1.1937-.8575 8.4975-6.1438 9.38-7.9613 2.7012-5.5375 3.41-6.8162 6.6325-7.1475 2.1662-.22 3.5725.45 4.905 1.2338a19.1749 19.1749 0 013.9937-3.9313m-7.8044 15.3609c0-.235.0063-.4675.015-.6987-1.7724-1.8588-4.6887-3.4738-7.7424-1.7888-1.3063.72-7.95 5.715-9.065 6.5588 1.83 7.5537 8.635 13.17 16.765 13.17 2.8162 0 5.48-.6913 7.8312-1.8925-4.7312-3.4525-7.8037-9.0513-7.8037-15.3488" fill="#df1e25"/></svg>