<svg xmlns="http://www.w3.org/2000/svg" height="800" width="1200" viewBox="-14.06247 -7.362025 121.87474 44.17215"><path d="M58.0628 23.913c2.7437 0 4.3683-2.5796 4.8234-3.5348h-.4154c-.5292.6668-1.622 1.9976-3.5349 1.9976-2.3283 0-3.2438-2.1167-3.2438-4.3683 0-2.3812.8308-4.408 2.3284-4.408 1.1218 0 1.6642 1.122 1.4975 2.4951l-4.1592 1.323-.0424.6243 6.239-1.8706c0-1.7885-1.2066-3.3681-3.3285-3.3681-2.495 0-4.5324 2.6194-4.5324 5.8208 0 3.0771 1.7886 5.2917 4.3683 5.2917m9.4827-7.5697s.291-1.7463 1.6642-1.7463c.9975 0 1.622.9975 1.622.9975l.873-2.5374a1.516 1.516 0 00-.9551-.291c-2.204 0-3.5348 2.7464-3.5348 2.7464zm9.234 0s.291-1.7463 1.6642-1.7463c.9974 0 1.6219.9975 1.6219.9975l.873-2.5374a1.5187 1.5187 0 00-.9577-.291c-2.204 0-3.5348 2.7464-3.5348 2.7464zm6.1145 13.102c1.3731 0 2.6617-.7487 3.5771-2.8707l1.913-4.5323 3.1194-7.1438c.291-.6244.7938-.9577 1.5399-1.3229l.7064-.3333h-4.4106l.582.3333c.6668.3757.9552.7938.7065 1.4155l-3.0797 7.0485-1.4129 3.3682c-.6244 1.5399-1.2885 2.204-2.5373 2.204-1.6643 0-2.8284-1.2489-2.8284-1.2489l.7937 2.7861a3.5375 3.5375 0 001.323.291m4.4978-6.4452l1.2065-2.1167-2.495-5.9901c-.2487-.5821 0-.9578.3757-1.2489l.5292-.4154h-4.6487l.582.3334a2.2913 2.2913 0 011.1642 1.323zm-9.5673.1243c-.5292-.373-.9551-.8307-.9551-1.4128v-8.8583l-3.4105.8282.7064.5c.5.3757.9155.8308.9155 1.4155v6.1146c0 .582-.4154 1.0398-.9552 1.4128l-.6667.5001h5.027zm-9.1916 0c-.5292-.373-.9578-.8307-.9578-1.4128v-8.8583l-3.4026.8282.7065.5c.5.3757.9154.8308.9154 1.4155v6.1146c0 .582-.4154 1.0398-.9577 1.4128l-.6642.5001h5.0271zm-29.9879 0c-.5292-.373-.9551-.8307-.9551-1.4128V0l-3.6592.8308.7487.5292c.6641.4577 1.0399.9154 1.0399 1.7039v18.632c0 .582-.4154 1.0397-.9552 1.4128l-.6667.5h5.1144zm3.5772-20.0474v19.923c.8308.5293 2.204.9156 3.5771.9156 2.9528 0 5.1144-2.9528 5.1144-6.2813 0-2.4526-1.3229-4.8233-3.9502-4.8233-1.323 0-2.413.9551-3.1194 1.6219v.7488c.7487-.6668 1.6642-1.0399 2.3812-1.0399 1.995 0 2.6194 2.3813 2.6194 4.2016 0 2.6194-.9155 4.908-2.995 4.908-1.0399 0-1.7887-.8307-1.7887-.8307V0l-3.6195.8308.7488.5292c.6667.4577 1.0398.9154 1.0398 1.7039m-13.0598 12.52v8.2021l3.4396-.9154-.7065-.4154c-.5291-.3334-.9154-.6244-.9154-1.323v-8.2814l-3.4396.8308.7064.5c.5.3758.9155.8309.9155 1.4156m-2.2887 7.112c-.9974 0-1.7462-.5-1.7462-1.7463v-8.112l-3.4608.828.7065.5001c.5.3757.9154.8308.9154 1.4155v5.6145c0 1.7886 1.2489 2.6194 2.5797 2.6194 1.3309 0 2.6194-.8308 3.3285-1.4552v-.6245a3.9979 3.9979 0 01-2.3284.9578m-8.8582-.9974l-.1667-16.3037c0-.7064.5-1.2488 1.2885-1.6642l1.0822-.582h-4.3233l-5.6568 15.875-5.4478-15.875H.2513l.9975.582c.7488.4154 1.2065.9578 1.2065 1.6642l-.291 15.3459a2.5585 2.5585 0 01-1.0822 1.9552L0 23.622h5.4054l-1.1218-.9155c-.6641-.582-1.0398-1.1641-1.0398-1.9552l.2487-14.0997 6.1595 16.817 6.0722-16.8037.1243 15.0547c0 .5821-.5 1.0399-1.1641 1.413l-.9155.5h6.2812l-.9154-.5c-.6668-.3731-1.1219-.8309-1.1219-1.413" fill="#1d1d1b"/></svg>