<svg xmlns="http://www.w3.org/2000/svg" height="800" width="1200" viewBox="-6.7027485 -2.1734025 58.090487 13.040415"><path d="M16.82434 3.86664c-.05292-.21167 0-.39687.13229-.52917.26458-.26458.5027.0529.3175.26459-.10583.13229-.26458.21166-.4498.26458zm-3.46604.0265c-.29105.66146.29104.92604.58208.3175.3175-.68792-.3175-.87313-.58208-.3175zm-1.42875-.58208c-.05292.26458-.15875.52916-.26459.76729-.10583.23812-.15875.23812-.23812-.0265-.05292-.21167-.10584-.47625-.15875-.68792-.05292-.26458-.02646-.29104.13229-.23812.1852.0529.37042.10583.52917.18521zm.60854-2.83105c.05292-.26458.21166-.34395.42333-.23812.15875.0794.23813.15875.21167.39687-.10584.79375-.23813 1.50813-.50271 2.16959.29104.13229.58208.18521.89958.15875.3175-.0265.60854-.10584.87313-.18521.26458-.10583.29104 0 .44979.0794.3175.15875.58208.0794.58208.47625 0 .29105.02646.58209.1323.87313.10583.29104.29104.29104.47624.0794 0-.66145.23813-1.21708.74084-1.40229.5027-.18521.97896-.0529 1.00541.68792 0 .3175-.3175.55562-.8202.82021.10583.15875.34395.23812.635.18521.55562-.1323.9525-.18521 1.19062 0 .1323.10583.26458.0794.10583.34395-.07938.1323-.15875.21167-.39687.0794-.26458-.15875-.52917-.13229-.84667.0265-.3175.13229-.66146.23812-1.00541.10583-.21167-.0794-.34396-.18521-.42334-.37042-.13229.1323-.3175.23813-.52916.34396-.26459.10584-.47625.10584-.58209-.15875-.1852-.44979-.21166-.84666-.3175-1.27-.05292-.21166-.15875-.42333-.42333-.34396.29104.52917.21167 1.0848-.39688 1.5875-.44979.37042-1.08479.37042-1.32291-.1852-.15875-.39688.10583-.89959.42333-1.32292-.1852.0265-.42333.0265-.60854-.0265-.21167.635-.39688 1.19063-.68792 1.5875-.1852.26458-.44979.26458-.60854-.0529-.3175-.635-.4498-1.29645-.58208-1.93145-.10584-.4498.07937-.68792.47625-.58209.34396.0794.66146.18521.97896.26459.1852-.74084.3175-1.45521.44979-2.19605zm-3.4925 3.6248c.05292-.21167.21166-.39688.37041-.52917.21167-.18521.42334-.10583.3175.21167-.07938.21166-.1852.39687-.3175.52916-.26458.18521-.44979.10584-.37041-.21166zm-2.54-.52917c-.05292-.18521.02646-.34396.23812-.50271.29104-.21167.42334-.15875.47625.13229.05292.26459.1323.58209.21167.84667.29104-.26458.58208-.60854.8202-.92604.21167-.23813.47626-.3175.79376-.29104.13229 0 .26458.13229.37041.13229.23813-.0265.3175-.0794.50271-.0794.26459 0 .4498.15875.4498.50271 0 .26458-.05293.52917-.02647.79375.02646.26458.1323.42333.34396.42333.21167 0 .26459.0529.1323.21167-.10584.15875-.26459.23813-.42334.29104-.13229.0529-.29104.0794-.39687-.0265-.26459-.21166-.29104-.3175-.50271-.15875-.4498.3175-.97896.34396-1.0848-.10583-.05291-.23812.1323-.92604.37042-1.21708.29105-.34396.05292-.34396-.21166-.0794-.47625.47625-.84667.97896-1.27 1.45521-.18521.23813-.3175.23813-.39688-.0529-.21166-.42333-.29104-.87312-.39687-1.34937zm-.635-.79375c-.02646-.29104.05292-.79375.23812-1.34938.26459-.76729.635-.55562.4498.1323-.1323.5027-.39688.97895-.68792 1.21708zM3.22475 3.81376c-.21166.26459-.26458.50271-.15875.635.1323.1323.34396.0265.55563-.26458.26458-.37042.15875-.635.10583-.68792-.10583-.0794-.3175.10584-.5027.3175zm1.11125.1323c-.05292.34395.07937.44979.39688.23812.15875-.10583.3175-.21167.42333-.39687C5.12975 2.49085 5.5531 1.22085 6.32038.4271c.55562-.58209.9525-.0794.79375.92604-.1323.9525-.66146 1.69333-1.21708 2.35479 0 .55563.15875.89958.3175 1.34938.10583.29104 0 .39687-.18521.47625-.29104.15875-.37042.0794-.50271-.18521-.1323-.29104-.23813-.66146-.3175-.97896-.21167.21167-.42333.44979-.66146.60854-.44979.34396-.60854.26458-.8202-.23812-.23813.15875-.47626.37041-.79376.42333-.34396.0529-.71437-.21167-.66146-.52917.10584-.74083.55563-1.24354 1.16417-1.61396.58208-.34395 1.00542.0265.89958.92605zM3.91267.58585c.42333-.34396 0-.71438-.44979-.42334-.5027.3175-.8202.58209-1.48167 1.0848-.84666.635-.42333 1.5875-.52916 2.51354-.05292.52916-.29105.68791-.60855.39687-.23812-.21166-.44979-.18521-.66145.0794-.26459.34396-.21167.42333-.02646.58208.74083.71438 1.71979.44979 2.01083-.52917.1852-.58208.07938-1.24354.02646-1.85208 0-.50271.1852-.635.47625-.89958.39687-.3175.8202-.635 1.24354-.9525zm18.89125 3.06916c.0265-.23812.1323-.37041.3175-.44979.34395-.15875.4498.23813.21166.37042-.15875.0794-.34396.10583-.52916.0794zm5.68854.39688c0-.15875.1323-.34396.26458-.50271.18521-.18521.37042-.0794.34396.23813-.0265.21166-.0794.29104-.21167.42333-.21166.23812-.42333.15875-.39687-.15875zm4.8948.0794c0-.15875.10582-.37041.23811-.52916.18522-.21167.39689-.10584.37043.21166-.0265.21167-.0529.3175-.18522.4498-.1852.26458-.42332.1852-.42332-.1323zm7.27603.1323c0-.15875.1323-.29105.29104-.4498.18522-.21166.39689-.10583.39689.21167-.0265.21167-.0265.39688-.15875.47625-.2646.15875-.52917.0794-.52917-.23812zm-9.76312.10583c-.0265-.18521.0529-.47625.1852-.68792.18521-.29104.42334-.21166.4498.15875.0265.26459.0265.44979-.10584.635-.1852.34396-.47625.26459-.52916-.10583zM21.481 3.07296c-.21167-.0794-.15875-.18521-.13229-.37042.10583-.44979.23812-.79375.37041-1.21708.10584-.39687-.23812-.58208-.5027-.26458-.10584.13229-.1852.3175-.26459.47625-.10583.18521-.21166.15875-.26458-.0529-.0794-.26458-.1852-.55562-.26458-.82021-.0794-.26458.0265-.29104.39687-.23812 1.82563.26458 3.83646.37041 5.92667.47625.3175.0265.50271-.0794.60854-.34396.10584-.23813.0265-.34396-.29103-.34396-2.27542-.0529-4.55084-.21167-6.77334-.37042-.39687-.0265-.58208.0794-.5027.50271.13228.74084.3175 1.48167.58207 2.2225-.13228-.0265-.23812-.0794-.37041-.0794-.26458 0-.4498.13229-.26458.60854.10583.29104.34396.71437.23812 1.00542-.15875.37041-.1852.635-.34395 1.00541-.10584.26459-.0794.39688.21166.47625.26459.0794.44979.0265.52917-.21166.23812-.60855.44979-1.24355.66146-1.85209.34396.0794.74083.15875 1.05833.29104.0529.39688.13229.79375.635 1.0848.5027.29104.97896.23812 1.4552-.15875.23813-.21167.55563-.50271.71438-1.21709.0265 0 .0529.0265.10584.0265-.0529.15875-.15875.82021-.0265 1.21708.13229.39688.44979.37042.74083.15875.42334-.3175.71438-.79375.8202-1.37583.0529-.3175.18522-.3175.15876.0265-.0529.55562-.0794 1.13771.21167 1.53458.15875.21167.3704.21167.52916.0265.15875-.18521.29105-.39687.47625-.50271.23813.635.74084.44979 1.27-.0265.23813.55563.55563.58209 1.0848.10584l.0265-.0265c.0529.0794.10583.15875.21166.23812.23813.21167.60854.0794.97896-.0794-.71438.9525-1.48167 1.74625-1.79917 2.72521-.23812.74083.23813 1.24354.89959.79375.79375-.55563 1.3229-1.64042 1.53458-3.43959l.68792-.68791c-.0529.39687-.0265.82021.44979.82021.3175 0 .58208-.23813.87312-.50271.42334 1.03187 1.00542 0 1.42875-.37042 0 .15875-.0265.50271 0 .635.0794.39688.39688.26458.635.10583.3175-.21166.58209-.44979.84667-.68791.21167-.15875.23812-.15875.1852.0794-.0265.13229-.0265.29104 0 .42334.0529.39687.3175.39687.60855.1852.21167-.1852.42333-.37041.60854-.58208.23812-.23812.26457-.23812.21166.0529-.0265.10583-.0529.23812-.0529.37042-.0265.37041.21168.37041.55563.15875.3175-.21167.60854-.4498.92604-.66146.0529.44979.26458.71437.66145.79375.5821.10583 1.03188-.10584 1.27-.66146.23813-.50271.15875-.9525-.0529-1.08479.7673.0529 1.5346.0794 2.30188.15875.26458.0265.42333-.0529.42333-.3175 0-.18521-.13229-.29104-.44979-.29104-.76729 0-1.53458-.0265-2.30187-.0265-.37042 0-.66146.10583-.9525.26458-.5027.29104-.87313.87313-1.32292 1.11125-.23813.13229-.29104.13229-.21167-.10583.10584-.3175.21167-.635.2646-.9525.0265-.3175-.21168-.4498-.47626-.21167-.42333.37042-.71437.84667-1.11125 1.24354-.1852.21167-.26458.15875-.1852-.0794.10583-.34396.1852-.68792.15874-1.03188-.0265-.39687-.29104-.44979-.52916-.13229-.29105.39687-.58209.82021-1.03188 1.19062-.21167.18521-.34396.34396-.26458-.0264.0529-.39688.18521-.74084.1323-1.0848-.0265-.21166-.21168-.37041-.47626-.0794-.29104.34396-.47625.76729-.76729 1.13771-.15875.21166-.39688.26458-.47625-.13229-.0529-.23813-.10584-.50271-.15875-.74084-.10584-.44979-.34396-.55562-.76729-.3175-.55563.3175-1.0848.79375-1.5875 1.29646-.0265-.71437-.0794-1.05833-.23813-1.19062-.3175-.23813-.66146-.34396-.97896-.0794-.26458.21167-.39687.50271-.52916.79375-.0529.10583-.0794.18521-.1323.29104-.0265.0265-.0529.0794-.0794.10584-.1852.23812-.29104.21166-.37042-.10584-.0794-.37041-.10583-.60854-.1852-.97896-.0529-.3175-.39688-.5027-.79376-.23812-.5027.34396-.84666.89958-1.21708 1.48167-.1852.29104-.29104.26458-.29104-.10584 0-.3175 0-.66146.10583-.97896.0529-.21166.2646-.55562-.0265-.60854-.21166-.0529-.39687.21167-.58208.21167-.34396 0-.60854-.42333-.89958-.0794-.13229.15875-.13229.37042.1323.74084.0529.0794 0 .37041-.10584.55562-.21167.3175-.37042.29104-.4498-.0529-.0529-.29105 0-.58209.0794-.87313.0265-.13229.10584-.3175-.0265-.42333-.13229-.0794-.29104.0529-.42333.0529-.21167-.0265-.34396-.21166-.52917-.1852-.29104.0529-.58208.29104-.29104.68791.0529.0794.1323.15875.18521.18521-.0265.55563-.26459 1.00542-.87313 1.11125-.39687.0529-.6879-.21167-.76729-.50271.60854.0529 1.00542-.15875 1.0848-.66146.0794-.47625-.23813-.76729-.66147-.76729-.52916-.0265-.84666.23813-1.05833.60854-.29104-.10583-.52917-.15875-.76729-.26458zm9.76312 2.98979c-.0794.50271-.23812 1.03188-.58208 1.45521-.29104.37042-.635.42333-.34396-.21167.21167-.42333.52917-.8202.92604-1.24354z" clip-rule="evenodd" fill="#ed1c24" fill-rule="evenodd"/></svg>