<?xml version="1.0" encoding="UTF-8" standalone="no"?>
<svg
   xmlns:dc="http://purl.org/dc/elements/1.1/"
   xmlns:cc="http://creativecommons.org/ns#"
   xmlns:rdf="http://www.w3.org/1999/02/22-rdf-syntax-ns#"
   xmlns:svg="http://www.w3.org/2000/svg"
   xmlns="http://www.w3.org/2000/svg"
   viewBox="0 0 666.66669 666.66669"
   height="666.66669"
   width="666.66669"
   xml:space="preserve"
   id="svg2"
   version="1.1"><metadata
     id="metadata8"><rdf:RDF><cc:Work
         rdf:about=""><dc:format>image/svg+xml</dc:format><dc:type
           rdf:resource="http://purl.org/dc/dcmitype/StillImage" /></cc:Work></rdf:RDF></metadata><defs
     id="defs6"><clipPath
       id="clipPath18"
       clipPathUnits="userSpaceOnUse"><path
         id="path16"
         d="M 0,790 H 605 V 0 H 0 Z" /></clipPath><pattern
       id="pattern50"
       height="79"
       width="60.5"
       y="0"
       x="0"
       patternUnits="userSpaceOnUse"
       patternTransform="matrix(10,0,0,10,0,260)"><g
         id="g48"
         transform="scale(0.1)"><g
           id="g46"><g
             id="g44"
             clip-path="url(#clipPath18)"><path
               id="path20"
               style="fill:none;stroke:#808080;stroke-opacity:1;stroke-width:10;stroke-linecap:butt;stroke-linejoin:miter;stroke-miterlimit:10;stroke-dasharray:none"
               d="m 785.945,-23.9883 c -0.226,-1.3047 0.645,-2.5469 1.95,-2.7773 1.628,-0.2852 3.183,0.8047 3.468,2.4336 0.36,2.039 -1.004,3.9843 -3.043,4.3398 -2.547,0.4492 -4.976,-1.2539 -5.422,-3.8008 -0.558,-3.1875 1.567,-6.2226 4.754,-6.7812 3.981,-0.6992 7.778,1.9609 8.477,5.9414 0.875,4.9765 -2.453,9.7187 -7.43,10.5937 -6.219,1.0938 -12.148,-3.0625 -13.242,-9.2851 -1.367,-7.7735 3.828,-15.1875 11.606,-16.5547 9.718,-1.707 18.984,4.7891 20.691,14.5078 2.137,12.1523 -5.981,23.73438 -18.133,25.867194 -15.187,2.671876 -29.664,-7.480474 -32.336,-22.667994 -3.336,-18.9844 9.352,-37.0781 28.336,-40.4179 23.734,-4.168 46.352,11.6875 50.524,35.4218 5.21,29.66409 -14.61,57.9375 -44.274,63.1485 -37.082,6.5195 -72.426,-18.2578 -78.941,-55.3399 -8.145,-46.3515 22.828,-90.5316 69.175,-98.6756 57.942,-10.184 113.165,28.5311 123.344,86.4725 C 918.18,40.8594 869.785,109.891 797.363,122.617 728.43,134.73 662.406,102.262 627.141,46.5352 602.723,7.95313 611.293,-13.5117 583.453,-56.1172 544.348,-115.961 467.941,-144.063 396.156,-121.738 325.941,-99.9023 286.723,-25.2773 308.559,44.9375 326.027,101.109 385.727,132.488 441.898,115.016 486.84,101.043 511.938,53.2813 497.965,8.34375 486.781,-27.6055 448.574,-47.6875 412.625,-36.5078 c -28.762,8.9453 -44.824,39.51171 -35.883,68.2734 7.156,23.0078 31.61,35.8594 54.617,28.7032 C 449.77,54.7461 460.051,35.1836 454.324,16.7734 449.746,2.05078 434.094,-6.17578 419.371,-1.59375 407.59,2.06641 401.012,14.5859 404.672,26.3672 c 2.933,9.4258 12.949,14.6875 22.371,11.7578 7.543,-2.3437 11.754,-10.3555 9.406,-17.8945 -1.875,-6.0352 -8.285,-9.4024 -14.316,-7.5274 -4.824,1.5 -7.52,6.6289 -6.02,11.4532 1.2,3.8632 5.305,6.0195 9.164,4.8164 3.086,-0.961 4.813,-4.2422 3.852,-7.3282 -0.77,-2.4726 -3.395,-3.8515 -5.863,-3.082 -1.977,0.6133 -3.082,2.7148 -2.465,4.6914 0.488,1.5781 2.172,2.4649 3.75,1.9727 1.265,-0.3946 1.972,-1.7383 1.578,-3.0039" /><path
               id="path22"
               style="fill:none;stroke:#808080;stroke-opacity:1;stroke-width:10;stroke-linecap:butt;stroke-linejoin:miter;stroke-miterlimit:10;stroke-dasharray:none"
               d="m 627.707,180.945 c 1.305,-0.23 2.547,0.645 2.777,1.95 0.286,1.628 -0.804,3.183 -2.433,3.468 -2.039,0.36 -3.985,-1.004 -4.34,-3.043 -0.449,-2.547 1.254,-4.976 3.801,-5.422 3.187,-0.558 6.222,1.567 6.781,4.754 0.699,3.981 -1.961,7.778 -5.941,8.477 -4.977,0.875 -9.719,-2.453 -10.594,-7.43 -1.094,-6.222 3.062,-12.148 9.285,-13.242 7.773,-1.367 15.187,3.828 16.555,11.606 1.707,9.718 -4.789,18.984 -14.508,20.691 -12.152,2.137 -23.735,-5.981 -25.867,-18.133 -2.672,-15.187 7.476,-29.664 22.668,-32.336 18.984,-3.336 37.078,9.352 40.414,28.336 4.172,23.734 -11.684,46.352 -35.418,50.524 -29.664,5.21 -57.938,-14.61 -63.153,-44.274 -6.515,-37.082 18.262,-72.426 55.344,-78.941 46.352,-8.1448 90.527,22.828 98.676,69.175 10.18,57.942 -28.535,113.165 -86.473,123.344 C 562.859,313.18 493.828,264.785 481.102,192.363 468.988,123.43 501.453,57.4063 557.184,22.1367 595.766,-2.27734 617.23,6.29297 659.836,-21.5469 c 59.844,-39.1054 87.945,-115.5121 65.621,-187.2971 -21.836,-70.215 -96.461,-109.433 -166.676,-87.597 -56.176,17.468 -87.551,77.168 -70.082,133.339 13.977,44.942 61.739,70.0395 106.676,56.067 35.949,-11.184 56.031,-49.391 44.852,-85.34 -8.946,-28.762 -39.512,-44.824 -68.274,-35.883 -23.008,7.156 -35.859,31.61 -28.703,54.617 5.723,18.411 25.285,28.692 43.691,22.965 14.727,-4.578 22.954,-20.23 18.372,-34.953 -3.665,-11.781 -16.184,-18.359 -27.961,-14.699 -9.426,2.933 -14.692,12.949 -11.758,22.371 2.344,7.543 10.355,11.754 17.894,9.406 6.032,-1.875 9.403,-8.285 7.528,-14.316 -1.504,-4.824 -6.629,-7.52 -11.457,-6.02 -3.86,1.199 -6.016,5.301 -4.817,9.164 0.961,3.086 4.246,4.813 7.332,3.852 2.473,-0.77 3.852,-3.395 3.082,-5.863 -0.613,-1.977 -2.715,-3.082 -4.691,-2.465 -1.582,0.488 -2.465,2.172 -1.973,3.75 0.395,1.265 1.738,1.972 3.004,1.578" /><path
               id="path24"
               style="fill:none;stroke:#808080;stroke-opacity:1;stroke-width:10;stroke-linecap:butt;stroke-linejoin:miter;stroke-miterlimit:10;stroke-dasharray:none"
               d="m 180.945,-23.9883 c -0.23,-1.3047 0.645,-2.5469 1.95,-2.7773 1.628,-0.2852 3.183,0.8047 3.468,2.4336 0.36,2.039 -1.004,3.9843 -3.043,4.3398 -2.547,0.4492 -4.976,-1.2539 -5.422,-3.8008 -0.558,-3.1875 1.567,-6.2226 4.754,-6.7812 3.981,-0.6992 7.778,1.9609 8.477,5.9414 0.875,4.9765 -2.453,9.7187 -7.43,10.5937 -6.219,1.0938 -12.148,-3.0625 -13.242,-9.2851 -1.367,-7.7735 3.828,-15.1875 11.606,-16.5547 9.718,-1.707 18.984,4.7891 20.691,14.5078 2.137,12.1523 -5.981,23.73438 -18.133,25.867194 -15.187,2.671876 -29.664,-7.480474 -32.336,-22.667994 -3.336,-18.9844 9.352,-37.0781 28.336,-40.4179 23.734,-4.168 46.352,11.6875 50.524,35.4218 5.21,29.66409 -14.61,57.9375 -44.274,63.1485 -37.082,6.5195 -72.426,-18.2578 -78.941,-55.3399 -8.1448,-46.3515 22.828,-90.5316 69.175,-98.6756 57.942,-10.184 113.165,28.5311 123.344,86.4725 C 313.18,40.8594 264.785,109.891 192.363,122.617 123.43,134.73 57.4063,102.262 22.1367,46.5352 -2.27734,7.95313 6.29297,-13.5117 -21.5469,-56.1172 -60.6523,-115.961 -137.059,-144.063 -208.844,-121.738 c -70.215,21.8357 -109.433,96.4607 -87.597,166.6755 17.468,56.1715 77.168,87.5505 133.339,70.0785 44.942,-13.973 70.0395,-61.7347 56.067,-106.67225 -11.184,-35.94925 -49.391,-56.03125 -85.34,-44.85155 -28.762,8.9453 -44.824,39.51171 -35.879,68.2734 7.152,23.0078 31.606,35.8594 54.613,28.7032 18.411,-5.7227 28.692,-25.2852 22.965,-43.6954 -4.578,-14.72262 -20.23,-22.94918 -34.953,-18.36715 -11.781,3.66016 -18.359,16.17965 -14.699,27.96095 2.933,9.4258 12.949,14.6875 22.371,11.7578 7.543,-2.3437 11.754,-10.3555 9.406,-17.8945 -1.875,-6.0352 -8.285,-9.4024 -14.316,-7.5274 -4.824,1.5 -7.52,6.6289 -6.02,11.4532 1.199,3.8632 5.301,6.0195 9.164,4.8164 3.086,-0.961 4.813,-4.2422 3.852,-7.3282 -0.77,-2.4726 -3.395,-3.8515 -5.863,-3.082 -1.977,0.6133 -3.082,2.7148 -2.465,4.6914 0.488,1.5781 2.172,2.4649 3.75,1.9727 1.265,-0.3946 1.972,-1.7383 1.578,-3.0039" /><path
               id="path26"
               style="fill:none;stroke:#808080;stroke-opacity:1;stroke-width:10;stroke-linecap:butt;stroke-linejoin:miter;stroke-miterlimit:10;stroke-dasharray:none"
               d="m 22.707,180.945 c 1.3047,-0.23 2.5469,0.645 2.7774,1.95 0.2851,1.628 -0.8047,3.183 -2.4336,3.468 -2.0391,0.36 -3.9844,-1.004 -4.3399,-3.043 -0.4492,-2.547 1.2539,-4.976 3.8008,-5.422 3.1875,-0.558 6.2227,1.567 6.7813,4.754 0.6992,3.981 -1.961,7.778 -5.9414,8.477 -4.9766,0.875 -9.7227,-2.453 -10.5938,-7.43 -1.0937,-6.222 3.0625,-12.148 9.2813,-13.242 7.7773,-1.367 15.1914,3.828 16.5547,11.606 1.7109,9.718 -4.7852,18.984 -14.504,20.691 -12.1523,2.137 -23.734331,-5.981 -25.86714,-18.133 -2.67188,-15.187 7.47656,-29.664 22.66794,-32.336 18.9844,-3.336 37.0782,9.352 40.4141,28.336 4.1719,23.734 -11.6836,46.352 -35.418,50.524 -29.66404,5.21 -57.9375,-14.61 -63.1523,-44.274 -6.5157,-37.082 18.2617,-72.426 55.3437,-78.941 46.3516,-8.1448 90.5269,22.828 98.6759,69.175 C 126.934,235.047 88.2188,290.27 30.2813,300.449 -42.1406,313.18 -111.172,264.785 -123.898,192.363 -136.012,123.43 -103.547,57.4063 -47.8164,22.1367 -9.23438,-2.27734 12.2305,6.29297 54.8359,-21.5469 114.68,-60.6523 142.781,-137.059 120.457,-208.844 98.6211,-279.059 23.9961,-318.277 -46.2188,-296.441 c -56.1762,17.468 -87.5512,77.168 -70.0822,133.339 13.977,44.942 61.7385,70.0395 106.676,56.067 35.9492,-11.184 56.0313,-49.391 44.8516,-85.34 -8.9453,-28.762 -39.51176,-44.824 -68.2735,-35.883 -23.0078,7.156 -35.8594,31.61 -28.7031,54.617 5.7227,18.411 25.2852,28.692 43.6914,22.965 14.72657,-4.578 22.95313,-20.23 18.3711,-34.953 -3.66406,-11.781 -16.1836,-18.359 -27.9609,-14.699 -9.4258,2.933 -14.6914,12.949 -11.7579,22.371 2.3438,7.543 10.3555,11.754 17.8946,9.406 6.0312,-1.875 9.4023,-8.285 7.5273,-14.316 -1.5039,-4.824 -6.6289,-7.52 -11.457,-6.02 -3.8594,1.199 -6.0156,5.301 -4.8125,9.164 0.957,3.086 4.2422,4.813 7.3281,3.852 2.4727,-0.77 3.8516,-3.395 3.082,-5.863 -0.6132,-1.977 -2.7148,-3.082 -4.6914,-2.465 -1.582,0.488 -2.4648,2.172 -1.9726,3.75 0.3945,1.265 1.7383,1.972 3.0039,1.578" /><path
               id="path28"
               style="fill:none;stroke:#808080;stroke-opacity:1;stroke-width:10;stroke-linecap:butt;stroke-linejoin:miter;stroke-miterlimit:10;stroke-dasharray:none"
               d="m 1088.45,371.012 c -0.23,-1.305 0.64,-2.547 1.94,-2.778 1.63,-0.285 3.19,0.805 3.47,2.434 0.36,2.039 -1,3.98 -3.04,4.34 -2.55,0.449 -4.97,-1.254 -5.42,-3.801 -0.56,-3.187 1.57,-6.223 4.75,-6.781 3.98,-0.699 7.78,1.961 8.48,5.941 0.87,4.977 -2.45,9.719 -7.43,10.594 -6.22,1.094 -12.15,-3.063 -13.24,-9.285 -1.37,-7.774 3.83,-15.188 11.6,-16.555 9.72,-1.707 18.99,4.789 20.7,14.508 2.13,12.152 -5.99,23.734 -18.14,25.867 -15.19,2.672 -29.66,-7.48 -32.33,-22.668 -3.34,-18.984 9.35,-37.082 28.33,-40.418 23.73,-4.168 46.35,11.688 50.52,35.418 5.22,29.668 -14.6,57.942 -44.27,63.152 -37.08,6.52 -72.42,-18.257 -78.94,-55.339 -8.15,-46.352 22.83,-90.532 69.18,-98.676 57.94,-10.184 113.16,28.531 123.34,86.473 12.73,72.421 -35.66,141.453 -108.09,154.179 -68.93,12.113 -134.954,-20.355 -170.219,-76.082 -24.418,-38.582 -15.848,-60.047 -43.688,-102.652 -39.105,-59.844 -115.512,-87.945 -187.297,-65.621 -70.215,21.836 -109.433,96.461 -87.597,166.676 17.468,56.171 77.168,87.55 133.339,70.078 44.942,-13.973 70.04,-61.735 56.067,-106.672 -11.184,-35.949 -49.391,-56.031 -85.34,-44.852 -28.762,8.946 -44.824,39.512 -35.879,68.274 7.152,23.007 31.606,35.859 54.613,28.703 18.411,-5.727 28.692,-25.285 22.965,-43.696 -4.578,-14.722 -20.226,-22.949 -34.953,-18.371 -11.781,3.664 -18.359,16.188 -14.699,27.965 2.933,9.426 12.949,14.688 22.371,11.758 7.543,-2.344 11.754,-10.355 9.406,-17.895 -1.875,-6.035 -8.285,-9.402 -14.316,-7.527 -4.824,1.5 -7.52,6.629 -6.02,11.453 1.2,3.864 5.305,6.02 9.164,4.817 3.086,-0.961 4.813,-4.243 3.852,-7.328 -0.77,-2.473 -3.395,-3.852 -5.863,-3.082 -1.977,0.613 -3.082,2.714 -2.465,4.691 0.488,1.582 2.172,2.465 3.75,1.973 1.265,-0.395 1.972,-1.739 1.578,-3.004" /><path
               id="path30"
               style="fill:none;stroke:#808080;stroke-opacity:1;stroke-width:10;stroke-linecap:butt;stroke-linejoin:miter;stroke-miterlimit:10;stroke-dasharray:none"
               d="m 483.445,371.012 c -0.23,-1.305 0.645,-2.547 1.95,-2.778 1.628,-0.285 3.183,0.805 3.468,2.434 0.36,2.039 -1.004,3.98 -3.043,4.34 -2.547,0.449 -4.976,-1.254 -5.422,-3.801 -0.558,-3.187 1.567,-6.223 4.754,-6.781 3.981,-0.699 7.778,1.961 8.477,5.941 0.875,4.977 -2.453,9.719 -7.43,10.594 -6.219,1.094 -12.148,-3.063 -13.242,-9.285 -1.367,-7.774 3.828,-15.188 11.606,-16.555 9.718,-1.707 18.984,4.789 20.691,14.508 2.137,12.152 -5.981,23.734 -18.133,25.867 -15.187,2.672 -29.664,-7.48 -32.336,-22.668 -3.336,-18.984 9.352,-37.082 28.336,-40.418 23.734,-4.168 46.352,11.688 50.524,35.418 5.21,29.668 -14.61,57.942 -44.274,63.152 -37.082,6.52 -72.426,-18.257 -78.941,-55.339 -8.145,-46.352 22.828,-90.532 69.175,-98.676 57.942,-10.184 113.165,28.531 123.344,86.473 C 615.68,435.859 567.285,504.891 494.863,517.617 425.93,529.73 359.906,497.262 324.641,441.535 300.223,402.953 308.793,381.488 280.953,338.883 241.848,279.039 165.441,250.938 93.6563,273.262 23.4414,295.098 -15.7773,369.723 6.05859,439.938 c 17.46871,56.171 77.16801,87.55 133.33941,70.078 44.942,-13.973 70.04,-61.735 56.067,-106.672 -11.184,-35.949 -49.391,-56.031 -85.34,-44.852 -28.7617,8.946 -44.8242,39.512 -35.8789,68.274 7.1523,23.007 31.6059,35.859 54.6129,28.703 18.411,-5.727 28.692,-25.285 22.965,-43.696 -4.578,-14.722 -20.23,-22.949 -34.953,-18.371 -11.781,3.664 -18.3593,16.188 -14.699,27.965 2.933,9.426 12.949,14.688 22.371,11.758 7.543,-2.344 11.754,-10.355 9.406,-17.895 -1.875,-6.035 -8.285,-9.402 -14.316,-7.527 -4.824,1.5 -7.52,6.629 -6.02,11.453 1.2,3.864 5.301,6.02 9.164,4.817 3.086,-0.961 4.813,-4.243 3.852,-7.328 -0.77,-2.473 -3.395,-3.852 -5.863,-3.082 -1.977,0.613 -3.082,2.714 -2.465,4.691 0.488,1.582 2.172,2.465 3.75,1.973 1.265,-0.395 1.972,-1.739 1.578,-3.004" /><path
               id="path32"
               style="fill:none;stroke:#808080;stroke-opacity:1;stroke-width:10;stroke-linecap:butt;stroke-linejoin:miter;stroke-miterlimit:10;stroke-dasharray:none"
               d="m 325.207,575.945 c 1.305,-0.23 2.547,0.645 2.777,1.95 0.286,1.628 -0.804,3.183 -2.433,3.468 -2.039,0.36 -3.985,-1.004 -4.34,-3.043 -0.449,-2.547 1.254,-4.976 3.801,-5.422 3.187,-0.558 6.222,1.567 6.781,4.754 0.699,3.981 -1.961,7.778 -5.941,8.477 -4.977,0.875 -9.719,-2.453 -10.594,-7.43 -1.094,-6.222 3.062,-12.148 9.285,-13.242 7.773,-1.367 15.187,3.828 16.555,11.606 1.707,9.718 -4.789,18.984 -14.508,20.691 -12.152,2.137 -23.735,-5.981 -25.867,-18.133 -2.672,-15.187 7.476,-29.664 22.668,-32.336 18.984,-3.336 37.078,9.352 40.414,28.336 4.172,23.734 -11.684,46.352 -35.418,50.524 -29.664,5.21 -57.938,-14.61 -63.153,-44.274 -6.515,-37.082 18.262,-72.426 55.344,-78.941 46.352,-8.145 90.527,22.828 98.676,69.175 10.18,57.942 -28.535,113.165 -86.473,123.344 C 260.359,708.18 191.328,659.785 178.602,587.363 166.488,518.43 198.953,452.406 254.684,417.137 293.266,392.723 314.73,401.293 357.336,373.453 417.18,334.348 445.281,257.941 422.957,186.156 401.121,115.941 326.496,76.7227 256.281,98.5586 200.105,116.027 168.73,175.727 186.199,231.898 c 13.977,44.942 61.739,70.04 106.676,56.067 35.949,-11.184 56.031,-49.391 44.852,-85.34 -8.946,-28.762 -39.512,-44.824 -68.274,-35.883 -23.008,7.156 -35.859,31.61 -28.703,54.617 5.723,18.411 25.285,28.692 43.691,22.965 14.727,-4.578 22.954,-20.23 18.372,-34.953 -3.665,-11.781 -16.184,-18.359 -27.961,-14.699 -9.426,2.933 -14.692,12.949 -11.758,22.371 2.344,7.543 10.355,11.754 17.894,9.406 6.032,-1.875 9.403,-8.285 7.528,-14.316 -1.504,-4.824 -6.629,-7.52 -11.457,-6.02 -3.86,1.2 -6.016,5.301 -4.817,9.164 0.961,3.086 4.246,4.813 7.332,3.852 2.473,-0.77 3.852,-3.395 3.082,-5.863 -0.613,-1.977 -2.715,-3.082 -4.691,-2.465 -1.582,0.488 -2.465,2.172 -1.973,3.75 0.395,1.265 1.738,1.972 3.004,1.578" /><path
               id="path34"
               style="fill:none;stroke:#808080;stroke-opacity:1;stroke-width:10;stroke-linecap:butt;stroke-linejoin:miter;stroke-miterlimit:10;stroke-dasharray:none"
               d="m -121.555,371.012 c -0.23,-1.305 0.645,-2.547 1.95,-2.778 1.628,-0.285 3.183,0.805 3.468,2.434 0.36,2.039 -1.004,3.98 -3.043,4.34 -2.547,0.449 -4.976,-1.254 -5.422,-3.801 -0.558,-3.187 1.567,-6.223 4.754,-6.781 3.981,-0.699 7.778,1.961 8.477,5.941 0.875,4.977 -2.453,9.719 -7.43,10.594 -6.219,1.094 -12.148,-3.063 -13.242,-9.285 -1.367,-7.774 3.828,-15.188 11.605,-16.555 9.719,-1.707 18.985,4.789 20.6919,14.508 2.1367,12.152 -5.9809,23.734 -18.1329,25.867 -15.187,2.672 -29.664,-7.48 -32.336,-22.668 -3.336,-18.984 9.352,-37.082 28.336,-40.418 23.7345,-4.168 46.3517,11.688 50.5235,35.418 5.211,29.668 -14.6093,57.942 -44.2735,63.152 -37.082,6.52 -72.426,-18.257 -78.941,-55.339 -8.145,-46.352 22.828,-90.532 69.175,-98.676 57.9419,-10.184 113.1645,28.531 123.34812,86.473 12.72658,72.421 -35.66792,141.453 -108.09012,154.179 -68.933,12.113 -134.957,-20.355 -170.222,-76.082 -24.418,-38.582 -15.848,-60.047 -43.688,-102.652 -39.105,-59.844 -115.512,-87.945 -187.297,-65.621 -70.215,21.836 -109.433,96.461 -87.597,166.676 17.468,56.171 77.168,87.55 133.339,70.078 44.942,-13.973 70.039,-61.735 56.067,-106.672 -11.184,-35.949 -49.391,-56.031 -85.34,-44.852 -28.762,8.946 -44.824,39.512 -35.879,68.274 7.152,23.007 31.606,35.859 54.613,28.703 18.411,-5.727 28.692,-25.285 22.965,-43.696 -4.578,-14.722 -20.23,-22.949 -34.953,-18.371 -11.781,3.664 -18.359,16.188 -14.699,27.965 2.933,9.426 12.949,14.688 22.371,11.758 7.543,-2.344 11.754,-10.355 9.406,-17.895 -1.875,-6.035 -8.285,-9.402 -14.316,-7.527 -4.824,1.5 -7.52,6.629 -6.02,11.453 1.199,3.864 5.305,6.02 9.164,4.817 3.086,-0.961 4.813,-4.243 3.852,-7.328 -0.77,-2.473 -3.395,-3.852 -5.863,-3.082 -1.977,0.613 -3.082,2.714 -2.465,4.691 0.488,1.582 2.172,2.465 3.75,1.973 1.265,-0.395 1.972,-1.739 1.578,-3.004" /><path
               id="path36"
               style="fill:none;stroke:#808080;stroke-opacity:1;stroke-width:10;stroke-linecap:butt;stroke-linejoin:miter;stroke-miterlimit:10;stroke-dasharray:none"
               d="m 785.945,766.012 c -0.226,-1.305 0.645,-2.547 1.95,-2.778 1.628,-0.285 3.183,0.805 3.468,2.434 0.36,2.039 -1.004,3.98 -3.043,4.34 -2.547,0.449 -4.976,-1.254 -5.422,-3.801 -0.558,-3.187 1.567,-6.223 4.754,-6.781 3.981,-0.699 7.778,1.961 8.477,5.941 0.875,4.977 -2.453,9.719 -7.43,10.594 -6.219,1.094 -12.148,-3.063 -13.242,-9.285 -1.367,-7.774 3.828,-15.188 11.606,-16.555 9.718,-1.707 18.984,4.789 20.691,14.508 2.137,12.152 -5.981,23.734 -18.133,25.867 -15.187,2.668 -29.664,-7.48 -32.336,-22.668 -3.336,-18.984 9.352,-37.082 28.336,-40.418 23.734,-4.168 46.352,11.688 50.524,35.418 5.21,29.668 -14.61,57.942 -44.274,63.152 -37.082,6.52 -72.426,-18.257 -78.941,-55.339 -8.145,-46.352 22.828,-90.532 69.175,-98.676 57.942,-10.184 113.165,28.531 123.344,86.473 C 918.18,830.859 869.785,899.891 797.363,912.617 728.43,924.73 662.406,892.262 627.141,836.535 602.723,797.953 611.293,776.488 583.453,733.883 544.348,674.039 467.941,645.938 396.156,668.262 c -70.215,21.836 -109.433,96.461 -87.597,166.676 17.468,56.171 77.168,87.546 133.339,70.078 44.942,-13.973 70.04,-61.735 56.067,-106.672 -11.184,-35.949 -49.391,-56.031 -85.34,-44.852 -28.762,8.946 -44.824,39.512 -35.883,68.274 7.156,23.007 31.61,35.859 54.617,28.703 18.411,-5.727 28.692,-25.285 22.965,-43.696 -4.578,-14.722 -20.23,-22.949 -34.953,-18.371 -11.781,3.664 -18.359,16.188 -14.699,27.965 2.933,9.426 12.949,14.688 22.371,11.758 7.543,-2.344 11.754,-10.355 9.406,-17.895 -1.875,-6.035 -8.285,-9.402 -14.316,-7.527 -4.824,1.5 -7.52,6.629 -6.02,11.453 1.2,3.864 5.305,6.02 9.164,4.817 3.086,-0.961 4.813,-4.243 3.852,-7.328 -0.77,-2.473 -3.395,-3.852 -5.863,-3.082 -1.977,0.613 -3.082,2.714 -2.465,4.691 0.488,1.582 2.172,2.465 3.75,1.973 1.265,-0.395 1.972,-1.739 1.578,-3.004" /><path
               id="path38"
               style="fill:none;stroke:#808080;stroke-opacity:1;stroke-width:10;stroke-linecap:butt;stroke-linejoin:miter;stroke-miterlimit:10;stroke-dasharray:none"
               d="m 627.707,970.945 c 1.305,-0.23 2.547,0.645 2.777,1.95 0.286,1.628 -0.804,3.183 -2.433,3.468 -2.039,0.36 -3.985,-1.004 -4.34,-3.043 -0.449,-2.547 1.254,-4.976 3.801,-5.422 3.187,-0.558 6.222,1.567 6.781,4.754 0.699,3.981 -1.961,7.778 -5.941,8.477 -4.977,0.875 -9.719,-2.453 -10.594,-7.43 -1.094,-6.222 3.062,-12.148 9.285,-13.242 7.773,-1.367 15.187,3.828 16.555,11.606 1.707,9.718 -4.789,18.984 -14.508,20.691 -12.152,2.137 -23.735,-5.981 -25.867,-18.133 -2.672,-15.187 7.476,-29.664 22.668,-32.336 18.984,-3.336 37.078,9.352 40.414,28.336 4.172,23.734 -11.684,46.349 -35.418,50.519 -29.664,5.22 -57.938,-14.6 -63.153,-44.269 -6.515,-37.082 18.262,-72.426 55.344,-78.941 46.352,-8.145 90.527,22.828 98.676,69.175 10.18,57.945 -28.535,113.165 -86.473,123.345 -72.422,12.73 -141.453,-35.66 -154.179,-108.087 -12.114,-68.933 20.351,-134.957 76.082,-170.226 38.582,-24.414 60.046,-15.844 102.652,-43.684 59.844,-39.105 87.945,-115.512 65.621,-187.297 -21.836,-70.215 -96.461,-109.433 -166.676,-87.597 -56.176,17.468 -87.551,77.168 -70.082,133.339 13.977,44.942 61.739,70.04 106.676,56.067 35.949,-11.184 56.031,-49.391 44.852,-85.34 -8.946,-28.762 -39.512,-44.824 -68.274,-35.883 -23.008,7.156 -35.859,31.61 -28.703,54.617 5.723,18.411 25.285,28.692 43.691,22.965 14.727,-4.578 22.954,-20.23 18.372,-34.953 -3.665,-11.781 -16.184,-18.359 -27.961,-14.699 -9.426,2.933 -14.692,12.949 -11.758,22.371 2.344,7.543 10.355,11.754 17.894,9.406 6.032,-1.875 9.403,-8.285 7.528,-14.316 -1.504,-4.824 -6.629,-7.52 -11.457,-6.02 -3.86,1.2 -6.016,5.305 -4.817,9.164 0.961,3.086 4.246,4.813 7.332,3.852 2.473,-0.77 3.852,-3.395 3.082,-5.863 -0.613,-1.977 -2.715,-3.082 -4.691,-2.465 -1.582,0.488 -2.465,2.172 -1.973,3.75 0.395,1.265 1.738,1.972 3.004,1.578" /><path
               id="path40"
               style="fill:none;stroke:#808080;stroke-opacity:1;stroke-width:10;stroke-linecap:butt;stroke-linejoin:miter;stroke-miterlimit:10;stroke-dasharray:none"
               d="m 180.945,766.012 c -0.23,-1.305 0.645,-2.547 1.95,-2.778 1.628,-0.285 3.183,0.805 3.468,2.434 0.36,2.039 -1.004,3.98 -3.043,4.34 -2.547,0.449 -4.976,-1.254 -5.422,-3.801 -0.558,-3.187 1.567,-6.223 4.754,-6.781 3.981,-0.699 7.778,1.961 8.477,5.941 0.875,4.977 -2.453,9.719 -7.43,10.594 -6.219,1.094 -12.148,-3.063 -13.242,-9.285 -1.367,-7.774 3.828,-15.188 11.606,-16.555 9.718,-1.707 18.984,4.789 20.691,14.508 2.137,12.152 -5.981,23.734 -18.133,25.867 -15.187,2.668 -29.664,-7.48 -32.336,-22.668 -3.336,-18.984 9.352,-37.082 28.336,-40.418 23.734,-4.168 46.352,11.688 50.524,35.418 5.21,29.668 -14.61,57.942 -44.274,63.152 -37.082,6.52 -72.426,-18.257 -78.941,-55.339 -8.1448,-46.352 22.828,-90.532 69.175,-98.676 57.942,-10.184 113.165,28.531 123.344,86.473 C 313.18,830.859 264.785,899.891 192.363,912.617 123.43,924.73 57.4063,892.262 22.1367,836.535 -2.27734,797.953 6.29297,776.488 -21.5469,733.883 -60.6523,674.039 -137.059,645.938 -208.844,668.262 c -70.215,21.836 -109.433,96.461 -87.597,166.676 17.468,56.171 77.168,87.546 133.339,70.078 44.942,-13.973 70.0395,-61.735 56.067,-106.672 -11.184,-35.949 -49.391,-56.031 -85.34,-44.852 -28.762,8.946 -44.824,39.512 -35.879,68.274 7.152,23.007 31.606,35.859 54.613,28.703 18.411,-5.727 28.692,-25.285 22.965,-43.696 -4.578,-14.722 -20.23,-22.949 -34.953,-18.371 -11.781,3.664 -18.359,16.188 -14.699,27.965 2.933,9.426 12.949,14.688 22.371,11.758 7.543,-2.344 11.754,-10.355 9.406,-17.895 -1.875,-6.035 -8.285,-9.402 -14.316,-7.527 -4.824,1.5 -7.52,6.629 -6.02,11.453 1.199,3.864 5.301,6.02 9.164,4.817 3.086,-0.961 4.813,-4.243 3.852,-7.328 -0.77,-2.473 -3.395,-3.852 -5.863,-3.082 -1.977,0.613 -3.082,2.714 -2.465,4.691 0.488,1.582 2.172,2.465 3.75,1.973 1.265,-0.395 1.972,-1.739 1.578,-3.004" /><path
               id="path42"
               style="fill:none;stroke:#808080;stroke-opacity:1;stroke-width:10;stroke-linecap:butt;stroke-linejoin:miter;stroke-miterlimit:10;stroke-dasharray:none"
               d="m 22.707,970.945 c 1.3047,-0.23 2.5469,0.645 2.7774,1.95 0.2851,1.628 -0.8047,3.183 -2.4336,3.468 -2.0391,0.36 -3.9844,-1.004 -4.3399,-3.043 -0.4492,-2.547 1.2539,-4.976 3.8008,-5.422 3.1875,-0.558 6.2227,1.567 6.7813,4.754 0.6992,3.981 -1.961,7.778 -5.9414,8.477 -4.9766,0.875 -9.7227,-2.453 -10.5938,-7.43 -1.0937,-6.222 3.0625,-12.148 9.2813,-13.242 7.7773,-1.367 15.1914,3.828 16.5547,11.606 1.7109,9.718 -4.7852,18.984 -14.504,20.691 -12.1523,2.137 -23.734331,-5.981 -25.86714,-18.133 -2.67188,-15.187 7.47656,-29.664 22.66794,-32.336 18.9844,-3.336 37.0782,9.352 40.4141,28.336 4.1719,23.734 -11.6836,46.349 -35.418,50.519 -29.66404,5.22 -57.9375,-14.6 -63.1523,-44.269 -6.5157,-37.082 18.2617,-72.426 55.3437,-78.941 46.3516,-8.145 90.5269,22.828 98.6759,69.175 10.18,57.945 -28.5352,113.165 -86.4727,123.345 -72.4219,12.73 -141.4533,-35.66 -154.1793,-108.087 -12.114,-68.933 20.351,-134.957 76.0816,-170.226 C -9.23438,787.723 12.2305,796.293 54.8359,768.453 114.68,729.348 142.781,652.941 120.457,581.156 98.6211,510.941 23.9961,471.723 -46.2188,493.559 c -56.1762,17.468 -87.5512,77.168 -70.0822,133.339 13.977,44.942 61.7385,70.04 106.676,56.067 35.9492,-11.184 56.0313,-49.391 44.8516,-85.34 -8.9453,-28.762 -39.51176,-44.824 -68.2735,-35.883 -23.0078,7.156 -35.8594,31.61 -28.7031,54.617 5.7227,18.411 25.2852,28.692 43.6914,22.965 14.72657,-4.578 22.95313,-20.23 18.3711,-34.953 -3.66406,-11.781 -16.1836,-18.359 -27.9609,-14.699 -9.4258,2.933 -14.6914,12.949 -11.7579,22.371 2.3438,7.543 10.3555,11.754 17.8946,9.406 6.0312,-1.875 9.4023,-8.285 7.5273,-14.316 -1.5039,-4.824 -6.6289,-7.52 -11.457,-6.02 -3.8594,1.2 -6.0156,5.305 -4.8125,9.164 0.957,3.086 4.2422,4.813 7.3281,3.852 2.4727,-0.77 3.8516,-3.395 3.082,-5.863 -0.6132,-1.977 -2.7148,-3.082 -4.6914,-2.465 -1.582,0.488 -2.4648,2.172 -1.9726,3.75 0.3945,1.265 1.7383,1.972 3.0039,1.578" /></g></g></g></pattern></defs><g
     transform="matrix(1.3333333,0,0,-1.3333333,0,666.66667)"
     id="g10"><g
       transform="scale(0.1)"
       id="g12"><path
         id="path14"
         style="fill:#000000;fill-opacity:1;fill-rule:nonzero;stroke:none"
         d="M 5000,0 H 0 V 5000 H 5000 V 0" /><path
         id="path52"
         style="fill:url(#pattern50);fill-opacity:1;fill-rule:nonzero;stroke:none"
         d="M 5000,0 H 0 V 5000 H 5000 V 0" /></g></g></svg>