<?xml version="1.0" encoding="UTF-8" standalone="no"?>
<svg
   xmlns:dc="http://purl.org/dc/elements/1.1/"
   xmlns:cc="http://creativecommons.org/ns#"
   xmlns:rdf="http://www.w3.org/1999/02/22-rdf-syntax-ns#"
   xmlns:svg="http://www.w3.org/2000/svg"
   xmlns="http://www.w3.org/2000/svg"
   viewBox="0 0 666.66669 666.66669"
   height="666.66669"
   width="666.66669"
   xml:space="preserve"
   id="svg2"
   version="1.1"><metadata
     id="metadata8"><rdf:RDF><cc:Work
         rdf:about=""><dc:format>image/svg+xml</dc:format><dc:type
           rdf:resource="http://purl.org/dc/dcmitype/StillImage" /></cc:Work></rdf:RDF></metadata><defs
     id="defs6"><clipPath
       id="clipPath18"
       clipPathUnits="userSpaceOnUse"><path
         id="path16"
         d="M 0,375 H 650 V 0 H 0 Z" /></clipPath><pattern
       id="pattern52"
       height="37.5"
       width="65"
       y="0"
       x="0"
       patternUnits="userSpaceOnUse"
       patternTransform="matrix(10,0,0,10,0,125)"><g
         id="g50"
         transform="scale(0.1)"><g
           id="g48"><g
             id="g46"
             clip-path="url(#clipPath18)"><path
               id="path20"
               style="fill:none;stroke:#606264;stroke-opacity:1;stroke-width:10;stroke-linecap:butt;stroke-linejoin:miter;stroke-miterlimit:10;stroke-dasharray:none"
               d="m 623.039,233.582 -151.371,0 -75.684,-131.09 75.684,-131.0897 151.371,0 75.684,131.0897 -75.684,131.09 z" /><path
               id="path22"
               style="fill:none;stroke:#606264;stroke-opacity:1;stroke-width:10;stroke-linecap:butt;stroke-linejoin:miter;stroke-miterlimit:10;stroke-dasharray:none"
               d="m 471.668,233.582 75.684,-131.09 151.371,0" /><path
               id="path24"
               style="fill:none;stroke:#606264;stroke-opacity:1;stroke-width:10;stroke-linecap:butt;stroke-linejoin:miter;stroke-miterlimit:10;stroke-dasharray:none"
               d="M 471.668,-28.5977 547.352,102.492" /><path
               id="path26"
               style="fill:none;stroke:#606264;stroke-opacity:1;stroke-width:10;stroke-linecap:butt;stroke-linejoin:miter;stroke-miterlimit:10;stroke-dasharray:none"
               d="m 298.039,46.082 -151.371,0 -75.6836,-131.0898 75.6836,-131.0902 151.371,0 75.684,131.0902 -75.684,131.0898 z" /><path
               id="path28"
               style="fill:none;stroke:#606264;stroke-opacity:1;stroke-width:10;stroke-linecap:butt;stroke-linejoin:miter;stroke-miterlimit:10;stroke-dasharray:none"
               d="m 146.668,46.082 75.684,-131.0898 151.371,0" /><path
               id="path30"
               style="fill:none;stroke:#606264;stroke-opacity:1;stroke-width:10;stroke-linecap:butt;stroke-linejoin:miter;stroke-miterlimit:10;stroke-dasharray:none"
               d="m -26.9609,233.582 -151.3711,0 -75.684,-131.09 75.684,-131.0897 151.3711,0 75.6836,131.0897 -75.6836,131.09 z" /><path
               id="path32"
               style="fill:none;stroke:#606264;stroke-opacity:1;stroke-width:10;stroke-linecap:butt;stroke-linejoin:miter;stroke-miterlimit:10;stroke-dasharray:none"
               d="m -178.332,233.582 75.684,-131.09 151.3707,0" /><path
               id="path34"
               style="fill:none;stroke:#606264;stroke-opacity:1;stroke-width:10;stroke-linecap:butt;stroke-linejoin:miter;stroke-miterlimit:10;stroke-dasharray:none"
               d="m 623.039,608.582 -151.371,0 -75.684,-131.09 75.684,-131.09 151.371,0 75.684,131.09 -75.684,131.09 z" /><path
               id="path36"
               style="fill:none;stroke:#606264;stroke-opacity:1;stroke-width:10;stroke-linecap:butt;stroke-linejoin:miter;stroke-miterlimit:10;stroke-dasharray:none"
               d="m 471.668,346.402 75.684,131.09" /><path
               id="path38"
               style="fill:none;stroke:#606264;stroke-opacity:1;stroke-width:10;stroke-linecap:butt;stroke-linejoin:miter;stroke-miterlimit:10;stroke-dasharray:none"
               d="m 298.039,421.082 -151.371,0 -75.6836,-131.09 75.6836,-131.09 151.371,0 75.684,131.09 -75.684,131.09 z" /><path
               id="path40"
               style="fill:none;stroke:#606264;stroke-opacity:1;stroke-width:10;stroke-linecap:butt;stroke-linejoin:miter;stroke-miterlimit:10;stroke-dasharray:none"
               d="m 146.668,421.082 75.684,-131.09 151.371,0" /><path
               id="path42"
               style="fill:none;stroke:#606264;stroke-opacity:1;stroke-width:10;stroke-linecap:butt;stroke-linejoin:miter;stroke-miterlimit:10;stroke-dasharray:none"
               d="m 146.668,158.902 75.684,131.09" /><path
               id="path44"
               style="fill:none;stroke:#606264;stroke-opacity:1;stroke-width:10;stroke-linecap:butt;stroke-linejoin:miter;stroke-miterlimit:10;stroke-dasharray:none"
               d="m -26.9609,608.582 -151.3711,0 -75.684,-131.09 75.684,-131.09 151.3711,0 75.6836,131.09 -75.6836,131.09 z" /></g></g></g></pattern></defs><g
     transform="matrix(1.3333333,0,0,-1.3333333,0,666.66667)"
     id="g10"><g
       transform="scale(0.1)"
       id="g12"><path
         id="path14"
         style="fill:#000000;fill-opacity:1;fill-rule:nonzero;stroke:none"
         d="M 5000,0 H 0 V 5000 H 5000 V 0" /><path
         id="path54"
         style="fill:url(#pattern52);fill-opacity:1;fill-rule:nonzero;stroke:none"
         d="M 5000,0 H 0 V 5000 H 5000 V 0" /></g></g></svg>