<?xml version="1.0" encoding="utf-8"?>
<!-- Generator: Adobe Illustrator 27.2.0, SVG Export Plug-In . SVG Version: 6.00 Build 0)  -->
<svg version="1.1"
	 id="svg2" xmlns:cc="http://creativecommons.org/ns#" xmlns:dc="http://purl.org/dc/elements/1.1/" xmlns:rdf="http://www.w3.org/1999/02/22-rdf-syntax-ns#" xmlns:svg="http://www.w3.org/2000/svg"
	 xmlns="http://www.w3.org/2000/svg" xmlns:xlink="http://www.w3.org/1999/xlink" x="0px" y="0px" viewBox="0 0 4266.7 2666.7"
	 style="enable-background:new 0 0 4266.7 2666.7;" xml:space="preserve">
<style type="text/css">
	.st0{fill:#EBF3FA;}
	.st1{fill:#DBE9FB;}
	.st2{fill:#E2EDF9;}
	.st3{fill:#CCE0F7;}
	.st4{fill:#E8F2FC;}
	.st5{fill:#F3F8FC;}
	.st6{fill:#E3EEFE;}
	.st7{fill:#D1E2F5;}
	.st8{fill:#9EB1D2;}
	.st9{fill:#B4CAE3;}
	.st10{fill:#2B478B;}
	.st11{fill:#ED823A;}
	.st12{fill:#FF9E55;}
	.st13{fill:#DD732C;}
	.st14{fill:#FFB27D;}
	.st15{fill:#FFFFFF;}
	.st16{fill:#AEC3FF;}
	.st17{fill:#DDE7FE;}
	.st18{fill:#98B5F4;}
	.st19{fill:#C3DAFC;}
	.st20{fill:#D4E4F8;}
	.st21{fill:#618DC1;}
	.st22{fill:#2A4E96;}
	.st23{fill:#D2E0FF;}
	.st24{fill:#C5D7FF;}
	.st25{fill:#C0D8FB;}
	.st26{fill:#DFEBFD;}
	.st27{fill:#B7D3F3;}
	.st28{fill:#D8702A;}
	.st29{fill:#C15E1B;}
	.st30{fill:#FFC299;}
	.st31{fill:#ED975D;}
	.st32{fill:#2C3A64;}
	.st33{fill:#1B407A;}
	.st34{fill:#E27830;}
	.st35{fill:#D7E6FB;}
	.st36{fill:#8DB0FF;}
	.st37{fill:#FF9843;}
	.st38{fill:#233862;}
	.st39{fill:#192E4F;}
	.st40{fill:#C1D4F7;}
	.st41{fill:#699DEE;}
	.st42{fill:#E9F3FE;}
	.st43{fill:#D86713;}
	.st44{fill:#EE9849;}
	.st45{fill:#F1A34F;}
	.st46{fill:#E58433;}
	.st47{fill:#E78B37;}
	.st48{fill:#8AA8ED;}
	.st49{fill:#F9DDBF;}
	.st50{fill:#163560;}
	.st51{fill:#0E2C4F;}
	.st52{fill:#EAA16E;}
	.st53{fill:#77A4E5;}
	.st54{fill:#F99746;}
	.st55{fill:#CC6A27;}
	.st56{fill:#7F9EF4;}
	.st57{fill:#5D86E2;}
	.st58{fill:#FCA56B;}
	.st59{fill:#2E3552;}
</style>
<g id="g18" transform="scale(1.85651)">
	<path id="path20" class="st0" d="M2147.7,1126.5c-0.3,0.9-0.6,1.8-0.9,2.6c-2.5,7.5-5.3,15-8.4,22.7c-0.4,1.1-0.9,2.1-1.3,3.2
		c-3.7,9.2-7.8,18.5-12.4,28v0c-0.1,0.1-0.1,0.2-0.2,0.3L205.7,1186c0.4-7.7-175.3-255.8,8.6-497.2
		c183.9-241.4,398.8-111.3,442.9-281.2c9.5-36.7,24.9-67.7,44.6-93.4c1-1.4,2.1-2.7,3.2-4.1c2.8-3.5,5.6-6.8,8.5-10.1
		c0.8-0.9,1.6-1.8,2.4-2.7c7.4-8,15.3-15.5,23.7-22.4c1.7-1.4,3.4-2.7,5.1-4.1h0c102.1-79.9,262.7-76.5,377.4-29
		c72.6,30.1,173.9,20.9,285.8,11.7c123-10.1,258.8-20.1,383.5,21.8c4,1.3,7.9,2.7,11.8,4.1h0c8.2,3,16.4,6.3,24.6,9.8
		c17.7,7.6,33.2,16.3,46.7,25.8c1.9,1.4,3.8,2.7,5.6,4.1h0c165,124.5,18.3,385.6,103.5,425.9c53.5,25.3,132.4,82.2,166.6,174.5
		c0.4,1.2,0.9,2.3,1.3,3.5c0.5,1.3,0.9,2.6,1.4,4c0.4,1.2,0.8,2.4,1.2,3.6C2171.3,984.5,2173.3,1049.5,2147.7,1126.5"/>
</g>
<g id="g22" transform="scale(1.01707)">
	<path id="path24" class="st1" d="M2037.9,927.6h-135.4V704.3h270.9h-135.5v48.4H1995l3.8,12.1l-3.8,8.6h42.9V927.6 M1902.6,850.3
		V871h42.9l-3.8-12.1l3.8-8.6L1902.6,850.3"/>
</g>
<g id="g26" transform="scale(1.08045)">
	<path id="path28" class="st2" d="M2173.3,873.2h-255V728h40.4l-3.6-11.4l3.6-8.1h-40.4v-45.6h127.5h127.5v159.2h-40.4l3.5,11.4
		l-3.5,8.1h40.4V873.2 M2083.3,677.2v28.6h73.4v-28.6H2083.3"/>
</g>
<path id="path30" class="st3" d="M1978.7,885.8h-43.7v-21.1h43.7l-3.9,8.8L1978.7,885.8"/>
<path id="path32" class="st4" d="M2116.3,786.6h-43.7v-21.1h43.7l-3.8,8.8L2116.3,786.6"/>
<path id="path34" class="st3" d="M2072.7,786.6L2072.7,786.6H2029l3.8-8.8l-3.8-12.3h43.7V786.6"/>
<g id="g36" transform="scale(1.08045)">
	<path id="path38" class="st4" d="M2173.3,841.6L2173.3,841.6h-40.4l3.5-8.1l-3.5-11.4h40.4l0,0V841.6"/>
</g>
<g id="g40" transform="scale(1.07215)">
	<path id="path42" class="st5" d="M2173.3,711.2h-74v-28.8h74V711.2"/>
</g>
<path id="path44" class="st1" d="M1586.1,943.5h-137.8V716.3h275.5h-137.7v49.2h-43.7l3.9,12.3l-3.9,8.8h43.7V943.5 M1448.5,864.8
	v21.1h43.7l-3.8-12.3l3.8-8.8H1448.5"/>
<path id="path46" class="st2" d="M1861.6,943.5h-275.5V786.6h43.7l-3.8-12.3l3.8-8.8h-43.7v-49.2h137.7h137.8v172H1818l3.9,12.3
	l-3.9,8.8h43.7V943.5 M1764.3,731.7v30.8h79.3v-30.8H1764.3"/>
<path id="path48" class="st3" d="M1492.2,885.8h-43.7v-21.1h43.7l-3.8,8.8L1492.2,885.8"/>
<path id="path50" class="st4" d="M1629.8,786.6h-43.7v-21.1h43.7l-3.8,8.8L1629.8,786.6"/>
<path id="path52" class="st3" d="M1586.1,786.6L1586.1,786.6h-43.7l3.9-8.8l-3.9-12.3h43.7V786.6"/>
<path id="path54" class="st4" d="M1861.6,909.3H1818l3.9-8.8l-3.9-12.3h43.7h0V909.3"/>
<path id="path56" class="st5" d="M1764.3,762.5h79.3v-30.8h-79.3V762.5z"/>
<path id="path58" class="st6" d="M1376.1,2207.4h-106v-6.8l106-0.1V2207.4"/>
<path id="path60" class="st1" d="M1270.1,2200.6V943.5h106v1257L1270.1,2200.6"/>
<g id="g62" transform="scale(1.15953)">
	<path id="path64" class="st6" d="M2173.3,1903.7h-76v-7.3l76-0.1V1903.7"/>
</g>
<g id="g66" transform="scale(1.15953)">
	<path id="path68" class="st1" d="M2097.4,1896.4V1792h76v104.3L2097.4,1896.4 M2173.3,1763.6h-76v-405h76V1763.6 M2173.3,1330.3
		h-76V842h76V1330.3"/>
</g>
<g id="g70" transform="scale(1.15953)">
	<path id="path72" class="st1" d="M2173.3,842L2173.3,842h-76h-910.6v-28.4h910.6h76V842"/>
</g>
<g id="g74" transform="scale(1.15953)">
	<path id="path76" class="st1" d="M2173.3,1358.7L2173.3,1358.7h-76h-910.6v-28.4h183.1h122.8h245.7h69.6h245.7h43.7h76
		L2173.3,1358.7"/>
</g>
<g id="g78" transform="scale(1.15953)">
	<path id="path80" class="st1" d="M2173.3,1792L2173.3,1792h-76h-910.6v-28.4h910.6h76V1792"/>
</g>
<g id="g82" transform="scale(1.03014)">
	<path id="path84" class="st7" d="M2035.1,1497.4h-78.3v-34.2h0V1442h0V1337h0v-21.1h0v-46.4h-59.9h276.5h-138.3v49.4h-43.8
		l3.9,12.3l-3.9,8.8h43.8V1497.4"/>
</g>
<g id="g86" transform="scale(1.09567)">
	<path id="path88" class="st2" d="M2173.3,1407.8h-260v-148h41.2l-3.6-11.6l3.6-8.3h-41.2v-46.5h130h130v162.3h-41.2l3.6,11.6
		l-3.6,8.3h41.2V1407.8 M2081.5,1208v29.1h74.8V1208H2081.5"/>
</g>
<path id="path90" class="st4" d="M2141.5,1380.3h-45.1v-21.8h45.1l-4,9.1L2141.5,1380.3"/>
<path id="path92" class="st3" d="M2096.4,1380.3L2096.4,1380.3h-45.1l4-9.1l-4-12.7h45.1V1380.3"/>
<g id="g94" transform="scale(1.09567)">
	<path id="path96" class="st4" d="M2173.3,1375.7L2173.3,1375.7h-41.2l3.6-8.3l-3.6-11.6h41.2h0V1375.7"/>
</g>
<g id="g98" transform="scale(1.08709)">
	<path id="path100" class="st5" d="M2173.3,1246.9h-75.4v-29.3h75.4V1246.9"/>
</g>
<path id="path102" class="st1" d="M1730.9,1542.5h-142.4v-234.9h284.9h-142.4v50.9h-45.1l4,12.7l-4,9.1h45.1V1542.5 M1588.6,1461.2
	v21.8h45.1l-4-12.7l4-9.1L1588.6,1461.2"/>
<path id="path104" class="st2" d="M2015.7,1542.5h-284.8v-162.2h45.1l-4-12.7l4-9.1h-45.1v-50.9h142.4h80.7h61.7v47.8h-45.1l4,12.7
	l-4,9.1h45.1v108.2h-45.1l4,12.7l-4,9.1h45.1L2015.7,1542.5 M1759.6,1465.4v52h133.6v-52H1759.6"/>
<path id="path106" class="st3" d="M1633.7,1483h-45.1v-21.8h45.1l-4,9.1L1633.7,1483"/>
<path id="path108" class="st4" d="M1776,1380.3h-45.1v-21.8h45.1l-4,9.1L1776,1380.3"/>
<path id="path110" class="st3" d="M1730.9,1380.3L1730.9,1380.3h-45.1l4-9.1l-4-12.7h45.1V1380.3"/>
<path id="path112" class="st4" d="M2015.7,1507.3h-45.1l4-9.1l-4-12.7h45.1h0V1507.3"/>
<path id="path114" class="st4" d="M2015.7,1377.3h-45.1l4-9.1l-4-12.7h45.1h0V1377.3"/>
<path id="path116" class="st5" d="M1759.6,1517.4h133.6v-52h-133.6V1517.4z"/>
<g id="g118" transform="scale(1.01236)">
	<path id="path120" class="st1" d="M2051.7,2019.3h-121.6v-200.5h243.2h-121.6v43.5h-38.5l3.4,10.8l-3.4,7.8h38.5V2019.3
		 M1930.3,1949.8v18.6h38.5l-3.4-10.8l3.4-7.8H1930.3"/>
</g>
<g id="g122" transform="scale(1.06899)">
	<path id="path124" class="st2" d="M2173.3,1912.3H1943v-131.1h36.5l-3.2-10.3l3.2-7.3H1943v-41.2h115.1h115.1v143.8h-36.5l3.2,10.3
		l-3.2,7.3h36.5V1912.3 M2092,1735.3v25.8h66.3v-25.8H2092"/>
</g>
<path id="path126" class="st3" d="M1993.1,1992.7h-39v-18.8h39l-3.4,7.9L1993.1,1992.7"/>
<path id="path128" class="st4" d="M2116.1,1904.1h-39v-18.8h39l-3.4,7.8L2116.1,1904.1"/>
<path id="path130" class="st3" d="M2077.1,1904.1L2077.1,1904.1h-39l3.4-7.9l-3.4-11h39V1904.1"/>
<g id="g132" transform="scale(1.069)">
	<path id="path134" class="st4" d="M2173.3,1883.8L2173.3,1883.8h-36.5l3.2-7.3l-3.2-10.3h36.5h0V1883.8"/>
</g>
<g id="g136" transform="scale(1.06158)">
	<path id="path138" class="st5" d="M2173.3,1773.3h-66.7v-26h66.7V1773.3"/>
</g>
<path id="path140" class="st1" d="M1628.8,2044.2h-142.4v-234.9h284.8h-142.4v50.9h-45.1l4,12.7l-4,9.1h45.1V2044.2 M1486.6,1962.9
	v21.8h45.1l-4-12.7l4-9.1H1486.6"/>
<path id="path142" class="st2" d="M1913.7,2044.2h-284.8V1882h45.1l-4-12.7l4-9.1h-45.1v-50.9h142.4h142.4v177.8h-45.1l4,12.7
	l-4,9.1h45.1V2044.2 M1813.1,1825.3v31.9h82v-31.9H1813.1"/>
<path id="path144" class="st8" d="M1531.7,1984.7h-45.1v-21.8h45.1l-4,9.1L1531.7,1984.7"/>
<path id="path146" class="st9" d="M1674,1882h-45.1v-21.8h45.1l-4,9.1L1674,1882"/>
<path id="path148" class="st8" d="M1628.8,1882L1628.8,1882h-45.1l4-9.1l-4-12.7h45.1V1882"/>
<path id="path150" class="st9" d="M1913.7,2009L1913.7,2009h-45.1l4-9.1l-4-12.7h45.1l0,0V2009"/>
<path id="path152" class="st5" d="M1813.1,1857.2h82v-31.9h-82V1857.2z"/>
<path id="path154" class="st1" d="M1675.5,1306.6h-108.9V1127h217.8h-108.9v38.9H1641l3,9.7l-3,6.9h34.5L1675.5,1306.6
	 M1566.7,1244.4v16.6h34.5l-3-9.7l3-6.9H1566.7"/>
<path id="path156" class="st2" d="M1893.2,1306.6h-217.8v-124h34.5l-3-9.7l3-6.9h-34.5V1127h108.9h108.9V1263h-34.5l3,9.7l-3,6.9
	h34.5L1893.2,1306.6 M1816.3,1139.2v24.4h62.7v-24.4H1816.3"/>
<path id="path158" class="st3" d="M1601.2,1261h-34.5v-16.6h34.5l-3,6.9L1601.2,1261"/>
<path id="path160" class="st4" d="M1710,1182.6h-34.5v-16.6h34.5l-3,6.9L1710,1182.6"/>
<path id="path162" class="st3" d="M1675.5,1182.6L1675.5,1182.6H1641l3-6.9l-3-9.7h34.5V1182.6"/>
<path id="path164" class="st4" d="M1893.2,1279.6h-34.5l3-6.9l-3-9.7h34.5h0V1279.6"/>
<path id="path166" class="st5" d="M1816.3,1163.6h62.7v-24.4h-62.7V1163.6z"/>
<g id="g168" transform="scale(1.00004)">
	<path id="path170" class="st1" d="M2064.5,1306.5h-108.9V1127h217.7h-108.9v38.9h-34.5l3,9.7l-3,6.9h34.5V1306.5 M1955.7,1244.3
		v16.6h34.5l-3-9.7l3-6.9H1955.7"/>
</g>
<g id="g172" transform="scale(1.05014)">
	<path id="path174" class="st2" d="M2173.3,1244.2H1966v-118.1h32.9l-2.9-9.2l2.9-6.6H1966v-37.1h103.7h103.7v129.5h-32.9l2.9,9.2
		l-2.9,6.6h32.9V1244.2 M2100.1,1084.8v23.2h59.7v-23.2H2100.1"/>
</g>
<path id="path176" class="st3" d="M1990.3,1261h-34.5v-16.6h34.5l-3,6.9L1990.3,1261"/>
<path id="path178" class="st4" d="M2099,1182.6h-34.5v-16.6h34.5l-3,6.9L2099,1182.6"/>
<path id="path180" class="st3" d="M2064.5,1182.6L2064.5,1182.6H2030l3-6.9l-3-9.7h34.5V1182.6"/>
<g id="g182" transform="scale(1.05014)">
	<path id="path184" class="st4" d="M2173.3,1218.5L2173.3,1218.5h-32.9l2.9-6.6l-2.9-9.2h32.9l0,0V1218.5"/>
</g>
<g id="g186" transform="scale(1.04358)">
	<path id="path188" class="st5" d="M2173.3,1115h-60.1v-23.4h60.1V1115"/>
</g>
<g id="g190" transform="scale(1.70932)">
	<path id="path192" class="st10" d="M2164.4,1086l-3.2-0.9c8.4-28.5-6.8-58.1-33.9-66.1l-68.1-20.1c-14-4.1-21.9-19.5-17.6-34.3
		c14-47.7-11.4-97.3-56.8-110.7l1-3.3c47.1,13.9,73.5,65.4,59,115c-3.8,12.9,3.1,26.4,15.4,30l68.2,20.1
		C2157.1,1024.2,2173.3,1055.7,2164.4,1086"/>
</g>
<g id="g194" transform="scale(1.7039)">
	<path id="path196" class="st10" d="M2164.4,1113l-3.2-0.9c8.4-28.6-6.9-58.3-34-66.3l-68.4-20.1c-14.1-4.1-22-19.5-17.6-34.4
		c14.1-47.8-11.5-97.7-56.9-111l1-3.3c47.2,13.9,73.8,65.6,59.1,115.3c-3.8,13,3.1,26.4,15.4,30.1l68.4,20.1
		C2157.1,1050.9,2173.3,1082.6,2164.4,1113"/>
</g>
<g id="g198" transform="scale(1.41842)">
	<path id="path200" class="st11" d="M2173.3,1063.1h-172.9V920.5h172.9V1063.1"/>
</g>
<g id="g202" transform="scale(1.36199)">
	<path id="path204" class="st12" d="M2173.3,1107.2h-180.1V958.7h180.1V1107.2"/>
</g>
<g id="g206" transform="scale(1.41836)">
	<path id="path208" class="st13" d="M2173.3,1027h-27.4l2.4-7.7l-2.4-5.5h27.4V1027"/>
</g>
<g id="g210" transform="scale(1.36199)">
	<path id="path212" class="st14" d="M2173.3,1004.6h-28.5l2.5-8l-2.5-5.7h28.5V1004.6"/>
</g>
<g id="g214" transform="scale(1.37987)">
	<path id="path216" class="st13" d="M2145.2,978h28.2l-2.5,7.9l2.5,5.7h-28.2V978"/>
</g>
<g id="g218" transform="scale(1.26701)">
	<path id="path220" class="st14" d="M2142.7,1151.4h30.7l-2.7,8.6l2.7,6.2h-30.7V1151.4"/>
</g>
<g id="g222" transform="scale(1.28899)">
	<path id="path224" class="st15" d="M2118.6,1044.9h54.7v-21.3h-54.7V1044.9"/>
</g>
<g id="g226" transform="scale(1.50225)">
	<path id="path228" class="st10" d="M2057.9,503.1c-23.4,0-48-3.7-61.6-11.6c-21.7-12.5-49.2-7.2-49.4-7.1l-0.7-3.3
		c1.2-0.2,29-5.6,51.8,7.5c22.5,13,78.3,14.1,103.6,5.5c24.9-8.5,58-17.6,71.7-17.6v3.4c-13.4,0-46,9-70.6,17.4
		C2091.5,501.1,2075,503.1,2057.9,503.1"/>
</g>
<g id="g230" transform="scale(1.32945)">
	<path id="path232" class="st10" d="M2173.3,920.8h-12.1v-78.9h12.1V920.8"/>
</g>
<g id="g234" transform="scale(1.3441)">
	<path id="path236" class="st10" d="M2173.3,910.8h-12v-78.1h12V910.8"/>
</g>
<g id="g238" transform="scale(1.50225)">
	<path id="path240" class="st10" d="M2057.9,495.5c-23.4,0-48-3.7-61.6-11.6c-21.7-12.5-49.2-7.2-49.4-7.2l-0.7-3.3
		c1.2-0.2,29-5.6,51.8,7.5c22.5,13,78.3,14.1,103.6,5.5c24.9-8.5,58-17.6,71.7-17.6v3.4c-13.4,0-46,9-70.6,17.4
		C2091.5,493.5,2075,495.5,2057.9,495.5"/>
</g>
<g id="g242" transform="scale(1.6065)">
	<path id="path244" class="st10" d="M2135.2,845.2h-4.2V842h4.2c19.3,0,34.9-15.7,34.9-34.9V445.6c0-19.3-15.7-34.9-34.9-34.9h-30.8
		v-3.2h30.8c21,0,38.1,17.1,38.1,38.1v361.5C2173.3,828.1,2156.2,845.2,2135.2,845.2"/>
</g>
<g id="g246" transform="scale(1.59557)">
	<path id="path248" class="st10" d="M2145.7,820.2V817c13.5,0,24.5-11,24.5-24.5V454.2c0-13.1-10.7-23.7-23.7-23.7h-24.6v-3.2h24.6
		c14.8,0,26.9,12.1,26.9,26.9v338.3C2173.3,807.7,2160.9,820.2,2145.7,820.2"/>
</g>
<g id="g250" transform="scale(1.38049)">
	<path id="path252" class="st16" d="M2147.4,827.7h-100.7c-14.3,0-25.9-11.6-25.9-25.9V576.8c0-14.3,11.6-25.9,25.9-25.9h100.7
		c14.3,0,25.9,11.6,25.9,25.9v224.9C2173.3,816,2161.7,827.7,2147.4,827.7"/>
</g>
<g id="g254" transform="scale(1.3186)">
	<path id="path256" class="st17" d="M2145.5,618c0-7.7,6.2-13.9,13.9-13.9c7.7,0,13.9,6.2,13.9,13.9c0,7.7-6.2,13.9-13.9,13.9
		C2151.8,631.9,2145.5,625.6,2145.5,618"/>
</g>
<g id="g258" transform="scale(1.3186)">
	<path id="path260" class="st17" d="M2145.5,816.1c0-7.7,6.2-13.9,13.9-13.9c7.7,0,13.9,6.2,13.9,13.9c0,7.7-6.2,13.9-13.9,13.9
		C2151.8,830,2145.5,823.8,2145.5,816.1"/>
</g>
<g id="g262" transform="scale(1.36236)">
	<path id="path264" class="st17" d="M2146.4,598.1c0-7.4,6-13.5,13.5-13.5c7.4,0,13.5,6,13.5,13.5c0,7.4-6,13.5-13.5,13.5
		C2152.5,611.6,2146.4,605.5,2146.4,598.1"/>
</g>
<g id="g266" transform="scale(1.36236)">
	<path id="path268" class="st17" d="M2146.4,789.9c0-7.4,6-13.5,13.5-13.5c7.4,0,13.5,6,13.5,13.5c0,7.4-6,13.5-13.5,13.5
		C2152.5,803.4,2146.4,797.3,2146.4,789.9"/>
</g>
<g id="g270" transform="scale(1.36803)">
	<path id="path272" class="st12" d="M2173.3,908c0,2.8-0.6,5.4-1.8,8h-105.2c-1.1-2.6-1.8-5.2-1.8-8c0-17.4,24.3-31.6,54.4-31.6
		C2149,876.5,2173.3,890.6,2173.3,908"/>
</g>
<g id="g274" transform="scale(1.42538)">
	<path id="path276" class="st10" d="M2173.3,906v137.2c0,11-5.4,21.3-14.5,27.6l-41.8,28.9c-3,2.1-7.1,1.3-9.2-1.7l0,0
		c-2.1-3-1.3-7.1,1.7-9.2l41.8-28.9c5.5-3.8,8.8-10,8.8-16.7V906c0-14.8-12-26.9-26.9-26.9h-199.1c-14.8,0-26.9,12-26.9,26.9v136.4
		c0,7,3.6,13.5,9.5,17.2l46.7,29.2c3.1,1.9,4,6,2.1,9.1c-1.9,3.1-6,4-9.1,2.1l-46.8-29.2c-9.9-6.2-15.7-16.8-15.7-28.4V906
		c0-22.1,17.9-40.1,40.1-40.1h199.1C2155.4,866,2173.3,883.9,2173.3,906"/>
</g>
<g id="g278" transform="scale(1.50934)">
	<path id="path280" class="st10" d="M2173.3,433.7h-259.1v-7.8h259.1V433.7"/>
</g>
<g id="g282" transform="scale(1.50934)">
	<path id="path284" class="st10" d="M2173.3,455.6h-259.1v-7.8h259.1V455.6"/>
</g>
<g id="g286" transform="scale(1.35712)">
	<path id="path288" class="st12" d="M2170.5,560.4h-85.9v-60.3c0-24.5,19.9-44.3,44.3-44.3c24.5,0,44.4,19.9,44.4,44.3v57.5
		C2173.3,559.1,2172.1,560.4,2170.5,560.4"/>
</g>
<g id="g290" transform="scale(1.56913)">
	<path id="path292" class="st16" d="M2141.1,394.2h-37.9c-17.8,0-32.3,14.4-32.3,32.3v675.9c0,17.8,14.4,32.3,32.3,32.3h37.9
		c17.8,0,32.3-14.4,32.3-32.3V426.4C2173.3,408.6,2158.9,394.2,2141.1,394.2"/>
</g>
<g id="g294" transform="scale(1.53646)">
	<path id="path296" class="st10" d="M2161.2,439.3c0-3.4,2.7-6.1,6.1-6.1c3.4,0,6.1,2.7,6.1,6.1c0,3.4-2.7,6.1-6.1,6.1
		C2163.9,445.4,2161.2,442.6,2161.2,439.3"/>
</g>
<g id="g298" transform="scale(1.57527)">
	<path id="path300" class="st18" d="M2157.6,988.5h-91.2c-8.7,0-15.7-7-15.7-15.7V512.3c0-8.7,7-15.7,15.7-15.7h91.2
		c8.7,0,15.7,7,15.7,15.7v460.6C2173.3,981.5,2166.3,988.5,2157.6,988.5"/>
</g>
<g id="g302" transform="scale(1.58044)">
	<path id="path304" class="st18" d="M2173.3,1163.7h-114.2c-8.4,0-15.1-6.8-15.1-15.1v-52.2c0-8.4,6.8-15.1,15.1-15.1h99.1
		c8.4,0,15.1,6.8,15.1,15.1V1163.7"/>
</g>
<g id="g306" transform="scale(1.3458)">
	<path id="path308" class="st12" d="M2120.5,502.2c0-14.6,11.8-26.4,26.4-26.4c14.6,0,26.4,11.8,26.4,26.4
		c0,14.6-11.8,26.4-26.4,26.4C2132.3,528.6,2120.5,516.8,2120.5,502.2"/>
</g>
<g id="g310" transform="scale(1.34631)">
	<path id="path312" class="st10" d="M2146.1,476.4c-14.1,0-25.6,11.5-25.6,25.6c0,14.1,11.5,25.6,25.6,25.6
		c14.1,0,25.6-11.5,25.6-25.6C2171.7,487.9,2160.2,476.4,2146.1,476.4z M2146.1,529.3c-15,0-27.2-12.2-27.2-27.3
		c0-15,12.2-27.3,27.2-27.3c15,0,27.3,12.2,27.3,27.3C2173.3,517,2161.1,529.3,2146.1,529.3"/>
</g>
<g id="g314" transform="scale(1.33942)">
	<path id="path316" class="st11" d="M2140.9,504.6c0-8.9,7.3-16.2,16.2-16.2c9,0,16.2,7.3,16.2,16.2c0,9-7.3,16.2-16.2,16.2
		C2148.2,520.8,2140.9,513.5,2140.9,504.6"/>
</g>
<g id="g318" transform="scale(1.78214)">
	<path id="path320" class="st19" d="M2095.2,1028.6l78.1-35.5l-29.3-64.4l-78.1,35.5L2095.2,1028.6"/>
</g>
<g id="g322" transform="scale(1.81417)">
	<path id="path324" class="st20" d="M2096.6,993l76.7-34.9l-28.8-63.3l-76.7,34.9L2096.6,993"/>
</g>
<g id="g326" transform="scale(1.74368)">
	<path id="path328" class="st21" d="M2160.7,987.7l12.7-5.8l-2.7-3.1l0-3.1l-12.7,5.8L2160.7,987.7"/>
</g>
<g id="g330" transform="scale(1.73353)">
	<path id="path332" class="st22" d="M2170.5,987.3l-12.7,5.8l2.7,3.1l0.1,3.1l12.7-5.8L2170.5,987.3"/>
</g>
<g id="g334" transform="scale(1.81056)">
	<path id="path336" class="st21" d="M2170.7,944.6l-12.2,5.5l2.6,2.9l0,2.9l12.2-5.5L2170.7,944.6"/>
</g>
<g id="g338" transform="scale(1.79085)">
	<path id="path340" class="st15" d="M2173.3,921.8L2151,932l-3.9-8.7l22.4-10.2L2173.3,921.8"/>
</g>
<g id="g342" transform="scale(1.85651)">
	<path id="path344" class="st10" d="M2147.7,1126.5c-0.3,0.9-0.6,1.8-0.9,2.6c-2.5,7.5-5.3,15-8.4,22.7c-0.4,1.1-0.9,2.1-1.3,3.2
		c-3.7,9.2-7.8,18.5-12.4,28h-100.8l-5.8-53.9l-0.3-2.6l-0.2-2.1l-14.3-133.8l-0.1-1l7.6-3.4l37.6-16.8l37.6-16.8l37.6-16.8
		l27.9-12.5c0.5,1.3,0.9,2.6,1.4,4c0.4,1.2,0.8,2.4,1.2,3.6C2171.3,984.5,2173.3,1049.5,2147.7,1126.5"/>
</g>
<g id="g346" transform="scale(1.85651)">
	<path id="path348" class="st23" d="M2147.7,1126.5c-0.3,0.9-0.6,1.8-0.9,2.6h-118.6l-0.3-2.6l-0.2-2.1l-13-131.1l6-2.7l133.3-59.7
		C2171.3,984.5,2173.3,1049.5,2147.7,1126.5"/>
</g>
<g id="g350" transform="scale(1.79169)">
	<path id="path352" class="st16" d="M2101.6,1169.9H1049.9c-39.6,0-71.8-32.1-71.8-71.8c0-39.6,32.1-71.7,71.8-71.7h1051.7
		c39.6,0,71.7,32.1,71.7,71.7C2173.3,1137.8,2141.2,1169.9,2101.6,1169.9"/>
</g>
<g id="g354" transform="scale(1.79169)">
	<path id="path356" class="st24" d="M2173.3,1098.2c0,19.8-8,37.8-21,50.7c-13,13-30.9,21-50.7,21h-178.3c-3.8,0-6.9-3.1-6.9-6.9
		v-129.7c0-3.8,3.1-6.9,6.9-6.9h178.3C2141.2,1026.4,2173.3,1058.6,2173.3,1098.2"/>
</g>
<g id="g358" transform="scale(1.83461)">
	<path id="path360" class="st24" d="M2173.3,1139.9c-0.3,0.9-0.6,1.8-0.9,2.7c-2.6,7.6-5.4,15.2-8.5,23c-0.4,1.1-0.9,2.2-1.3,3.2
		c-3.8,9.3-7.9,18.7-12.5,28.3v0l-111.2,0l-1020.7,0.5v-57.8H2173.3"/>
</g>
<g id="g362" transform="scale(1.12069)">
	<path id="path364" class="st18" d="M2129.2,1747.4c-1.3,3.7-4.6,8.1-8,11c-0.8,0.7-1.6,1.3-2.3,1.7c-3.5,2.2-7.1,3.6-10.6,4.4
		c-20.2,4.5-39.1-12.5-35.6-34c0.3-2.2,0.9-4.4,1.7-6.6c1.6-4.3,6-9.8,9.8-12.2c0.4-0.3,0.8-0.5,1.2-0.7
		C2110.8,1696.2,2139.2,1719.5,2129.2,1747.4L2129.2,1747.4z M2171.1,1743.4l-12.9-6c-1.1-0.5-1.8-1.6-1.8-2.8c0-1.5-0.1-3-0.3-4.6
		c-0.3-2.8-0.8-5.6-1.5-8.3c-0.3-1.2,0.1-2.6,1.1-3.3l11.9-9c1.3-1,1.6-2.7,0.7-4.1l-7.3-11.5c-0.8-1.3-2.5-1.8-3.9-1.1l-12.3,6
		c-1.2,0.6-2.7,0.3-3.6-0.6c-4-4.2-8.7-7.7-13.9-10.5c-1.3-0.7-1.9-2.1-1.5-3.5l2-8.1c0.4-1.5-0.5-3.1-2-3.7l-12.7-4.6
		c-0.3-0.1-0.5-0.2-0.8-0.2c-1.3-0.1-2.5,0.6-3,1.8l-4.5,9.7l-1.1,2.4c-2.5-0.1-5.1,0-7.7,0.3c-3.5,0.4-6.9,1.1-10.1,2.1
		c-1.2,0.4-2.6,0-3.3-1.1l-7.3-9.6c-1-1.3-2.8-1.6-4.2-0.7l-8.8,5.6l-2.5,1.6c-1.4,0.9-1.9,2.7-1.2,4.1l5,10.3
		c0.6,1.2,0.4,2.6-0.6,3.5c-2.7,2.8-5.2,5.9-7.3,9.1c-0.2,0.3-0.4,0.5-0.5,0.8l-0.2,0.3c-0.7,1-2,1.5-3.3,1.1l-13.2-3.2
		c-0.1,0-0.3-0.1-0.4-0.1c-1.4-0.1-2.7,0.7-3.2,2.1l-4.6,12.7c-0.5,1.5,0.1,3.2,1.6,3.9l13.5,6.3c1.1,0.5,1.8,1.7,1.8,3
		c-0.1,2.8,0,5.6,0.3,8.4c0.2,1.5,0.4,3,0.7,4.5c0.2,1.2-0.3,2.4-1.2,3.2l-11.4,8.7c-1.3,0.9-1.6,2.7-0.7,4.1l7.2,11.4
		c0.9,1.4,2.6,1.9,4.1,1.2l9.7-4.8c1.3-0.6,2.9-0.3,3.8,0.8c3.6,4.4,7.9,8.2,12.7,11.2c1.1,0.7,1.7,2.1,1.4,3.4l-2.9,11.9
		c-0.4,1.6,0.5,3.2,2,3.8l12.6,4.6c1.5,0.5,3.2-0.2,3.9-1.6l0.3-0.6l5.2-11.2c0.6-1.2,1.8-1.9,3.1-1.8h0c3.2,0.2,6.4,0.2,9.7-0.2
		c1.8-0.2,3.5-0.5,5.2-0.8c1.2-0.3,2.4,0.2,3.1,1.1l7.4,9.7c1,1.3,2.9,1.7,4.3,0.8l11.3-7.2c0.3-0.2,0.6-0.5,0.8-0.7
		c0.7-0.9,0.9-2.2,0.3-3.3l-4.1-8.2c-0.5-1-0.4-2.2,0.2-3.1c0.2-0.2,0.4-0.5,0.6-0.7c5.6-4.7,10.2-10.4,13.5-16.9
		c0.6-1.1,1.7-1.7,2.9-1.7c0.2,0,0.4,0,0.5,0.1l10.7,2.6c1.5,0.4,3.1-0.5,3.7-2l0.1-0.3l4.5-12.3
		C2173.3,1745.7,2172.6,1744.1,2171.1,1743.4"/>
</g>
<g id="g366" transform="scale(1.16552)">
	<path id="path368" class="st23" d="M2142.8,1732.7c-0.9,2.5-3.2,5.6-5.5,7.6c-0.5,0.5-1.1,0.9-1.6,1.2c-2.4,1.5-4.9,2.5-7.3,3.1
		c-14,3.1-27-8.6-24.6-23.5c0.2-1.5,0.6-3,1.2-4.6c1.1-3,4.1-6.8,6.8-8.5c0.3-0.2,0.6-0.3,0.9-0.5
		C2130.1,1697.3,2149.7,1713.3,2142.8,1732.7z M2171.8,1729.8l-9-4.2c-0.7-0.3-1.2-1.1-1.2-1.9c0-1.1-0.1-2.1-0.2-3.2
		c-0.2-2-0.6-3.9-1.1-5.7c-0.2-0.9,0.1-1.8,0.8-2.3l8.2-6.3c0.9-0.7,1.1-1.9,0.5-2.8l-5.1-8c-0.6-0.9-1.7-1.2-2.7-0.8l-8.5,4.2
		c-0.8,0.4-1.8,0.2-2.5-0.4c-2.8-2.9-6-5.3-9.6-7.2c-0.9-0.5-1.3-1.5-1.1-2.4l1.4-5.6c0.2-1.1-0.3-2.2-1.4-2.6l-8.8-3.2
		c-0.2-0.1-0.4-0.1-0.6-0.1c-0.9-0.1-1.7,0.4-2.1,1.2l-3.1,6.7l-0.7,1.6c-1.8,0-3.5,0-5.3,0.2c-2.4,0.3-4.7,0.7-7,1.4
		c-0.8,0.3-1.8,0-2.3-0.7l-5-6.6c-0.7-0.9-2-1.1-2.9-0.5l-6.1,3.8l-1.7,1.1c-1,0.6-1.3,1.8-0.8,2.8l3.5,7.1c0.4,0.8,0.3,1.8-0.4,2.4
		c-1.9,1.9-3.6,4.1-5,6.3c-0.1,0.2-0.3,0.4-0.4,0.6l-0.1,0.2c-0.5,0.7-1.4,1-2.2,0.8l-9.1-2.2l-0.3-0.1c-1-0.1-1.9,0.5-2.2,1.4
		l-3.2,8.8c-0.4,1.1,0.1,2.2,1.1,2.7l9.3,4.3c0.8,0.4,1.3,1.2,1.2,2c-0.1,1.9,0,3.9,0.2,5.8c0.1,1,0.3,2.1,0.5,3.1
		c0.1,0.8-0.2,1.7-0.9,2.2l-7.9,6c-0.9,0.7-1.1,1.9-0.5,2.8l5,7.9c0.6,0.9,1.8,1.3,2.8,0.8l6.7-3.3c0.9-0.4,2-0.2,2.6,0.5
		c2.5,3,5.5,5.6,8.8,7.8c0.8,0.5,1.2,1.4,0.9,2.4l-2,8.2c-0.3,1.1,0.3,2.2,1.4,2.6l8.7,3.2c1,0.4,2.2-0.1,2.7-1.1l0.2-0.4l3.6-7.8
		c0.4-0.8,1.2-1.3,2.1-1.3h0c2.2,0.1,4.4,0.1,6.7-0.1c1.2-0.1,2.4-0.3,3.5-0.5c0.8-0.2,1.7,0.1,2.2,0.8l5.1,6.7c0.7,0.9,2,1.1,3,0.5
		l7.8-5c0.2-0.1,0.4-0.3,0.6-0.5c0.5-0.6,0.6-1.5,0.2-2.3l-2.8-5.7c-0.3-0.7-0.3-1.5,0.2-2.2c0.1-0.2,0.2-0.3,0.4-0.5
		c3.9-3.2,7-7.2,9.4-11.7c0.4-0.8,1.2-1.2,2-1.1c0.1,0,0.2,0,0.4,0l7.4,1.8c1.1,0.3,2.2-0.3,2.5-1.3l0.1-0.2l3.1-8.5
		C2173.3,1731.5,2172.8,1730.3,2171.8,1729.8"/>
</g>
<g id="g370" transform="scale(1.37656)">
	<path id="path372" class="st18" d="M2137.4,1422.6c-1.1,3-3.7,6.6-6.5,9c-0.6,0.5-1.3,1-1.9,1.4c-2.9,1.8-5.8,3-8.7,3.6
		c-16.4,3.7-31.8-10.2-29-27.7c0.3-1.8,0.8-3.6,1.4-5.4c1.3-3.5,4.9-8,8-10c0.3-0.2,0.7-0.4,1-0.6
		C2122.4,1381,2145.5,1399.9,2137.4,1422.6z M2171.5,1419.3l-10.5-4.9c-0.9-0.4-1.4-1.3-1.5-2.2c0-1.2-0.1-2.5-0.3-3.7
		c-0.3-2.3-0.7-4.6-1.3-6.7c-0.3-1,0.1-2.1,0.9-2.7l9.7-7.4c1-0.8,1.3-2.2,0.6-3.3l-5.9-9.4c-0.7-1.1-2-1.4-3.1-0.9l-10,4.9
		c-1,0.5-2.1,0.3-2.9-0.5c-3.3-3.4-7.1-6.3-11.3-8.5c-1-0.5-1.5-1.7-1.3-2.8l1.6-6.6c0.3-1.3-0.4-2.6-1.6-3l-10.4-3.7
		c-0.2-0.1-0.4-0.1-0.6-0.2c-1-0.1-2.1,0.5-2.5,1.4l-3.7,7.9l-0.9,1.9c-2.1-0.1-4.2,0-6.3,0.2c-2.8,0.3-5.6,0.9-8.2,1.7
		c-1,0.3-2.1,0-2.7-0.9l-5.9-7.8c-0.8-1.1-2.3-1.3-3.4-0.6l-7.2,4.5l-2,1.3c-1.1,0.7-1.5,2.2-0.9,3.3l4.1,8.4c0.5,1,0.3,2.1-0.5,2.9
		c-2.2,2.3-4.2,4.8-5.9,7.4c-0.2,0.2-0.3,0.4-0.4,0.7l-0.2,0.2c-0.6,0.8-1.7,1.2-2.6,0.9l-10.7-2.6c-0.1,0-0.2,0-0.4-0.1
		c-1.1-0.1-2.2,0.6-2.6,1.7l-3.8,10.3c-0.5,1.2,0.1,2.6,1.3,3.2l11,5.1c0.9,0.4,1.5,1.4,1.5,2.4c-0.1,2.3,0,4.6,0.2,6.9
		c0.1,1.2,0.3,2.5,0.5,3.7c0.2,1-0.2,2-1,2.6l-9.3,7.1c-1,0.8-1.3,2.2-0.6,3.3l5.9,9.3c0.7,1.1,2.1,1.5,3.3,0.9l7.9-3.9
		c1.1-0.5,2.3-0.3,3.1,0.6c2.9,3.6,6.4,6.6,10.3,9.1c0.9,0.6,1.4,1.7,1.1,2.8l-2.4,9.7c-0.3,1.3,0.4,2.6,1.6,3.1l10.3,3.7
		c1.2,0.4,2.6-0.1,3.1-1.3l0.2-0.5l4.3-9.1c0.4-1,1.5-1.6,2.5-1.5h0c2.6,0.2,5.2,0.1,7.9-0.2c1.4-0.2,2.8-0.4,4.2-0.7
		c1-0.2,1.9,0.2,2.5,0.9l6,7.9c0.8,1.1,2.3,1.4,3.5,0.6l9.2-5.8c0.3-0.2,0.5-0.4,0.7-0.6c0.6-0.8,0.7-1.8,0.3-2.7l-3.3-6.7
		c-0.4-0.8-0.3-1.8,0.2-2.5c0.1-0.2,0.3-0.4,0.5-0.5c4.6-3.8,8.3-8.5,11-13.8c0.5-0.9,1.4-1.4,2.4-1.4c0.1,0,0.3,0,0.4,0.1l8.7,2.1
		c1.3,0.3,2.5-0.4,3-1.6l0.1-0.2l3.7-10.1C2173.3,1421.3,2172.7,1419.9,2171.5,1419.3"/>
</g>
<g id="g374" transform="scale(1.4214)">
	<path id="path376" class="st23" d="M2148.3,1420.7c-0.7,2.1-2.6,4.6-4.5,6.3c-0.5,0.4-0.9,0.7-1.3,1c-2,1.2-4,2.1-6,2.5
		c-11.5,2.5-22.2-7.1-20.2-19.3c0.2-1.2,0.5-2.5,1-3.7c0.9-2.4,3.4-5.6,5.6-6.9c0.2-0.1,0.5-0.3,0.7-0.4
		C2137.9,1391.7,2154,1404.9,2148.3,1420.7L2148.3,1420.7z M2172.1,1418.4l-7.3-3.4c-0.6-0.3-1-0.9-1-1.6c0-0.9-0.1-1.7-0.2-2.6
		c-0.2-1.6-0.5-3.2-0.9-4.7c-0.2-0.7,0-1.5,0.6-1.9l6.7-5.1c0.7-0.5,0.9-1.5,0.4-2.3l-4.1-6.5c-0.5-0.7-1.4-1-2.2-0.6l-7,3.4
		c-0.7,0.3-1.5,0.2-2-0.4c-2.3-2.4-4.9-4.4-7.9-5.9c-0.7-0.4-1.1-1.2-0.9-2l1.1-4.6c0.2-0.9-0.3-1.8-1.1-2.1l-7.2-2.6
		c-0.1-0.1-0.3-0.1-0.4-0.1c-0.7-0.1-1.4,0.3-1.7,1l-2.6,5.5l-0.6,1.3c-1.4,0-2.9,0-4.4,0.2c-2,0.2-3.9,0.6-5.7,1.2
		c-0.7,0.2-1.5,0-1.9-0.6l-4.1-5.4c-0.6-0.7-1.6-0.9-2.4-0.4l-5,3.2l-1.4,0.9c-0.8,0.5-1.1,1.5-0.7,2.3l2.9,5.8
		c0.3,0.7,0.2,1.5-0.3,2c-1.6,1.6-2.9,3.3-4.1,5.2c-0.1,0.2-0.2,0.3-0.3,0.5l-0.1,0.1c-0.4,0.6-1.1,0.8-1.9,0.6l-7.5-1.8l-0.3-0.1
		c-0.8-0.1-1.5,0.4-1.8,1.2l-2.6,7.2c-0.3,0.9,0.1,1.8,0.9,2.2l7.7,3.5c0.7,0.3,1,1,1,1.7c-0.1,1.6,0,3.2,0.1,4.8
		c0.1,0.9,0.2,1.7,0.4,2.5c0.1,0.7-0.1,1.4-0.7,1.8l-6.5,4.9c-0.7,0.5-0.9,1.5-0.4,2.3l4.1,6.5c0.5,0.8,1.5,1.1,2.3,0.7l5.5-2.7
		c0.7-0.4,1.6-0.2,2.1,0.5c2.1,2.5,4.5,4.6,7.2,6.4c0.6,0.4,0.9,1.2,0.8,1.9l-1.7,6.7c-0.2,0.9,0.3,1.8,1.1,2.2l7.2,2.6
		c0.9,0.3,1.8-0.1,2.2-0.9l0.2-0.3l2.9-6.4c0.3-0.7,1-1.1,1.8-1l0,0c1.8,0.1,3.6,0.1,5.5-0.1c1-0.1,2-0.3,2.9-0.5
		c0.7-0.2,1.3,0.1,1.8,0.6l4.2,5.5c0.6,0.8,1.6,0.9,2.4,0.4l6.4-4.1c0.2-0.1,0.3-0.3,0.5-0.4c0.4-0.5,0.5-1.3,0.2-1.9l-2.3-4.7
		c-0.3-0.6-0.2-1.3,0.1-1.8c0.1-0.1,0.2-0.3,0.3-0.4c3.2-2.7,5.8-5.9,7.7-9.6c0.3-0.6,1-1,1.7-0.9c0.1,0,0.2,0,0.3,0l6,1.5
		c0.9,0.2,1.8-0.3,2.1-1.1l0.1-0.2l2.5-7C2173.3,1419.8,2172.9,1418.8,2172.1,1418.4"/>
</g>
<g id="g378" transform="scale(1.23332)">
	<path id="path380" class="st18" d="M2135,1586.7c-0.3,3.5-2.2,8.2-4.4,11.5c-0.6,0.8-1.1,1.5-1.6,2.1c-2.6,2.7-5.4,4.9-8.3,6.4
		c-16.7,8.6-37.2-1.9-39.2-21.6c-0.2-2-0.2-4.1,0-6.2c0.4-4.1,3-10,5.8-13c0.3-0.3,0.6-0.6,0.9-1
		C2106.9,1546,2137.2,1559.8,2135,1586.7z M2170.8,1573.3l-12.8-2.3c-1.1-0.2-1.9-1-2.2-2c-0.4-1.3-0.8-2.6-1.3-3.9
		c-0.9-2.4-2-4.7-3.3-6.9c-0.6-1-0.5-2.3,0.2-3.2l8.3-10.7c0.9-1.1,0.8-2.8-0.3-3.8l-9.1-8.4c-1-1-2.6-1-3.7-0.1l-9.4,8.2
		c-0.9,0.8-2.2,0.9-3.3,0.3c-4.5-2.7-9.4-4.7-14.6-5.9c-1.3-0.3-2.2-1.4-2.2-2.7l-0.1-7.6c0-1.4-1.1-2.7-2.6-2.8l-12.3-1.1
		c-0.3,0-0.5,0-0.7,0c-1.1,0.2-2.1,1.1-2.3,2.3l-1.7,9.5l-0.4,2.3c-2.2,0.5-4.5,1.2-6.7,2c-3,1.1-5.8,2.6-8.4,4.2
		c-1,0.6-2.3,0.6-3.2-0.2l-8.6-6.7c-1.2-0.9-2.9-0.8-3.9,0.3l-6.4,6.9l-1.8,2c-1,1.1-1,2.8-0.1,3.9l6.8,7.9c0.8,0.9,0.9,2.2,0.3,3.2
		c-1.8,3.1-3.2,6.4-4.3,9.7c-0.1,0.3-0.2,0.6-0.3,0.8c0,0.1-0.1,0.2-0.1,0.3c-0.4,1.1-1.5,1.8-2.6,1.8l-12.3,0.2c-0.1,0-0.3,0-0.4,0
		c-1.3,0.2-2.2,1.3-2.4,2.6l-1.1,12.2c-0.1,1.5,0.9,2.8,2.4,3.1l13.3,2.4c1.1,0.2,2,1.1,2.2,2.2c0.5,2.5,1.3,4.9,2.2,7.4
		c0.5,1.3,1,2.6,1.6,3.8c0.5,1,0.4,2.2-0.3,3l-8,10.3c-0.9,1.1-0.7,2.8,0.3,3.7l9,8.3c1.1,1,2.7,1,3.9,0.1l7.4-6.5
		c1-0.9,2.4-0.9,3.5-0.2c4.2,3,8.9,5.3,13.8,6.9c1.1,0.4,2,1.4,2,2.7l0.2,11.1c0,1.5,1.2,2.7,2.7,2.8l12.1,1.1
		c1.5,0.1,2.8-0.9,3-2.3l0.1-0.6l2-11.1c0.2-1.2,1.1-2.1,2.3-2.3l0,0c2.8-0.6,5.7-1.4,8.5-2.4c1.5-0.6,2.9-1.2,4.3-1.9
		c1-0.5,2.1-0.4,3,0.3l8.7,6.8c1.2,0.9,2.9,0.8,3.9-0.3l8.3-9c0.2-0.3,0.4-0.6,0.5-0.8c0.4-1,0.2-2.1-0.5-3l-5.5-6.3
		c-0.7-0.8-0.9-1.8-0.5-2.8c0.1-0.2,0.2-0.5,0.4-0.7c3.8-5.4,6.5-11.5,8-18c0.2-1.1,1.1-1.9,2.2-2.2c0.1,0,0.3,0,0.5-0.1l10-0.2
		c1.5,0,2.6-1.1,2.8-2.6l0-0.3l1.1-11.9C2173.3,1574.9,2172.3,1573.6,2170.8,1573.3"/>
</g>
<g id="g382" transform="scale(1.83461)">
	<path id="path384" class="st23" d="M2173.3,1139.9c-0.3,0.9-0.6,1.8-0.9,2.7c-2.6,7.6-5.4,15.2-8.5,23c-0.4,1.1-0.9,2.2-1.3,3.2
		c-3.8,9.3-7.9,18.7-12.5,28.3v0l-111.2,0v-57.3H2173.3"/>
</g>
<g id="g386" transform="scale(1.79434)">
	<path id="path388" class="st10" d="M1048.3,1028.1c-18.3,0-35.5,7.1-48.4,20c-12.9,12.9-20,30.1-20,48.4
		c0,37.7,30.7,68.4,68.4,68.4h1050.2c18.3,0,35.5-7.1,48.4-20c12.9-12.9,20-30.1,20-48.4c0-37.7-30.7-68.4-68.4-68.4H1048.3z
		 M2098.5,1171.4H1048.3c-41.3,0-74.9-33.6-74.9-74.9c0-20,7.8-38.8,21.9-52.9c14.1-14.1,32.9-21.9,52.9-21.9h1050.2
		c41.3,0,74.9,33.6,74.9,74.9c0,20-7.8,38.8-21.9,52.9C2137.3,1163.7,2118.5,1171.4,2098.5,1171.4"/>
</g>
<path id="path390" class="st25" d="M839.4,1307.2H714.6c-5.7,0-10.4-4.7-10.4-10.4v-120.5c0-5.7,4.7-10.4,10.4-10.4h124.8
	c5.7,0,10.4,4.7,10.4,10.4v120.5C849.8,1302.6,845.1,1307.2,839.4,1307.2"/>
<path id="path392" class="st26" d="M834,1301.1H720c-5.2,0-9.5-4.3-9.5-9.5v-110c0-5.2,4.3-9.5,9.5-9.5h114c5.2,0,9.5,4.3,9.5,9.5
	v110C843.5,1296.8,839.2,1301.1,834,1301.1"/>
<path id="path394" class="st27" d="M774,1185c0-1.7,1.4-3,3-3c1.7,0,3,1.3,3,3c0,1.7-1.4,3-3,3C775.3,1188,774,1186.6,774,1185"/>
<path id="path396" class="st27" d="M798.3,1189.2c0.8-1.5,2.6-2,4.1-1.2c1.5,0.8,2,2.7,1.2,4.1c-0.8,1.5-2.6,2-4.1,1.2
	C798,1192.5,797.5,1190.7,798.3,1189.2"/>
<path id="path398" class="st27" d="M819.2,1205.8c1.4-0.9,3.3-0.5,4.2,0.9c0.9,1.4,0.5,3.3-0.9,4.2s-3.3,0.5-4.2-0.9
	C817.4,1208.6,817.8,1206.7,819.2,1205.8"/>
<path id="path400" class="st27" d="M829.5,1231.4c1.7,0,3,1.4,3,3c0,1.7-1.4,3-3,3c-1.7,0-3-1.4-3-3
	C826.5,1232.8,827.8,1231.4,829.5,1231.4"/>
<path id="path402" class="st27" d="M824.2,1261.2c1.2,1.2,1.2,3.1,0,4.3c-1.2,1.2-3.1,1.2-4.3,0c-1.2-1.2-1.2-3.1,0-4.3
	C821.2,1260,823.1,1260,824.2,1261.2"/>
<path id="path404" class="st27" d="M805.3,1280.2c1.2,1.2,1.2,3.1,0,4.3s-3.1,1.2-4.3,0c-1.2-1.2-1.2-3.1,0-4.3
	C802.2,1279,804.1,1279,805.3,1280.2"/>
<path id="path406" class="st27" d="M774,1290c0-1.7,1.4-3,3-3c1.7,0,3,1.3,3,3c0,1.7-1.4,3-3,3C775.3,1293,774,1291.7,774,1290"/>
<path id="path408" class="st27" d="M755.6,1189.2c-0.8-1.5-2.6-2-4.1-1.2c-1.5,0.8-2,2.7-1.2,4.1c0.8,1.5,2.6,2,4.1,1.2
	C755.9,1192.5,756.4,1190.7,755.6,1189.2"/>
<path id="path410" class="st27" d="M734.7,1205.8c-1.4-0.9-3.3-0.5-4.2,0.9c-0.9,1.4-0.5,3.3,0.9,4.2c1.4,0.9,3.3,0.5,4.2-0.9
	C736.5,1208.6,736.1,1206.7,734.7,1205.8"/>
<path id="path412" class="st27" d="M724.4,1231.4c-1.7,0-3,1.4-3,3c0,1.7,1.4,3,3,3c1.7,0,3-1.4,3-3
	C727.4,1232.8,726.1,1231.4,724.4,1231.4"/>
<path id="path414" class="st27" d="M729.7,1261.2c-1.2,1.2-1.2,3.1,0,4.3c1.2,1.2,3.1,1.2,4.3,0c1.2-1.2,1.2-3.1,0-4.3
	C732.8,1260,730.8,1260,729.7,1261.2"/>
<path id="path416" class="st27" d="M748.6,1280.2c-1.2,1.2-1.2,3.1,0,4.3c1.2,1.2,3.1,1.2,4.3,0s1.2-3.1,0-4.3
	C751.7,1279,749.8,1279,748.6,1280.2"/>
<path id="path418" class="st27" d="M776.2,1234.5c0-1.7,1.4-3,3-3c1.7,0,3,1.4,3,3c0,1.7-1.4,3-3,3
	C777.5,1237.5,776.2,1236.1,776.2,1234.5"/>
<path id="path420" class="st27" d="M779.6,1234.5h-0.8v-37.7h0.8V1234.5"/>
<path id="path422" class="st27" d="M779.6,1235.4l-1.5-1.9l20-15.7l1.5,1.9L779.6,1235.4"/>
<g id="g424" transform="scale(1.03131)">
	<path id="path426" class="st28" d="M1992.7,1581.7h180.7v-149h-180.7V1581.7"/>
</g>
<g id="g428" transform="scale(1.07417)">
	<path id="path430" class="st12" d="M1999.9,1518.6h173.5v-143h-173.5V1518.6"/>
</g>
<path id="path432" class="st29" d="M2055.1,1592.2h29.5l-2.6-8.3l2.6-5.9h-29.5V1592.2"/>
<g id="g434" transform="scale(1.00202)">
	<path id="path436" class="st14" d="M2143.9,1522h29.5l-2.6-8.3l2.6-5.9h-29.5V1522"/>
</g>
<path id="path438" class="st29" d="M2148.2,1510.8h-29.5l2.6,8.3l-2.6,5.9h29.5V1510.8"/>
<g id="g440" transform="scale(1.07418)">
	<path id="path442" class="st14" d="M2173.3,1483.8h-27.5l2.4,7.7l-2.4,5.5h27.5V1483.8"/>
</g>
<g id="g444" transform="scale(1.06856)">
	<path id="path446" class="st15" d="M2173.3,1412h-50.2v-19.5h50.2V1412"/>
</g>
<g id="g448" transform="scale(1.05636)">
	<path id="path450" class="st30" d="M2126.8,1538c4.3-2.8,14-8.9,14.4-7.4c0.3,1-0.3,2.8-1.5,4.6c5.8-1.9,11.7-3.1,25.3,0.1
		c2.7,0.6,5.2,2.3,6.6,4.7c1.3,2.2,1.7,5-1.9,7c-7.2,4.1-5,1.6-15,7.5c-10,6-22,7.1-28.9,2.4l-9.5-2l-0.6-15.8
		C2115.7,1539.1,2121.2,1538.7,2126.8,1538"/>
</g>
<path id="path452" class="st14" d="M2041.7,1459.3c-27.6,17.2-56.3-6.2-56.3-6.2s11-28.1,4.1-65.1c-0.3-1.5,48.2,18.5,49.7,18.8h0
	c0,0,0,0.1,0.1,0.3c0,0.2,0.1,0.5,0.1,0.7c0.8,6.5,1.3,13,1.6,19.1C2042.1,1445.1,2041.7,1459.3,2041.7,1459.3"/>
<path id="path454" class="st31" d="M2041,1427c-22-2-38.9-14.3-44.6-21.3c-1.7-2.1,41.5,1.1,42.8,1.2h0c0,0,0,0.1,0.1,0.3
	c0,0.2,0.1,0.4,0.1,0.7C2040.2,1414.4,2040.7,1420.9,2041,1427"/>
<path id="path456" class="st14" d="M2048.3,1403.8c0,0-47.5,21-60.2-8.8c-12.6-29.8-27.3-47.2,2.5-61.9c29.8-14.7,40.6-5.8,47.2,3.1
	C2044.5,1345.2,2060.3,1397.6,2048.3,1403.8"/>
<path id="path458" class="st22" d="M1991.4,1403.2c-0.6,0.6-10.7,5.9-38.5-30.7c-4.4-5.7-9.1-19-4-32.5
	c5.1-13.5,29.7-27.9,50.7-36.2c9.9-3.9,19.3-3.1,26.5-1.2c8.9,2.3,14.1,11.6,11.6,20.5c-4,14-13.9,22.5-26.4,22.1
	c-8.4-0.3-7.8,16.9-7.7,20.9c0.2,4.1-0.1,7.5-10.7,5.9c-9-1.4-3.9,10.5-0.9,15.9c1.5,2.6,2.3,5.7,2.2,8.7
	C1994.1,1398.8,1993.4,1401.3,1991.4,1403.2"/>
<path id="path460" class="st32" d="M1918.7,2197.1H1888c-6.4,0-13.6-6.4-15.3-18.2c-1.8-11.8-15-18.2-17.8-27.8
	c-2.9-9.6,11.8-23.2,11.8-23.2l2.5-3.1l2.5-3.3l24.3,5.7c0,0,0.6,5.8,1,13.1c0.3,5.3,0.4,11.5,0.1,16.9c-0.7,12.9,3.6,26.7,15,29.2
	C1923.4,2188.8,1918.7,2197.1,1918.7,2197.1"/>
<path id="path462" class="st32" d="M2131.9,2197.1h-81.2c-0.8-0.1-1.4-0.3-1.7-0.5c-5.4-2.7-3.7-23.5-3.1-29.9
	c0.1-1.2,0.2-1.9,0.2-1.9s28.6-22.8,32.5-5.4c0.1,0.5,0.3,1.1,0.4,1.6v0c5,16.4,27.1,23.8,39.9,25.9
	C2128.7,2188.5,2131.3,2194.2,2131.9,2197.1"/>
<path id="path464" class="st12" d="M2115.6,1728.7c0,0-4.3,54.1-9.4,119.2c-6.9,88.3-15.3,196.9-16.1,217.4
	c-1.4,35.7-7.1,92.8-7.1,92.8s-13.6,13.6-40.7,7.8c0,0-24.2-81.5-31.1-167.8c-0.1-1.4-0.2-2.8-0.3-4.3
	c-6.4-87.8-16.4-272.7-16.4-272.7L2115.6,1728.7"/>
<path id="path466" class="st22" d="M2103.5,1721.3c-11.5,0.7-132.2-3.9-132.3-10.6c-0.1-23.5-5-61.4-11.1-107.6
	c-1.1-8.6-2-17.1-2.7-25.6c-1.7-22-1.8-43.1-0.1-62.2c3-35.5,12.3-58.3,27.6-71.6c0,0,14.5,1.2,27.8,3.2c15.1,2.3,20.7,1.3,31-1.6
	l18.4,15.9c11,10.3,19.9,21,23.4,35.9C2085.7,1497.1,2104.5,1721.2,2103.5,1721.3"/>
<path id="path468" class="st33" d="M1977.3,1559c0,0,12.7,40.3,55.1,59.8c42.4,19.5,17.1-37.1,17.1-37.1L1977.3,1559"/>
<path id="path470" class="st12" d="M2085.7,1497.1l-33,7.7l-45.4,123c-6.5,17.7-21.5,28.5-40.4,28.5l-0.1,2.9l2.2,58.6l146.3,13.3
	c0,0,0.7-73.3-1.9-96.8C2109.6,1599.5,2085.7,1497.1,2085.7,1497.1"/>
<g id="g472" transform="scale(1.03294)">
	<path id="path474" class="st22" d="M2172.3,1581.9c1-9.3-3.8-11-3.8-11s-94.2-20.8-102.1-23.7c-8-2.8-74.1-77.2-74.1-77.2
		s-25.3-30.8-47.1-25.1c-19,5-26.9,19.4-30,33.2c-3.6,16.5-15,21.8-0.9,31.2c31.6,21.1,113.3,74.5,128.3,79.6
		c33.6,11.3,125.1,5.6,125.1,5.6S2171.5,1589.2,2172.3,1581.9"/>
</g>
<path id="path476" class="st11" d="M2018.5,1469.1c-7.7-7.1-33.5-25.4-33.5-25.4s1-1.7,2.6-3.3c1.5-1.5,3.3-2.6,3.3-2.6
	c3.3-0.7,28.7,18.5,37.2,26c10.2,9.1,38.5,37.6,38.5,37.6l-13.9,3.2C2052.7,1504.7,2027.5,1477.5,2018.5,1469.1"/>
<path id="path478" class="st12" d="M2050.3,1333.4c0,0-19,10.7-25.9,12.5c-2.1,0.5-33.1,8.3-33.1,8.3l-44.3,16.3
	c0,0-15.1-32.4,3.5-57.8l0,0c0.5-0.6,1-1.3,1.5-1.9c5.1-6.3,12.4-12.1,22.8-16.8C2027,1270.5,2049.7,1331.5,2050.3,1333.4"/>
<path id="path480" class="st34" d="M2024.8,1344.8l-8.5,2.7c-8.4-7.7-39-34.3-66.2-34.1c0.1-0.3,0.2-0.5,0.3-0.7l0,0
	c0.4-0.6,0.7-1,1.2-1.9l0.3,0C1987.2,1312.8,2017.7,1337.9,2024.8,1344.8"/>
<path id="path482" class="st12" d="M1991.3,1354.2c0,0-4.7,7.7-5.1,14.4c-0.4,6.7-29.4,15.9-32.1,12.9c-2.7-3-7.2-11-7.2-11
	L1991.3,1354.2"/>
<path id="path484" class="st34" d="M1991.3,1354.2c0,0,55-8.8,77.7-26.5c1.7-1.3,0.9-4.1-1.3-4.3c-3.9-0.2-10.5-0.1-21.2,1.4
	C2046.5,1324.8,2029.8,1344.6,1991.3,1354.2"/>
<path id="path486" class="st11" d="M2099.4,1725.1c0,0,2.8,33.8-12.8,97.1c-11.5,46.5-75.5,176-75.5,176c-0.1-1.4-0.2-2.8-0.3-4.3
	c-6.4-87.8-16.4-272.7-16.4-272.7L2099.4,1725.1"/>
<path id="path488" class="st12" d="M2099.4,1725.1c0,0-81.8,206-133.2,298.1c-51.4,92.1-67.5,117.8-67.5,117.8s-29.4-11.8-32.1-19.8
	c0,0,19.7-177.8,54.1-221.1c19.5-24.5,42.3-98,43.4-123.7c1.1-25.7,3.9-87.3,3.9-87.3L2099.4,1725.1"/>
<g id="g490" transform="scale(1.54028)">
	<path id="path492" class="st35" d="M2173.3,337l-30.5-0.1l-7.7-5l24,0.1C2163.9,333.6,2168.6,335.3,2173.3,337 M2134.8,336.8
		L2134.8,336.8l-93.7-0.4h0l-7.7-5h0l101.7,0.4l-2.3,3.6L2134.8,336.8 M2033.1,336.4l-93.7-0.4h0l-7.7-5h0l101.7,0.5h0l-2.3,3.6
		L2033.1,336.4 M1931.4,336L1931.4,336l-93.7-0.4h0l-7.7-5h0l101.7,0.4h0l-2.3,3.6L1931.4,336 M1829.6,335.5L1829.6,335.5l-93.7-0.4
		l0,0l-7.7-5h0l101.7,0.4h0l-2.3,3.6L1829.6,335.5 M1727.9,335.1L1727.9,335.1l-93.7-0.4l0,0l-7.7-5h0l101.7,0.5l0,0l-2.3,3.6
		L1727.9,335.1 M1626.2,334.6L1626.2,334.6l-93.7-0.4h0l-7.7-5h0l101.7,0.4l0,0l-2.3,3.6L1626.2,334.6 M1524.5,334.2L1524.5,334.2
		l-93.7-0.4h0l-7.7-5h0l101.7,0.5l0,0l-2.3,3.6L1524.5,334.2 M1422.7,333.7L1422.7,333.7l-93.7-0.4h0l-7.7-5h0l101.7,0.4h0l-2.3,3.6
		L1422.7,333.7 M1321,333.3L1321,333.3l-93.7-0.4h0l-7.7-5l0,0l101.7,0.5h0l-2.3,3.6L1321,333.3 M1219.3,332.8L1219.3,332.8
		l-93.7-0.4h0l-7.7-5h0l101.7,0.4h0l-2.3,3.6L1219.3,332.8 M1117.6,332.4l-93.7-0.4h0l-7.7-5h0l101.7,0.5l0,0l-2.3,3.6L1117.6,332.4
		 M1015.9,331.9L1015.9,331.9l-93.7-0.4h0l-7.7-5l-2.3,3.6l2,1.3h0l-22.7-0.1c2-1.7,4-3.3,6.1-4.9h0l16.9,0.1h0l101.7,0.5l0,0
		l-2.3,3.6L1015.9,331.9"/>
</g>
<g id="g494" transform="scale(1.606)">
	<path id="path496" class="st35" d="M2173.3,369.1l-1362.1-6c1.2-1.6,2.4-3.2,3.7-4.7l28.2,0.1l5.5,3.5l2.2-3.5l0,0l89.8,0.4h0
		l5.5,3.5l2.2-3.5l0,0l89.8,0.4h0l5.5,3.5l2.2-3.5l0,0l89.8,0.4l0,0l5.5,3.5l2.2-3.5l0,0l89.8,0.4l0,0l5.5,3.5l2.2-3.5l0,0l0,0
		l89.8,0.4l0,0l5.5,3.5l2.2-3.5l0,0h0l89.8,0.4l0,0l5.5,3.5l2.3-3.5l0,0l0,0l89.8,0.4l0,0l5.5,3.5l2.3-3.5l0,0h0l89.8,0.4h0l5.5,3.5
		l2.2-3.5l0,0h0l89.8,0.4l0,0l5.5,3.5l2.2-3.5l0,0h0l89.8,0.4h0l5.5,3.5l2.2-3.5l0,0l0,0l89.8,0.4h0l5.5,3.5l2.2-3.5l0,0l0,0
		l89.8,0.4l0,0l5.5,3.5l2.2-3.5l0,0h0l89.8,0.4l0,0l5.5,3.5l2.2-3.5l0,0l0,0l47.7,0.2C2169,365.9,2171.2,367.5,2173.3,369.1"/>
</g>
<path id="path498" class="st35" d="M1362.8,581.5l-8.8-5.7l-29.4-18.9c1.5-1.7,3-3.4,4.5-5l37.3,24l0,0L1362.8,581.5"/>
<path id="path500" class="st35" d="M1519.5,582.2l-8.8-5.7l-102.7-66l-3.1-2l3.6-5.6l11.9,7.7l102.7,66l0,0L1519.5,582.2"/>
<path id="path502" class="st35" d="M1676.2,582.9l-8.8-5.7l-102.7-65.9l-3.1-2l3.6-5.6l0,0l0,0l11.9,7.7l102.7,66l0,0L1676.2,582.9"
	/>
<path id="path504" class="st35" d="M1832.9,583.6l-8.8-5.7l-102.7-66l-3.1-2l3.6-5.6l0,0l0,0l11.9,7.7l102.7,65.9l0,0L1832.9,583.6"
	/>
<path id="path506" class="st35" d="M1989.5,584.3l-8.8-5.7l-102.7-66l-3.1-2l3.6-5.6v0l0,0l11.9,7.7l102.7,66l0,0L1989.5,584.3"/>
<path id="path508" class="st35" d="M2146.2,585l-8.8-5.7l-102.7-66l-3.1-2l3.6-5.6v0l0,0l11.9,7.7l102.7,66h0L2146.2,585"/>
<g id="g510" transform="scale(1.06128)">
	<path id="path512" class="st35" d="M2169.9,551.8l-8.3-5.3l-96.7-62.1l-2.9-1.9l3.4-5.3v0l0,0l11.2,7.2l96.7,62.1l0,0L2169.9,551.8
		"/>
</g>
<g id="g514" transform="scale(1.13337)">
	<path id="path516" class="st35" d="M2170.2,517.3l-7.8-5l-90.6-58.2l-2.8-1.8l3.2-4.9l0,0l0,0l10.5,6.8l90.6,58.2l0,0L2170.2,517.3
		"/>
</g>
<g id="g518" transform="scale(1.20546)">
	<path id="path520" class="st35" d="M2170.3,487l-7.3-4.7l-85.1-54.7l-2.6-1.7l3-4.6v0l0,0l9.9,6.3l85.1,54.7l0,0L2170.3,487"/>
</g>
<g id="g522" transform="scale(1.27755)">
	<path id="path524" class="st35" d="M2170.5,460l-6.9-4.5l-80.3-51.6l-2.5-1.6l2.8-4.4v0l0,0l9.3,6l80.3,51.6l0,0L2170.5,460"/>
</g>
<g id="g526" transform="scale(1.34964)">
	<path id="path528" class="st35" d="M2170.7,436l-6.5-4.2l-76.1-48.9l-2.3-1.5l2.7-4.1v0l0,0l8.8,5.7l76.1,48.9l0,0L2170.7,436"/>
</g>
<g id="g530" transform="scale(1.42174)">
	<path id="path532" class="st35" d="M2170.8,414.3l-6.2-4l-72.2-46.4l-2.2-1.4l2.5-3.9l0,0h0l8.4,5.4l72.2,46.4l0,0L2170.8,414.3"/>
</g>
<g id="g534" transform="scale(1.49383)">
	<path id="path536" class="st35" d="M2170.9,394.8l-5.9-3.8l-68.7-44.1l-2.1-1.4l2.4-3.7v0v0l8,5.1l68.7,44.1l0,0L2170.9,394.8"/>
</g>
<g id="g538" transform="scale(1.56592)">
	<path id="path540" class="st35" d="M2171,377.1l-5.6-3.6l-65.6-42.1l-2-1.3l2.3-3.6h0l0,0l7.6,4.9l65.6,42.1l0,0L2171,377.1"/>
</g>
<g id="g542" transform="scale(1.21202)">
	<path id="path544" class="st36" d="M1965.8,1512.6h207.5v-171.1h-207.5V1512.6"/>
</g>
<g id="g546" transform="scale(1.26987)">
	<path id="path548" class="st16" d="M1975.3,1443.7h198v-163.3h-198V1443.7"/>
</g>
<g id="g550" transform="scale(1.11471)">
	<path id="path552" class="st22" d="M2137.6,1597.4h35.7l-3.1-10.1l3.1-7.2h-35.7V1597.4"/>
</g>
<g id="g554" transform="scale(1.1725)">
	<path id="path556" class="st21" d="M2139.4,1441.4h34l-3-9.6l3-6.8h-34V1441.4"/>
</g>
<g id="g558" transform="scale(1.15417)">
	<path id="path560" class="st22" d="M2173.3,1447.7h-34.5l3,9.7l-3,6.9h34.5V1447.7"/>
</g>
<g id="g562" transform="scale(1.26988)">
	<path id="path564" class="st21" d="M2173.3,1404h-31.4l2.8,8.8l-2.8,6.3h31.4V1404"/>
</g>
<g id="g566" transform="scale(1.26229)">
	<path id="path568" class="st15" d="M2173.3,1321.5H2116v-22.3h57.3V1321.5"/>
</g>
<g id="g570" transform="scale(1.47368)">
	<path id="path572" class="st14" d="M2173.3,1013c0,0-8.1,46-16.9,94.1c-9.6,52.3-20.1,106.9-22.1,107.6c-3.8,1.3-3.5-7-6.1-13.3
		c-2.1-5.1-8.5-48.8-6.4-76c0.5-6.6,2.2-88.6,13.6-98.3C2146.7,1017.3,2173.3,1013,2173.3,1013"/>
</g>
<g id="g574" transform="scale(1.45485)">
	<path id="path576" class="st14" d="M2153.2,1204.5c0,0,2,7.6-0.9,15.1s-3.5,9.6,1.9,13.8c5.3,4.2,11.1,10.1,15.2,8.3
		c4-1.7,1.5-35.9,1.5-35.9L2153.2,1204.5"/>
</g>
<g id="g578" transform="scale(1.45215)">
	<path id="path580" class="st22" d="M2168.3,1513c5-3,2.1-25.7,2.1-25.7s-23.2-18.6-26.4-4.4c-3.2,14.2-22.1,20.6-32.8,22.3
		c-7.4,1.2-9.7,5.3-10.4,7.7H2168.3"/>
</g>
<g id="g582" transform="scale(1.52103)">
	<path id="path584" class="st22" d="M2168.6,1444.5c4.8-2.9,2.1-24.6,2.1-24.6s-22.2-17.7-25.2-4.2c-3.1,13.6-21.1,19.7-31.3,21.3
		c-7.1,1.1-9.3,5.1-9.9,7.4H2168.6"/>
</g>
<g id="g586" transform="scale(1.50388)">
	<path id="path588" class="st37" d="M2162.2,1206.7c-8,33.7-18,72.2-21.9,93.9c-0.5,2.5-0.8,4.8-1.1,6.8c-0.3,2-0.5,3.8-0.5,5.3
		c-2.1,40.6-34.2,133.6-40,135.8c-8.9,3.4-22.9-3.8-30.2-6.1c-3-1-5.1-4-4.4-7.1c15.9-73.1,25.7-177.8,27.9-240.2
		c1.1-31.4,2.5-53.8,2.5-53.8s78.4-20.9,78.8,5.5C2173.3,1157,2168.4,1180.4,2162.2,1206.7"/>
</g>
<g id="g590" transform="scale(1.49615)">
	<path id="path592" class="st34" d="M2173.3,1212.9c-8,33.9-18.1,72.6-22.1,94.4c-0.5,2.5-2.9,24-3.2,26l-13.8-156.7l19.5,1.8
		L2173.3,1212.9"/>
</g>
<g id="g594" transform="scale(1.53365)">
	<path id="path596" class="st37" d="M2089.9,1133.4l27.1,283.3c0,0,20.1,6.5,38.2,1.5c0,0,10.5-154.9,9.5-192.7
		c-1-37.9,8.5-101.3-2.2-108.3C2151.9,1110.2,2089.9,1133.4,2089.9,1133.4"/>
</g>
<g id="g598" transform="scale(1.54823)">
	<path id="path600" class="st22" d="M2141.7,1047.7c0.3,3.2,1.5,63,1.6,65.3c0.1,2.5-6.7,7.4-30.6,11c-8.6,1.3-18.7,2.1-30.3,2.3
		c-29.8,0.3-41.2-12.2-41.2-12.2c-2,0,2.3-14.5,3-109.1c-0.5,0-1.1,0.1-1.6-0.1c-10.6-4.1-20.4-12.7-20.4-12.7s12-33.3,23.3-50.2
		c2.8-4.1,10.2-7.4,20.1-9.5c2.6-0.6,5.4-1,8.3-1.4c13.5-1.8,29.8-1.9,44.9,0.3c2.6,0.4,5.2,0.8,7.8,1.3
		c11.2,2.3,21.2,5.9,28.4,11.1c10.5,7.6,18.3,46.8,18.3,46.8s-9.9,11.2-32.2,16.7C2139.9,1029.8,2140.4,1032.9,2141.7,1047.7"/>
</g>
<g id="g602" transform="scale(1.52972)">
	<path id="path604" class="st37" d="M2058.9,1122l9.2-114.7c0.5-6.6,6.2-11.6,12.8-11.3l62.7,2.5c5.2,0.2,9.3,4.3,9.6,9.5
		c0.8,15.1,3.6,44.3,14.4,52.5l5.7,83l-70.1,63.4c0,0-8-46.5-18.9-59.4C2078.2,1140.2,2058.9,1122,2058.9,1122"/>
</g>
<g id="g606" transform="scale(1.51493)">
	<path id="path608" class="st37" d="M2173.3,953.2l-7.6,59.2l-7.9-1.2l7.7-59.3C2168.1,952.2,2170.7,952.7,2173.3,953.2"/>
</g>
<g id="g610" transform="scale(1.47744)">
	<path id="path612" class="st37" d="M2173.3,975.7l-10.1,54.4l-0.8,4.6l-0.9-0.2l-7.1-1.6l10.3-55.7
		C2167.4,976.6,2170.3,976.1,2173.3,975.7"/>
</g>
<g id="g614" transform="scale(1.55339)">
	<path id="path616" class="st14" d="M2166.1,1048.8c0,0-4.6,14.1-64.2,33.6c0,0-0.7-15.9,2.9-18c11.2-6.6,37.9-26.2,38.8-29.7
		c0.6-2.3-5.5-19.6-13.2-37c14.1-1.6,23.2-2.8,33.6-8.4C2168,1016.6,2173.3,1035.8,2166.1,1048.8"/>
</g>
<g id="g618" transform="scale(1.49747)">
	<path id="path620" class="st14" d="M2173.3,1104.9c0,0-5.2-3.9-9.1-4.5c-3.9-0.6-10.6-3.1-9.5-0.8c1.1,2.4,8.4,6,8.4,6
		L2173.3,1104.9"/>
</g>
<g id="g622" transform="scale(1.49389)">
	<path id="path624" class="st38" d="M2168.6,1133.6l-20.2,2.5c-2.2,0.3-4.3-1.1-5-3.3l-13.8-45.8c-0.8-2.7,1-5.6,3.9-5.9l20.2-2.5
		c2.2-0.3,4.3,1.1,5,3.2l13.8,45.8C2173.3,1130.5,2171.5,1133.3,2168.6,1133.6"/>
</g>
<g id="g626" transform="scale(1.48897)">
	<path id="path628" class="st39" d="M2168.6,1138.3l-20.3,2.5c-2.2,0.3-4.3-1.1-5-3.3l-13.9-46c-0.8-2.7,1-5.6,3.9-5.9l20.3-2.5
		c2.3-0.3,4.4,1.1,5,3.3l13.9,46C2173.3,1135.1,2171.5,1137.9,2168.6,1138.3"/>
</g>
<g id="g630" transform="scale(1.47656)">
	<path id="path632" class="st39" d="M2172.4,1101.1L2172.4,1101.1c-0.6,0.1-1.2-0.3-1.4-0.9l-13.7-40.7c-0.2-0.6,0.1-1.1,0.7-1.2
		c0.6-0.1,1.3,0.3,1.4,0.9l13.7,40.7C2173.3,1100.5,2173,1101.1,2172.4,1101.1"/>
</g>
<g id="g634" transform="scale(1.50443)">
	<path id="path636" class="st14" d="M2173.3,1099c0,0-3.6,2.2-6.1,1.5c-2.1-0.6-3.9-0.8-6.4-2.4c-2.6-1.7-8.2,0.6-9.9,1.7
		c-4.7,3.1-20.5,3-20.5,6.1c0,3.1,6.9,11.9,15.2,14.5c8.3,2.6,24.6-2.8,24.6-2.8L2173.3,1099"/>
</g>
<g id="g638" transform="scale(1.5048)">
	<path id="path640" class="st14" d="M2173,956.8c0.3,9.3-7.9,13.8-20.2,12c-12.3-1.7-12.5-11.3-12.5-11.3l0.3-9.2l0.3-10.9l0.3-9.8
		l29.8,4c-0.1,0.7-0.1,2.5,0.1,4.7v0C2171.4,942.2,2172.2,951.7,2173,956.8"/>
</g>
<g id="g642" transform="scale(1.50324)">
	<path id="path644" class="st31" d="M2173.3,937.3L2173.3,937.3c-0.3,0.4-7.1,9.7-30.5,12l0.3-10.9L2173.3,937.3L2173.3,937.3"/>
</g>
<g id="g646" transform="scale(1.51492)">
	<path id="path648" class="st14" d="M2120.9,936.2c0,0,36.4,7.3,40.6-15.4c4.2-22.7,11.8-37.1-11.3-42.7
		c-23.1-5.7-29.2,2.2-32.5,9.4C2114.6,894.8,2111.6,933.7,2120.9,936.2"/>
</g>
<g id="g650" transform="scale(1.51706)">
	<path id="path652" class="st38" d="M2156.8,924.6c0,0,12.6,2.8,13.8-20.2c0.5-8.9,2.7-39.9-22.6-38.9
		c-25.3,1.1-36.8,15.9-39.1,18.5c-17.3,19.5,24.7,5,30.3,9.5c5.6,4.5,0.3,12,6.7,14.6c6.4,2.7,11.5,2.7,10.4,8.5
		C2155.2,922.6,2156.8,924.6,2156.8,924.6"/>
</g>
<g id="g654" transform="scale(1.52372)">
	<path id="path656" class="st12" d="M2096.3,880.6c0,0,13.5,4.7,18.2,5c1.4,0.1,22.3,1.5,22.3,1.5l30.5,5.4c0,0,6-22.7-9-36.9l0,0
		c-0.4-0.4-0.8-0.7-1.2-1.1c-4-3.5-9.4-6.4-16.6-8.2C2104.1,837.2,2096.5,879.3,2096.3,880.6"/>
</g>
<g id="g658" transform="scale(1.51346)">
	<path id="path660" class="st34" d="M2128.5,891l5.8,0.8c4.5-6,21.3-26.8,39.1-29.9c-0.1-0.2-0.2-0.3-0.3-0.4l0,0
		c-0.3-0.4-0.5-0.6-1-1.1l-0.2,0C2149.2,865.8,2132.3,885.7,2128.5,891"/>
</g>
<g id="g662" transform="scale(1.51955)">
	<path id="path664" class="st12" d="M2142.7,889.6c0,0,3.9,4.5,5,8.7c1,4.3,20.9,6.9,22.3,4.6c1.4-2.2,3.4-8,3.4-8L2142.7,889.6"/>
</g>
<g id="g666" transform="scale(1.49814)">
	<path id="path668" class="st34" d="M2173.3,902.3c0,0-37.2,0.7-54.2-8.3c-1.3-0.7-1.1-2.6,0.3-3c2.6-0.6,6.9-1.3,14.1-1.6
		C2133.6,889.5,2146.9,900.6,2173.3,902.3"/>
</g>
<path id="path670" class="st16" d="M981.8,2208.1h-595v-432.8h595V2208.1"/>
<path id="path672" class="st16" d="M1057.1,1285H976v912.1h137.6v-449.8l-56.4-231.1V1285"/>
<path id="path674" class="st23" d="M1506.9,1516.1h-449.8V1285h449.8V1516.1"/>
<path id="path676" class="st23" d="M1563.4,2197.1h-449.8v-449.8h449.8V2197.1"/>
<path id="path678" class="st40" d="M1563.4,1747.2h-449.8l-56.4-231.1h449.8L1563.4,1747.2"/>
<path id="path680" class="st16" d="M1121,1562h-11.8l-4.5-16.7h11.8L1121,1562"/>
<path id="path682" class="st16" d="M1147.7,1562H1136l-4.5-16.7h11.8L1147.7,1562"/>
<path id="path684" class="st16" d="M1174.5,1562h-11.8l-4.5-16.7h11.8L1174.5,1562"/>
<path id="path686" class="st16" d="M1201.2,1562h-11.8l-4.5-16.7h11.8L1201.2,1562"/>
<path id="path688" class="st16" d="M1228,1562h-11.8l-4.5-16.7h11.8L1228,1562"/>
<path id="path690" class="st16" d="M1254.8,1562H1243l-4.5-16.7h11.8L1254.8,1562"/>
<path id="path692" class="st16" d="M1129.4,1593.3h-11.8l-4.5-16.7h11.8L1129.4,1593.3"/>
<path id="path694" class="st16" d="M1156.1,1593.3h-11.8l-4.5-16.7h11.8L1156.1,1593.3"/>
<path id="path696" class="st16" d="M1182.9,1593.3h-11.8l-4.5-16.7h11.8L1182.9,1593.3"/>
<path id="path698" class="st16" d="M1209.6,1593.3h-11.8l-4.5-16.7h11.8L1209.6,1593.3"/>
<path id="path700" class="st16" d="M1236.4,1593.3h-11.8l-4.5-16.7h11.8L1236.4,1593.3"/>
<path id="path702" class="st16" d="M1263.2,1593.3h-11.8l-4.5-16.7h11.8L1263.2,1593.3"/>
<path id="path704" class="st16" d="M1138.1,1625.7h-11.8l-4.5-16.7h11.8L1138.1,1625.7"/>
<path id="path706" class="st16" d="M1164.8,1625.7h-11.8l-4.5-16.7h11.8L1164.8,1625.7"/>
<path id="path708" class="st16" d="M1191.6,1625.7h-11.8l-4.5-16.7h11.8L1191.6,1625.7"/>
<path id="path710" class="st16" d="M1218.3,1625.7h-11.8l-4.5-16.7h11.8L1218.3,1625.7"/>
<path id="path712" class="st16" d="M1245.1,1625.7h-11.8l-4.5-16.7h11.8L1245.1,1625.7"/>
<path id="path714" class="st16" d="M1271.8,1625.7h-11.8l-4.5-16.7h11.8L1271.8,1625.7"/>
<path id="path716" class="st16" d="M1146.5,1656.9h-11.8l-4.5-16.7h11.8L1146.5,1656.9"/>
<path id="path718" class="st16" d="M1173.2,1656.9h-11.8l-4.5-16.7h11.8L1173.2,1656.9"/>
<path id="path720" class="st16" d="M1200,1656.9h-11.8l-4.5-16.7h11.8L1200,1656.9"/>
<path id="path722" class="st16" d="M1226.7,1656.9H1215l-4.5-16.7h11.8L1226.7,1656.9"/>
<path id="path724" class="st16" d="M1253.5,1656.9h-11.8l-4.5-16.7h11.8L1253.5,1656.9"/>
<path id="path726" class="st16" d="M1280.2,1656.9h-11.8l-4.5-16.7h11.8L1280.2,1656.9"/>
<path id="path728" class="st16" d="M1307.2,1562h-11.8l-4.5-16.7h11.8L1307.2,1562"/>
<path id="path730" class="st16" d="M1333.9,1562h-11.8l-4.5-16.7h11.8L1333.9,1562"/>
<path id="path732" class="st16" d="M1360.7,1562h-11.8l-4.5-16.7h11.8L1360.7,1562"/>
<path id="path734" class="st16" d="M1387.4,1562h-11.8l-4.5-16.7h11.8L1387.4,1562"/>
<path id="path736" class="st16" d="M1414.2,1562h-11.8l-4.5-16.7h11.8L1414.2,1562"/>
<path id="path738" class="st16" d="M1440.9,1562h-11.8l-4.5-16.7h11.8L1440.9,1562"/>
<path id="path740" class="st16" d="M1315.6,1593.3h-11.8l-4.5-16.7h11.8L1315.6,1593.3"/>
<path id="path742" class="st16" d="M1342.3,1593.3h-11.8l-4.5-16.7h11.8L1342.3,1593.3"/>
<path id="path744" class="st16" d="M1369.1,1593.3h-11.8l-4.5-16.7h11.8L1369.1,1593.3"/>
<path id="path746" class="st16" d="M1395.8,1593.3h-11.8l-4.5-16.7h11.8L1395.8,1593.3"/>
<path id="path748" class="st16" d="M1422.6,1593.3h-11.8l-4.5-16.7h11.8L1422.6,1593.3"/>
<path id="path750" class="st16" d="M1449.3,1593.3h-11.8l-4.5-16.7h11.8L1449.3,1593.3"/>
<path id="path752" class="st16" d="M1324.3,1625.7h-11.8l-4.5-16.7h11.8L1324.3,1625.7"/>
<path id="path754" class="st16" d="M1351,1625.7h-11.8l-4.5-16.7h11.8L1351,1625.7"/>
<path id="path756" class="st16" d="M1377.8,1625.7H1366l-4.5-16.7h11.8L1377.8,1625.7"/>
<path id="path758" class="st16" d="M1404.5,1625.7h-11.8l-4.5-16.7h11.8L1404.5,1625.7"/>
<path id="path760" class="st16" d="M1431.3,1625.7h-11.8l-4.5-16.7h11.8L1431.3,1625.7"/>
<path id="path762" class="st16" d="M1458,1625.7h-11.8l-4.5-16.7h11.8L1458,1625.7"/>
<path id="path764" class="st16" d="M1332.7,1656.9h-11.8l-4.5-16.7h11.8L1332.7,1656.9"/>
<path id="path766" class="st16" d="M1359.4,1656.9h-11.8l-4.5-16.7h11.8L1359.4,1656.9"/>
<path id="path768" class="st16" d="M1386.2,1656.9h-11.8l-4.5-16.7h11.8L1386.2,1656.9"/>
<path id="path770" class="st16" d="M1412.9,1656.9h-11.8l-4.5-16.7h11.8L1412.9,1656.9"/>
<path id="path772" class="st16" d="M1439.7,1656.9h-11.8l-4.5-16.7h11.8L1439.7,1656.9"/>
<path id="path774" class="st16" d="M1466.4,1656.9h-11.8l-4.5-16.7h11.8L1466.4,1656.9"/>
<path id="path776" class="st10" d="M1258.6,1493.3h-167v-134.5h167V1493.3"/>
<path id="path778" class="st41" d="M1258.8,1493.3h-11.9v-134.5h11.9V1493.3"/>
<path id="path780" class="st16" d="M1147.8,2148.5h397v-160.2h-397V2148.5z M1547.4,2151.1h-402.3v-165.4h402.3L1547.4,2151.1"/>
<path id="path782" class="st15" d="M1361.2,1323.6c0,5-2.9,9.1-6.4,9.1c-3.5,0-6.4-4.1-6.4-9.1s2.9-9.1,6.4-9.1
	C1358.3,1314.5,1361.2,1318.6,1361.2,1323.6"/>
<path id="path784" class="st12" d="M1391,1323.6c0,5-2.9,9.1-6.4,9.1c-3.5,0-6.4-4.1-6.4-9.1s2.9-9.1,6.4-9.1
	C1388.2,1314.5,1391,1318.6,1391,1323.6"/>
<path id="path786" class="st41" d="M1420.8,1323.6c0,5-2.9,9.1-6.4,9.1c-3.5,0-6.4-4.1-6.4-9.1s2.9-9.1,6.4-9.1
	C1418,1314.5,1420.8,1318.6,1420.8,1323.6"/>
<path id="path788" class="st15" d="M1450.7,1323.6c0,5-2.9,9.1-6.4,9.1c-3.5,0-6.4-4.1-6.4-9.1s2.9-9.1,6.4-9.1
	C1447.8,1314.5,1450.7,1318.6,1450.7,1323.6"/>
<path id="path790" class="st12" d="M1480.5,1323.6c0,5-2.9,9.1-6.4,9.1c-3.5,0-6.4-4.1-6.4-9.1s2.9-9.1,6.4-9.1
	C1477.6,1314.5,1480.5,1318.6,1480.5,1323.6"/>
<path id="path792" class="st16" d="M1352.3,1466.1h126.8v-105.9h-126.8V1466.1z M1481.8,1468.7h-132.1v-111.2h132.1V1468.7"/>
<path id="path794" class="st42" d="M1157.8,1376.9h-20.4v-3.8h20.4L1157.8,1376.9"/>
<path id="path796" class="st42" d="M1130,1376.9h-32.1v-3.8h32.1V1376.9"/>
<path id="path798" class="st42" d="M1146.4,1387h-48.6v-3.8h48.6V1387"/>
<path id="path800" class="st42" d="M1185.2,1387H1153v-3.8h32.2V1387"/>
<path id="path802" class="st42" d="M1197.4,1376.9h-35.2v-3.8h35.2V1376.9"/>
<path id="path804" class="st42" d="M1130,1404.3h-32.1v-3.8h32.1V1404.3"/>
<path id="path806" class="st42" d="M1146.4,1414.4h-48.6v-3.8h48.6V1414.4"/>
<path id="path808" class="st42" d="M1185.2,1414.4H1153v-3.8h32.2V1414.4"/>
<path id="path810" class="st42" d="M1157.8,1404.3h-20.4v-3.8h20.4L1157.8,1404.3"/>
<path id="path812" class="st42" d="M1197.4,1404.3h-35.2v-3.8h35.2V1404.3"/>
<path id="path814" class="st42" d="M1130,1434.5h-32.1v-3.8h32.1V1434.5"/>
<path id="path816" class="st42" d="M1146.4,1444.5h-48.6v-3.8h48.6V1444.5"/>
<path id="path818" class="st42" d="M1185.2,1444.5H1153v-3.8h32.2V1444.5"/>
<path id="path820" class="st42" d="M1157.8,1434.5h-20.4v-3.8h20.4L1157.8,1434.5"/>
<path id="path822" class="st42" d="M1197.4,1434.5h-35.2v-3.8h35.2V1434.5"/>
<path id="path824" class="st42" d="M1130,1463.5h-32.1v-3.8h32.1V1463.5"/>
<path id="path826" class="st42" d="M1146.4,1473.5h-48.6v-3.8h48.6V1473.5"/>
<path id="path828" class="st42" d="M1185.2,1473.5H1153v-3.8h32.2V1473.5"/>
<path id="path830" class="st42" d="M1157.8,1463.5h-20.4v-3.8h20.4L1157.8,1463.5"/>
<path id="path832" class="st42" d="M1197.4,1463.5h-35.2v-3.8h35.2V1463.5"/>
<path id="path834" class="st23" d="M1113.6,1801.7H371v-26.4h742.6V1801.7"/>
<path id="path836" class="st43" d="M541.5,1593.7l-14.3,169.5c0,0-1.5,10.3,6.1,10.3c12.6,0,62.6,0,62.6,0s-9.5-2.1-9.3-6.9
	c0.1-5.7,16.7-174.5,16.7-174.5L541.5,1593.7"/>
<path id="path838" class="st44" d="M600,1770.5c-2.5,0-50.2,0.2-62.5,0c-5.3-0.1-6.3-4.7-6.3-7.8c0-1.5,0.2-2.5,0.2-2.5l0.4-4.4
	l0.9-11.2l0.8-9.9l1.1-12.7l0.9-10.8l10.1-120.5l61.8-1.6c0,0-7,70.6-11.9,122.1c-0.5,5.7-1.1,11.2-1.6,16.3
	c-0.2,1.6-0.3,3.2-0.5,4.8c-0.5,4.9-0.9,9.3-1.2,13.3c-0.2,2.1-0.4,4-0.5,5.8c-0.6,6.9-1,11.4-1,12.2c0,0.5,0,0.9,0.1,1.4
	C591.9,1770.3,599.1,1770.5,600,1770.5"/>
<path id="path840" class="st45" d="M391.5,1501.5l34.7,139.5l4.8,19.1l16.2,65h300.5l-59.6-223.6H391.5"/>
<path id="path842" class="st44" d="M391.5,1501.5l-4.8,1.6l54.1,226.8l6.4-4.9L391.5,1501.5"/>
<path id="path844" class="st43" d="M440.8,1729.9h298.6l8.2-4.9H447.2L440.8,1729.9"/>
<path id="path846" class="st45" d="M545.7,1773.6h64.7v-3.1h-64.7V1773.6z"/>
<path id="path848" class="st45" d="M733.1,1683.9l-48.8-179.4H391.1v-3h297l48.6,182L733.1,1683.9"/>
<path id="path850" class="st43" d="M593.9,1729.9l-0.3,2.3l-60.8,12.3l0.8-9.9l0.4-4.7L593.9,1729.9"/>
<path id="path852" class="st46" d="M566.4,1770.5h-13.3c-6.6,0-12.3,0-15.5-0.1c-5.3-0.1-6.3-4.7-6.3-7.8l60.5-11.4
	c-0.6,6.9-1,11.4-1,12.2l0,0l0,0c0,0.5,0,0.9,0.1,1.4c1,5.4,8.2,5.6,9.1,5.6C598.6,1770.5,582.3,1770.5,566.4,1770.5"/>
<path id="path854" class="st47" d="M559.3,1770.5c-2.1,0-4.2,0-6.2,0l0,0h13.3C564,1770.5,561.6,1770.5,559.3,1770.5"/>
<path id="path856" class="st47" d="M447.2,1725.1L447.2,1725.1l-16.2-65l148.2,19.7L447.2,1725.1"/>
<path id="path858" class="st16" d="M391.5,1501.5h296.5l48.1,179.7H434.7L391.5,1501.5"/>
<path id="path860" class="st48" d="M722.2,1673.4H444.6l-31.4-125.3l-2.4-9.6l-2.1-8.2l-4.8-19.2h273.6l5.3,19.2l2.3,8.2l2.6,9.6
	L722.2,1673.4"/>
<path id="path862" class="st49" d="M650.8,1519.9l-12.5,0.2l-0.3-1.1l12.5-0.2L650.8,1519.9"/>
<path id="path864" class="st49" d="M648,1522.9l-9,0.1l-0.3-1.1l9-0.1L648,1522.9"/>
<path id="path866" class="st49" d="M658.3,1522.7l-9,0.1l-0.3-1.1l9-0.1L658.3,1522.7"/>
<path id="path868" class="st49" d="M665.8,1522.6l-5.6,0.1l-0.3-1.1l5.6-0.1L665.8,1522.6"/>
<path id="path870" class="st49" d="M660.8,1519.7l-7.7,0.1l-0.3-1.1l7.7-0.1L660.8,1519.7"/>
<path id="path872" class="st49" d="M671.3,1519.6l-7.7,0.1l-0.3-1.1l7.7-0.1L671.3,1519.6"/>
<path id="path874" class="st49" d="M684.1,1662.2l-12.5,0.2l-0.3-1.1l12.5-0.2L684.1,1662.2"/>
<path id="path876" class="st49" d="M681.3,1665.2l-9,0.1l-0.3-1.1l9-0.1L681.3,1665.2"/>
<path id="path878" class="st49" d="M691.6,1665.1l-9,0.1l-0.3-1.1l9-0.1L691.6,1665.1"/>
<path id="path880" class="st49" d="M699.1,1665l-5.6,0.1l-0.3-1.1l5.6-0.1L699.1,1665"/>
<path id="path882" class="st49" d="M694.1,1662.1l-7.7,0.1l-0.3-1.1l7.7-0.1L694.1,1662.1"/>
<path id="path884" class="st49" d="M704.6,1661.9l-7.7,0.1l-0.3-1.1l7.7-0.1L704.6,1661.9"/>
<path id="path886" class="st49" d="M455.7,1528.1l-29.3-0.1l-0.6-2.5l29.3,0.1L455.7,1528.1"/>
<path id="path888" class="st49" d="M449,1534.8l-21-0.1l-0.6-2.5l21,0.1L449,1534.8"/>
<path id="path890" class="st49" d="M473.2,1534.9l-21-0.1l-0.6-2.5l21,0.1L473.2,1534.9"/>
<path id="path892" class="st49" d="M490.7,1534.9l-13,0l-0.6-2.5l13,0L490.7,1534.9"/>
<path id="path894" class="st49" d="M479.2,1528.2l-18.1,0l-0.6-2.5l18.1,0L479.2,1528.2"/>
<path id="path896" class="st49" d="M503.8,1528.3l-18.1,0l-0.6-2.5l18.1,0L503.8,1528.3"/>
<path id="path898" class="st49" d="M456.3,1549.8l-24.7-0.1l-0.6-2.5l24.7,0.1L456.3,1549.8"/>
<path id="path900" class="st49" d="M474.5,1549.8l-13.8,0l-0.6-2.5l13.8,0L474.5,1549.8"/>
<path id="path902" class="st49" d="M502,1549.9l-21.2-0.1l-0.6-2.5l21.2,0.1L502,1549.9"/>
<path id="path904" class="st49" d="M462.3,1556.3l-29.3-0.1l-0.6-2.5l29.3,0.1L462.3,1556.3"/>
<path id="path906" class="st49" d="M455.7,1562.9l-21-0.1l-0.6-2.5l21,0.1L455.7,1562.9"/>
<path id="path908" class="st49" d="M479.8,1563l-21-0.1l-0.6-2.5l21,0.1L479.8,1563"/>
<path id="path910" class="st49" d="M497.3,1563l-13,0l-0.6-2.5l13,0L497.3,1563"/>
<path id="path912" class="st49" d="M485.8,1556.3l-18.1,0l-0.6-2.5l18.1,0.1L485.8,1556.3"/>
<path id="path914" class="st49" d="M510.5,1556.4l-18.1,0l-0.6-2.5l18.1,0L510.5,1556.4"/>
<path id="path916" class="st50" d="M463.5,1580.6l-24.7-0.1l-0.6-2.5l24.7,0.1L463.5,1580.6"/>
<path id="path918" class="st50" d="M481.8,1580.6l-13.8,0l-0.6-2.5l13.8,0L481.8,1580.6"/>
<path id="path920" class="st50" d="M509.2,1580.7l-21.2-0.1l-0.6-2.5l21.2,0.1L509.2,1580.7"/>
<path id="path922" class="st50" d="M469.6,1587l-29.3-0.1l-0.6-2.5l29.3,0.1L469.6,1587"/>
<path id="path924" class="st50" d="M462.9,1593.7l-21-0.1l-0.6-2.5l21,0.1L462.9,1593.7"/>
<path id="path926" class="st50" d="M487.1,1593.7l-21-0.1l-0.6-2.5l21,0.1L487.1,1593.7"/>
<path id="path928" class="st50" d="M504.6,1593.8l-13,0l-0.6-2.5l13,0L504.6,1593.8"/>
<path id="path930" class="st50" d="M493,1587.1L475,1587l-0.6-2.5l18.1,0L493,1587.1"/>
<path id="path932" class="st50" d="M517.7,1587.1l-18.1,0l-0.6-2.5l18.1,0L517.7,1587.1"/>
<path id="path934" class="st49" d="M470.4,1610l-24.7-0.1l-0.6-2.5l24.7,0.1L470.4,1610"/>
<path id="path936" class="st49" d="M488.7,1610l-13.8,0l-0.6-2.5l13.8,0L488.7,1610"/>
<path id="path938" class="st49" d="M516.2,1610.1l-21.2-0.1l-0.6-2.5l21.2,0.1L516.2,1610.1"/>
<path id="path940" class="st49" d="M476.5,1616.5l-29.3-0.1l-0.6-2.5l29.3,0.1L476.5,1616.5"/>
<path id="path942" class="st49" d="M469.8,1623.1l-21-0.1l-0.6-2.5l21,0.1L469.8,1623.1"/>
<path id="path944" class="st49" d="M494,1623.2l-21-0.1l-0.6-2.5l21,0.1L494,1623.2"/>
<path id="path946" class="st49" d="M511.5,1623.2l-13,0l-0.6-2.5l13,0L511.5,1623.2"/>
<path id="path948" class="st49" d="M500,1616.5l-18.1,0l-0.6-2.5l18.1,0L500,1616.5"/>
<path id="path950" class="st49" d="M524.6,1616.6l-18.1,0l-0.6-2.5l18.1,0.1L524.6,1616.6"/>
<path id="path952" class="st50" d="M477.5,1640.2l-24.7-0.1l-0.6-2.5l24.7,0.1L477.5,1640.2"/>
<path id="path954" class="st50" d="M495.8,1640.3l-13.8,0l-0.6-2.5l13.8,0L495.8,1640.3"/>
<path id="path956" class="st50" d="M523.3,1640.3l-21.2,0l-0.6-2.5l21.2,0.1L523.3,1640.3"/>
<path id="path958" class="st50" d="M483.6,1646.7l-29.3-0.1l-0.6-2.5l29.3,0.1L483.6,1646.7"/>
<path id="path960" class="st50" d="M476.9,1653.3l-21,0l-0.6-2.5l21,0.1L476.9,1653.3"/>
<path id="path962" class="st50" d="M501.1,1653.4l-21-0.1l-0.6-2.5l21,0.1L501.1,1653.4"/>
<path id="path964" class="st50" d="M518.6,1653.4l-13,0l-0.6-2.5l13,0L518.6,1653.4"/>
<path id="path966" class="st50" d="M507.1,1646.8l-18.1-0.1l-0.6-2.5l18.1,0L507.1,1646.8"/>
<path id="path968" class="st50" d="M531.8,1646.8l-18.1,0l-0.6-2.5l18.1,0L531.8,1646.8"/>
<path id="path970" class="st45" d="M584.1,1530.2l-29.3-0.1l-0.6-2.5l29.3,0.1L584.1,1530.2"/>
<path id="path972" class="st45" d="M577.4,1536.8l-21,0l-0.6-2.5l21,0.1L577.4,1536.8"/>
<path id="path974" class="st45" d="M601.6,1536.9l-21-0.1l-0.6-2.5l21,0.1L601.6,1536.9"/>
<path id="path976" class="st45" d="M619.1,1536.9l-13,0l-0.6-2.5l13,0L619.1,1536.9"/>
<path id="path978" class="st45" d="M607.6,1530.3l-18.1-0.1l-0.6-2.5l18.1,0L607.6,1530.3"/>
<path id="path980" class="st45" d="M632.2,1530.3l-18.1,0l-0.6-2.5l18.1,0L632.2,1530.3"/>
<path id="path982" class="st45" d="M584.6,1551.8l-24.7-0.1l-0.6-2.5l24.7,0.1L584.6,1551.8"/>
<path id="path984" class="st45" d="M602.9,1551.9l-13.8,0l-0.6-2.5l13.8,0L602.9,1551.9"/>
<path id="path986" class="st45" d="M630.4,1552l-21.2-0.1l-0.6-2.5l21.2,0.1L630.4,1552"/>
<path id="path988" class="st45" d="M590.7,1558.3l-29.3-0.1l-0.6-2.5l29.3,0.1L590.7,1558.3"/>
<path id="path990" class="st45" d="M584,1565l-21-0.1l-0.6-2.5l21,0.1L584,1565"/>
<path id="path992" class="st45" d="M608.2,1565l-21-0.1l-0.6-2.5l21,0.1L608.2,1565"/>
<path id="path994" class="st45" d="M625.7,1565.1l-13,0l-0.6-2.5l13,0L625.7,1565.1"/>
<path id="path996" class="st45" d="M614.2,1558.4l-18.1,0l-0.6-2.5l18.1,0.1L614.2,1558.4"/>
<path id="path998" class="st45" d="M638.8,1558.4l-18.1,0l-0.6-2.5l18.1,0L638.8,1558.4"/>
<path id="path1000" class="st49" d="M591.9,1582.6l-24.7-0.1l-0.6-2.5l24.7,0.1L591.9,1582.6"/>
<path id="path1002" class="st49" d="M610.2,1582.7l-13.8,0l-0.6-2.5l13.8,0L610.2,1582.7"/>
<path id="path1004" class="st49" d="M637.6,1582.7l-21.2-0.1l-0.6-2.5l21.2,0.1L637.6,1582.7"/>
<path id="path1006" class="st49" d="M597.9,1589.1l-29.3-0.1l-0.6-2.5l29.3,0.1L597.9,1589.1"/>
<path id="path1008" class="st49" d="M591.3,1595.7l-21-0.1l-0.6-2.5l21,0.1L591.3,1595.7"/>
<path id="path1010" class="st49" d="M615.5,1595.8l-21-0.1l-0.6-2.5l21,0.1L615.5,1595.8"/>
<path id="path1012" class="st49" d="M632.9,1595.8l-13,0l-0.6-2.5l13,0L632.9,1595.8"/>
<path id="path1014" class="st49" d="M621.4,1589.1l-18.1-0.1l-0.6-2.5l18.1,0L621.4,1589.1"/>
<path id="path1016" class="st49" d="M646.1,1589.2l-18.1,0l-0.6-2.5l18.1,0L646.1,1589.2"/>
<path id="path1018" class="st49" d="M598.8,1612.1l-24.7-0.1l-0.6-2.5l24.7,0.1L598.8,1612.1"/>
<path id="path1020" class="st49" d="M617.1,1612.1l-13.8,0l-0.6-2.5l13.8,0L617.1,1612.1"/>
<path id="path1022" class="st49" d="M644.5,1612.2l-21.2-0.1l-0.6-2.5l21.2,0.1L644.5,1612.2"/>
<path id="path1024" class="st49" d="M604.9,1618.5l-29.3-0.1l-0.6-2.5l29.3,0.1L604.9,1618.5"/>
<path id="path1026" class="st49" d="M598.2,1625.2l-21-0.1l-0.6-2.5l21,0.1L598.2,1625.2"/>
<path id="path1028" class="st49" d="M622.4,1625.2l-21-0.1l-0.6-2.5l21,0.1L622.4,1625.2"/>
<path id="path1030" class="st49" d="M639.9,1625.3l-13,0l-0.6-2.5l13,0L639.9,1625.3"/>
<path id="path1032" class="st49" d="M628.3,1618.6l-18.1,0l-0.6-2.5l18.1,0L628.3,1618.6"/>
<path id="path1034" class="st49" d="M653,1618.6l-18.1,0l-0.6-2.5l18.1,0.1L653,1618.6"/>
<path id="path1036" class="st49" d="M605.9,1642.3l-24.7-0.1l-0.6-2.5l24.7,0.1L605.9,1642.3"/>
<path id="path1038" class="st49" d="M624.2,1642.3l-13.8,0l-0.6-2.5l13.8,0L624.2,1642.3"/>
<path id="path1040" class="st49" d="M651.6,1642.4l-21.2,0l-0.6-2.5l21.2,0.1L651.6,1642.4"/>
<path id="path1042" class="st49" d="M612,1648.7l-29.3-0.1l-0.6-2.5l29.3,0.1L612,1648.7"/>
<path id="path1044" class="st49" d="M605.3,1655.4l-21,0l-0.6-2.5l21,0.1L605.3,1655.4"/>
<path id="path1046" class="st49" d="M629.5,1655.5l-21-0.1l-0.6-2.5l21,0.1L629.5,1655.5"/>
<path id="path1048" class="st49" d="M647,1655.5l-13,0l-0.6-2.5l13,0L647,1655.5"/>
<path id="path1050" class="st49" d="M635.5,1648.8l-18.1-0.1l-0.6-2.5l18.1,0L635.5,1648.8"/>
<path id="path1052" class="st49" d="M660.1,1648.9l-18.1,0l-0.6-2.5l18.1,0L660.1,1648.9"/>
<path id="path1054" class="st51" d="M741.1,2156.9c0,0-2.7,41.7-10.7,42.3c-1.1,0.1-40.9,0-40.9,0l-50.9-0.4c0,0,0.4-12.3,15.2-14.8
	c14.9-2.6,39.8-12.9,48.8-32.6C712.1,2130.7,741.1,2156.9,741.1,2156.9"/>
<path id="path1056" class="st50" d="M886.7,1814c1.9,1.6,53.7,57.8,49.5,100.9c-1.2,12.7-12.2,22.2-24.9,22.2h-63.1
	c0,0-64.4,11.5-65.9,25.4c-1.5,13.9-14.7,88.9-40.8,195.5c0,0-19.2,6.6-30.9,1.9c-15.4-6.3-17.7-12.9-17.7-12.9
	s15.6-238.7,27.8-255.5c12.3-16.8,138.9-66.7,179.9-71.7C941.6,1814.8,886.7,1814,886.7,1814"/>
<path id="path1058" class="st14" d="M520.7,1754.4c0,0-36.6-8.5-46,0c-9.4,8.5-12.3,20.9-12.3,20.9h58.3L520.7,1754.4"/>
<path id="path1060" class="st50" d="M651.9,2156.9c0,0-2.7,41.7-10.7,42.3c-1.1,0.1-40.9,0-40.9,0l-50.9-0.4c0,0,0.4-12.3,15.2-14.8
	c14.9-2.6,39.8-12.9,48.8-32.6C623,2130.7,651.9,2156.9,651.9,2156.9"/>
<path id="path1062" class="st10" d="M934.5,1814c1.5,1.2,12.7,31.4,20.2,65.7c6.4,29.5-16,57.4-46.2,57.4H761.7
	c0,0-64.4,11.5-65.9,25.4c-1.5,13.9-14.7,88.9-40.8,195.5c0,0-19.3,5.1-34.4-1.4c-8-3.4-14.3-11.7-14.3-11.7s15.7-236.7,28-253.4
	c12.3-16.8,138.9-66.7,179.9-71.7C855.1,1814.8,934.5,1814,934.5,1814"/>
<path id="path1064" class="st14" d="M853.2,1600.6l-22.7,21.8l-38.7,0c0-3.1,0.1-16.1,0.2-27.8c0-0.7,0-1.4,0-2.1
	c0-2.6,0.1-5.1,0.1-7.4c0.1-6.5,0.1-11.2,0.1-11.2l9.9-6.8l22.1-15.1l11.9-8.2c0,0.2,1,10.9,1.1,12.4
	C840,1583.9,853.2,1600.6,853.2,1600.6"/>
<path id="path1066" class="st50" d="M796.9,1596.7c0.7-0.3,42.6-19.1,47.5-17.5c4.9,1.6,11,16.6,11,16.6l-73.7,16.7
	C781.7,1612.4,787.5,1600.6,796.9,1596.7"/>
<path id="path1068" class="st22" d="M977.9,1722.1c-8-49.2-41.6-86-56-99.8c-9.7-14.6-66.5-26.6-66.5-26.6s-47.1,10.6-73.7,16.7
	c0,0-41.5,4.5-65,43.3c-14.5,24-56,78.8-83.2,80.5c-27.2,1.7-112.8,18.3-112.8,18.3v21l130.5,3.6c1.6,0,3.2-0.1,4.7-0.4
	c11.2-2.1,59.3-11.7,83.3-24.1c3.8,61.6,8.3,155.7,29.9,170.7c22.8,15.8,182.9,17.9,199.8-6.2c8.7-12.3-2-85.3-15.3-155.7
	C970.1,1755.5,981.3,1742.7,977.9,1722.1"/>
<path id="path1070" class="st52" d="M830.1,1564.9l-2,1.2c0,0-18.2,13.1-36,19c0.1-6.5,0.1-11.2,0.1-11.2l9.9-6.8L830.1,1564.9"/>
<path id="path1072" class="st14" d="M778.7,1574.3c0,0,59.5,7,63.3-30.1c3.8-37.1,14.1-61.2-23.8-67.3c-37.8-6.1-46.7,7.3-51,19.4
	C763,1508.4,763.3,1571.5,778.7,1574.3"/>
<path id="path1074" class="st50" d="M768.9,1492.5c0,0,11.2,40.3,19.4,36.9c8.1-3.4,15.6-6.1,16.6,6.5c1.1,12.6-8,29,18.5,26.3
	c26.5-2.7,51.5-77,41.9-88.4C837.7,1440.9,730.6,1453.2,768.9,1492.5"/>
<path id="path1076" class="st53" d="M726.7,1945h294.4c11.2,0,20.2-9.1,20.2-20.2v-13.2H726.7V1945"/>
<path id="path1078" class="st54" d="M691.4,1945h222.7c8.3,0,15-6.7,15-15v-3.5c0-8.3-6.7-15-15-15H691.4c-8.3,0-15,6.7-15,15v3.5
	C676.5,1938.3,683.2,1945,691.4,1945"/>
<path id="path1080" class="st10" d="M876.9,2186.7h19l5.3-241.6h-29L876.9,2186.7"/>
<path id="path1082" class="st10" d="M794.3,2186.7H979V2170l-94.1-8.5l-90.6,8.5L794.3,2186.7"/>
<path id="path1084" class="st10" d="M996.9,2184c0-8.4-6.8-15.2-15.2-15.2c-8.4,0-15.2,6.8-15.2,15.2c0,8.4,6.8,15.2,15.2,15.2
	C990.1,2199.2,996.9,2192.4,996.9,2184"/>
<path id="path1086" class="st10" d="M812.3,2184c0-8.4-6.8-15.2-15.2-15.2c-8.4,0-15.2,6.8-15.2,15.2c0,8.4,6.8,15.2,15.2,15.2
	C805.5,2199.2,812.3,2192.4,812.3,2184"/>
<path id="path1088" class="st10" d="M800.9,1960.9h171.4c8.8,0,15.9-7.1,15.9-15.9H785.1C785.1,1953.8,792.2,1960.9,800.9,1960.9"/>
<path id="path1090" class="st54" d="M1012.3,1945c8,0,14.5-6.5,14.5-14.5v-222.5c0-41.7-27.3-75.5-60.9-75.5H828.1
	c-33.6,0-60.9,33.8-60.9,75.5v237H1012.3"/>
<path id="path1092" class="st55" d="M1015,1945c14.6,0,26.4-11.8,26.4-26.4v-210.6c0-41.7-27.3-75.5-60.9-75.5H842.8
	c-33.6,0-60.9,33.8-60.9,75.5v237H1015"/>
<g id="g1094" transform="scale(1.76004)">
	<path id="path1096" class="st56" d="M2062.9,1248.2h110.4v-91h-110.4V1248.2"/>
</g>
<g id="g1098" transform="scale(1.80475)">
	<path id="path1100" class="st16" d="M2065.7,1217.3h107.7v-88.8h-107.7V1217.3"/>
</g>
<g id="g1102" transform="scale(1.68485)">
	<path id="path1104" class="st57" d="M2155.1,1279.8h18.3l-1.6-5.1l1.6-3.7h-18.3V1279.8"/>
</g>
<g id="g1106" transform="scale(1.72951)">
	<path id="path1108" class="st56" d="M2155.5,1206.3h17.8l-1.6-5l1.6-3.6h-17.8V1206.3"/>
</g>
<g id="g1110" transform="scale(1.71534)">
	<path id="path1112" class="st57" d="M2173.3,1207.6h-17.9l1.6,5.1l-1.6,3.6h17.9V1207.6"/>
</g>
<g id="g1114" transform="scale(1.80475)">
	<path id="path1116" class="st56" d="M2173.3,1195.7h-17.1l1.5,4.8l-1.5,3.4h17.1V1195.7"/>
</g>
<g id="g1118" transform="scale(1.7989)">
	<path id="path1120" class="st15" d="M2173.3,1150.3h-31.1v-12.1h31.1V1150.3"/>
</g>
<g id="g1122" transform="scale(1.63906)">
	<path id="path1124" class="st56" d="M2054.5,1340.5h118.8v-98h-118.8V1340.5"/>
</g>
<g id="g1126" transform="scale(1.68386)">
	<path id="path1128" class="st20" d="M2057.7,1304.8h115.6v-95.3h-115.6V1304.8"/>
</g>
<g id="g1130" transform="scale(1.56372)">
	<path id="path1132" class="st22" d="M2153.6,1379h19.7l-1.7-5.6l1.7-4h-19.7V1379"/>
</g>
<g id="g1134" transform="scale(1.60846)">
	<path id="path1136" class="st21" d="M2154.1,1297h19.2l-1.7-5.4l1.7-3.9h-19.2V1297"/>
</g>
<g id="g1138" transform="scale(1.59426)">
	<path id="path1140" class="st22" d="M2173.3,1299.2H2154l1.7,5.4l-1.7,3.9h19.3V1299.2"/>
</g>
<g id="g1142" transform="scale(1.68386)">
	<path id="path1144" class="st21" d="M2173.3,1281.6H2155l1.6,5.2l-1.6,3.7h18.3V1281.6"/>
</g>
<g id="g1146" transform="scale(1.67799)">
	<path id="path1148" class="st15" d="M2173.3,1233.2h-33.4v-13h33.4V1233.2"/>
</g>
<g id="g1150" transform="scale(1.6799)">
	<path id="path1152" class="st11" d="M2064.7,1212.4h108.7v-89.6h-108.7V1212.4"/>
</g>
<g id="g1154" transform="scale(1.7219)">
	<path id="path1156" class="st12" d="M2067.3,1182.8h106v-87.4h-106V1182.8"/>
</g>
<g id="g1158" transform="scale(1.60925)">
	<path id="path1160" class="st13" d="M2155.4,1241.9h18l-1.6-5.1l1.6-3.6h-18V1241.9"/>
</g>
<g id="g1162" transform="scale(1.6512)">
	<path id="path1164" class="st14" d="M2155.8,1170.5h17.5l-1.5-4.9l1.5-3.5h-17.5V1170.5"/>
</g>
<g id="g1166" transform="scale(1.6379)">
	<path id="path1168" class="st13" d="M2173.3,1171.5h-17.7l1.6,5l-1.6,3.6h17.7V1171.5"/>
</g>
<g id="g1170" transform="scale(1.7219)">
	<path id="path1172" class="st14" d="M2173.3,1161.6h-16.8l1.5,4.7l-1.5,3.4h16.8V1161.6"/>
</g>
<g id="g1174" transform="scale(1.71639)">
	<path id="path1176" class="st15" d="M2173.3,1116.8h-30.6v-11.9h30.6V1116.8"/>
</g>
<path id="path1178" class="st16" d="M1280,1409.1h-8.1v-8.1h8.1V1409.1"/>
<path id="path1180" class="st16" d="M1301,1409.1h-8.1v-8.1h8.1V1409.1"/>
<path id="path1182" class="st16" d="M1322.1,1409.1h-8.1v-8.1h8.1V1409.1"/>
<path id="path1184" class="st16" d="M1280,1427.2h-8.1v-8.1h8.1V1427.2"/>
<path id="path1186" class="st16" d="M1301,1427.2h-8.1v-8.1h8.1V1427.2"/>
<path id="path1188" class="st16" d="M1322.1,1427.2h-8.1v-8.1h8.1V1427.2"/>
<path id="path1190" class="st16" d="M1280,1447.2h-8.1v-8.1h8.1V1447.2"/>
<path id="path1192" class="st16" d="M1301,1447.2h-8.1v-8.1h8.1V1447.2"/>
<path id="path1194" class="st16" d="M1322.1,1447.2h-8.1v-8.1h8.1V1447.2"/>
<path id="path1196" class="st38" d="M1356.4,1623.3l13.1-1.9c1.5-0.2,2.1-1.7,1.5-3.5l-12.8-38.9c-0.8-2.3-3.2-4.2-5-3.9l-13.1,1.9
	c-1.5,0.2-2.1,1.7-1.5,3.5l12.8,38.9C1352.1,1621.7,1354.5,1623.6,1356.4,1623.3"/>
<path id="path1198" class="st39" d="M1361,1622.6l13.1-1.9c1.5-0.2,2.1-1.7,1.5-3.5l-12.8-38.9c-0.8-2.3-3.2-4.2-5-3.9l-13.1,1.9
	c-1.5,0.2-2.1,1.7-1.5,3.5l12.8,38.9C1356.8,1621,1359.2,1622.9,1361,1622.6"/>
<path id="path1200" class="st39" d="M1348.3,1583.3L1348.3,1583.3c0.4-0.1,0.6-0.5,0.4-1l-10.4-34.4c-0.1-0.5-0.6-0.9-1-0.8
	c-0.4,0.1-0.6,0.5-0.4,1l10.4,34.4C1347.5,1583,1348,1583.4,1348.3,1583.3"/>
<path id="path1202" class="st14" d="M1344.9,1452.6c0,0-9.5-16.1-17-22.1c-7.5-6-27.4-7.7-28.2-6.1c-2.4,4.7,7.9,11.6,10,15.9
	c2.1,4.3,1.2,10.6,11.3,15.7c10.4,5.3,16.5,8.8,16.5,8.8L1344.9,1452.6"/>
<path id="path1204" class="st38" d="M1336.9,1450.4c4.9-7.6,6.3-8,6.3-8s80.7,32.2,88.4,34.9c7.7,2.7,122.8,9.5,122.8,9.5l34.7,76.3
	c0,0-153.4-35-172.8-42.2c-32-11.9-83.4-58.4-83.4-58.4S1333,1456.3,1336.9,1450.4"/>
<path id="path1206" class="st50" d="M1537.3,2164.3c0,0-1.8,28.3-7,35h-80.9c0.5-2.8,2.8-9.8,12.9-11.6
	c12.8-2.2,34.2-11.2,41.9-28.1C1512.3,2141.8,1537.3,2164.3,1537.3,2164.3"/>
<path id="path1208" class="st50" d="M1680.9,2160.3c0,0,5,36.8-1.9,37.4c-0.9,0.1-30.8,0.1-42.5,0c-14.5-0.1-37.8,0.1-37.8,0.1
	c-3,0.1-5-3.1-3.4-5.7c1.7-2.8,4.9-5.9,11-7.1c12.7-2.5,34-11.8,41.4-28.8C1655.6,2138.3,1680.9,2160.3,1680.9,2160.3"/>
<path id="path1210" class="st11" d="M1499.2,1787.4c0,0,20.3,71.2,78.7,194.8s62.8,180,62.8,180l40.2-1.9c0,0-3.8-147.2-31.3-209.6
	c-27.5-62.4-33.2-233.1-33.2-233.1L1499.2,1787.4"/>
<path id="path1212" class="st12" d="M1466.6,1726.1c0,0-1.6,110.3,17.5,245.6c19.1,135.4,12.6,192.8,12.6,192.8l45.7,1.5
	c0,0,27.3-135.4,19.5-203.2c-7.8-67.8,37.4-232.5,37.4-232.5L1466.6,1726.1"/>
<path id="path1214" class="st14" d="M1556.7,1468.1l-21.5,16l-31.1-6.5c0.4-2.8,2.5-14.6,4.4-25.3c0.1-0.6,0.2-1.3,0.3-1.9
	c1.6-9.1,3-16.9,3-16.9l29.1-14.5l10.8-5.4c0,0.2-0.8,10.1-0.9,11.5C1548.6,1450.7,1556.7,1468.1,1556.7,1468.1"/>
<path id="path1216" class="st50" d="M1506.2,1460.1c0.7-0.3,42.4-12.6,46.9-11.1c4.5,1.5,7.2,10.3,7.2,10.3l-64.3,18.3
	C1495.9,1477.6,1497.5,1463.7,1506.2,1460.1"/>
<path id="path1218" class="st22" d="M1618.4,1739.7c-7.1,32.2-154.3-68.9-152.4-88.6c0.2-2.2,0.4-4.3,0.7-6.5
	c2.7-27.4,5.3-54.2,5.5-71.7c0.1-15.2,2.2-30.7,5-44.8c2.6-13,5.7-24.8,8.4-34c1.9-6.5,5.5-12.2,10.3-16.7c3.4-3.2,7.4-5.7,11.7-7.5
	c1.2-0.5,2.4-0.9,3.7-1.3c17.7-5.1,42.3-11.5,48.9-9.6c18,5.3,31.4,37,40.9,77.5C1618.9,1612.4,1623,1718.7,1618.4,1739.7"/>
<path id="path1220" class="st58" d="M1548.5,1425.6c-6.4,12.2-30.2,22.8-40.1,26.7c0.1-0.6,0.2-1.3,0.3-1.9c1.6-9.1,3-16.9,3-16.9
	l29.1-14.5C1547.2,1418.9,1551.1,1420.5,1548.5,1425.6"/>
<path id="path1222" class="st14" d="M1497.6,1431.8c0,0,52.5,16.4,62.2-16.5c9.7-32.8,23-52.8-10.1-64.7
	c-33.1-11.8-43.3-1.2-49.2,8.9C1494.5,1369.8,1484.2,1426.7,1497.6,1431.8"/>
<path id="path1224" class="st50" d="M1502.5,1356.4c0,0,3.3,38.2,11.3,36.6c7.9-1.7,15.1-2.9,13.9,8.6
	c-1.2,11.5-12.1,24.8,12.2,26.9c24.3,2,59.4-60.8,52.7-72.7C1573.2,1321.5,1474.6,1314.6,1502.5,1356.4"/>
<path id="path1226" class="st38" d="M1470.5,1726.1c14.6,5.3-0.3-14.5,0-18.6c1.1-18.1-6-41-3.8-62.8l89.1-53.3
	C1555.8,1591.4,1576.9,1725.3,1470.5,1726.1"/>
<path id="path1228" class="st12" d="M1618.4,1739.7c-38,70.5-44.1,97.4-44.1,97.4c-33.1-3.8-89.8-68.8-107.8-86.2
	c0,0-2.5-80.1-0.5-99.7l27.5-0.8c0,0,49.7,12.6,62.6-4.5c12.9-17.1,7.3-101,7.3-101l37.8-8.2
	C1618.9,1612.4,1628.6,1720.8,1618.4,1739.7"/>
<path id="path1230" class="st14" d="M1401.4,1604.9c0,0-10.9-2.1-13.7-4.4c-4.2-3.4-7.5-9.2-9.5-9.8c-3.4-1.1-11.9-11.7-12.6-12.4
	c-0.3-0.3-2.5,0.8-2,2.6c0.6,1.8,1.8,5.5,2.3,6.9c2,6,1.9,7.9-5.3,5.5c-0.9-0.3-17.6-5.6-19.3-1.8s5.2,22,13.9,25.9
	c8.7,3.9,30.1,0.4,31.7,0.8C1400,1621.9,1401.4,1604.9,1401.4,1604.9"/>
<path id="path1232" class="st22" d="M1392.6,1601.3c0,0,88.4,15,96.2,11.2c12.5-6.1-4.9-95.7-4.9-95.7s-0.7-20.3,23-25.1
	c20.6-4.2,40.5,11.3,40.5,11.3s18.1,16.2,15.8,34.1c-5.1,39.8-13.1,120.8-39.7,133.2c-34.3,16-133.7-44.4-133.7-44.4
	s-3.3-4.1-2.8-11.6C1387.4,1607.7,1392.6,1601.3,1392.6,1601.3"/>
<path id="path1234" class="st12" d="M1570.7,1543.3l-7.3,1.6c0,0-15.5-67-67.5-67.3c3.4-3.2,7.4-5.7,11.7-7.5
	C1526.8,1475.2,1559.8,1491.5,1570.7,1543.3"/>
<path id="path1236" class="st14" d="M1315.8,1443.9c0,0-14.3-8.8-15-5c-0.3,1.9,6,7,8.6,9.2c2.6,2.2,9.1,6.5,9.1,6.5L1315.8,1443.9"
	/>
<g id="g1238" transform="scale(1.8595)">
	<path id="path1240" class="st59" d="M2170.6,1189.2H99.5c-1.5,0-2.8-1.2-2.8-2.8v-2.1c0-1.5,1.2-2.8,2.8-2.8h2071.1
		c1.5,0,2.8,1.2,2.8,2.8v2.1C2173.3,1188,2172.1,1189.2,2170.6,1189.2"/>
</g>
</svg>
