<?xml version="1.0" encoding="utf-8"?>
<!-- Generator: Adobe Illustrator 27.2.0, SVG Export Plug-In . SVG Version: 6.00 Build 0)  -->
<svg version="1.1"
	 id="svg2" xmlns:cc="http://creativecommons.org/ns#" xmlns:dc="http://purl.org/dc/elements/1.1/" xmlns:rdf="http://www.w3.org/1999/02/22-rdf-syntax-ns#" xmlns:svg="http://www.w3.org/2000/svg"
	 xmlns="http://www.w3.org/2000/svg" xmlns:xlink="http://www.w3.org/1999/xlink" x="0px" y="0px" viewBox="0 0 4000 2666.7"
	 style="enable-background:new 0 0 4000 2666.7;" xml:space="preserve">
<style type="text/css">
	.st0{fill:#EBF2F9;}
	.st1{fill:#DCEAF9;}
	.st2{fill:#D5E7F7;}
	.st3{fill:#C4D9ED;}
	.st4{fill:#ADC9E0;}
	.st5{fill:#F1A34F;}
	.st6{fill:#EC994A;}
	.st7{fill:#E59545;}
	.st8{fill:#1C2948;}
	.st9{fill:#A8D29F;}
	.st10{fill:#2D3A62;}
	.st11{fill:#98BDF4;}
	.st12{fill:#82B378;}
	.st13{clip-path:url(#SVGID_00000023278147934000327220000016160913387746415521_);}
	.st14{fill:#163560;}
	.st15{clip-path:url(#SVGID_00000119840765979639563410000014646470446679766177_);}
	.st16{fill:#B64C41;}
	.st17{fill:#D6716B;}
	.st18{fill:#D68D5D;}
	.st19{fill:#233862;}
	.st20{fill:#AA3E39;}
	.st21{fill:#B84C42;}
	.st22{fill:#2B478B;}
	.st23{fill:#E49963;}
	.st24{fill:#80BDCC;}
	.st25{fill:#5F9AA8;}
	.st26{fill:#E58638;}
	.st27{fill:#699FF0;}
	.st28{fill:#4A75CB;}
	.st29{fill:#EE9849;}
	.st30{fill:#FFB27D;}
	.st31{fill:#AB7041;}
	.st32{fill:#ED985F;}
	.st33{fill:#283250;}
</style>
<g id="g18" transform="scale(1.6414)">
	<path id="path20" class="st0" d="M1879.7,745.4c-119,24.8-156.1-80.2-190.5-185.2c-44.9-137.2-85.1-274.3-296.9-122.1
		c-80.5,57.9-180.2,46.5-287.2,35.1c-90.6-9.6-186.6-19.3-280.6,13.1c-188.3,64.9-141.9,278-123.7,347.7
		C737.5,975,554.3,918.8,448,979.3c-166.7,94.9-20.5,477.6,137,479.2c157.4,1.6,1408.4-3.2,1408.4-3.2s68.7-53.8,105.2-164.5
		C2173.3,1063.6,2121.3,694.9,1879.7,745.4"/>
</g>
<g id="g22" transform="scale(1.42694)">
	<path id="path24" class="st1" d="M2173.3,1506v168.6h-81.8V1506H2173.3"/>
</g>
<g id="g26" transform="scale(1.38858)">
	<path id="path28" class="st2" d="M995,1061.9v-75.7h23V856.1h123.2v130.2h115.2V807.8l127.1-48.1v152.1h29V709.2l127.1,42.1v304.3
		h160.8v179.7h60.1v45.3h138v-78h79.2V990.8h97.9v391.1h97.9v340.3h-97.9h-83.9h-14h-79.2h-44.8h-71.7h-21.5h-60.1h-56.4h-104.3
		h-31.9h-63.6h-31.6h-29H1317h-45.3h-15.3h-115.2H1020h-2.1h-23h-98.2v-660.3H995"/>
</g>
<path id="path30" class="st3" d="M1992.4,1108.3h119.1v-43.6h-119.1V1108.3"/>
<path id="path32" class="st3" d="M1992.4,1190.2h119.1v-43.6h-119.1V1190.2"/>
<path id="path34" class="st3" d="M1992.4,1263.9h119.1v-43.6h-119.1V1263.9"/>
<g id="g36" transform="scale(1.32606)">
	<path id="path38" class="st3" d="M2173.3,1187v50.8H2069V1187H2173.3"/>
</g>
<g id="g40" transform="scale(1.32606)">
	<path id="path42" class="st3" d="M2173.3,1393.5H2070v-50.8h103.4V1393.5"/>
</g>
<g id="g44" transform="scale(1.32606)">
	<path id="path46" class="st3" d="M2173.3,1470.2H2070v-50.8h103.4V1470.2"/>
</g>
<g id="g48" transform="scale(1.32709)">
	<path id="path50" class="st3" d="M2070.1,1549.2h103.3v-50.7h-103.3V1549.2"/>
</g>
<g id="g52" transform="scale(1.32709)">
	<path id="path54" class="st3" d="M2173.3,1627.7h-103.3V1577h103.3V1627.7"/>
</g>
<g id="g56" transform="scale(1.32709)">
	<path id="path58" class="st3" d="M2070.1,1707.9h103.3v-50.7h-103.3V1707.9"/>
</g>
<path id="path60" class="st3" d="M1772.6,1220.3h125.2v43.6h-125.2V1220.3"/>
<path id="path62" class="st3" d="M1772.6,1147.3h125.2v43.6h-125.2V1147.3"/>
<path id="path64" class="st3" d="M2114.5,1305.1v43.6h-341.9v-43.6H2114.5"/>
<path id="path66" class="st3" d="M2114.5,1414.3h-341.9v-43.6h341.9V1414.3"/>
<path id="path68" class="st3" d="M2114.5,1477.7h-341.9v-41.9h341.9V1477.7"/>
<g id="g70" transform="scale(1.32606)">
	<path id="path72" class="st3" d="M2173.3,1316.9H2070v-50.8h103.4V1316.9"/>
</g>
<g id="g74" transform="scale(1.07067)">
	<path id="path76" class="st3" d="M2173.3,1446.7h-27.9v-39.4h27.9V1446.7"/>
</g>
<g id="g78" transform="scale(1.04492)">
	<path id="path80" class="st3" d="M2173.3,1482.3h-28.6v-40.4h28.6V1482.3"/>
</g>
<g id="g82" transform="scale(1.01975)">
	<path id="path84" class="st3" d="M2173.3,1518.9H2144v-41.4h29.4V1518.9"/>
</g>
<path id="path86" class="st3" d="M2164.4,1548.9h-29.9v-42.2h29.9V1548.9"/>
<path id="path88" class="st3" d="M2111.5,1548.9h-29.9v-42.2h29.9V1548.9"/>
<path id="path90" class="st3" d="M2058.1,1548.9h-29.9v-42.2h29.9V1548.9"/>
<path id="path92" class="st3" d="M2002.1,1548.9h-29.9v-42.2h29.9V1548.9"/>
<path id="path94" class="st3" d="M1947.4,1548.9h-29.9v-42.2h29.9V1548.9"/>
<path id="path96" class="st3" d="M1895.5,1548.9h-29.9v-42.2h29.9V1548.9"/>
<path id="path98" class="st3" d="M1842.7,1548.9h-29.9v-42.2h29.9V1548.9"/>
<path id="path100" class="st3" d="M1787.6,1548.9h-29.9v-42.2h29.9V1548.9"/>
<path id="path102" class="st3" d="M1731.6,1548.9h-29.9v-42.2h29.9V1548.9"/>
<path id="path104" class="st3" d="M1676.9,1548.9H1647v-42.2h29.9V1548.9"/>
<path id="path106" class="st3" d="M1625.1,1548.9h-29.9v-42.2h29.9V1548.9"/>
<path id="path108" class="st3" d="M1572.2,1548.9h-29.9v-42.2h29.9V1548.9"/>
<path id="path110" class="st3" d="M1462.8,1548.9h-29.9v-42.2h29.9V1548.9"/>
<path id="path112" class="st3" d="M1408.1,1548.9h-29.9v-42.2h29.9V1548.9"/>
<path id="path114" class="st3" d="M1356.2,1548.9h-29.9v-42.2h29.9V1548.9"/>
<path id="path116" class="st3" d="M1303.4,1506.7v42.2h-29.9v-42.2H1303.4"/>
<g id="g118" transform="scale(1.07067)">
	<path id="path120" class="st3" d="M2173.3,1516.2h-27.9v-39.4h27.9V1516.2"/>
</g>
<g id="g122" transform="scale(1.04492)">
	<path id="path124" class="st3" d="M2173.3,1553.5h-28.6v-40.4h28.6V1553.5"/>
</g>
<g id="g126" transform="scale(1.01975)">
	<path id="path128" class="st3" d="M2173.3,1591.9H2144v-41.4h29.4V1591.9"/>
</g>
<path id="path130" class="st3" d="M2164.4,1623.3h-29.9v-42.2h29.9V1623.3"/>
<path id="path132" class="st3" d="M2111.5,1623.3h-29.9v-42.2h29.9V1623.3"/>
<path id="path134" class="st3" d="M2058.1,1623.3h-29.9v-42.2h29.9V1623.3"/>
<path id="path136" class="st3" d="M2002.1,1623.3h-29.9v-42.2h29.9V1623.3"/>
<path id="path138" class="st3" d="M1947.4,1623.3h-29.9v-42.2h29.9V1623.3"/>
<path id="path140" class="st3" d="M1895.5,1623.3h-29.9v-42.2h29.9V1623.3"/>
<path id="path142" class="st3" d="M1842.7,1623.3h-29.9v-42.2h29.9V1623.3"/>
<path id="path144" class="st3" d="M1787.6,1623.3h-29.9v-42.2h29.9V1623.3"/>
<path id="path146" class="st3" d="M1731.6,1623.3h-29.9v-42.2h29.9V1623.3"/>
<path id="path148" class="st3" d="M1676.9,1623.3H1647v-42.2h29.9V1623.3"/>
<path id="path150" class="st3" d="M1625.1,1623.3h-29.9v-42.2h29.9V1623.3"/>
<path id="path152" class="st3" d="M1572.2,1623.3h-29.9v-42.2h29.9V1623.3"/>
<path id="path154" class="st3" d="M1518.7,1623.3h-29.9v-42.2h29.9V1623.3"/>
<path id="path156" class="st3" d="M1462.8,1623.3h-29.9v-42.2h29.9V1623.3"/>
<path id="path158" class="st3" d="M1408.1,1623.3h-29.9v-42.2h29.9V1623.3"/>
<path id="path160" class="st3" d="M1356.2,1623.3h-29.9v-42.2h29.9V1623.3"/>
<path id="path162" class="st3" d="M1303.4,1623.3h-29.9v-42.2h29.9V1623.3"/>
<g id="g164" transform="scale(1.07067)">
	<path id="path166" class="st3" d="M2173.3,1584.6h-27.9v-39.4h27.9V1584.6"/>
</g>
<g id="g168" transform="scale(1.04492)">
	<path id="path170" class="st3" d="M2173.3,1623.7h-28.6v-40.4h28.6V1623.7"/>
</g>
<g id="g172" transform="scale(1.01975)">
	<path id="path174" class="st3" d="M2173.3,1663.7H2144v-41.4h29.4V1663.7"/>
</g>
<path id="path176" class="st3" d="M2164.4,1696.6h-29.9v-42.2h29.9V1696.6"/>
<path id="path178" class="st3" d="M2111.5,1696.6h-29.9v-42.2h29.9V1696.6"/>
<path id="path180" class="st3" d="M2058.1,1696.6h-29.9v-42.2h29.9V1696.6"/>
<path id="path182" class="st3" d="M2002.1,1696.6h-29.9v-42.2h29.9V1696.6"/>
<path id="path184" class="st3" d="M1947.4,1696.6h-29.9v-42.2h29.9V1696.6"/>
<path id="path186" class="st3" d="M1895.5,1696.6h-29.9v-42.2h29.9V1696.6"/>
<path id="path188" class="st3" d="M1842.7,1696.6h-29.9v-42.2h29.9V1696.6"/>
<path id="path190" class="st3" d="M1787.6,1696.6h-29.9v-42.2h29.9V1696.6"/>
<path id="path192" class="st3" d="M1731.6,1696.6h-29.9v-42.2h29.9V1696.6"/>
<path id="path194" class="st3" d="M1676.9,1696.6H1647v-42.2h29.9V1696.6"/>
<path id="path196" class="st3" d="M1625.1,1696.6h-29.9v-42.2h29.9V1696.6"/>
<path id="path198" class="st3" d="M1572.2,1696.6h-29.9v-42.2h29.9V1696.6"/>
<path id="path200" class="st3" d="M1518.7,1696.6h-29.9v-42.2h29.9V1696.6"/>
<path id="path202" class="st3" d="M1462.8,1696.6h-29.9v-42.2h29.9V1696.6"/>
<path id="path204" class="st3" d="M1408.1,1696.6h-29.9v-42.2h29.9V1696.6"/>
<path id="path206" class="st3" d="M1356.2,1696.6h-29.9v-42.2h29.9V1696.6"/>
<path id="path208" class="st3" d="M1303.4,1696.6h-29.9v-42.2h29.9V1696.6"/>
<g id="g210" transform="scale(1.07067)">
	<path id="path212" class="st3" d="M2173.3,1657.3h-27.9V1618h27.9V1657.3"/>
</g>
<g id="g214" transform="scale(1.04492)">
	<path id="path216" class="st3" d="M2173.3,1698.2h-28.6v-40.4h28.6V1698.2"/>
</g>
<g id="g218" transform="scale(1.01975)">
	<path id="path220" class="st3" d="M2173.3,1740.1H2144v-41.4h29.4V1740.1"/>
</g>
<path id="path222" class="st3" d="M2164.4,1774.5h-29.9v-42.2h29.9V1774.5"/>
<path id="path224" class="st3" d="M2111.5,1774.5h-29.9v-42.2h29.9V1774.5"/>
<path id="path226" class="st3" d="M2058.1,1774.5h-29.9v-42.2h29.9V1774.5"/>
<path id="path228" class="st3" d="M2002.1,1774.5h-29.9v-42.2h29.9V1774.5"/>
<path id="path230" class="st3" d="M1947.4,1774.5h-29.9v-42.2h29.9V1774.5"/>
<path id="path232" class="st3" d="M1895.5,1774.5h-29.9v-42.2h29.9V1774.5"/>
<path id="path234" class="st3" d="M1842.7,1774.5h-29.9v-42.2h29.9V1774.5"/>
<path id="path236" class="st3" d="M1787.6,1774.5h-29.9v-42.2h29.9V1774.5"/>
<path id="path238" class="st3" d="M1731.6,1774.5h-29.9v-42.2h29.9V1774.5"/>
<path id="path240" class="st3" d="M1676.9,1774.5H1647v-42.2h29.9V1774.5"/>
<path id="path242" class="st3" d="M1625.1,1774.5h-29.9v-42.2h29.9V1774.5"/>
<path id="path244" class="st3" d="M1572.2,1774.5h-29.9v-42.2h29.9V1774.5"/>
<path id="path246" class="st3" d="M1518.7,1774.5h-29.9v-42.2h29.9V1774.5"/>
<path id="path248" class="st3" d="M1462.8,1774.5h-29.9v-42.2h29.9V1774.5"/>
<path id="path250" class="st3" d="M1408.1,1774.5h-29.9v-42.2h29.9V1774.5"/>
<path id="path252" class="st3" d="M1356.2,1774.5h-29.9v-42.2h29.9V1774.5"/>
<path id="path254" class="st3" d="M1303.4,1774.5h-29.9v-42.2h29.9V1774.5"/>
<g id="g256" transform="scale(1.07067)">
	<path id="path258" class="st3" d="M2173.3,1726.9h-27.9v-39.4h27.9V1726.9"/>
</g>
<g id="g260" transform="scale(1.04492)">
	<path id="path262" class="st3" d="M2173.3,1769.4h-28.6v-40.4h28.6V1769.4"/>
</g>
<g id="g264" transform="scale(1.01975)">
	<path id="path266" class="st3" d="M2173.3,1813.1H2144v-41.4h29.4V1813.1"/>
</g>
<path id="path268" class="st3" d="M2164.4,1848.9h-29.9v-42.2h29.9V1848.9"/>
<path id="path270" class="st3" d="M2111.5,1848.9h-29.9v-42.2h29.9V1848.9"/>
<path id="path272" class="st3" d="M2058.1,1848.9h-29.9v-42.2h29.9V1848.9"/>
<path id="path274" class="st3" d="M2002.1,1848.9h-29.9v-42.2h29.9V1848.9"/>
<path id="path276" class="st3" d="M1947.4,1848.9h-29.9v-42.2h29.9V1848.9"/>
<path id="path278" class="st3" d="M1895.5,1848.9h-29.9v-42.2h29.9V1848.9"/>
<path id="path280" class="st3" d="M1842.7,1848.9h-29.9v-42.2h29.9V1848.9"/>
<path id="path282" class="st3" d="M1787.6,1848.9h-29.9v-42.2h29.9V1848.9"/>
<path id="path284" class="st3" d="M1731.6,1848.9h-29.9v-42.2h29.9V1848.9"/>
<path id="path286" class="st3" d="M1676.9,1848.9H1647v-42.2h29.9V1848.9"/>
<path id="path288" class="st3" d="M1625.1,1848.9h-29.9v-42.2h29.9V1848.9"/>
<path id="path290" class="st3" d="M1572.2,1848.9h-29.9v-42.2h29.9V1848.9"/>
<path id="path292" class="st3" d="M1518.7,1848.9h-29.9v-42.2h29.9V1848.9"/>
<path id="path294" class="st3" d="M1462.8,1848.9h-29.9v-42.2h29.9V1848.9"/>
<path id="path296" class="st3" d="M1356.2,1848.9h-29.9v-42.2h29.9V1848.9"/>
<path id="path298" class="st3" d="M1408.1,1848.9h-29.9v-42.2h29.9V1848.9"/>
<path id="path300" class="st3" d="M1303.4,1848.9h-29.9v-42.2h29.9V1848.9"/>
<g id="g302" transform="scale(1.07067)">
	<path id="path304" class="st3" d="M2173.3,1795.3h-27.9v-39.4h27.9V1795.3"/>
</g>
<g id="g306" transform="scale(1.04492)">
	<path id="path308" class="st3" d="M2173.3,1839.5h-28.6v-40.4h28.6V1839.5"/>
</g>
<g id="g310" transform="scale(1.01975)">
	<path id="path312" class="st3" d="M2173.3,1884.9H2144v-41.4h29.4V1884.9"/>
</g>
<path id="path314" class="st3" d="M2164.4,1922.2h-29.9V1880h29.9V1922.2"/>
<path id="path316" class="st3" d="M2111.5,1922.2h-29.9V1880h29.9V1922.2"/>
<path id="path318" class="st3" d="M2058.1,1922.2h-29.9V1880h29.9V1922.2"/>
<path id="path320" class="st3" d="M2002.1,1922.2h-29.9V1880h29.9V1922.2"/>
<path id="path322" class="st3" d="M1947.4,1922.2h-29.9V1880h29.9V1922.2"/>
<path id="path324" class="st3" d="M1895.5,1922.2h-29.9V1880h29.9V1922.2"/>
<path id="path326" class="st3" d="M1842.7,1922.2h-29.9V1880h29.9V1922.2"/>
<path id="path328" class="st3" d="M1787.6,1922.2h-29.9V1880h29.9V1922.2"/>
<path id="path330" class="st3" d="M1731.6,1922.2h-29.9V1880h29.9V1922.2"/>
<path id="path332" class="st3" d="M1676.9,1922.2H1647V1880h29.9V1922.2"/>
<path id="path334" class="st3" d="M1625.1,1922.2h-29.9V1880h29.9V1922.2"/>
<path id="path336" class="st3" d="M1572.2,1922.2h-29.9V1880h29.9V1922.2"/>
<path id="path338" class="st3" d="M1518.7,1922.2h-29.9V1880h29.9V1922.2"/>
<path id="path340" class="st3" d="M1462.8,1922.2h-29.9V1880h29.9V1922.2"/>
<path id="path342" class="st3" d="M1356.2,1922.2h-29.9V1880h29.9L1356.2,1922.2"/>
<path id="path344" class="st3" d="M1303.4,1922.2h-29.9V1880h29.9V1922.2"/>
<path id="path346" class="st3" d="M1022.6,1796.6V2247H956v-450.4H1022.6"/>
<path id="path348" class="st4" d="M1022.6,2383.3h71.5v-312.8h-71.5V2383.3"/>
<g id="g350" transform="scale(1.21293)">
	<path id="path352" class="st3" d="M2133.2,1376.7v-72.3h-3v72.3h-40.7v89.3h83.8v-89.3H2133.2"/>
</g>
<g id="g354" transform="scale(1.32606)">
	<path id="path356" class="st3" d="M2173.3,1088.4v-50.8h-21.6v-22.1h-2.7v22.1h-78.6h-1.4h-14.9v-22.1h-2.7v22.1h-19.1v221.8h38.1
		v-95.6h102.9v-50.8h-102.9v-24.7H2173.3"/>
</g>
<path id="path358" class="st2" d="M1404.3,1862.2v379.6h-381.7v-445.2L1404.3,1862.2"/>
<path id="path360" class="st2" d="M928.1,2389.5h476.2v-320.3H928.1V2389.5z"/>
<path id="path362" class="st3" d="M1404.3,1983.8H928.1v-104.1h476.2V1983.8"/>
<path id="path364" class="st3" d="M1371.9,2190.6h-24.5v-34.5h24.5V2190.6"/>
<path id="path366" class="st3" d="M1326.1,2190.6h-24.5v-34.5h24.5V2190.6"/>
<path id="path368" class="st3" d="M1281.4,2190.6H1257v-34.5h24.5V2190.6"/>
<path id="path370" class="st3" d="M1239,2190.6h-24.5v-34.5h24.5V2190.6"/>
<path id="path372" class="st3" d="M1195.8,2190.6h-24.5v-34.5h24.5V2190.6"/>
<path id="path374" class="st3" d="M1152.1,2190.6h-24.5v-34.5h24.5V2190.6"/>
<path id="path376" class="st3" d="M1106.4,2190.6H1082v-34.5h24.5V2190.6"/>
<path id="path378" class="st3" d="M1061.7,2190.6h-24.5v-34.5h24.5V2190.6"/>
<path id="path380" class="st3" d="M1019.3,2190.6h-24.5v-34.5h24.5V2190.6"/>
<path id="path382" class="st3" d="M976.1,2156.1v34.5h-24.5v-34.5H976.1"/>
<path id="path384" class="st3" d="M1371.9,2251.4h-24.5v-34.5h24.5V2251.4"/>
<path id="path386" class="st3" d="M1326.1,2251.4h-24.5v-34.5h24.5V2251.4"/>
<path id="path388" class="st3" d="M1281.4,2251.4H1257v-34.5h24.5V2251.4"/>
<path id="path390" class="st3" d="M1239,2251.4h-24.5v-34.5h24.5V2251.4"/>
<path id="path392" class="st3" d="M1195.8,2251.4h-24.5v-34.5h24.5V2251.4"/>
<path id="path394" class="st3" d="M1152.1,2251.4h-24.5v-34.5h24.5V2251.4"/>
<path id="path396" class="st3" d="M1106.4,2251.4H1082v-34.5h24.5V2251.4"/>
<path id="path398" class="st3" d="M1061.7,2251.4h-24.5v-34.5h24.5V2251.4"/>
<path id="path400" class="st3" d="M1019.3,2251.4h-24.5v-34.5h24.5V2251.4"/>
<path id="path402" class="st3" d="M976.1,2251.4h-24.5v-34.5h24.5V2251.4"/>
<path id="path404" class="st3" d="M1371.9,2068h-24.5v-34.5h24.5V2068"/>
<path id="path406" class="st3" d="M1326.1,2068h-24.5v-34.5h24.5V2068"/>
<path id="path408" class="st3" d="M1281.4,2068H1257v-34.5h24.5V2068"/>
<path id="path410" class="st3" d="M1239,2068h-24.5v-34.5h24.5V2068"/>
<path id="path412" class="st3" d="M1195.8,2068h-24.5v-34.5h24.5V2068"/>
<path id="path414" class="st3" d="M1152.1,2068h-24.5v-34.5h24.5V2068"/>
<path id="path416" class="st3" d="M1106.4,2068H1082v-34.5h24.5V2068"/>
<path id="path418" class="st3" d="M1061.7,2068h-24.5v-34.5h24.5V2068"/>
<path id="path420" class="st3" d="M1371.9,2128.8h-24.5v-34.5h24.5V2128.8"/>
<path id="path422" class="st3" d="M1326.1,2128.8h-24.5v-34.5h24.5V2128.8"/>
<path id="path424" class="st3" d="M1281.4,2128.8H1257v-34.5h24.5V2128.8"/>
<path id="path426" class="st3" d="M1239,2128.8h-24.5v-34.5h24.5V2128.8"/>
<path id="path428" class="st3" d="M1195.8,2128.8h-24.5v-34.5h24.5V2128.8"/>
<path id="path430" class="st3" d="M1152.1,2128.8h-24.5v-34.5h24.5V2128.8"/>
<path id="path432" class="st3" d="M1106.4,2128.8H1082v-34.5h24.5V2128.8"/>
<path id="path434" class="st3" d="M1061.7,2128.8h-24.5v-34.5h24.5V2128.8"/>
<path id="path436" class="st3" d="M1019.3,2128.8h-24.5v-34.5h24.5V2128.8"/>
<path id="path438" class="st3" d="M976.1,2128.8h-24.5v-34.5h24.5V2128.8"/>
<path id="path440" class="st3" d="M1371.9,2311.3h-24.5v-34.5h24.5V2311.3"/>
<path id="path442" class="st3" d="M1326.1,2311.3h-24.5v-34.5h24.5V2311.3"/>
<path id="path444" class="st3" d="M1281.4,2311.3H1257v-34.5h24.5V2311.3"/>
<path id="path446" class="st3" d="M1239,2311.3h-24.5v-34.5h24.5V2311.3"/>
<path id="path448" class="st3" d="M1195.8,2311.3h-24.5v-34.5h24.5V2311.3"/>
<path id="path450" class="st3" d="M1152.1,2311.3h-24.5v-34.5h24.5V2311.3"/>
<path id="path452" class="st3" d="M1106.4,2311.3H1082v-34.5h24.5V2311.3"/>
<path id="path454" class="st3" d="M1061.7,2311.3h-24.5v-34.5h24.5V2311.3"/>
<path id="path456" class="st3" d="M1019.3,2311.3h-24.5v-34.5h24.5V2311.3"/>
<path id="path458" class="st3" d="M951.6,2311.3h24.5v-34.5h-24.5V2311.3z"/>
<path id="path460" class="st3" d="M1371.9,2364.6h-24.5v-34.5h24.5V2364.6"/>
<path id="path462" class="st3" d="M1326.1,2364.6h-24.5v-34.5h24.5V2364.6"/>
<path id="path464" class="st3" d="M1281.4,2364.6H1257v-34.5h24.5V2364.6"/>
<path id="path466" class="st3" d="M1239,2364.6h-24.5v-34.5h24.5V2364.6"/>
<path id="path468" class="st3" d="M1195.8,2364.6h-24.5v-34.5h24.5V2364.6"/>
<path id="path470" class="st3" d="M1152.1,2364.6h-24.5v-34.5h24.5V2364.6"/>
<path id="path472" class="st3" d="M1106.4,2364.6H1082v-34.5h24.5V2364.6"/>
<path id="path474" class="st3" d="M1061.7,2364.6h-24.5v-34.5h24.5V2364.6"/>
<path id="path476" class="st3" d="M1019.3,2364.6h-24.5v-34.5h24.5V2364.6"/>
<path id="path478" class="st3" d="M951.6,2364.6h24.5v-34.5h-24.5V2364.6z"/>
<path id="path480" class="st2" d="M1055.3,1725.1v90.3h-7.1v-90.3H1055.3"/>
<path id="path482" class="st2" d="M1368,1944.5h-20.5V1909h20.5V1944.5"/>
<path id="path484" class="st2" d="M1163.9,1944.5h-20.6V1909h20.6V1944.5"/>
<path id="path486" class="st2" d="M1001.6,1909v35.5h-20.6V1909H1001.6"/>
<g id="g488" transform="scale(1.2229)">
	<path id="path490" class="st3" d="M2173.3,1954h-560.4v-327.8h560.4V1954"/>
</g>
<g id="g492" transform="scale(1.18007)">
	<path id="path494" class="st3" d="M2052.2,1700.7h121.2V1595l-121.2,46.4V1700.7"/>
</g>
<path id="path496" class="st3" d="M1716.9,2389.5h-327.3v-356l327.3,113.3L1716.9,2389.5"/>
<path id="path498" class="st2" d="M1708.3,2169.6h-310v-11h310V2169.6"/>
<path id="path500" class="st2" d="M1708.3,2205h-310v-11h310V2205"/>
<path id="path502" class="st2" d="M1708.3,2240.3h-310v-11h310V2240.3"/>
<path id="path504" class="st2" d="M1708.3,2275.7h-310v-11h310V2275.7"/>
<path id="path506" class="st2" d="M1708.3,2311h-310v-11h310V2311"/>
<path id="path508" class="st2" d="M1708.3,2346.4h-310v-11h310V2346.4"/>
<g id="g510" transform="scale(1.19273)">
	<path id="path512" class="st3" d="M2173.3,1667.3h-23.1v-89.2h23.1V1667.3"/>
</g>
<path id="path514" class="st3" d="M1437.9,1364.4h-19v-160.9h19V1364.4"/>
<path id="path516" class="st3" d="M1475.6,1364.4h-19v-160.9h19V1364.4"/>
<path id="path518" class="st3" d="M1512.8,1364.4h-19v-160.9h19V1364.4"/>
<path id="path520" class="st3" d="M1551.3,1364.4h-19v-160.9h19V1364.4"/>
<path id="path522" class="st5" d="M917.3,2127l-50.8-4.8l-32.4,25.6l-12.4,47.7l15.3,32.6l-33.4-14l-77.7,87l-14.2,74l26.1,18.5
	h225.3l32.7-106.7l-1.1-87.1L917.3,2127"/>
<path id="path524" class="st6" d="M844,2254.7c-1.8,0-3.4-0.1-4.6-0.4c-6.3-1.5-35.8-40.2-35.8-40.2l33.4,14
	c0,0,27.1,18.9,27.6,21.8C865,2252.3,852.1,2254.7,844,2254.7"/>
<path id="path526" class="st6" d="M763.4,2367.5c-4.3,0-37.4-66.4-37.4-66.4l41.1,30.7c3.5,2.6,5.1,7,4.3,11.2
	C769.5,2352.1,766.1,2366.8,763.4,2367.5C763.4,2367.5,763.4,2367.5,763.4,2367.5"/>
<path id="path528" class="st6" d="M951.6,2371.7c-8.8,0-26.4-36.5-24.4-41.2c2.2-5.1,61-35.6,61-35.6s-26.9,70.4-34.8,76.2
	C952.8,2371.5,952.3,2371.7,951.6,2371.7"/>
<path id="path530" class="st5" d="M847.2,2132.4c0,0-42.1-11.1-46-9.2c-3.9,1.9-23.2,28.5-21.3,33.4
	C781.8,2161.4,847.2,2132.4,847.2,2132.4"/>
<path id="path532" class="st7" d="M850.1,2106.2l-2.9,26.1l17.9-16C865.1,2116.4,858.3,2103.3,850.1,2106.2"/>
<path id="path534" class="st7" d="M852.8,2134.3c0-0.4-0.6-5.8-1.6-5.6c-1,0.2-7.5,4.2-7.5,5s-1.2,6.2,1.3,5.9
	C847.6,2139.4,852.8,2134.3,852.8,2134.3"/>
<path id="path536" class="st6" d="M860.8,2177.8c-2.2,0-14.6-14.1-15.6-16c-1-1.9,5.3-24.7,5.3-24.7s12.1,39.9,10.4,40.6
	C860.9,2177.8,860.9,2177.8,860.8,2177.8"/>
<path id="path538" class="st6" d="M861.6,2158.5c-2,0-9.2-22.5-9.2-22.5s18.4,1.5,19.8,2.9C873.8,2140.3,863.6,2158.2,861.6,2158.5
	C861.7,2158.5,861.7,2158.5,861.6,2158.5"/>
<path id="path540" class="st6" d="M853.5,2134.8l6.2-3.2c0.2-0.1,0.3-0.1,0.5-0.1c0.1,0,0.3,0,0.4,0.1l2.6,1.1
	c0.6,0.2,0.4,1.1-0.2,1.1L853.5,2134.8"/>
<path id="path542" class="st6" d="M846.7,2144.5c-0.1,0-0.3,0-0.4-0.1l-1.2-0.9c-0.6-0.4-0.6-1.3-0.1-1.8l3.5-3.5l-1.1,5.9
	C847.3,2144.3,847,2144.5,846.7,2144.5"/>
<path id="path544" class="st7" d="M847.8,2132.4c-0.5-0.2-27.2-2.9-29.4-1.8c-2.2,1.1-12.2,10.3-8.2,10.9
	C814.2,2142,847.8,2132.4,847.8,2132.4"/>
<path id="path546" class="st6" d="M737.9,2393.7L737.9,2393.7c0,0,74.7-11.2,97.6-11.2c2.8,0,4.8,0.2,5.8,0.5
	c9.7,3.4,43.1,10.2,43.1,10.2s33.5-8.6,43.5-8.6c1.1,0,2,0.1,2.4,0.4c4.4,2.4,10.2,8.7,10.2,8.7L737.9,2393.7"/>
<g id="g548" transform="scale(1.57055)">
	<path id="path550" class="st8" d="M2111.6,1438.4v36.9c0,2.3,1.8,4.1,4.1,4.1h45c2.3,0,4.1-1.8,4.1-4.1v-36.9H2111.6z
		 M2160.7,1487.9h-45c-6.9,0-12.6-5.7-12.6-12.6v-45.4h70.2v45.4C2173.3,1482.3,2167.7,1487.9,2160.7,1487.9"/>
</g>
<g id="g552" transform="scale(1.2851)">
	<path id="path554" class="st9" d="M1194.9,1143.4l954.3-4.8c13.3-0.1,24.1,10.7,24.1,24v450.1L927.2,1683v-70.2l118.6-319.7
		L1194.9,1143.4"/>
</g>
<g id="g556" transform="scale(1.53722)">
	<path id="path558" class="st8" d="M2173.3,1459.3H829.2v-111h1344.1V1459.3"/>
</g>
<g id="g560" transform="scale(1.49581)">
	<path id="path562" class="st10" d="M2173.3,1499.7c0,53.8-43.6,97.4-97.4,97.4c-53.8,0-97.4-43.6-97.4-97.4
		c0-53.8,43.6-97.4,97.4-97.4C2129.7,1402.2,2173.3,1445.9,2173.3,1499.7"/>
</g>
<g id="g564" transform="scale(1.4703)">
	<path id="path566" class="st11" d="M2141.6,1534c0.7-2.6,1.1-5.4,1.1-8.3c0-3-0.4-5.8-1.2-8.6l21.3-13.1c2.9,6.7,4.4,14,4.4,21.7
		c0,7.6-1.5,14.9-4.3,21.4L2141.6,1534z M2120.3,1580.4v-25c4.7-1.3,9-3.8,12.5-7l21.3,13.1
		C2145.7,1571.4,2133.8,1578.3,2120.3,1580.4z M2098,1525.7c0-7.7,6.3-13.9,13.9-13.9c7.7,0,13.9,6.2,13.9,13.9
		c0,7.7-6.2,13.9-13.9,13.9C2104.2,1539.6,2098,1533.4,2098,1525.7z M2103.5,1580.4c-13.5-2-25.3-9-33.8-18.9l21.3-13.1
		c3.5,3.2,7.8,5.7,12.5,7V1580.4z M2060.9,1547.1c-2.8-6.6-4.3-13.8-4.3-21.4c0-7.7,1.6-15,4.4-21.7l21.3,13.1
		c-0.8,2.7-1.2,5.6-1.2,8.6c0,2.9,0.4,5.6,1.1,8.3L2060.9,1547.1z M2103.5,1471v25c-4.6,1.3-8.8,3.7-12.3,6.8l-21.3-13.1
		C2078.3,1479.9,2090.1,1473,2103.5,1471z M2120.3,1471c13.4,2,25.2,8.9,33.6,18.7l-21.3,13.1c-3.5-3.1-7.7-5.5-12.3-6.8V1471z
		 M2111.9,1464.3c-33.9,0-61.4,27.5-61.4,61.4s27.5,61.4,61.4,61.4s61.4-27.5,61.4-61.4S2145.8,1464.3,2111.9,1464.3"/>
</g>
<path id="path568" class="st10" d="M2010.9,2243.2c0,80.5-65.3,145.7-145.7,145.7c-80.5,0-145.7-65.3-145.7-145.7
	c0-80.5,65.2-145.7,145.7-145.7C1945.6,2097.5,2010.9,2162.7,2010.9,2243.2"/>
<path id="path570" class="st11" d="M1908.8,2255.4c1.1-3.9,1.7-8,1.7-12.2c0-4.4-0.6-8.6-1.8-12.6l31.3-19.3
	c4.2,9.8,6.5,20.6,6.5,31.9c0,11.2-2.3,21.8-6.3,31.5L1908.8,2255.4z M1877.5,2323.6v-36.8c6.9-2,13.2-5.5,18.4-10.3l31.3,19.3
	C1914.8,2310.4,1897.3,2320.6,1877.5,2323.6L1877.5,2323.6z M1844.7,2243.2c0-11.3,9.2-20.5,20.5-20.5c11.3,0,20.5,9.2,20.5,20.5
	c0,11.3-9.2,20.5-20.5,20.5S1844.7,2254.5,1844.7,2243.2z M1852.8,2323.6c-19.8-3-37.3-13.2-49.6-27.8l31.3-19.3
	c5.2,4.8,11.4,8.4,18.4,10.3L1852.8,2323.6z M1790.2,2274.7c-4.1-9.7-6.3-20.3-6.3-31.5c0-11.3,2.3-22.1,6.5-31.9l31.3,19.3
	c-1.2,4-1.8,8.2-1.8,12.6c0,4.2,0.6,8.3,1.7,12.2L1790.2,2274.7z M1852.8,2162.8v36.8c-6.8,1.9-13,5.4-18.1,10l-31.3-19.3
	C1815.8,2175.9,1833.1,2165.8,1852.8,2162.8L1852.8,2162.8z M1877.5,2162.8c19.7,3,37,13.1,49.4,27.5l-31.3,19.3
	c-5.1-4.6-11.3-8.1-18.1-10V2162.8z M1865.2,2152.9c-49.9,0-90.3,40.4-90.3,90.3c0,49.9,40.4,90.3,90.3,90.3
	c49.9,0,90.3-40.4,90.3-90.3C1955.5,2193.3,1915,2152.9,1865.2,2152.9"/>
<g id="g572" transform="scale(1.07192)">
	<path id="path574" class="st10" d="M2173.3,2092.5c0,75.1-60.9,136-136,136c-75.1,0-135.9-60.9-135.9-136
		c0-75.1,60.9-136,135.9-136C2112.5,1956.6,2173.3,2017.4,2173.3,2092.5"/>
</g>
<g id="g576" transform="scale(1.04641)">
	<path id="path578" class="st11" d="M2128.8,2155.2c1-3.7,1.6-7.6,1.6-11.6c0-4.2-0.6-8.2-1.7-12l29.9-18.5c4,9.4,6.2,19.7,6.2,30.5
		c0,10.7-2.2,20.9-6.1,30.1L2128.8,2155.2z M2098.9,2220.4v-35.2c6.6-1.9,12.6-5.3,17.6-9.9l29.9,18.5
		C2134.5,2207.8,2117.8,2217.5,2098.9,2220.4L2098.9,2220.4z M2067.5,2143.5c0-10.8,8.8-19.6,19.6-19.6c10.8,0,19.6,8.8,19.6,19.6
		c0,10.8-8.8,19.6-19.6,19.6C2076.2,2163.1,2067.5,2154.4,2067.5,2143.5z M2075.2,2220.4c-18.9-2.9-35.6-12.6-47.4-26.6l29.9-18.5
		c4.9,4.6,10.9,8,17.6,9.9V2220.4z M2015.4,2173.7c-3.9-9.3-6.1-19.4-6.1-30.1c0-10.8,2.2-21.1,6.2-30.5l29.9,18.5
		c-1.1,3.8-1.7,7.9-1.7,12c0,4,0.6,7.9,1.6,11.6L2015.4,2173.7z M2075.2,2066.7v35.2c-6.5,1.8-12.4,5.2-17.3,9.6L2028,2093
		C2039.9,2079.2,2056.4,2069.6,2075.2,2066.7L2075.2,2066.7z M2098.9,2066.7c18.8,2.9,35.3,12.5,47.2,26.3l-29.9,18.5
		c-4.9-4.4-10.8-7.7-17.3-9.6V2066.7z M2087,2057.2c-47.7,0-86.3,38.6-86.3,86.3c0,47.7,38.6,86.3,86.3,86.3
		c47.7,0,86.3-38.6,86.3-86.3C2173.3,2095.9,2134.7,2057.2,2087,2057.2"/>
</g>
<g id="g580" transform="scale(1.61677)">
	<path id="path582" class="st9" d="M2087.9,908.8h-230.4c-14.8,0-26.9,11.6-27.6,26.4l-15.3,334h-2.8c-26.4,0-47.8,21.4-47.8,47.8
		v114.1c0,6.7,5.5,12.2,12.2,12.2h33.2c6.7,0,12.2-5.5,12.2-12.2v-43.6c0-55.8,46.2-100.8,102.5-98.9c50.9,1.7,92.5,42.5,95.3,93.4
		c0.3,6.2,0.1,12.3-0.7,18.2h154.6v-292.9l-55.1-176.2C2114,917.8,2101.8,908.8,2087.9,908.8"/>
</g>
<g id="g584" transform="scale(1.57561)">
	<path id="path586" class="st12" d="M2044.8,1331.2c27.1,21.7,44.5,55.1,44.5,92.5c0,1.2,0,2.3-0.1,3.5h84.2v-96H2044.8"/>
</g>
<g id="g588" transform="scale(1.61698)">
	<path id="path590" class="st11" d="M2119.9,937.3h-61.2c-3.8,0-6.3,3.9-4.8,7.3l65,148.9c1.7,3.9,5.2,6.6,9.3,7.2l45,7.2
		L2119.9,937.3"/>
</g>
<g id="g592" transform="scale(1.55402)">
	<path id="path594" class="st11" d="M2162,1143.7h-147.6c-5.3,0-9.6-4.3-9.6-9.6V989.4c0-5.3,4.3-9.6,9.6-9.6h93c4,0,7.6,2.5,9,6.2
		l54.5,144.7C2173.3,1137,2168.7,1143.7,2162,1143.7"/>
</g>
<g id="g596" transform="scale(1.42061)">
	<path id="path598" class="st12" d="M2092.4,1251.7h76.1c2.7,0,4.8-2.2,4.8-4.8v-170.3c0-2.6-2.1-4.8-4.8-4.8h-68.1
		c-2.6,0-4.7,2-4.8,4.6l-8,170.2C2087.5,1249.4,2089.7,1251.7,2092.4,1251.7"/>
</g>
<g id="g600">
	<g>
		<defs>
			<path id="SVGID_1_" d="M3359.8,1777.3h-229.4c-8.2,0-14.9-6.7-14.9-14.9v-224.9c0-8.2,6.7-14.9,14.9-14.9H3275
				c6.2,0,11.8,3.8,13.9,9.6l84.8,224.9C3377.4,1766.9,3370.2,1777.3,3359.8,1777.3"/>
		</defs>
		<clipPath id="SVGID_00000111179504917819082090000005265270117595499705_">
			<use xlink:href="#SVGID_1_"  style="overflow:visible;"/>
		</clipPath>
		<g id="g602" style="clip-path:url(#SVGID_00000111179504917819082090000005265270117595499705_);">
			<g id="g608" transform="scale(1.54425)">
				<path id="path610" class="st2" d="M1919.9,1317.7h-57.6l253.5-446.6h57.6L1919.9,1317.7"/>
			</g>
			<g id="g612" transform="scale(1.55282)">
				<path id="path614" class="st2" d="M1944.8,1318.6h-15.1l252.1-444.1h15.1L1944.8,1318.6"/>
			</g>
			<g id="g616" transform="scale(1.55282)">
				<path id="path618" class="st2" d="M2046.2,1302.3h-28.6l252.1-444.1h28.6L2046.2,1302.3"/>
			</g>
		</g>
	</g>
</g>
<g id="g620" transform="scale(1.55636)">
	<path id="path622" class="st14" d="M2011.4,982.6c-2.9,0-5.3,2.4-5.3,5.3v144.5c0,2.9,2.4,5.3,5.3,5.3h147.4c1.8,0,3.3-0.8,4.3-2.3
		c1-1.4,1.2-3.2,0.6-4.9l-54.5-144.5c-0.8-2-2.8-3.4-4.9-3.4L2011.4,982.6z M2158.8,1146.3h-147.4c-7.6,0-13.9-6.2-13.9-13.9V987.9
		c0-7.6,6.2-13.9,13.9-13.9h92.9c5.7,0,10.9,3.6,13,9l54.5,144.5c1.6,4.2,1,9-1.6,12.8C2167.6,1144,2163.3,1146.3,2158.8,1146.3"/>
</g>
<g id="g624">
	<g>
		<defs>
			<path id="SVGID_00000101788766523835691600000006174068114681440945_" d="M3427.8,1515.6h-98.9c-6.1,0-10.2,6.2-7.7,11.8
				l105.1,240.8c2.7,6.2,8.4,10.6,15.1,11.7l72.8,11.6L3427.8,1515.6"/>
		</defs>
		<clipPath id="SVGID_00000021820433851096645560000001816224816404903101_">
			<use xlink:href="#SVGID_00000101788766523835691600000006174068114681440945_"  style="overflow:visible;"/>
		</clipPath>
		<g id="g626" style="clip-path:url(#SVGID_00000021820433851096645560000001816224816404903101_);">
			<g id="g632" transform="scale(1.61699)">
				<path id="path634" class="st2" d="M1962.6,1227.5h-55L2149.7,801h55L1962.6,1227.5"/>
			</g>
			<g id="g636" transform="scale(1.61699)">
				<path id="path638" class="st2" d="M1996.7,1235.3h-14.5l242.1-426.5h14.5L1996.7,1235.3"/>
			</g>
			<g id="g640" transform="scale(1.61699)">
				<path id="path642" class="st2" d="M2094.1,1219.7h-27.5l242.1-426.5h27.5L2094.1,1219.7"/>
			</g>
		</g>
	</g>
</g>
<g id="g644" transform="scale(1.62022)">
	<path id="path646" class="st14" d="M2054.6,939.6c-0.5,0-0.8,0.3-0.9,0.5c-0.1,0.2-0.3,0.6-0.1,1l64.9,148.6
		c1.1,2.6,3.4,4.4,6.2,4.8l38.4,6.1l-50.4-161.1L2054.6,939.6z M2169,1109.9c-0.2,0-0.4,0-0.6-0.1l-44.9-7.2
		c-5.5-0.9-10.2-4.5-12.4-9.6L2046,944.4c-1.3-2.9-1-6.2,0.7-8.8c1.7-2.6,4.6-4.2,7.8-4.2h61.1c1.8,0,3.4,1.2,3.9,2.9l53.3,170.3
		c0.4,1.4,0.1,2.8-0.8,3.9C2171.3,1109.3,2170.2,1109.9,2169,1109.9"/>
</g>
<g id="g648" transform="scale(1.61677)">
	<path id="path650" class="st16" d="M2157.4,1258.5h15.9v-118.8h-15.9V1258.5"/>
</g>
<g id="g652" transform="scale(1.62597)">
	<path id="path654" class="st9" d="M2165.1,1414h-41.8c-4.5,0-8.2-3.7-8.2-8.2v-110.2c0-4.5,3.7-8.2,8.2-8.2h41.8
		c4.5,0,8.2,3.7,8.2,8.2v110.2C2173.3,1410.3,2169.7,1414,2165.1,1414"/>
</g>
<g id="g656" transform="scale(1.62597)">
	<path id="path658" class="st12" d="M2115.1,1405.8c0,4.5,3.7,8.2,8.2,8.2h41.8c4.5,0,8.2-3.7,8.2-8.2H2115.1"/>
</g>
<g id="g660" transform="scale(1.56115)">
	<path id="path662" class="st12" d="M2169.9,1334.6L2169.9,1334.6c-1.9,0-3.4-1.5-3.4-3.4v-185.6c0-1.9,1.5-3.4,3.4-3.4
		c1.9,0,3.4,1.5,3.4,3.4v185.6C2173.3,1333.1,2171.8,1334.6,2169.9,1334.6"/>
</g>
<g id="g664" transform="scale(1.43599)">
	<path id="path666" class="st12" d="M2169.6,1364L2169.6,1364c-2,0-3.7-1.7-3.7-3.7v-108.9c0-2.1,1.7-3.7,3.7-3.7
		c2.1,0,3.7,1.7,3.7,3.7v108.9C2173.3,1362.3,2171.7,1364,2169.6,1364"/>
</g>
<g id="g668" transform="scale(1.46618)">
	<path id="path670" class="st10" d="M2173.3,1370.2h-48.4v-18.8h48.4V1370.2"/>
</g>
<g id="g672" transform="scale(1.53149)">
	<path id="path674" class="st9" d="M2173.3,959.4h-207.5v-7.5c0-4.8,3.9-8.7,8.7-8.7h160.6c9.4,0,18.5,2.8,26.2,8.1L2173.3,959.4"/>
</g>
<g id="g676" transform="scale(1.53149)">
	<path id="path678" class="st12" d="M2161.4,951.3l-195.5,0.6v7.5h207.5L2161.4,951.3"/>
</g>
<path id="path680" class="st9" d="M1573.6,2201.4h-444.1c-9.8,0-17.7-7.9-17.7-17.7v-21.1c0-4.2,1.5-8.3,4.2-11.5l599.9-702.6
	c2.2-2.6,5.5-4.1,8.9-4.1h43.9c7.6,0,13.3,7.2,11.4,14.6l-181.5,722.7C1595.8,2193.3,1585.5,2201.4,1573.6,2201.4"/>
<path id="path682" class="st9" d="M1090.2,2345.3h448.4c11,0,20-9,20-20v-78.4c0-11-9-20-20-20h-448.4c-11,0-20,9-20,20v78.4
	C1070.2,2336.4,1079.2,2345.3,1090.2,2345.3"/>
<path id="path684" class="st12" d="M1070.2,2325.3c0,11,9,20,20,20h448.4c11,0,20-9,20-20H1070.2"/>
<path id="path686" class="st9" d="M1471.7,2147.9c-11.6-7.8-27.2-4.7-35,6.9c-5.8,8.6-5.5,19.5-0.2,27.7l-42.9,64.1
	c-9.6-1.8-19.8,2.1-25.5,10.8c-7.7,11.6-4.7,27.2,6.9,35c11.6,7.8,27.2,4.7,35-6.9c5.8-8.6,5.5-19.5,0.2-27.7l42.9-64.1
	c9.6,1.8,19.8-2.1,25.5-10.8C1486.4,2171.3,1483.3,2155.6,1471.7,2147.9"/>
<path id="path688" class="st12" d="M1452.2,2141c-7.4,1.5-13.9,5.7-18.1,12c-5.9,8.8-6.4,20.1-1.3,29.4l-40.7,60.8
	c-2.9-0.3-5.7-0.2-8.6,0.4c-7.4,1.5-13.9,5.7-18.1,12c-8.7,13-5.2,30.7,7.8,39.4c6.3,4.2,13.9,5.7,21.3,4.3
	c7.4-1.5,13.9-5.7,18.1-12c5.9-8.8,6.4-20.1,1.3-29.4l40.7-60.8c2.9,0.3,5.7,0.2,8.6-0.4c7.4-1.5,13.9-5.7,18.1-12
	c8.7-13,5.2-30.7-7.8-39.4C1467.2,2141,1459.6,2139.5,1452.2,2141z M1452.8,2144.1c6.3-1.2,13.1-0.1,18.9,3.8
	c11.6,7.7,14.7,23.4,6.9,35c-3.9,5.8-9.7,9.4-16.1,10.7c-3.1,0.6-6.3,0.6-9.5,0.1l-42.9,64.1c5.3,8.2,5.5,19.1-0.2,27.7
	c-3.9,5.8-9.7,9.5-16.1,10.7c-6.3,1.3-13.1,0.1-18.9-3.8c-11.6-7.7-14.7-23.4-6.9-35c3.9-5.8,9.7-9.5,16.1-10.7
	c3.1-0.6,6.3-0.6,9.5-0.1l42.9-64.1c-5.3-8.2-5.5-19.1,0.2-27.7C1440.6,2149,1446.5,2145.3,1452.8,2144.1"/>
<path id="path690" class="st12" d="M1467.5,2175.4c-3.6,5.4-11,6.9-16.4,3.2c-5.4-3.6-6.9-11-3.2-16.4c3.6-5.4,11-6.9,16.4-3.2
	C1469.7,2162.6,1471.2,2170,1467.5,2175.4"/>
<path id="path692" class="st12" d="M1398.8,2277.9c-3.6,5.4-11,6.9-16.4,3.2c-5.4-3.6-6.9-11-3.2-16.4c3.6-5.4,11-6.9,16.4-3.2
	C1401,2265.2,1402.4,2272.5,1398.8,2277.9"/>
<path id="path694" class="st12" d="M1410.2,2257.7l42.9-64.1c-3.3-0.6-6.5-1.9-9.4-3.9l-40.7,60.7
	C1406,2252.4,1408.4,2254.9,1410.2,2257.7"/>
<path id="path696" class="st9" d="M1318.8,2147.9c-11.6-7.8-27.2-4.7-35,6.9c-5.8,8.6-5.5,19.5-0.2,27.7l-42.9,64.1
	c-9.6-1.8-19.8,2.1-25.5,10.8c-7.8,11.6-4.7,27.2,6.9,35c11.6,7.8,27.2,4.7,35-6.9c5.8-8.6,5.5-19.5,0.2-27.7l42.9-64.1
	c9.6,1.8,19.8-2.1,25.5-10.8C1333.5,2171.3,1330.4,2155.6,1318.8,2147.9"/>
<path id="path698" class="st12" d="M1299.3,2141c-7.4,1.5-13.9,5.7-18.1,12c-5.9,8.8-6.4,20.1-1.3,29.4l-40.7,60.8
	c-2.9-0.3-5.7-0.2-8.6,0.4c-7.4,1.5-13.8,5.7-18.1,12c-8.7,13-5.2,30.7,7.8,39.4c6.3,4.2,13.9,5.7,21.3,4.3
	c7.4-1.5,13.9-5.7,18.1-12c5.9-8.8,6.4-20.1,1.3-29.4l40.7-60.8c2.9,0.3,5.7,0.2,8.6-0.4c7.4-1.5,13.8-5.7,18.1-12
	c8.7-13,5.2-30.7-7.8-39.4C1314.3,2141,1306.7,2139.5,1299.3,2141z M1299.9,2144.1c6.3-1.2,13.1-0.1,18.9,3.8
	c11.6,7.7,14.7,23.4,6.9,35c-3.9,5.8-9.7,9.4-16.1,10.7c-3.1,0.6-6.3,0.6-9.5,0.1l-42.9,64.1c5.3,8.2,5.5,19.1-0.2,27.7
	c-3.9,5.8-9.7,9.5-16.1,10.7c-6.3,1.3-13.1,0.1-18.9-3.8c-11.6-7.7-14.7-23.4-6.9-35c3.9-5.8,9.7-9.5,16.1-10.7
	c3.1-0.6,6.3-0.6,9.5-0.1l42.9-64.1c-5.3-8.2-5.5-19.1,0.2-27.7C1287.7,2149,1293.6,2145.3,1299.9,2144.1"/>
<path id="path700" class="st12" d="M1314.6,2175.4c-3.6,5.4-11,6.9-16.4,3.2c-5.4-3.6-6.9-11-3.2-16.4c3.6-5.4,11-6.9,16.4-3.2
	C1316.8,2162.6,1318.3,2170,1314.6,2175.4"/>
<path id="path702" class="st12" d="M1245.9,2277.9c-3.6,5.4-11,6.9-16.4,3.2c-5.4-3.6-6.9-11-3.2-16.4c3.6-5.4,11-6.9,16.4-3.2
	C1248.1,2265.2,1249.5,2272.5,1245.9,2277.9"/>
<path id="path704" class="st12" d="M1257.3,2257.7l42.9-64.1c-3.3-0.6-6.5-1.9-9.4-3.9l-40.6,60.7
	C1253.1,2252.4,1255.5,2254.9,1257.3,2257.7"/>
<path id="path706" class="st12" d="M1723.6,1483.2h35.5c3.2,0,5.5,3,4.6,6.1l-143.7,532c-3.4,12.5-14.7,21.2-27.7,21.2l-318.5,0.7
	c-9.3,0-14.3-10.8-8.4-17.9l454.3-540.3C1720.8,1483.9,1722.2,1483.2,1723.6,1483.2"/>
<path id="path708" class="st12" d="M1626.1,2072.5l151.7-604.3h11.5L1640,2072.5H1626.1"/>
<g id="g710" transform="scale(1.16196)">
	<path id="path712" class="st12" d="M2164.5,1254.6h-9.9c-4.9,0-8.8,3.9-8.8,8.8v520.3h27.5v-520.3
		C2173.3,1258.5,2169.4,1254.6,2164.5,1254.6"/>
</g>
<g id="g714" transform="scale(1.03926)">
	<path id="path716" class="st12" d="M2163.5,1402.7h-11.1c-5.4,0-9.8,4.4-9.8,9.8v581.7h30.8v-581.7
		C2173.3,1407.1,2168.9,1402.7,2163.5,1402.7"/>
</g>
<path id="path718" class="st12" d="M1968.4,1457.8h-11.5c-5.7,0-10.2,4.6-10.2,10.2v604.5h32V1468
	C1978.7,1462.4,1974.1,1457.8,1968.4,1457.8"/>
<g id="g720" transform="scale(1.15583)">
	<path id="path722" class="st9" d="M2164.5,1261.2h-10c-4.9,0-8.8,4-8.8,8.8v523h27.7v-523
		C2173.3,1265.2,2169.4,1261.2,2164.5,1261.2"/>
</g>
<g id="g724" transform="scale(1.03313)">
	<path id="path726" class="st9" d="M2163.4,1411h-11.2c-5.5,0-9.9,4.4-9.9,9.9v585.1h31v-585.1
		C2173.3,1415.5,2168.9,1411,2163.4,1411"/>
</g>
<path id="path728" class="st9" d="M1955.1,1457.8h-11.5c-5.7,0-10.2,4.6-10.2,10.2v604.5h32V1468
	C1965.3,1462.4,1960.8,1457.8,1955.1,1457.8"/>
<g id="g730" transform="scale(1.09734)">
	<path id="path732" class="st9" d="M2138.1,1844.5h-580c-19.5,0-35.2,15.8-35.2,35.2v211.6c0,18,13.6,32.9,31,35l0-82
		c0-80.5,65.3-145.8,145.8-145.8c51.9,0,97.5,27.2,123.3,68h43.7c25.8-41,71.5-68.2,123.5-68.2c80.5,0,145.8,65.3,145.8,145.8
		l0,82.5h2.1c19.5,0,35.2-15.8,35.2-35.2v-211.6C2173.3,1860.2,2157.5,1844.5,2138.1,1844.5"/>
</g>
<g id="g734" transform="scale(1.09734)">
	<path id="path736" class="st12" d="M2136,2083l0,43.5h2.1c19.5,0,35.2-15.8,35.2-35.2v-8.3H2136"/>
</g>
<path id="path738" class="st12" d="M1671.1,2285.8v9.1c0,19.8,14.9,36.1,34.1,38.4v-47.4H1671.1"/>
<g id="g740" transform="scale(1.10961)">
	<path id="path742" class="st12" d="M2149.3,1858.9v8.9h24v-8.9c0-19.3-15.6-34.8-34.9-34.8h-24
		C2133.7,1824.1,2149.3,1839.7,2149.3,1858.9"/>
</g>
<path id="path744" class="st12" d="M1565.3,1624.9V1468c0-5.6-4.6-10.2-10.2-10.2h-11.5c-5.7,0-10.2,4.6-10.2,10.2v194.4
	L1565.3,1624.9"/>
<path id="path746" class="st9" d="M1552,1640.5V1468c0-5.6-4.6-10.2-10.2-10.2h-11.5c-5.7,0-10.2,4.6-10.2,10.2v210L1552,1640.5"/>
<g id="g748" transform="scale(1.46012)">
	<path id="path750" class="st16" d="M2173.3,989.3h-53.9v-29.8c0-9.5,7.7-17.1,17.1-17.1h19.6c9.5,0,17.1,7.7,17.1,17.1V989.3"/>
</g>
<g id="g752" transform="scale(1.45978)">
	<path id="path754" class="st17" d="M2134.3,972.6c0-9.5,7.7-17.1,17.1-17.1h19.6c0.8,0,1.5,0.1,2.3,0.2
		c-1.8-7.5-8.6-13.1-16.6-13.1h-19.6c-9.5,0-17.1,7.7-17.1,17.1v29.8h14.3V972.6"/>
</g>
<path id="path756" class="st5" d="M1185.6,2097.5h-23.7l16.5-19l23.6,0L1185.6,2097.5"/>
<path id="path758" class="st16" d="M1202,2078.4l-23.6,0l16.4-18.9l23.5-0.1L1202,2078.4"/>
<path id="path760" class="st5" d="M1218.4,2059.5l-23.5,0.1l16.3-18.7l23.5-0.1L1218.4,2059.5"/>
<path id="path762" class="st16" d="M1234.6,2040.7l-23.5,0.1l16.1-18.6l23.4-0.1L1234.6,2040.7"/>
<path id="path764" class="st5" d="M1250.6,2022.1l-23.4,0.1l16-18.4l23.3-0.1L1250.6,2022.1"/>
<path id="path766" class="st16" d="M1266.6,2003.7l-23.3,0.1l15.9-18.3l23.3-0.2L1266.6,2003.7"/>
<path id="path768" class="st5" d="M1282.4,1985.3l-23.3,0.2l15.8-18.2l23.2-0.2L1282.4,1985.3"/>
<path id="path770" class="st16" d="M1298.1,1967.1l-23.2,0.2l15.7-18l23.1-0.2L1298.1,1967.1"/>
<path id="path772" class="st5" d="M1313.7,1949.1l-23.1,0.2l15.5-17.9l23.1-0.2L1313.7,1949.1"/>
<path id="path774" class="st16" d="M1329.2,1931.2l-23.1,0.2l15.4-17.7l23-0.3L1329.2,1931.2"/>
<path id="path776" class="st5" d="M1344.6,1913.4l-23,0.3l15.3-17.6l22.9-0.3L1344.6,1913.4"/>
<path id="path778" class="st16" d="M1359.8,1895.7l-22.9,0.3l15.2-17.5l22.9-0.3L1359.8,1895.7"/>
<path id="path780" class="st5" d="M1374.9,1878.2l-22.9,0.3l15.1-17.4l22.8-0.3L1374.9,1878.2"/>
<path id="path782" class="st16" d="M1389.9,1860.8l-22.8,0.3l15-17.2l22.7-0.3L1389.9,1860.8"/>
<path id="path784" class="st5" d="M1404.8,1843.6l-22.7,0.3l14.9-17.1l22.7-0.4L1404.8,1843.6"/>
<path id="path786" class="st16" d="M1419.6,1826.5l-22.7,0.4l14.7-17l22.6-0.4L1419.6,1826.5"/>
<g id="g788" transform="scale(1.27158)">
	<path id="path790" class="st12" d="M2167,1525h-191.5v-12.6H2167c3.5,0,6.3,2.8,6.3,6.3C2173.3,1522.2,2170.5,1525,2167,1525"/>
</g>
<g id="g792" transform="scale(1.14888)">
	<path id="path794" class="st12" d="M2166.4,1687.9h-212V1674h212c3.8,0,7,3.1,7,7C2173.3,1684.8,2170.2,1687.9,2166.4,1687.9"/>
</g>
<g id="g796" transform="scale(1.02004)">
	<path id="path798" class="st12" d="M2165.5,1901.1h-238.8v-15.7h238.8c4.3,0,7.8,3.5,7.8,7.8
		C2173.3,1897.6,2169.8,1901.1,2165.5,1901.1"/>
</g>
<path id="path800" class="st12" d="M1942.2,1939.2h-276.9l4-16h272.9c4.4,0,8,3.6,8,8C1950.2,1935.6,1946.6,1939.2,1942.2,1939.2"/>
<g id="g802" transform="scale(1.27158)">
	<path id="path804" class="st12" d="M2167,1420.2h-191.5v-12.6H2167c3.5,0,6.3,2.8,6.3,6.3C2173.3,1417.4,2170.5,1420.2,2167,1420.2
		"/>
</g>
<g id="g806" transform="scale(1.14888)">
	<path id="path808" class="st12" d="M2166.4,1571.8h-212v-13.9h212c3.8,0,7,3.1,7,7C2173.3,1568.7,2170.2,1571.8,2166.4,1571.8"/>
</g>
<g id="g810" transform="scale(1.02004)">
	<path id="path812" class="st12" d="M2165.5,1770.4h-238.8v-15.7h238.8c4.3,0,7.8,3.5,7.8,7.8
		C2173.3,1766.9,2169.8,1770.4,2165.5,1770.4"/>
</g>
<path id="path814" class="st12" d="M1942.2,1805.9H1696l4-16h242.2c4.4,0,8,3.6,8,8C1950.2,1802.3,1946.6,1805.9,1942.2,1805.9"/>
<g id="g816" transform="scale(1.27158)">
	<path id="path818" class="st12" d="M2167,1315.3h-191.5v-12.6H2167c3.5,0,6.3,2.8,6.3,6.3C2173.3,1312.5,2170.5,1315.3,2167,1315.3
		"/>
</g>
<g id="g820" transform="scale(1.14888)">
	<path id="path822" class="st12" d="M2166.4,1455.8h-212v-13.9h212c3.8,0,7,3.1,7,7C2173.3,1452.7,2170.2,1455.8,2166.4,1455.8"/>
</g>
<g id="g824" transform="scale(1.02004)">
	<path id="path826" class="st12" d="M2165.5,1639.7h-238.8V1624h238.8c4.3,0,7.8,3.5,7.8,7.8
		C2173.3,1636.2,2169.8,1639.7,2165.5,1639.7"/>
</g>
<path id="path828" class="st12" d="M1942.2,1672.5H1728l4-16h210.2c4.4,0,8,3.6,8,8C1950.2,1669,1946.6,1672.5,1942.2,1672.5"/>
<g id="g830" transform="scale(1.27158)">
	<path id="path832" class="st12" d="M2167,1210.5h-191.5v-12.6H2167c3.5,0,6.3,2.8,6.3,6.3C2173.3,1207.7,2170.5,1210.5,2167,1210.5
		"/>
</g>
<g id="g834" transform="scale(1.14888)">
	<path id="path836" class="st12" d="M2166.4,1339.7h-212v-13.9h212c3.8,0,7,3.1,7,7C2173.3,1336.6,2170.2,1339.7,2166.4,1339.7"/>
</g>
<g id="g838" transform="scale(1.02004)">
	<path id="path840" class="st12" d="M2165.5,1509h-238.8v-15.7h238.8c4.3,0,7.8,3.5,7.8,7.8C2173.3,1505.5,2169.8,1509,2165.5,1509"
		/>
</g>
<path id="path842" class="st12" d="M1942.2,1539.2h-178.9l4-16h174.9c4.4,0,8,3.6,8,8C1950.2,1535.6,1946.6,1539.2,1942.2,1539.2"/>
<g id="g844" transform="scale(1.58364)">
	<path id="path846" class="st5" d="M2167.4,1191.1h-7c-3.3,0-5.9-2.6-5.9-5.9v-15.7c0-3.3,2.6-5.9,5.9-5.9h7c3.3,0,5.9,2.6,5.9,5.9
		v15.7C2173.3,1188.4,2170.7,1191.1,2167.4,1191.1"/>
</g>
<g id="g848" transform="scale(1.29755)">
	<path id="path850" class="st9" d="M2152.3,1761.6h-252.8c-11.6,0-21.1-9.4-21.1-21.1v-74.8c0-11.6,9.4-21.1,21.1-21.1h252.8
		c11.6,0,21.1,9.4,21.1,21.1v74.8C2173.3,1752.2,2163.9,1761.6,2152.3,1761.6"/>
</g>
<g id="g852" transform="scale(1.29755)">
	<path id="path854" class="st12" d="M1878.4,1740.5L1878.4,1740.5c0,11.7,9.4,21.1,21.1,21.1h252.8c11.6,0,21.1-9.4,21.1-21.1v-0.1
		H1878.4"/>
</g>
<g id="g856" transform="scale(1.16677)">
	<path id="path858" class="st12" d="M2173.3,1935.5h-14.5v-106.8c0-1.9,1.5-3.4,3.4-3.4h7.6c1.9,0,3.4,1.5,3.4,3.4V1935.5"/>
</g>
<g id="g860" transform="scale(1.26493)">
	<path id="path862" class="st12" d="M2173.3,1785.3H2160v-98.5c0-1.7,1.4-3.2,3.2-3.2h7c1.7,0,3.2,1.4,3.2,3.2L2173.3,1785.3"/>
</g>
<g id="g864" transform="scale(1.16431)">
	<path id="path866" class="st9" d="M2173.3,1939.6h-14.5v-107c0-1.9,1.5-3.4,3.4-3.4h7.6c1.9,0,3.4,1.5,3.4,3.4V1939.6"/>
</g>
<g id="g868" transform="scale(1.26247)">
	<path id="path870" class="st9" d="M2173.3,1788.8H2160v-98.7c0-1.7,1.4-3.2,3.2-3.2h7c1.8,0,3.2,1.4,3.2,3.2V1788.8"/>
</g>
<g id="g872" transform="scale(1.15131)">
	<path id="path874" class="st12" d="M2157.9,1899.8h-7.6c-8.5,0-15.4,7.4-15.4,16.6c0,9.2,6.9,16.6,15.4,16.6h7.6
		c8.5,0,15.5-7.4,15.5-16.6C2173.3,1907.3,2166.4,1899.8,2157.9,1899.8"/>
</g>
<g id="g876" transform="scale(1.1442)">
	<path id="path878" class="st9" d="M2173.3,1928.4c0,8.2-5.1,14.9-11.5,14.9c-6.3,0-11.5-6.7-11.5-14.9c0-8.2,5.1-14.9,11.5-14.9
		C2168.2,1913.5,2173.3,1920.1,2173.3,1928.4"/>
</g>
<g id="g880" transform="scale(1.35521)">
	<path id="path882" class="st12" d="M2158.8,1721.9H2119c-8.1,0-14.6-6.5-14.6-14.6h68.9C2173.3,1715.3,2166.8,1721.9,2158.8,1721.9
		"/>
</g>
<path id="path884" class="st18" d="M795.1,1736.3c0,0,35.1,102.6,51.2,122.1c16.1,19.5,72.7,48.3,73.2,50.8
	c1.2,6.1-3.5,15.7-8.8,15.7c-18.8,0.1-56.9-14.2-74.6-31.1c-18.7-17.9-48.3-120.3-48.3-120.3L795.1,1736.3"/>
<path id="path886" class="st19" d="M1115.6,2305.3h-10.4c-14,0-25.3,18.7-25.3,41.8c0,23.1,11.3,41.8,25.3,41.8h10.4
	c14,0,25.3-18.7,25.3-41.8C1140.9,2324.1,1129.5,2305.3,1115.6,2305.3"/>
<path id="path888" class="st20" d="M1086,2362.8H945.8c-14.6,0-26.6-11.4-27.4-25.9l-25.2-417.8h245.5l-25.2,417.8
	C1112.6,2351.5,1100.6,2362.8,1086,2362.8"/>
<path id="path890" class="st21" d="M1126,2362.8H985.8c-14.6,0-27.4-2.2-27.4-25.9l-25.2-417.8h245.5l-25.2,417.8
	C1153.4,2362.8,1140.6,2362.8,1126,2362.8"/>
<path id="path892" class="st19" d="M1128.5,1887.7h-231c-8.9,0-16.2,7.2-16.2,16.2v15.2h263.3v-15.2
	C1144.7,1894.9,1137.4,1887.7,1128.5,1887.7"/>
<path id="path894" class="st22" d="M1176.5,1887.7h-231c-8.9,0-16.2,7.2-16.2,16.2v15.2h263.3v-15.2
	C1192.7,1894.9,1185.4,1887.7,1176.5,1887.7"/>
<path id="path896" class="st22" d="M928.9,2305.3h-10.4c-14,0-25.3,18.7-25.3,41.8c0,23.1,11.3,41.8,25.3,41.8h10.4
	c14,0,25.3-18.7,25.3-41.8C954.2,2324.1,942.9,2305.3,928.9,2305.3"/>
<path id="path898" class="st19" d="M937,2347.1c0,16.9-8.3,30.7-18.6,30.7c-10.3,0-18.6-13.7-18.6-30.7c0-16.9,8.3-30.7,18.6-30.7
	C928.7,2316.5,937,2330.2,937,2347.1"/>
<path id="path900" class="st19" d="M746.7,2354.5c0,0-4.1,33.6,2.5,35.1c2.6,0.6,78.4-0.2,78.4-0.2s0-9.1-12.4-11.1
	c-12.4-2-34.3-9.4-38-25.9C773.5,2336.1,746.7,2354.5,746.7,2354.5"/>
<path id="path902" class="st22" d="M821.8,2179.6c0,28.6-33.1,179.8-33.1,179.8s-33.4,6-47.8-8.3c0,0,3.1-140.2,8.1-170.1
	c1-6-0.6-15-3.7-25.8c-12.4-42.7-48.3-115.1-40.1-158c10.3-53.8,83.4,4.2,83.4,4.2s3.2,14.4,7.6,35.2
	C806.1,2082.7,821.8,2159.9,821.8,2179.6"/>
<path id="path904" class="st19" d="M796.3,2036.6l-51,118.6c-12.4-42.7-48.3-115.1-40.1-158c10.3-53.8,83.4,4.2,83.4,4.2
	S791.9,2015.8,796.3,2036.6"/>
<path id="path906" class="st19" d="M561.2,2324.5c0,0-13.8,12.8-11.1,21.8c2.7,9.1,15.1,15.1,16.8,26.2c1.7,11.1,8.4,17.1,14.4,17.1
	c6,0,28.8,0,28.8,0s4.5-7.8-6.3-10.1c-10.8-2.4-14.8-15.4-14.1-27.5c0.7-12.1-1-28.2-1-28.2l-22.8-5.4L561.2,2324.5"/>
<path id="path908" class="st22" d="M790,1969.2c0,0-86.7,167.2-135.1,253.9c-48.4,86.7-63.5,110.9-63.5,110.9s-27.7-11.1-30.2-18.7
	c0,0,24.9-143.4,65.1-194.1c18.3-23.1,17.5-88.1,22.9-124.5c3.6-24,19.9-66.3,19.9-66.3L790,1969.2"/>
<path id="path910" class="st23" d="M824.3,1722.1c9,10.8,12.3,21.8,12.3,21.8c-30.1-2.1-67.4-43.1-67.4-43.1s21.8-6,37.2-30.1
	c0.8-1.2,1.5-2.5,2.3-3.8c2.3-4.1,4.5-8.8,6.3-13.9l8.9,15.6l14.8,26c0,0-3.1,7.7-10.3,20.3C827.2,1717.3,825.8,1719.6,824.3,1722.1
	"/>
<path id="path912" class="st24" d="M845.7,1787.3c-0.9,14.6-5.3,36.8-11.3,61.3c-2.3,9.5-4.9,19.4-7.6,29.3
	c-4.4,16.1-8.9,32.4-13.6,47.7l-0.2,0.5c-0.3,1.6-0.9,3.2-1.3,4.7c-4.1,13.5-8,26-11.3,36.6c-6.5,20.3-6.5,31.6-11.7,33.9
	c-10.4,4.6-51.4-0.3-76-11c-20.8-8.8-52.4-35.5-52.2-48.9c0.2-15.6,21.1-62.4,34.9-117.1c17.1-66.8,54.9-120.1,86.5-131.1
	c2.4-0.8,4.9,4.2,14,13c8.5,8.1,19.1,13.2,29.2,14.3l6,10C839.2,1744.9,847.3,1763.5,845.7,1787.3"/>
<path id="path914" class="st25" d="M834.4,1848.6c-2.3,9.5-4.9,19.4-7.6,29.3c-4.4,16.1-8.9,32.4-13.6,47.7l-0.2,0.5
	c-0.3,1.6-0.9,3.2-1.3,4.7c-4.1,13.5-8,26-11.3,36.6c-65.7-83.4-45.7-195.5-45.7-195.5L834.4,1848.6"/>
<path id="path916" class="st18" d="M838.7,1694.7c0,0-3.1,7.7-10.3,20.3c-18.4-13.6-21.6-35.3-22.1-44.3c-0.1-2.5-0.1-4-0.1-4
	s0.9,0.1,2.3,0.3c3.1,0.3,9,1,15.2,1.7L838.7,1694.7"/>
<path id="path918" class="st23" d="M847.1,1697.3c0,0-47.1-10-40.4-39.3c6.7-29.2,5.1-50.2,35.5-45.1s33.6,17.7,33.8,28
	C876.1,1651.2,859.5,1699.1,847.1,1697.3"/>
<path id="path920" class="st22" d="M806.2,1660c0,0,15.4-36.6,58-26.7c29.2,6.8,21.5-22.8,19.8-27.7c0,0-22.7-4.3-46.1-8
	C788.8,1589.7,803.6,1652.7,806.2,1660"/>
<path id="path922" class="st5" d="M832.9,1801.9c-11.6,37.5-45.3,60.3-75.2,51c-29.9-9.3-44.7-47.2-33.1-84.6s45.3-60.3,75.2-51
	C829.7,1726.6,844.5,1764.5,832.9,1801.9L832.9,1801.9z M831.1,1730.5l-6-10c-10.1-1.1-20.7-6.1-29.2-14.3c-9.2-8.8-11.7-13.7-14-13
	c-31.6,11-69.4,64.3-86.5,131.1c-13.8,54.7-34.7,101.5-34.9,117.1c-0.2,13.4,31.5,40.1,52.2,48.9c24.6,10.6,65.6,15.6,76,11
	c5.2-2.3,5.2-13.6,11.7-33.9c3.4-10.6,7.3-23.1,11.3-36.6c0.5-1.5,1-3.2,1.3-4.7l0.2-0.5c4.7-15.3,9.2-31.5,13.6-47.7
	c2.7-9.9,5.2-19.8,7.6-29.3c6-24.6,10.4-46.7,11.3-61.3C847.3,1763.5,839.2,1744.9,831.1,1730.5"/>
<path id="path924" class="st26" d="M813.1,1926.2l0.2-0.5c3.3-10.9,6.6-22.3,9.8-33.8l-29.6-41.9c-11.4,5.3-23.9,6.7-35.7,3
	c-1.4-0.4-2.8-1-4.2-1.5c4.5,37.4,16.8,83.2,48.8,110.1c2.9-9.2,6.1-19.6,9.5-30.6C812.2,1929.4,812.8,1927.7,813.1,1926.2"/>
<path id="path926" class="st23" d="M908.6,1925.9c0,0,19.2,5.8,31.7,2.5c12.5-3.2,33.5,3.7,36.8,8.4c3.2,4.6,1.9,6.4-4.3,7.7
	c-6.2,1.3-28.2,9.7-42.2,3.7c-14-5.9-32.5-6.9-32.5-6.9L908.6,1925.9"/>
<path id="path928" class="st21" d="M810.2,1936.1c0.5-1.7,1-3.4,1.6-5.2c0.5-1.5,1-3.2,1.3-4.7l0.2-0.5c1.4-4.5,2.7-9,4.1-13.6
	c-50.8-25.7-96.8-56.2-125-76.1c-2.1,7.7-4.3,15.1-6.6,22.3C709.9,1875,759.8,1908.5,810.2,1936.1"/>
<path id="path930" class="st20" d="M769.8,1912.8c13.1,7.9,26.8,15.8,40.4,23.3c0.5-1.7,1-3.4,1.6-5.2c0.5-1.5,1-3.2,1.3-4.7
	l0.2-0.5c1.4-4.5,2.7-9,4.1-13.6c-20.4-10.3-39.9-21.3-57.9-32.2C761.9,1889.8,765.3,1901.3,769.8,1912.8"/>
<path id="path932" class="st23" d="M747.5,1750.4c0,0,15.6,156,51.2,171.3c17.6,7.6,97.1,20.3,120.3,22.8c0,0,4.6,3.3,4-15.7
	c0,0-81.4-35.3-92.5-52.2c-16.5-25.2,14.9-99.8-6.1-123.7C803.4,1729,766.9,1717.6,747.5,1750.4"/>
<path id="path934" class="st24" d="M831.8,1823.2c0,0-59.6,0.3-74.3,16.2l-16-94.3l41.7-25.6l42.4,27.4
	C825.6,1747,841.6,1765.8,831.8,1823.2"/>
<path id="path936" class="st27" d="M1256.4,2104.8l-33.8-8.7l-53.4,28.3l-40.3,71.9l16.3,46.8l-32.7,46.8l-1.1,79.5l-13.2,19.6
	l214.6,0l37-64.2l4.3-101.3l-25-104.5l-44.6-20.7L1256.4,2104.8"/>
<path id="path938" class="st28" d="M1254.2,2098.2l-8-25.7c-0.6-2-2.5-3.3-4.6-3.2c-7.2,0.4-23,1.3-23,2.7
	C1218.6,2073.9,1254.2,2098.2,1254.2,2098.2"/>
<path id="path940" class="st28" d="M1258.5,2099.3l1.2-17.7c0.2-2.3,2.4-3.9,4.6-3.3l7.3,2c5.4,1.5,6.2,8.7,1.3,11.4L1258.5,2099.3"
	/>
<path id="path942" class="st28" d="M1247.6,2099.7c0.6-1.1,1.1-2.1,1.6-2.9c0.7-1.2,2-2,3.4-2l10.2-0.1c1.3,0,2.5,0.6,3.2,1.6
	l1.6,2.1c0.6,0.9,0.9,1.9,0.7,3l-0.3,1.5c-0.3,2-2.1,3.4-4.1,3.3l-13.2-0.6C1248,2105.4,1246.2,2102.3,1247.6,2099.7"/>
<path id="path944" class="st28" d="M1169.3,2124.4l21.3,56c1.2,3.2,5.7,3.3,7.1,0.2l8.7-19c1.5-3.2,0.6-7-2.2-9.2L1169.3,2124.4"/>
<path id="path946" class="st28" d="M1147.1,2245.3c0,0,26.1,31.8,21.1,36.9c-5.1,5.1-52.2,7.7-52.2,7.7L1147.1,2245.3"/>
<path id="path948" class="st28" d="M1350.1,2324.7c0,0-97.1,32.3-91.8,43.9c5.3,11.6,54.8,20.4,54.8,20.4L1350.1,2324.7"/>
<path id="path950" class="st28" d="M1234.7,2216.5l103.7,11.9c3.4,0.4,4,5.1,0.8,6.3l-59.3,22c-3.9,1.4-8.3,0.6-11.4-2.2l-36.1-32.8
	C1230.2,2219.7,1231.8,2216.2,1234.7,2216.5"/>
<path id="path952" class="st28" d="M1245.8,2109.8l-24.4,6.2c-4.1,1-6,5.8-3.7,9.3l2.9,4.5c1.7,2.7,5.5,2.9,7.5,0.5L1245.8,2109.8"
	/>
<path id="path954" class="st28" d="M1258.5,2109.1l24.4-4.3c1.6-0.3,3.2,0.1,4.5,1l9.7,7c1.8,1.3,0.6,4.2-1.6,3.7L1258.5,2109.1"/>
<g id="g956" transform="scale(1.12468)">
	<path id="path958" class="st20" d="M2162,2072.6c0,0,11.3,10.5,9.1,17.9c-2.2,7.4-12.4,12.4-13.8,21.5c-1.4,9.1-6.9,14.1-11.9,14.1
		c-4.9,0-23.7,0-23.7,0s-3.6-6.4,5.2-8.3c8.8-1.9,12.1-12.6,11.6-22.5c-0.6-9.9,0.8-23.2,0.8-23.2l18.7-4.4L2162,2072.6"/>
</g>
<g id="g960" transform="scale(1.04815)">
	<path id="path962" class="st20" d="M2171.2,2253c0,0,2.2,25.6-3.1,28.2h-68.2c0,0,0.1-8.1,11-9.9c10.9-1.8,30.2-8.3,33.4-22.8
		C2147.5,2234.1,2171.2,2253,2171.2,2253"/>
</g>
<g id="g964" transform="scale(1.06778)">
	<path id="path966" class="st29" d="M2074.8,1857c0,0,3.5,44,7.7,96.9c5.6,71.9,12.4,160.1,13.1,176.8c1.2,29,5.8,75.5,5.8,75.5
		s11,11,33.1,6.4c0,0,19.7-66.3,25.3-136.4c0.1-1.1,0.2-2.3,0.3-3.5c5.2-71.4,13.4-221.8,13.4-221.8L2074.8,1857"/>
</g>
<g id="g968" transform="scale(1.06778)">
	<path id="path970" class="st26" d="M2074.8,1857c0,0,3.5,44,7.7,96.9l77.3,122.2c0.1-1.1,0.2-2.3,0.3-3.5
		c5.2-71.4,13.4-221.8,13.4-221.8L2074.8,1857"/>
</g>
<g id="g972" transform="scale(1.11883)">
	<path id="path974" class="st29" d="M1995.5,1777.2c0,0,60.7,152.1,100.6,223.6c39.9,71.5,52.4,91.4,52.4,91.4s22.9-9.1,24.9-15.4
		c0,0-15.3-138-42-171.6c-15.1-19-32.8-76-33.7-96c-0.8-19.9-5.4-59.4-5.4-59.4L1995.5,1777.2"/>
</g>
<g id="g976" transform="scale(1.06837)">
	<path id="path978" class="st30" d="M2173.3,1615.7c0,0-43,21.1-67.8,13.2c0,0,6.1-7.8,16.8-13.6c-0.9-5.1-1.5-9.4-1.9-13.2
		c-1-8.6-1-13.4-1-13.4l16.6-13.2l15.7-12.7C2150.5,1598.5,2173.3,1615.7,2173.3,1615.7"/>
</g>
<g id="g980" transform="scale(1.07955)">
	<path id="path982" class="st22" d="M2173.2,1821.6c0.1,2.6-5.5,5.7-7.9,6.8c-18.2,8.1-35.2,13.8-54.4,15.7
		c-22.7,2.4-49.6-2.8-58.9-2.6c-1,0-1.8-0.4-2.5-1c-0.7-0.5-1.1-28.3-0.7-63.3c0-1.4,0-2.8,0.1-4.2v-0.5c0.2-13.7,0.7-28,1.3-42.4
		c1.3-31.5,3.8-61.9,7.9-78.7c5-19.8,16.3-32.9,26.6-42.4l8.5-7.6c8.5,1.7,17.5,1.2,26.4-3.2c9.8-4.8,20.6-10.4,22.3-9.1
		c12.8,9.5,21.3,31.3,25.9,58.7c2.6,15.8,4,33.4,3.9,51.9c0,6.8-0.2,13.8-0.6,20.7c-2.3,37.3,0,69.8,1.3,88.6
		C2172.9,1814.3,2173.1,1818.5,2173.2,1821.6"/>
</g>
<g id="g984" transform="scale(1.07913)">
	<path id="path986" class="st19" d="M2173.3,1809.5c-206.2-0.3-38-153.7-38-153.7l33.4-7.5c2.7,15.8,4,33.4,3.9,51.9
		c0,6.8-0.2,13.8-0.6,20.7C2169.7,1758.3,2172,1790.7,2173.3,1809.5"/>
</g>
<g id="g988" transform="scale(1.03358)">
	<path id="path990" class="st27" d="M2173.3,1783.8l-0.7,16.4l-0.7,15.2l-2.2,51.8l-30.5,52.9c0,0-22.9,24.2-81.7,24.2
		c-73.3,0-84.1-40.4-84.1-40.4l0.9-65.4l26.9-38.5l-13.4-38.5l33.1-59.2l43.9-23.2l27.8,7.2l23.3-5.4l36.8,17L2173.3,1783.8"/>
</g>
<path id="path992" class="st28" d="M2161,1737.2l-6.8-21.9c-0.5-1.7-2.1-2.8-3.9-2.7c-6.1,0.3-19.6,1.1-19.6,2.3
	C2130.7,1716.5,2161,1737.2,2161,1737.2"/>
<g id="g994" transform="scale(1.00355)">
	<path id="path996" class="st28" d="M2157.1,1732l1-15c0.1-2,2-3.3,3.9-2.8l6.1,1.7c4.6,1.2,5.2,7.4,1.1,9.6L2157.1,1732"/>
</g>
<path id="path998" class="st28" d="M2155.4,1738.5c0.5-0.9,1-1.8,1.4-2.5c0.6-1.1,1.7-1.7,2.9-1.7l8.7-0.1c1.1,0,2.1,0.5,2.7,1.4
	l1.3,1.8c0.5,0.7,0.8,1.7,0.6,2.6l-0.2,1.3c-0.3,1.7-1.8,2.9-3.5,2.8l-11.2-0.5C2155.7,1743.3,2154.2,1740.7,2155.4,1738.5"/>
<path id="path1000" class="st28" d="M2088.8,1759.5l18.1,47.7c1,2.7,4.9,2.9,6.1,0.2l7.4-16.2c1.2-2.7,0.5-6-1.9-7.8L2088.8,1759.5"
	/>
<path id="path1002" class="st28" d="M2068.4,1860.5c0,0,20.9,29,16.5,33.3c-4.3,4.3-44.4,6.5-44.4,6.5L2068.4,1860.5"/>
<g id="g1004" transform="scale(1.03188)">
	<path id="path1006" class="st28" d="M2173.3,1870.3c0,0-80.1,26.6-75.7,36.2c4.4,9.6,45.1,16.8,45.1,16.8L2173.3,1870.3"/>
</g>
<g id="g1008" transform="scale(1.03326)">
	<path id="path1010" class="st28" d="M2173.3,1800.8l-0.7,15.2l-74.3,7.2c-2.9,0.3-4.2-3.5-1.8-5.1l45.9-29.2c3.1-1.9,6.9-2,10-0.2
		L2173.3,1800.8"/>
</g>
<path id="path1012" class="st28" d="M2153.9,1747.1l-20.7,5.3c-3.5,0.9-5.1,4.9-3.1,7.9l2.5,3.9c1.4,2.3,4.7,2.5,6.4,0.4
	L2153.9,1747.1"/>
<g id="g1014" transform="scale(1.01187)">
	<path id="path1016" class="st28" d="M2139.3,1726l20.5-3.6c1.3-0.2,2.7,0.1,3.8,0.9l8.2,5.9c1.5,1.1,0.5,3.5-1.4,3.1L2139.3,1726"
		/>
</g>
<g id="g1018" transform="scale(1.00728)">
	<path id="path1020" class="st31" d="M2173.3,1870.9l-8.2-2.6c0,0-5.7-18.9-25.1-10.5c0,0-7.9,4.2-4.4,9.1c3.5,4.9,2.8,2.3,7.5,9.4
		c4.7,7.1,12.2,10.5,18.2,7.8l6.8,0.2L2173.3,1870.9"/>
</g>
<g id="g1022" transform="scale(1.09156)">
	<path id="path1024" class="st22" d="M2127.2,1581.4c0,0,46.2,73.4-3,158.3c-15.3,26.5-131.3,1.3-131.3,1.3s-4.5-8.2,7.6-16.8
		c0,0,77.2-13.1,86.4-15.3c8.2-1.9,2.7-77,12.1-98.7C2108.2,1588.4,2127.2,1581.4,2127.2,1581.4"/>
</g>
<g id="g1026" transform="scale(1.05787)">
	<path id="path1028" class="st32" d="M2173.3,1592.1c0,0-11,20.3-31.9,26c-1.1-8.7-1.1-13.6-1.1-13.6l16.7-13.4L2173.3,1592.1"/>
</g>
<g id="g1030" transform="scale(1.06595)">
	<path id="path1032" class="st30" d="M2116.6,1591.8c0,0,41.1,6.8,45-18.8c3.9-25.7,11.8-42.1-14.3-47.5c-26.1-5.5-32.7,3.6-36,11.8
		C2107.9,1545.5,2106,1589.3,2116.6,1591.8"/>
</g>
<g id="g1034" transform="scale(1.06931)">
	<path id="path1036" class="st22" d="M2169.7,1517.6c0.4-0.4,1.2-0.8,3.1-0.9c0,0-1.5-1-3.6-1c-0.4-2.7-1.8-7.5-6.4-8.6
		c0,0,2.5,1.3,2.8,4.2c-5.3-5.5-16.6-9.5-48-7c-41.4,3.3-27.7,30.2-22.4,33.4c5.4,3.2,18.8-5.6,28.8-4.8c10,0.8,11.9,15.5,15.3,17.5
		c3.4,2,2.1-1.5,6.6-3.6c4.6-2.1,5,5.6,3.7,10.6c-1.3,5,5,11.6,5,11.6s0,0,6.4-7c6.4-7,12.4-36.4,9.5-42.7
		C2170.2,1518.7,2169.9,1518.1,2169.7,1517.6"/>
</g>
<g id="g1038" transform="scale(1.71723)">
	<path id="path1040" class="st33" d="M2171.7,1394.5H173.2c-0.9,0-1.6-0.7-1.6-1.6v-0.1c0-0.9,0.7-1.6,1.6-1.6h1998.5
		c0.9,0,1.6,0.7,1.6,1.6v0.1C2173.3,1393.8,2172.6,1394.5,2171.7,1394.5"/>
</g>
</svg>
