<svg xmlns="http://www.w3.org/2000/svg" data-name="Layer 254" viewBox="0 0 50.09 50.43" id="update-time"><path fill="#231f20" d="M31.11 31.97a1.55 1.55 0 0 1-1-.36l-6.06-5a1.56 1.56 0 0 1-.55-1.19v-8.27a1.55 1.55 0 0 1 3.09 0v7.54l5.49 4.56a1.55 1.55 0 0 1-1 2.74zm11.27-20.89h-.11l-8-.6a1.54 1.54 0 0 1-1.42-1.66A1.52 1.52 0 0 1 34.5 7.4l6.2.46-.46-6.2a1.544 1.544 0 0 1 3.08-.23l.59 8a1.55 1.55 0 0 1-.44 1.21 1.58 1.58 0 0 1-1.09.44zm5.51 21.46a1.64 1.64 0 0 1-.38 0 1.55 1.55 0 0 1-1.13-1.87 20.63 20.63 0 0 0 .61-5 1.55 1.55 0 0 1 3.1 0 24.2 24.2 0 0 1-.7 5.72 1.56 1.56 0 0 1-1.5 1.15zM35.46 47.97a1.56 1.56 0 0 1-1.39-.86 1.54 1.54 0 0 1 .7-2.07 22.35 22.35 0 0 0 7.42-6 1.55 1.55 0 1 1 2.41 1.94 26.33 26.33 0 0 1-1.87 2.09 25.16 25.16 0 0 1-6.59 4.74 1.51 1.51 0 0 1-.68.16z"></path><path fill="#231f20" d="M24.99 50.43A25 25 0 1 1 42.72 7.69a1.55 1.55 0 0 1-2.19 2.19 21.94 21.94 0 1 0-13.1 37.33 1.544 1.544 0 0 1 .33 3.07 25.89 25.89 0 0 1-2.77.15Z"></path></svg>