<?xml version="1.0" encoding="utf-8"?>
<!-- Generator: Adobe Illustrator 27.2.0, SVG Export Plug-In . SVG Version: 6.00 Build 0)  -->
<svg version="1.1" id="Layer_1" xmlns="http://www.w3.org/2000/svg" xmlns:xlink="http://www.w3.org/1999/xlink" x="0px" y="0px"
	 viewBox="0 0 750 500" style="enable-background:new 0 0 750 500;" xml:space="preserve">
<style type="text/css">
	.st0{clip-path:url(#SVGID_00000036230087448957044040000002332621404305029038_);}
	.st1{fill:#FFFFFF;}
	.st2{fill:#200E0E;}
	.st3{fill:#FFA1F2;}
	.st4{fill:#939ADE;}
	.st5{fill:#EE7639;}
	.st6{fill:none;}
	.st7{fill:none;stroke:#FFA1F2;stroke-width:1.8256;stroke-miterlimit:10;}
</style>
<g>
	<defs>
		<rect id="SVGID_1_" x="0.5" width="750" height="500"/>
	</defs>
	<clipPath id="SVGID_00000138537033779950495560000011664010633526284729_">
		<use xlink:href="#SVGID_1_"  style="overflow:visible;"/>
	</clipPath>
	<g style="clip-path:url(#SVGID_00000138537033779950495560000011664010633526284729_);">
		<g>
			<path class="st1" d="M10.2,31.8c-1,0.4-1.9,0.7-2.7,1c-3.4,1.4-6.8,2.6-10.4,3.1C-3.2,36-3.4,36-3.7,36c-7.2,0.8-12.8-4-13-11.4
				c-0.1-3.7,1-7,3.2-10c0.6-0.8,1.2-1.7,2-2.6c-0.5-0.2-0.9-0.4-1.4-0.5c-3.1-1-6-2.2-8.7-4c-1.5-1-2.9-2.1-4.1-3.4
				c-2.5-2.6-2.7-5.7-1.2-8.9c0.7-1.6,1.9-2.9,3.3-4c2.4-1.9,5.2-3.2,8.3-3.6c0.2,0,0.4-0.1,0.6-0.1c0,0,0.1-0.1,0.2-0.3
				c-0.3-0.4-0.6-0.8-1-1.3c-1.7-2.2-2.8-4.7-3.3-7.4c-0.7-3.9,0.5-7.1,3.8-9.4c4-2.8,8.4-3.8,13.2-2.9c1.1,0.2,2.2,0.4,3.5,0.7
				c-0.1-0.7-0.1-1.3-0.2-1.9c-0.5-3.8-0.2-7.4,2-10.8c2.3-3.6,6-5.1,10.1-4c2,0.5,3.8,1.5,5.3,3c1.9,1.7,3.4,3.7,4.5,6
				c0.2,0.4,0.4,0.7,0.6,1.1c0,0,0.1,0,0.3,0.1c0.4-0.6,0.7-1.3,1.1-1.9c3-4.8,7.1-8.2,12.6-9.5c2.7-0.6,5.3-0.6,7.8,0.7
				c3.7,1.9,5.3,5.1,5.6,9.1c0.1,2.1-0.1,4.2-0.2,6.3c0,0.5-0.1,1-0.1,1.7c0.6-0.4,1.1-0.6,1.5-0.9c3.1-1.7,6.2-1.9,9.4-0.4
				c3.9,1.8,6.8,4.5,7.9,8.8c0.9,3.4,0.5,6.6-1.1,9.7c-1.3,2.5-2.8,4.8-4.2,7.2c-0.2,0.3-0.3,0.5-0.6,1c1.2,0.5,2.3,1,3.4,1.4
				C72.1-4.6,75-1.1,75.5,4c0.5,4.4-1.3,8.2-4.5,11.1c-2.5,2.3-5.5,3.4-8.8,4c-0.4,0.1-0.8,0.1-1.4,0.2c0.2,0.4,0.3,0.7,0.5,1
				c1.3,2.5,2.5,5,2.9,7.8c0.3,1.9,0,3.8-0.7,5.6c-0.8,2.2-2.5,3.6-4.7,4.3c-2.6,0.9-5.3,0.7-7.9,0.2c-2.7-0.6-5.2-1.6-7.6-2.9
				c-1.1-0.6-2.1-1.1-3.4-1.7c-0.5,1.2-1,2.3-1.4,3.4c-0.8,2.1-1.9,4.1-3.3,5.9c-3.6,4.3-8.4,5.5-13.6,3.2c-3.5-1.6-6.3-4-8.2-7.4
				c-1-1.7-1.7-3.5-2.5-5.3C10.6,32.8,10.5,32.4,10.2,31.8z"/>
			<g>
				<g>
					<g>
						<path class="st1" d="M27.7,337.5c-0.9,0.3-1.6,0.6-2.4,0.9c-2.9,1.2-5.9,2.2-9,2.7c-0.2,0-0.4,0.1-0.7,0.1
							c-6.2,0.7-11.1-3.5-11.3-9.9c-0.1-3.2,0.9-6.1,2.8-8.7c0.5-0.7,1.1-1.4,1.7-2.3c-0.5-0.2-0.8-0.3-1.2-0.5
							c-2.7-0.8-5.2-1.9-7.5-3.5c-1.3-0.9-2.5-1.9-3.5-3c-2.2-2.3-2.3-4.9-1-7.7c0.6-1.4,1.6-2.5,2.8-3.5c2.1-1.7,4.5-2.8,7.2-3.2
							c0.2,0,0.4-0.1,0.5-0.1c0,0,0.1-0.1,0.2-0.2c-0.3-0.3-0.5-0.7-0.8-1.1c-1.5-1.9-2.5-4-2.9-6.4c-0.6-3.4,0.4-6.1,3.3-8.1
							c3.4-2.4,7.3-3.3,11.4-2.5c0.9,0.2,1.9,0.4,3,0.6c-0.1-0.6-0.1-1.2-0.2-1.7c-0.5-3.3-0.1-6.4,1.7-9.3c2-3.1,5.2-4.4,8.7-3.5
							c1.8,0.5,3.3,1.3,4.6,2.6c1.6,1.5,2.9,3.2,3.9,5.2c0.2,0.3,0.3,0.6,0.5,1c0,0,0.1,0,0.3,0.1c0.3-0.5,0.6-1.1,1-1.7
							c2.6-4.2,6.1-7.1,11-8.2c2.3-0.6,4.6-0.5,6.8,0.6c3.2,1.6,4.6,4.4,4.8,7.9c0.1,1.8-0.1,3.6-0.2,5.5c0,0.4-0.1,0.9-0.1,1.5
							c0.6-0.3,0.9-0.5,1.3-0.7c2.7-1.5,5.3-1.6,8.1-0.3c3.4,1.6,5.9,3.9,6.8,7.7c0.7,2.9,0.4,5.7-0.9,8.4c-1.1,2.1-2.4,4.2-3.6,6.3
							c-0.1,0.2-0.3,0.4-0.5,0.8c1,0.4,2,0.8,2.9,1.2c4.1,1.7,6.6,4.7,7,9.1c0.4,3.8-1.1,7.1-3.9,9.6c-2.1,2-4.8,3-7.6,3.4
							c-0.4,0.1-0.7,0.1-1.2,0.2c0.2,0.4,0.3,0.6,0.4,0.9c1.1,2.1,2.2,4.3,2.5,6.7c0.2,1.7,0,3.3-0.6,4.8c-0.7,1.9-2.2,3.1-4.1,3.7
							c-2.3,0.8-4.6,0.6-6.9,0.1c-2.3-0.5-4.5-1.4-6.6-2.5c-0.9-0.5-1.8-1-2.9-1.5c-0.4,1.1-0.8,2-1.2,3c-0.7,1.8-1.6,3.6-2.9,5.1
							c-3.2,3.7-7.3,4.7-11.8,2.7c-3-1.4-5.5-3.5-7.1-6.4c-0.8-1.5-1.4-3-2.1-4.6C28,338.4,27.9,338,27.7,337.5z"/>
						<g>
							<path class="st2" d="M51.5,263.6c-9.6-8.4-26.3-15.5-39.8-13.2c-11.4,1.9-15.8,20.3-16.9,25.9H3c0.1-5.6,1.6-21.9,17.2-19.5
								c18.2,2.9,32.7,10.3,31.9,23.3l7.5,1.2C59.7,278.3,59.2,270.3,51.5,263.6z"/>
							<path class="st3" d="M6.6,239.9c28.3-3.9,60.6,8.8,64,43.1l5.5,0.9c-0.7-3.5-3.2-14.1-12-32.3c-11-22.6-43.9-22.3-70-17.3
								c-22.9,4.4-21.7,34.7-21.1,42h8.5C-18.7,269.5-18.4,243.3,6.6,239.9z"/>
							<path class="st4" d="M11.7,250.4c13.5-2.3,30.2,4.8,39.8,13.2c7.7,6.7,8.2,14.8,8.1,17.7l11.1,1.8c-3.4-34.4-35.8-47-64-43.1
								c-24.9,3.4-25.3,29.6-25,36.3h13.2C-4.1,270.7,0.2,252.3,11.7,250.4z"/>
						</g>
					</g>
					<g>
						<g>
							<path d="M39.4,301.1c0.1,0.1,0.2,0.3,0.3,0.4c1.4,1.7,2.8,3.4,4.2,5.1c0.1,0.1,0.1,0.2,0.2,0.2c0.1,0.2,0.1,0.4-0.1,0.5
								c-0.2,0.1-0.3,0.1-0.5-0.1c-0.2-0.2-0.4-0.4-0.6-0.6c-1-1.2-2.1-2.4-3.1-3.7c-0.1-0.1-0.2-0.2-0.3-0.3c0,0.2,0,0.3,0,0.4
								c0.1,2.6,0.2,5.2,0.3,7.7c0,0.5,0,1,0.1,1.5c0,0.1,0,0.1,0,0.2c0,0.2-0.2,0.4-0.4,0.4c-0.2,0-0.4-0.1-0.4-0.4
								c0-0.1,0-0.3,0-0.4c-0.2-3.3-0.3-6.5-0.4-9.8c0-0.1,0-0.3,0-0.5c-0.2,0.1-0.3,0.2-0.4,0.3c-1.3,1.1-2.7,2.2-4,3.3
								c-0.1,0.1-0.2,0.2-0.3,0.2c-0.2,0.1-0.4,0-0.5-0.1c-0.1-0.2-0.1-0.3,0-0.5c0.1-0.1,0.2-0.2,0.3-0.3c1.4-1.2,2.8-2.3,4.2-3.5
								c0.1-0.1,0.2-0.2,0.4-0.3c-0.1-0.1-0.2-0.2-0.3-0.3c-1.4-1.8-2.8-3.6-4.2-5.4c-0.1-0.1-0.2-0.2-0.2-0.3
								c-0.2-0.3-0.1-0.5,0.1-0.7c0.2-0.1,0.4-0.1,0.6,0.2c1.4,1.8,2.7,3.5,4.1,5.3c0,0.1,0.1,0.1,0.2,0.2c0-0.1,0-0.2,0-0.3
								c-0.1-2.9-0.3-5.8-0.4-8.7c0-0.1,0-0.3,0-0.4c0-0.2,0.2-0.3,0.4-0.3c0.2,0,0.3,0.1,0.4,0.3c0,0.2,0,0.3,0.1,0.5
								c0.1,2.8,0.2,5.5,0.4,8.3c0,0.2,0,0.4,0,0.6c0.2-0.1,0.3-0.2,0.4-0.3c1.6-1.3,3.3-2.7,4.9-4c0.1-0.1,0.2-0.2,0.4-0.3
								c0.2-0.1,0.4-0.1,0.5,0.1c0.1,0.1,0.1,0.3,0,0.5c-0.1,0.1-0.2,0.2-0.3,0.3c-1.8,1.5-3.6,3-5.5,4.5
								C39.7,300.9,39.6,301,39.4,301.1z"/>
							<path class="st1" d="M112.1,191.8c0-0.9,0.1-1.7,0.1-2.5c0.1-2.3,0.1-4.6,0.2-7c0-0.2,0-0.4,0.1-0.6c0.1-0.3,0.3-0.5,0.6-0.5
								c0.3,0,0.5,0.2,0.5,0.5c0,0.3,0,0.6,0,0.9c-0.1,2.8-0.2,5.6-0.2,8.4c0,0.1,0,0.3,0,0.5c0.2-0.1,0.3-0.1,0.4-0.2
								c1.5-1.2,3-2.4,4.6-3.7c0,0,0.1-0.1,0.1-0.1c0.3-0.2,0.6-0.2,0.8,0c0.2,0.2,0.2,0.6-0.1,0.8c-0.7,0.6-1.5,1.2-2.2,1.8
								c-1.1,0.9-2.2,1.7-3.4,2.7c0.2,0.2,0.4,0.3,0.5,0.4c1.5,1,3,2,4.4,3c0.1,0.1,0.3,0.2,0.4,0.3c0.2,0.2,0.2,0.4,0.1,0.6
								c-0.1,0.2-0.4,0.3-0.7,0.2c-0.2-0.1-0.3-0.2-0.5-0.3c-1.3-0.9-2.6-1.8-4-2.7c-0.2-0.1-0.3-0.2-0.6-0.4c0,0.3-0.1,0.6-0.1,0.9
								c-0.1,2.4-0.1,4.8-0.2,7.2c0,0.5-0.1,0.9-0.1,1.4c0,0.1,0,0.3-0.1,0.4c-0.1,0.2-0.2,0.4-0.5,0.3c-0.2,0-0.4-0.2-0.4-0.4
								c0-0.1,0-0.3,0-0.4c0-2.4,0.1-4.9,0.1-7.3c0-0.5,0-1.1,0-1.6c0-0.2,0-0.4,0-0.7c-0.3,0.2-0.4,0.3-0.6,0.5c-1.3,1-2.7,2-4,3
								c-0.1,0.1-0.2,0.2-0.3,0.2c-0.3,0.2-0.6,0.1-0.8-0.1c-0.1-0.2-0.1-0.5,0.2-0.7c0.9-0.7,1.8-1.4,2.7-2.1
								c0.7-0.5,1.3-1.1,2-1.6c0.1-0.1,0.2-0.1,0.4-0.2c-0.2-0.2-0.3-0.3-0.5-0.4c-1.6-1.2-3.2-2.5-4.8-3.7
								c-0.3-0.2-0.4-0.5-0.2-0.7c0.1-0.2,0.4-0.3,0.7-0.2c0.2,0.1,0.4,0.2,0.5,0.3c1.4,1,2.7,2,4.1,3
								C111.7,191.5,111.9,191.6,112.1,191.8z"/>
							<path class="st1" d="M24.9,205.3c0,0.5,0,1,0,1.6c0,0.7,0.3,1.4,0.7,1.9c0.2,0.2,0.3,0.4,0.6,0.4c0.5,0.1,1.1,0.2,1.6,0.3
								c0.1,0,0.2,0,0.3,0.1c0.2,0.1,0.3,0.2,0.4,0.4s-0.1,0.4-0.3,0.5c-0.3,0.1-0.6,0.2-0.9,0.3c-0.7,0.2-1.3,0.4-1.8,0.9
								c-0.7,0.6-1.1,1.3-1.2,2.2c-0.1,0.7-0.1,1.3-0.2,2c0,0.3,0,0.6,0,0.9c0,0.3-0.2,0.4-0.4,0.4c-0.2,0-0.3-0.2-0.3-0.4
								c-0.1-0.5-0.1-1-0.2-1.4c-0.1-0.8-0.3-1.7-0.4-2.5c0-0.1,0-0.2-0.1-0.2c-0.4-1.3-1-2-2.6-2.2c-0.1,0-0.3,0-0.4-0.1
								c-0.2,0-0.3-0.2-0.3-0.4c0-0.2,0.1-0.3,0.3-0.4c0.2-0.1,0.3-0.1,0.5-0.1c0.4-0.1,0.9-0.2,1.3-0.3c0.7-0.2,1.2-0.6,1.6-1.2
								c0.5-0.7,0.7-1.5,0.8-2.3c0.1-0.6,0.2-1.2,0.3-1.8c0-0.1,0-0.3,0.1-0.4c0.1-0.1,0.2-0.2,0.4-0.2c0.1,0,0.2,0.2,0.2,0.3
								c0,0.1,0,0.2,0,0.3C24.8,204.3,24.8,204.8,24.9,205.3C24.8,205.3,24.8,205.3,24.9,205.3z"/>
							<path d="M3.4,225.6c0.1,1.1,0.2,2.4,0.4,3.6c0.2,1.2,0.4,1.4,1.6,1.6c0.3,0.1,0.6,0,0.9,0.1c0.3,0,0.6,0.2,0.7,0.6
								c0.1,0.3-0.1,0.7-0.4,0.8c-0.3,0.1-0.6,0.2-0.9,0.3c-1.6,0.3-2.4,1.4-2.5,3C3,236.7,3,237.9,3,239.1c0,0.2,0,0.5-0.1,0.7
								c-0.1,0.3-0.3,0.5-0.6,0.5c-0.3,0-0.5-0.2-0.7-0.5c-0.1-0.2-0.1-0.4-0.1-0.6c-0.1-1.1-0.2-2.3-0.4-3.4
								c-0.1-0.7-0.3-1.3-0.6-1.9c-0.4-0.9-1.1-1.4-2-1.5c-0.3,0-0.5,0-0.8-0.1c-0.4-0.1-0.7-0.4-0.7-0.7c0-0.4,0.2-0.6,0.5-0.8
								c0.3-0.1,0.6-0.2,0.9-0.3c1.4-0.4,2.3-1.3,2.8-2.6c0.4-1.1,0.6-2.3,0.7-3.5c0.1-0.4,0.1-0.8,0.2-1.2c0.1-0.5,0.4-0.7,0.7-0.6
								c0.3,0,0.5,0.3,0.6,0.7C3.4,224.1,3.4,224.8,3.4,225.6z"/>
							<path d="M154.6,223.8c-0.2,1.1-0.3,2.3-0.6,3.5c-0.2,1.2-0.5,1.3-1.6,1.5c-0.3,0.1-0.6,0-0.9,0.1c-0.3,0-0.6,0.2-0.7,0.6
								c-0.1,0.3,0,0.6,0.4,0.8c0.3,0.1,0.6,0.2,0.9,0.3c1.6,0.3,2.3,1.3,2.3,2.9c0,1.1,0,2.3-0.1,3.5c0,0.2,0,0.5,0,0.7
								c0.1,0.3,0.3,0.5,0.6,0.5c0.3,0,0.5-0.2,0.7-0.4c0.1-0.2,0.1-0.4,0.1-0.5c0.2-1.1,0.4-2.2,0.6-3.3c0.1-0.6,0.4-1.2,0.7-1.8
								c0.4-0.9,1.1-1.3,2.1-1.4c0.3,0,0.5,0,0.8-0.1c0.4-0.1,0.7-0.4,0.7-0.7c0-0.4-0.2-0.6-0.5-0.7c-0.3-0.1-0.6-0.2-0.9-0.2
								c-1.3-0.4-2.1-1.2-2.6-2.5c-0.4-1.1-0.4-2.2-0.5-3.4c0-0.4,0-0.8-0.1-1.2c-0.1-0.4-0.3-0.7-0.7-0.6c-0.3,0-0.6,0.3-0.6,0.7
								C154.7,222.4,154.6,223.1,154.6,223.8z"/>
							<path d="M59.1,183.3c0.1,0.1,0.2,0.3,0.3,0.4c1.4,1.7,2.8,3.4,4.2,5.1c0.1,0.1,0.1,0.2,0.2,0.2c0.1,0.2,0.1,0.4-0.1,0.5
								c-0.2,0.1-0.3,0.1-0.5-0.1c-0.2-0.2-0.4-0.4-0.6-0.6c-1-1.2-2.1-2.4-3.1-3.7c-0.1-0.1-0.2-0.2-0.3-0.3c0,0.2,0,0.3,0,0.4
								c0.1,2.6,0.2,5.2,0.3,7.7c0,0.5,0,1,0.1,1.5c0,0.1,0,0.1,0,0.2c0,0.2-0.2,0.4-0.4,0.4c-0.2,0-0.4-0.1-0.4-0.4
								c0-0.1,0-0.3,0-0.4c-0.2-3.3-0.3-6.5-0.4-9.8c0-0.1,0-0.3,0-0.5c-0.2,0.1-0.3,0.2-0.4,0.3c-1.3,1.1-2.7,2.2-4,3.3
								c-0.1,0.1-0.2,0.2-0.3,0.2c-0.2,0.1-0.4,0-0.5-0.1c-0.1-0.2-0.1-0.3,0-0.5c0.1-0.1,0.2-0.2,0.3-0.3c1.4-1.2,2.8-2.3,4.2-3.5
								c0.1-0.1,0.2-0.2,0.4-0.3c-0.1-0.1-0.2-0.2-0.3-0.3c-1.4-1.8-2.8-3.6-4.2-5.4c-0.1-0.1-0.2-0.2-0.2-0.3
								c-0.2-0.3-0.1-0.5,0.1-0.7c0.2-0.1,0.4-0.1,0.6,0.2c1.4,1.8,2.7,3.5,4.1,5.3c0,0.1,0.1,0.1,0.2,0.2c0-0.1,0-0.2,0-0.3
								c-0.1-2.9-0.3-5.8-0.4-8.7c0-0.1,0-0.3,0-0.4c0-0.2,0.2-0.3,0.4-0.3c0.2,0,0.3,0.1,0.4,0.3c0,0.2,0,0.3,0.1,0.5
								c0.1,2.8,0.2,5.5,0.4,8.3c0,0.2,0,0.4,0,0.6c0.2-0.1,0.3-0.2,0.4-0.3c1.6-1.3,3.3-2.7,4.9-4c0.1-0.1,0.2-0.2,0.4-0.3
								c0.2-0.1,0.4-0.1,0.5,0.1c0.1,0.1,0.1,0.3,0,0.5c-0.1,0.1-0.2,0.2-0.3,0.3c-1.8,1.5-3.6,3-5.5,4.5
								C59.3,183.1,59.2,183.1,59.1,183.3z"/>
						</g>
						<g>
							<path class="st1" d="M99.6,211.8c-21.6,0-27.1,18-40.2,18c11.2,0,19.8,18,40.2,18s29.1-18,40.2-18
								C126.7,229.8,121.2,211.8,99.6,211.8z"/>
							<circle class="st2" cx="99.6" cy="229.8" r="12.2"/>
							<path d="M139.9,229.8c-7.9,0.7-14-5.8-20.1-9.7c-3.1-2.1-6.2-3.8-9.6-4.9c-10.4-3.4-21.8-1.5-30.7,4.9
								c-6,4-12.2,10.4-20.1,9.7c5.7-0.5,10-4.5,14.2-8.2c4.3-3.8,8.9-7.5,14.5-9.5c11.2-4.1,24.2-1.8,33.3,5.8
								C127.2,222.4,132.1,229,139.9,229.8L139.9,229.8z"/>
							<g>
								<polygon points="98.6,211.8 99.6,197.4 100.6,211.8 								"/>
							</g>
							<g>
								<g>
									<g>
										<polygon points="90.3,213.1 86.8,199.2 92.2,212.5 										"/>
									</g>
									<g>
										<polygon points="81.4,216.4 74.6,203.7 83.1,215.4 										"/>
									</g>
									<g>
										<polygon points="75.5,221.8 65.7,211.2 76.8,220.4 										"/>
									</g>
									<g>
										<polygon points="68.9,226.9 60.1,219.4 70.1,225.2 										"/>
									</g>
								</g>
								<g>
									<g>
										<polygon points="107,212.5 112.5,199.2 108.9,213.1 										"/>
									</g>
									<g>
										<polygon points="116.2,215.4 124.7,203.7 117.9,216.4 										"/>
									</g>
									<g>
										<polygon points="122.4,220.4 133.5,211.2 123.8,221.8 										"/>
									</g>
									<g>
										<polygon points="129.2,225.2 139.2,219.4 130.3,226.9 										"/>
									</g>
								</g>
							</g>
						</g>
					</g>
					<g>
						<path class="st5" d="M115.4,288.4c0,0,2.9-21.9,18.7-20.8c15.8,1.1,11.1,23,4.2,35.2c-7,12.3-24.5,30.9-24.5,30.9
							S97,311,91.4,291.2c-5.6-19.9,1.7-28.1,10.1-27.3C110,264.6,115.4,288.4,115.4,288.4z"/>
						<path class="st4" d="M133,281.8c0,0,12.1-24,11.7-31.3c-0.5-7.3-9.8-5.7-11.7,0.7c0,0-5.1-12-10.9-5.5
							C116.3,252.1,133,281.8,133,281.8z"/>
					</g>
				</g>
			</g>
			<g>
				<g>
					<path class="st1" d="M-57.2,79.3c3.2-0.2,6.4,0.3,9.6,0.6c1.6,0.2,3.2,0.3,4.7,0.5c1.8,0.2,3.5,0.1,5.2-0.5
						c0.8-0.3,1.6-0.7,2.4-1.1c0.8-0.4,1.5-0.8,2.2-1.2c1.3-0.8,2.7-1.6,4-2.4c0.3-0.2,0.7-0.5,1-0.6c3.7-1.8,7.5-3.2,11.6-3.5
						c3.6-0.3,7,0.3,10.3,1.8c3.1,1.5,5.2,4,7,6.9c0.8,1.3,1.5,2.7,2.2,4.1c0.9,1.8,2.3,3.2,3.9,4.3c2.1,1.4,4.4,2.5,6.9,3.2
						c1.5,0.5,3,0.9,4.4,1.5c5.1,2.1,8.6,5.7,10.1,11c1,3.5,0.6,7-1.3,10.2c-2.1,3.5-4.8,6.3-8.4,8.3c-0.4,0.2-0.9,0.5-1.3,0.8
						c-3.2,2-6.7,3-10.3,3.8c-3.8,0.7-7.6,1-11.5,1.3c-2.9,0.3-5.4,1.3-7.6,3.3c-0.7,0.6-1.4,1.2-2,1.9c-3.8,3.9-8.4,6.2-13.7,7.5
						c-5,1.3-10,0.9-14.9-0.3c-5.3-1.4-10.4-3.5-14.9-6.7c-0.9-0.6-1.8-1.2-2.7-1.8c-1.7-1-3.5-1.4-5.5-1.1
						c-1.9,0.2-3.8,0.5-5.7,0.7c-2.7,0.3-5.3,0.6-8,0.6c-3.8,0-7.3-1.1-10.4-3.2c-2.7-1.8-4.3-4.2-4.9-7.4c-0.3-2.2-0.5-4.3-0.2-6.5
						c0.6-4.4,2.9-7.9,6-10.9c2.2-2.1,4.6-3.9,7.3-5.5c1.5-0.8,2.9-1.8,4.4-2.6c1.6-0.8,2.5-2.1,2.7-3.9c0.2-1.2,0.5-2.4,0.9-3.6
						c0.9-3,2.8-5.2,5.5-6.8c2.8-1.6,5.9-2.4,9.1-2.7C-58.6,79.3-57.9,79.3-57.2,79.3z"/>
					<g>
						<path d="M-79.2,80.6c0.1,0.1,0.1,0.2,0.2,0.3c1.1,1.3,2.2,2.5,3.3,3.8c0,0.1,0.1,0.1,0.1,0.2c0.1,0.1,0.1,0.3-0.1,0.4
							c-0.1,0.1-0.2,0.1-0.4,0c-0.2-0.1-0.3-0.3-0.5-0.5c-0.8-0.9-1.6-1.8-2.4-2.7c-0.1-0.1-0.1-0.1-0.2-0.3c0,0.1,0,0.2,0,0.3
							c0.1,2,0.3,3.9,0.4,5.9c0,0.4,0.1,0.8,0.1,1.2c0,0.1,0,0.1,0,0.2c0,0.2-0.1,0.3-0.3,0.3c-0.2,0-0.3-0.1-0.3-0.3
							c0-0.1,0-0.2,0-0.3c-0.2-2.5-0.4-5-0.6-7.4c0-0.1,0-0.2,0-0.3c-0.1,0.1-0.2,0.2-0.3,0.2c-1,0.9-2,1.7-3,2.6
							c-0.1,0.1-0.2,0.1-0.3,0.2c-0.1,0.1-0.3,0-0.4-0.1c-0.1-0.1-0.1-0.2,0-0.4c0.1-0.1,0.1-0.2,0.2-0.2c1-0.9,2.1-1.8,3.1-2.7
							c0.1-0.1,0.2-0.1,0.3-0.2c-0.1-0.1-0.1-0.2-0.2-0.2c-1.1-1.3-2.2-2.7-3.3-4c-0.1-0.1-0.1-0.2-0.2-0.3c-0.1-0.2-0.1-0.4,0-0.5
							c0.2-0.1,0.3-0.1,0.5,0.2c1.1,1.3,2.1,2.6,3.2,3.9c0,0,0.1,0.1,0.1,0.1c0-0.1,0-0.2,0-0.2c-0.2-2.2-0.3-4.4-0.5-6.6
							c0-0.1,0-0.2,0-0.3c0-0.1,0.1-0.2,0.3-0.2c0.1,0,0.3,0.1,0.3,0.2c0,0.1,0,0.3,0.1,0.4c0.2,2.1,0.3,4.2,0.5,6.3
							c0,0.1,0,0.3,0,0.5c0.1-0.1,0.2-0.2,0.3-0.2c1.2-1.1,2.4-2.1,3.6-3.2c0.1-0.1,0.2-0.2,0.3-0.2c0.1-0.1,0.3-0.1,0.4,0
							c0.1,0.1,0.1,0.3,0,0.4c-0.1,0.1-0.1,0.2-0.2,0.2c-1.3,1.2-2.7,2.3-4,3.5C-79.1,80.4-79.1,80.5-79.2,80.6z"/>
						<path class="st1" d="M9.9,67.1c-0.1-0.1-0.1-0.2-0.2-0.2c-1-1.1-2-2.3-3-3.4c0-0.1-0.1-0.1-0.1-0.2c-0.1-0.1-0.1-0.3,0-0.3
							c0.1-0.1,0.2-0.1,0.3,0c0.1,0.1,0.3,0.3,0.4,0.4c0.7,0.8,1.5,1.7,2.2,2.5c0.1,0.1,0.1,0.1,0.2,0.2c0-0.1,0-0.2,0-0.3
							c-0.1-1.8-0.3-3.6-0.4-5.4c0-0.4,0-0.7-0.1-1.1c0,0,0-0.1,0-0.1c0-0.2,0.1-0.3,0.2-0.3c0.1,0,0.3,0.1,0.3,0.3
							c0,0.1,0,0.2,0,0.3c0.2,2.3,0.3,4.5,0.5,6.8c0,0.1,0,0.2,0,0.3c0.1-0.1,0.2-0.2,0.3-0.2c0.9-0.8,1.8-1.6,2.7-2.4
							c0.1-0.1,0.1-0.1,0.2-0.2c0.1-0.1,0.3,0,0.3,0.1c0.1,0.1,0.1,0.2,0,0.3c-0.1,0.1-0.1,0.1-0.2,0.2c-0.9,0.8-1.9,1.7-2.9,2.5
							c-0.1,0.1-0.1,0.1-0.2,0.2c0.1,0.1,0.1,0.2,0.2,0.2c1,1.2,2,2.4,3,3.7c0.1,0.1,0.1,0.2,0.2,0.2c0.1,0.2,0.1,0.4,0,0.5
							c-0.1,0.1-0.3,0-0.4-0.1c-1-1.2-1.9-2.4-2.9-3.6c0,0-0.1-0.1-0.1-0.1c0,0.1,0,0.1,0,0.2c0.1,2,0.3,4,0.4,6c0,0.1,0,0.2,0,0.3
							c0,0.1-0.1,0.2-0.2,0.2c-0.1,0-0.2-0.1-0.3-0.2c0-0.1,0-0.2-0.1-0.3c-0.1-1.9-0.3-3.8-0.4-5.7c0-0.1,0-0.3,0-0.4
							c-0.1,0.1-0.2,0.2-0.3,0.2C8.5,69,7.4,70,6.3,71c-0.1,0.1-0.2,0.1-0.3,0.2c-0.1,0.1-0.3,0.1-0.3,0c-0.1-0.1-0.1-0.2,0-0.4
							c0.1-0.1,0.1-0.1,0.2-0.2c1.2-1.1,2.5-2.1,3.7-3.2C9.7,67.3,9.8,67.2,9.9,67.1z"/>
						<path class="st1" d="M66.8,144.9c0-0.9-0.1-1.7-0.1-2.5c-0.1-2.3-0.2-4.6-0.3-7c0-0.2,0-0.4,0-0.6c0-0.3,0.3-0.5,0.6-0.5
							c0.3,0,0.5,0.2,0.5,0.5c0,0.3,0.1,0.6,0.1,0.9c0.1,2.8,0.2,5.6,0.3,8.4c0,0.1,0,0.3,0,0.5c0.1-0.1,0.3-0.2,0.3-0.2
							c1.4-1.3,2.9-2.6,4.3-4c0,0,0.1-0.1,0.1-0.1c0.3-0.2,0.6-0.2,0.8,0c0.2,0.2,0.2,0.6,0,0.8c-0.7,0.7-1.4,1.3-2.1,2
							c-1,0.9-2.1,1.9-3.2,2.9c0.2,0.2,0.4,0.3,0.6,0.4c1.5,0.9,3.1,1.8,4.6,2.8c0.2,0.1,0.3,0.2,0.4,0.3c0.2,0.2,0.2,0.4,0.1,0.6
							c-0.1,0.2-0.4,0.4-0.6,0.3c-0.2-0.1-0.3-0.1-0.5-0.2c-1.4-0.8-2.8-1.6-4.1-2.4c-0.2-0.1-0.4-0.2-0.6-0.4c0,0.3,0,0.6,0,0.9
							c0.1,2.4,0.2,4.8,0.3,7.2c0,0.5,0,0.9,0,1.4c0,0.1,0,0.3-0.1,0.4c-0.1,0.2-0.2,0.4-0.5,0.4c-0.2,0-0.4-0.1-0.5-0.4
							c0-0.1,0-0.3,0-0.4c-0.1-2.4-0.2-4.9-0.3-7.3c0-0.5,0-1.1-0.1-1.6c0-0.2,0-0.4-0.1-0.7c-0.2,0.2-0.4,0.4-0.6,0.5
							c-1.3,1.1-2.5,2.2-3.8,3.2c-0.1,0.1-0.2,0.2-0.3,0.2c-0.3,0.2-0.6,0.2-0.8-0.1c-0.2-0.2-0.1-0.5,0.2-0.7
							c0.9-0.8,1.7-1.5,2.6-2.3c0.6-0.6,1.3-1.1,1.9-1.7c0.1-0.1,0.2-0.1,0.4-0.2c-0.2-0.2-0.4-0.3-0.5-0.4c-1.7-1.1-3.4-2.3-5-3.4
							c-0.3-0.2-0.4-0.4-0.3-0.7c0.1-0.2,0.4-0.3,0.7-0.2c0.2,0.1,0.4,0.2,0.6,0.3c1.4,0.9,2.8,1.9,4.3,2.8
							C66.4,144.6,66.6,144.7,66.8,144.9z"/>
						<path class="st2" d="M3.4,150.4c0,0.7,0,1.5,0.1,2.2c0.1,1,0.4,1.9,1,2.7c0.2,0.3,0.5,0.5,0.8,0.5c0.8,0.1,1.5,0.3,2.3,0.4
							c0.2,0,0.3,0,0.5,0.1c0.3,0.1,0.5,0.3,0.5,0.6c0,0.3-0.1,0.6-0.4,0.7c-0.4,0.2-0.9,0.3-1.3,0.4c-0.9,0.3-1.8,0.7-2.5,1.3
							c-1,0.8-1.5,1.9-1.6,3.1c-0.1,0.9-0.1,1.9-0.1,2.8c0,0.4,0,0.8,0,1.2c0,0.4-0.2,0.6-0.5,0.6c-0.3,0-0.5-0.2-0.5-0.5
							c-0.1-0.7-0.2-1.4-0.3-2c-0.2-1.2-0.4-2.3-0.7-3.5c0-0.1-0.1-0.2-0.1-0.3c-0.5-1.8-1.5-2.7-3.7-3c-0.2,0-0.4,0-0.6-0.1
							c-0.3-0.1-0.5-0.2-0.5-0.5c0-0.3,0.1-0.5,0.4-0.6c0.2-0.1,0.4-0.1,0.7-0.2c0.6-0.2,1.2-0.3,1.8-0.5c1-0.3,1.7-0.9,2.2-1.8
							c0.6-1,1-2.1,1.1-3.3c0.1-0.9,0.2-1.7,0.3-2.6c0-0.2,0-0.4,0.2-0.5c0.1-0.1,0.3-0.3,0.5-0.3c0.1,0,0.3,0.2,0.3,0.4
							c0.1,0.1,0,0.3,0,0.5C3.2,148.9,3.3,149.7,3.4,150.4C3.3,150.4,3.4,150.4,3.4,150.4z"/>
						<path class="st2" d="M-31.3,105.4c-0.1-0.7-0.4-1.3-0.9-1.9c-0.2-0.2-0.4-0.3-0.6-0.3c-0.6-0.1-1.1-0.1-1.7-0.2
							c-0.1,0-0.2,0-0.3,0c-0.2,0-0.4-0.2-0.4-0.4c0-0.2,0-0.4,0.2-0.5c0.3-0.1,0.6-0.3,0.9-0.4c0.7-0.2,1.2-0.6,1.7-1.1
							c0.7-0.6,1-1.4,1-2.3c0-0.7,0-1.3-0.1-2c0-0.3,0-0.6,0-0.9c0-0.3,0.1-0.5,0.3-0.5c0.2,0,0.3,0.1,0.4,0.4
							c0.1,0.5,0.2,1,0.3,1.4c0.2,0.8,0.4,1.6,0.6,2.5c0,0.1,0.1,0.2,0.1,0.2c0.5,1.2,1.2,1.9,2.8,1.9c0.1,0,0.3,0,0.4,0
							c0.2,0,0.3,0.1,0.4,0.3c0,0.2-0.1,0.4-0.2,0.4c-0.1,0.1-0.3,0.1-0.5,0.2c-0.4,0.1-0.8,0.3-1.2,0.4c-0.7,0.3-1.1,0.7-1.5,1.4
							c-0.4,0.8-0.6,1.6-0.6,2.4c0,0.6-0.1,1.2-0.1,1.9c0,0.1,0,0.3-0.1,0.4c-0.1,0.1-0.2,0.2-0.3,0.2c-0.1,0-0.2-0.1-0.3-0.2
							c-0.1-0.1,0-0.2-0.1-0.3C-30.9,107.9-31.2,105.9-31.3,105.4z"/>
						<path class="st1" d="M60.2,84.5c0,0.6,0,1.3,0.1,1.9c0.1,0.9,0.4,1.7,0.9,2.4c0.2,0.3,0.4,0.4,0.7,0.5c0.7,0.1,1.4,0.2,2,0.4
							c0.1,0,0.3,0,0.4,0.1c0.3,0.1,0.4,0.2,0.5,0.5c0,0.3-0.1,0.5-0.3,0.6c-0.4,0.1-0.8,0.3-1.2,0.4c-0.8,0.2-1.6,0.6-2.3,1.2
							c-0.9,0.7-1.4,1.7-1.4,2.8c-0.1,0.8-0.1,1.7-0.1,2.5c0,0.4,0,0.7,0,1.1c0,0.4-0.2,0.6-0.4,0.6c-0.3,0-0.4-0.2-0.5-0.5
							c-0.1-0.6-0.2-1.2-0.3-1.8C58.2,96,58,95,57.8,94c0-0.1-0.1-0.2-0.1-0.3c-0.5-1.6-1.3-2.4-3.3-2.7c-0.2,0-0.4,0-0.5,0
							c-0.2,0-0.4-0.2-0.4-0.4c0-0.3,0.1-0.4,0.3-0.5c0.2-0.1,0.4-0.1,0.6-0.2c0.5-0.1,1.1-0.3,1.6-0.4c0.9-0.3,1.5-0.8,1.9-1.6
							c0.6-0.9,0.8-1.9,1-2.9c0.1-0.8,0.2-1.5,0.3-2.3c0-0.2,0-0.3,0.1-0.5c0.1-0.1,0.3-0.2,0.4-0.2c0.1,0,0.2,0.2,0.3,0.3
							c0.1,0.1,0,0.3,0,0.4C60.1,83.3,60.1,83.9,60.2,84.5C60.1,84.5,60.2,84.5,60.2,84.5z"/>
					</g>
					<g>
						<path class="st4" d="M-31.8,135.4c22-17.2,44-18.8,54.5-8.6c9.3,9,16.4,28.6,19,40l7.4-1.9l0,0c0,0-10.6-53.6-49-48.6
							s-50.7,27.9-50.7,27.9c-4.7,5.9-6.2,16.5-6.6,22.2l12.1,1C-46.3,158.8-45.1,145.8-31.8,135.4z"/>
						<path class="st2" d="M22.7,126.8c-10.5-10.2-32.5-8.6-54.5,8.6c-13.3,10.5-14.5,23.4-13.3,32l6,0.5c-0.4-6.4,1-14.8,7.6-23.5
							c13.8-18.1,42.8-23.6,51.8-13.2c6.5,7.5,12.4,26.8,15.2,37.1l6.1-1.5C39.1,155.4,32,135.8,22.7,126.8z"/>
						<path class="st5" d="M20.4,131.2c-9-10.4-38-4.9-51.8,13.2c-6.6,8.6-8,17-7.6,23.5l8.4,0.7c1.2-11.8,7.6-24.1,14.3-27.8
							c9.4-5.3,19.4-9.2,30-4.8c7.1,3,12.8,21.9,15.7,34l6.3-1.6C32.8,158,26.9,138.7,20.4,131.2z"/>
					</g>
					<path class="st2" d="M63.7,51.9c0,0-43.9-5.3-43.6,38.3c0.2,33.2,30.2,42.3,51.8,31.9c0,0-30.7,2.5-34.8-30.5
						C33,58.5,63.7,51.9,63.7,51.9z"/>
				</g>
			</g>
			<g>
				<path class="st6" d="M92.7,145.7c-14.2,10.4-17,15.4-16.5,16.8c0,0.1,0.1,0.4,0.7,0.5c2.9,0.8,10.9-1.9,23.6-9
					c-2.1-1.5-4-3.3-5.6-5.2C94.1,147.8,93.3,146.8,92.7,145.7z"/>
				<path class="st6" d="M153.1,117c11.6-10,16.5-16.7,16.9-20c0.1-1-0.2-1.3-0.3-1.5c-0.8-0.9-6.4,0-22.1,10.2
					C150.4,108.8,152.4,112.5,153.1,117z"/>
				<path class="st4" d="M102.9,155.6c14,8.2,37.4,6.6,47.9-13.8c4.2-8.1,3-15.9,2.7-21.7c-6.3,5.3-14,11.3-22.9,17.6
					C120.4,144.9,111,151,102.9,155.6z"/>
				<path class="st2" d="M146.1,103.6c-0.1,0.1-0.2,0.1-0.2,0.2c0.6,0.6,1.2,1.2,1.8,1.8c15.7-10.2,21.3-11.1,22.1-10.2
					c0.1,0.1,0.4,0.5,0.3,1.5c-0.4,3.3-5.3,10-16.9,20c-6.1,5.3-14,11.5-24.1,18.6c-11.2,7.9-20.7,14-28.6,18.4
					c-12.7,7.1-20.7,9.9-23.6,9c-0.5-0.2-0.6-0.4-0.7-0.5c-0.5-1.3,2.3-6.4,16.5-16.8c-0.5-0.7-0.9-1.5-1.2-2.2
					c-0.1,0-0.1,0.1-0.2,0.1c-19.7,14.4-18,18.5-17.4,19.9c0.3,0.7,0.9,1.6,2.4,2c4,1.2,13.7-2.5,26.7-9.9
					c8.1-4.6,17.5-10.7,27.6-17.9c9-6.4,16.6-12.3,22.9-17.6c9-7.6,15-14.1,17.7-18.8c0.8-1.5,1.3-2.8,1.5-4
					c0.2-1.4-0.1-2.5-0.9-3.4C170.7,92.6,168,89.4,146.1,103.6z"/>
				<path class="st4" d="M133.4,96.7c-16.3-5.7-33.2,3-39.4,12c-5.1,7.3-9.8,20.3-2.6,34.8c0.4,0.8,0.8,1.5,1.2,2.2
					c0.6,1,1.4,2,2.2,3c1.6,2,3.5,3.7,5.6,5.2c7.8-4.4,17.4-10.5,28.6-18.4c10.1-7.2,18-13.4,24.1-18.6c-0.8-4.4-2.7-8.2-5.4-11.3
					c-0.6-0.6-1.2-1.3-1.8-1.8C142.5,100.7,138.2,98.3,133.4,96.7z"/>
			</g>
			<path class="st4" d="M161.1,53.2c-2.5-2.7-10.6,0.8-17.1,4.3c0.8-9.1,0.9-17-0.7-18.2c-0.5-0.4-1.2-0.5-1.8-0.2
				c-2.1,1-4.6,7.7-6.5,15.8c-6.2-5.2-12.5-9.6-15.5-8.9c-0.7,0.2-1.2,0.7-1.3,1.4c-0.5,2.7,5.5,10.4,12.7,18.1
				c-5,3.4-12.4,8.9-12.8,12.7c-0.1,1,0.2,1.8,0.9,2.5c0.5,0.4,1.2,0.6,2.1,0.6c2.4,0,6.3-1.5,10.7-3.7c0.1,6.8,1.9,11.6,4.7,11.8
				c0.1,0,0.2,0,0.2,0c2.1,0,3.6-2.5,4.2-6.9c0.3-1.8,0.6-4,0.9-6.4c2.5,2.2,4.8,4.2,6.7,5.6c4,3,5.9,3.7,7.1,3.7
				c0.4,0,0.7-0.1,1-0.2c0.9-0.5,1.4-1.2,1.6-2.2c0.8-4.4-7.1-13-8.1-14l0,0c-0.3-0.3-0.9-0.9-1.7-1.7c4.3-3,8-6,10.1-8.1
				C160.4,57.4,162.6,54.8,161.1,53.2z M142.2,40.7c0.9,1.2,0.6,8.4-0.2,17.8c-0.6,0.3-1.2,0.7-1.7,1c-1.2-1.1-2.5-2.3-3.8-3.4
				C138.4,47.8,140.8,41.3,142.2,40.7z M140.8,70.3c-0.5,0.3-1,0.6-1.5,0.9c-1.6-1.6-3.2-3.1-4.7-4.7c0.1-0.5,0.1-1,0.2-1.5
				c0.5-0.3,1-0.6,1.4-0.9l0,0c1.2-0.8,2.5-1.6,3.8-2.3c0.5,0.5,1,0.9,1.5,1.4C141.3,65.5,141.1,67.9,140.8,70.3z M143.3,64.8
				c0.8,0.8,1.6,1.6,2.4,2.3c-0.9,0.6-1.9,1.3-2.9,1.9C143,67.6,143.1,66.2,143.3,64.8z M134.2,68.8c1.1,1.2,2.3,2.3,3.4,3.4
				c-1.4,0.8-2.7,1.6-3.9,2.3C133.8,72.6,134,70.7,134.2,68.8z M135.2,62.6c0.3-1.5,0.6-3,0.9-4.5c0.9,0.8,1.7,1.5,2.6,2.3
				C137.1,61.4,135.9,62.1,135.2,62.6C135.2,62.6,135.2,62.6,135.2,62.6z M141.7,60.8C141.8,60.8,141.8,60.8,141.7,60.8
				C141.8,60.8,141.8,60.8,141.7,60.8C141.8,60.9,141.8,60.8,141.7,60.8z M119.9,47.7c0.1,0,0.3-0.1,0.5-0.1c2.5,0,8.1,4,14.1,9.2
				c-0.5,2.3-1,4.7-1.4,7.1c-0.2,0.1-0.5,0.3-0.7,0.5C124.6,56.1,119.5,49.1,119.9,47.7z M120.3,79.2c-0.3-0.3-0.4-0.5-0.3-0.9
				c0.3-2.7,6.6-7.8,12.2-11.6c0.2,0.2,0.3,0.3,0.5,0.5c-0.4,2.6-0.6,5.2-0.7,7.5c0,0.2,0,0.5,0,0.7C124.7,79.2,121,79.9,120.3,79.2
				z M139.2,82.3L139.2,82.3c-0.5,4-1.8,5.4-2.5,5.3c-1.2-0.1-3.2-3.4-3.1-10.9c1.8-0.9,3.6-2,5.4-3.1c0.4,0.4,0.8,0.7,1.2,1.1
				C139.9,77.2,139.6,79.7,139.2,82.3z M148.9,70.3c3.2,3.4,8,9.8,7.6,12.4c-0.1,0.4-0.3,0.7-0.7,0.9c-0.6,0.3-4.2-1.1-13.6-9.7
				c0.1-0.8,0.2-1.7,0.3-2.6c1.5-1,3-2,4.5-3C147.6,69.1,148.3,69.7,148.9,70.3z M147.2,66.1c-1-1-2.3-2.2-3.7-3.6
				c0.1-1,0.2-1.9,0.3-2.8c5.7-3.1,11.6-5.7,14.5-5.7c0.7,0,1.2,0.1,1.5,0.5C160.1,55.6,155.4,60.3,147.2,66.1z"/>
			<g>
				<g>
					<g>
						<path class="st1" d="M227.4,137.8c-0.9,0.3-1.6,0.6-2.4,0.9c-2.9,1.2-5.9,2.2-9,2.7c-0.2,0-0.4,0.1-0.7,0.1
							c-6.2,0.7-11.1-3.5-11.3-9.9c-0.1-3.2,0.9-6.1,2.8-8.7c0.5-0.7,1.1-1.4,1.7-2.3c-0.5-0.2-0.8-0.3-1.2-0.5
							c-2.7-0.8-5.2-1.9-7.5-3.5c-1.3-0.9-2.5-1.9-3.5-3c-2.2-2.3-2.3-4.9-1-7.7c0.6-1.4,1.6-2.5,2.8-3.5c2.1-1.7,4.5-2.8,7.2-3.2
							c0.2,0,0.4-0.1,0.5-0.1c0,0,0.1-0.1,0.2-0.2c-0.3-0.3-0.5-0.7-0.8-1.1c-1.5-1.9-2.5-4-2.9-6.4c-0.6-3.4,0.4-6.1,3.3-8.1
							c3.4-2.4,7.3-3.3,11.4-2.5c0.9,0.2,1.9,0.4,3,0.6c-0.1-0.6-0.1-1.2-0.2-1.7c-0.5-3.3-0.1-6.4,1.7-9.3c2-3.1,5.2-4.4,8.7-3.5
							c1.8,0.5,3.3,1.3,4.6,2.6c1.6,1.5,2.9,3.2,3.9,5.2c0.2,0.3,0.3,0.6,0.5,1c0,0,0.1,0,0.3,0.1c0.3-0.5,0.6-1.1,1-1.7
							c2.6-4.2,6.1-7.1,10.9-8.2c2.3-0.6,4.6-0.6,6.8,0.6c3.2,1.6,4.6,4.4,4.8,7.9c0.1,1.8-0.1,3.6-0.2,5.4c0,0.4-0.1,0.9-0.1,1.5
							c0.6-0.3,0.9-0.5,1.3-0.7c2.7-1.5,5.3-1.6,8.1-0.3c3.4,1.6,5.9,3.9,6.8,7.7c0.7,2.9,0.4,5.7-0.9,8.4c-1.1,2.1-2.4,4.2-3.6,6.3
							c-0.1,0.2-0.3,0.4-0.5,0.8c1,0.4,2,0.8,2.9,1.2c4.1,1.7,6.6,4.7,7,9.1c0.4,3.8-1.1,7.1-3.9,9.6c-2.1,2-4.8,3-7.6,3.4
							c-0.4,0.1-0.7,0.1-1.2,0.2c0.2,0.3,0.3,0.6,0.4,0.9c1.1,2.1,2.2,4.3,2.5,6.7c0.2,1.7,0,3.3-0.6,4.8c-0.7,1.9-2.2,3.1-4.1,3.7
							c-2.3,0.8-4.6,0.6-6.9,0.1c-2.3-0.5-4.5-1.4-6.6-2.5c-0.9-0.5-1.8-1-2.9-1.5c-0.4,1.1-0.8,2-1.2,3c-0.7,1.8-1.6,3.6-2.9,5.1
							c-3.2,3.7-7.3,4.7-11.8,2.7c-3-1.4-5.5-3.5-7.1-6.4c-0.8-1.5-1.4-3-2.1-4.6C227.8,138.8,227.6,138.4,227.4,137.8z"/>
						<g>
							<path class="st2" d="M251.2,63.9c-9.6-8.4-26.3-15.5-39.8-13.2c-11.4,1.9-15.8,20.3-16.9,25.9h8.2
								c0.1-5.6,1.6-21.9,17.2-19.5c18.2,2.9,32.7,10.3,31.9,23.3l7.5,1.2C259.4,78.7,258.9,70.7,251.2,63.9z"/>
							<path class="st3" d="M206.3,40.3c28.3-3.9,60.6,8.8,64,43.1l5.5,0.9c-0.7-3.5-3.2-14.1-12-32.3c-11-22.6-43.9-22.3-70-17.3
								c-22.9,4.4-21.7,34.7-21.1,42h8.5C181,69.9,181.4,43.7,206.3,40.3z"/>
							<path class="st4" d="M211.4,50.8c13.5-2.3,30.2,4.8,39.8,13.2c7.7,6.7,8.2,14.8,8.1,17.7l11.1,1.8c-3.4-34.4-35.8-47-64-43.1
								c-24.9,3.4-25.3,29.6-25,36.3h13.2C195.6,71.1,200,52.7,211.4,50.8z"/>
						</g>
					</g>
					<g>
						<g>
							<path d="M239.2,101.5c0.1,0.1,0.2,0.3,0.3,0.4c1.4,1.7,2.8,3.4,4.2,5.1c0.1,0.1,0.1,0.2,0.2,0.2c0.1,0.2,0.1,0.4-0.1,0.5
								c-0.2,0.1-0.3,0.1-0.5-0.1c-0.2-0.2-0.4-0.4-0.6-0.6c-1-1.2-2.1-2.4-3.1-3.7c-0.1-0.1-0.2-0.2-0.3-0.3c0,0.2,0,0.3,0,0.4
								c0.1,2.6,0.2,5.2,0.3,7.7c0,0.5,0,1,0.1,1.5c0,0.1,0,0.1,0,0.2c0,0.2-0.2,0.4-0.4,0.4c-0.2,0-0.4-0.1-0.4-0.4
								c0-0.1,0-0.3,0-0.4c-0.1-3.3-0.3-6.5-0.4-9.8c0-0.1,0-0.3,0-0.5c-0.2,0.1-0.3,0.2-0.4,0.3c-1.3,1.1-2.7,2.2-4,3.3
								c-0.1,0.1-0.2,0.2-0.3,0.2c-0.2,0.1-0.4,0-0.5-0.1c-0.1-0.2-0.1-0.3,0-0.5c0.1-0.1,0.2-0.2,0.3-0.3c1.4-1.2,2.8-2.3,4.2-3.5
								c0.1-0.1,0.2-0.2,0.4-0.3c-0.1-0.1-0.2-0.2-0.3-0.3c-1.4-1.8-2.8-3.6-4.2-5.4c-0.1-0.1-0.2-0.2-0.2-0.3
								c-0.2-0.3-0.1-0.5,0.1-0.7c0.2-0.1,0.4-0.1,0.6,0.2c1.4,1.8,2.7,3.5,4.1,5.3c0,0.1,0.1,0.1,0.2,0.2c0-0.1,0-0.2,0-0.3
								c-0.1-2.9-0.3-5.8-0.4-8.7c0-0.1,0-0.3,0-0.4c0-0.2,0.2-0.3,0.4-0.3c0.2,0,0.3,0.1,0.4,0.3c0,0.2,0,0.3,0.1,0.5
								c0.1,2.8,0.2,5.5,0.4,8.3c0,0.2,0,0.4,0,0.6c0.2-0.1,0.3-0.2,0.4-0.3c1.6-1.3,3.3-2.7,4.9-4c0.1-0.1,0.2-0.2,0.4-0.3
								c0.2-0.1,0.4-0.1,0.5,0.1c0.1,0.1,0.1,0.3,0,0.5c-0.1,0.1-0.2,0.2-0.3,0.3c-1.8,1.5-3.6,3-5.5,4.5
								C239.4,101.3,239.3,101.4,239.2,101.5z"/>
							<path class="st1" d="M311.9-7.8c0-0.9,0.1-1.7,0.1-2.5c0.1-2.3,0.1-4.6,0.2-7c0-0.2,0-0.4,0.1-0.6c0.1-0.3,0.3-0.5,0.6-0.5
								c0.3,0,0.5,0.2,0.5,0.5c0,0.3,0,0.6,0,0.9c-0.1,2.8-0.2,5.6-0.2,8.4c0,0.1,0,0.3,0,0.5c0.2-0.1,0.3-0.1,0.4-0.2
								c1.5-1.2,3-2.4,4.6-3.7c0,0,0.1-0.1,0.1-0.1c0.3-0.2,0.6-0.2,0.8,0c0.2,0.2,0.2,0.6-0.1,0.8c-0.7,0.6-1.5,1.2-2.2,1.8
								c-1.1,0.9-2.2,1.7-3.4,2.7c0.2,0.2,0.4,0.3,0.5,0.4c1.5,1,3,2,4.4,3c0.1,0.1,0.3,0.2,0.4,0.3c0.2,0.2,0.2,0.4,0.1,0.6
								c-0.1,0.2-0.4,0.3-0.7,0.2c-0.2-0.1-0.3-0.2-0.5-0.3c-1.3-0.9-2.6-1.8-4-2.7c-0.2-0.1-0.3-0.2-0.6-0.4c0,0.3-0.1,0.6-0.1,0.9
								c-0.1,2.4-0.1,4.8-0.2,7.2c0,0.5-0.1,0.9-0.1,1.4c0,0.1,0,0.3-0.1,0.4c-0.1,0.2-0.2,0.4-0.5,0.3c-0.2,0-0.4-0.2-0.4-0.4
								c0-0.1,0-0.3,0-0.4c0-2.4,0.1-4.9,0.1-7.3c0-0.5,0-1.1,0-1.6c0-0.2,0-0.4,0-0.7c-0.3,0.2-0.4,0.3-0.6,0.5c-1.3,1-2.6,2-4,3
								c-0.1,0.1-0.2,0.2-0.3,0.2c-0.3,0.2-0.6,0.1-0.8-0.1c-0.1-0.2-0.1-0.5,0.2-0.7c0.9-0.7,1.8-1.4,2.7-2.1
								c0.7-0.5,1.4-1.1,2-1.6c0.1-0.1,0.2-0.1,0.4-0.2c-0.2-0.2-0.3-0.3-0.5-0.4c-1.6-1.2-3.2-2.5-4.8-3.7
								c-0.3-0.2-0.4-0.5-0.2-0.7c0.1-0.2,0.4-0.3,0.7-0.2c0.2,0.1,0.4,0.2,0.5,0.3c1.4,1,2.7,2,4.1,3C311.5-8.1,311.6-8,311.9-7.8z
								"/>
							<path class="st1" d="M224.6,5.7c0,0.5,0,1,0,1.6c0,0.7,0.3,1.4,0.7,1.9c0.2,0.2,0.3,0.4,0.6,0.4c0.5,0.1,1.1,0.2,1.6,0.3
								c0.1,0,0.2,0,0.3,0.1c0.2,0.1,0.3,0.2,0.4,0.4c0,0.2-0.1,0.4-0.3,0.5c-0.3,0.1-0.6,0.2-0.9,0.3c-0.7,0.2-1.3,0.4-1.8,0.9
								c-0.7,0.6-1.1,1.3-1.2,2.2c-0.1,0.7-0.1,1.3-0.2,2c0,0.3,0,0.6,0,0.9c0,0.3-0.2,0.4-0.4,0.4c-0.2,0-0.3-0.2-0.3-0.4
								c-0.1-0.5-0.1-1-0.2-1.4c-0.1-0.8-0.3-1.7-0.4-2.5c0-0.1,0-0.2-0.1-0.2c-0.4-1.3-1-2-2.6-2.2c-0.1,0-0.3,0-0.4-0.1
								c-0.2,0-0.3-0.2-0.3-0.4c0-0.2,0.1-0.3,0.3-0.4c0.2-0.1,0.3-0.1,0.5-0.1c0.4-0.1,0.9-0.2,1.3-0.3c0.7-0.2,1.2-0.6,1.6-1.2
								c0.5-0.7,0.7-1.5,0.8-2.3c0.1-0.6,0.2-1.2,0.3-1.8c0-0.1,0-0.3,0.1-0.4c0.1-0.1,0.2-0.2,0.4-0.2c0.1,0,0.2,0.2,0.2,0.3
								c0,0.1,0,0.2,0,0.3C224.5,4.7,224.5,5.2,224.6,5.7C224.5,5.7,224.6,5.7,224.6,5.7z"/>
							<path d="M203.1,26c0.1,1.1,0.2,2.4,0.4,3.6c0.2,1.2,0.4,1.4,1.6,1.6c0.3,0.1,0.6,0,0.9,0.1c0.3,0,0.6,0.2,0.7,0.6
								c0.1,0.3-0.1,0.7-0.4,0.8c-0.3,0.1-0.6,0.2-0.9,0.3c-1.6,0.3-2.4,1.4-2.5,3c-0.1,1.2-0.1,2.4-0.1,3.6c0,0.2,0,0.5-0.1,0.7
								c-0.1,0.3-0.3,0.5-0.6,0.5c-0.3,0-0.5-0.2-0.7-0.5c-0.1-0.2-0.1-0.4-0.1-0.6c-0.1-1.1-0.2-2.3-0.4-3.4
								c-0.1-0.7-0.3-1.3-0.6-1.9c-0.4-0.9-1.1-1.4-2-1.5c-0.3,0-0.5,0-0.8-0.1c-0.4-0.1-0.7-0.4-0.7-0.7c0-0.4,0.2-0.6,0.5-0.8
								c0.3-0.1,0.6-0.2,0.9-0.3c1.4-0.4,2.3-1.3,2.8-2.6c0.4-1.1,0.6-2.3,0.7-3.5c0.1-0.4,0.1-0.8,0.2-1.2c0.1-0.5,0.4-0.7,0.7-0.6
								c0.3,0,0.6,0.3,0.6,0.7C203.1,24.5,203.1,25.2,203.1,26z"/>
							<path d="M354.3,24.2c-0.2,1.1-0.3,2.3-0.6,3.5c-0.2,1.2-0.5,1.3-1.6,1.5c-0.3,0.1-0.6,0-0.9,0.1c-0.3,0-0.6,0.2-0.7,0.6
								c-0.1,0.3,0,0.6,0.4,0.8c0.3,0.1,0.6,0.2,0.9,0.3c1.6,0.3,2.3,1.3,2.3,2.9c0,1.2,0,2.3-0.1,3.5c0,0.2,0,0.5,0,0.7
								c0.1,0.3,0.3,0.5,0.6,0.5c0.3,0,0.5-0.2,0.7-0.4c0.1-0.2,0.1-0.4,0.1-0.5c0.2-1.1,0.4-2.2,0.6-3.3c0.1-0.6,0.4-1.2,0.7-1.8
								c0.4-0.9,1.1-1.3,2.1-1.4c0.3,0,0.5,0,0.8-0.1c0.4-0.1,0.7-0.4,0.7-0.7c0-0.4-0.2-0.6-0.5-0.7c-0.3-0.1-0.6-0.2-0.9-0.2
								c-1.3-0.4-2.1-1.2-2.6-2.5c-0.4-1.1-0.4-2.2-0.5-3.4c0-0.4,0-0.8-0.1-1.2c-0.1-0.4-0.3-0.7-0.7-0.6c-0.3,0-0.5,0.3-0.6,0.7
								C354.4,22.8,354.4,23.5,354.3,24.2z"/>
							<path d="M258.8-16.3c0.1,0.1,0.2,0.3,0.3,0.4c1.4,1.7,2.8,3.4,4.2,5.1c0.1,0.1,0.1,0.2,0.2,0.2c0.1,0.2,0.1,0.4-0.1,0.5
								c-0.2,0.1-0.3,0.1-0.5-0.1c-0.2-0.2-0.4-0.4-0.6-0.6c-1-1.2-2.1-2.4-3.1-3.7c-0.1-0.1-0.2-0.2-0.3-0.3c0,0.2,0,0.3,0,0.4
								c0.1,2.6,0.2,5.2,0.3,7.7c0,0.5,0,1,0.1,1.5c0,0.1,0,0.1,0,0.2c0,0.2-0.2,0.4-0.4,0.4c-0.2,0-0.4-0.1-0.4-0.4
								c0-0.1,0-0.3,0-0.4c-0.1-3.3-0.3-6.5-0.4-9.8c0-0.1,0-0.3,0-0.5c-0.2,0.1-0.3,0.2-0.4,0.3c-1.3,1.1-2.7,2.2-4,3.3
								c-0.1,0.1-0.2,0.2-0.3,0.2c-0.2,0.1-0.4,0-0.5-0.1c-0.1-0.2-0.1-0.3,0-0.5c0.1-0.1,0.2-0.2,0.3-0.3c1.4-1.2,2.8-2.3,4.2-3.5
								c0.1-0.1,0.2-0.2,0.4-0.3c-0.1-0.1-0.2-0.2-0.3-0.3c-1.4-1.8-2.8-3.6-4.2-5.4c-0.1-0.1-0.2-0.2-0.2-0.3
								c-0.2-0.3-0.1-0.5,0.1-0.7c0.2-0.1,0.4-0.1,0.6,0.2c1.4,1.8,2.7,3.5,4.1,5.3c0,0.1,0.1,0.1,0.2,0.2c0-0.1,0-0.2,0-0.3
								c-0.1-2.9-0.3-5.8-0.4-8.7c0-0.1,0-0.3,0-0.4c0-0.2,0.2-0.3,0.4-0.3c0.2,0,0.3,0.1,0.4,0.3c0,0.2,0,0.3,0.1,0.5
								c0.1,2.8,0.2,5.5,0.4,8.3c0,0.2,0,0.4,0,0.6c0.2-0.1,0.3-0.2,0.4-0.3c1.6-1.3,3.3-2.7,4.9-4c0.1-0.1,0.2-0.2,0.4-0.3
								c0.2-0.1,0.4-0.1,0.5,0.1c0.1,0.1,0.1,0.3,0,0.5c-0.1,0.1-0.2,0.2-0.3,0.3c-1.8,1.5-3.6,3-5.5,4.5
								C259.1-16.6,259-16.5,258.8-16.3z"/>
						</g>
						<g>
							<path class="st1" d="M299.4,12.2c-21.6,0-27.1,18-40.2,18c11.2,0,19.8,18,40.2,18s29.1-18,40.2-18
								C326.5,30.2,321,12.2,299.4,12.2z"/>
							<circle class="st2" cx="299.4" cy="30.2" r="12.2"/>
							<path d="M339.6,30.2c-7.9,0.7-14-5.8-20.1-9.7c-3.1-2.1-6.2-3.8-9.6-4.9c-10.4-3.4-21.8-1.5-30.7,4.9
								c-6,4-12.2,10.4-20.1,9.7c5.7-0.5,10-4.5,14.2-8.2c4.3-3.8,8.9-7.5,14.5-9.5c11.2-4.1,24.2-1.8,33.3,5.8
								C326.9,22.7,331.8,29.4,339.6,30.2L339.6,30.2z"/>
							<g>
								<polygon points="298.4,12.2 299.4,-2.2 300.4,12.2 								"/>
							</g>
							<g>
								<g>
									<g>
										<polygon points="290.1,13.5 286.5,-0.5 292,12.9 										"/>
									</g>
									<g>
										<polygon points="281.1,16.8 274.3,4.1 282.8,15.7 										"/>
									</g>
									<g>
										<polygon points="275.2,22.2 265.5,11.6 276.6,20.7 										"/>
									</g>
									<g>
										<polygon points="268.6,27.2 259.8,19.8 269.8,25.6 										"/>
									</g>
								</g>
								<g>
									<g>
										<polygon points="306.8,12.9 312.2,-0.5 308.7,13.5 										"/>
									</g>
									<g>
										<polygon points="315.9,15.7 324.4,4.1 317.6,16.8 										"/>
									</g>
									<g>
										<polygon points="322.1,20.7 333.3,11.6 323.5,22.2 										"/>
									</g>
									<g>
										<polygon points="328.9,25.6 338.9,19.8 330.1,27.2 										"/>
									</g>
								</g>
							</g>
						</g>
					</g>
					<g>
						<path class="st5" d="M315.1,88.8c0,0,2.9-21.9,18.7-20.8c15.8,1.1,11.1,23,4.2,35.2c-7,12.3-24.5,30.9-24.5,30.9
							s-16.8-22.7-22.4-42.6s1.7-28.1,10.1-27.3C309.7,65,315.1,88.8,315.1,88.8z"/>
						<path class="st4" d="M332.7,82.1c0,0,12.1-24,11.7-31.3s-9.8-5.7-11.7,0.7c0,0-5.1-12-10.9-5.5
							C316,52.5,332.7,82.1,332.7,82.1z"/>
					</g>
				</g>
			</g>
			<g>
				<g>
					<path class="st1" d="M193,170c3.2-0.2,6.4,0.3,9.6,0.6c1.6,0.2,3.2,0.3,4.7,0.5c1.8,0.2,3.5,0.1,5.2-0.5
						c0.8-0.3,1.6-0.7,2.4-1.1c0.8-0.4,1.5-0.8,2.2-1.2c1.3-0.8,2.7-1.6,4-2.4c0.3-0.2,0.7-0.5,1-0.6c3.7-1.8,7.5-3.2,11.6-3.5
						c3.6-0.3,7,0.3,10.3,1.8c3.1,1.5,5.2,4,7,6.9c0.8,1.3,1.5,2.7,2.2,4.1c0.9,1.8,2.3,3.2,3.9,4.3c2.1,1.4,4.4,2.5,6.9,3.2
						c1.5,0.5,3,0.9,4.4,1.5c5.1,2.1,8.6,5.7,10.1,11c1,3.5,0.6,7-1.3,10.2c-2.1,3.5-4.8,6.3-8.4,8.3c-0.4,0.2-0.9,0.5-1.3,0.8
						c-3.2,2-6.7,3-10.3,3.8c-3.8,0.7-7.6,1-11.5,1.3c-2.9,0.3-5.4,1.3-7.6,3.3c-0.7,0.6-1.4,1.2-2,1.9c-3.8,3.9-8.4,6.2-13.7,7.5
						c-5,1.3-10,0.9-14.9-0.3c-5.3-1.4-10.4-3.5-14.9-6.7c-0.9-0.6-1.8-1.2-2.7-1.8c-1.7-1-3.5-1.4-5.5-1.1
						c-1.9,0.2-3.8,0.5-5.7,0.7c-2.7,0.3-5.3,0.6-8,0.6c-3.8,0-7.3-1.1-10.4-3.2c-2.7-1.8-4.3-4.2-4.9-7.4c-0.3-2.2-0.5-4.3-0.2-6.5
						c0.6-4.4,2.9-7.9,6-10.9c2.2-2.1,4.6-3.9,7.3-5.5c1.5-0.8,2.9-1.8,4.4-2.6c1.6-0.8,2.5-2.1,2.7-3.9c0.2-1.2,0.5-2.4,0.9-3.6
						c0.9-3,2.8-5.2,5.5-6.8c2.8-1.6,5.9-2.4,9.1-2.7C191.6,170,192.3,170,193,170z"/>
					<g>
						<path d="M171,171.2c0.1,0.1,0.1,0.2,0.2,0.3c1.1,1.3,2.2,2.5,3.3,3.8c0,0.1,0.1,0.1,0.1,0.2c0.1,0.1,0.1,0.3-0.1,0.4
							c-0.1,0.1-0.2,0.1-0.4,0c-0.2-0.1-0.3-0.3-0.5-0.5c-0.8-0.9-1.6-1.8-2.4-2.7c-0.1-0.1-0.1-0.1-0.2-0.3c0,0.1,0,0.2,0,0.3
							c0.1,2,0.3,3.9,0.4,5.9c0,0.4,0.1,0.8,0.1,1.2c0,0.1,0,0.1,0,0.2c0,0.2-0.1,0.3-0.3,0.3c-0.2,0-0.3-0.1-0.3-0.3
							c0-0.1,0-0.2,0-0.3c-0.2-2.5-0.4-5-0.6-7.4c0-0.1,0-0.2,0-0.4c-0.1,0.1-0.2,0.2-0.3,0.2c-1,0.9-2,1.7-3,2.6
							c-0.1,0.1-0.2,0.1-0.3,0.2c-0.1,0.1-0.3,0-0.4-0.1c-0.1-0.1-0.1-0.2,0-0.4c0.1-0.1,0.1-0.2,0.2-0.2c1-0.9,2.1-1.8,3.1-2.7
							c0.1-0.1,0.2-0.1,0.3-0.2c-0.1-0.1-0.1-0.2-0.2-0.2c-1.1-1.3-2.2-2.7-3.3-4c-0.1-0.1-0.1-0.2-0.2-0.3c-0.1-0.2-0.1-0.4,0-0.5
							c0.2-0.1,0.3-0.1,0.5,0.2c1.1,1.3,2.1,2.6,3.2,3.9c0,0,0.1,0.1,0.1,0.1c0-0.1,0-0.2,0-0.2c-0.2-2.2-0.3-4.4-0.5-6.6
							c0-0.1,0-0.2,0-0.3c0-0.1,0.1-0.2,0.3-0.2c0.1,0,0.3,0.1,0.3,0.2c0,0.1,0,0.3,0.1,0.4c0.2,2.1,0.3,4.2,0.5,6.3
							c0,0.1,0,0.3,0,0.5c0.1-0.1,0.2-0.2,0.3-0.2c1.2-1.1,2.4-2.1,3.6-3.2c0.1-0.1,0.2-0.2,0.3-0.2c0.1-0.1,0.3-0.1,0.4,0
							c0.1,0.1,0.1,0.3,0,0.4c-0.1,0.1-0.1,0.2-0.2,0.2c-1.3,1.2-2.7,2.3-4,3.5C171.2,171.1,171.1,171.1,171,171.2z"/>
						<path class="st1" d="M260.1,157.8c-0.1-0.1-0.1-0.2-0.2-0.2c-1-1.1-2-2.3-3-3.4c0-0.1-0.1-0.1-0.1-0.2c-0.1-0.1-0.1-0.3,0-0.3
							c0.1-0.1,0.2-0.1,0.3,0c0.1,0.1,0.3,0.3,0.4,0.4c0.7,0.8,1.5,1.7,2.2,2.5c0.1,0.1,0.1,0.1,0.2,0.2c0-0.1,0-0.2,0-0.3
							c-0.1-1.8-0.3-3.6-0.4-5.4c0-0.4,0-0.7-0.1-1.1c0,0,0-0.1,0-0.1c0-0.2,0.1-0.3,0.2-0.3c0.1,0,0.3,0.1,0.3,0.3
							c0,0.1,0,0.2,0,0.3c0.2,2.3,0.3,4.5,0.5,6.8c0,0.1,0,0.2,0,0.3c0.1-0.1,0.2-0.2,0.3-0.2c0.9-0.8,1.8-1.6,2.7-2.4
							c0.1-0.1,0.1-0.1,0.2-0.2c0.1-0.1,0.3,0,0.3,0.1c0.1,0.1,0.1,0.2,0,0.3c-0.1,0.1-0.1,0.1-0.2,0.2c-1,0.8-1.9,1.7-2.9,2.5
							c-0.1,0.1-0.1,0.1-0.2,0.2c0.1,0.1,0.1,0.2,0.2,0.2c1,1.2,2,2.4,3,3.7c0.1,0.1,0.1,0.2,0.2,0.2c0.1,0.2,0.1,0.4,0,0.5
							c-0.1,0.1-0.3,0-0.4-0.1c-1-1.2-1.9-2.4-2.9-3.6c0,0-0.1-0.1-0.1-0.1c0,0.1,0,0.1,0,0.2c0.1,2,0.3,4,0.4,6c0,0.1,0,0.2,0,0.3
							c0,0.1-0.1,0.2-0.2,0.2c-0.1,0-0.2-0.1-0.3-0.2c0-0.1,0-0.2,0-0.4c-0.1-1.9-0.3-3.8-0.4-5.7c0-0.1,0-0.3,0-0.4
							c-0.1,0.1-0.2,0.2-0.3,0.2c-1.1,1-2.2,1.9-3.3,2.9c-0.1,0.1-0.2,0.1-0.3,0.2c-0.1,0.1-0.3,0.1-0.3,0c-0.1-0.1-0.1-0.2,0-0.4
							c0.1-0.1,0.1-0.1,0.2-0.2c1.2-1.1,2.5-2.1,3.7-3.2C259.9,157.9,260,157.9,260.1,157.8z"/>
						<path class="st1" d="M317,235.5c0-0.9-0.1-1.7-0.1-2.5c-0.1-2.3-0.2-4.6-0.3-7c0-0.2,0-0.4,0-0.6c0-0.3,0.3-0.5,0.6-0.5
							c0.3,0,0.5,0.2,0.5,0.5c0,0.3,0.1,0.6,0.1,0.9c0.1,2.8,0.2,5.6,0.3,8.4c0,0.1,0,0.3,0,0.5c0.1-0.1,0.3-0.2,0.3-0.2
							c1.4-1.3,2.9-2.6,4.3-4c0,0,0.1-0.1,0.1-0.1c0.3-0.2,0.6-0.2,0.8,0c0.2,0.2,0.2,0.6,0,0.8c-0.7,0.7-1.4,1.3-2.1,2
							c-1,0.9-2.1,1.9-3.2,2.9c0.2,0.2,0.4,0.3,0.6,0.4c1.5,0.9,3.1,1.8,4.6,2.8c0.1,0.1,0.3,0.2,0.4,0.3c0.2,0.2,0.2,0.4,0.1,0.6
							c-0.1,0.2-0.4,0.4-0.6,0.3c-0.2-0.1-0.3-0.1-0.5-0.2c-1.4-0.8-2.8-1.6-4.1-2.4c-0.2-0.1-0.4-0.2-0.6-0.4c0,0.3,0,0.6,0,0.9
							c0.1,2.4,0.2,4.8,0.3,7.2c0,0.5,0,0.9,0,1.4c0,0.1,0,0.3-0.1,0.4c-0.1,0.2-0.2,0.4-0.5,0.4s-0.4-0.1-0.5-0.4
							c0-0.1,0-0.3,0-0.4c-0.1-2.4-0.2-4.9-0.3-7.3c0-0.5,0-1.1-0.1-1.6c0-0.2,0-0.4-0.1-0.7c-0.2,0.2-0.4,0.4-0.6,0.5
							c-1.3,1.1-2.5,2.2-3.8,3.2c-0.1,0.1-0.2,0.2-0.3,0.2c-0.3,0.2-0.6,0.2-0.8-0.1c-0.2-0.2-0.1-0.5,0.2-0.7
							c0.9-0.8,1.7-1.5,2.6-2.3c0.6-0.6,1.3-1.1,1.9-1.7c0.1-0.1,0.2-0.1,0.4-0.2c-0.2-0.2-0.4-0.3-0.5-0.4c-1.7-1.1-3.4-2.3-5-3.4
							c-0.3-0.2-0.4-0.4-0.3-0.7c0.1-0.2,0.4-0.3,0.7-0.2c0.2,0.1,0.4,0.2,0.6,0.3c1.4,0.9,2.8,1.9,4.3,2.8
							C316.6,235.3,316.8,235.4,317,235.5z"/>
						<path class="st2" d="M253.6,241c0,0.7,0,1.5,0.1,2.2c0.1,1,0.4,1.9,1,2.7c0.2,0.3,0.5,0.5,0.8,0.5c0.8,0.1,1.5,0.3,2.3,0.4
							c0.2,0,0.3,0,0.5,0.1c0.3,0.1,0.5,0.3,0.5,0.6c0,0.3-0.1,0.6-0.4,0.7c-0.4,0.2-0.9,0.3-1.3,0.4c-0.9,0.3-1.8,0.7-2.5,1.3
							c-1,0.8-1.5,1.9-1.6,3.1c-0.1,0.9-0.1,1.9-0.1,2.8c0,0.4,0,0.8,0,1.2c0,0.4-0.2,0.6-0.5,0.6c-0.3,0-0.5-0.2-0.5-0.5
							c-0.1-0.7-0.2-1.4-0.3-2c-0.2-1.2-0.4-2.3-0.7-3.5c0-0.1-0.1-0.2-0.1-0.3c-0.5-1.8-1.5-2.7-3.7-3c-0.2,0-0.4,0-0.6-0.1
							c-0.3-0.1-0.5-0.2-0.5-0.5c0-0.3,0.1-0.5,0.4-0.6c0.2-0.1,0.4-0.1,0.7-0.2c0.6-0.2,1.2-0.3,1.8-0.5c1-0.3,1.7-0.9,2.2-1.8
							c0.6-1,0.9-2.1,1.1-3.3c0.1-0.9,0.2-1.7,0.3-2.6c0-0.2,0-0.4,0.2-0.5c0.1-0.1,0.3-0.3,0.5-0.3c0.1,0,0.3,0.2,0.3,0.4
							c0.1,0.1,0,0.3,0,0.5C253.5,239.6,253.5,240.3,253.6,241C253.5,241,253.6,241,253.6,241z"/>
						<path class="st2" d="M219,196c-0.1-0.7-0.4-1.3-0.9-1.9c-0.2-0.2-0.4-0.3-0.6-0.3c-0.6-0.1-1.1-0.1-1.7-0.2
							c-0.1,0-0.2,0-0.3,0c-0.2,0-0.4-0.2-0.4-0.4s0-0.4,0.2-0.5c0.3-0.1,0.6-0.3,0.9-0.4c0.7-0.2,1.2-0.6,1.7-1.1
							c0.7-0.6,1-1.4,1-2.3c0-0.7,0-1.3-0.1-2c0-0.3,0-0.6,0-0.9c0-0.3,0.1-0.5,0.3-0.5c0.2,0,0.3,0.1,0.4,0.4
							c0.1,0.5,0.2,1,0.3,1.4c0.2,0.8,0.4,1.6,0.6,2.5c0,0.1,0.1,0.2,0.1,0.2c0.5,1.2,1.2,1.9,2.8,1.9c0.1,0,0.3,0,0.4,0
							c0.2,0,0.3,0.1,0.4,0.3c0,0.2-0.1,0.4-0.2,0.4c-0.1,0.1-0.3,0.1-0.5,0.2c-0.4,0.1-0.8,0.3-1.2,0.4c-0.7,0.3-1.1,0.7-1.5,1.4
							c-0.4,0.8-0.6,1.6-0.6,2.4c0,0.6-0.1,1.2-0.1,1.9c0,0.1,0,0.3-0.1,0.4c-0.1,0.1-0.2,0.2-0.3,0.2c-0.1,0-0.2-0.1-0.3-0.2
							c-0.1-0.1,0-0.2-0.1-0.3C219.3,198.6,219,196.5,219,196z"/>
						<path class="st1" d="M310.4,175.2c0,0.6,0,1.3,0.1,1.9c0.1,0.9,0.4,1.7,0.9,2.4c0.2,0.3,0.4,0.4,0.7,0.5
							c0.7,0.1,1.4,0.2,2,0.4c0.1,0,0.3,0,0.4,0.1c0.3,0.1,0.4,0.2,0.5,0.5c0,0.3-0.1,0.5-0.3,0.6c-0.4,0.1-0.8,0.3-1.2,0.4
							c-0.8,0.2-1.6,0.6-2.3,1.2c-0.9,0.7-1.4,1.7-1.4,2.8c-0.1,0.8-0.1,1.7-0.1,2.5c0,0.4,0,0.7,0,1.1c0,0.4-0.2,0.6-0.4,0.6
							c-0.3,0-0.4-0.2-0.5-0.5c-0.1-0.6-0.2-1.2-0.3-1.8c-0.2-1-0.4-2.1-0.6-3.1c0-0.1-0.1-0.2-0.1-0.3c-0.5-1.6-1.3-2.4-3.3-2.7
							c-0.2,0-0.4,0-0.5,0c-0.2,0-0.4-0.2-0.4-0.4c0-0.3,0.1-0.4,0.3-0.5c0.2-0.1,0.4-0.1,0.6-0.2c0.5-0.1,1.1-0.3,1.6-0.4
							c0.9-0.3,1.5-0.8,1.9-1.6c0.6-0.9,0.8-1.9,1-2.9c0.1-0.8,0.2-1.5,0.3-2.3c0-0.2,0-0.3,0.1-0.5c0.1-0.1,0.3-0.2,0.4-0.2
							c0.1,0,0.2,0.2,0.3,0.3c0.1,0.1,0,0.3,0,0.4C310.3,173.9,310.3,174.6,310.4,175.2C310.4,175.2,310.4,175.2,310.4,175.2z"/>
					</g>
					<g>
						<path class="st4" d="M218.4,226c22-17.2,44-18.8,54.5-8.6c9.3,9,16.4,28.6,19,40l7.4-1.9l0,0c0,0-10.6-53.6-49-48.6
							s-50.7,27.9-50.7,27.9c-4.7,5.9-6.2,16.5-6.6,22.2l12.1,1C204,249.4,205.1,236.5,218.4,226z"/>
						<path class="st2" d="M272.9,217.4c-10.5-10.2-32.5-8.6-54.5,8.6c-13.3,10.5-14.5,23.4-13.3,32l6,0.5c-0.4-6.4,1-14.8,7.6-23.5
							c13.8-18.1,42.8-23.6,51.8-13.2c6.5,7.5,12.4,26.8,15.2,37.1l6.1-1.5C289.3,246.1,282.2,226.4,272.9,217.4z"/>
						<path class="st3" d="M270.6,221.9c-9-10.4-38-4.9-51.8,13.2c-6.6,8.6-8,17-7.6,23.5l8.4,0.7c1.2-11.8,7.6-24.1,14.3-27.8
							c9.4-5.3,19.4-9.2,30-4.8c7.1,3,12.8,21.9,15.7,34l6.3-1.6C283,248.7,277.1,229.3,270.6,221.9z"/>
					</g>
					<path class="st2" d="M314,142.5c0,0-43.9-5.3-43.6,38.3c0.2,33.2,30.2,42.3,51.8,31.9c0,0-30.7,2.5-34.8-30.5
						C283.2,149.2,314,142.5,314,142.5z"/>
				</g>
			</g>
			<g>
				<path class="st6" d="M83.4,10.2c-16-7.3-21.8-7.4-22.7-6.3c-0.1,0.1-0.2,0.3-0.1,0.9c0.7,2.9,7,8.6,19.3,16.3
					c0.3-2.6,0.9-5.1,1.9-7.5C82.3,12.3,82.8,11.2,83.4,10.2z"/>
				<path class="st6" d="M137.9,49.1c14.4,5.2,22.6,6.3,25.7,5.1c0.9-0.4,1.1-0.8,1.1-1c0.4-1.1-3.1-5.6-19.6-14.3
					C143.8,42.7,141.4,46.2,137.9,49.1z"/>
				<path class="st3" d="M79.8,23.9c-0.4,16.2,11.6,33.1,34.5,32.3c9.2-0.3,16-2.2,21.1-5.3c-7.7-2.9-16.6-6.7-26.5-11.5
					C97.6,34,87.7,28.7,79.8,23.9z"/>
				<path class="st2" d="M146.1,36.4c-0.1,0-0.2-0.1-0.3-0.1c-0.2,0.8-0.4,1.7-0.7,2.5c16.5,8.8,20.1,13.2,19.6,14.3
					c-0.1,0.2-0.2,0.6-1.1,1c-3.1,1.2-11.3,0.2-25.7-5.1c-7.6-2.8-16.8-6.7-28-12C97.6,31.1,87.6,25.7,80,21
					C67.6,13.4,61.3,7.6,60.6,4.7c-0.1-0.6,0-0.8,0.1-0.9c0.9-1.1,6.7-1.1,22.7,6.3c0.4-0.8,0.9-1.5,1.4-2.2c-0.1,0-0.1-0.1-0.2-0.1
					C62.5-2.3,59.7,1.1,58.8,2.3c-0.5,0.6-1,1.6-0.6,3c0.9,4.1,8.8,10.8,21.6,18.5c8,4.8,17.8,10.1,29,15.5
					c9.9,4.7,18.8,8.6,26.5,11.5c11,4.1,19.6,6.3,25,6.3c1.7,0,3.1-0.2,4.2-0.6c1.3-0.5,2.2-1.3,2.6-2.4
					C167.7,52.6,169.2,48.7,146.1,36.4z"/>
				<path class="st3" d="M146.1,22c-2.9-17-18.7-27.5-29.6-28.6C107.6-7.5,93.9-5.3,84.8,8c-0.5,0.7-0.9,1.4-1.4,2.2
					c-0.6,1.1-1.1,2.2-1.6,3.4c-0.9,2.4-1.6,4.9-1.9,7.5c7.6,4.7,17.6,10.1,29.9,16.1c11.1,5.3,20.4,9.2,28,12
					c3.5-2.8,5.9-6.3,7.3-10.3c0.3-0.8,0.5-1.6,0.7-2.5C147,31.8,146.9,27,146.1,22z"/>
			</g>
		</g>
		<g>
			<g>
				<g>
					<g>
						<path class="st1" d="M709.6,502.1c-0.9,0.3-1.6,0.6-2.4,0.9c-2.9,1.2-5.9,2.2-9,2.7c-0.2,0-0.4,0.1-0.7,0.1
							c-6.2,0.7-11.1-3.5-11.3-9.9c-0.1-3.2,0.9-6.1,2.8-8.7c0.5-0.7,1.1-1.4,1.7-2.3c-0.5-0.2-0.8-0.3-1.2-0.5
							c-2.7-0.8-5.2-1.9-7.5-3.5c-1.3-0.9-2.5-1.9-3.5-3c-2.2-2.3-2.3-4.9-1-7.7c0.6-1.4,1.6-2.5,2.8-3.5c2.1-1.7,4.5-2.8,7.2-3.2
							c0.2,0,0.4-0.1,0.5-0.1c0,0,0.1-0.1,0.2-0.2c-0.3-0.3-0.5-0.7-0.8-1.1c-1.5-1.9-2.5-4-2.9-6.4c-0.6-3.4,0.4-6.1,3.3-8.1
							c3.4-2.4,7.3-3.3,11.4-2.5c0.9,0.2,1.9,0.4,3,0.6c-0.1-0.6-0.1-1.2-0.2-1.7c-0.5-3.3-0.1-6.4,1.7-9.3c2-3.1,5.2-4.4,8.7-3.5
							c1.8,0.5,3.3,1.3,4.6,2.6c1.6,1.5,2.9,3.2,3.9,5.2c0.2,0.3,0.3,0.6,0.5,1c0,0,0.1,0,0.3,0.1c0.3-0.5,0.6-1.1,1-1.7
							c2.6-4.2,6.1-7.1,11-8.2c2.3-0.6,4.6-0.5,6.8,0.6c3.2,1.6,4.6,4.4,4.8,7.9c0.1,1.8-0.1,3.6-0.2,5.5c0,0.4-0.1,0.9-0.1,1.5
							c0.6-0.3,0.9-0.5,1.3-0.7c2.7-1.5,5.3-1.6,8.1-0.3c3.4,1.6,5.9,3.9,6.8,7.7c0.7,2.9,0.4,5.7-0.9,8.4c-1.1,2.1-2.4,4.2-3.6,6.3
							c-0.1,0.2-0.3,0.4-0.5,0.8c1,0.4,2,0.8,2.9,1.2c4.1,1.7,6.6,4.7,7,9.1c0.4,3.8-1.1,7.1-3.9,9.6c-2.1,2-4.8,3-7.6,3.4
							c-0.4,0.1-0.7,0.1-1.2,0.2c0.2,0.4,0.3,0.6,0.4,0.9c1.1,2.1,2.2,4.3,2.5,6.7c0.2,1.7,0,3.3-0.6,4.8c-0.7,1.9-2.2,3.1-4.1,3.7
							c-2.3,0.8-4.6,0.6-6.9,0.1c-2.3-0.5-4.5-1.4-6.6-2.5c-0.9-0.5-1.8-1-2.9-1.5c-0.4,1.1-0.8,2-1.2,3c-0.7,1.8-1.6,3.6-2.9,5.1
							c-3.2,3.7-7.3,4.7-11.8,2.7c-3-1.4-5.5-3.5-7.1-6.4c-0.8-1.5-1.4-3-2.1-4.6C710,503.1,709.8,502.6,709.6,502.1z"/>
						<g>
							<path class="st2" d="M733.4,428.2c-9.6-8.4-26.3-15.5-39.8-13.2c-11.4,1.9-15.8,20.3-16.9,25.9h8.2
								c0.1-5.6,1.6-21.9,17.2-19.5c18.2,2.9,32.7,10.3,31.9,23.3l7.5,1.2C741.6,443,741.1,434.9,733.4,428.2z"/>
							<path class="st5" d="M688.5,404.6c28.3-3.9,60.6,8.8,64,43.1l5.5,0.9c-0.7-3.5-3.2-14.1-12-32.3c-11-22.6-43.9-22.3-70-17.3
								c-22.9,4.4-21.7,34.7-21.1,42h8.5C663.2,434.2,663.6,408,688.5,404.6z"/>
							<path class="st4" d="M693.6,415.1c13.5-2.3,30.2,4.8,39.8,13.2c7.7,6.7,8.2,14.8,8.1,17.7l11.1,1.8
								c-3.4-34.4-35.8-47-64-43.1c-24.9,3.4-25.3,29.6-25,36.3h13.2C677.8,435.4,682.2,417,693.6,415.1z"/>
						</g>
					</g>
					<g>
						<g>
							<path d="M721.4,465.8c0.1,0.1,0.2,0.3,0.3,0.4c1.4,1.7,2.8,3.4,4.2,5.1c0.1,0.1,0.1,0.2,0.2,0.2c0.1,0.2,0.1,0.4-0.1,0.5
								c-0.2,0.1-0.3,0.1-0.5-0.1c-0.2-0.2-0.4-0.4-0.6-0.6c-1-1.2-2.1-2.4-3.1-3.7c-0.1-0.1-0.2-0.2-0.3-0.3c0,0.2,0,0.3,0,0.4
								c0.1,2.6,0.2,5.2,0.3,7.7c0,0.5,0,1,0.1,1.5c0,0.1,0,0.1,0,0.2c0,0.2-0.2,0.4-0.4,0.4c-0.2,0-0.4-0.1-0.4-0.4
								c0-0.1,0-0.3,0-0.4c-0.2-3.3-0.3-6.5-0.4-9.8c0-0.1,0-0.3,0-0.5c-0.2,0.1-0.3,0.2-0.4,0.3c-1.3,1.1-2.7,2.2-4,3.3
								c-0.1,0.1-0.2,0.2-0.3,0.2c-0.2,0.1-0.4,0-0.5-0.1c-0.1-0.2-0.1-0.3,0-0.5c0.1-0.1,0.2-0.2,0.3-0.3c1.4-1.2,2.8-2.3,4.2-3.5
								c0.1-0.1,0.2-0.2,0.4-0.3c-0.1-0.1-0.2-0.2-0.3-0.3c-1.4-1.8-2.8-3.6-4.2-5.4c-0.1-0.1-0.2-0.2-0.2-0.3
								c-0.2-0.3-0.1-0.5,0.1-0.7c0.2-0.1,0.4-0.1,0.6,0.2c1.4,1.8,2.7,3.5,4.1,5.3c0,0.1,0.1,0.1,0.2,0.2c0-0.1,0-0.2,0-0.3
								c-0.1-2.9-0.3-5.8-0.4-8.7c0-0.1,0-0.3,0-0.4c0-0.2,0.2-0.3,0.4-0.3c0.2,0,0.3,0.1,0.4,0.3c0,0.2,0,0.3,0.1,0.5
								c0.1,2.8,0.2,5.5,0.4,8.3c0,0.2,0,0.4,0,0.6c0.2-0.1,0.3-0.2,0.4-0.3c1.6-1.3,3.3-2.7,4.9-4c0.1-0.1,0.2-0.2,0.4-0.3
								c0.2-0.1,0.4-0.1,0.5,0.1c0.1,0.1,0.1,0.3,0,0.5c-0.1,0.1-0.2,0.2-0.3,0.3c-1.8,1.5-3.6,3-5.5,4.5
								C721.6,465.6,721.5,465.7,721.4,465.8z"/>
							<path class="st1" d="M794.1,356.4c0-0.9,0.1-1.7,0.1-2.5c0.1-2.3,0.1-4.6,0.2-7c0-0.2,0-0.4,0.1-0.6c0.1-0.3,0.3-0.5,0.6-0.5
								c0.3,0,0.5,0.2,0.5,0.5c0,0.3,0,0.6,0,0.9c-0.1,2.8-0.2,5.6-0.2,8.4c0,0.1,0,0.3,0,0.5c0.2-0.1,0.3-0.1,0.4-0.2
								c1.5-1.2,3-2.4,4.6-3.7c0,0,0.1-0.1,0.1-0.1c0.3-0.2,0.6-0.2,0.8,0c0.2,0.2,0.2,0.6-0.1,0.8c-0.7,0.6-1.5,1.2-2.2,1.8
								c-1.1,0.9-2.2,1.7-3.4,2.7c0.2,0.2,0.4,0.3,0.5,0.4c1.5,1,3,2,4.4,3c0.1,0.1,0.3,0.2,0.4,0.3c0.2,0.2,0.2,0.4,0.1,0.6
								c-0.1,0.2-0.4,0.3-0.7,0.2c-0.2-0.1-0.3-0.2-0.5-0.3c-1.3-0.9-2.6-1.8-4-2.7c-0.2-0.1-0.3-0.2-0.6-0.4c0,0.3-0.1,0.6-0.1,0.9
								c-0.1,2.4-0.1,4.8-0.2,7.2c0,0.5-0.1,0.9-0.1,1.4c0,0.1,0,0.3-0.1,0.4c-0.1,0.2-0.2,0.4-0.5,0.3c-0.2,0-0.4-0.2-0.4-0.4
								c0-0.1,0-0.3,0-0.4c0-2.4,0.1-4.9,0.1-7.3c0-0.5,0-1.1,0-1.6c0-0.2,0-0.4,0-0.7c-0.3,0.2-0.4,0.3-0.6,0.5c-1.3,1-2.7,2-4,3
								c-0.1,0.1-0.2,0.2-0.3,0.2c-0.3,0.2-0.6,0.1-0.8-0.1c-0.1-0.2-0.1-0.5,0.2-0.7c0.9-0.7,1.8-1.4,2.7-2.1
								c0.7-0.5,1.3-1.1,2-1.6c0.1-0.1,0.2-0.1,0.4-0.2c-0.2-0.2-0.3-0.3-0.5-0.4c-1.6-1.2-3.2-2.5-4.8-3.7
								c-0.3-0.2-0.4-0.5-0.2-0.7c0.1-0.2,0.4-0.3,0.7-0.2c0.2,0.1,0.4,0.2,0.5,0.3c1.4,1,2.7,2,4.1,3
								C793.7,356.2,793.8,356.3,794.1,356.4z"/>
							<path class="st1" d="M706.8,369.9c0,0.5,0,1,0,1.6c0,0.7,0.3,1.4,0.7,1.9c0.2,0.2,0.3,0.4,0.6,0.4c0.5,0.1,1.1,0.2,1.6,0.3
								c0.1,0,0.2,0,0.3,0.1c0.2,0.1,0.3,0.2,0.4,0.4s-0.1,0.4-0.3,0.5c-0.3,0.1-0.6,0.2-0.9,0.3c-0.7,0.2-1.3,0.4-1.8,0.9
								c-0.7,0.6-1.1,1.3-1.2,2.2c-0.1,0.7-0.1,1.3-0.2,2c0,0.3,0,0.6,0,0.9c0,0.3-0.2,0.4-0.4,0.4c-0.2,0-0.3-0.2-0.3-0.4
								c-0.1-0.5-0.1-1-0.2-1.4c-0.1-0.8-0.3-1.7-0.4-2.5c0-0.1,0-0.2-0.1-0.2c-0.4-1.3-1-2-2.6-2.2c-0.1,0-0.3,0-0.4-0.1
								c-0.2,0-0.3-0.2-0.3-0.4c0-0.2,0.1-0.3,0.3-0.4c0.2-0.1,0.3-0.1,0.5-0.1c0.4-0.1,0.9-0.2,1.3-0.3c0.7-0.2,1.2-0.6,1.6-1.2
								c0.5-0.7,0.7-1.5,0.8-2.3c0.1-0.6,0.2-1.2,0.3-1.8c0-0.1,0-0.3,0.1-0.4c0.1-0.1,0.2-0.2,0.3-0.2c0.1,0,0.2,0.2,0.2,0.3
								c0,0.1,0,0.2,0,0.3C706.7,368.9,706.7,369.4,706.8,369.9C706.7,369.9,706.8,369.9,706.8,369.9z"/>
							<path d="M685.3,390.2c0.1,1.1,0.2,2.4,0.4,3.6c0.2,1.2,0.4,1.4,1.6,1.6c0.3,0.1,0.6,0,0.9,0.1c0.3,0,0.6,0.2,0.7,0.6
								c0.1,0.3-0.1,0.7-0.4,0.8c-0.3,0.1-0.6,0.2-0.9,0.3c-1.6,0.3-2.4,1.4-2.5,3c-0.1,1.2-0.1,2.4-0.1,3.6c0,0.2,0,0.5-0.1,0.7
								c-0.1,0.3-0.3,0.5-0.6,0.5c-0.3,0-0.5-0.2-0.7-0.5c-0.1-0.2-0.1-0.4-0.1-0.6c-0.1-1.1-0.2-2.3-0.4-3.4
								c-0.1-0.7-0.3-1.3-0.6-1.9c-0.4-0.9-1.1-1.4-2-1.5c-0.3,0-0.5,0-0.8-0.1c-0.4-0.1-0.7-0.4-0.7-0.7c0-0.4,0.2-0.6,0.5-0.8
								c0.3-0.1,0.6-0.2,0.9-0.3c1.4-0.4,2.3-1.3,2.8-2.6c0.4-1.1,0.6-2.3,0.7-3.5c0.1-0.4,0.1-0.8,0.2-1.2c0.1-0.5,0.4-0.7,0.7-0.6
								c0.3,0,0.5,0.3,0.6,0.7C685.3,388.8,685.3,389.5,685.3,390.2z"/>
							<path d="M836.5,388.5c-0.2,1.1-0.3,2.3-0.6,3.5c-0.2,1.2-0.5,1.3-1.6,1.5c-0.3,0.1-0.6,0-0.9,0.1c-0.3,0-0.6,0.2-0.7,0.6
								c-0.1,0.3,0,0.6,0.4,0.8c0.3,0.1,0.6,0.2,0.9,0.3c1.6,0.3,2.3,1.3,2.3,2.9c0,1.1,0,2.3-0.1,3.5c0,0.2,0,0.5,0,0.7
								c0.1,0.3,0.3,0.5,0.6,0.5c0.3,0,0.5-0.2,0.7-0.4c0.1-0.2,0.1-0.4,0.1-0.5c0.2-1.1,0.4-2.2,0.6-3.3c0.1-0.6,0.4-1.2,0.7-1.8
								c0.4-0.9,1.1-1.3,2.1-1.4c0.3,0,0.5,0,0.8-0.1c0.4-0.1,0.7-0.4,0.7-0.7c0-0.4-0.2-0.6-0.5-0.7c-0.3-0.1-0.6-0.2-0.9-0.2
								c-1.3-0.4-2.1-1.2-2.6-2.5c-0.4-1.1-0.4-2.2-0.5-3.4c0-0.4,0-0.8-0.1-1.2c-0.1-0.4-0.3-0.7-0.7-0.6c-0.3,0-0.5,0.3-0.6,0.7
								C836.6,387.1,836.6,387.7,836.5,388.5z"/>
							<path d="M741,347.9c0.1,0.1,0.2,0.3,0.3,0.4c1.4,1.7,2.8,3.4,4.2,5.1c0.1,0.1,0.1,0.2,0.2,0.2c0.1,0.2,0.1,0.4-0.1,0.5
								c-0.2,0.1-0.3,0.1-0.5-0.1c-0.2-0.2-0.4-0.4-0.6-0.6c-1-1.2-2.1-2.4-3.1-3.7c-0.1-0.1-0.2-0.2-0.3-0.3c0,0.2,0,0.3,0,0.4
								c0.1,2.6,0.2,5.2,0.3,7.7c0,0.5,0,1,0.1,1.5c0,0.1,0,0.1,0,0.2c0,0.2-0.2,0.4-0.4,0.4c-0.2,0-0.4-0.1-0.4-0.4
								c0-0.1,0-0.3,0-0.4c-0.2-3.3-0.3-6.5-0.4-9.8c0-0.1,0-0.3,0-0.5c-0.2,0.1-0.3,0.2-0.4,0.3c-1.3,1.1-2.7,2.2-4,3.3
								c-0.1,0.1-0.2,0.2-0.3,0.2c-0.2,0.1-0.4,0-0.5-0.1c-0.1-0.2-0.1-0.3,0-0.5c0.1-0.1,0.2-0.2,0.3-0.3c1.4-1.2,2.8-2.3,4.2-3.5
								c0.1-0.1,0.2-0.2,0.4-0.3c-0.1-0.1-0.2-0.2-0.3-0.3c-1.4-1.8-2.8-3.6-4.2-5.4c-0.1-0.1-0.2-0.2-0.2-0.3
								c-0.2-0.3-0.1-0.5,0.1-0.7c0.2-0.1,0.4-0.1,0.6,0.2c1.4,1.8,2.7,3.5,4.1,5.3c0,0.1,0.1,0.1,0.2,0.2c0-0.1,0-0.2,0-0.3
								c-0.1-2.9-0.3-5.8-0.4-8.7c0-0.1,0-0.3,0-0.4c0-0.2,0.2-0.3,0.4-0.3c0.2,0,0.3,0.1,0.4,0.3c0,0.2,0,0.3,0.1,0.5
								c0.1,2.8,0.2,5.5,0.4,8.3c0,0.2,0,0.4,0,0.6c0.2-0.1,0.3-0.2,0.4-0.3c1.6-1.3,3.3-2.7,4.9-4c0.1-0.1,0.2-0.2,0.4-0.3
								c0.2-0.1,0.4-0.1,0.5,0.1c0.1,0.1,0.1,0.3,0,0.5c-0.1,0.1-0.2,0.2-0.3,0.3c-1.8,1.5-3.6,3-5.5,4.5
								C741.3,347.7,741.2,347.8,741,347.9z"/>
						</g>
						<g>
							<path class="st1" d="M781.6,376.5c-21.6,0-27.1,18-40.2,18c11.2,0,19.8,18,40.2,18s29.1-18,40.2-18
								C808.7,394.5,803.2,376.5,781.6,376.5z"/>
							<circle class="st2" cx="781.6" cy="394.5" r="12.2"/>
							<path d="M821.8,394.5c-7.9,0.7-14-5.8-20.1-9.7c-3.1-2.1-6.2-3.8-9.6-4.9c-10.4-3.4-21.8-1.5-30.7,4.9
								c-6,4-12.2,10.4-20.1,9.7c5.7-0.5,10-4.5,14.2-8.2c4.3-3.8,8.9-7.5,14.5-9.5c11.2-4.1,24.2-1.8,33.3,5.8
								C809.1,387,814,393.7,821.8,394.5L821.8,394.5z"/>
							<g>
								<polygon points="780.6,376.5 781.6,362.1 782.6,376.5 								"/>
							</g>
							<g>
								<g>
									<g>
										<polygon points="772.3,377.8 768.7,363.8 774.2,377.2 										"/>
									</g>
									<g>
										<polygon points="763.3,381.1 756.5,368.4 765,380 										"/>
									</g>
									<g>
										<polygon points="757.4,386.5 747.7,375.8 758.8,385 										"/>
									</g>
									<g>
										<polygon points="750.8,391.5 742,384.1 752,389.9 										"/>
									</g>
								</g>
								<g>
									<g>
										<polygon points="789,377.2 794.4,363.8 790.9,377.8 										"/>
									</g>
									<g>
										<polygon points="798.1,380 806.6,368.4 799.8,381.1 										"/>
									</g>
									<g>
										<polygon points="804.3,385 815.5,375.8 805.7,386.5 										"/>
									</g>
									<g>
										<polygon points="811.1,389.9 821.1,384.1 812.3,391.5 										"/>
									</g>
								</g>
							</g>
						</g>
					</g>
					<g>
						<path class="st3" d="M797.3,453.1c0,0,2.9-21.9,18.7-20.8c15.8,1.1,11.1,23,4.2,35.2s-24.5,30.9-24.5,30.9
							s-16.8-22.7-22.4-42.6c-5.6-19.9,1.7-28.1,10.1-27.3C791.9,429.3,797.3,453.1,797.3,453.1z"/>
						<path class="st4" d="M814.9,446.4c0,0,12.1-24,11.7-31.3s-9.8-5.7-11.7,0.7c0,0-5.1-12-10.9-5.5
							C798.2,416.8,814.9,446.4,814.9,446.4z"/>
					</g>
				</g>
			</g>
			<g>
				<g>
					<path class="st1" d="M624.7,244c3.2-0.2,6.4,0.3,9.6,0.6c1.6,0.2,3.2,0.3,4.7,0.5c1.8,0.2,3.5,0.1,5.2-0.5
						c0.8-0.3,1.6-0.7,2.4-1.1c0.8-0.4,1.5-0.8,2.2-1.2c1.3-0.8,2.7-1.6,4-2.4c0.3-0.2,0.7-0.5,1-0.6c3.7-1.8,7.5-3.2,11.6-3.5
						c3.6-0.3,7,0.3,10.3,1.8c3.1,1.5,5.2,4,7,6.9c0.8,1.3,1.5,2.7,2.2,4.1c0.9,1.8,2.3,3.2,3.9,4.3c2.1,1.4,4.4,2.5,6.9,3.2
						c1.5,0.5,3,0.9,4.4,1.5c5.1,2.1,8.6,5.7,10.1,11c1,3.5,0.6,7-1.3,10.2c-2.1,3.5-4.8,6.3-8.4,8.3c-0.4,0.2-0.9,0.5-1.3,0.8
						c-3.2,2-6.7,3-10.3,3.8c-3.8,0.7-7.6,1-11.5,1.3c-2.9,0.3-5.4,1.3-7.6,3.3c-0.7,0.6-1.4,1.2-2,1.9c-3.8,3.9-8.4,6.2-13.7,7.5
						c-5,1.3-10,0.9-14.9-0.3c-5.3-1.4-10.4-3.5-14.9-6.7c-0.9-0.6-1.8-1.2-2.7-1.8c-1.7-1-3.5-1.4-5.5-1.1
						c-1.9,0.2-3.8,0.5-5.7,0.7c-2.7,0.3-5.3,0.6-8,0.6c-3.8,0-7.3-1.1-10.4-3.2c-2.7-1.8-4.3-4.2-4.9-7.4c-0.3-2.2-0.5-4.3-0.2-6.5
						c0.6-4.4,2.9-7.9,6-10.9c2.2-2.1,4.6-3.9,7.3-5.5c1.5-0.8,2.9-1.8,4.4-2.6c1.6-0.8,2.5-2.1,2.7-3.9c0.2-1.2,0.5-2.4,0.9-3.6
						c0.9-3,2.8-5.2,5.5-6.8c2.8-1.6,5.9-2.4,9.1-2.7C623.3,244,624,244,624.7,244z"/>
					<g>
						<path d="M602.7,245.3c0.1,0.1,0.1,0.2,0.2,0.3c1.1,1.3,2.2,2.5,3.3,3.8c0,0.1,0.1,0.1,0.1,0.2c0.1,0.1,0.1,0.3-0.1,0.4
							c-0.1,0.1-0.2,0.1-0.4,0c-0.2-0.1-0.3-0.3-0.5-0.5c-0.8-0.9-1.6-1.8-2.4-2.7c-0.1-0.1-0.1-0.1-0.2-0.3c0,0.1,0,0.2,0,0.3
							c0.1,2,0.3,3.9,0.4,5.9c0,0.4,0.1,0.8,0.1,1.2c0,0.1,0,0.1,0,0.2c0,0.2-0.1,0.3-0.3,0.3c-0.2,0-0.3-0.1-0.3-0.3
							c0-0.1,0-0.2,0-0.3c-0.2-2.5-0.4-5-0.6-7.4c0-0.1,0-0.2,0-0.4c-0.1,0.1-0.2,0.2-0.3,0.2c-1,0.9-2,1.7-3,2.6
							c-0.1,0.1-0.2,0.1-0.3,0.2c-0.1,0.1-0.3,0-0.4-0.1c-0.1-0.1-0.1-0.2,0-0.4c0.1-0.1,0.1-0.2,0.2-0.2c1-0.9,2.1-1.8,3.1-2.7
							c0.1-0.1,0.2-0.1,0.3-0.2c-0.1-0.1-0.1-0.2-0.2-0.2c-1.1-1.3-2.2-2.7-3.3-4c-0.1-0.1-0.1-0.2-0.2-0.3c-0.1-0.2-0.1-0.4,0-0.5
							c0.2-0.1,0.3,0,0.5,0.2c1.1,1.3,2.1,2.6,3.2,3.9c0,0,0.1,0.1,0.1,0.1c0-0.1,0-0.2,0-0.2c-0.2-2.2-0.3-4.4-0.5-6.6
							c0-0.1,0-0.2,0-0.3c0-0.1,0.1-0.2,0.3-0.2c0.1,0,0.3,0.1,0.3,0.2c0,0.1,0,0.3,0.1,0.4c0.2,2.1,0.3,4.2,0.5,6.3
							c0,0.1,0,0.3,0,0.5c0.1-0.1,0.2-0.2,0.3-0.2c1.2-1.1,2.4-2.1,3.6-3.2c0.1-0.1,0.2-0.2,0.3-0.2c0.1-0.1,0.3-0.1,0.4,0
							c0.1,0.1,0.1,0.3,0,0.4c-0.1,0.1-0.1,0.2-0.2,0.2c-1.3,1.2-2.7,2.3-4,3.5C602.9,245.1,602.8,245.2,602.7,245.3z"/>
						<path class="st1" d="M691.8,231.8c-0.1-0.1-0.1-0.2-0.2-0.3c-1-1.1-2-2.3-3-3.4c0-0.1-0.1-0.1-0.1-0.2c-0.1-0.1-0.1-0.3,0-0.3
							c0.1-0.1,0.2-0.1,0.3,0c0.1,0.1,0.3,0.3,0.4,0.4c0.7,0.8,1.5,1.7,2.2,2.5c0.1,0.1,0.1,0.1,0.2,0.2c0-0.1,0-0.2,0-0.3
							c-0.1-1.8-0.3-3.6-0.4-5.4c0-0.4,0-0.7-0.1-1.1c0,0,0-0.1,0-0.1c0-0.2,0.1-0.3,0.2-0.3c0.1,0,0.3,0.1,0.3,0.3
							c0,0.1,0,0.2,0,0.3c0.2,2.3,0.3,4.5,0.5,6.8c0,0.1,0,0.2,0,0.3c0.1-0.1,0.2-0.2,0.3-0.2c0.9-0.8,1.8-1.6,2.7-2.4
							c0.1-0.1,0.2-0.1,0.2-0.2c0.1-0.1,0.3,0,0.3,0.1c0.1,0.1,0.1,0.2,0,0.3c-0.1,0.1-0.1,0.1-0.2,0.2c-1,0.8-1.9,1.7-2.9,2.5
							c-0.1,0.1-0.1,0.1-0.2,0.2c0.1,0.1,0.1,0.2,0.2,0.2c1,1.2,2,2.4,3,3.7c0.1,0.1,0.1,0.2,0.2,0.2c0.1,0.2,0.1,0.4,0,0.5
							c-0.1,0.1-0.3,0-0.4-0.1c-1-1.2-1.9-2.4-2.9-3.6c0,0-0.1-0.1-0.1-0.1c0,0.1,0,0.1,0,0.2c0.1,2,0.3,4,0.4,6c0,0.1,0,0.2,0,0.3
							c0,0.1-0.1,0.2-0.2,0.2c-0.1,0-0.2-0.1-0.3-0.2c0-0.1,0-0.2,0-0.4c-0.1-1.9-0.3-3.8-0.4-5.7c0-0.1,0-0.3,0-0.4
							c-0.1,0.1-0.2,0.2-0.3,0.2c-1.1,1-2.2,1.9-3.3,2.9c-0.1,0.1-0.2,0.1-0.3,0.2c-0.1,0.1-0.3,0.1-0.3,0c-0.1-0.1-0.1-0.2,0-0.4
							c0.1-0.1,0.1-0.1,0.2-0.2c1.2-1.1,2.5-2.1,3.7-3.2C691.6,231.9,691.7,231.9,691.8,231.8z"/>
						<path class="st1" d="M748.8,309.5c0-0.9-0.1-1.7-0.1-2.5c-0.1-2.3-0.2-4.6-0.3-7c0-0.2,0-0.4,0-0.6c0-0.3,0.3-0.5,0.6-0.5
							c0.3,0,0.5,0.2,0.5,0.5c0,0.3,0.1,0.6,0.1,0.9c0.1,2.8,0.2,5.6,0.3,8.4c0,0.1,0,0.3,0,0.5c0.1-0.1,0.3-0.2,0.3-0.2
							c1.4-1.3,2.9-2.6,4.3-4c0,0,0.1-0.1,0.1-0.1c0.3-0.2,0.6-0.2,0.8,0c0.2,0.2,0.2,0.6,0,0.8c-0.7,0.7-1.4,1.3-2.1,2
							c-1,0.9-2.1,1.9-3.2,2.9c0.2,0.2,0.4,0.3,0.6,0.4c1.5,0.9,3.1,1.8,4.6,2.8c0.2,0.1,0.3,0.2,0.4,0.3c0.2,0.2,0.2,0.4,0.1,0.6
							c-0.1,0.2-0.4,0.4-0.6,0.3c-0.2-0.1-0.3-0.1-0.5-0.2c-1.4-0.8-2.8-1.6-4.1-2.4c-0.2-0.1-0.4-0.2-0.6-0.4c0,0.3,0,0.6,0,0.9
							c0.1,2.4,0.2,4.8,0.3,7.2c0,0.5,0,0.9,0,1.4c0,0.1,0,0.3-0.1,0.4c-0.1,0.2-0.2,0.4-0.5,0.4s-0.4-0.1-0.5-0.4
							c0-0.1,0-0.3,0-0.4c-0.1-2.4-0.2-4.9-0.3-7.3c0-0.5,0-1.1-0.1-1.6c0-0.2,0-0.4-0.1-0.7c-0.2,0.2-0.4,0.4-0.6,0.5
							c-1.3,1.1-2.5,2.2-3.8,3.2c-0.1,0.1-0.2,0.2-0.3,0.2c-0.3,0.2-0.6,0.2-0.8-0.1c-0.2-0.2-0.1-0.5,0.2-0.7
							c0.9-0.8,1.7-1.5,2.6-2.3c0.6-0.6,1.3-1.1,1.9-1.7c0.1-0.1,0.2-0.1,0.4-0.2c-0.2-0.2-0.4-0.3-0.5-0.4c-1.7-1.1-3.4-2.3-5-3.4
							c-0.3-0.2-0.4-0.4-0.3-0.7c0.1-0.2,0.4-0.3,0.7-0.2c0.2,0.1,0.4,0.2,0.6,0.3c1.4,0.9,2.8,1.9,4.3,2.8
							C748.3,309.3,748.5,309.4,748.8,309.5z"/>
						<path class="st2" d="M685.3,315c0,0.7,0,1.5,0.1,2.2c0.1,1,0.4,1.9,1,2.7c0.2,0.3,0.5,0.5,0.8,0.5c0.8,0.1,1.5,0.3,2.3,0.4
							c0.2,0,0.3,0,0.5,0.1c0.3,0.1,0.5,0.3,0.5,0.6c0,0.3-0.1,0.5-0.4,0.7c-0.4,0.2-0.9,0.3-1.3,0.4c-0.9,0.3-1.8,0.7-2.5,1.3
							c-1,0.8-1.5,1.9-1.6,3.1c-0.1,0.9-0.1,1.9-0.1,2.8c0,0.4,0,0.8,0,1.2c0,0.4-0.2,0.6-0.5,0.6c-0.3,0-0.5-0.2-0.5-0.5
							c-0.1-0.7-0.2-1.4-0.3-2c-0.2-1.2-0.4-2.3-0.7-3.5c0-0.1-0.1-0.2-0.1-0.3c-0.5-1.8-1.5-2.7-3.7-3c-0.2,0-0.4,0-0.6-0.1
							c-0.3-0.1-0.5-0.2-0.5-0.5c0-0.3,0.1-0.5,0.4-0.6c0.2-0.1,0.4-0.1,0.7-0.2c0.6-0.2,1.2-0.3,1.8-0.5c1-0.3,1.7-0.9,2.2-1.8
							c0.6-1,1-2.1,1.1-3.3c0.1-0.9,0.2-1.7,0.3-2.6c0-0.2,0-0.4,0.2-0.5c0.1-0.1,0.3-0.3,0.5-0.3c0.1,0,0.3,0.2,0.3,0.4
							c0.1,0.1,0,0.3,0,0.5C685.2,313.6,685.2,314.3,685.3,315C685.3,315,685.3,315,685.3,315z"/>
						<path class="st2" d="M650.7,270c-0.1-0.7-0.4-1.3-0.9-1.9c-0.2-0.2-0.4-0.3-0.6-0.3c-0.6-0.1-1.1-0.1-1.7-0.2
							c-0.1,0-0.2,0-0.3,0c-0.2,0-0.4-0.2-0.4-0.4s0-0.4,0.2-0.5c0.3-0.1,0.6-0.3,0.9-0.4c0.7-0.2,1.2-0.6,1.7-1.1
							c0.7-0.6,1-1.4,1-2.3c0-0.7,0-1.3-0.1-2c0-0.3,0-0.6,0-0.9c0-0.3,0.1-0.5,0.3-0.5c0.2,0,0.3,0.1,0.4,0.4
							c0.1,0.5,0.2,1,0.3,1.4c0.2,0.8,0.4,1.6,0.7,2.5c0,0.1,0.1,0.2,0.1,0.2c0.5,1.2,1.2,1.9,2.8,1.9c0.1,0,0.3,0,0.4,0
							c0.2,0,0.3,0.1,0.4,0.3c0,0.2-0.1,0.4-0.2,0.4c-0.1,0.1-0.3,0.1-0.5,0.2c-0.4,0.1-0.8,0.3-1.2,0.4c-0.7,0.3-1.1,0.7-1.5,1.4
							c-0.4,0.8-0.6,1.6-0.6,2.4c0,0.6-0.1,1.2-0.1,1.9c0,0.1,0,0.3-0.1,0.4c-0.1,0.1-0.2,0.2-0.3,0.2c-0.1,0-0.2-0.1-0.3-0.2
							c-0.1-0.1,0-0.2-0.1-0.3C651,272.6,650.8,270.6,650.7,270z"/>
						<path class="st1" d="M742.1,249.2c0,0.6,0,1.3,0.1,1.9c0.1,0.9,0.4,1.7,0.9,2.4c0.2,0.3,0.4,0.4,0.7,0.5
							c0.7,0.1,1.4,0.2,2,0.4c0.1,0,0.3,0,0.4,0.1c0.3,0.1,0.4,0.2,0.5,0.5c0,0.3-0.1,0.5-0.3,0.6c-0.4,0.1-0.8,0.3-1.2,0.4
							c-0.8,0.2-1.6,0.6-2.3,1.2c-0.9,0.7-1.4,1.7-1.4,2.8c-0.1,0.8-0.1,1.7-0.1,2.5c0,0.4,0,0.7,0,1.1c0,0.4-0.2,0.6-0.4,0.6
							c-0.3,0-0.4-0.2-0.5-0.5c-0.1-0.6-0.2-1.2-0.3-1.8c-0.2-1-0.4-2.1-0.6-3.1c0-0.1-0.1-0.2-0.1-0.3c-0.5-1.6-1.3-2.4-3.3-2.7
							c-0.2,0-0.4,0-0.5,0c-0.2,0-0.4-0.2-0.4-0.4c0-0.3,0.1-0.4,0.3-0.5c0.2-0.1,0.4-0.1,0.6-0.2c0.5-0.1,1.1-0.3,1.6-0.4
							c0.9-0.3,1.5-0.8,1.9-1.6c0.6-0.9,0.8-1.9,1-2.9c0.1-0.8,0.2-1.5,0.3-2.3c0-0.2,0-0.3,0.1-0.5c0.1-0.1,0.3-0.2,0.4-0.2
							c0.1,0,0.2,0.2,0.3,0.3c0.1,0.1,0,0.3,0,0.4C742,247.9,742,248.6,742.1,249.2C742.1,249.2,742.1,249.2,742.1,249.2z"/>
					</g>
					<g>
						<path class="st4" d="M650.1,300c22-17.2,44-18.8,54.5-8.6c9.3,9,16.4,28.6,19,40l7.4-1.9l0,0c0,0-10.6-53.6-49-48.6
							c-38.4,5-50.7,27.9-50.7,27.9c-4.7,5.9-6.2,16.5-6.6,22.2l12.1,1C635.7,323.4,636.8,310.5,650.1,300z"/>
						<path class="st2" d="M704.6,291.4c-10.5-10.2-32.5-8.6-54.5,8.6c-13.3,10.5-14.5,23.4-13.3,32l6,0.5c-0.4-6.4,1-14.8,7.6-23.5
							c13.8-18.1,42.8-23.6,51.8-13.2c6.5,7.5,12.4,26.8,15.2,37.1l6.1-1.5C721,320.1,714,300.5,704.6,291.4z"/>
						<path class="st3" d="M702.3,295.9c-9-10.4-38-4.9-51.8,13.2c-6.6,8.6-8,17-7.6,23.5l8.4,0.7c1.2-11.8,7.6-24.1,14.3-27.8
							c9.4-5.3,19.4-9.2,30-4.8c7.1,3,12.8,21.9,15.7,34l6.3-1.6C714.7,322.7,708.8,303.4,702.3,295.9z"/>
					</g>
					<path class="st2" d="M745.7,216.5c0,0-43.9-5.3-43.6,38.3c0.2,33.2,30.2,42.3,51.8,31.9c0,0-30.7,2.5-34.8-30.5
						S745.7,216.5,745.7,216.5z"/>
				</g>
			</g>
			<g>
				<path class="st6" d="M774.6,310.4c-14.2,10.4-17,15.4-16.5,16.8c0,0.1,0.1,0.4,0.7,0.5c2.9,0.8,10.9-1.9,23.6-9
					c-2.1-1.5-4-3.3-5.6-5.2C776,312.5,775.3,311.4,774.6,310.4z"/>
				<path class="st6" d="M835.1,281.6c11.6-10,16.5-16.7,16.9-20c0.1-1-0.2-1.3-0.3-1.5c-0.8-0.9-6.4,0-22.1,10.2
					C832.4,273.4,834.3,277.2,835.1,281.6z"/>
				<path class="st4" d="M784.8,320.2c14,8.2,37.4,6.6,47.9-13.8c4.2-8.1,3-15.9,2.7-21.7c-6.3,5.3-14,11.3-22.9,17.6
					C802.3,309.6,792.9,315.6,784.8,320.2z"/>
				<path class="st2" d="M828,268.3c-0.1,0.1-0.2,0.1-0.2,0.2c0.6,0.6,1.2,1.2,1.8,1.8c15.7-10.2,21.3-11.1,22.1-10.2
					c0.1,0.1,0.4,0.5,0.3,1.5c-0.4,3.3-5.3,10-16.9,20c-6.1,5.3-14,11.5-24.1,18.6c-11.2,7.9-20.7,14-28.6,18.4
					c-12.7,7.1-20.7,9.9-23.6,9c-0.5-0.2-0.6-0.4-0.7-0.5c-0.5-1.3,2.3-6.4,16.5-16.8c-0.5-0.7-0.9-1.5-1.2-2.2
					c-0.1,0-0.1,0.1-0.2,0.1c-19.7,14.4-18,18.5-17.4,19.9c0.3,0.7,0.9,1.6,2.4,2c4,1.2,13.7-2.5,26.7-9.9
					c8.1-4.6,17.5-10.7,27.6-17.9c9-6.4,16.6-12.3,22.9-17.6c9-7.6,15-14.1,17.7-18.8c0.8-1.5,1.3-2.8,1.5-4
					c0.2-1.4-0.1-2.5-0.9-3.4C852.6,257.3,849.9,254,828,268.3z"/>
				<path class="st4" d="M815.4,261.4c-16.3-5.7-33.2,3-39.4,12c-5.1,7.3-9.8,20.3-2.6,34.8c0.4,0.8,0.8,1.5,1.2,2.2
					c0.6,1,1.4,2,2.2,3c1.6,2,3.5,3.7,5.6,5.2c7.8-4.4,17.4-10.5,28.6-18.4c10.1-7.2,18-13.4,24.1-18.6c-0.8-4.4-2.7-8.2-5.4-11.3
					c-0.6-0.6-1.2-1.3-1.8-1.8C824.4,265.4,820.1,263,815.4,261.4z"/>
			</g>
			<g>
				<path class="st7" d="M817.7,228c0,0,21-13.4,24.7-9.5c3.7,3.9-36.4,30.3-40.8,26.1C797.2,240.4,817.7,228,817.7,228z"/>
				<path class="st7" d="M831.5,234.4c0,0-23.8-24.4-29.8-22.8s31.7,40.1,36.5,37.6C843,246.6,831.5,234.4,831.5,234.4z"/>
				<path class="st7" d="M822.1,247c0,0,5.7-40.1,2.6-42.4c-3.1-2.3-9.2,19.9-9.9,34.8C814,254.4,820.7,257.3,822.1,247z"/>
			</g>
			<g>
				<g>
					<g>
						<path class="st1" d="M441.1,398.4c-0.9,0.3-1.6,0.6-2.4,0.9c-2.9,1.2-5.9,2.2-9,2.7c-0.2,0-0.4,0.1-0.7,0.1
							c-6.2,0.7-11.1-3.5-11.3-9.9c-0.1-3.2,0.9-6.1,2.8-8.7c0.5-0.7,1.1-1.4,1.7-2.3c-0.5-0.2-0.8-0.3-1.2-0.5
							c-2.7-0.8-5.2-1.9-7.5-3.5c-1.3-0.9-2.5-1.9-3.5-3c-2.2-2.3-2.3-4.9-1-7.7c0.6-1.4,1.6-2.5,2.8-3.5c2.1-1.7,4.5-2.8,7.2-3.2
							c0.2,0,0.4-0.1,0.5-0.1c0,0,0.1-0.1,0.2-0.2c-0.3-0.3-0.5-0.7-0.8-1.1c-1.5-1.9-2.5-4-2.9-6.4c-0.6-3.4,0.4-6.1,3.3-8.1
							c3.4-2.4,7.3-3.3,11.4-2.5c0.9,0.2,1.9,0.4,3,0.6c-0.1-0.6-0.1-1.2-0.2-1.7c-0.5-3.3-0.1-6.4,1.7-9.3c2-3.1,5.2-4.4,8.7-3.5
							c1.8,0.5,3.3,1.3,4.6,2.6c1.6,1.5,2.9,3.2,3.9,5.2c0.2,0.3,0.3,0.6,0.5,1c0,0,0.1,0,0.3,0.1c0.3-0.5,0.6-1.1,1-1.7
							c2.6-4.2,6.1-7.1,11-8.2c2.3-0.6,4.6-0.5,6.8,0.6c3.2,1.6,4.6,4.4,4.8,7.9c0.1,1.8-0.1,3.6-0.2,5.5c0,0.4-0.1,0.9-0.1,1.5
							c0.6-0.3,0.9-0.5,1.3-0.7c2.7-1.5,5.3-1.6,8.1-0.3c3.4,1.6,5.9,3.9,6.8,7.7c0.7,2.9,0.4,5.7-0.9,8.4c-1.1,2.1-2.4,4.2-3.6,6.3
							c-0.1,0.2-0.3,0.4-0.5,0.8c1,0.4,2,0.8,2.9,1.2c4.1,1.7,6.6,4.7,7,9.1c0.4,3.8-1.1,7.1-3.9,9.6c-2.1,2-4.8,3-7.6,3.4
							c-0.4,0.1-0.7,0.1-1.2,0.2c0.2,0.4,0.3,0.6,0.4,0.9c1.1,2.1,2.2,4.3,2.5,6.7c0.2,1.7,0,3.3-0.6,4.8c-0.7,1.9-2.2,3.1-4.1,3.7
							c-2.3,0.8-4.6,0.6-6.9,0.1c-2.3-0.5-4.5-1.4-6.6-2.5c-0.9-0.5-1.8-1-2.9-1.5c-0.4,1.1-0.8,2-1.2,3c-0.7,1.8-1.6,3.6-2.9,5.1
							c-3.2,3.7-7.3,4.7-11.8,2.7c-3-1.4-5.5-3.5-7.1-6.4c-0.8-1.5-1.4-3-2.1-4.6C441.5,399.3,441.3,398.9,441.1,398.4z"/>
						<g>
							<path class="st2" d="M464.9,324.5c-9.6-8.4-26.3-15.5-39.8-13.2c-11.4,1.9-15.8,20.3-16.9,25.9h8.2
								c0.1-5.6,1.6-21.9,17.2-19.5c18.2,2.9,32.7,10.3,31.9,23.3l7.5,1.2C473.1,339.2,472.6,331.2,464.9,324.5z"/>
							<path class="st3" d="M420,300.8c28.3-3.9,60.6,8.8,64,43.1l5.5,0.9c-0.7-3.5-3.2-14.1-12-32.3c-11-22.6-43.9-22.3-70-17.3
								c-22.9,4.4-21.7,34.7-21.1,42h8.5C394.7,330.4,395.1,304.2,420,300.8z"/>
							<path class="st4" d="M425.1,311.3c13.5-2.3,30.2,4.8,39.8,13.2c7.7,6.7,8.2,14.8,8.1,17.7l11.1,1.8
								c-3.4-34.4-35.8-47-64-43.1c-24.9,3.4-25.3,29.6-25,36.3h13.2C409.3,331.6,413.7,313.2,425.1,311.3z"/>
						</g>
					</g>
					<g>
						<g>
							<path d="M452.9,362c0.1,0.1,0.2,0.3,0.3,0.4c1.4,1.7,2.8,3.4,4.2,5.1c0.1,0.1,0.1,0.2,0.2,0.2c0.1,0.2,0.1,0.4-0.1,0.5
								c-0.2,0.1-0.3,0.1-0.5-0.1c-0.2-0.2-0.4-0.4-0.6-0.6c-1-1.2-2.1-2.4-3.1-3.7c-0.1-0.1-0.2-0.2-0.3-0.3c0,0.2,0,0.3,0,0.4
								c0.1,2.6,0.2,5.2,0.3,7.7c0,0.5,0,1,0.1,1.5c0,0.1,0,0.1,0,0.2c0,0.2-0.2,0.4-0.4,0.4c-0.2,0-0.4-0.1-0.4-0.4
								c0-0.1,0-0.3,0-0.4c-0.1-3.3-0.3-6.5-0.4-9.8c0-0.1,0-0.3,0-0.5c-0.2,0.1-0.3,0.2-0.4,0.3c-1.3,1.1-2.7,2.2-4,3.3
								c-0.1,0.1-0.2,0.2-0.3,0.2c-0.2,0.1-0.4,0-0.5-0.1c-0.1-0.2-0.1-0.3,0-0.5c0.1-0.1,0.2-0.2,0.3-0.3c1.4-1.2,2.8-2.3,4.2-3.5
								c0.1-0.1,0.2-0.2,0.4-0.3c-0.1-0.1-0.2-0.2-0.3-0.3c-1.4-1.8-2.8-3.6-4.2-5.4c-0.1-0.1-0.2-0.2-0.2-0.3
								c-0.2-0.3-0.1-0.5,0.1-0.7c0.2-0.1,0.4-0.1,0.6,0.2c1.4,1.8,2.7,3.5,4.1,5.3c0,0.1,0.1,0.1,0.2,0.2c0-0.1,0-0.2,0-0.3
								c-0.1-2.9-0.3-5.8-0.4-8.7c0-0.1,0-0.3,0-0.4c0-0.2,0.2-0.3,0.4-0.3c0.2,0,0.3,0.1,0.4,0.3c0,0.2,0,0.3,0.1,0.5
								c0.1,2.8,0.2,5.5,0.4,8.3c0,0.2,0,0.4,0,0.6c0.2-0.1,0.3-0.2,0.4-0.3c1.6-1.3,3.3-2.7,4.9-4c0.1-0.1,0.2-0.2,0.4-0.3
								c0.2-0.1,0.4-0.1,0.5,0.1c0.1,0.1,0.1,0.3,0,0.5c-0.1,0.1-0.2,0.2-0.3,0.3c-1.8,1.5-3.6,3-5.5,4.5
								C453.1,361.8,453,361.9,452.9,362z"/>
							<path class="st1" d="M525.6,252.7c0-0.9,0.1-1.7,0.1-2.5c0.1-2.3,0.1-4.6,0.2-7c0-0.2,0-0.4,0.1-0.6c0.1-0.3,0.3-0.5,0.6-0.5
								c0.3,0,0.5,0.2,0.5,0.5c0,0.3,0,0.6,0,0.9c-0.1,2.8-0.2,5.6-0.2,8.4c0,0.1,0,0.3,0,0.5c0.2-0.1,0.3-0.1,0.4-0.2
								c1.5-1.2,3-2.4,4.6-3.7c0,0,0.1-0.1,0.1-0.1c0.3-0.2,0.6-0.2,0.8,0c0.2,0.2,0.2,0.6-0.1,0.8c-0.7,0.6-1.5,1.2-2.2,1.8
								c-1.1,0.9-2.2,1.7-3.4,2.7c0.2,0.2,0.4,0.3,0.5,0.4c1.5,1,3,2,4.4,3c0.1,0.1,0.3,0.2,0.4,0.3c0.2,0.2,0.2,0.4,0.1,0.6
								c-0.1,0.2-0.4,0.3-0.7,0.2c-0.2-0.1-0.3-0.2-0.5-0.3c-1.3-0.9-2.6-1.8-4-2.7c-0.2-0.1-0.3-0.2-0.6-0.4c0,0.3-0.1,0.6-0.1,0.9
								c-0.1,2.4-0.1,4.8-0.2,7.2c0,0.5-0.1,0.9-0.1,1.4c0,0.1,0,0.3-0.1,0.4c-0.1,0.2-0.2,0.4-0.5,0.3c-0.2,0-0.4-0.2-0.4-0.4
								c0-0.1,0-0.3,0-0.4c0-2.4,0.1-4.9,0.1-7.3c0-0.5,0-1.1,0-1.6c0-0.2,0-0.4,0-0.7c-0.3,0.2-0.4,0.3-0.6,0.5c-1.3,1-2.7,2-4,3
								c-0.1,0.1-0.2,0.2-0.3,0.2c-0.3,0.2-0.6,0.1-0.8-0.1c-0.1-0.2-0.1-0.5,0.2-0.7c0.9-0.7,1.8-1.4,2.7-2.1
								c0.7-0.5,1.3-1.1,2-1.6c0.1-0.1,0.2-0.1,0.4-0.2c-0.2-0.2-0.3-0.3-0.5-0.4c-1.6-1.2-3.2-2.5-4.8-3.7
								c-0.3-0.2-0.4-0.5-0.2-0.7c0.1-0.2,0.4-0.3,0.7-0.2c0.2,0.1,0.4,0.2,0.5,0.3c1.4,1,2.7,2,4.1,3
								C525.2,252.4,525.3,252.5,525.6,252.7z"/>
							<path class="st1" d="M438.3,266.2c0,0.5,0,1,0,1.6c0,0.7,0.3,1.4,0.7,1.9c0.2,0.2,0.3,0.4,0.6,0.4c0.5,0.1,1.1,0.2,1.6,0.3
								c0.1,0,0.2,0,0.3,0.1c0.2,0.1,0.3,0.2,0.4,0.4c0,0.2-0.1,0.4-0.3,0.5c-0.3,0.1-0.6,0.2-0.9,0.3c-0.7,0.2-1.3,0.4-1.8,0.9
								c-0.7,0.6-1.1,1.3-1.2,2.2c-0.1,0.7-0.1,1.3-0.2,2c0,0.3,0,0.6,0,0.9c0,0.3-0.2,0.4-0.4,0.4c-0.2,0-0.3-0.2-0.3-0.4
								c-0.1-0.5-0.1-1-0.2-1.4c-0.1-0.8-0.3-1.7-0.4-2.5c0-0.1,0-0.2-0.1-0.2c-0.4-1.3-1-2-2.6-2.2c-0.1,0-0.3,0-0.4-0.1
								c-0.2,0-0.3-0.2-0.3-0.4c0-0.2,0.1-0.3,0.3-0.4c0.2-0.1,0.3-0.1,0.5-0.1c0.4-0.1,0.9-0.2,1.3-0.3c0.7-0.2,1.2-0.6,1.6-1.2
								c0.5-0.7,0.7-1.5,0.8-2.3c0.1-0.6,0.2-1.2,0.3-1.8c0-0.1,0-0.3,0.1-0.4c0.1-0.1,0.2-0.2,0.4-0.2c0.1,0,0.2,0.2,0.2,0.3
								c0,0.1,0,0.2,0,0.3C438.2,265.2,438.2,265.7,438.3,266.2C438.2,266.2,438.3,266.2,438.3,266.2z"/>
							<path d="M416.8,286.5c0.1,1.1,0.2,2.4,0.4,3.6c0.2,1.2,0.4,1.4,1.6,1.6c0.3,0.1,0.6,0,0.9,0.1c0.3,0,0.6,0.2,0.7,0.6
								c0.1,0.3-0.1,0.7-0.4,0.8c-0.3,0.1-0.6,0.2-0.9,0.3c-1.6,0.3-2.4,1.4-2.5,3c-0.1,1.2-0.1,2.4-0.1,3.6c0,0.2,0,0.5-0.1,0.7
								c-0.1,0.3-0.3,0.5-0.6,0.5c-0.3,0-0.5-0.2-0.7-0.5c-0.1-0.2-0.1-0.4-0.1-0.6c-0.1-1.1-0.2-2.3-0.4-3.4
								c-0.1-0.7-0.3-1.3-0.6-1.9c-0.4-0.9-1.1-1.4-2-1.5c-0.3,0-0.5,0-0.8-0.1c-0.4-0.1-0.7-0.4-0.7-0.7c0-0.4,0.2-0.6,0.5-0.8
								c0.3-0.1,0.6-0.2,0.9-0.3c1.4-0.4,2.3-1.3,2.8-2.6c0.4-1.1,0.6-2.3,0.7-3.5c0.1-0.4,0.1-0.8,0.2-1.2c0.1-0.5,0.4-0.7,0.7-0.6
								c0.3,0,0.5,0.3,0.6,0.7C416.8,285,416.8,285.7,416.8,286.5z"/>
							<path d="M568,284.7c-0.2,1.1-0.3,2.3-0.6,3.5c-0.2,1.2-0.5,1.3-1.6,1.5c-0.3,0.1-0.6,0-0.9,0.1c-0.3,0-0.6,0.2-0.7,0.6
								c-0.1,0.3,0,0.6,0.4,0.8c0.3,0.1,0.6,0.2,0.9,0.3c1.6,0.3,2.3,1.3,2.3,2.9c0,1.1,0,2.3-0.1,3.5c0,0.2,0,0.5,0,0.7
								c0.1,0.3,0.3,0.5,0.6,0.5c0.3,0,0.5-0.2,0.7-0.4c0.1-0.2,0.1-0.4,0.1-0.5c0.2-1.1,0.4-2.2,0.6-3.3c0.1-0.6,0.4-1.2,0.7-1.8
								c0.4-0.9,1.1-1.3,2.1-1.4c0.3,0,0.5,0,0.8-0.1c0.4-0.1,0.7-0.4,0.7-0.7c0-0.4-0.2-0.6-0.5-0.7c-0.3-0.1-0.6-0.2-0.9-0.2
								c-1.3-0.4-2.1-1.2-2.6-2.5c-0.4-1.1-0.4-2.2-0.5-3.4c0-0.4,0-0.8-0.1-1.2c-0.1-0.4-0.3-0.7-0.7-0.6c-0.3,0-0.5,0.3-0.6,0.7
								C568.1,283.3,568.1,284,568,284.7z"/>
							<path d="M472.5,244.2c0.1,0.1,0.2,0.3,0.3,0.4c1.4,1.7,2.8,3.4,4.2,5.1c0.1,0.1,0.1,0.2,0.2,0.2c0.1,0.2,0.1,0.4-0.1,0.5
								c-0.2,0.1-0.3,0.1-0.5-0.1c-0.2-0.2-0.4-0.4-0.6-0.6c-1-1.2-2.1-2.4-3.1-3.7c-0.1-0.1-0.2-0.2-0.3-0.3c0,0.2,0,0.3,0,0.4
								c0.1,2.6,0.2,5.2,0.3,7.7c0,0.5,0,1,0.1,1.5c0,0.1,0,0.1,0,0.2c0,0.2-0.2,0.4-0.4,0.4c-0.2,0-0.4-0.1-0.4-0.4
								c0-0.1,0-0.3,0-0.4c-0.1-3.3-0.3-6.5-0.4-9.8c0-0.1,0-0.3,0-0.5c-0.2,0.1-0.3,0.2-0.4,0.3c-1.3,1.1-2.7,2.2-4,3.3
								c-0.1,0.1-0.2,0.2-0.3,0.2c-0.2,0.1-0.4,0-0.5-0.1c-0.1-0.2-0.1-0.3,0-0.5c0.1-0.1,0.2-0.2,0.3-0.3c1.4-1.2,2.8-2.3,4.2-3.5
								c0.1-0.1,0.2-0.2,0.4-0.3c-0.1-0.1-0.2-0.2-0.3-0.3c-1.4-1.8-2.8-3.6-4.2-5.4c-0.1-0.1-0.2-0.2-0.2-0.3
								c-0.2-0.3-0.1-0.5,0.1-0.7c0.2-0.1,0.4-0.1,0.6,0.2c1.4,1.8,2.7,3.5,4.1,5.3c0,0.1,0.1,0.1,0.2,0.2c0-0.1,0-0.2,0-0.3
								c-0.1-2.9-0.3-5.8-0.4-8.7c0-0.1,0-0.3,0-0.4c0-0.2,0.2-0.3,0.4-0.3c0.2,0,0.3,0.1,0.4,0.3c0,0.2,0,0.3,0.1,0.5
								c0.1,2.8,0.2,5.5,0.4,8.3c0,0.2,0,0.4,0,0.6c0.2-0.1,0.3-0.2,0.4-0.3c1.6-1.3,3.3-2.7,4.9-4c0.1-0.1,0.2-0.2,0.4-0.3
								c0.2-0.1,0.4-0.1,0.5,0.1c0.1,0.1,0.1,0.3,0,0.5c-0.1,0.1-0.2,0.2-0.3,0.3c-1.8,1.5-3.6,3-5.5,4.5
								C472.8,244,472.7,244.1,472.5,244.2z"/>
						</g>
						<g>
							<path class="st1" d="M513.1,272.7c-21.6,0-27.1,18-40.2,18c11.2,0,19.8,18,40.2,18s29.1-18,40.2-18
								C540.2,290.7,534.7,272.7,513.1,272.7z"/>
							
								<ellipse transform="matrix(0.1602 -0.9871 0.9871 0.1602 143.9328 750.5648)" class="st2" cx="513.1" cy="290.7" rx="12.2" ry="12.2"/>
							<path d="M553.3,290.7c-7.9,0.7-14-5.8-20.1-9.7c-3.1-2.1-6.2-3.8-9.6-4.9c-10.4-3.4-21.8-1.5-30.7,4.9
								c-6,4-12.2,10.4-20.1,9.7c5.7-0.5,10-4.5,14.2-8.2c4.3-3.8,8.9-7.5,14.5-9.5c11.2-4.1,24.2-1.8,33.3,5.8
								C540.6,283.3,545.5,289.9,553.3,290.7L553.3,290.7z"/>
							<g>
								<polygon points="512.1,272.7 513.1,258.3 514.1,272.7 								"/>
							</g>
							<g>
								<g>
									<g>
										<polygon points="503.8,274 500.2,260.1 505.7,273.4 										"/>
									</g>
									<g>
										<polygon points="494.8,277.3 488,264.6 496.5,276.3 										"/>
									</g>
									<g>
										<polygon points="488.9,282.7 479.2,272.1 490.3,281.3 										"/>
									</g>
									<g>
										<polygon points="482.3,287.8 473.5,280.3 483.5,286.1 										"/>
									</g>
								</g>
								<g>
									<g>
										<polygon points="520.4,273.4 525.9,260.1 522.4,274 										"/>
									</g>
									<g>
										<polygon points="529.6,276.3 538.1,264.6 531.3,277.3 										"/>
									</g>
									<g>
										<polygon points="535.8,281.3 547,272.1 537.2,282.7 										"/>
									</g>
									<g>
										<polygon points="542.6,286.1 552.6,280.3 543.8,287.8 										"/>
									</g>
								</g>
							</g>
						</g>
					</g>
					<g>
						<path class="st5" d="M528.8,349.3c0,0,2.9-21.9,18.7-20.8c15.8,1.1,11.1,23,4.2,35.2c-7,12.3-24.5,30.9-24.5,30.9
							s-16.8-22.7-22.4-42.6c-5.6-19.9,1.7-28.1,10.1-27.3C523.4,325.6,528.8,349.3,528.8,349.3z"/>
						<path class="st4" d="M546.4,342.7c0,0,12.1-24,11.7-31.3s-9.8-5.7-11.7,0.7c0,0-5.1-12-10.9-5.5
							C529.7,313,546.4,342.7,546.4,342.7z"/>
					</g>
				</g>
			</g>
			<g>
				<g>
					<path class="st1" d="M426.9,438.8c3.2-0.2,6.4,0.3,9.6,0.6c1.6,0.2,3.2,0.3,4.7,0.5c1.8,0.2,3.5,0.1,5.2-0.5
						c0.8-0.3,1.6-0.7,2.4-1.1c0.8-0.4,1.5-0.8,2.2-1.2c1.3-0.8,2.7-1.6,4-2.4c0.3-0.2,0.7-0.5,1-0.6c3.7-1.8,7.5-3.2,11.6-3.5
						c3.6-0.3,7,0.3,10.3,1.8c3.1,1.5,5.2,4,7,6.9c0.8,1.3,1.5,2.7,2.2,4.1c0.9,1.8,2.3,3.2,3.9,4.3c2.1,1.4,4.4,2.5,6.9,3.2
						c1.5,0.5,3,0.9,4.4,1.5c5.1,2.1,8.6,5.7,10.1,11c1,3.5,0.6,7-1.3,10.2c-2.1,3.5-4.8,6.3-8.4,8.3c-0.4,0.2-0.9,0.5-1.3,0.8
						c-3.2,2-6.7,3-10.3,3.8c-3.8,0.7-7.6,1-11.5,1.3c-2.9,0.3-5.4,1.3-7.6,3.3c-0.7,0.6-1.4,1.2-2,1.9c-3.8,3.9-8.4,6.2-13.7,7.5
						c-5,1.3-10,0.9-14.9-0.3c-5.3-1.4-10.4-3.5-14.9-6.7c-0.9-0.6-1.8-1.2-2.7-1.8c-1.7-1-3.5-1.4-5.5-1.1
						c-1.9,0.2-3.8,0.5-5.7,0.7c-2.7,0.3-5.3,0.6-8,0.6c-3.8,0-7.3-1.1-10.4-3.2c-2.7-1.8-4.3-4.2-4.9-7.4c-0.3-2.2-0.5-4.3-0.2-6.5
						c0.6-4.4,2.9-7.9,6-10.9c2.2-2.1,4.6-3.9,7.3-5.5c1.5-0.8,2.9-1.8,4.4-2.6c1.6-0.8,2.5-2.1,2.7-3.9c0.2-1.2,0.5-2.4,0.9-3.6
						c0.9-3,2.8-5.2,5.5-6.8c2.8-1.6,5.9-2.4,9.1-2.7C425.5,438.8,426.2,438.8,426.9,438.8z"/>
					<g>
						<path d="M404.9,440.1c0.1,0.1,0.1,0.2,0.2,0.3c1.1,1.3,2.2,2.5,3.3,3.8c0,0.1,0.1,0.1,0.1,0.2c0.1,0.1,0.1,0.3-0.1,0.4
							c-0.1,0.1-0.2,0.1-0.4,0c-0.2-0.1-0.3-0.3-0.5-0.5c-0.8-0.9-1.6-1.8-2.4-2.7c-0.1-0.1-0.1-0.1-0.2-0.3c0,0.1,0,0.2,0,0.3
							c0.1,2,0.3,3.9,0.4,5.9c0,0.4,0.1,0.8,0.1,1.2c0,0.1,0,0.1,0,0.2c0,0.2-0.1,0.3-0.3,0.3c-0.2,0-0.3-0.1-0.3-0.3
							c0-0.1,0-0.2,0-0.3c-0.2-2.5-0.4-5-0.6-7.4c0-0.1,0-0.2,0-0.4c-0.1,0.1-0.2,0.2-0.3,0.2c-1,0.9-2,1.7-3,2.6
							c-0.1,0.1-0.2,0.1-0.3,0.2c-0.1,0.1-0.3,0-0.4-0.1c-0.1-0.1-0.1-0.2,0-0.4c0.1-0.1,0.1-0.2,0.2-0.2c1-0.9,2.1-1.8,3.1-2.7
							c0.1-0.1,0.2-0.1,0.3-0.2c-0.1-0.1-0.1-0.2-0.2-0.2c-1.1-1.3-2.2-2.7-3.3-4c-0.1-0.1-0.1-0.2-0.2-0.3c-0.1-0.2-0.1-0.4,0-0.5
							c0.2-0.1,0.3,0,0.5,0.2c1.1,1.3,2.1,2.6,3.2,3.9c0,0,0.1,0.1,0.1,0.1c0-0.1,0-0.2,0-0.2c-0.2-2.2-0.3-4.4-0.5-6.6
							c0-0.1,0-0.2,0-0.3c0-0.1,0.1-0.2,0.3-0.2c0.1,0,0.3,0.1,0.3,0.2c0,0.1,0,0.3,0.1,0.4c0.2,2.1,0.3,4.2,0.5,6.3
							c0,0.1,0,0.3,0,0.5c0.1-0.1,0.2-0.2,0.3-0.2c1.2-1.1,2.4-2.1,3.6-3.2c0.1-0.1,0.2-0.2,0.3-0.2c0.1-0.1,0.3-0.1,0.4,0
							c0.1,0.1,0.1,0.3,0,0.4c-0.1,0.1-0.1,0.2-0.2,0.2c-1.3,1.2-2.7,2.3-4,3.5C405.1,439.9,405,440,404.9,440.1z"/>
						<path class="st1" d="M494,426.6c-0.1-0.1-0.1-0.2-0.2-0.2c-1-1.1-2-2.3-3-3.4c0-0.1-0.1-0.1-0.1-0.2c-0.1-0.1-0.1-0.3,0-0.3
							c0.1-0.1,0.2-0.1,0.3,0c0.1,0.1,0.3,0.3,0.4,0.4c0.7,0.8,1.5,1.7,2.2,2.5c0.1,0.1,0.1,0.1,0.2,0.2c0-0.1,0-0.2,0-0.3
							c-0.1-1.8-0.3-3.6-0.4-5.4c0-0.4,0-0.7-0.1-1.1c0,0,0-0.1,0-0.1c0-0.2,0.1-0.3,0.2-0.3c0.1,0,0.3,0.1,0.3,0.3
							c0,0.1,0,0.2,0,0.3c0.2,2.3,0.3,4.5,0.5,6.8c0,0.1,0,0.2,0,0.3c0.1-0.1,0.2-0.2,0.3-0.2c0.9-0.8,1.8-1.6,2.7-2.4
							c0.1-0.1,0.1-0.1,0.2-0.2c0.1-0.1,0.3,0,0.3,0.1c0.1,0.1,0.1,0.2,0,0.3c-0.1,0.1-0.1,0.1-0.2,0.2c-1,0.8-1.9,1.7-2.9,2.5
							c-0.1,0.1-0.1,0.1-0.2,0.2c0.1,0.1,0.1,0.2,0.2,0.2c1,1.2,2,2.4,3,3.7c0.1,0.1,0.1,0.2,0.2,0.2c0.1,0.2,0.1,0.4,0,0.5
							c-0.1,0.1-0.3,0-0.4-0.1c-1-1.2-1.9-2.4-2.9-3.6c0,0-0.1-0.1-0.1-0.1c0,0.1,0,0.1,0,0.2c0.1,2,0.3,4,0.4,6c0,0.1,0,0.2,0,0.3
							c0,0.1-0.1,0.2-0.2,0.2c-0.1,0-0.2-0.1-0.3-0.2c0-0.1,0-0.2,0-0.4c-0.1-1.9-0.3-3.8-0.4-5.7c0-0.1,0-0.3,0-0.4
							c-0.1,0.1-0.2,0.2-0.3,0.2c-1.1,1-2.2,1.9-3.3,2.9c-0.1,0.1-0.2,0.1-0.3,0.2c-0.1,0.1-0.3,0.1-0.3,0c-0.1-0.1-0.1-0.2,0-0.4
							c0.1-0.1,0.1-0.1,0.2-0.2c1.2-1.1,2.5-2.1,3.7-3.2C493.8,426.8,493.9,426.7,494,426.6z"/>
						<path class="st1" d="M551,504.4c0-0.9-0.1-1.7-0.1-2.5c-0.1-2.3-0.2-4.6-0.3-7c0-0.2,0-0.4,0-0.6c0-0.3,0.3-0.5,0.6-0.5
							c0.3,0,0.5,0.2,0.5,0.5c0,0.3,0.1,0.6,0.1,0.9c0.1,2.8,0.2,5.6,0.3,8.4c0,0.1,0,0.3,0,0.5c0.1-0.1,0.3-0.2,0.3-0.2
							c1.4-1.3,2.9-2.6,4.3-4c0,0,0.1-0.1,0.1-0.1c0.3-0.2,0.6-0.2,0.8,0c0.2,0.2,0.2,0.6,0,0.8c-0.7,0.7-1.4,1.3-2.1,2
							c-1,0.9-2.1,1.9-3.2,2.9c0.2,0.2,0.4,0.3,0.6,0.4c1.5,0.9,3.1,1.8,4.6,2.8c0.2,0.1,0.3,0.2,0.4,0.3c0.2,0.2,0.2,0.4,0.1,0.6
							c-0.1,0.2-0.4,0.4-0.6,0.3c-0.2-0.1-0.3-0.1-0.5-0.2c-1.4-0.8-2.8-1.6-4.1-2.4c-0.2-0.1-0.4-0.2-0.6-0.4c0,0.3,0,0.6,0,0.9
							c0.1,2.4,0.2,4.8,0.3,7.2c0,0.5,0,0.9,0,1.4c0,0.1,0,0.3-0.1,0.4c-0.1,0.2-0.2,0.4-0.5,0.4s-0.4-0.1-0.5-0.4
							c0-0.1,0-0.3,0-0.4c-0.1-2.4-0.2-4.9-0.3-7.3c0-0.5,0-1.1-0.1-1.6c0-0.2,0-0.4-0.1-0.7c-0.2,0.2-0.4,0.4-0.6,0.5
							c-1.3,1.1-2.5,2.2-3.8,3.2c-0.1,0.1-0.2,0.2-0.3,0.2c-0.3,0.2-0.6,0.2-0.8-0.1c-0.2-0.2-0.1-0.5,0.2-0.7
							c0.9-0.8,1.7-1.5,2.6-2.3c0.6-0.6,1.3-1.1,1.9-1.7c0.1-0.1,0.2-0.1,0.4-0.2c-0.2-0.2-0.4-0.3-0.5-0.4c-1.7-1.1-3.4-2.3-5-3.4
							c-0.3-0.2-0.4-0.4-0.3-0.7c0.1-0.2,0.4-0.3,0.7-0.2c0.2,0.1,0.4,0.2,0.6,0.3c1.4,0.9,2.8,1.9,4.3,2.8
							C550.5,504.1,550.7,504.2,551,504.4z"/>
						<path class="st2" d="M487.5,509.8c0,0.7,0,1.5,0.1,2.2c0.1,1,0.4,1.9,1,2.7c0.2,0.3,0.5,0.5,0.8,0.5c0.8,0.1,1.5,0.3,2.3,0.4
							c0.2,0,0.3,0,0.5,0.1c0.3,0.1,0.5,0.3,0.5,0.6c0,0.3-0.1,0.5-0.4,0.7c-0.4,0.2-0.9,0.3-1.3,0.4c-0.9,0.3-1.8,0.7-2.5,1.3
							c-1,0.8-1.5,1.9-1.6,3.1c-0.1,0.9-0.1,1.9-0.1,2.8c0,0.4,0,0.8,0,1.2c0,0.4-0.2,0.6-0.5,0.6c-0.3,0-0.5-0.2-0.5-0.5
							c-0.1-0.7-0.2-1.4-0.3-2c-0.2-1.2-0.4-2.3-0.7-3.5c0-0.1-0.1-0.2-0.1-0.3c-0.5-1.8-1.5-2.7-3.7-3c-0.2,0-0.4,0-0.6-0.1
							c-0.3-0.1-0.5-0.2-0.5-0.5c0-0.3,0.1-0.5,0.4-0.6c0.2-0.1,0.4-0.1,0.7-0.2c0.6-0.2,1.2-0.3,1.8-0.5c1-0.3,1.7-0.9,2.2-1.8
							c0.6-1,0.9-2.1,1.1-3.3c0.1-0.9,0.2-1.7,0.3-2.6c0-0.2,0-0.4,0.2-0.5c0.1-0.1,0.3-0.3,0.5-0.3c0.1,0,0.3,0.2,0.3,0.4
							c0.1,0.1,0,0.3,0,0.5C487.4,508.4,487.4,509.1,487.5,509.8C487.5,509.8,487.5,509.8,487.5,509.8z"/>
						<path class="st2" d="M452.9,464.9c-0.1-0.7-0.4-1.3-0.9-1.9c-0.2-0.2-0.4-0.3-0.6-0.3c-0.6-0.1-1.1-0.1-1.7-0.2
							c-0.1,0-0.2,0-0.3,0c-0.2,0-0.4-0.2-0.4-0.4s0-0.4,0.2-0.5c0.3-0.1,0.6-0.3,0.9-0.4c0.7-0.2,1.2-0.6,1.7-1.1
							c0.7-0.6,1-1.4,1-2.3c0-0.7,0-1.3-0.1-2c0-0.3,0-0.6,0-0.9c0-0.3,0.1-0.5,0.3-0.5c0.2,0,0.3,0.1,0.4,0.4
							c0.1,0.5,0.2,1,0.3,1.4c0.2,0.8,0.4,1.6,0.6,2.5c0,0.1,0.1,0.2,0.1,0.2c0.5,1.2,1.2,1.9,2.8,1.9c0.1,0,0.3,0,0.4,0
							c0.2,0,0.3,0.1,0.4,0.3c0,0.2-0.1,0.4-0.2,0.4c-0.1,0.1-0.3,0.1-0.5,0.2c-0.4,0.1-0.8,0.3-1.2,0.4c-0.7,0.3-1.1,0.7-1.5,1.4
							c-0.4,0.8-0.6,1.6-0.6,2.4c0,0.6-0.1,1.2-0.1,1.9c0,0.1,0,0.3-0.1,0.4c-0.1,0.1-0.2,0.2-0.3,0.2c-0.1,0-0.2-0.1-0.3-0.2
							c-0.1-0.1,0-0.2-0.1-0.3C453.2,467.4,453,465.4,452.9,464.9z"/>
						<path class="st1" d="M544.3,444c0,0.6,0,1.3,0.1,1.9c0.1,0.9,0.4,1.7,0.9,2.4c0.2,0.3,0.4,0.4,0.7,0.5c0.7,0.1,1.4,0.2,2,0.4
							c0.1,0,0.3,0,0.4,0.1c0.3,0.1,0.4,0.2,0.5,0.5c0,0.3-0.1,0.5-0.3,0.6c-0.4,0.1-0.8,0.3-1.2,0.4c-0.8,0.2-1.6,0.6-2.2,1.2
							c-0.9,0.7-1.4,1.7-1.4,2.8c-0.1,0.8-0.1,1.7-0.1,2.5c0,0.4,0,0.7,0,1.1c0,0.4-0.2,0.6-0.4,0.6c-0.3,0-0.4-0.2-0.5-0.5
							c-0.1-0.6-0.2-1.2-0.3-1.8c-0.2-1-0.4-2.1-0.6-3.1c0-0.1-0.1-0.2-0.1-0.3c-0.5-1.6-1.3-2.4-3.3-2.7c-0.2,0-0.4,0-0.5,0
							c-0.2,0-0.4-0.2-0.4-0.5c0-0.3,0.1-0.4,0.3-0.5c0.2-0.1,0.4-0.1,0.6-0.2c0.5-0.1,1.1-0.3,1.6-0.4c0.9-0.3,1.5-0.8,1.9-1.6
							c0.6-0.9,0.8-1.9,1-2.9c0.1-0.8,0.2-1.5,0.3-2.3c0-0.2,0-0.3,0.1-0.5c0.1-0.1,0.3-0.2,0.4-0.2c0.1,0,0.2,0.2,0.3,0.3
							c0.1,0.1,0,0.3,0,0.4C544.2,442.8,544.2,443.4,544.3,444C544.3,444,544.3,444,544.3,444z"/>
					</g>
					<g>
						<path class="st4" d="M452.3,494.9c22-17.2,44-18.8,54.5-8.6c9.3,9,16.4,28.6,19,40l7.4-1.9l0,0c0,0-10.6-53.6-49-48.6
							c-38.4,5-50.7,27.9-50.7,27.9c-4.7,5.9-6.2,16.5-6.6,22.2l12.1,1C437.9,518.3,439,505.3,452.3,494.9z"/>
						<path class="st2" d="M506.8,486.3c-10.5-10.2-32.5-8.6-54.5,8.6c-13.3,10.5-14.5,23.4-13.3,32l6,0.5c-0.4-6.4,1-14.8,7.6-23.5
							c13.8-18.1,42.8-23.6,51.8-13.2c6.5,7.5,12.4,26.8,15.2,37.1l6.1-1.5C523.2,514.9,516.2,495.3,506.8,486.3z"/>
						<path class="st3" d="M504.5,490.7c-9-10.4-38-4.9-51.8,13.2c-6.6,8.6-8,17-7.6,23.5l8.4,0.7c1.2-11.8,7.6-24.1,14.3-27.8
							c9.4-5.3,19.4-9.2,30-4.8c7.1,3,12.8,21.9,15.7,34l6.3-1.6C516.9,517.5,511,498.2,504.5,490.7z"/>
					</g>
					<path class="st2" d="M547.9,411.4c0,0-43.9-5.3-43.6,38.3c0.2,33.2,30.2,42.3,51.8,31.9c0,0-30.7,2.5-34.8-30.5
						C517.1,418,547.9,411.4,547.9,411.4z"/>
				</g>
			</g>
			<g>
				<path class="st6" d="M576.8,505.2c-14.2,10.4-17,15.4-16.5,16.8c0,0.1,0.1,0.4,0.7,0.5c2.9,0.8,10.9-1.9,23.6-9
					c-2.1-1.5-4-3.3-5.6-5.2C578.2,507.3,577.5,506.3,576.8,505.2z"/>
				<path class="st6" d="M637.3,476.5c11.6-10,16.5-16.7,16.9-20c0.1-1-0.2-1.3-0.3-1.5c-0.8-0.9-6.4,0-22.1,10.2
					C634.6,468.3,636.5,472,637.3,476.5z"/>
				<path class="st4" d="M587,515.1c14,8.2,37.4,6.6,47.9-13.8c4.2-8.1,3-15.9,2.7-21.7c-6.3,5.3-14,11.3-22.9,17.6
					C604.5,504.4,595.1,510.5,587,515.1z"/>
				<path class="st2" d="M630.2,463.1c-0.1,0.1-0.2,0.1-0.2,0.2c0.6,0.6,1.2,1.2,1.8,1.8c15.7-10.2,21.3-11.1,22.1-10.2
					c0.1,0.1,0.4,0.5,0.3,1.5c-0.4,3.3-5.3,10-16.9,20c-6.1,5.3-14,11.5-24.1,18.6c-11.2,7.9-20.7,14-28.6,18.4
					c-12.7,7.1-20.7,9.9-23.6,9c-0.5-0.2-0.6-0.4-0.7-0.5c-0.5-1.3,2.3-6.4,16.5-16.8c-0.5-0.7-0.9-1.5-1.2-2.2
					c-0.1,0-0.1,0.1-0.2,0.1c-19.7,14.4-18,18.5-17.4,19.9c0.3,0.7,0.9,1.6,2.4,2c4,1.2,13.7-2.5,26.7-9.9
					c8.1-4.6,17.5-10.7,27.7-17.9c9-6.4,16.6-12.3,22.9-17.6c9-7.6,15-14.1,17.7-18.8c0.8-1.5,1.3-2.8,1.5-4
					c0.2-1.4-0.1-2.5-0.9-3.4C654.8,452.1,652.1,448.9,630.2,463.1z"/>
				<path class="st4" d="M617.6,456.2c-16.3-5.7-33.2,3-39.4,12c-5.1,7.3-9.8,20.3-2.6,34.8c0.4,0.8,0.8,1.5,1.2,2.2
					c0.6,1,1.4,2,2.2,3c1.6,2,3.5,3.7,5.6,5.2c7.8-4.4,17.4-10.5,28.6-18.4c10.1-7.2,18-13.4,24.1-18.6c-0.8-4.4-2.7-8.2-5.4-11.3
					c-0.6-0.6-1.2-1.3-1.8-1.8C626.6,460.2,622.3,457.8,617.6,456.2z"/>
			</g>
			<g>
				<path class="st6" d="M575.4,369c-16-7.3-21.8-7.4-22.7-6.3c-0.1,0.1-0.2,0.3-0.1,0.9c0.7,2.9,7,8.6,19.3,16.3
					c0.3-2.6,0.9-5.1,1.9-7.5C574.3,371.2,574.8,370.1,575.4,369z"/>
				<path class="st6" d="M629.9,407.9c14.4,5.2,22.6,6.3,25.7,5.1c0.9-0.4,1.1-0.8,1.1-1c0.4-1.1-3.1-5.6-19.6-14.3
					C635.7,401.6,633.4,405.1,629.9,407.9z"/>
				<path class="st3" d="M571.7,382.7c-0.4,16.2,11.6,33.1,34.5,32.3c9.2-0.3,16-2.2,21.1-5.3c-7.7-2.9-16.6-6.7-26.5-11.5
					C589.5,392.9,579.7,387.6,571.7,382.7z"/>
				<path class="st2" d="M638.1,395.3c-0.1,0-0.2-0.1-0.3-0.1c-0.2,0.8-0.4,1.7-0.7,2.5c16.5,8.8,20.1,13.2,19.6,14.3
					c-0.1,0.2-0.2,0.6-1.1,1c-3.1,1.2-11.3,0.2-25.7-5.1c-7.6-2.8-16.8-6.7-28-12c-12.4-5.9-22.3-11.3-29.9-16.1
					c-12.4-7.6-18.7-13.4-19.3-16.3c-0.1-0.6,0-0.8,0.1-0.9c0.9-1.1,6.7-1.1,22.7,6.3c0.4-0.8,0.9-1.5,1.4-2.2
					c-0.1,0-0.1-0.1-0.2-0.1c-22.1-10.2-24.9-6.7-25.9-5.6c-0.5,0.6-1,1.6-0.6,3c0.9,4.1,8.8,10.8,21.6,18.5
					c8,4.8,17.8,10.1,29,15.5c9.9,4.7,18.8,8.6,26.5,11.5c11,4.1,19.6,6.3,25,6.3c1.7,0,3.1-0.2,4.2-0.6c1.3-0.5,2.2-1.3,2.6-2.4
					C659.7,411.5,661.2,407.5,638.1,395.3z"/>
				<path class="st3" d="M638,380.9c-3-17-18.7-27.5-29.6-28.6c-8.9-0.9-22.5,1.3-31.7,14.6c-0.5,0.7-0.9,1.4-1.4,2.2
					c-0.6,1.1-1.1,2.2-1.6,3.4c-0.9,2.4-1.6,4.9-1.9,7.5c7.6,4.7,17.6,10.1,29.9,16.1c11.1,5.3,20.4,9.2,28,12
					c3.5-2.8,5.9-6.3,7.3-10.3c0.3-0.8,0.5-1.6,0.7-2.5C638.9,390.7,638.9,385.8,638,380.9z"/>
			</g>
			<path class="st4" d="M587.1,403.7c-2.5-2.7-10.6,0.8-17.1,4.3c0.8-9.1,0.9-17-0.7-18.2c-0.5-0.4-1.2-0.5-1.8-0.2
				c-2.1,1-4.6,7.7-6.5,15.8c-6.2-5.2-12.5-9.6-15.5-8.9c-0.7,0.2-1.2,0.7-1.3,1.4c-0.5,2.7,5.5,10.4,12.7,18.1
				c-5,3.4-12.4,8.9-12.8,12.7c-0.1,1,0.2,1.8,0.9,2.5c0.5,0.4,1.2,0.6,2.1,0.6c2.4,0,6.3-1.5,10.7-3.7c0.1,6.8,1.9,11.6,4.7,11.8
				c0.1,0,0.2,0,0.2,0c2.1,0,3.6-2.5,4.2-6.9c0.3-1.8,0.6-4,0.9-6.4c2.5,2.2,4.8,4.2,6.7,5.6c4,3,5.9,3.7,7.1,3.7
				c0.4,0,0.7-0.1,1-0.2c0.9-0.5,1.4-1.2,1.6-2.2c0.8-4.4-7.1-13-8.1-14l0,0c-0.3-0.3-0.9-0.9-1.7-1.7c4.3-3,8-6,10.1-8.1
				C586.4,407.9,588.6,405.3,587.1,403.7z M568.2,391.2c0.9,1.2,0.6,8.4-0.2,17.8c-0.6,0.3-1.2,0.7-1.7,1c-1.2-1.1-2.5-2.3-3.8-3.4
				C564.4,398.3,566.8,391.8,568.2,391.2z M566.8,420.8c-0.5,0.3-1,0.6-1.5,0.9c-1.7-1.6-3.2-3.1-4.7-4.7c0.1-0.5,0.1-1,0.2-1.5
				c0.5-0.3,1-0.6,1.4-0.9l0,0c1.2-0.8,2.5-1.6,3.8-2.3c0.5,0.5,1,0.9,1.5,1.4C567.3,416,567,418.4,566.8,420.8z M569.3,415.3
				c0.8,0.8,1.6,1.6,2.4,2.3c-0.9,0.6-1.9,1.3-2.9,1.9C568.9,418.1,569.1,416.7,569.3,415.3z M560.2,419.3c1.1,1.2,2.3,2.3,3.4,3.4
				c-1.4,0.8-2.7,1.6-3.9,2.3C559.8,423.1,560,421.2,560.2,419.3z M561.2,413.1c0.3-1.5,0.6-3,0.9-4.5c0.9,0.8,1.7,1.5,2.6,2.3
				C563.1,411.9,561.9,412.6,561.2,413.1C561.2,413.1,561.2,413.1,561.2,413.1z M567.7,411.3C567.7,411.3,567.8,411.3,567.7,411.3
				C567.8,411.3,567.8,411.3,567.7,411.3C567.8,411.4,567.7,411.3,567.7,411.3z M545.9,398.2c0.1,0,0.3-0.1,0.5-0.1
				c2.5,0,8.1,4,14.1,9.2c-0.5,2.3-1,4.7-1.4,7.1c-0.2,0.1-0.5,0.3-0.7,0.5C550.6,406.6,545.4,399.6,545.9,398.2z M546.3,429.7
				c-0.3-0.3-0.4-0.5-0.3-0.9c0.3-2.7,6.6-7.8,12.2-11.6c0.2,0.2,0.3,0.3,0.5,0.5c-0.4,2.6-0.6,5.2-0.7,7.5c0,0.2,0,0.5,0,0.7
				C550.7,429.7,547,430.4,546.3,429.7z M565.2,432.8L565.2,432.8c-0.5,4-1.8,5.3-2.5,5.3c-1.2-0.1-3.2-3.5-3.1-11
				c1.8-0.9,3.6-2,5.4-3.1c0.4,0.4,0.8,0.7,1.2,1.1C565.9,427.7,565.6,430.2,565.2,432.8z M574.8,420.8c3.2,3.4,8,9.8,7.6,12.4
				c-0.1,0.4-0.3,0.7-0.7,0.9c-0.6,0.2-4.2-1.1-13.6-9.7c0.1-0.8,0.2-1.7,0.3-2.6c1.5-1,3-2,4.5-3
				C573.6,419.6,574.2,420.2,574.8,420.8z M573.2,416.6c-1-1-2.3-2.2-3.7-3.6c0.1-1,0.2-1.9,0.3-2.8c5.7-3.1,11.6-5.7,14.5-5.7
				c0.7,0,1.2,0.1,1.5,0.5C586.1,406.1,581.4,410.8,573.2,416.6z"/>
		</g>
	</g>
</g>
</svg>
