<svg xmlns="http://www.w3.org/2000/svg" xmlns:xlink="http://www.w3.org/1999/xlink" width="500" zoomAndPan="magnify" viewBox="0 0 375 374.999991" height="500" preserveAspectRatio="xMidYMid meet" version="1.0"><defs><clipPath id="36f1ee2e07"><path d="M 0 29.40625 L 371 29.40625 L 371 352.65625 L 0 352.65625 Z M 0 29.40625 " clip-rule="nonzero"/></clipPath><clipPath id="a4e2aa590c"><path d="M 13 43 L 350 43 L 350 333 L 13 333 Z M 13 43 " clip-rule="nonzero"/></clipPath><clipPath id="0ca25552a5"><path d="M 347.765625 109.507812 C 347.71875 109.3125 347.675781 109.117188 347.628906 108.921875 C 347.40625 107.984375 347.164062 107.050781 346.90625 106.117188 C 346.8125 105.777344 346.714844 105.433594 346.617188 105.09375 C 346.375 104.25 346.121094 103.40625 345.847656 102.566406 C 345.714844 102.152344 345.574219 101.742188 345.4375 101.332031 C 345.242188 100.761719 345.042969 100.195312 344.835938 99.625 C 344.601562 98.984375 344.359375 98.34375 344.113281 97.707031 C 343.914062 97.195312 343.710938 96.6875 343.5 96.183594 C 343.277344 95.644531 343.054688 95.109375 342.820312 94.578125 C 342.535156 93.921875 342.238281 93.269531 341.933594 92.621094 C 341.722656 92.167969 341.507812 91.71875 341.289062 91.269531 C 340.925781 90.527344 340.554688 89.792969 340.167969 89.0625 C 339.964844 88.671875 339.75 88.285156 339.539062 87.894531 C 339.171875 87.21875 338.792969 86.546875 338.40625 85.882812 C 338.1875 85.507812 337.96875 85.136719 337.742188 84.769531 C 337.308594 84.050781 336.867188 83.335938 336.410156 82.628906 C 336.304688 82.464844 336.210938 82.300781 336.105469 82.140625 C 336.09375 82.121094 336.074219 82.105469 336.0625 82.085938 C 332.894531 77.246094 329.1875 72.65625 324.941406 68.410156 L 323.746094 69.601562 L 324.910156 68.375 C 306.320312 49.785156 280.683594 40.835938 254.566406 43.824219 C 228.445312 46.8125 205.488281 61.324219 191.578125 83.632812 L 181.855469 99.234375 L 172.28125 83.863281 C 158.378906 61.539062 135.421875 47.019531 109.296875 44.023438 C 83.175781 41.03125 57.527344 49.976562 38.933594 68.574219 C 5.515625 102 5.515625 156.382812 38.933594 189.808594 L 180.660156 331.566406 C 180.988281 331.894531 181.421875 332.0625 181.855469 332.0625 C 182.285156 332.0625 182.71875 331.894531 183.046875 331.566406 L 324.941406 189.640625 C 325.773438 188.8125 326.578125 187.964844 327.367188 187.109375 C 327.460938 187.007812 327.554688 186.90625 327.648438 186.804688 C 328.445312 185.929688 329.222656 185.039062 329.980469 184.140625 C 330.003906 184.113281 330.027344 184.085938 330.046875 184.058594 C 347.796875 162.886719 353.703125 135.089844 347.765625 109.507812 Z M 347.765625 109.507812 " clip-rule="nonzero"/></clipPath><linearGradient x1="84.002277" gradientTransform="matrix(0.844473, 0, 0, 0.844656, 0.0270797, 29.405759)" y1="-47.858458" x2="410.778581" gradientUnits="userSpaceOnUse" y2="364.681833" id="d8f6267dc6"><stop stop-opacity="1" stop-color="rgb(100%, 64.299011%, 87.098694%)" offset="0"/><stop stop-opacity="1" stop-color="rgb(100%, 64.299011%, 87.098694%)" offset="0.125"/><stop stop-opacity="1" stop-color="rgb(100%, 64.299011%, 87.098694%)" offset="0.15625"/><stop stop-opacity="1" stop-color="rgb(100%, 64.299011%, 87.098694%)" offset="0.164062"/><stop stop-opacity="1" stop-color="rgb(99.728394%, 64.179993%, 87.167358%)" offset="0.167969"/><stop stop-opacity="1" stop-color="rgb(99.458313%, 64.060974%, 87.237549%)" offset="0.171875"/><stop stop-opacity="1" stop-color="rgb(99.136353%, 63.919067%, 87.31842%)" offset="0.175781"/><stop stop-opacity="1" stop-color="rgb(98.814392%, 63.777161%, 87.400818%)" offset="0.179688"/><stop stop-opacity="1" stop-color="rgb(98.492432%, 63.635254%, 87.483215%)" offset="0.183594"/><stop stop-opacity="1" stop-color="rgb(98.170471%, 63.493347%, 87.565613%)" offset="0.1875"/><stop stop-opacity="1" stop-color="rgb(97.848511%, 63.35144%, 87.646484%)" offset="0.191406"/><stop stop-opacity="1" stop-color="rgb(97.52655%, 63.209534%, 87.728882%)" offset="0.195313"/><stop stop-opacity="1" stop-color="rgb(97.20459%, 63.067627%, 87.811279%)" offset="0.199219"/><stop stop-opacity="1" stop-color="rgb(96.882629%, 62.92572%, 87.893677%)" offset="0.203125"/><stop stop-opacity="1" stop-color="rgb(96.560669%, 62.783813%, 87.976074%)" offset="0.207031"/><stop stop-opacity="1" stop-color="rgb(96.240234%, 62.641907%, 88.058472%)" offset="0.210938"/><stop stop-opacity="1" stop-color="rgb(95.918274%, 62.5%, 88.139343%)" offset="0.214844"/><stop stop-opacity="1" stop-color="rgb(95.596313%, 62.358093%, 88.221741%)" offset="0.21875"/><stop stop-opacity="1" stop-color="rgb(95.274353%, 62.216187%, 88.304138%)" offset="0.222656"/><stop stop-opacity="1" stop-color="rgb(94.952393%, 62.07428%, 88.386536%)" offset="0.226563"/><stop stop-opacity="1" stop-color="rgb(94.630432%, 61.932373%, 88.467407%)" offset="0.230469"/><stop stop-opacity="1" stop-color="rgb(94.308472%, 61.790466%, 88.549805%)" offset="0.234375"/><stop stop-opacity="1" stop-color="rgb(93.986511%, 61.64856%, 88.632202%)" offset="0.238281"/><stop stop-opacity="1" stop-color="rgb(93.664551%, 61.508179%, 88.7146%)" offset="0.242188"/><stop stop-opacity="1" stop-color="rgb(93.34259%, 61.366272%, 88.795471%)" offset="0.246094"/><stop stop-opacity="1" stop-color="rgb(93.02063%, 61.224365%, 88.877869%)" offset="0.25"/><stop stop-opacity="1" stop-color="rgb(92.698669%, 61.082458%, 88.960266%)" offset="0.253906"/><stop stop-opacity="1" stop-color="rgb(92.376709%, 60.940552%, 89.042664%)" offset="0.257812"/><stop stop-opacity="1" stop-color="rgb(92.054749%, 60.798645%, 89.123535%)" offset="0.261719"/><stop stop-opacity="1" stop-color="rgb(91.732788%, 60.656738%, 89.205933%)" offset="0.265625"/><stop stop-opacity="1" stop-color="rgb(91.410828%, 60.514832%, 89.28833%)" offset="0.269531"/><stop stop-opacity="1" stop-color="rgb(91.090393%, 60.372925%, 89.370728%)" offset="0.273438"/><stop stop-opacity="1" stop-color="rgb(90.768433%, 60.231018%, 89.453125%)" offset="0.277344"/><stop stop-opacity="1" stop-color="rgb(90.446472%, 60.089111%, 89.535522%)" offset="0.28125"/><stop stop-opacity="1" stop-color="rgb(90.124512%, 59.947205%, 89.616394%)" offset="0.285156"/><stop stop-opacity="1" stop-color="rgb(89.802551%, 59.805298%, 89.698792%)" offset="0.289063"/><stop stop-opacity="1" stop-color="rgb(89.480591%, 59.663391%, 89.781189%)" offset="0.292969"/><stop stop-opacity="1" stop-color="rgb(89.15863%, 59.521484%, 89.863586%)" offset="0.296875"/><stop stop-opacity="1" stop-color="rgb(88.83667%, 59.379578%, 89.944458%)" offset="0.300781"/><stop stop-opacity="1" stop-color="rgb(88.514709%, 59.237671%, 90.026855%)" offset="0.304688"/><stop stop-opacity="1" stop-color="rgb(88.192749%, 59.095764%, 90.109253%)" offset="0.308594"/><stop stop-opacity="1" stop-color="rgb(87.870789%, 58.953857%, 90.19165%)" offset="0.3125"/><stop stop-opacity="1" stop-color="rgb(87.548828%, 58.811951%, 90.272522%)" offset="0.316406"/><stop stop-opacity="1" stop-color="rgb(87.226868%, 58.670044%, 90.354919%)" offset="0.320313"/><stop stop-opacity="1" stop-color="rgb(86.904907%, 58.528137%, 90.437317%)" offset="0.324219"/><stop stop-opacity="1" stop-color="rgb(86.582947%, 58.38623%, 90.519714%)" offset="0.328125"/><stop stop-opacity="1" stop-color="rgb(86.260986%, 58.244324%, 90.600586%)" offset="0.332031"/><stop stop-opacity="1" stop-color="rgb(85.939026%, 58.102417%, 90.682983%)" offset="0.335938"/><stop stop-opacity="1" stop-color="rgb(85.617065%, 57.96051%, 90.765381%)" offset="0.339844"/><stop stop-opacity="1" stop-color="rgb(85.296631%, 57.818604%, 90.847778%)" offset="0.34375"/><stop stop-opacity="1" stop-color="rgb(84.97467%, 57.676697%, 90.930176%)" offset="0.347656"/><stop stop-opacity="1" stop-color="rgb(84.65271%, 57.536316%, 91.012573%)" offset="0.351562"/><stop stop-opacity="1" stop-color="rgb(84.33075%, 57.394409%, 91.093445%)" offset="0.355469"/><stop stop-opacity="1" stop-color="rgb(84.008789%, 57.252502%, 91.175842%)" offset="0.359375"/><stop stop-opacity="1" stop-color="rgb(83.686829%, 57.110596%, 91.25824%)" offset="0.363281"/><stop stop-opacity="1" stop-color="rgb(83.364868%, 56.968689%, 91.340637%)" offset="0.367188"/><stop stop-opacity="1" stop-color="rgb(83.042908%, 56.826782%, 91.421509%)" offset="0.371094"/><stop stop-opacity="1" stop-color="rgb(82.720947%, 56.684875%, 91.503906%)" offset="0.375"/><stop stop-opacity="1" stop-color="rgb(82.398987%, 56.542969%, 91.586304%)" offset="0.378906"/><stop stop-opacity="1" stop-color="rgb(82.077026%, 56.401062%, 91.668701%)" offset="0.382813"/><stop stop-opacity="1" stop-color="rgb(81.755066%, 56.259155%, 91.749573%)" offset="0.386719"/><stop stop-opacity="1" stop-color="rgb(81.433105%, 56.117249%, 91.83197%)" offset="0.390625"/><stop stop-opacity="1" stop-color="rgb(81.111145%, 55.975342%, 91.914368%)" offset="0.394531"/><stop stop-opacity="1" stop-color="rgb(80.789185%, 55.833435%, 91.996765%)" offset="0.398438"/><stop stop-opacity="1" stop-color="rgb(80.467224%, 55.691528%, 92.077637%)" offset="0.402344"/><stop stop-opacity="1" stop-color="rgb(80.145264%, 55.549622%, 92.160034%)" offset="0.40625"/><stop stop-opacity="1" stop-color="rgb(79.823303%, 55.407715%, 92.242432%)" offset="0.410156"/><stop stop-opacity="1" stop-color="rgb(79.502869%, 55.265808%, 92.324829%)" offset="0.414063"/><stop stop-opacity="1" stop-color="rgb(79.180908%, 55.123901%, 92.407227%)" offset="0.417969"/><stop stop-opacity="1" stop-color="rgb(78.858948%, 54.981995%, 92.489624%)" offset="0.421875"/><stop stop-opacity="1" stop-color="rgb(78.536987%, 54.840088%, 92.570496%)" offset="0.425781"/><stop stop-opacity="1" stop-color="rgb(78.215027%, 54.698181%, 92.652893%)" offset="0.429688"/><stop stop-opacity="1" stop-color="rgb(77.893066%, 54.556274%, 92.735291%)" offset="0.433594"/><stop stop-opacity="1" stop-color="rgb(77.571106%, 54.414368%, 92.817688%)" offset="0.4375"/><stop stop-opacity="1" stop-color="rgb(77.249146%, 54.272461%, 92.89856%)" offset="0.441406"/><stop stop-opacity="1" stop-color="rgb(76.927185%, 54.130554%, 92.980957%)" offset="0.445312"/><stop stop-opacity="1" stop-color="rgb(76.605225%, 53.988647%, 93.063354%)" offset="0.449219"/><stop stop-opacity="1" stop-color="rgb(76.283264%, 53.846741%, 93.145752%)" offset="0.453125"/><stop stop-opacity="1" stop-color="rgb(75.961304%, 53.704834%, 93.226624%)" offset="0.457031"/><stop stop-opacity="1" stop-color="rgb(75.639343%, 53.564453%, 93.309021%)" offset="0.460938"/><stop stop-opacity="1" stop-color="rgb(75.317383%, 53.422546%, 93.391418%)" offset="0.464844"/><stop stop-opacity="1" stop-color="rgb(74.995422%, 53.28064%, 93.473816%)" offset="0.46875"/><stop stop-opacity="1" stop-color="rgb(74.673462%, 53.138733%, 93.554688%)" offset="0.472656"/><stop stop-opacity="1" stop-color="rgb(74.351501%, 52.996826%, 93.637085%)" offset="0.476563"/><stop stop-opacity="1" stop-color="rgb(74.029541%, 52.854919%, 93.719482%)" offset="0.480469"/><stop stop-opacity="1" stop-color="rgb(73.709106%, 52.713013%, 93.80188%)" offset="0.484375"/><stop stop-opacity="1" stop-color="rgb(73.387146%, 52.571106%, 93.884277%)" offset="0.488281"/><stop stop-opacity="1" stop-color="rgb(73.065186%, 52.429199%, 93.966675%)" offset="0.492188"/><stop stop-opacity="1" stop-color="rgb(72.743225%, 52.287292%, 94.047546%)" offset="0.496094"/><stop stop-opacity="1" stop-color="rgb(72.421265%, 52.145386%, 94.129944%)" offset="0.5"/><stop stop-opacity="1" stop-color="rgb(72.099304%, 52.003479%, 94.212341%)" offset="0.503906"/><stop stop-opacity="1" stop-color="rgb(71.777344%, 51.861572%, 94.294739%)" offset="0.507812"/><stop stop-opacity="1" stop-color="rgb(71.455383%, 51.719666%, 94.37561%)" offset="0.511719"/><stop stop-opacity="1" stop-color="rgb(71.133423%, 51.577759%, 94.458008%)" offset="0.515625"/><stop stop-opacity="1" stop-color="rgb(70.811462%, 51.435852%, 94.540405%)" offset="0.519531"/><stop stop-opacity="1" stop-color="rgb(70.489502%, 51.293945%, 94.622803%)" offset="0.523438"/><stop stop-opacity="1" stop-color="rgb(70.167542%, 51.152039%, 94.703674%)" offset="0.527344"/><stop stop-opacity="1" stop-color="rgb(69.845581%, 51.010132%, 94.786072%)" offset="0.53125"/><stop stop-opacity="1" stop-color="rgb(69.523621%, 50.868225%, 94.868469%)" offset="0.535156"/><stop stop-opacity="1" stop-color="rgb(69.20166%, 50.726318%, 94.950867%)" offset="0.539063"/><stop stop-opacity="1" stop-color="rgb(68.8797%, 50.584412%, 95.031738%)" offset="0.542969"/><stop stop-opacity="1" stop-color="rgb(68.559265%, 50.442505%, 95.114136%)" offset="0.546875"/><stop stop-opacity="1" stop-color="rgb(68.237305%, 50.300598%, 95.196533%)" offset="0.550781"/><stop stop-opacity="1" stop-color="rgb(67.915344%, 50.158691%, 95.278931%)" offset="0.554688"/><stop stop-opacity="1" stop-color="rgb(67.593384%, 50.016785%, 95.361328%)" offset="0.558594"/><stop stop-opacity="1" stop-color="rgb(67.271423%, 49.874878%, 95.443726%)" offset="0.5625"/><stop stop-opacity="1" stop-color="rgb(66.949463%, 49.732971%, 95.524597%)" offset="0.566406"/><stop stop-opacity="1" stop-color="rgb(66.627502%, 49.59259%, 95.606995%)" offset="0.570313"/><stop stop-opacity="1" stop-color="rgb(66.305542%, 49.450684%, 95.689392%)" offset="0.574219"/><stop stop-opacity="1" stop-color="rgb(65.983582%, 49.308777%, 95.77179%)" offset="0.578125"/><stop stop-opacity="1" stop-color="rgb(65.661621%, 49.16687%, 95.852661%)" offset="0.582031"/><stop stop-opacity="1" stop-color="rgb(65.339661%, 49.024963%, 95.935059%)" offset="0.585938"/><stop stop-opacity="1" stop-color="rgb(65.0177%, 48.883057%, 96.017456%)" offset="0.589844"/><stop stop-opacity="1" stop-color="rgb(64.69574%, 48.74115%, 96.099854%)" offset="0.59375"/><stop stop-opacity="1" stop-color="rgb(64.373779%, 48.599243%, 96.180725%)" offset="0.597656"/><stop stop-opacity="1" stop-color="rgb(64.051819%, 48.457336%, 96.263123%)" offset="0.601563"/><stop stop-opacity="1" stop-color="rgb(63.729858%, 48.31543%, 96.34552%)" offset="0.605469"/><stop stop-opacity="1" stop-color="rgb(63.407898%, 48.173523%, 96.427917%)" offset="0.609375"/><stop stop-opacity="1" stop-color="rgb(63.085938%, 48.031616%, 96.508789%)" offset="0.613281"/><stop stop-opacity="1" stop-color="rgb(62.765503%, 47.889709%, 96.591187%)" offset="0.617188"/><stop stop-opacity="1" stop-color="rgb(62.443542%, 47.747803%, 96.673584%)" offset="0.621094"/><stop stop-opacity="1" stop-color="rgb(62.121582%, 47.605896%, 96.755981%)" offset="0.625"/><stop stop-opacity="1" stop-color="rgb(61.799622%, 47.463989%, 96.838379%)" offset="0.628906"/><stop stop-opacity="1" stop-color="rgb(61.477661%, 47.322083%, 96.920776%)" offset="0.632813"/><stop stop-opacity="1" stop-color="rgb(61.155701%, 47.180176%, 97.001648%)" offset="0.636719"/><stop stop-opacity="1" stop-color="rgb(60.83374%, 47.038269%, 97.084045%)" offset="0.640625"/><stop stop-opacity="1" stop-color="rgb(60.51178%, 46.896362%, 97.166443%)" offset="0.644531"/><stop stop-opacity="1" stop-color="rgb(60.189819%, 46.754456%, 97.24884%)" offset="0.648438"/><stop stop-opacity="1" stop-color="rgb(59.867859%, 46.612549%, 97.329712%)" offset="0.652344"/><stop stop-opacity="1" stop-color="rgb(59.545898%, 46.470642%, 97.412109%)" offset="0.65625"/><stop stop-opacity="1" stop-color="rgb(59.223938%, 46.328735%, 97.494507%)" offset="0.660156"/><stop stop-opacity="1" stop-color="rgb(58.901978%, 46.186829%, 97.576904%)" offset="0.664063"/><stop stop-opacity="1" stop-color="rgb(58.580017%, 46.044922%, 97.657776%)" offset="0.667969"/><stop stop-opacity="1" stop-color="rgb(58.258057%, 45.903015%, 97.740173%)" offset="0.671875"/><stop stop-opacity="1" stop-color="rgb(57.936096%, 45.761108%, 97.822571%)" offset="0.675781"/><stop stop-opacity="1" stop-color="rgb(57.614136%, 45.619202%, 97.904968%)" offset="0.679688"/><stop stop-opacity="1" stop-color="rgb(57.292175%, 45.477295%, 97.98584%)" offset="0.683594"/><stop stop-opacity="1" stop-color="rgb(56.971741%, 45.336914%, 98.068237%)" offset="0.6875"/><stop stop-opacity="1" stop-color="rgb(56.64978%, 45.195007%, 98.150635%)" offset="0.691406"/><stop stop-opacity="1" stop-color="rgb(56.32782%, 45.053101%, 98.233032%)" offset="0.695313"/><stop stop-opacity="1" stop-color="rgb(56.005859%, 44.911194%, 98.31543%)" offset="0.699219"/><stop stop-opacity="1" stop-color="rgb(55.683899%, 44.769287%, 98.397827%)" offset="0.703125"/><stop stop-opacity="1" stop-color="rgb(55.361938%, 44.62738%, 98.478699%)" offset="0.707031"/><stop stop-opacity="1" stop-color="rgb(55.039978%, 44.485474%, 98.561096%)" offset="0.710938"/><stop stop-opacity="1" stop-color="rgb(54.718018%, 44.343567%, 98.643494%)" offset="0.714844"/><stop stop-opacity="1" stop-color="rgb(54.396057%, 44.20166%, 98.725891%)" offset="0.71875"/><stop stop-opacity="1" stop-color="rgb(54.074097%, 44.059753%, 98.806763%)" offset="0.722656"/><stop stop-opacity="1" stop-color="rgb(53.752136%, 43.917847%, 98.88916%)" offset="0.726562"/><stop stop-opacity="1" stop-color="rgb(53.430176%, 43.77594%, 98.971558%)" offset="0.730469"/><stop stop-opacity="1" stop-color="rgb(53.108215%, 43.634033%, 99.053955%)" offset="0.734375"/><stop stop-opacity="1" stop-color="rgb(52.786255%, 43.492126%, 99.134827%)" offset="0.738281"/><stop stop-opacity="1" stop-color="rgb(52.464294%, 43.35022%, 99.217224%)" offset="0.742188"/><stop stop-opacity="1" stop-color="rgb(52.142334%, 43.208313%, 99.299622%)" offset="0.746094"/><stop stop-opacity="1" stop-color="rgb(51.820374%, 43.066406%, 99.382019%)" offset="0.75"/><stop stop-opacity="1" stop-color="rgb(51.498413%, 42.9245%, 99.462891%)" offset="0.753906"/><stop stop-opacity="1" stop-color="rgb(51.177979%, 42.782593%, 99.545288%)" offset="0.757812"/><stop stop-opacity="1" stop-color="rgb(50.856018%, 42.640686%, 99.627686%)" offset="0.761719"/><stop stop-opacity="1" stop-color="rgb(50.534058%, 42.498779%, 99.710083%)" offset="0.765625"/><stop stop-opacity="1" stop-color="rgb(50.212097%, 42.356873%, 99.79248%)" offset="0.769531"/><stop stop-opacity="1" stop-color="rgb(49.890137%, 42.214966%, 99.874878%)" offset="0.773438"/><stop stop-opacity="1" stop-color="rgb(49.64447%, 42.106628%, 99.937439%)" offset="0.777344"/><stop stop-opacity="1" stop-color="rgb(49.398804%, 41.999817%, 100%)" offset="0.78125"/><stop stop-opacity="1" stop-color="rgb(49.398804%, 41.999817%, 100%)" offset="0.8125"/><stop stop-opacity="1" stop-color="rgb(49.398804%, 41.999817%, 100%)" offset="0.875"/><stop stop-opacity="1" stop-color="rgb(49.398804%, 41.999817%, 100%)" offset="1"/></linearGradient><clipPath id="4018b0c307"><path d="M 0 29.40625 L 371 29.40625 L 371 352.65625 L 0 352.65625 Z M 0 29.40625 " clip-rule="nonzero"/></clipPath></defs><g clip-path="url(#36f1ee2e07)"><path fill="#0642c8" d="M 368.066406 115.253906 L 367.902344 114.539062 C 367.65625 113.511719 367.378906 112.433594 367.078125 111.34375 C 366.96875 110.953125 366.859375 110.566406 366.746094 110.164062 C 366.464844 109.199219 366.175781 108.234375 365.871094 107.289062 C 365.746094 106.902344 365.617188 106.515625 365.484375 106.128906 L 365.394531 105.863281 C 365.171875 105.214844 364.941406 104.5625 364.714844 103.929688 C 364.445312 103.195312 364.167969 102.457031 363.878906 101.714844 C 363.652344 101.136719 363.421875 100.5625 363.1875 99.988281 C 362.929688 99.367188 362.667969 98.75 362.40625 98.152344 C 362.078125 97.402344 361.742188 96.65625 361.390625 95.902344 C 361.148438 95.390625 360.902344 94.875 360.65625 94.367188 C 360.242188 93.523438 359.816406 92.683594 359.367188 91.828125 C 359.132812 91.382812 358.890625 90.9375 358.65625 90.511719 C 358.234375 89.738281 357.800781 88.96875 357.359375 88.210938 C 357.109375 87.78125 356.855469 87.355469 356.605469 86.9375 C 356.109375 86.117188 355.601562 85.300781 355.078125 84.488281 L 355.089844 84.507812 C 354.976562 84.320312 354.859375 84.132812 354.726562 83.925781 L 354.238281 83.1875 L 354.203125 83.148438 C 352.824219 81.082031 351.367188 79.066406 349.828125 77.105469 L 348.398438 75.679688 C 348.292969 75.515625 348.195312 75.347656 348.089844 75.183594 C 347.964844 74.980469 347.839844 74.777344 347.691406 74.546875 L 347.203125 73.8125 L 347.101562 73.671875 C 345.722656 71.609375 344.246094 69.574219 342.757812 67.675781 L 342.421875 67.210938 C 337.738281 60.660156 332.019531 54.996094 325.429688 50.371094 C 307.882812 36.65625 286.800781 29.40625 264.457031 29.40625 C 260.648438 29.40625 256.792969 29.625 252.992188 30.0625 C 223.941406 33.386719 198.160156 49.050781 181.855469 73.183594 C 165.550781 49.175781 139.824219 33.582031 110.875 30.261719 C 107.070312 29.828125 103.203125 29.605469 99.390625 29.605469 C 72.898438 29.605469 47.949219 39.964844 29.140625 58.78125 C 10.367188 77.558594 0.0273438 102.566406 0.0273438 129.191406 C 0.0273438 155.820312 10.367188 180.824219 29.140625 199.605469 L 170.859375 341.355469 C 172.621094 343.117188 174.734375 344.394531 177.035156 345.144531 L 180.5 348.605469 C 183.117188 351.226562 186.597656 352.671875 190.300781 352.671875 C 194 352.671875 197.480469 351.226562 200.09375 348.613281 L 341.984375 206.6875 C 342.863281 205.8125 343.765625 204.867188 344.75 203.800781 L 345.066406 203.457031 C 345.960938 202.480469 346.859375 201.453125 347.695312 200.457031 L 347.8125 200.320312 C 367.429688 176.921875 374.996094 145.101562 368.066406 115.253906 Z M 368.066406 115.253906 " fill-opacity="1" fill-rule="nonzero"/></g><g clip-path="url(#a4e2aa590c)"><g clip-path="url(#0ca25552a5)"><path fill="url(#d8f6267dc6)" d="M 5.515625 40.835938 L 5.515625 332.0625 L 353.703125 332.0625 L 353.703125 40.835938 Z M 5.515625 40.835938 " fill-rule="nonzero"/></g></g><path fill="#ffa4de" d="M 277.71875 187.660156 C 276.429688 195.976562 275.382812 197.023438 267.066406 198.316406 C 275.382812 199.609375 276.429688 200.65625 277.71875 208.972656 C 279.011719 200.65625 280.058594 199.609375 288.371094 198.316406 C 280.058594 197.023438 279.011719 195.976562 277.71875 187.660156 Z M 277.71875 187.660156 " fill-opacity="1" fill-rule="nonzero"/><path fill="#ffa4de" d="M 210.5 264.292969 C 208.8125 264.292969 207.445312 265.664062 207.445312 267.351562 C 207.445312 269.039062 208.8125 270.40625 210.5 270.40625 C 212.1875 270.40625 213.554688 269.039062 213.554688 267.351562 C 213.554688 265.664062 212.1875 264.292969 210.5 264.292969 Z M 210.5 264.292969 " fill-opacity="1" fill-rule="nonzero"/><path fill="#ffa4de" d="M 357.8125 106.472656 C 357.574219 105.472656 357.300781 104.417969 357.003906 103.347656 C 356.898438 102.960938 356.789062 102.578125 356.675781 102.183594 C 356.402344 101.238281 356.121094 100.292969 355.820312 99.363281 C 355.695312 98.980469 355.570312 98.605469 355.441406 98.226562 L 355.351562 97.964844 C 355.132812 97.320312 354.90625 96.683594 354.679688 96.0625 C 354.417969 95.335938 354.144531 94.613281 353.859375 93.882812 C 353.640625 93.316406 353.414062 92.75 353.179688 92.1875 C 352.929688 91.578125 352.675781 90.972656 352.414062 90.382812 C 352.09375 89.648438 351.761719 88.914062 351.414062 88.171875 C 351.179688 87.667969 350.9375 87.164062 350.695312 86.664062 C 350.289062 85.835938 349.871094 85.007812 349.429688 84.167969 C 349.199219 83.734375 348.960938 83.296875 348.730469 82.878906 C 348.3125 82.113281 347.890625 81.359375 347.457031 80.613281 C 347.210938 80.195312 346.960938 79.773438 346.714844 79.363281 C 346.226562 78.554688 345.726562 77.753906 345.210938 76.957031 L 345.660156 76.660156 L 345.203125 76.9375 C 345.097656 76.765625 344.992188 76.59375 344.867188 76.402344 L 344.355469 75.640625 C 343.003906 73.617188 341.558594 71.621094 340.054688 69.703125 L 339.675781 69.175781 C 335.203125 62.925781 329.746094 57.523438 323.453125 53.109375 L 323.382812 53.058594 C 306.429688 39.792969 286.054688 32.785156 264.457031 32.785156 C 260.777344 32.785156 257.050781 32.996094 253.375 33.417969 C 224.484375 36.722656 198.933594 52.667969 183.28125 77.164062 L 181.859375 79.382812 L 180.4375 77.167969 C 164.78125 52.792969 139.285156 36.921875 110.488281 33.617188 C 106.8125 33.199219 103.078125 32.984375 99.390625 32.984375 C 73.800781 32.984375 49.699219 42.992188 31.527344 61.167969 C 13.394531 79.308594 3.40625 103.46875 3.40625 129.191406 C 3.40625 154.917969 13.394531 179.074219 31.527344 197.214844 L 173.25 338.964844 C 175.546875 341.265625 178.605469 342.535156 181.855469 342.535156 C 185.105469 342.535156 188.160156 341.269531 190.453125 338.972656 L 332.347656 197.046875 C 333.21875 196.175781 334.109375 195.246094 335.066406 194.207031 L 335.382812 193.863281 C 336.238281 192.929688 337.128906 191.910156 337.957031 190.921875 L 338.074219 190.785156 C 357.351562 167.792969 364.789062 136.542969 357.976562 107.1875 Z M 330.046875 184.058594 C 330.027344 184.085938 330.003906 184.113281 329.980469 184.140625 C 329.222656 185.039062 328.445312 185.929688 327.648438 186.804688 C 327.554688 186.90625 327.460938 187.007812 327.367188 187.109375 C 326.578125 187.964844 325.773438 188.8125 324.941406 189.640625 L 183.046875 331.566406 C 182.71875 331.894531 182.285156 332.0625 181.855469 332.0625 C 181.421875 332.0625 180.988281 331.894531 180.660156 331.566406 L 38.933594 189.808594 C 5.515625 156.382812 5.515625 102 38.933594 68.574219 C 57.527344 49.976562 83.175781 41.03125 109.296875 44.023438 C 135.421875 47.019531 158.378906 61.539062 172.28125 83.863281 L 181.855469 99.234375 L 191.578125 83.632812 C 205.488281 61.324219 228.445312 46.8125 254.566406 43.824219 C 280.683594 40.835938 306.320312 49.785156 324.910156 68.375 L 323.746094 69.601562 L 324.941406 68.410156 C 329.1875 72.65625 332.894531 77.246094 336.0625 82.085938 C 336.074219 82.105469 336.09375 82.121094 336.105469 82.140625 C 336.210938 82.300781 336.304688 82.464844 336.410156 82.628906 C 336.867188 83.335938 337.308594 84.050781 337.742188 84.769531 C 337.96875 85.136719 338.1875 85.507812 338.40625 85.882812 C 338.792969 86.546875 339.171875 87.21875 339.539062 87.894531 C 339.75 88.285156 339.964844 88.671875 340.167969 89.0625 C 340.554688 89.792969 340.925781 90.527344 341.289062 91.269531 C 341.507812 91.71875 341.722656 92.167969 341.933594 92.621094 C 342.238281 93.269531 342.535156 93.921875 342.820312 94.578125 C 343.054688 95.109375 343.277344 95.644531 343.5 96.183594 C 343.710938 96.6875 343.914062 97.195312 344.113281 97.707031 C 344.359375 98.34375 344.601562 98.984375 344.835938 99.625 C 345.042969 100.195312 345.242188 100.761719 345.4375 101.332031 C 345.574219 101.742188 345.714844 102.152344 345.847656 102.566406 C 346.121094 103.40625 346.375 104.25 346.617188 105.09375 C 346.714844 105.433594 346.8125 105.777344 346.90625 106.117188 C 347.164062 107.050781 347.40625 107.984375 347.628906 108.921875 C 347.675781 109.117188 347.71875 109.3125 347.765625 109.507812 C 353.703125 135.089844 347.796875 162.886719 330.046875 184.058594 Z M 330.046875 184.058594 " fill-opacity="1" fill-rule="nonzero"/><path fill="#86d635" d="M 167.023438 209.9375 C 163.746094 210.695312 160.429688 211.125 157.269531 209.476562 C 154.914062 208.25 153.421875 206.222656 151.976562 204.253906 C 151.039062 202.980469 150.152344 201.773438 149.078125 200.84375 C 145.078125 197.386719 138.8125 198.375 135.078125 201.332031 C 131.328125 204.296875 128.878906 209.476562 128.355469 215.53125 C 128.339844 215.675781 128.304688 215.808594 128.253906 215.945312 C 129.144531 217.429688 130.097656 218.871094 131.101562 220.273438 C 141.777344 217.992188 154.042969 214.457031 167.023438 209.9375 Z M 167.023438 209.9375 " fill-opacity="1" fill-rule="nonzero"/><path fill="#86d635" d="M 215.472656 189.117188 C 215.253906 189.339844 215.042969 189.566406 214.832031 189.785156 C 214.683594 189.945312 214.554688 190.113281 214.414062 190.277344 C 225.507812 184.878906 235.472656 179.359375 243.675781 174.046875 C 242.722656 168.070312 240.925781 162.375 238.398438 157.089844 C 234.125 156.546875 229.929688 157.199219 226.46875 159 C 222.449219 161.074219 219.457031 164.734375 218.453125 168.769531 C 217.601562 172.191406 218.097656 175.96875 218.578125 179.609375 L 218.605469 179.792969 C 218.789062 181.222656 219.027344 182.996094 218.46875 184.75 C 217.894531 186.585938 216.601562 187.929688 215.472656 189.117188 Z M 215.472656 189.117188 " fill-opacity="1" fill-rule="nonzero"/><path fill="#86d635" d="M 132.855469 155.324219 C 134.78125 156.285156 137.214844 155.222656 139.78125 154.097656 C 140.644531 153.71875 141.53125 153.332031 142.417969 153.019531 C 144.511719 152.265625 146.800781 151.929688 149.019531 152.039062 C 150.101562 152.089844 151.6875 152.285156 152.878906 153.382812 C 154.113281 154.503906 154.433594 156.058594 154.644531 157.4375 L 154.789062 158.457031 C 155.253906 161.601562 155.726562 164.84375 157.449219 167.234375 C 159.660156 170.300781 164.144531 171.601562 167.648438 170.179688 C 171.457031 168.652344 173.753906 164.503906 175.011719 161.304688 C 175.578125 159.851562 176.078125 158.3125 176.558594 156.828125 C 177.429688 154.125 178.332031 151.328125 179.757812 148.726562 C 181.914062 144.792969 186.144531 140.585938 191.53125 140.585938 C 191.539062 140.585938 191.539062 140.585938 191.546875 140.585938 C 192.171875 140.585938 193.109375 140.652344 193.953125 141.191406 C 194.707031 141.675781 195.128906 142.382812 195.441406 142.898438 L 195.585938 143.136719 C 196.953125 145.324219 199.949219 146.496094 202.710938 145.914062 C 205.363281 145.347656 207.796875 143.289062 209.054688 140.535156 C 209.164062 140.304688 209.265625 140.070312 209.375 139.824219 C 210.269531 137.78125 211.503906 134.976562 214.433594 134.714844 C 215.515625 134.621094 216.453125 134.941406 217.210938 135.203125 C 218.394531 135.609375 219.355469 135.914062 220.261719 135.847656 C 220.691406 135.8125 221.085938 135.652344 221.375 135.441406 C 210.609375 126.664062 196.875 121.386719 181.9375 121.386719 C 160.226562 121.386719 141.074219 132.519531 129.867188 149.359375 C 130.324219 151.980469 131.050781 154.421875 132.855469 155.324219 Z M 132.855469 155.324219 " fill-opacity="1" fill-rule="nonzero"/><path fill="#86d635" d="M 231.855469 221.527344 C 239.765625 211.054688 244.460938 198.03125 244.460938 183.925781 C 244.460938 181.84375 244.355469 179.789062 244.15625 177.757812 C 234.925781 183.621094 223.644531 189.703125 211.148438 195.582031 C 208.882812 200.980469 208.871094 207.300781 211.46875 212.355469 C 215.210938 219.601562 224.09375 223.65625 231.703125 221.554688 C 231.753906 221.546875 231.804688 221.535156 231.855469 221.527344 Z M 231.855469 221.527344 " fill-opacity="1" fill-rule="nonzero"/><path fill="#86d635" d="M 181.667969 246.453125 C 181.761719 246.328125 181.871094 246.210938 181.996094 246.109375 C 184.03125 244.535156 184.773438 241.394531 183.652344 239.082031 C 183.363281 238.488281 182.953125 237.878906 182.519531 237.238281 C 181.441406 235.660156 180.222656 233.859375 180.492188 231.578125 C 180.730469 229.621094 181.972656 228.25 183.070312 227.042969 C 183.527344 226.546875 183.949219 226.074219 184.277344 225.597656 C 186.347656 222.585938 185.039062 218.21875 184.066406 215.886719 C 183.089844 213.535156 181.425781 210.601562 178.859375 209.230469 C 162.457031 215.429688 146.75 220.269531 133.363281 223.234375 C 144.78125 237.324219 162.1875 246.375 181.667969 246.453125 Z M 181.667969 246.453125 " fill-opacity="1" fill-rule="nonzero"/><path fill="#7e6bff" d="M 62.007812 147.222656 C 62.007812 147.625 61.929688 148.015625 61.773438 148.390625 C 61.617188 148.765625 61.398438 149.09375 61.113281 149.382812 C 60.824219 149.667969 60.496094 149.890625 60.121094 150.042969 C 59.746094 150.199219 59.355469 150.277344 58.949219 150.277344 C 58.546875 150.277344 58.15625 150.199219 57.78125 150.042969 C 57.40625 149.890625 57.078125 149.667969 56.789062 149.382812 C 56.503906 149.09375 56.285156 148.765625 56.128906 148.390625 C 55.972656 148.015625 55.894531 147.625 55.894531 147.222656 C 55.894531 146.816406 55.972656 146.425781 56.128906 146.050781 C 56.285156 145.675781 56.503906 145.347656 56.789062 145.058594 C 57.078125 144.773438 57.40625 144.550781 57.78125 144.398438 C 58.15625 144.242188 58.546875 144.164062 58.949219 144.164062 C 59.355469 144.164062 59.746094 144.242188 60.121094 144.398438 C 60.496094 144.550781 60.824219 144.773438 61.113281 145.058594 C 61.398438 145.347656 61.617188 145.675781 61.773438 146.050781 C 61.929688 146.425781 62.007812 146.816406 62.007812 147.222656 Z M 62.007812 147.222656 " fill-opacity="1" fill-rule="nonzero"/><path fill="#7e6bff" d="M 90.433594 129.550781 C 92.382812 117.003906 93.960938 115.425781 106.503906 113.476562 C 93.960938 111.527344 92.382812 109.949219 90.433594 97.402344 C 88.484375 109.949219 86.90625 111.527344 74.363281 113.476562 C 86.90625 115.425781 88.484375 117.003906 90.433594 129.550781 Z M 90.433594 129.550781 " fill-opacity="1" fill-rule="nonzero"/><path fill="#7e6bff" d="M 250.320312 134.785156 C 251.613281 126.46875 252.660156 125.421875 260.972656 124.132812 C 252.660156 122.839844 251.613281 121.792969 250.320312 113.476562 C 249.03125 121.792969 247.984375 122.839844 239.667969 124.132812 C 247.984375 125.421875 249.03125 126.46875 250.320312 134.785156 Z M 250.320312 134.785156 " fill-opacity="1" fill-rule="nonzero"/><path fill="#7e6bff" d="M 273.175781 76.269531 C 273.175781 76.675781 273.097656 77.066406 272.945312 77.4375 C 272.789062 77.8125 272.570312 78.144531 272.28125 78.429688 C 271.996094 78.71875 271.664062 78.9375 271.289062 79.09375 C 270.917969 79.25 270.527344 79.324219 270.121094 79.324219 C 269.714844 79.324219 269.328125 79.25 268.953125 79.09375 C 268.578125 78.9375 268.246094 78.71875 267.960938 78.429688 C 267.675781 78.144531 267.453125 77.8125 267.296875 77.4375 C 267.144531 77.066406 267.066406 76.675781 267.066406 76.269531 C 267.066406 75.863281 267.144531 75.476562 267.296875 75.101562 C 267.453125 74.726562 267.675781 74.394531 267.960938 74.109375 C 268.246094 73.824219 268.578125 73.601562 268.953125 73.445312 C 269.328125 73.292969 269.714844 73.214844 270.121094 73.214844 C 270.527344 73.214844 270.917969 73.292969 271.289062 73.445312 C 271.664062 73.601562 271.996094 73.824219 272.28125 74.109375 C 272.570312 74.394531 272.789062 74.726562 272.945312 75.101562 C 273.097656 75.476562 273.175781 75.863281 273.175781 76.269531 Z M 273.175781 76.269531 " fill-opacity="1" fill-rule="nonzero"/><path fill="#7e6bff" d="M 127.394531 153.40625 C 122.316406 162.445312 119.414062 172.851562 119.414062 183.925781 C 119.414062 193.65625 121.652344 202.878906 125.636719 211.105469 C 126.828125 205.875 129.359375 201.542969 132.976562 198.679688 C 138.472656 194.339844 146.511719 194.160156 151.285156 198.292969 C 152.644531 199.464844 153.691406 200.886719 154.695312 202.253906 C 155.96875 203.984375 157.167969 205.625 158.824219 206.484375 C 161.484375 207.871094 164.746094 207.042969 168.191406 206.171875 C 171.722656 205.285156 175.371094 204.367188 178.945312 205.585938 C 181.957031 204.4375 184.984375 203.246094 188.027344 202.011719 C 195.136719 199.121094 202.035156 196.113281 208.601562 193.046875 C 209.578125 191.035156 210.824219 189.152344 212.347656 187.496094 C 212.574219 187.261719 212.804688 187.015625 213.03125 186.777344 C 213.992188 185.773438 214.90625 184.820312 215.253906 183.738281 C 215.574219 182.691406 215.40625 181.390625 215.253906 180.234375 L 215.226562 180.054688 C 214.710938 176.09375 214.171875 171.996094 215.175781 167.960938 C 216.402344 162.984375 220.050781 158.515625 224.914062 155.992188 C 228.359375 154.210938 232.402344 153.382812 236.566406 153.550781 C 233.238281 147.585938 228.976562 142.214844 223.957031 137.652344 C 223.097656 138.53125 221.863281 139.113281 220.503906 139.214844 C 218.851562 139.335938 217.339844 138.820312 216.121094 138.398438 C 215.617188 138.226562 215.101562 138.050781 214.738281 138.085938 C 213.792969 138.167969 213.082031 139.773438 212.464844 141.183594 C 212.347656 141.445312 212.238281 141.691406 212.128906 141.9375 C 210.429688 145.652344 207.085938 148.441406 203.414062 149.21875 C 199.242188 150.09375 194.851562 148.332031 192.722656 144.925781 L 192.542969 144.628906 C 192.417969 144.417969 192.222656 144.097656 192.121094 144.03125 C 192.113281 144.023438 191.996094 143.964844 191.539062 143.964844 C 191.539062 143.964844 191.539062 143.964844 191.53125 143.964844 C 187.621094 143.964844 184.414062 147.265625 182.714844 150.359375 C 181.449219 152.671875 180.628906 155.199219 179.769531 157.867188 C 179.277344 159.402344 178.761719 160.992188 178.15625 162.539062 C 175.976562 168.09375 172.867188 171.726562 168.917969 173.324219 C 167.53125 173.871094 166.0625 174.144531 164.601562 174.144531 C 160.785156 174.144531 156.96875 172.34375 154.703125 169.210938 C 152.5 166.152344 151.96875 162.488281 151.453125 158.949219 L 151.300781 157.933594 C 151.183594 157.140625 151.023438 156.253906 150.609375 155.875 C 150.3125 155.601562 149.738281 155.449219 148.851562 155.410156 C 147.070312 155.324219 145.238281 155.59375 143.554688 156.195312 C 142.78125 156.472656 141.984375 156.828125 141.140625 157.191406 C 138.117188 158.515625 134.691406 160.019531 131.34375 158.347656 C 129.292969 157.316406 128.128906 155.519531 127.394531 153.40625 Z M 127.394531 153.40625 " fill-opacity="1" fill-rule="nonzero"/><path fill="#7e6bff" d="M 228.636719 225.449219 C 228.300781 225.464844 227.960938 225.472656 227.617188 225.472656 C 219.914062 225.480469 212.109375 220.980469 208.472656 213.902344 C 205.933594 208.96875 205.507812 203.023438 206.953125 197.527344 C 201.265625 200.128906 195.359375 202.679688 189.300781 205.140625 C 187.074219 206.042969 184.859375 206.917969 182.648438 207.777344 C 184.449219 209.371094 185.96875 211.648438 187.191406 214.59375 C 189.308594 219.710938 189.269531 224.308594 187.054688 227.507812 C 186.609375 228.175781 186.074219 228.75 185.570312 229.316406 C 184.707031 230.269531 183.957031 231.089844 183.855469 231.976562 C 183.726562 233.007812 184.460938 234.089844 185.308594 235.339844 C 185.796875 236.046875 186.296875 236.792969 186.691406 237.609375 C 188.019531 240.339844 187.746094 243.699219 186.21875 246.300781 C 203.050781 245.152344 218.074219 237.324219 228.636719 225.449219 Z M 228.636719 225.449219 " fill-opacity="1" fill-rule="nonzero"/><g clip-path="url(#4018b0c307)"><path fill="#0642c8" d="M 368.066406 115.253906 L 367.902344 114.539062 C 367.65625 113.511719 367.378906 112.433594 367.078125 111.34375 C 366.96875 110.953125 366.859375 110.566406 366.746094 110.164062 C 366.464844 109.199219 366.175781 108.234375 365.871094 107.289062 C 365.746094 106.902344 365.617188 106.515625 365.484375 106.128906 L 365.394531 105.863281 C 365.171875 105.214844 364.941406 104.5625 364.714844 103.929688 C 364.445312 103.195312 364.167969 102.457031 363.878906 101.714844 C 363.652344 101.136719 363.421875 100.5625 363.1875 99.988281 C 362.929688 99.367188 362.667969 98.75 362.40625 98.152344 C 362.078125 97.402344 361.742188 96.65625 361.390625 95.902344 C 361.148438 95.390625 360.902344 94.875 360.65625 94.367188 C 360.242188 93.523438 359.816406 92.683594 359.367188 91.828125 C 359.132812 91.382812 358.890625 90.9375 358.65625 90.511719 C 358.234375 89.738281 357.800781 88.96875 357.359375 88.210938 C 357.109375 87.78125 356.855469 87.355469 356.605469 86.9375 C 356.109375 86.117188 355.601562 85.300781 355.078125 84.488281 L 355.089844 84.507812 C 354.976562 84.320312 354.859375 84.132812 354.726562 83.925781 L 354.238281 83.1875 L 354.203125 83.148438 C 352.824219 81.082031 351.367188 79.066406 349.828125 77.105469 L 348.398438 75.679688 C 348.292969 75.515625 348.195312 75.347656 348.089844 75.183594 C 347.964844 74.980469 347.839844 74.777344 347.691406 74.546875 L 347.203125 73.8125 L 347.101562 73.671875 C 345.722656 71.609375 344.246094 69.574219 342.757812 67.675781 L 342.421875 67.210938 C 337.738281 60.660156 332.019531 54.996094 325.429688 50.371094 C 307.882812 36.65625 286.800781 29.40625 264.457031 29.40625 C 260.648438 29.40625 256.792969 29.625 252.992188 30.0625 C 223.941406 33.386719 198.160156 49.050781 181.855469 73.183594 C 165.550781 49.175781 139.824219 33.582031 110.875 30.261719 C 107.070312 29.828125 103.203125 29.605469 99.390625 29.605469 C 72.898438 29.605469 47.949219 39.964844 29.140625 58.78125 C 10.367188 77.558594 0.0273438 102.566406 0.0273438 129.191406 C 0.0273438 155.820312 10.367188 180.824219 29.140625 199.605469 L 170.859375 341.355469 C 172.621094 343.117188 174.734375 344.394531 177.035156 345.144531 L 180.5 348.605469 C 183.117188 351.226562 186.597656 352.671875 190.300781 352.671875 C 194 352.671875 197.480469 351.226562 200.09375 348.613281 L 341.984375 206.6875 C 342.863281 205.8125 343.765625 204.867188 344.75 203.800781 L 345.066406 203.457031 C 345.960938 202.480469 346.859375 201.453125 347.695312 200.457031 L 347.8125 200.320312 C 367.429688 176.921875 374.996094 145.101562 368.066406 115.253906 Z M 338.074219 190.785156 L 337.957031 190.921875 C 337.128906 191.910156 336.238281 192.929688 335.382812 193.863281 L 335.066406 194.207031 C 334.109375 195.246094 333.21875 196.175781 332.347656 197.046875 L 190.453125 338.972656 C 188.160156 341.269531 185.105469 342.535156 181.855469 342.535156 C 178.605469 342.535156 175.546875 341.265625 173.25 338.964844 L 31.527344 197.214844 C 13.394531 179.074219 3.40625 154.917969 3.40625 129.191406 C 3.40625 103.46875 13.394531 79.308594 31.527344 61.167969 C 49.699219 42.992188 73.800781 32.984375 99.390625 32.984375 C 103.078125 32.984375 106.8125 33.199219 110.488281 33.617188 C 139.285156 36.921875 164.78125 52.792969 180.4375 77.167969 L 181.859375 79.382812 L 183.28125 77.164062 C 198.933594 52.667969 224.484375 36.722656 253.375 33.417969 C 257.050781 32.996094 260.777344 32.785156 264.457031 32.785156 C 286.054688 32.785156 306.429688 39.792969 323.382812 53.058594 L 323.453125 53.109375 C 329.746094 57.523438 335.203125 62.925781 339.675781 69.175781 L 340.054688 69.703125 C 341.558594 71.621094 343.003906 73.617188 344.355469 75.640625 L 344.867188 76.402344 C 344.992188 76.59375 345.097656 76.765625 345.203125 76.9375 L 345.660156 76.660156 L 345.210938 76.957031 C 345.726562 77.753906 346.226562 78.554688 346.714844 79.363281 C 346.960938 79.773438 347.210938 80.195312 347.457031 80.613281 C 347.890625 81.359375 348.3125 82.113281 348.730469 82.878906 C 348.960938 83.296875 349.199219 83.734375 349.429688 84.167969 C 349.871094 85.007812 350.289062 85.835938 350.695312 86.664062 C 350.9375 87.164062 351.179688 87.667969 351.414062 88.171875 C 351.761719 88.914062 352.09375 89.648438 352.414062 90.382812 C 352.675781 90.972656 352.929688 91.578125 353.179688 92.1875 C 353.414062 92.75 353.640625 93.316406 353.859375 93.882812 C 354.144531 94.613281 354.417969 95.335938 354.679688 96.0625 C 354.90625 96.683594 355.132812 97.320312 355.351562 97.964844 L 355.441406 98.226562 C 355.570312 98.605469 355.695312 98.980469 355.820312 99.363281 C 356.121094 100.292969 356.402344 101.238281 356.675781 102.183594 C 356.789062 102.578125 356.898438 102.960938 357.003906 103.347656 C 357.300781 104.417969 357.574219 105.472656 357.8125 106.472656 L 357.976562 107.1875 C 364.789062 136.542969 357.351562 167.792969 338.074219 190.785156 Z M 338.074219 190.785156 " fill-opacity="1" fill-rule="nonzero"/></g><path fill="#0642c8" d="M 347.628906 108.921875 C 347.40625 107.984375 347.164062 107.050781 346.90625 106.117188 C 346.8125 105.777344 346.714844 105.433594 346.617188 105.09375 C 346.375 104.25 346.121094 103.40625 345.847656 102.566406 C 345.714844 102.152344 345.574219 101.742188 345.4375 101.332031 C 345.242188 100.761719 345.042969 100.195312 344.835938 99.625 C 344.601562 98.984375 344.359375 98.34375 344.113281 97.707031 C 343.914062 97.195312 343.710938 96.6875 343.5 96.183594 C 343.277344 95.644531 343.054688 95.109375 342.820312 94.578125 C 342.535156 93.921875 342.238281 93.269531 341.933594 92.621094 C 341.722656 92.167969 341.507812 91.71875 341.289062 91.269531 C 340.925781 90.527344 340.554688 89.792969 340.167969 89.0625 C 339.964844 88.671875 339.75 88.285156 339.539062 87.894531 C 339.171875 87.21875 338.792969 86.546875 338.40625 85.882812 C 338.1875 85.507812 337.96875 85.136719 337.742188 84.769531 C 337.308594 84.050781 336.867188 83.335938 336.410156 82.628906 C 336.304688 82.464844 336.210938 82.300781 336.105469 82.140625 C 336.09375 82.121094 336.074219 82.105469 336.0625 82.085938 C 332.894531 77.246094 329.1875 72.65625 324.941406 68.410156 L 323.746094 69.601562 L 324.910156 68.375 C 306.320312 49.785156 280.683594 40.835938 254.566406 43.824219 C 228.445312 46.8125 205.488281 61.324219 191.578125 83.632812 L 181.855469 99.234375 L 172.28125 83.863281 C 158.378906 61.539062 135.421875 47.019531 109.296875 44.023438 C 83.175781 41.03125 57.527344 49.976562 38.933594 68.574219 C 5.515625 102 5.515625 156.382812 38.933594 189.808594 L 180.660156 331.566406 C 180.988281 331.894531 181.421875 332.0625 181.855469 332.0625 C 182.285156 332.0625 182.71875 331.894531 183.046875 331.566406 L 324.941406 189.640625 C 325.773438 188.8125 326.578125 187.964844 327.367188 187.109375 C 327.460938 187.007812 327.554688 186.90625 327.648438 186.804688 C 328.445312 185.929688 329.222656 185.039062 329.980469 184.140625 C 330.003906 184.113281 330.027344 184.085938 330.046875 184.058594 C 347.796875 162.886719 353.703125 135.089844 347.765625 109.507812 C 347.71875 109.3125 347.675781 109.117188 347.628906 108.921875 Z M 41.320312 187.417969 C 9.222656 155.3125 9.222656 103.070312 41.324219 70.964844 C 56.917969 55.367188 77.671875 46.835938 99.390625 46.835938 C 102.546875 46.835938 105.730469 47.015625 108.914062 47.382812 C 134.007812 50.257812 156.058594 64.207031 169.414062 85.648438 L 180.421875 103.320312 C 180.730469 103.816406 181.269531 104.117188 181.855469 104.117188 C 182.4375 104.117188 182.980469 103.816406 183.289062 103.320312 L 194.445312 85.421875 C 207.808594 63.988281 229.859375 50.050781 254.949219 47.179688 C 280.042969 44.3125 304.664062 52.90625 322.527344 70.773438 L 322.558594 70.800781 C 326.226562 74.472656 329.457031 78.421875 332.289062 82.558594 C 326.46875 86.207031 321.386719 91.003906 317.539062 96.550781 C 316.117188 98.609375 314.820312 100.800781 313.566406 102.917969 C 310.550781 108.019531 307.699219 112.839844 303.175781 115.960938 C 299.347656 118.605469 294.777344 119.707031 289.933594 120.878906 C 286.835938 121.625 283.632812 122.398438 280.601562 123.617188 C 270.980469 127.476562 264.046875 135.296875 257.34375 142.863281 C 255.949219 144.4375 254.535156 146.027344 253.089844 147.59375 C 250.492188 147.632812 247.542969 147.867188 244.246094 148.296875 C 243.320312 148.417969 242.667969 149.265625 242.789062 150.191406 C 242.90625 151.113281 243.753906 151.761719 244.679688 151.648438 C 246.5 151.410156 248.15625 151.246094 249.6875 151.136719 C 247.894531 152.921875 246.039062 154.625 244.089844 156.152344 C 243.503906 156.613281 242.90625 157.054688 242.296875 157.488281 C 242.023438 156.863281 241.742188 156.242188 241.449219 155.628906 C 241.464844 155.046875 241.1875 154.496094 240.722656 154.175781 C 229.828125 132.738281 207.574219 118.007812 181.9375 118.007812 C 158.992188 118.007812 138.761719 129.808594 126.953125 147.644531 C 126.726562 147.847656 126.566406 148.109375 126.472656 148.398438 C 123.792969 152.570312 121.574219 157.066406 119.875 161.804688 C 112.148438 165.523438 105.316406 171.128906 100.375 178.140625 C 99.484375 179.402344 98.648438 180.714844 97.835938 181.984375 C 95.929688 184.96875 94.128906 187.785156 91.699219 190.042969 C 85.074219 196.195312 75.78125 196.730469 65.945312 197.296875 C 61.507812 197.550781 56.929688 197.820312 52.535156 198.632812 Z M 186.691406 237.609375 C 186.296875 236.792969 185.796875 236.046875 185.308594 235.339844 C 184.460938 234.089844 183.726562 233.007812 183.855469 231.976562 C 183.957031 231.089844 184.707031 230.269531 185.570312 229.316406 C 186.074219 228.75 186.609375 228.175781 187.054688 227.507812 C 189.269531 224.308594 189.308594 219.710938 187.191406 214.59375 C 185.96875 211.648438 184.449219 209.371094 182.648438 207.777344 C 184.859375 206.917969 187.074219 206.042969 189.300781 205.140625 C 195.359375 202.679688 201.265625 200.128906 206.953125 197.527344 C 205.507812 203.023438 205.933594 208.96875 208.472656 213.902344 C 212.109375 220.980469 219.914062 225.480469 227.617188 225.472656 C 227.960938 225.472656 228.300781 225.464844 228.636719 225.449219 C 218.074219 237.324219 203.050781 245.152344 186.21875 246.300781 C 187.746094 243.699219 188.019531 240.339844 186.691406 237.609375 Z M 131.34375 158.347656 C 134.691406 160.019531 138.117188 158.515625 141.140625 157.191406 C 141.984375 156.828125 142.78125 156.472656 143.554688 156.195312 C 145.238281 155.59375 147.070312 155.324219 148.851562 155.410156 C 149.738281 155.449219 150.3125 155.601562 150.609375 155.875 C 151.023438 156.253906 151.183594 157.140625 151.300781 157.933594 L 151.453125 158.949219 C 151.96875 162.488281 152.5 166.152344 154.703125 169.210938 C 156.96875 172.34375 160.785156 174.144531 164.601562 174.144531 C 166.0625 174.144531 167.53125 173.871094 168.917969 173.324219 C 172.867188 171.726562 175.976562 168.09375 178.15625 162.539062 C 178.761719 160.992188 179.277344 159.402344 179.769531 157.867188 C 180.628906 155.199219 181.449219 152.671875 182.714844 150.359375 C 184.414062 147.265625 187.621094 143.964844 191.53125 143.964844 C 191.539062 143.964844 191.539062 143.964844 191.539062 143.964844 C 191.996094 143.964844 192.113281 144.023438 192.121094 144.03125 C 192.222656 144.097656 192.417969 144.417969 192.542969 144.628906 L 192.722656 144.925781 C 194.851562 148.332031 199.242188 150.09375 203.414062 149.21875 C 207.085938 148.441406 210.429688 145.652344 212.128906 141.9375 C 212.238281 141.691406 212.347656 141.445312 212.464844 141.183594 C 213.082031 139.773438 213.792969 138.167969 214.738281 138.085938 C 215.101562 138.050781 215.617188 138.226562 216.121094 138.398438 C 217.339844 138.820312 218.851562 139.335938 220.503906 139.214844 C 221.863281 139.113281 223.097656 138.53125 223.957031 137.652344 C 228.976562 142.214844 233.238281 147.585938 236.566406 153.550781 C 232.402344 153.382812 228.359375 154.210938 224.914062 155.992188 C 220.050781 158.515625 216.402344 162.984375 215.175781 167.960938 C 214.171875 171.996094 214.710938 176.09375 215.226562 180.054688 L 215.253906 180.234375 C 215.40625 181.390625 215.574219 182.691406 215.253906 183.738281 C 214.90625 184.820312 213.992188 185.773438 213.03125 186.777344 C 212.804688 187.015625 212.574219 187.261719 212.347656 187.496094 C 210.824219 189.152344 209.578125 191.035156 208.601562 193.046875 C 202.035156 196.113281 195.136719 199.121094 188.027344 202.011719 C 184.984375 203.246094 181.957031 204.4375 178.945312 205.585938 C 175.371094 204.367188 171.722656 205.285156 168.191406 206.171875 C 164.746094 207.042969 161.484375 207.871094 158.824219 206.484375 C 157.167969 205.625 155.96875 203.984375 154.695312 202.253906 C 153.691406 200.886719 152.644531 199.464844 151.285156 198.292969 C 146.511719 194.160156 138.472656 194.339844 132.976562 198.679688 C 129.359375 201.542969 126.828125 205.875 125.636719 211.105469 C 121.652344 202.878906 119.414062 193.65625 119.414062 183.925781 C 119.414062 172.851562 122.316406 162.445312 127.394531 153.40625 C 128.128906 155.519531 129.292969 157.316406 131.34375 158.347656 Z M 129.867188 149.359375 C 141.074219 132.519531 160.226562 121.386719 181.9375 121.386719 C 196.875 121.386719 210.609375 126.664062 221.375 135.441406 C 221.085938 135.652344 220.691406 135.8125 220.261719 135.847656 C 219.355469 135.914062 218.394531 135.609375 217.210938 135.203125 C 216.453125 134.941406 215.515625 134.621094 214.433594 134.714844 C 211.503906 134.976562 210.269531 137.78125 209.375 139.824219 C 209.265625 140.070312 209.164062 140.304688 209.054688 140.535156 C 207.796875 143.289062 205.363281 145.347656 202.710938 145.914062 C 199.949219 146.496094 196.953125 145.324219 195.585938 143.136719 L 195.441406 142.898438 C 195.128906 142.382812 194.707031 141.675781 193.953125 141.191406 C 193.109375 140.652344 192.171875 140.585938 191.546875 140.585938 C 191.539062 140.585938 191.539062 140.585938 191.53125 140.585938 C 186.144531 140.585938 181.914062 144.792969 179.757812 148.726562 C 178.332031 151.328125 177.429688 154.125 176.558594 156.828125 C 176.078125 158.3125 175.578125 159.851562 175.011719 161.304688 C 173.753906 164.503906 171.457031 168.652344 167.648438 170.179688 C 164.144531 171.601562 159.660156 170.300781 157.449219 167.234375 C 155.726562 164.84375 155.253906 161.601562 154.789062 158.457031 L 154.644531 157.4375 C 154.433594 156.058594 154.113281 154.503906 152.878906 153.382812 C 151.6875 152.285156 150.101562 152.089844 149.019531 152.039062 C 146.800781 151.929688 144.511719 152.265625 142.417969 153.019531 C 141.53125 153.332031 140.644531 153.71875 139.78125 154.097656 C 137.214844 155.222656 134.78125 156.285156 132.855469 155.324219 C 131.050781 154.421875 130.324219 151.980469 129.867188 149.359375 Z M 218.605469 179.792969 L 218.578125 179.609375 C 218.097656 175.96875 217.601562 172.191406 218.453125 168.769531 C 219.457031 164.734375 222.449219 161.074219 226.46875 159 C 229.929688 157.199219 234.125 156.546875 238.398438 157.089844 C 240.925781 162.375 242.722656 168.070312 243.675781 174.046875 C 235.472656 179.359375 225.507812 184.878906 214.414062 190.277344 C 214.554688 190.113281 214.683594 189.945312 214.832031 189.785156 C 215.042969 189.566406 215.253906 189.339844 215.472656 189.117188 C 216.601562 187.929688 217.894531 186.585938 218.46875 184.75 C 219.027344 182.996094 218.789062 181.222656 218.605469 179.792969 Z M 128.355469 215.53125 C 128.878906 209.476562 131.328125 204.296875 135.078125 201.332031 C 138.8125 198.375 145.078125 197.386719 149.078125 200.84375 C 150.152344 201.773438 151.039062 202.980469 151.976562 204.253906 C 153.421875 206.222656 154.914062 208.25 157.269531 209.476562 C 160.429688 211.125 163.746094 210.695312 167.023438 209.9375 C 154.042969 214.457031 141.777344 217.992188 131.101562 220.273438 C 130.097656 218.871094 129.144531 217.429688 128.253906 215.945312 C 128.304688 215.808594 128.339844 215.675781 128.355469 215.53125 Z M 178.859375 209.230469 C 181.425781 210.601562 183.089844 213.535156 184.066406 215.886719 C 185.039062 218.21875 186.347656 222.585938 184.277344 225.597656 C 183.949219 226.074219 183.527344 226.546875 183.070312 227.042969 C 181.972656 228.25 180.730469 229.621094 180.492188 231.578125 C 180.222656 233.859375 181.441406 235.660156 182.519531 237.238281 C 182.953125 237.878906 183.363281 238.488281 183.652344 239.082031 C 184.773438 241.394531 184.03125 244.535156 181.996094 246.109375 C 181.871094 246.210938 181.761719 246.328125 181.667969 246.453125 C 162.1875 246.375 144.78125 237.324219 133.363281 223.234375 C 146.75 220.269531 162.457031 215.429688 178.859375 209.230469 Z M 211.46875 212.355469 C 208.871094 207.300781 208.882812 200.980469 211.148438 195.582031 C 223.644531 189.703125 234.925781 183.621094 244.15625 177.757812 C 244.355469 179.789062 244.460938 181.84375 244.460938 183.925781 C 244.460938 198.03125 239.765625 211.054688 231.855469 221.527344 C 231.804688 221.535156 231.753906 221.546875 231.703125 221.554688 C 224.09375 223.65625 215.210938 219.601562 211.46875 212.355469 Z M 243.605469 160.691406 C 244.484375 160.085938 245.34375 159.464844 246.175781 158.8125 C 249.175781 156.457031 251.929688 153.765625 254.558594 150.972656 C 260.433594 151.054688 263.226562 152.292969 263.816406 153.746094 C 264.8125 156.207031 260.859375 162.425781 246.753906 172.011719 C 246.039062 168.109375 244.980469 164.324219 243.605469 160.691406 Z M 322.554688 187.253906 L 181.855469 327.984375 L 55.472656 201.574219 C 58.96875 201.082031 62.601562 200.871094 66.140625 200.667969 C 76.140625 200.09375 86.480469 199.5 93.996094 192.519531 C 96.746094 189.96875 98.746094 186.835938 100.683594 183.804688 C 101.472656 182.566406 102.289062 181.285156 103.136719 180.085938 C 107.117188 174.441406 112.414062 169.777344 118.425781 166.367188 C 116.875 171.960938 116.035156 177.84375 116.035156 183.925781 C 116.035156 197.667969 120.265625 210.4375 127.488281 221.007812 C 127.449219 221.015625 127.410156 221.027344 127.375 221.03125 C 108.882812 224.582031 101.105469 222.839844 100.058594 220.269531 C 99.191406 218.132812 102.039062 213.046875 112.632812 205.179688 C 113.382812 204.625 113.539062 203.566406 112.980469 202.816406 C 112.425781 202.070312 111.367188 201.910156 110.617188 202.46875 C 99.691406 210.582031 95.085938 217 96.929688 221.539062 C 98.257812 224.8125 102.609375 226.449219 109.917969 226.449219 C 114.695312 226.449219 120.730469 225.75 128.011719 224.351562 C 128.558594 224.246094 129.121094 224.125 129.675781 224.015625 C 141.734375 239.703125 160.671875 249.839844 181.9375 249.839844 C 218.277344 249.839844 247.839844 220.269531 247.839844 183.925781 C 247.839844 181.140625 247.660156 178.398438 247.324219 175.703125 C 262.5 165.613281 269.105469 157.800781 266.945312 152.476562 C 265.859375 149.796875 262.6875 148.222656 257.515625 147.746094 C 258.304688 146.867188 259.09375 145.984375 259.871094 145.105469 C 266.613281 137.5 272.980469 130.316406 281.859375 126.753906 C 284.664062 125.625 287.746094 124.882812 290.726562 124.160156 C 295.65625 122.972656 300.75 121.742188 305.09375 118.742188 C 310.230469 115.195312 313.402344 109.832031 316.472656 104.640625 C 317.695312 102.570312 318.960938 100.433594 320.316406 98.476562 C 323.921875 93.277344 328.683594 88.769531 334.15625 85.359375 C 354.355469 117.609375 349.59375 160.207031 322.554688 187.253906 Z M 322.554688 187.253906 " fill-opacity="1" fill-rule="nonzero"/></svg>