<?xml version="1.0" encoding="utf-8"?>
<!-- Generator: Adobe Illustrator 27.2.0, SVG Export Plug-In . SVG Version: 6.00 Build 0)  -->
<svg version="1.1"
	 id="svg2" xmlns:dc="http://purl.org/dc/elements/1.1/" xmlns:rdf="http://www.w3.org/1999/02/22-rdf-syntax-ns#" xmlns:svg="http://www.w3.org/2000/svg" xmlns:cc="http://creativecommons.org/ns#"
	 xmlns="http://www.w3.org/2000/svg" xmlns:xlink="http://www.w3.org/1999/xlink" x="0px" y="0px" viewBox="0 0 999.2 666.1"
	 style="enable-background:new 0 0 999.2 666.1;" xml:space="preserve">
<style type="text/css">
	.st0{fill:#342C76;}
	.st1{fill:#F4DEB7;}
	.st2{fill:#F25C29;}
	.st3{fill:#F036A4;}
	.st4{fill:#133146;}
	.st5{fill:#FFFFFF;}
	.st6{fill:#4A5AB2;}
	.st7{fill:#F9AD79;}
	.st8{fill:#F68448;}
	.st9{fill:#F5783A;}
	.st10{fill:#F78E56;}
	.st11{fill:#803FA3;}
	.st12{fill:#3F2D90;}
	.st13{fill:#2A275F;}
	.st14{clip-path:url(#SVGID_00000147193833016687031470000009627848578091699600_);}
	.st15{clip-path:url(#SVGID_00000032611039232621902480000010085492473515161733_);}
	.st16{fill:#FAB77D;}
	.st17{clip-path:url(#SVGID_00000010305322683229790360000007955181709267184537_);}
	.st18{fill:#BD69BB;}
	.st19{fill:#E8A9C2;}
	.st20{fill:#4E298F;}
	.st21{clip-path:url(#SVGID_00000048458865375483783290000014437262587377415574_);}
	.st22{clip-path:url(#SVGID_00000099633614434705824050000003971310396164510596_);}
	.st23{clip-path:url(#SVGID_00000078763671759225007130000011507958798351165358_);}
	.st24{fill:#EF2EA1;}
	.st25{fill:#7D6298;}
	.st26{fill:#C4A7A7;}
</style>
<path id="path18" class="st0" d="M765.9,604.1H207.2l-25.1-432.9h612.3L765.9,604.1"/>
<path id="path20" class="st0" d="M765.9,604.1v-0.8H208l-25-431.2h610.5l-28.4,432L765.9,604.1v-0.8V604.1l0.8,0.1l28.5-433.7h-614
	l25.2,434.5h560.3l0.1-0.8L765.9,604.1"/>
<path id="path22" class="st1" d="M741.9,577.7H233.1l-22.9-380h557.6L741.9,577.7"/>
<path id="path24" class="st0" d="M741.9,577.7v-0.8h-508l-22.8-378.4h555.8l-25.8,379.2L741.9,577.7v-0.8V577.7l0.8,0.1l26-380.9
	H209.3l23,381.7h510.4l0.1-0.8L741.9,577.7"/>
<path id="path26" class="st1" d="M790.7,616.3l-610.2,0l27.1-12.2H764L790.7,616.3"/>
<path id="path28" class="st0" d="M790.7,616.3v-0.5l-608,0l25-11.2h556.3l26.6,12.1L790.7,616.3l0-0.5L790.7,616.3l0.2-0.4
	l-26.8-12.2H207.4l-29.2,13.1l614.6,0l-2-0.9L790.7,616.3"/>
<path id="path30" class="st0" d="M792.7,636.6H178.5V617h614.2L792.7,636.6"/>
<path id="path32" class="st0" d="M792.7,636.6v-0.2H178.7v-19.2h613.7v19.4H792.7v-0.2V636.6h0.2v-19.9H178.3v20.1h614.6v-0.2H792.7
	"/>
<path id="path34" class="st1" d="M538,622.2H433.2v-5.9H538V622.2"/>
<path id="path36" class="st0" d="M538,622.2v-0.5H433.6v-4.9h103.9v5.4H538l0-0.5L538,622.2h0.5v-6.4H432.7v6.8h105.8v-0.5H538"/>
<path id="path38" class="st2" d="M504.1,98.8l-0.3-0.2l-9.8,12.8l-9.7-12.6l9.7-13.4l9.8,13.6L504.1,98.8l-0.3-0.2L504.1,98.8
	l0.3-0.2L494,84.2l-10.5,14.6l10.5,13.6l10.5-13.6l-0.1-0.2L504.1,98.8"/>
<path id="path40" class="st2" d="M850.9,539.8l-0.2-0.2l-14,13.3l-9.2-16.7l14-14.1l9.1,17.9L850.9,539.8l-0.2-0.2L850.9,539.8
	l0.3-0.2l-9.5-18.8l-15,15.1l9.8,17.9l14.8-14l-0.1-0.2L850.9,539.8"/>
<path id="path42" class="st2" d="M105.9,195.7l-0.3-0.1l-4.3,11.5l-9.9-7l4-12l10.2,7.7L105.9,195.7l-0.3-0.1L105.9,195.7l0.2-0.2
	l-10.9-8.2l-4.4,13.1l10.8,7.6l4.6-12.4l-0.2-0.1L105.9,195.7"/>
<path id="path44" class="st2" d="M889.3,317l-0.3-0.2l-6.5,8.5l-6.4-8.3l6.4-8.9l6.5,9.1L889.3,317l-0.3-0.2L889.3,317l0.3-0.2
	l-7.1-9.8l-7.2,10l7.2,9.4l7.2-9.4l-0.1-0.2L889.3,317"/>
<path id="path46" class="st2" d="M183.5,116.3c0.8,1.8,1.4,3.7,2,5.6c0.6,1.9,1.1,3.8,1.4,5.8c-0.8-1.8-1.4-3.7-2-5.6
	C184.3,120.2,183.8,118.3,183.5,116.3"/>
<path id="path48" class="st2" d="M191.4,142.6c-0.8-1.8-1.4-3.7-2-5.6c-0.6-1.9-1.1-3.8-1.4-5.8c0.8,1.8,1.4,3.7,2,5.6
	C190.5,138.7,191,140.6,191.4,142.6"/>
<path id="path50" class="st2" d="M174.3,133.4c1.8-0.8,3.7-1.4,5.6-2c1.9-0.6,3.8-1.1,5.8-1.4c-1.8,0.8-3.7,1.4-5.6,2
	C178.2,132.5,176.3,133.1,174.3,133.4"/>
<path id="path52" class="st2" d="M200.6,125.5c-1.8,0.8-3.7,1.4-5.6,2c-1.9,0.6-3.8,1.1-5.8,1.4c1.8-0.8,3.7-1.4,5.6-2
	C196.7,126.3,198.6,125.8,200.6,125.5"/>
<path id="path54" class="st2" d="M929.8,407.7c0.6,1.9,1.1,3.8,1.5,5.7c0.4,1.9,0.7,3.9,0.9,5.9c-0.6-1.9-1.1-3.8-1.5-5.7
	C930.3,411.6,930,409.7,929.8,407.7"/>
<path id="path56" class="st2" d="M935.3,434.5c-0.6-1.9-1.1-3.8-1.5-5.7c-0.4-1.9-0.7-3.9-0.9-5.9c0.6,1.9,1.1,3.8,1.5,5.7
	C934.8,430.6,935.2,432.6,935.3,434.5"/>
<path id="path58" class="st2" d="M919.1,423.8c1.9-0.6,3.8-1.1,5.7-1.5c1.9-0.4,3.9-0.7,5.9-0.9c-1.9,0.7-3.8,1.1-5.7,1.5
	C923.1,423.4,921.1,423.7,919.1,423.8"/>
<path id="path60" class="st2" d="M946,418.4c-1.9,0.6-3.8,1.1-5.7,1.5c-1.9,0.4-3.9,0.7-5.9,0.9c1.9-0.6,3.8-1.1,5.7-1.5
	C942.1,418.9,944,418.5,946,418.4"/>
<path id="path62" class="st2" d="M149.3,538.7c0.4,1.4,0.5,2.8,0.5,4.2c0,1.4-0.1,2.8-0.5,4.3c-0.4-1.4-0.5-2.8-0.5-4.3
	C148.9,541.5,149,540.1,149.3,538.7"/>
<path id="path64" class="st2" d="M149.3,558.3c-0.4-1.4-0.5-2.8-0.5-4.3c0-1.4,0.1-2.8,0.5-4.2c0.4,1.4,0.5,2.8,0.5,4.2
	C149.8,555.5,149.7,556.9,149.3,558.3"/>
<path id="path66" class="st2" d="M139.5,548.5c1.4-0.4,2.8-0.5,4.2-0.5c1.4,0,2.8,0.1,4.3,0.5c-1.4,0.4-2.8,0.5-4.3,0.5
	C142.3,549,140.9,548.9,139.5,548.5"/>
<path id="path68" class="st2" d="M159.2,548.5c-1.4,0.4-2.8,0.5-4.3,0.5c-1.4,0-2.8-0.1-4.2-0.5c1.4-0.4,2.8-0.5,4.2-0.5
	C156.3,548,157.7,548.1,159.2,548.5"/>
<path id="path70" class="st2" d="M930.4,493.5c0.3,1,0.3,2,0.3,3c0,1-0.1,2-0.3,3c-0.3-1-0.3-2-0.3-3
	C930.1,495.4,930.2,494.5,930.4,493.5"/>
<path id="path72" class="st2" d="M930.4,507.2c-0.3-1-0.3-2-0.3-3c0-1,0.1-2,0.3-3c0.3,1,0.3,2,0.3,3
	C930.8,505.2,930.7,506.2,930.4,507.2"/>
<path id="path74" class="st2" d="M923.6,500.3c1-0.3,2-0.3,3-0.3c1,0,2,0.1,3,0.3c-1,0.3-2,0.3-3,0.3
	C925.6,500.6,924.6,500.6,923.6,500.3"/>
<path id="path76" class="st2" d="M937.3,500.3c-1,0.3-2,0.3-3,0.3c-1,0-2-0.1-3-0.3c1-0.3,2-0.3,3-0.3
	C935.3,500,936.3,500.1,937.3,500.3"/>
<path id="path78" class="st2" d="M550,51.1c0.3,1,0.3,2,0.3,3c0,1-0.1,2-0.3,3c-0.3-1-0.3-2-0.3-3C549.7,53.1,549.8,52.1,550,51.1"
	/>
<path id="path80" class="st2" d="M550,64.8c-0.3-1-0.3-2-0.3-3c0-1,0.1-2,0.3-3c0.3,1,0.3,2,0.3,3C550.3,62.8,550.3,63.8,550,64.8"
	/>
<path id="path82" class="st2" d="M543.2,57.9c1-0.3,2-0.3,3-0.3c1,0,2,0.1,3,0.3c-1,0.3-2,0.3-3,0.3
	C545.2,58.3,544.2,58.2,543.2,57.9"/>
<path id="path84" class="st2" d="M556.9,57.9c-1,0.3-2,0.3-3,0.3c-1,0-2-0.1-3-0.3c1-0.3,2-0.3,3-0.3
	C554.9,57.6,555.9,57.7,556.9,57.9"/>
<path id="path86" class="st2" d="M323.5,38c0.3,1,0.3,2,0.3,3c0,1-0.1,2-0.3,3c-0.3-1-0.3-2-0.3-3C323.2,40,323.3,39,323.5,38"/>
<path id="path88" class="st2" d="M323.5,51.7c-0.3-1-0.3-2-0.3-3c0-1,0.1-2,0.3-3c0.3,1,0.3,2,0.3,3
	C323.8,49.7,323.8,50.7,323.5,51.7"/>
<path id="path90" class="st2" d="M316.7,44.9c1-0.3,2-0.3,3-0.3c1,0,2,0.1,3,0.3c-1,0.3-2,0.3-3,0.3
	C318.6,45.2,317.7,45.1,316.7,44.9"/>
<path id="path92" class="st2" d="M330.4,44.9c-1,0.3-2,0.3-3,0.3c-1,0-2-0.1-3-0.3c1-0.3,2-0.3,3-0.3
	C328.4,44.5,329.4,44.6,330.4,44.9"/>
<path id="path94" class="st3" d="M120.6,124.1c0,0.7-0.5,1.2-1.2,1.2c-0.7,0-1.2-0.5-1.2-1.2c0-0.7,0.5-1.2,1.2-1.2
	C120.1,122.9,120.6,123.4,120.6,124.1"/>
<path id="path96" class="st2" d="M120.6,124.1h-0.3c0,0.5-0.4,0.9-0.9,0.9c-0.5,0-0.9-0.4-0.9-0.9c0-0.5,0.4-0.9,0.9-0.9
	c0.5,0,0.9,0.4,0.9,0.9H120.6h0.3c0-0.9-0.7-1.5-1.5-1.5c-0.9,0-1.5,0.7-1.5,1.5c0,0.9,0.7,1.6,1.5,1.6s1.5-0.7,1.5-1.6H120.6"/>
<path id="path98" class="st3" d="M86.5,570.7c0,0.7-0.5,1.2-1.2,1.2s-1.2-0.5-1.2-1.2c0-0.7,0.5-1.2,1.2-1.2S86.5,570,86.5,570.7"/>
<path id="path100" class="st2" d="M86.5,570.7h-0.3c0,0.5-0.4,0.9-0.9,0.9c-0.5,0-0.9-0.4-0.9-0.9c0-0.5,0.4-0.9,0.9-0.9
	c0.5,0,0.9,0.4,0.9,0.9H86.5h0.3c0-0.9-0.7-1.5-1.5-1.5c-0.9,0-1.5,0.7-1.5,1.5c0,0.9,0.7,1.5,1.5,1.5c0.9,0,1.5-0.7,1.5-1.5H86.5"
	/>
<path id="path102" class="st3" d="M840.3,373.6c0,0.7-0.5,1.2-1.2,1.2s-1.2-0.5-1.2-1.2s0.5-1.2,1.2-1.2S840.3,372.9,840.3,373.6"/>
<path id="path104" class="st2" d="M840.3,373.6h-0.3c0,0.5-0.4,0.9-0.9,0.9c-0.5,0-0.9-0.4-0.9-0.9c0-0.5,0.4-0.9,0.9-0.9
	c0.5,0,0.9,0.4,0.9,0.9H840.3h0.3c0-0.9-0.7-1.5-1.5-1.5c-0.9,0-1.5,0.7-1.5,1.5c0,0.9,0.7,1.5,1.5,1.5c0.9,0,1.5-0.7,1.5-1.5H840.3
	"/>
<path id="path106" class="st3" d="M433.7,55.9c0,0.7-0.5,1.2-1.2,1.2c-0.7,0-1.2-0.5-1.2-1.2c0-0.7,0.5-1.2,1.2-1.2
	S433.7,55.2,433.7,55.9"/>
<path id="path108" class="st2" d="M433.7,55.9h-0.3c0,0.5-0.4,0.9-0.9,0.9c-0.5,0-0.9-0.4-0.9-0.9c0-0.5,0.4-0.9,0.9-0.9
	c0.5,0,0.9,0.4,0.9,0.9H433.7h0.3c0-0.9-0.7-1.5-1.5-1.6c-0.9,0-1.5,0.7-1.5,1.6c0,0.9,0.7,1.5,1.5,1.5c0.9,0,1.5-0.7,1.5-1.5H433.7
	"/>
<path id="path110" class="st3" d="M942.6,357.5c0,0.7-0.5,1.2-1.2,1.2s-1.2-0.5-1.2-1.2s0.5-1.2,1.2-1.2S942.6,356.9,942.6,357.5"/>
<path id="path112" class="st2" d="M942.6,357.5h-0.3c0,0.5-0.4,0.9-0.9,0.9c-0.5,0-0.9-0.4-0.9-0.9c0-0.5,0.4-0.9,0.9-0.9
	c0.5,0,0.9,0.4,0.9,0.9H942.6h0.3c0-0.9-0.7-1.5-1.5-1.5c-0.9,0-1.5,0.7-1.5,1.5c0,0.9,0.7,1.5,1.5,1.5c0.9,0,1.5-0.7,1.5-1.5H942.6
	"/>
<path id="path114" class="st3" d="M908.8,571.9c0,0.7-0.5,1.2-1.2,1.2c-0.7,0-1.2-0.5-1.2-1.2c0-0.7,0.5-1.2,1.2-1.2
	C908.2,570.7,908.8,571.2,908.8,571.9"/>
<path id="path116" class="st2" d="M908.8,571.9h-0.3c0,0.5-0.4,0.9-0.9,0.9c-0.5,0-0.9-0.4-0.9-0.9c0-0.5,0.4-0.9,0.9-0.9
	c0.5,0,0.9,0.4,0.9,0.9H908.8h0.3c0-0.9-0.7-1.5-1.5-1.5c-0.9,0-1.6,0.7-1.6,1.5c0,0.9,0.7,1.5,1.6,1.5c0.9,0,1.5-0.7,1.5-1.5H908.8
	"/>
<path id="path118" class="st3" d="M183.3,71.8c0,0.7-0.5,1.2-1.2,1.2c-0.7,0-1.2-0.5-1.2-1.2c0-0.7,0.5-1.2,1.2-1.2
	C182.8,70.6,183.3,71.2,183.3,71.8"/>
<path id="path120" class="st2" d="M183.3,71.8H183c0,0.5-0.4,0.9-0.9,0.9c-0.5,0-0.9-0.4-0.9-0.9c0-0.5,0.4-0.9,0.9-0.9
	c0.5,0,0.9,0.4,0.9,0.9H183.3h0.3c0-0.9-0.7-1.5-1.5-1.5s-1.5,0.7-1.6,1.5c0,0.9,0.7,1.5,1.6,1.6c0.9,0,1.5-0.7,1.5-1.6H183.3"/>
<path id="path122" class="st3" d="M644.9,51.7c0,0.7-0.5,1.2-1.2,1.2s-1.2-0.5-1.2-1.2c0-0.7,0.5-1.2,1.2-1.2S644.9,51,644.9,51.7"
	/>
<path id="path124" class="st2" d="M644.9,51.7h-0.3c0,0.5-0.4,0.9-0.9,0.9c-0.5,0-0.9-0.4-0.9-0.9c0-0.5,0.4-0.9,0.9-0.9
	c0.5,0,0.9,0.4,0.9,0.9H644.9h0.3c0-0.9-0.7-1.6-1.5-1.6c-0.9,0-1.5,0.7-1.5,1.6c0,0.9,0.7,1.5,1.5,1.5c0.9,0,1.5-0.7,1.5-1.5H644.9
	"/>
<path id="path126" class="st2" d="M609.3,308.2c-9.4-6.3-15.8-16.2-18.4-27c-2.4-9.7-2-19.8-3.9-29.6c-1.5-8-4.9-15.6-9.6-22.3
	c-9-12.8-22.1-22.6-36.1-29.2c-10.4-4.8-21.9-8.2-33.4-8.2c-34.3,0-67.3,24.2-78,56.7c-0.3,0.8-0.5,1.5-0.7,2.3l0,0.1
	c-2.5,8.7-1.8,17.9-3.8,26.6c-2.3,10.1-8.7,19-17.7,24.2c-45.4,25.9-75.2,69.7-75.2,119.5c0,79.6,76.5,144.2,170.8,144.2
	c94.3,0,170.8-64.5,170.8-144.2C674.1,375.5,648.8,334.6,609.3,308.2"/>
<path id="path128" class="st2" d="M536.9,176.5c0,14.9-12.1,27-27,27c-14.9,0-27-12.1-27-27c0-14.9,12.1-27,27-27
	C524.8,149.6,536.9,161.6,536.9,176.5"/>
<path id="path130" class="st1" d="M566.7,358.2c-27.1-4.3-42,2.2-42,2.2v-28h-34.1l-2.5,27.8c0,0-12.6,2.8-29.8,6.4l48.3,38.2
	L566.7,358.2"/>
<path id="path132" class="st4" d="M566.7,358.2l0.1-0.7c-6.7-1.1-12.7-1.5-17.9-1.5c-15.8,0-24.4,3.7-24.4,3.8l0.3,0.6h0.7v-28.6
	H490l-2.6,28.4l0.7,0.1l-0.1-0.7c0,0-0.8,0.2-2.2,0.5c-4.4,1-14.7,3.2-27.5,5.9l-1.4,0.3l49.9,39.4l61.6-47.9l-1.5-0.2L566.7,358.2
	l-0.4-0.5l-59.6,46.3l-47.9-37.8l-0.4,0.5l0.1,0.7c17.2-3.6,29.8-6.4,29.8-6.4l0.5-0.1l2.5-27.7H524v28.3l0.9-0.4l0.1,0
	c0.9-0.4,9.2-3.6,23.8-3.6c5.1,0,11,0.4,17.7,1.5L566.7,358.2l-0.4-0.5L566.7,358.2"/>
<path id="path134" class="st5" d="M483.8,360.8c-5.1,0.6-11,1.6-17.5,3.4c-6.6,1.8-12.3,4-17,6.2c0,67.2,0,134.3,0,201.5h6.2h121
	l-9.9-213.7c-5.6-1-12.6-1.7-20.7-1.4c-6.1,0.2-11.5,1-16.1,1.9c-1.2-3-2.4-6.1-3.6-9.1L506,360.7l-16.3-11.2L483.8,360.8"/>
<path id="path136" class="st0" d="M483.8,360.8l-0.1-0.7c-5.1,0.6-11.1,1.6-17.6,3.4c-6.6,1.8-12.3,4-17.1,6.2l-0.4,0.2v0.4
	c0,67.2,0,134.3,0,201.5v0.7h6.8h121.7l-10-214.9l-0.5-0.1c-4.8-0.8-10.7-1.5-17.3-1.5c-1.1,0-2.3,0-3.5,0.1
	c-6.1,0.2-11.6,1-16.3,1.9l0.1,0.7l0.6-0.2c-1.2-3-2.4-6.1-3.6-9.1l-0.3-0.7L506,359.9l-16.6-11.4l-6.2,11.9L483.8,360.8l-0.1-0.7
	L483.8,360.8l0.6,0.3l5.5-10.6l16,11l20.6-11.4l-0.3-0.6l-0.6,0.2c1.2,3,2.4,6.1,3.6,9.1l0.2,0.5l0.5-0.1c4.6-0.9,10-1.7,16-1.9
	c1.2,0,2.3-0.1,3.5-0.1c6.5,0,12.3,0.6,17.1,1.5l0.1-0.7l-0.7,0l9.9,213H455.6h-6.2v0.7h0.7c0-67.2,0-134.3,0-201.5h-0.7l0.3,0.6
	c4.7-2.1,10.4-4.3,16.9-6.1c6.4-1.8,12.3-2.8,17.4-3.4l0.3,0l0.2-0.3L483.8,360.8"/>
<path id="path138" class="st0" d="M511.9,396c0,0.8-0.7,1.5-1.5,1.5c-0.8,0-1.5-0.7-1.5-1.5c0-0.8,0.7-1.5,1.5-1.5
	C511.2,394.5,511.9,395.2,511.9,396"/>
<path id="path140" class="st0" d="M511.9,396h-0.7c0,0.5-0.4,0.8-0.8,0.8c-0.5,0-0.8-0.4-0.8-0.8c0-0.5,0.4-0.8,0.8-0.8
	c0.5,0,0.8,0.4,0.8,0.8H511.9h0.7c0-1.2-1-2.2-2.2-2.2c-1.2,0-2.2,1-2.2,2.2c0,1.2,1,2.2,2.2,2.2c1.2,0,2.2-1,2.2-2.2H511.9"/>
<path id="path142" class="st0" d="M512.5,367.1c0,0.8-0.7,1.5-1.5,1.5c-0.8,0-1.5-0.7-1.5-1.5c0-0.8,0.7-1.5,1.5-1.5
	C511.8,365.6,512.5,366.3,512.5,367.1"/>
<path id="path144" class="st0" d="M512.5,367.1h-0.7c0,0.5-0.4,0.8-0.8,0.8c-0.5,0-0.8-0.4-0.8-0.8c0-0.5,0.4-0.8,0.8-0.8
	c0.5,0,0.8,0.4,0.8,0.8H512.5h0.7c0-1.2-1-2.2-2.2-2.2c-1.2,0-2.2,1-2.2,2.2c0,1.2,1,2.2,2.2,2.2c1.2,0,2.2-1,2.2-2.2H512.5"/>
<path id="path146" class="st0" d="M513,432.6c0,0.8-0.7,1.5-1.5,1.5c-0.8,0-1.5-0.7-1.5-1.5s0.7-1.5,1.5-1.5
	C512.3,431.1,513,431.8,513,432.6"/>
<path id="path148" class="st0" d="M513,432.6h-0.7c0,0.5-0.4,0.8-0.8,0.8c-0.5,0-0.8-0.4-0.8-0.8c0-0.5,0.4-0.8,0.8-0.8
	c0.5,0,0.8,0.4,0.8,0.8H513h0.7c0-1.2-1-2.2-2.2-2.2c-1.2,0-2.2,1-2.2,2.2c0,1.2,1,2.2,2.2,2.2c1.2,0,2.2-1,2.2-2.2H513"/>
<path id="path150" class="st0" d="M513,462.4c0,0.8-0.7,1.5-1.5,1.5c-0.8,0-1.5-0.7-1.5-1.5c0-0.8,0.7-1.5,1.5-1.5
	C512.3,460.9,513,461.6,513,462.4"/>
<path id="path152" class="st0" d="M513,462.4h-0.7c0,0.5-0.4,0.8-0.8,0.8c-0.5,0-0.8-0.4-0.8-0.8c0-0.5,0.4-0.8,0.8-0.8
	c0.5,0,0.8,0.4,0.8,0.8H513h0.7c0-1.2-1-2.2-2.2-2.2c-1.2,0-2.2,1-2.2,2.2c0,1.2,1,2.2,2.2,2.2c1.2,0,2.2-1,2.2-2.2H513"/>
<path id="path154" class="st0" d="M513,489.1c0,0.8-0.7,1.5-1.5,1.5c-0.8,0-1.5-0.7-1.5-1.5c0-0.8,0.7-1.5,1.5-1.5
	C512.3,487.6,513,488.2,513,489.1"/>
<path id="path156" class="st0" d="M513,489.1h-0.7c0,0.5-0.4,0.8-0.8,0.8c-0.5,0-0.8-0.4-0.8-0.8c0-0.5,0.4-0.8,0.8-0.8
	c0.5,0,0.8,0.4,0.8,0.8H513h0.7c0-1.2-1-2.2-2.2-2.2c-1.2,0-2.2,1-2.2,2.2c0,1.2,1,2.2,2.2,2.2c1.2,0,2.2-1,2.2-2.2H513"/>
<path id="path158" class="st0" d="M513,519.6c0,0.8-0.7,1.5-1.5,1.5c-0.8,0-1.5-0.7-1.5-1.5c0-0.8,0.7-1.5,1.5-1.5
	C512.3,518.1,513,518.8,513,519.6"/>
<path id="path160" class="st0" d="M513,519.6h-0.7c0,0.5-0.4,0.8-0.8,0.8c-0.5,0-0.8-0.4-0.8-0.8c0-0.5,0.4-0.8,0.8-0.8
	c0.5,0,0.8,0.4,0.8,0.8H513h0.7c0-1.2-1-2.2-2.2-2.2c-1.2,0-2.2,1-2.2,2.2c0,1.2,1,2.2,2.2,2.2c1.2,0,2.2-1,2.2-2.2H513"/>
<path id="path162" class="st0" d="M513,549.4c0,0.8-0.7,1.5-1.5,1.5c-0.8,0-1.5-0.7-1.5-1.5s0.7-1.5,1.5-1.5
	C512.3,547.9,513,548.6,513,549.4"/>
<path id="path164" class="st0" d="M513,549.4h-0.7c0,0.5-0.4,0.8-0.8,0.8c-0.5,0-0.8-0.4-0.8-0.8c0-0.5,0.4-0.8,0.8-0.8
	c0.5,0,0.8,0.4,0.8,0.8H513h0.7c0-1.2-1-2.2-2.2-2.2c-1.2,0-2.2,1-2.2,2.2c0,1.2,1,2.2,2.2,2.2c1.2,0,2.2-1,2.2-2.2H513"/>
<path id="path166" class="st5" d="M519.3,375.8c1.7-0.9,4.6-2.9,7-6.4c3-4.4,3.5-8.8,3.6-10.7c-1.5-3.7-2.9-7.4-4.4-11.1
	c-6.4,4.1-12.8,8.1-19.2,12.2c-6-4-12-8-18-12c-1.5,4.3-3,8.7-4.5,13c0.8,2.5,2.2,6,4.8,9.6c2,2.8,4.1,4.9,5.8,6.3
	c0.8-4.5,3.7-18.3,8.3-18.5c0.9,0,2,0.4,3.5,2.3c2.9-3.5,5-3.5,5.7-3.4C515.8,357.6,519,364.9,519.3,375.8"/>
<path id="path168" class="st0" d="M519.3,375.8l0.3,0.6c1.7-1,4.7-3,7.2-6.6c3.1-4.5,3.6-9,3.7-11.1l0-0.1l-0.1-0.1
	c-1.5-3.7-2.9-7.4-4.4-11.1l-0.3-0.8l-0.7,0.4c-6.4,4.1-12.8,8.1-19.2,12.2l0.4,0.6l0.4-0.6c-6-4-12-8-18-12l-0.7-0.5l-0.3,0.8
	c-1.5,4.3-3,8.7-4.5,13l-0.1,0.2l0.1,0.2c0.8,2.6,2.3,6.1,4.9,9.8c2,2.8,4.1,5,5.9,6.5l0.9,0.7l0.2-1.1c0.4-2.2,1.3-6.8,2.7-10.8
	c0.7-2,1.5-3.8,2.4-5.1c0.4-0.7,0.9-1.2,1.3-1.5c0.4-0.3,0.9-0.5,1.3-0.5l0.1,0c0.3,0,0.7,0.1,1.2,0.4c0.5,0.3,1,0.8,1.7,1.7
	l0.5,0.7l0.5-0.6c1.2-1.5,2.3-2.3,3.1-2.7c0.8-0.4,1.4-0.5,1.8-0.5l0.3,0c0.8,0.1,1.5,0.5,2.3,1.4c1.2,1.3,2.2,3.4,3,6.3
	c0.8,2.8,1.3,6.4,1.4,10.4l0,1.1l1-0.5L519.3,375.8l0.7,0c-0.2-5.5-1-10.1-2.4-13.5c-0.7-1.7-1.5-3-2.4-4c-0.9-1-2-1.7-3.1-1.8
	c-0.1,0-0.3,0-0.5,0c-0.6,0-1.4,0.1-2.4,0.7c-1,0.5-2.2,1.5-3.5,3l0.5,0.4l0.5-0.4c-0.7-0.9-1.4-1.6-2.1-2c-0.7-0.4-1.3-0.6-1.9-0.6
	l-0.1,0c-0.7,0-1.4,0.3-2,0.8c-1,0.8-1.9,2.1-2.7,3.7c-2.3,4.6-3.7,11.6-4.2,14.6l0.7,0.1l0.4-0.5c-1.7-1.5-3.8-3.5-5.7-6.2
	c-2.5-3.5-3.9-7-4.7-9.4l-0.6,0.2l0.6,0.2c1.5-4.3,3-8.7,4.5-13l-0.6-0.2l-0.4,0.6c6,4,12,8,18,12l0.4,0.2l0.4-0.2
	c6.4-4.1,12.8-8.1,19.2-12.2l-0.4-0.6l-0.6,0.2c1.5,3.7,2.9,7.4,4.4,11.1l0.6-0.2l-0.7,0c-0.1,1.9-0.6,6.1-3.5,10.4
	c-2.3,3.4-5.2,5.3-6.8,6.2L519.3,375.8l0.7,0L519.3,375.8"/>
<path id="path170" class="st0" d="M505.3,360.7l-0.4,210.9l1.3,0l0.4-210.9"/>
<path id="path172" class="st1" d="M775.9,442.7c0,0,41.4-18.8,51.7-25.7c11.4-7.7,12.7,0.3,4.5,15.3c0,0,26.3-15.3,33.9-18.9
	c12-5.7,14.5,5.8-17.7,23.9c0,0,35.4-21.8,39.4-13.8c3.3,6.8-30.6,19.7-36.4,23c0,0,36.8-12.9,37.9-5.7c1.1,7.2-34.9,17.3-34.9,17.3
	s34.9-4.7,29.2,4.2c-3.9,6-96.5,23.5-96.5,23.5L775.9,442.7"/>
<path id="path174" class="st0" d="M775.9,442.7l0.3,0.6c0,0,10.4-4.7,22-10.3c5.8-2.8,12-5.8,17.3-8.5c5.3-2.7,9.9-5.2,12.5-7
	c3-2,5.2-2.9,6.6-2.9c0.8,0,1.3,0.2,1.6,0.7c0.3,0.4,0.6,1.2,0.6,2.3c0,3-1.7,8-5.2,14.4l-1.1,2.1l2.1-1.2c0,0,1.6-1,4.2-2.4
	c7.7-4.5,24-13.7,29.6-16.4c2-1,3.8-1.4,5-1.4c0.8,0,1.4,0.2,1.8,0.5c0.3,0.3,0.5,0.6,0.5,1.3c0,0.8-0.4,1.9-1.3,3.4
	c-2.7,4.3-10.1,11.1-24.3,19l0.3,0.6l0.4,0.6c0,0,0.4-0.2,1.1-0.7c2.5-1.5,8.8-5.2,15.6-8.5c3.4-1.7,6.9-3.2,10.2-4.4
	c3.2-1.2,6.1-1.9,8.2-1.9c0.9,0,1.6,0.1,2.2,0.4c0.5,0.2,0.9,0.6,1.1,1.1c0.1,0.2,0.2,0.4,0.2,0.7c0,0.6-0.4,1.4-1.2,2.4
	c-1.4,1.6-4,3.5-7.2,5.4c-4.8,2.8-10.8,5.7-16.1,8.2c-5.3,2.4-9.9,4.4-11.8,5.5l0.5,1.2c0,0,0.3-0.1,1-0.3c2.2-0.7,7.9-2.6,14.1-4.3
	c6.2-1.7,13.1-3.2,17.5-3.2c1.4,0,2.5,0.2,3.3,0.5c0.4,0.1,0.6,0.3,0.8,0.5c0.2,0.2,0.3,0.4,0.3,0.7l0,0.2c0,0.6-0.4,1.4-1.3,2.3
	c-1.6,1.6-4.4,3.3-7.9,4.9c-5.1,2.4-11.5,4.7-16.5,6.4c-2.5,0.8-4.7,1.5-6.3,2c-1.6,0.5-2.5,0.7-2.5,0.7l0.3,1.3
	c0,0,0.6-0.1,1.6-0.2c3-0.4,9.7-1.1,15.8-1.1c3.2,0,6.3,0.2,8.4,0.7c1.1,0.3,1.9,0.6,2.5,1c0.5,0.4,0.7,0.8,0.7,1.2
	c0,0.4-0.1,0.8-0.5,1.4c-0.1,0.2-0.6,0.6-1.5,1c-1.6,0.8-4.3,1.8-7.8,2.9c-12.2,3.8-33.9,8.6-52.6,12.5c-9.3,1.9-17.9,3.6-24.1,4.9
	c-3.1,0.6-5.6,1.1-7.4,1.4c-1.8,0.3-2.7,0.5-2.7,0.5l0.1,0.7l0.6-0.2l-11.1-43.2L775.9,442.7l0.3,0.6L775.9,442.7l-0.6,0.2
	l11.3,43.8l0.6-0.1c0,0,23.2-4.4,46.8-9.5c11.8-2.6,23.8-5.3,33-7.8c4.6-1.2,8.6-2.4,11.5-3.5c1.5-0.5,2.7-1,3.6-1.5
	c0.9-0.5,1.6-0.9,2-1.5c0.5-0.7,0.7-1.5,0.7-2.1c0-1-0.5-1.8-1.3-2.3c-1.1-0.8-2.8-1.3-4.9-1.6c-2-0.3-4.4-0.4-6.9-0.4
	c-8.3,0-17.5,1.3-17.6,1.3l0.1,0.7l0.2,0.6c0,0,8.8-2.4,17.5-5.8c4.4-1.7,8.8-3.6,12.1-5.5c1.7-1,3.1-2,4.1-3c1-1,1.7-2.1,1.7-3.3
	c0-0.1,0-0.3,0-0.4c-0.1-0.5-0.3-1-0.7-1.4c-0.5-0.6-1.3-0.9-2.1-1.1c-0.9-0.2-1.9-0.3-3-0.3c-5.3,0-13.5,2-20.5,4
	c-6.9,2-12.6,3.9-12.6,3.9l0.2,0.6l0.3,0.6c1.3-0.8,4.3-2.1,8-3.8c5.6-2.5,12.7-5.8,18.5-9c2.9-1.7,5.5-3.3,7.3-4.9
	c0.9-0.8,1.7-1.6,2.2-2.4c0.5-0.8,0.9-1.6,0.9-2.5c0-0.4-0.1-0.9-0.3-1.3c-0.4-0.8-1-1.3-1.8-1.7c-0.8-0.3-1.7-0.5-2.7-0.5
	c-2.7,0-6.3,1-10.1,2.5c-11.5,4.4-25.7,13.2-25.7,13.2l0.7,1.1c9.5-5.4,16.1-10.2,20.2-14.2c2.1-2,3.6-3.8,4.6-5.3
	c1-1.6,1.5-2.9,1.5-4.1c0-0.9-0.4-1.8-1-2.3c-0.7-0.5-1.6-0.8-2.6-0.8c-1.5,0-3.4,0.5-5.6,1.5c-3.8,1.8-12.3,6.5-19.8,10.8
	c-7.5,4.3-14.1,8.1-14.1,8.1l0.3,0.6l0.6,0.3c3.5-6.4,5.3-11.6,5.3-15c0-1.2-0.2-2.3-0.8-3.1c-0.6-0.8-1.6-1.2-2.7-1.2
	c-1.9,0-4.2,1-7.3,3.1c-2.5,1.7-7,4.2-12.4,6.9c-8,4.1-17.8,8.8-25.6,12.5c-3.9,1.8-7.3,3.4-9.8,4.5c-2.4,1.1-3.9,1.8-3.9,1.8
	l-0.5,0.2l0.1,0.5L775.9,442.7"/>
<path id="path176" class="st1" d="M846.8,431.7l8.6,30.1"/>
<path id="path178" class="st0" d="M846.2,431.9l8.6,30.1l1.3-0.4l-8.6-30.1"/>
<path id="path180" class="st1" d="M831.7,433.1c0,0,4.5,15.9-6.9,21.9"/>
<path id="path182" class="st0" d="M831.1,433.3l0,0.1c0.2,0.6,0.8,3.4,0.8,6.7c0,2.5-0.3,5.2-1.4,7.8c-1.1,2.5-2.9,4.9-5.9,6.5
	l0.6,1.2c3.3-1.7,5.4-4.3,6.6-7.1c1.2-2.8,1.5-5.7,1.5-8.3c0-4.1-0.9-7.2-0.9-7.2L831.1,433.3"/>
<path id="path184" class="st6" d="M487.7,571.6l112.4,0.3l-3.5-96.5c0,0,62.8,75.5,203.1,18.9l-9.9-72.2l-48.2,11.1
	c-18.2,4.2-37.3,3.3-54.8-3.3c-11.2-4.2-21.6-10.6-30.7-19.1c-52.5-49.3-94.4-56.5-116.7-55.5L487.7,571.6"/>
<path id="path186" class="st0" d="M487.7,571.6l0,0.7l113.1,0.3l-3.5-97.2l-0.7,0l-0.5,0.4c0.1,0.1,33.5,40.2,105.9,40.2
	c27.1,0,59.7-5.6,98-21.1l0.5-0.2l-10-73.4l-48.9,11.2c-7.3,1.7-14.7,2.5-22.1,2.5c-11,0-21.9-1.9-32.3-5.8
	c-11.1-4.2-21.5-10.5-30.5-18.9c-49.7-46.7-90-55.8-113.3-55.8c-1.4,0-2.7,0-3.9,0.1l-0.5,0l-52,217.6l0.8,0L487.7,571.6l0.6,0.2
	l51.7-216.3l-0.6-0.2l0,0.7c1.2-0.1,2.5-0.1,3.8-0.1c22.9,0,62.9,8.9,112.4,55.4c9.1,8.5,19.6,14.9,30.9,19.2
	c10.6,4,21.7,5.9,32.8,5.9c7.5,0,15-0.9,22.4-2.6l47.5-10.9l9.8,71.5l0.7-0.1l-0.2-0.6c-38.2,15.4-70.5,21-97.5,21
	c-35.9,0-62.1-9.9-79.4-19.9c-8.6-5-15-9.9-19.2-13.7c-2.1-1.9-3.7-3.4-4.7-4.5c-0.5-0.5-0.9-1-1.2-1.3c-0.1-0.1-0.2-0.3-0.3-0.3
	l-0.1-0.1l-1.2-1.5l3.5,97.7L487.7,571L487.7,571.6l0.6,0.2L487.7,571.6"/>
<path id="path188" class="st6" d="M469.1,362.2c-12.4,2.5-39.6,11.5-57.6,20.2c-43.8,21.2-79.8,59.4-101.6,102.6
	c-7.5,14.8-17.2,33.9-13.9,51.1c4.1,21.3,30.1,22.5,47.3,19.7c9.7-1.6,19.1-4.6,28.2-8.2l35.9-12.1l0.9,36.4l112.9-0.2L469.1,362.2"
	/>
<path id="path190" class="st0" d="M469.1,362.2l-0.1-0.7c-12.5,2.5-39.7,11.5-57.7,20.3c-43.9,21.3-80.1,59.6-101.9,102.9
	c-6.4,12.8-14.6,28.7-14.6,44.1c0,2.5,0.2,5,0.7,7.4c1.6,8.3,6.6,13.7,12.9,16.9c6.4,3.2,14.2,4.4,21.8,4.4c4.7,0,9.3-0.4,13.4-1.1
	c9.7-1.6,19.2-4.6,28.3-8.2l-0.2-0.6l0.2,0.6l35-11.8l0.9,36.2l114.4-0.2l-52.6-211l-0.6,0.1L469.1,362.2l-0.6,0.2l52,208.7
	l-111.4,0.2l-0.9-36.7l-36.8,12.4l0,0c-9.1,3.6-18.4,6.6-28.1,8.2c-4,0.7-8.6,1.1-13.2,1.1c-7.4,0-15.1-1.1-21.2-4.2
	c-6.1-3.1-10.7-8.1-12.2-16c-0.5-2.4-0.7-4.8-0.7-7.2c0-14.9,8-30.8,14.5-43.5c21.7-43.1,57.7-81.2,101.3-102.3
	c17.9-8.7,45.1-17.7,57.4-20.2L469.1,362.2l-0.6,0.2L469.1,362.2"/>
<path id="path192" class="st0" d="M332.5,493.4l159-47.6"/>
<path id="path194" class="st0" d="M332.5,493.4c13.2-4.2,26.4-8.3,39.6-12.4l39.7-12l39.8-11.8l19.9-5.8l20-5.6l-19.8,6.3l-19.8,6.1
	l-39.7,12L372.4,482C359.1,485.9,345.8,489.7,332.5,493.4"/>
<path id="path196" class="st0" d="M496.6,571.4l-50.4-141.3l13.1-7.2l-20.9-28.3l31.1-32l-1-0.9l-31.9,32.8l20.6,28l-12.8,7
	l50.8,142.4L496.6,571.4"/>
<path id="path198" class="st0" d="M522,571.9l42.4-148.7l-12.8-7l20.6-28l-31.9-32.8l-1,0.9l31.1,32l-20.9,28.3l13.2,7.2
	l-42.1,147.6L522,571.9"/>
<path id="path200" class="st1" d="M507.8,230.4c-6.6,31.6-45.7,44.1-45.7,44.1c-0.6,3.4-0.6,5.1-0.6,8.8c0,30,20.8,54.2,46.6,54.2
	c25.7,0,46.6-24.3,46.6-54.2c0-3.5-0.1-5.5-0.6-8.9c0,0-26.5-6.5-45.9-45.2L507.8,230.4"/>
<path id="path202" class="st4" d="M507.8,230.4l-0.7-0.1c-3.3,15.6-14.5,26.5-25,33.5c-5.3,3.5-10.3,6-14,7.7
	c-1.9,0.8-3.4,1.4-4.5,1.8c-0.5,0.2-1,0.3-1.2,0.4s-0.4,0.1-0.4,0.1l-0.4,0.1l-0.1,0.4c-0.6,3.5-0.6,5.3-0.6,8.9
	c0,15.1,5.3,28.8,13.8,38.8c8.5,9.9,20.4,16.1,33.4,16.1c13.1,0,24.9-6.2,33.4-16.1c8.5-9.9,13.8-23.7,13.8-38.8
	c0-3.6-0.1-5.6-0.6-9l-0.1-0.4l-0.4-0.1l-0.1,0c-1.4-0.4-26.7-7.5-45.4-44.8l-0.8-1.7l-0.7,3.1l0,0L507.8,230.4l0.7,0.1l0.3-1.2
	l-0.7-0.1l-0.6,0.3c19.6,38.9,46.2,45.5,46.4,45.6l0.2-0.6l-0.7,0.1c0.6,3.3,0.6,5.2,0.6,8.7c0,14.8-5.2,28.2-13.5,37.9
	c-8.3,9.7-19.8,15.7-32.4,15.7c-12.6,0-24.1-6-32.4-15.7c-8.3-9.7-13.5-23.1-13.5-37.9c0-3.6,0-5.3,0.6-8.7l-0.7-0.1l0.2,0.6
	c0,0,9.8-3.1,20.5-10.2c10.7-7.1,22.2-18.2,25.6-34.3L507.8,230.4l0.7,0.1L507.8,230.4"/>
<path id="path204" class="st7" d="M484,316c-3.6,0-6.8-1.4-9.1-3.8c-2.3-2.3-3.8-5.5-3.8-9.1c0-3.6,1.4-6.8,3.8-9.1
	c2.3-2.3,5.5-3.8,9.1-3.8c3.6,0,6.8,1.4,9.1,3.8c2.2,2.2,3.7,5.3,3.8,8.7c-0.2,0-0.4,0-0.5,0c-0.2,0-0.3,0-0.3,0
	c0.3,0.5,0.5,1,0.8,1.6c-0.3,3.1-1.6,5.9-3.7,7.9C490.7,314.6,487.5,316,484,316"/>
<path id="path206" class="st7" d="M484,317.3c-7.8,0-14.2-6.4-14.2-14.2c0-7.8,6.4-14.2,14.2-14.2c7.7,0,13.9,6.1,14.2,13.7
	c-0.4,0-0.9,0.1-1.3,0.1c-0.1-3.4-1.5-6.5-3.8-8.7c-2.3-2.3-5.5-3.8-9.1-3.8c-3.6,0-6.8,1.4-9.1,3.8c-2.3,2.3-3.8,5.5-3.8,9.1
	c0,3.6,1.4,6.8,3.8,9.1c2.3,2.3,5.5,3.8,9.1,3.8c3.6,0,6.8-1.4,9.1-3.8c2.1-2.1,3.4-4.8,3.7-7.9c0.3,0.6,0.7,1.2,1.1,1.8
	C496.5,312.5,490.8,317.3,484,317.3"/>
<path id="path208" class="st7" d="M531.4,316c-3.6,0-6.8-1.4-9.1-3.8c-2.3-2.3-3.8-5.5-3.8-9.1c0-3.6,1.4-6.8,3.8-9.1
	c2.3-2.3,5.5-3.8,9.1-3.8c3.6,0,6.8,1.4,9.1,3.8c2.3,2.3,3.8,5.5,3.8,9.1c0,3.6-1.4,6.8-3.8,9.1C538.2,314.6,534.9,316,531.4,316"/>
<path id="path210" class="st7" d="M531.4,317.3c-7.7,0-13.9-6.1-14.2-13.7c0.3-0.9,0.4-1.4,0.4-1.4c-0.1,0-0.3,0-0.4,0
	c0.5-7.4,6.7-13.2,14.2-13.2c7.8,0,14.2,6.4,14.2,14.2l0,0l0,0l0,0C545.6,311,539.2,317.3,531.4,317.3 M531.4,290.3
	c-3.6,0-6.8,1.4-9.1,3.8c-2.3,2.3-3.8,5.5-3.8,9.1c0,3.6,1.4,6.8,3.8,9.1c2.3,2.3,5.5,3.8,9.1,3.8c3.6,0,6.8-1.4,9.1-3.8
	c2.3-2.3,3.8-5.5,3.8-9.1c0-3.6-1.4-6.8-3.8-9.1C538.2,291.7,534.9,290.3,531.4,290.3 M545.6,303.2L545.6,303.2L545.6,303.2"/>
<path id="path212" class="st0" d="M535.7,286.2c0,3.3-1.9,6-4.3,6c-2.4,0-4.3-2.7-4.3-6c0-3.3,1.9-6,4.3-6
	C533.7,280.2,535.7,282.9,535.7,286.2"/>
<path id="path214" class="st0" d="M488.9,286.2c0,3.3-1.9,6-4.3,6c-2.4,0-4.3-2.7-4.3-6c0-3.3,1.9-6,4.3-6
	C487,280.2,488.9,282.9,488.9,286.2"/>
<path id="path216" class="st0" d="M473.2,270.4c0.9-1.7,2.4-3.1,4.2-4c1.7-1,3.7-1.5,5.6-1.8c2-0.1,4,0,5.8,0.5
	c0.9,0.2,1.8,0.6,2.7,0.9c0.9,0.5,1.7,0.9,2.5,1.4l0,0.1l-2.6-0.9c-0.9-0.2-1.8-0.5-2.7-0.6c-1.8-0.3-3.7-0.4-5.5-0.2
	c-1.8,0.2-3.6,0.6-5.3,1.4c-1.7,0.8-3.3,1.8-4.5,3.2L473.2,270.4"/>
<path id="path218" class="st0" d="M521.2,268.1c1.3-1.4,3.1-2.4,5-3c1.9-0.6,3.9-0.7,5.9-0.4c2,0.3,3.9,0.9,5.6,1.8
	c0.9,0.5,1.6,1,2.4,1.5c0.7,0.6,1.5,1.2,2.1,1.9l-0.1,0.1l-2.4-1.4c-0.8-0.4-1.6-0.9-2.5-1.2c-1.7-0.7-3.5-1.2-5.3-1.5
	c-1.8-0.2-3.7-0.2-5.5,0.1c-1.8,0.4-3.6,1-5.1,2.1L521.2,268.1"/>
<path id="path220" class="st8" d="M507.3,312.8c-3.6,0-6.4-2.7-8.5-5.3c-0.3-0.5-0.7-0.9-1-1.4c0.2-1,0.3-1.9,0.3-3l0,0l0,0
	c0-0.2,0-0.3,0-0.5c0.3,0,0.6-0.1,0.6-0.1c1.1-0.1,2.1-0.1,3.2-0.2c2.1-0.1,4.3-0.2,6.4-0.2c2.3,0,4.2,0,6.2,0c0.8,0,1.7,0,2.6,0
	c0,0.3,0,0.7,0,1c0,0.2,0,0.3,0,0.5C516.2,306.5,513.3,312.8,507.3,312.8"/>
<path id="path222" class="st9" d="M496.8,304.3c-0.3-0.5-0.5-1-0.8-1.6c0,0,0.1,0,0.3,0c0.1,0,0.3,0,0.5,0c0,0.1,0,0.3,0,0.4
	C496.8,303.5,496.8,303.9,496.8,304.3"/>
<path id="path224" class="st9" d="M497.8,306.1c-0.4-0.6-0.7-1.2-1.1-1.8c0-0.4,0.1-0.8,0.1-1.2c0-0.1,0-0.3,0-0.4
	c0.4,0,0.9-0.1,1.3-0.1c0,0.2,0,0.3,0,0.5l0,0l0,0l0,0C498.2,304.2,498.1,305.2,497.8,306.1 M498.2,303.2L498.2,303.2L498.2,303.2"
	/>
<path id="path226" class="st9" d="M517.2,303.6c0-0.2,0-0.3,0-0.5c0-0.3,0-0.7,0-1c0.1,0,0.3,0,0.4,0
	C517.6,302.2,517.5,302.7,517.2,303.6"/>
<path id="path228" class="st0" d="M493.5,299.5c0.9,1.2,1.7,2.3,2.8,3.2c1,0.9,2.1,1.7,3.4,2.3c2.4,1.1,5.2,1.4,7.9,1.3
	c2.6,0,5.2-1,7.4-2.5c1.1-0.7,2.2-1.7,3-2.7c0.9-1,1.6-2.2,2.1-3.6l0.1,0c-0.5,2.9-2.4,5.4-4.7,7.2c-2.3,1.8-5.1,2.9-8.1,3
	c-2.9,0.1-5.9-0.3-8.5-1.7c-2.6-1.4-4.5-3.7-5.8-6.4L493.5,299.5"/>
<path id="path230" class="st10" d="M506.2,296.6l0.9-11.8l3.4,10.6L506.2,296.6 M506.6,283.1L506.6,283.1L506.6,283.1"/>
<path id="path232" class="st10" d="M504.7,298.4l1.2-15.3l0.7,0.1l0.7,0.1l-0.1,1.6l-0.9,11.8l4.3-1.2l0,0l0.4,1.3L504.7,298.4"/>
<path id="path234" class="st4" d="M505.9,283.1l-1.2,15.3l6.2-1.7l-0.4-1.3l-4.4,1.2l1-13.4L505.9,283.1"/>
<path id="path236" class="st6" d="M500.7,294.6h-0.7c0,0.9-0.3,1.8-1,2.6c-1,1.3-2.7,2.4-4.9,3.2c-2.2,0.8-4.9,1.3-7.8,1.3
	c-3.9,0-7.4-0.9-9.9-2.2c-1.2-0.7-2.2-1.5-2.9-2.3c-0.7-0.8-1-1.7-1-2.6c0-0.9,0.3-1.8,1-2.6c1-1.3,2.7-2.4,4.9-3.2
	c2.2-0.8,4.9-1.3,7.8-1.3c3.9,0,7.4,0.9,9.9,2.2c1.2,0.7,2.2,1.5,2.9,2.3c0.7,0.8,1,1.7,1,2.6H500.7h0.7c0-1.2-0.5-2.4-1.3-3.4
	c-1.2-1.5-3.1-2.8-5.5-3.6c-2.4-0.9-5.2-1.4-8.3-1.4c-4.1,0-7.8,0.9-10.5,2.4c-1.4,0.7-2.5,1.6-3.3,2.7c-0.8,1-1.3,2.2-1.3,3.4
	c0,1.2,0.5,2.4,1.3,3.4c1.2,1.5,3.1,2.8,5.5,3.6c2.4,0.9,5.2,1.4,8.3,1.4c4.1,0,7.8-0.9,10.5-2.4c1.4-0.7,2.5-1.6,3.3-2.7
	c0.8-1,1.3-2.2,1.3-3.4H500.7"/>
<path id="path238" class="st6" d="M544.4,294.6h-0.7c0,0.9-0.3,1.8-1,2.6c-1,1.3-2.7,2.4-4.9,3.2c-2.2,0.8-4.9,1.3-7.8,1.3
	c-3.9,0-7.4-0.9-9.9-2.2c-1.2-0.7-2.2-1.5-2.9-2.3c-0.7-0.8-1-1.7-1-2.6c0-0.9,0.3-1.8,1-2.6c1-1.3,2.7-2.4,4.9-3.2
	c2.2-0.8,4.9-1.3,7.8-1.3c3.9,0,7.4,0.9,9.9,2.2c1.2,0.7,2.2,1.5,2.9,2.3c0.7,0.8,1,1.7,1,2.6H544.4h0.7c0-1.2-0.5-2.4-1.3-3.4
	c-1.2-1.5-3.1-2.8-5.5-3.6c-2.4-0.9-5.2-1.4-8.3-1.4c-4.1,0-7.8,0.9-10.5,2.4c-1.4,0.7-2.5,1.6-3.3,2.7c-0.8,1-1.3,2.2-1.3,3.4
	c0,1.2,0.5,2.4,1.3,3.4c1.2,1.5,3.1,2.8,5.5,3.6c2.4,0.9,5.2,1.4,8.3,1.4c4.1,0,7.8-0.9,10.5-2.4c1.4-0.7,2.5-1.6,3.3-2.7
	c0.8-1,1.3-2.2,1.3-3.4H544.4"/>
<path id="path240" class="st6" d="M501.2,295.1c0.4-0.4,2.9-3.1,6.9-3.1l0.3,0c3.9,0.1,6.3,2.6,6.7,3.1l1-0.9
	c-0.5-0.5-3.2-3.4-7.6-3.5l-0.3,0c-4.6,0-7.5,3-7.9,3.5L501.2,295.1"/>
<path id="path242" class="st6" d="M461.3,290.9l10.4,4.4l0.5-1.2l-10.4-4.4"/>
<path id="path244" class="st6" d="M554.4,288.9l-10,4.7l0.6,1.2l10-4.7"/>
<path id="path246" class="st0" d="M461.5,283.2c0-2.8,0.2-5.6,0.5-8.2c-1.6-0.8-3.3-1.2-5-1.2c-7.9,0-14.3,8.3-14.3,18.5
	c0,10.2,6.4,18.5,14.3,18.5c3.4,0,6.6-1.6,9-4.1C463.1,299.5,461.5,291.6,461.5,283.2"/>
<path id="path248" class="st0" d="M461.5,283.2h0.6c0-2.8,0.2-5.5,0.5-8.2l0.1-0.4l-0.4-0.2c-1.6-0.8-3.4-1.3-5.3-1.3
	c-4.2,0-7.9,2.2-10.6,5.6c-2.7,3.5-4.3,8.2-4.3,13.4c0,5.2,1.6,10,4.3,13.4c2.7,3.5,6.4,5.6,10.6,5.6c3.6,0,6.9-1.6,9.4-4.3l0.3-0.3
	l-0.1-0.3c-2.9-7-4.5-14.9-4.5-23.1H461.5H461c0,8.4,1.6,16.4,4.6,23.6l0.5-0.2l-0.4-0.4c-2.4,2.5-5.4,4-8.6,4c-3.7,0-7.2-2-9.7-5.2
	c-2.5-3.2-4.1-7.7-4.1-12.7c0-5,1.6-9.5,4.1-12.7c2.5-3.2,5.9-5.2,9.7-5.2c1.7,0,3.3,0.4,4.8,1.1l0.2-0.5l-0.6-0.1
	c-0.4,2.7-0.5,5.5-0.5,8.3L461.5,283.2"/>
<path id="path250" class="st0" d="M554.6,283.2c0-2.8-0.2-5.6-0.5-8.2c1.6-0.8,3.3-1.2,5-1.2c7.9,0,14.3,8.3,14.3,18.5
	c0,10.2-6.4,18.5-14.3,18.5c-3.4,0-6.6-1.6-9-4.1C552.9,299.5,554.6,291.6,554.6,283.2"/>
<path id="path252" class="st0" d="M554.6,283.2h0.6c0-2.8-0.2-5.6-0.5-8.3L554,275l0.2,0.5c1.5-0.7,3.1-1.1,4.8-1.1
	c3.7,0,7.2,2,9.7,5.2c2.5,3.2,4.1,7.7,4.1,12.7c0,5-1.6,9.5-4.1,12.7c-2.5,3.2-5.9,5.2-9.7,5.2c-3.3,0-6.2-1.5-8.6-4l-0.4,0.4
	l0.5,0.2c2.9-7.1,4.6-15.1,4.6-23.6L554.6,283.2l-0.6,0c0,8.3-1.6,16.1-4.5,23.1l-0.1,0.3l0.3,0.3c2.5,2.7,5.8,4.3,9.4,4.3
	c4.2,0,7.9-2.2,10.6-5.6c2.7-3.5,4.3-8.2,4.3-13.4c0-5.2-1.6-10-4.3-13.4c-2.7-3.5-6.4-5.6-10.6-5.6c-1.9,0-3.6,0.5-5.3,1.3
	l-0.4,0.2l0.1,0.4c0.3,2.7,0.5,5.4,0.5,8.2L554.6,283.2"/>
<path id="path254" class="st0" d="M511.5,318.3c0,2.4-2.6,4.3-5.9,4.3c-3.3,0-5.9-1.9-5.9-4.3c0-2.4,2.6-4.3,5.9-4.3
	C508.9,313.9,511.5,315.9,511.5,318.3"/>
<path id="path256" class="st0" d="M511.5,318.3H511c0,1-0.5,1.9-1.5,2.6c-1,0.7-2.3,1.2-3.8,1.2c-1.5,0-2.9-0.5-3.8-1.2
	c-1-0.7-1.5-1.6-1.5-2.6c0-1,0.5-1.9,1.5-2.6c1-0.7,2.3-1.2,3.8-1.2c1.5,0,2.9,0.5,3.8,1.2c1,0.7,1.5,1.6,1.5,2.6H511.5h0.6
	c0-1.4-0.8-2.7-2-3.5c-1.2-0.9-2.8-1.4-4.5-1.4c-1.7,0-3.3,0.5-4.5,1.4c-1.2,0.9-2,2.1-2,3.5c0,1.4,0.8,2.7,2,3.5
	c1.2,0.9,2.8,1.4,4.5,1.4c1.7,0,3.3-0.5,4.5-1.4c1.2-0.9,2-2.1,2-3.5H511.5"/>
<path id="path258" class="st0" d="M459.2,273.7c0-0.6,0-1.1,0-1.7c0-13.5,5.6-25.9,14.5-34.8c8.9-9,21.1-14.5,34.4-14.5
	c0.2,0,0.5,0,0.7,0c26.3,0.4,48.1,22.5,48.1,49.3c0,0.6,0,1.1,0,1.7l4.4,0.2c0-0.6,0-1.2,0-1.9c0-29.2-23.7-53.3-52.5-53.7
	c-0.3,0-0.5,0-0.8,0c-29,0-53.3,24.2-53.3,53.8c0,0.6,0,1.2,0,1.9L459.2,273.7"/>
<path id="path260" class="st0" d="M455.8,303.1c0,0.1,1.9,2.4,5.2,5.4c3.3,2.9,8,6.4,13.8,8.7c6.8,2.6,13.1,3.4,17.8,3.4
	c1.7,0,3.2-0.1,4.5-0.3c1.3-0.2,2.3-0.4,3-0.6l-0.9-2.8c-0.5,0.2-1.4,0.3-2.5,0.5c-1.1,0.1-2.5,0.2-4.1,0.2
	c-4.4,0-10.3-0.7-16.8-3.2c-5.4-2.1-9.8-5.4-12.9-8.1c-1.6-1.4-2.8-2.6-3.6-3.6c-0.4-0.5-0.7-0.8-0.9-1.1c-0.1-0.1-0.2-0.2-0.2-0.3
	l-0.1-0.1l0,0L455.8,303.1"/>
<path id="path262" class="st11" d="M742.7,579.1H232.5l-0.7-22.4l511.4,0.9L742.7,579.1"/>
<path id="path264" class="st0" d="M742.7,579.1v-0.8H233.3l-0.6-20.7l509.8,0.9l-0.5,20.6L742.7,579.1v-0.8V579.1l0.8,0l0.6-22.3
	L231,555.9l0.7,24h511.8l0-0.8L742.7,579.1"/>
<path id="path266" class="st12" d="M614.5,547.9H406.9l-11.9-130c-0.5-5.7,4-10.7,9.7-10.7h209c5.7,0,10.1,4.8,9.7,10.4L614.5,547.9
	"/>
<path id="path268" class="st12" d="M614.5,547.9v-0.7H407.6l-11.8-129.4c0-0.3,0-0.6,0-0.8c0-2.5,1-4.7,2.6-6.4
	c1.6-1.6,3.9-2.7,6.4-2.7h209c2.5,0,4.8,1,6.4,2.7c1.6,1.6,2.6,3.9,2.6,6.4c0,0.2,0,0.4,0,0.6l-9,130.2L614.5,547.9l0-0.7
	L614.5,547.9l0.7,0.1l9-130.2c0-0.2,0-0.5,0-0.7c0-5.7-4.7-10.5-10.5-10.5h-209c-5.8,0-10.5,4.8-10.5,10.5c0,0.3,0,0.6,0,1
	l11.9,130.7h208.9l0-0.7L614.5,547.9"/>
<path id="path270" class="st13" d="M614.2,556.8H406.4v-9.2l208.9,0.3L614.2,556.8"/>
<path id="path272" class="st13" d="M614.2,556.8v-0.2H406.6v-8.8L615,548l-1,8.7L614.2,556.8v-0.2V556.8l0.2,0l1.1-9.1l-209.3-0.3
	v9.6h208.1l0-0.2L614.2,556.8"/>
<path id="path274" class="st2" d="M512.7,490.9c-2.6,0.8-5.3-0.6-6.1-3.2c-0.8-2.6,0.6-5.3,3.2-6.1c2.6-0.8,5.3,0.6,6.1,3.2
	C516.6,487.4,515.2,490.1,512.7,490.9z M525.2,484.2l-1.3-4.3l-3.6,1.1c-0.6-1.1-1.4-2-2.3-2.8l1.8-3.4l-4-2.1l-1.8,3.4
	c-1.2-0.3-2.4-0.4-3.6-0.3l-1.1-3.6l-4.3,1.3l1.1,3.6c-1.1,0.6-2,1.4-2.8,2.3l-3.4-1.8l-2.1,4l3.4,1.8c-0.3,1.2-0.4,2.4-0.3,3.6
	l-3.6,1.1l1.3,4.3l3.6-1.1c0.6,1.1,1.4,2,2.3,2.8l-1.8,3.4l4,2.1l1.8-3.4c1.2,0.3,2.4,0.4,3.6,0.3l1.1,3.6l4.3-1.3l-1.1-3.6
	c1.1-0.6,2-1.4,2.8-2.3l3.4,1.8l2.1-4l-3.4-1.8c0.3-1.2,0.4-2.4,0.3-3.6L525.2,484.2"/>
<path id="path276" class="st1" d="M316.1,424.2L52.9,457L27.8,255.4L291,222.6L316.1,424.2"/>
<g id="g278">
	<g>
		<defs>
			<polyline id="SVGID_1_" points="316.1,424.2 52.9,457 27.8,255.4 291,222.6 316.1,424.2 			"/>
		</defs>
		<clipPath id="SVGID_00000039817067465253480500000015872175093537622158_">
			<use xlink:href="#SVGID_1_"  style="overflow:visible;"/>
		</clipPath>
		<g id="g280" style="clip-path:url(#SVGID_00000039817067465253480500000015872175093537622158_);">
			<g>
				<defs>
					<polyline id="SVGID_00000054259761194778623890000010082808370127244175_" points="316.1,424.2 52.9,457 27.8,255.4 291,222.6 
						316.1,424.2 					"/>
				</defs>
				<clipPath id="SVGID_00000056426888927565216910000004530532197446617490_">
					<use xlink:href="#SVGID_00000054259761194778623890000010082808370127244175_"  style="overflow:visible;"/>
				</clipPath>
				<g id="g286" style="clip-path:url(#SVGID_00000056426888927565216910000004530532197446617490_);">
					<path id="path292" class="st16" d="M316.1,424.2L52.9,457L27.8,255.4L291,222.6L316.1,424.2"/>
					<path id="path294" class="st1" d="M20.5,252.9c6,16.7,15.6,32.6,30.3,43c16.1,11.4,36.3,13.5,55.2,16.7
						c19.5,3.3,39,8.9,54.5,21.7c15.6,12.9,25.1,31.8,32.8,50.2c8.3,19.8,14.3,40.8,15.9,62.2c0.2,2.6,0.3,5.3,0.4,8
						c0,1.1,1.7,1.1,1.7,0c-0.6-21.4-5.5-42.4-13.1-62.3c-7-18.4-15.5-37.4-29-52c-13.4-14.5-31.8-22.8-50.8-27
						c-19.2-4.3-39.7-4.8-57.7-13.5c-17-8.2-28.8-23.7-36.1-40.7c-0.9-2.2-1.8-4.4-2.6-6.6C21.7,251.4,20.1,251.9,20.5,252.9"/>
					<path id="path296" class="st1" d="M11.4,292.3c5.5,14.5,14.6,27.6,26.4,37.8c11.9,10.4,26.2,16.6,40.8,22.4
						c14.7,5.8,30,11.6,41.8,22.4c12.1,11,19.5,26.3,22.8,42.2c4.3,20.9,1.4,42.6-3.7,63.1c-0.3,1,1.3,1.5,1.6,0.4
						c4.6-18.5,7.4-37.8,4.9-56.9c-2.1-15.7-7.9-31.2-18.1-43.5c-21-25.2-56.4-27.6-82.1-45.9c-14.8-10.5-26.3-25.5-32.8-42.5
						C12.7,290.8,11.1,291.3,11.4,292.3"/>
					<path id="path298" class="st1" d="M24.6,373.7c8.2-1.9,16.9-0.7,24.3,3.2c7.9,4.2,13.3,11.2,17,19.2c4,8.6,6.6,18,9.7,27
						c1.7,5,3.4,10.1,5.1,15.1c1.5,4.4,2.9,8.9,4.8,13.1c3.7,8.2,11.1,16.4,21,15.1c1-0.1,1.1-1.8,0-1.7c-10.1,1.3-16.9-7.7-20.3-16
						c-1.9-4.7-3.4-9.5-5-14.2c-1.7-5-3.4-10.1-5.1-15.1c-5.4-16.2-10-35.4-26.3-44c-7.8-4.1-17-5.4-25.6-3.4
						C23.1,372.3,23.6,373.9,24.6,373.7"/>
					<path id="path300" class="st1" d="M118.3,234.7c7.2,18,18,35,32.9,47.6c7.2,6.1,15.4,11,24.3,14.2c9.6,3.5,19.8,4.7,29.8,6
						c10.2,1.4,20.7,2.8,30.1,7c9.8,4.3,17.2,11.7,22.8,20.7c5.6,9,9.5,18.8,14.1,28.3c4.8,10.1,10.2,20,16.9,29
						c12.5,16.8,30.6,30.9,52.1,32.7c2.6,0.2,5.2,0.2,7.8,0.1c1.1-0.1,1.1-1.7,0-1.7c-22,1.5-41.9-11.4-55.3-27.8
						c-7-8.6-12.7-18.3-17.6-28.2c-4.7-9.4-8.6-19.2-13.7-28.4c-4.8-8.7-10.8-16.9-19.3-22.3c-8.2-5.4-17.9-7.8-27.5-9.4
						c-10-1.7-20.2-2.5-30.1-4.7c-9.6-2.2-18.6-6-26.8-11.6c-16-11-27.9-27.4-36-44.8c-1.1-2.3-2.1-4.6-3-6.9
						C119.5,233.3,117.9,233.7,118.3,234.7"/>
					<path id="path302" class="st1" d="M161.2,219.2c17.2,23.8,40.8,42.6,67.6,54.6c13.3,6,27.4,10.2,41.8,12.6
						c15.8,2.6,31.9,2.6,47.8,0.7c20.3-2.5,40.2-7.7,60-13c1-0.3,0.6-1.9-0.4-1.6c-33.1,8.8-67,17.4-101.5,13.1
						c-28.7-3.6-56.3-15-79.5-32.3c-13.1-9.8-24.7-21.5-34.3-34.8C162,217.5,160.5,218.3,161.2,219.2"/>
					<path id="path304" class="st1" d="M209.4,206.4c5.3,17.7,18.5,31.8,34.2,41c18.5,10.9,40,14.6,61.2,15.2
						c13.5,0.4,27.1-0.3,40.6-1.1c1.1-0.1,1.1-1.7,0-1.7c-23.1,1.3-46.6,2.7-69.5-2.1c-18.4-3.8-36.1-12.1-49.3-25.8
						c-7.1-7.4-12.6-16.2-15.5-26C210.7,205,209.1,205.4,209.4,206.4"/>
				</g>
			</g>
		</g>
	</g>
</g>
<g id="g306">
	<g>
		<defs>
			<polyline id="SVGID_00000103976747003825352310000006054495920488134273_" points="316.1,424.2 52.9,457 27.8,255.4 291,222.6 
				316.1,424.2 			"/>
		</defs>
		<clipPath id="SVGID_00000130648420845677705970000002808670151754815672_">
			<use xlink:href="#SVGID_00000103976747003825352310000006054495920488134273_"  style="overflow:visible;"/>
		</clipPath>
		<g id="g308" style="clip-path:url(#SVGID_00000130648420845677705970000002808670151754815672_);">
			<path id="path314" class="st1" d="M212.3,332.9c0,0-18-8.4-23.3-9.9c-5.8-1.6-3.5-4.3,3.8-5.9c0,0-12.6-4.4-15.9-5.9
				c-5.3-2.4-2.2-6.5,13-1c0,0-17.3-5.5-15.8-9.2c1.3-3,15.2,4.6,18,5.6c0,0-14.8-8.6-12.7-11s15.7,6.7,15.7,6.7
				s-11.5-10.2-6.9-10.9c3.1-0.4,35.3,25.4,35.3,25.4L212.3,332.9"/>
			<path id="path316" class="st0" d="M212.3,332.9l0.2-0.5c0,0-4.5-2.1-9.7-4.4c-5.2-2.3-11-4.8-13.7-5.5c-1.1-0.3-1.9-0.6-2.3-1
				c-0.2-0.2-0.4-0.3-0.5-0.4c-0.1-0.1-0.1-0.2-0.1-0.3c0-0.1,0.1-0.3,0.3-0.6c0.4-0.4,1.1-0.9,2.2-1.3c1.1-0.4,2.5-0.8,4.1-1.2
				l1.9-0.4l-1.8-0.6c0,0-0.8-0.3-2-0.7c-3.7-1.3-11.4-4.1-13.9-5.2c-0.7-0.3-1.3-0.7-1.6-1c-0.3-0.3-0.5-0.6-0.4-0.7l0.1-0.2
				c0.1-0.1,0.4-0.3,0.8-0.4c0.5-0.1,1.1-0.2,1.9-0.2c2.4,0,6.3,0.7,11.8,2.7l0.2-0.5l0.2-0.5c0,0-0.2-0.1-0.7-0.2
				c-1.5-0.5-5.3-1.8-8.7-3.4c-1.7-0.8-3.3-1.6-4.4-2.5c-0.6-0.4-1-0.8-1.3-1.2c-0.3-0.4-0.4-0.7-0.4-0.9l0.1-0.3
				c0.1-0.1,0.1-0.2,0.3-0.3c0.2-0.1,0.4-0.1,0.8-0.1c0.9,0,2.2,0.3,3.8,0.8c2.3,0.8,5,2,7.3,3c2.3,1.1,4.3,2,5.2,2.4l0.5-1
				c0,0-0.8-0.5-2-1.2c-1.8-1.1-4.5-2.9-6.7-4.6c-1.1-0.9-2.1-1.7-2.8-2.5c-0.4-0.4-0.6-0.7-0.8-1c-0.2-0.3-0.2-0.5-0.2-0.7l0.1-0.2
				c0.1-0.1,0.3-0.2,0.8-0.2c0.8,0,2.2,0.4,3.7,1.1c2.3,1,4.9,2.5,7,3.7c1,0.6,1.9,1.2,2.5,1.6c0.6,0.4,1,0.6,1,0.6l0.7-0.9
				c0,0-0.5-0.4-1.2-1.1c-1.1-1.1-2.8-2.7-4.2-4.3c-0.7-0.8-1.3-1.6-1.7-2.3c-0.4-0.7-0.7-1.3-0.7-1.6c0-0.2,0-0.2,0.1-0.3
				c0.1-0.1,0.2-0.1,0.5-0.2h0c0.1,0,0.4,0.1,0.8,0.2c1.5,0.7,4.5,2.6,8,5c5.3,3.7,11.8,8.7,17,12.8c2.6,2,4.9,3.8,6.5,5.1
				c1.6,1.3,2.6,2.1,2.6,2.1l0.3-0.4l-0.4-0.3l-11.2,16L212.3,332.9l0.2-0.5L212.3,332.9l0.4,0.3l11.5-16.4l-0.4-0.3
				c0,0-7.9-6.3-16.3-12.7c-4.2-3.2-8.5-6.4-12-8.7c-1.7-1.2-3.3-2.2-4.5-2.9c-0.6-0.4-1.2-0.6-1.6-0.8c-0.5-0.2-0.8-0.3-1.2-0.3
				l-0.2,0c-0.5,0.1-0.8,0.2-1.1,0.5c-0.3,0.3-0.4,0.7-0.4,1.1c0,0.5,0.2,0.9,0.4,1.4c0.8,1.7,2.8,3.9,4.5,5.7
				c1.7,1.8,3.3,3.1,3.3,3.2l0.4-0.4l0.3-0.5c0,0-2.7-1.8-5.8-3.6c-1.6-0.9-3.3-1.8-4.9-2.5c-1.6-0.7-3-1.1-4.1-1.2
				c-0.6,0-1.2,0.1-1.6,0.6c-0.2,0.3-0.3,0.6-0.3,0.9c0,0.6,0.3,1.1,0.7,1.6c0.7,0.9,1.8,1.9,3.1,3c3.9,3.1,9.4,6.3,9.4,6.3l0.3-0.5
				l0.2-0.5c-0.5-0.2-1.6-0.7-2.9-1.3c-2-0.9-4.6-2.2-7.1-3.2c-2.5-1-4.9-1.8-6.6-1.8c-0.4,0-0.9,0.1-1.2,0.2
				c-0.4,0.2-0.7,0.4-0.8,0.8c-0.1,0.2-0.1,0.5-0.1,0.7c0,0.7,0.3,1.2,0.8,1.8c0.8,0.9,2.2,1.8,3.8,2.7c4.8,2.6,11.6,4.7,11.6,4.8
				l0.4-1c-5.6-2-9.6-2.8-12.2-2.8c-1.2,0-2.1,0.2-2.8,0.5c-0.3,0.2-0.6,0.4-0.8,0.6c-0.2,0.3-0.3,0.6-0.3,0.9
				c0,0.6,0.3,1.1,0.8,1.5c0.5,0.5,1.1,0.9,2,1.2c1.7,0.8,5.7,2.2,9.3,3.5c3.6,1.3,6.7,2.4,6.7,2.4l0.2-0.5l-0.1-0.5
				c-2.3,0.5-4.1,1.1-5.4,1.7c-0.6,0.3-1.2,0.7-1.5,1.1c-0.4,0.4-0.6,0.8-0.6,1.4c0,0.3,0.1,0.6,0.3,0.9c0.6,0.8,1.7,1.4,3.4,1.8
				c2.5,0.7,8.4,3.2,13.5,5.4c2.6,1.1,5,2.2,6.8,3.1c1.8,0.8,2.9,1.3,2.9,1.3l0.4,0.2l0.3-0.4L212.3,332.9"/>
			<path id="path318" class="st1" d="M188.4,312.5L196,301L188.4,312.5"/>
			<path id="path320" class="st0" d="M188.9,312.8l7.6-11.4l-0.9-0.6l-7.6,11.4L188.9,312.8"/>
			<path id="path322" class="st1" d="M193.2,317.1c0,0,4-6,9.2-3.9L193.2,317.1"/>
			<path id="path324" class="st0" d="M193.6,317.4L193.6,317.4c0.2-0.3,0.9-1.3,2.1-2.3c1.2-1,2.7-1.9,4.5-1.9c0.6,0,1.3,0.1,2,0.4
				l0.4-1c-0.8-0.3-1.6-0.5-2.4-0.5c-2.3,0-4.1,1.2-5.4,2.3c-1.3,1.1-2.1,2.3-2.1,2.3L193.6,317.4"/>
			<path id="path326" class="st6" d="M210.9,311.9l-8.9,13.3c-0.5,0.7-1.5,0.9-2.2,0.4l-22.9-15.3c-0.7-0.5-0.9-1.5-0.5-2.2
				l8.9-13.3c0.5-0.7,1.5-0.9,2.2-0.5l22.9,15.3C211.2,310.1,211.4,311.1,210.9,311.9"/>
			<path id="path328" class="st6" d="M210.9,311.9l-0.5-0.3l-8.9,13.3c-0.2,0.3-0.5,0.5-0.9,0.5c-0.2,0-0.4-0.1-0.6-0.2l-22.9-15.3
				c-0.3-0.2-0.5-0.5-0.5-0.9c0-0.2,0.1-0.4,0.2-0.6l8.9-13.3c0.2-0.3,0.5-0.5,0.9-0.5c0.2,0,0.4,0.1,0.6,0.2l22.9,15.3
				c0.3,0.2,0.5,0.5,0.5,0.9c0,0.2-0.1,0.4-0.2,0.6L210.9,311.9l0.5,0.3c0.2-0.4,0.4-0.8,0.4-1.2c0-0.7-0.3-1.4-1-1.8l-22.9-15.3
				c-0.4-0.2-0.8-0.4-1.2-0.4c-0.7,0-1.4,0.3-1.8,1l-8.9,13.3c-0.2,0.4-0.4,0.8-0.4,1.2c0,0.7,0.3,1.4,1,1.8l22.9,15.3
				c0.4,0.2,0.8,0.4,1.2,0.4c0.7,0,1.4-0.3,1.8-1l8.9-13.3L210.9,311.9"/>
			<path id="path330" class="st0" d="M207.7,310l-8.6,12.9l-20.7-13.8l8.6-12.9L207.7,310"/>
			<path id="path332" class="st0" d="M207.7,310l-0.5-0.3l-8.3,12.5L179.2,309l8-12l20.2,13.5L207.7,310l-0.5-0.3L207.7,310l0.3-0.5
				l-21.1-14.1l-9.2,13.8l21.6,14.4l9.2-13.8l-0.5-0.3L207.7,310"/>
			<path id="path334" class="st2" d="M205,332.3l39.4,23.8l-57.4-3.4l10.5,48c0,0,64.6,6.2,88.1-24.1c23.5-30.2-64.8-65.8-64.8-65.8
				L205,332.3"/>
			<path id="path336" class="st2" d="M205,332.3l-0.3,0.4l37.7,22.7l-56.1-3.3l10.7,49l0.4,0c0,0,5.4,0.5,13.7,0.5
				c10.2,0,24.6-0.8,38.7-4.3c14-3.5,27.7-9.7,36.1-20.5c2.8-3.6,4.1-7.4,4.1-11.1c0-7-4.4-14-10.9-20.4
				c-9.7-9.7-24.3-18.4-36.4-24.7c-12.1-6.3-21.8-10.2-21.8-10.2l-0.4-0.1l-16.4,22.2l0.5,0.3L205,332.3l0.4,0.3l15.9-21.4l-0.4-0.3
				l-0.2,0.5c0,0,1.1,0.4,2.9,1.2c6.6,2.8,23,10.3,37.8,20c7.4,4.9,14.3,10.3,19.4,15.9c5.1,5.7,8.3,11.6,8.3,17.3
				c0,3.5-1.2,7-3.9,10.5c-8.3,10.6-21.7,16.7-35.6,20.2c-13.9,3.4-28.3,4.2-38.4,4.2c-4.1,0-7.5-0.1-9.9-0.3
				c-1.2-0.1-2.1-0.1-2.8-0.2c-0.6,0-1-0.1-1-0.1l0,0.5l0.5-0.1l-10.4-47.4l58.7,3.5l-41.1-24.8L205,332.3l0.4,0.3L205,332.3"/>
			<path id="path338" class="st1" d="M199.1,377.1c-4.8-11.8-9.9-20.5-15.1-23.3l-1.9-21.6l-17.7,2.9l0.8,21c0,0-9.6-1.2-20,3.8
				L199.1,377.1"/>
			<path id="path340" class="st0" d="M199.1,377.1l0.5-0.2c-2.4-5.9-4.9-11-7.4-15.1c-2.5-4-5.2-7-7.9-8.5l-0.2,0.4l0.5,0l-2-22.1
				l-18.7,3l0.8,21.4l0.5,0l0.1-0.5c0,0-1.1-0.1-2.8-0.1c-3.6,0-10.4,0.5-17.4,3.9l-1.1,0.5l56,18l-0.4-1L199.1,377.1l0.1-0.5
				l-53.9-17.3l-0.1,0.5l0.2,0.4c6.9-3.3,13.5-3.8,17-3.8c0.9,0,1.5,0,2,0.1c0.2,0,0.4,0,0.5,0l0.2,0l0.6,0.1l-0.8-21.1l16.8-2.7
				l1.9,21.3l0.2,0.1c2.5,1.4,5,4.2,7.5,8.1c2.5,4,5,9.1,7.3,14.9L199.1,377.1l0.1-0.5L199.1,377.1"/>
			<path id="path342" class="st1" d="M255,419.1c0,0,9.7-9.3,5.2-10.2c-3.8-0.8-29,14.3-29,14.3l4.3,21.6c0,0,54.8-8.6,41.4-14.6
				c0,0,6.7-2.9,1.7-5.3c0,0,4.9-3.7-0.4-4.6c0,0,3.3-2.4-0.4-3.4C274.1,415.7,267.4,418.6,255,419.1"/>
			<path id="path344" class="st0" d="M255,419.1l0.4,0.4c0,0,1.6-1.5,3.2-3.4c0.8-1,1.6-2,2.3-3c0.6-1,1.1-2,1.1-2.9
				c0-0.4-0.1-0.8-0.4-1.2c-0.3-0.3-0.7-0.5-1.2-0.6c-0.1,0-0.3,0-0.5,0c-0.7,0-1.6,0.2-2.8,0.6c-4,1.4-10.5,4.8-16,7.9
				c-5.6,3.1-10.1,5.8-10.1,5.8l-0.3,0.2l4.4,22.5l0.5-0.1c0,0,10.9-1.7,21.8-4.1c5.4-1.2,10.9-2.6,15-4.1c2.1-0.7,3.8-1.5,5-2.2
				c0.6-0.4,1.1-0.8,1.5-1.2c0.4-0.4,0.6-0.9,0.6-1.4c0-0.5-0.3-1-0.7-1.4c-0.4-0.4-1-0.8-1.8-1.1l-0.2,0.5l0.2,0.5
				c0,0,0.9-0.4,1.9-1c0.5-0.3,0.9-0.7,1.3-1.1c0.4-0.4,0.7-1,0.7-1.6c0-0.5-0.2-0.9-0.5-1.3c-0.4-0.4-0.9-0.8-1.6-1.1l-0.2,0.5
				l0.3,0.4c0,0,0.5-0.4,1.1-1c0.5-0.6,1.2-1.4,1.2-2.3c0-0.5-0.2-1.1-0.7-1.4c-0.5-0.4-1.2-0.6-2.2-0.8l-0.1,0.5l0.3,0.4
				c0,0,0.4-0.3,0.8-0.7c0.4-0.4,0.8-1,0.8-1.7c0-0.4-0.2-0.8-0.5-1.2c-0.4-0.3-0.9-0.6-1.6-0.8c-0.6-0.2-1.3-0.3-2.1-0.3
				c-2.1,0-4.6,0.5-8,1.1c-3.4,0.6-7.6,1.2-12.8,1.4L255,419.1l0.4,0.4L255,419.1l0,0.5c5.3-0.2,9.5-0.8,13-1.4
				c3.4-0.6,6-1.1,7.9-1.1c0.7,0,1.3,0.1,1.8,0.2c0.6,0.2,0.9,0.4,1.1,0.6c0.2,0.2,0.2,0.3,0.2,0.4c0,0.2-0.2,0.7-0.5,1
				c-0.2,0.2-0.3,0.3-0.4,0.4l-0.1,0.1l0,0l-1,0.7l1.3,0.2c0.9,0.1,1.4,0.4,1.7,0.6c0.3,0.2,0.3,0.4,0.3,0.6c0,0.4-0.4,1.1-0.9,1.6
				c-0.2,0.3-0.5,0.5-0.7,0.6l-0.2,0.2l-0.1,0.1l-0.7,0.5l0.8,0.4c0.6,0.3,1,0.6,1.3,0.9c0.2,0.3,0.3,0.5,0.3,0.7
				c0,0.3-0.1,0.6-0.4,0.9c-0.4,0.5-1.1,1-1.7,1.3c-0.3,0.2-0.6,0.3-0.8,0.4l-0.2,0.1l-0.1,0l-1.1,0.5l1.1,0.5
				c0.7,0.3,1.2,0.6,1.4,0.9c0.3,0.3,0.3,0.5,0.3,0.7c0,0.2-0.1,0.4-0.4,0.7c-0.5,0.6-1.6,1.3-3,1.9c-5.2,2.4-15.1,4.7-23.7,6.5
				c-4.3,0.9-8.3,1.6-11.2,2.1c-2.9,0.5-4.7,0.8-4.7,0.8l0.1,0.5l0.5-0.1l-4.3-21.6l-0.5,0.1l0.3,0.5c0,0,1.5-0.9,3.8-2.2
				c3.5-2,8.8-5,13.7-7.5c2.4-1.3,4.8-2.4,6.7-3.2c1.9-0.8,3.5-1.3,4.2-1.3l0.2,0c0.4,0.1,0.5,0.2,0.6,0.3c0.1,0.1,0.1,0.2,0.2,0.5
				c0,0.5-0.3,1.4-0.9,2.3c-0.9,1.4-2.2,3-3.3,4.2c-0.6,0.6-1.1,1.1-1.4,1.5c-0.4,0.4-0.6,0.6-0.6,0.6l-1,1l1.4-0.1L255,419.1"/>
			<path id="path346" class="st0" d="M278,419.8c0,0-0.1,0.1-0.4,0.2c-1.7,0.7-8.9,3.5-15.9,3.5c-0.3,0-0.6,0-0.9,0l0,0.8
				c0.3,0,0.6,0,0.9,0c8.2,0,16.5-3.7,16.6-3.8L278,419.8"/>
			<path id="path348" class="st0" d="M278.5,424.4c0,0-0.1,0.1-0.4,0.1c-1.7,0.7-8.8,3.3-15.9,3.3c-0.2,0-0.3,0-0.5,0l0,0.8
				c0.2,0,0.3,0,0.5,0c8.3,0,16.5-3.5,16.5-3.6L278.5,424.4"/>
			<path id="path350" class="st0" d="M276.8,429.6c0,0-0.5,0.1-1.3,0.3c-2.5,0.6-8.1,1.9-12.6,1.9c-0.2,0-0.3,0-0.5,0l0,0.8
				c0.2,0,0.3,0,0.5,0c6.2,0,14.1-2.3,14.1-2.3L276.8,429.6"/>
			<path id="path352" class="st2" d="M187,352.7l0.3-7.9c-7,0.3-19.5,0.7-26.5,1.1l0.6,9.7c0,0-22.4-12.1-41.9,21
				c-10.4,20.4-19.4,72.1,14.1,85.7l2.2,45.1l92.7-10.2C228.6,497.2,210.4,365.5,187,352.7"/>
			<path id="path354" class="st0" d="M193.8,358.9c1.3,1.5,2.4,3.1,3.5,4.7c1,1.7,2,3.4,2.9,5.1c1.8,3.5,3.3,7.1,4.6,10.8
				c1.2,3.7,2.3,7.5,3.3,11.2c0.5,1.9,0.9,3.8,1.3,5.7c0.4,1.9,0.8,3.8,1.1,5.8l-0.1,0c-2-7.5-4-15-6.6-22.4
				C201.3,372.5,198.1,365.3,193.8,358.9L193.8,358.9"/>
			<path id="path356" class="st2" d="M161.7,355.6c0,0-18.6-10.4-36.8,12.9c-21.2,27-26.5,86.6,15.6,96.7c16.1,3.8,33,0.9,49.1-1.1
				c16.6-2,32.8-5.8,49-10l-6.2-37.2l-85.7,12.4c3-15.8,6-31.6,9-47.4"/>
			<path id="path358" class="st0" d="M161.7,355.7c-4.8-2.3-10.4-2.7-15.6-1.6c-5.2,1.1-10,3.8-13.9,7.3c-8,7-13.5,16.5-17.2,26.4
				c-3.7,10-5.6,20.6-5.6,31.2c0.1,5.3,0.7,10.6,2,15.7c1.3,5.1,3.4,10,6.3,14.4c3,4.3,6.8,8,11.3,10.7c4.5,2.7,9.5,4.4,14.7,5.3
				c10.4,1.9,21.1,1.2,31.7-0.1c10.6-1.4,21.2-2.6,31.7-4.5c10.5-1.9,20.9-4.4,31.2-7.1l-0.6,1l-6.1-37.2l0.9,0.6l-42.9,6.1l-21.4,3
				l-21.4,3l-0.7,0.1l0.1-0.6l9.4-47.3l0.1,0l-9,47.4l-0.1-0.1l85.7-12.4l0.1,0l0,0.1l6.2,37.2l0,0.1l-0.1,0
				c-10.3,2.7-20.7,5.2-31.3,7.2c-10.5,2.1-21.1,3.2-31.7,4.5c-10.6,1.2-21.4,1.9-32,0c-5.3-0.9-10.4-2.7-15-5.4
				c-4.6-2.8-8.5-6.6-11.5-11c-3-4.4-5.1-9.5-6.4-14.6c-1.3-5.2-1.9-10.5-2-15.9c-0.1-10.7,2-21.4,5.7-31.4
				c3.7-10,9.3-19.5,17.5-26.5c4.1-3.5,8.9-6.1,14.1-7.3C151.3,352.7,156.9,353.2,161.7,355.7L161.7,355.7"/>
			<path id="path360" class="st1" d="M197.1,298.2c-4.9-17.9-21.4-29-36.9-24.8c-15.4,4.2-24,22.2-19.1,40.1
				c0.2,0.8,0.5,1.6,0.7,2.4c-4.3-1-8.5,0.4-10.1,3.6c-1.9,3.9,0.8,9.1,5.9,11.5c4.7,2.2,9.8,1.3,12.1-1.8
				c7.5,8.1,18.1,11.9,28.2,9.1C193.5,334,202,316.1,197.1,298.2"/>
			<path id="path362" class="st0" d="M197.1,298.2l0.5-0.1c-4.3-15.5-17.1-26-30.6-26c-2.3,0-4.6,0.3-6.8,0.9
				c-12.7,3.5-20.8,16.1-20.8,30.4c0,3.4,0.5,6.9,1.4,10.3c0.2,0.8,0.5,1.6,0.7,2.4l0.4-0.2l0.1-0.5c-1-0.2-2-0.4-2.9-0.4
				c-3.4,0-6.4,1.5-7.7,4.3c-0.4,0.9-0.6,1.9-0.6,2.9c0,3.6,2.6,7.3,6.8,9.2c1.8,0.9,3.7,1.3,5.5,1.3c2.9,0,5.6-1.1,7.1-3.3
				l-0.4-0.3l-0.3,0.3c5.9,6.4,13.8,10.2,21.9,10.2c2.3,0,4.6-0.3,6.8-0.9c12.7-3.5,20.8-16.1,20.8-30.4c0-3.4-0.5-6.9-1.4-10.3
				L197.1,298.2l-0.5,0.1c0.9,3.4,1.4,6.8,1.4,10.1c0,13.9-7.9,26.1-20.1,29.5c-2.2,0.6-4.4,0.9-6.6,0.9c-7.8,0-15.4-3.7-21.2-9.9
				l-0.4-0.4l-0.3,0.5c-1.3,1.8-3.7,2.9-6.4,2.9c-1.6,0-3.4-0.4-5.1-1.2c-3.9-1.8-6.2-5.3-6.2-8.4c0-0.9,0.2-1.7,0.5-2.5
				c1.1-2.4,3.7-3.7,6.9-3.7c0.9,0,1.8,0.1,2.7,0.3l0.8,0.2l-0.3-0.8c-0.3-0.8-0.5-1.5-0.7-2.3c-0.9-3.4-1.4-6.8-1.4-10.1
				c0-13.9,7.9-26.1,20.1-29.4c2.2-0.6,4.4-0.9,6.6-0.9c13,0,25.6,10.2,29.7,25.3L197.1,298.2"/>
			<path id="path364" class="st0" d="M135.1,322.6l11.1,3.3l0.3-0.9l-11.1-3.3"/>
			<path id="path366" class="st6" d="M145.2,323.1l0.5-14.1c0,0,24.8-10,34.3-29.8c0,0,5,11.6,16.6,17.5c0,0-8.5-34.3-43.6-21.3
				C153.1,275.4,127.4,293,145.2,323.1"/>
			<path id="path368" class="st6" d="M145.2,323.1l0.5,0l0.5-14.1l-0.5,0l0.2,0.5c0,0,6.2-2.5,13.7-7.5c7.4-5,16.1-12.5,20.9-22.5
				l-0.5-0.2l-0.5,0.2c0,0,5,11.7,16.8,17.8l1,0.5l-0.3-1.1c0,0-1.5-6.1-5.9-12.3c-4.4-6.1-11.7-12.3-23.3-12.3c-4.4,0-9.4,0.9-15,3
				l-0.1,0l-0.1,0c0,0-3.6,2.5-7.2,7.1c-3.6,4.7-7.2,11.5-7.2,20.3c0,6.1,1.7,13.1,6.4,20.9l0.9,1.5l0.1-1.7L145.2,323.1l0.4-0.3
				c-4.5-7.7-6.2-14.5-6.2-20.4c0-8.5,3.5-15.2,7-19.7c1.7-2.3,3.5-4,4.8-5.2c0.7-0.6,1.2-1,1.6-1.3c0.2-0.1,0.3-0.3,0.4-0.3
				l0.1-0.1l-0.3-0.4l0.2,0.5c5.5-2.1,10.4-2.9,14.7-2.9c11.2,0,18.2,5.9,22.5,11.9c2.1,3,3.6,6,4.5,8.2c0.5,1.1,0.8,2.1,1,2.7
				c0.1,0.3,0.2,0.6,0.2,0.8c0,0.2,0.1,0.3,0.1,0.3l0.5-0.1l0.2-0.4c-5.7-2.9-9.8-7.2-12.5-10.8c-1.3-1.8-2.3-3.4-2.9-4.6
				c-0.3-0.6-0.6-1-0.7-1.4c-0.1-0.2-0.1-0.3-0.2-0.4l-0.1-0.1l-0.4-1l-0.5,1c-4.7,9.8-13.2,17.2-20.6,22.2
				c-3.7,2.5-7.1,4.3-9.5,5.6c-1.2,0.6-2.2,1.1-2.9,1.4c-0.3,0.2-0.6,0.3-0.8,0.3c-0.2,0.1-0.3,0.1-0.3,0.1l-0.3,0.1l-0.5,14.4
				L145.2,323.1l0.4-0.3L145.2,323.1"/>
			<path id="path370" class="st6" d="M153.6,281.8c0,0-25.3,9.6-26.7-14.6c-0.2-3.5,1.1-7.4,4-10.5c3.1-3.3,8.9-7.6,16.5-5
				C161.3,256.6,162.8,273.9,153.6,281.8"/>
			<path id="path372" class="st6" d="M153.6,281.8l-0.2-0.6c0,0-0.1,0-0.2,0.1c-1,0.3-5.3,1.8-10.2,1.8c-3.5,0-7.2-0.7-10.1-3.1
				c-2.9-2.3-5.1-6.2-5.5-12.9c0-0.2,0-0.5,0-0.7c0-3.2,1.3-6.5,3.9-9.3c2.3-2.5,6.3-5.6,11.4-5.6c1.4,0,2.9,0.2,4.5,0.8
				c7.9,2.7,11.6,9.6,11.6,16.3c0,4.8-1.9,9.6-5.6,12.7L153.6,281.8l-0.2-0.6L153.6,281.8l0.4,0.4c4-3.4,6-8.5,6-13.6
				c0-7.2-4-14.6-12.4-17.5c-1.7-0.6-3.3-0.8-4.9-0.8c-5.6,0-9.8,3.3-12.3,6c-2.8,3-4.2,6.7-4.2,10.2c0,0.3,0,0.5,0,0.8
				c0.4,6.9,2.7,11.2,5.9,13.7c3.2,2.6,7.2,3.3,10.8,3.3c5.8,0,10.8-1.9,10.8-1.9l0.1,0l0.1-0.1L153.6,281.8"/>
			<path id="path374" class="st6" d="M132.3,257.8c0.3,5.5-4,10.3-9.5,10.5c-5.5,0.3-10.3-4-10.5-9.5c-0.3-5.5,4-10.3,9.5-10.5
				C127.3,248,132,252.3,132.3,257.8"/>
			<path id="path376" class="st6" d="M132.3,257.8l-0.6,0c0,0.2,0,0.3,0,0.5c0,5-3.9,9.2-8.9,9.4c-0.2,0-0.3,0-0.5,0
				c-5,0-9.2-3.9-9.4-8.9c0-0.2,0-0.3,0-0.5c0-5,3.9-9.2,8.9-9.4c0.2,0,0.3,0,0.5,0c5,0,9.2,3.9,9.4,8.9L132.3,257.8l0.6,0
				c-0.3-5.7-5-10.1-10.6-10.1c-0.2,0-0.4,0-0.6,0c-5.7,0.3-10.1,5-10.1,10.6c0,0.2,0,0.4,0,0.6c0.3,5.7,5,10.1,10.6,10.1
				c0.2,0,0.4,0,0.6,0c5.7-0.3,10.1-5,10.1-10.6c0-0.2,0-0.4,0-0.6L132.3,257.8"/>
			<path id="path378" class="st6" d="M115.3,262.4c0.3,5.5-4,10.3-9.5,10.5c-5.5,0.3-10.3-4-10.5-9.5c-0.3-5.5,4-10.3,9.5-10.5
				C110.2,252.6,115,256.8,115.3,262.4"/>
			<path id="path380" class="st6" d="M115.3,262.4l-0.6,0c0,0.2,0,0.3,0,0.5c0,5-3.9,9.2-8.9,9.4c-0.2,0-0.3,0-0.5,0
				c-5,0-9.2-3.9-9.4-8.9c0-0.2,0-0.3,0-0.5c0-5,3.9-9.2,8.9-9.4c0.2,0,0.3,0,0.5,0c5,0,9.2,3.9,9.4,8.9L115.3,262.4l0.6,0
				c-0.3-5.7-5-10.1-10.6-10.1c-0.2,0-0.4,0-0.6,0c-5.7,0.3-10.1,5-10.1,10.6c0,0.2,0,0.4,0,0.6c0.3,5.7,5,10.1,10.6,10.1
				c0.2,0,0.4,0,0.6,0c5.7-0.3,10.1-5,10.1-10.6c0-0.2,0-0.4,0-0.6L115.3,262.4"/>
			<path id="path382" class="st6" d="M143.5,329L143.5,329c0.4,0,0.8,0.1,1.1,0.5c1.1,1,2.1,3.5,2.3,6.5c0,0.5,0.1,0.9,0.1,1.4
				c0,1.7-0.3,3.2-0.7,4.3c-0.2,0.5-0.5,1-0.8,1.3c-0.3,0.3-0.6,0.4-0.9,0.5l-0.1,0c-0.3,0-0.7-0.2-1-0.5c-1.1-1-2.1-3.5-2.3-6.5
				c0-0.5-0.1-0.9-0.1-1.4c0-0.7,0-1.4,0.1-2l-0.7-0.1c-0.1,0.6-0.1,1.3-0.1,2.1c0,0.5,0,1,0.1,1.4c0.2,2.1,0.7,3.9,1.4,5.3
				c0.3,0.7,0.7,1.2,1.2,1.6c0.4,0.4,0.9,0.6,1.5,0.6l0.1,0c0.5,0,0.9-0.3,1.3-0.7c1.1-1.1,1.7-3.4,1.7-6.1c0-0.5,0-0.9-0.1-1.4
				c-0.2-2.1-0.7-3.9-1.4-5.3c-0.3-0.7-0.7-1.2-1.2-1.6c-0.4-0.4-0.9-0.6-1.5-0.6l-0.1,0L143.5,329"/>
			<path id="path384" class="st18" d="M181.8,315.3l-0.2-9.3l3,8.7L181.8,315.3"/>
			<path id="path386" class="st18" d="M181.9,315.6l-0.2-0.1l0.1-0.2l0,0l2.8-0.5l-3-8.7l-0.1-0.4l0.1-0.2l0.2,0.1l3.3,9.4
				L181.9,315.6"/>
			<path id="path388" class="st0" d="M181.4,305.8l3.1,8.9l-2.6,0.5c-0.2,0-0.3,0.2-0.3,0.4c0,0.2,0.2,0.3,0.4,0.3l3.4-0.7l-3.4-9.6
				c-0.1-0.2-0.3-0.3-0.4-0.2C181.4,305.5,181.3,305.7,181.4,305.8"/>
			<path id="path390" class="st0" d="M162.4,302.2c0.5-1.4,1.9-2.4,3.3-2.9c0.7-0.2,1.5-0.4,2.2-0.4c0.7,0,1.5,0.1,2.2,0.2l-2.1,0.5
				c-0.7,0.2-1.3,0.3-2,0.6c-0.6,0.2-1.3,0.5-1.9,0.8C163.5,301.3,162.9,301.7,162.4,302.2"/>
			<path id="path392" class="st0" d="M186.2,296.8c1.1-1,2.7-1.3,4.2-1.2c0.7,0.1,1.5,0.3,2.2,0.6c0.7,0.3,1.3,0.7,1.9,1.2l-2.1-0.5
				c-0.7-0.1-1.4-0.3-2-0.3c-0.7-0.1-1.4-0.1-2,0C187.6,296.6,186.9,296.6,186.2,296.8"/>
			<path id="path394" class="st19" d="M168.8,328.1c-3.8,0-7.2-2.2-8.4-5.7c-1.6-4.5,1.1-9.6,6-11.2c1.1-0.4,2.1-0.5,3.2-0.5
				c3.8,0,7.2,2.2,8.4,5.7c1.6,4.5-1.1,9.6-6,11.2C170.9,327.9,169.8,328.1,168.8,328.1"/>
			<path id="path396" class="st19" d="M195,322.7c-2.6-0.8-4.7-2.7-5.6-5.3c-1.6-4.5,1.1-9.6,6-11.2c0.8-0.3,1.7-0.4,2.5-0.5l0,0.1
				c0.1,0.5,0.2,1,0.2,1.5c0,0.4,0,0.8,0,1.1C198,313.5,197,318.4,195,322.7"/>
			<path id="path398" class="st20" d="M195.2,322.8c-0.1,0-0.2,0-0.3-0.1c2-4.3,3-9.2,3-14.3c0-0.4,0-0.7,0-1.1
				C198.6,312.6,197.3,317.8,195.2,322.8"/>
			<path id="path400" class="st0" d="M171.2,308.5c0.3,1.6-0.3,3.1-1.4,3.4c-1.1,0.2-2.2-0.9-2.6-2.6c-0.3-1.6,0.3-3.1,1.4-3.4
				C169.7,305.7,170.8,306.8,171.2,308.5"/>
			<path id="path402" class="st0" d="M193.1,305c0.2,1.7-0.6,3.1-1.7,3.2c-1.1,0.1-2.1-1.1-2.3-2.8c-0.2-1.7,0.6-3.1,1.7-3.2
				C191.8,302.1,192.9,303.3,193.1,305"/>
			<path id="path404" class="st18" d="M183.7,323.1c-1.2,0-2.2-0.6-2.9-1.3c-0.6-0.7-1-1.4-1-1.9c0.2-0.1,0.6-0.2,1.2-0.4
				c0.8-0.3,1.8-0.6,2.9-0.8c1.1-0.2,2.1-0.4,2.9-0.4c0.5-0.1,0.9-0.1,1.1-0.1c0,0.1,0,0.2,0,0.4c0,0.7,0,1.6-0.4,2.4
				c-0.4,0.8-1,1.6-2.4,2C184.6,323.1,184.1,323.1,183.7,323.1"/>
			<path id="path406" class="st18" d="M183.7,323.4c-1.3,0-2.4-0.6-3.1-1.3c-0.7-0.7-1.1-1.6-1.1-2.2v-0.1l0.1,0
				c0,0,2.1-0.9,4.2-1.3c2.1-0.4,4.2-0.6,4.2-0.6l0,0l0.1,0v0.1l0,0.1c0,0.1,0,0.3,0,0.4c0,0.7,0,1.7-0.4,2.5
				c-0.4,0.9-1.1,1.7-2.6,2.1C184.6,323.3,184.1,323.4,183.7,323.4 M179.7,319.9c0,0.5,0.4,1.3,1,1.9c0.7,0.7,1.7,1.3,2.9,1.3
				c0.4,0,0.9-0.1,1.4-0.2c1.3-0.4,2-1.2,2.4-2c0.4-0.8,0.4-1.7,0.4-2.4c0-0.1,0-0.3,0-0.4c-0.2,0-0.6,0-1.1,0.1
				c-0.8,0.1-1.8,0.2-2.9,0.4c-1,0.2-2.1,0.5-2.9,0.8C180.4,319.7,179.9,319.9,179.7,319.9"/>
			<path id="path408" class="st0" d="M176.9,318.2c1.1,0.9,2.3,1.7,3.6,2c1.3,0.4,2.6,0.4,3.9,0.1c1.3-0.3,2.4-1,3.3-2
				c0.9-1,1.5-2.2,2-3.6l0,0l0,0l0,0c-0.2,1.4-0.8,2.8-1.6,3.9c-0.9,1.2-2.2,1.9-3.6,2.3c-1.4,0.3-2.9,0.3-4.2-0.3
				C179,320.2,177.8,319.3,176.9,318.2L176.9,318.2L176.9,318.2L176.9,318.2"/>
		</g>
	</g>
</g>
<path id="path410" class="st0" d="M300.8,425.4l-7.6,0.9l0.2,1.3l7.6-0.9L300.8,425.4z M285.6,427.3l-7.6,0.9l0.2,1.3l7.6-0.9
	L285.6,427.3z M270.4,429.2l-7.6,0.9l0.2,1.3l7.6-0.9L270.4,429.2z M255.2,431.1l-7.6,0.9l0.2,1.3l7.6-0.9L255.2,431.1z M239.9,433
	l-7.6,0.9l0.2,1.3l7.6-0.9L239.9,433z M224.7,434.9l-7.6,0.9l0.2,1.3l7.6-0.9L224.7,434.9z M209.5,436.8l-7.6,0.9l0.2,1.3l7.6-0.9
	L209.5,436.8z M194.3,438.7l-7.6,0.9l0.2,1.3l7.6-0.9L194.3,438.7z M179.1,440.6l-7.6,0.9l0.2,1.3l7.6-0.9L179.1,440.6z
	 M163.8,442.5l-7.6,0.9l0.2,1.3l7.6-0.9L163.8,442.5z M148.6,444.4l-7.6,0.9l0.2,1.3l7.6-0.9L148.6,444.4z M133.4,446.3l-7.6,0.9
	l0.2,1.3l7.6-0.9L133.4,446.3z M118.2,448.2l-7.6,0.9l0.2,1.3l7.6-0.9L118.2,448.2z M103,450.1l-7.6,0.9l0.2,1.3l7.6-0.9L103,450.1z
	 M87.7,452l-7.6,0.9l0.2,1.3l7.6-0.9L87.7,452z M72.5,453.9l-7.6,0.9l0.2,1.3l7.6-0.9L72.5,453.9z M57.3,455.8l-3.8,0.5l-0.3-2.5
	l-1.3,0.2l0.5,3.8l5.1-0.6L57.3,455.8z M52.2,446.1l-0.9-7.6l-1.3,0.2l0.9,7.6L52.2,446.1z M50.4,430.9l-0.9-7.6l-1.3,0.2l0.9,7.6
	L50.4,430.9z M48.5,415.7l-0.9-7.6l-1.3,0.2l0.9,7.6L48.5,415.7z M46.6,400.5l-0.9-7.6l-1.3,0.2l0.9,7.6L46.6,400.5z M44.7,385.2
	l-0.9-7.6l-1.3,0.2l0.9,7.6L44.7,385.2z M42.8,370l-0.9-7.6l-1.3,0.2l0.9,7.6L42.8,370z M40.9,354.8l-0.9-7.6l-1.3,0.2l0.9,7.6
	L40.9,354.8z M39,339.6L38,332l-1.3,0.2l0.9,7.6L39,339.6z M37.1,324.4l-0.9-7.6l-1.3,0.2l0.9,7.6L37.1,324.4z M35.2,309.1l-0.9-7.6
	l-1.3,0.2l0.9,7.6L35.2,309.1z M33.3,293.9l-0.9-7.6l-1.3,0.2l0.9,7.6L33.3,293.9z M31.4,278.7l-0.9-7.6l-1.3,0.2l0.9,7.6
	L31.4,278.7z M29.5,263.5l-0.9-7.6l-1.3,0.2l0.9,7.6L29.5,263.5z M34.9,255.2l7.6-0.9l-0.2-1.3l-7.6,0.9L34.9,255.2z M50.2,253.3
	l7.6-0.9l-0.2-1.3L50,252L50.2,253.3z M65.4,251.4l7.6-0.9l-0.2-1.3l-7.6,0.9L65.4,251.4z M80.6,249.5l7.6-0.9l-0.2-1.3l-7.6,0.9
	L80.6,249.5z M95.8,247.6l7.6-0.9l-0.2-1.3l-7.6,0.9L95.8,247.6z M111,245.7l7.6-0.9l-0.2-1.3l-7.6,0.9L111,245.7z M126.3,243.8
	l7.6-0.9l-0.2-1.3l-7.6,0.9L126.3,243.8z M141.5,241.9l7.6-0.9l-0.2-1.3l-7.6,0.9L141.5,241.9z M156.7,240l7.6-0.9l-0.2-1.3
	l-7.6,0.9L156.7,240z M171.9,238.1l7.6-0.9l-0.2-1.3l-7.6,0.9L171.9,238.1z M187.1,236.2l7.6-0.9l-0.2-1.3l-7.6,0.9L187.1,236.2z
	 M202.4,234.3l7.6-0.9l-0.2-1.3l-7.6,0.9L202.4,234.3z M217.6,232.4l7.6-0.9l-0.2-1.3l-7.6,0.9L217.6,232.4z M232.8,230.5l7.6-0.9
	l-0.2-1.3l-7.6,0.9L232.8,230.5z M248,228.6l7.6-0.9l-0.2-1.3l-7.6,0.9L248,228.6z M263.2,226.7l7.6-0.9l-0.2-1.3l-7.6,0.9
	L263.2,226.7z M278.5,224.8l7.6-0.9l-0.2-1.3l-7.6,0.9L278.5,224.8z M290.7,225.3l0.9,7.6l1.3-0.2l-0.9-7.6L290.7,225.3z
	 M292.5,240.5l0.9,7.6l1.3-0.2l-0.9-7.6L292.5,240.5z M294.4,255.7l0.9,7.6l1.3-0.2l-0.9-7.6L294.4,255.7z M296.3,270.9l0.9,7.6
	l1.3-0.2l-0.9-7.6L296.3,270.9z M298.2,286.2l0.9,7.6l1.3-0.2l-0.9-7.6L298.2,286.2z M300.1,301.4l0.9,7.6l1.3-0.2l-0.9-7.6
	L300.1,301.4z M302,316.6l0.9,7.6l1.3-0.2l-0.9-7.6L302,316.6z M303.9,331.8l0.9,7.6l1.3-0.2l-0.9-7.6L303.9,331.8z M305.8,347
	l0.9,7.6l1.3-0.2l-0.9-7.6L305.8,347z M307.7,362.3l0.9,7.6l1.3-0.2l-0.9-7.6L307.7,362.3z M309.6,377.5l0.9,7.6l1.3-0.2l-0.9-7.6
	L309.6,377.5z M311.5,392.7l0.9,7.6l1.3-0.2l-0.9-7.6L311.5,392.7z M313.4,407.9l0.9,7.6l1.3-0.2l-0.9-7.6L313.4,407.9z
	 M315.3,423.1l0.1,0.5l-7,0.9l0.2,1.3l8.3-1l-0.2-1.8L315.3,423.1"/>
<path id="path412" class="st11" d="M72.2,353.9c14.2,7.9,32,2.7,39.9-11.6c3.8-6.8,4.6-14.5,2.8-21.5l18-12.8l-23.5,1.6
	c-2.3-2.9-5.2-5.4-8.7-7.3c-14.2-7.9-32-2.7-39.9,11.6C52.9,328.1,58,346,72.2,353.9"/>
<path id="path414" class="st11" d="M72.2,353.9l-0.2,0.3c4.5,2.5,9.5,3.7,14.3,3.7c10.5,0,20.7-5.6,26.1-15.4
	c2.6-4.6,3.8-9.6,3.8-14.5c0-2.5-0.3-4.9-0.9-7.3l-0.4,0.1l0.2,0.3l19-13.6l-24.8,1.7l0,0.4l0.3-0.2c-2.3-2.9-5.3-5.5-8.8-7.4
	c-4.5-2.5-9.5-3.7-14.3-3.7c-10.5,0-20.7,5.6-26.1,15.4c-2.6,4.6-3.8,9.6-3.8,14.5c0,10.5,5.5,20.6,15.2,26L72.2,353.9l0.2-0.3
	c-9.5-5.3-14.9-15.1-14.9-25.4c0-4.8,1.2-9.7,3.7-14.2c5.3-9.6,15.3-15.1,25.5-15.1c4.7,0,9.5,1.2,14,3.6c3.4,1.9,6.3,4.4,8.6,7.2
	l0.1,0.1l22.4-1.6l-17.1,12.2l0.1,0.2c0.6,2.3,0.9,4.7,0.9,7.1c0,4.8-1.2,9.7-3.7,14.2c-5.3,9.6-15.3,15.1-25.5,15.1
	c-4.7,0-9.5-1.2-14-3.6L72.2,353.9"/>
<path id="path416" class="st16" d="M91.4,341.6c0.2,1.5-0.2,2.7-1.1,3.7c-0.9,0.9-2,1.4-3.2,1.6c-1.2,0.1-2.4-0.2-3.4-0.9
	c-1.1-0.7-1.7-1.8-1.8-3.4c-0.2-1.5,0.2-2.7,1.1-3.7c0.9-0.9,2-1.4,3.2-1.6c1.2-0.1,2.4,0.2,3.4,0.9C90.7,338.9,91.3,340,91.4,341.6
	z M84,316.1c-1.2,0.1-2.4,0.4-3.5,0.8c-1.1,0.4-2.2,1-3.5,1.9l-2.7-5.6c1.3-1,2.8-1.8,4.5-2.5c1.8-0.6,3.5-1.1,5.3-1.2
	c2.2-0.2,4-0.1,5.5,0.3c1.5,0.4,2.7,1.1,3.6,1.9c0.9,0.8,1.6,1.7,2,2.8c0.4,1,0.7,2,0.8,3c0.1,1,0,1.9-0.2,2.7
	c-0.2,0.8-0.5,1.6-0.9,2.4c-0.4,0.7-0.8,1.4-1.4,2.1c-0.5,0.7-1,1.3-1.5,1.9c-0.4,0.5-0.8,0.9-1.2,1.4c-0.4,0.5-0.8,1-1.1,1.6
	c-0.3,0.6-0.6,1.1-0.7,1.7c-0.2,0.6-0.2,1.2-0.2,1.8c0,0.1,0,0.3,0.1,0.6c0,0.3,0.1,0.5,0.1,0.7l-6.8,0.7c-0.1-0.3-0.2-0.7-0.2-1.1
	c-0.1-0.4-0.1-0.8-0.1-1.1c-0.1-1-0.1-1.8,0.1-2.6c0.2-0.8,0.4-1.6,0.7-2.3c0.3-0.7,0.7-1.4,1.2-2c0.5-0.6,0.9-1.3,1.4-1.9
	c0.7-0.9,1.4-1.7,1.9-2.6c0.6-0.8,0.8-1.8,0.7-2.8c-0.1-0.8-0.5-1.5-1.2-2C86.2,316.2,85.3,316,84,316.1"/>
<path id="path418" class="st11" d="M222.3,207.1h68.5c11.1,0,20.2,8.2,20.2,18.4v22.8c0,10.1-9,18.4-20.2,18.4h-39l-41.7,20.4
	l12.2-20.4c-11.1,0-20.2-8.2-20.2-18.4v-22.8C202.1,215.4,211.2,207.1,222.3,207.1"/>
<path id="path420" class="st11" d="M222.3,207.1v0.9h68.5c5.4,0,10.2,2,13.7,5.2c3.5,3.2,5.6,7.5,5.6,12.3v22.8
	c0,4.8-2.1,9.2-5.6,12.3c-3.5,3.2-8.3,5.2-13.7,5.2h-39.2L212.4,285l11.5-19.2h-1.5c-5.4,0-10.2-2-13.7-5.2
	c-3.5-3.2-5.6-7.5-5.6-12.3v-22.8c0-4.8,2.1-9.2,5.6-12.3c3.5-3.2,8.3-5.2,13.7-5.2V207.1v-0.9c-5.8,0-11,2.1-14.9,5.6
	c-3.8,3.5-6.2,8.3-6.2,13.6v22.8c0,5.3,2.4,10.2,6.2,13.6c3.8,3.5,9.1,5.6,14.9,5.6v-0.9l-0.8-0.5l-13.7,23l44.2-21.7h38.8
	c5.8,0,11-2.1,14.9-5.6c3.8-3.5,6.2-8.3,6.2-13.6v-22.8c0-5.3-2.4-10.2-6.2-13.6c-3.8-3.5-9.1-5.6-14.9-5.6h-68.5L222.3,207.1"/>
<path id="path422" class="st0" d="M294.3,225.3h-73.6"/>
<path id="path424" class="st16" d="M220.7,226.1h73.6v-1.6h-73.6V226.1z"/>
<path id="path426" class="st0" d="M294.3,234.1h-73.6"/>
<path id="path428" class="st16" d="M220.7,234.9h73.6v-1.6h-73.6V234.9z"/>
<path id="path430" class="st0" d="M294.3,241.5h-73.6"/>
<path id="path432" class="st16" d="M220.7,242.3h73.6v-1.6h-73.6V242.3z"/>
<path id="path434" class="st0" d="M294.3,250.3h-73.6"/>
<path id="path436" class="st16" d="M220.7,251.1h73.6v-1.6h-73.6V251.1z"/>
<path id="path438" class="st6" d="M405.6,80.5h-126c-20.5,0-37.1,12.4-37.1,27.7v34.3c0,15.3,16.6,27.7,37.1,27.7h71.7l82.1,42.9
	L405.6,170c20.5,0,37.1-12.4,37.1-27.7v-34.3C442.7,92.8,426.1,80.5,405.6,80.5"/>
<path id="path440" class="st6" d="M405.6,80.5V79h-126c-10.5,0-20.1,3.2-27.1,8.4c-7,5.2-11.5,12.5-11.5,20.7v34.3
	c0,8.2,4.5,15.5,11.5,20.7c7,5.2,16.6,8.4,27.1,8.4H351l86.7,45.3l-30.8-47.5l-1.2,0.8v1.5c10.5,0,20.1-3.2,27.1-8.4
	c7-5.2,11.5-12.5,11.5-20.7v-34.3c0-8.2-4.5-15.5-11.5-20.7c-7-5.2-16.6-8.4-27.1-8.4L405.6,80.5l0,1.5c10,0,18.9,3,25.4,7.8
	c3.2,2.4,5.8,5.2,7.6,8.3c1.8,3.1,2.7,6.5,2.7,10v34.3c0,3.6-1,6.9-2.7,10c-2.6,4.7-7.1,8.7-12.8,11.6c-5.7,2.9-12.6,4.6-20.1,4.6
	h-2.7l26.2,40.4l-77.5-40.4h-72c-10,0-18.9-3-25.4-7.8c-3.2-2.4-5.8-5.2-7.6-8.3c-1.8-3.1-2.7-6.5-2.7-10v-34.3c0-3.6,1-6.9,2.7-10
	c2.6-4.7,7.1-8.7,12.8-11.6c5.7-2.9,12.6-4.6,20.1-4.6h126L405.6,80.5"/>
<path id="path442" class="st1" d="M291,126.1c0,3.7-3,6.8-6.7,6.8c-3.7,0-6.7-3-6.7-6.8c0-3.7,3-6.8,6.7-6.8
	C288,119.3,291,122.3,291,126.1"/>
<path id="path444" class="st1" d="M291,126.1h-1.4c0,1.5-0.6,2.8-1.5,3.8c-1,1-2.2,1.6-3.7,1.6c-1.4,0-2.7-0.6-3.7-1.6
	c-0.9-1-1.5-2.3-1.5-3.8c0-1.5,0.6-2.8,1.5-3.8c1-1,2.2-1.6,3.7-1.6c1.4,0,2.7,0.6,3.7,1.6c1,1,1.5,2.3,1.5,3.8H291h1.4
	c0-2.3-0.9-4.3-2.4-5.8c-1.5-1.5-3.5-2.4-5.7-2.4c-2.2,0-4.3,0.9-5.7,2.4c-1.5,1.5-2.4,3.5-2.4,5.8s0.9,4.3,2.4,5.8
	c1.5,1.5,3.5,2.4,5.7,2.4c2.2,0,4.3-0.9,5.7-2.4c1.5-1.5,2.4-3.5,2.4-5.8L291,126.1"/>
<path id="path446" class="st1" d="M349.3,126.1c0,3.7-3,6.8-6.7,6.8c-3.7,0-6.7-3-6.7-6.8c0-3.7,3-6.8,6.7-6.8
	C346.3,119.3,349.3,122.3,349.3,126.1"/>
<path id="path448" class="st1" d="M349.3,126.1h-1.4c0,1.5-0.6,2.8-1.5,3.8c-1,1-2.2,1.6-3.7,1.6c-1.4,0-2.7-0.6-3.7-1.6
	c-0.9-1-1.5-2.3-1.5-3.8c0-1.5,0.6-2.8,1.5-3.8c1-1,2.2-1.6,3.7-1.6c1.4,0,2.7,0.6,3.7,1.6c1,1,1.5,2.3,1.5,3.8H349.3h1.4
	c0-2.3-0.9-4.3-2.4-5.8c-1.5-1.5-3.5-2.4-5.7-2.4c-2.2,0-4.3,0.9-5.7,2.4c-1.5,1.5-2.4,3.5-2.4,5.8s0.9,4.3,2.4,5.8
	c1.5,1.5,3.5,2.4,5.7,2.4c2.2,0,4.3-0.9,5.7-2.4c1.5-1.5,2.4-3.5,2.4-5.8L349.3,126.1"/>
<path id="path450" class="st1" d="M407.6,126.1c0,3.7-3,6.8-6.7,6.8c-3.7,0-6.7-3-6.7-6.8c0-3.7,3-6.8,6.7-6.8
	C404.6,119.3,407.6,122.3,407.6,126.1"/>
<path id="path452" class="st1" d="M407.6,126.1h-1.4c0,1.5-0.6,2.8-1.5,3.8c-1,1-2.2,1.6-3.7,1.6c-1.4,0-2.7-0.6-3.7-1.6
	c-0.9-1-1.5-2.3-1.5-3.8c0-1.5,0.6-2.8,1.5-3.8c1-1,2.2-1.6,3.7-1.6s2.7,0.6,3.7,1.6c0.9,1,1.5,2.3,1.5,3.8H407.6h1.4
	c0-2.3-0.9-4.3-2.4-5.8c-1.5-1.5-3.5-2.4-5.7-2.4c-2.2,0-4.3,0.9-5.7,2.4c-1.5,1.5-2.4,3.5-2.4,5.8s0.9,4.3,2.4,5.8
	c1.5,1.5,3.5,2.4,5.7,2.4c2.2,0,4.3-0.9,5.7-2.4c1.5-1.5,2.4-3.5,2.4-5.8L407.6,126.1"/>
<path id="path454" class="st6" d="M622.3,72.1c-29.7-2.9-55.9,17.6-58.7,45.8c-1.3,13.5,3,26.3,11.2,36.3L554,187l38.4-18.7
	c6.1,3.1,12.8,5.1,20,5.8c29.7,2.9,55.9-17.6,58.7-45.8C673.8,100.2,651.9,75,622.3,72.1"/>
<path id="path456" class="st6" d="M622.3,72.1l0.1-0.6c-1.9-0.2-3.8-0.3-5.6-0.3c-27.6,0-51.2,19.9-53.8,46.7
	c-0.2,1.6-0.2,3.2-0.2,4.8c0,11.9,4.3,23,11.5,32l0.5-0.4l-0.6-0.3l-22,34.7l40.4-19.7l-0.3-0.6l-0.3,0.6c6.1,3.1,13,5.2,20.3,5.9
	c1.9,0.2,3.8,0.3,5.6,0.3c27.6,0,51.2-19.9,53.8-46.7c0.2-1.6,0.2-3.2,0.2-4.8c0-26.6-21.3-49.4-49.6-52.1L622.3,72.1l-0.1,0.6
	c27.7,2.7,48.4,25,48.4,50.8c0,1.6-0.1,3.1-0.2,4.7c-2.5,26-25.4,45.5-52.5,45.5c-1.8,0-3.6-0.1-5.5-0.3c-7.1-0.7-13.8-2.7-19.8-5.7
	l-0.3-0.1l-36.6,17.8l19.8-31.3l-0.3-0.4c-7.1-8.7-11.3-19.6-11.3-31.1c0-1.5,0.1-3.1,0.2-4.7c2.5-26,25.4-45.5,52.5-45.5
	c1.8,0,3.6,0.1,5.5,0.3L622.3,72.1"/>
<path id="path458" class="st1" d="M593.6,129.4l15.2,16.4l41.6-38.5c0.9-0.9,1-2.3,0.1-3.3c-0.9-0.9-2.3-1-3.3-0.1L609,139.3
	l-12.1-13c-0.9-0.9-2.3-1-3.3-0.1C592.8,127,592.7,128.4,593.6,129.4"/>
<path id="path460" class="st6" d="M686.3,274.6l-4.5,18.1l-79.5-10.3c-0.2,0-0.3,0.3-0.1,0.4l73.8,31.5l-4.2,16.2
	c-2.5,9.6,3.9,19.6,14.3,22.3l85.4,22.2c10.4,2.7,20.9-2.9,23.4-12.5l14.5-55.9c2.5-9.6-3.9-19.6-14.3-22.3l-85.4-22.2
	C699.2,259.4,688.7,265,686.3,274.6"/>
<path id="path462" class="st6" d="M686.3,274.6l-1.3-0.3l-4.3,16.9l-78.3-10.1l-0.2,0c-0.4,0-0.9,0.2-1.1,0.5
	c-0.3,0.3-0.4,0.7-0.4,1c0,0.3,0.1,0.6,0.2,0.8c0.2,0.3,0.4,0.5,0.7,0.6l0,0l72.7,31.1l-3.9,15.1c-0.4,1.5-0.6,3-0.6,4.5
	c0,8.8,6.4,16.9,15.9,19.4l85.4,22.2c1.9,0.5,3.8,0.7,5.6,0.7c4.5,0,8.8-1.4,12.2-3.8c3.4-2.5,6-6,7.2-10.3l14.5-55.9
	c0.4-1.5,0.6-3,0.6-4.5c0-8.8-6.4-16.9-15.9-19.4L710,260.9c-1.9-0.5-3.8-0.7-5.6-0.7c-4.5,0-8.8,1.4-12.2,3.8
	c-3.4,2.5-6,6-7.2,10.3l0,0l0,0L686.3,274.6l1.3,0.3c1-3.7,3.2-6.7,6.1-8.8c3-2.1,6.7-3.3,10.6-3.3c1.6,0,3.3,0.2,5,0.6l85.4,22.2
	c8.3,2.2,13.9,9.3,13.9,16.8c0,1.3-0.2,2.6-0.5,3.9l-14.5,55.9c-1,3.7-3.2,6.7-6.1,8.8c-3,2.1-6.7,3.3-10.6,3.3
	c-1.6,0-3.3-0.2-5-0.6l-85.4-22.2c-8.3-2.2-13.9-9.3-13.9-16.8c0-1.3,0.2-2.6,0.5-3.9l4.5-17.3l-74.9-32l0,0l-0.4,1l1-0.6
	c-0.1-0.2-0.3-0.4-0.5-0.4l-0.4,1l1-0.6l-1,0.6h1.1c0-0.2-0.1-0.4-0.2-0.6l-1,0.6h1.1h-1.1l0.8,0.8c0.2-0.2,0.3-0.5,0.3-0.8h-1.1
	l0.8,0.8l-0.9-0.8v1.1c0.3,0,0.7-0.2,0.9-0.4l-0.9-0.8v1.1v-1.1l-0.1,1.1l0.1,0v-1.1l-0.1,1.1l80.7,10.4l4.8-19.2l0,0L686.3,274.6"
	/>
<path id="path464" class="st1" d="M766.7,347.5l0.4-1.7l-60.6-15.6l10.8-41.7l59,15.2L765,347L766.7,347.5l0.4-1.7L766.7,347.5
	l1.7,0.4l12-46.7l-65.6-16.9l-12.5,48.4l65.6,16.9l0.4-1.7L766.7,347.5"/>
<path id="path466" class="st1" d="M777.4,301l-38.5,24.3l0.9,1.5l1.5-0.9l-0.2-0.4l-23.6-39.9c-0.5-0.8-1.5-1.1-2.4-0.6
	c-0.8,0.5-1.1,1.5-0.6,2.4l23.6,39.9l0.2,0.4l0.9,1.5l40-25.2c0.8-0.5,1-1.6,0.5-2.4C779.2,300.7,778.2,300.5,777.4,301"/>
<path id="path468" class="st2" d="M243.8,513.2H87.1c-7.9,0-14.3-6.4-14.3-14.3v-15.5c0-7.9,6.4-14.3,14.3-14.3h156.7
	c7.9,0,14.3,6.4,14.3,14.3v15.5C258.1,506.8,251.7,513.2,243.8,513.2"/>
<path id="path470" class="st1" d="M99.8,479.6l2.8,5.7c0.2,0.4,0.6,0.7,1.1,0.8l6.3,0.9c1.2,0.2,1.7,1.7,0.8,2.5l-4.6,4.5
	c-0.3,0.3-0.5,0.8-0.4,1.3l1.1,6.3c0.2,1.2-1.1,2.1-2.1,1.6l-5.7-3c-0.4-0.2-0.9-0.2-1.4,0l-5.7,3c-1.1,0.6-2.3-0.4-2.1-1.6l1.1-6.3
	c0.1-0.5-0.1-1-0.4-1.3l-4.6-4.5c-0.9-0.9-0.4-2.3,0.8-2.5l6.3-0.9c0.5-0.1,0.9-0.4,1.1-0.8l2.8-5.7
	C97.7,478.5,99.3,478.5,99.8,479.6"/>
<path id="path472" class="st1" d="M133.6,479.6l2.8,5.7c0.2,0.4,0.6,0.7,1.1,0.8l6.3,0.9c1.2,0.2,1.7,1.7,0.8,2.5l-4.6,4.5
	c-0.3,0.3-0.5,0.8-0.4,1.3l1.1,6.3c0.2,1.2-1.1,2.1-2.1,1.6l-5.7-3c-0.4-0.2-0.9-0.2-1.4,0l-5.7,3c-1.1,0.6-2.3-0.4-2.1-1.6l1.1-6.3
	c0.1-0.5-0.1-1-0.4-1.3l-4.6-4.5c-0.9-0.9-0.4-2.3,0.8-2.5l6.3-0.9c0.5-0.1,0.9-0.4,1.1-0.8l2.8-5.7
	C131.5,478.5,133.1,478.5,133.6,479.6"/>
<path id="path474" class="st1" d="M167.8,479.6l2.8,5.7c0.2,0.4,0.6,0.7,1.1,0.8l6.3,0.9c1.2,0.2,1.7,1.7,0.8,2.5l-4.6,4.5
	c-0.3,0.3-0.5,0.8-0.4,1.3l1.1,6.3c0.2,1.2-1.1,2.1-2.1,1.6l-5.7-3c-0.4-0.2-0.9-0.2-1.4,0l-5.7,3c-1.1,0.6-2.3-0.4-2.1-1.6l1.1-6.3
	c0.1-0.5-0.1-1-0.4-1.3l-4.6-4.5c-0.9-0.9-0.4-2.3,0.8-2.5l6.3-0.9c0.5-0.1,0.9-0.4,1.1-0.8l2.8-5.7
	C165.7,478.5,167.3,478.5,167.8,479.6"/>
<path id="path476" class="st1" d="M201.6,479.6l2.8,5.7c0.2,0.4,0.6,0.7,1.1,0.8l6.3,0.9c1.2,0.2,1.7,1.7,0.8,2.5l-4.6,4.5
	c-0.3,0.3-0.5,0.8-0.4,1.3l1.1,6.3c0.2,1.2-1.1,2.1-2.1,1.6l-5.7-3c-0.4-0.2-0.9-0.2-1.4,0l-5.7,3c-1.1,0.6-2.3-0.4-2.1-1.6l1.1-6.3
	c0.1-0.5-0.1-1-0.4-1.3l-4.6-4.5c-0.9-0.9-0.4-2.3,0.8-2.5l6.3-0.9c0.5-0.1,0.9-0.4,1.1-0.8l2.8-5.7
	C199.5,478.5,201.1,478.5,201.6,479.6"/>
<path id="path478" class="st1" d="M233.7,479.6l2.8,5.7c0.2,0.4,0.6,0.7,1.1,0.8l6.3,0.9c1.2,0.2,1.7,1.7,0.8,2.5l-4.6,4.5
	c-0.3,0.3-0.5,0.8-0.4,1.3l1.1,6.3c0.2,1.2-1.1,2.1-2.1,1.6l-5.7-3c-0.4-0.2-0.9-0.2-1.4,0l-5.7,3c-1.1,0.6-2.3-0.4-2.1-1.6l1.1-6.3
	c0.1-0.5-0.1-1-0.4-1.3l-4.6-4.5c-0.9-0.9-0.4-2.3,0.8-2.5l6.3-0.9c0.5-0.1,0.9-0.4,1.1-0.8l2.8-5.7
	C231.6,478.5,233.2,478.5,233.7,479.6"/>
<g id="g480">
	<g>
		<defs>
			<polyline id="SVGID_00000068651806660970788430000015127229006773957045_" points="680.4,238.9 940.2,271.3 965,72.3 705.2,39.9 
				680.4,238.9 			"/>
		</defs>
		<clipPath id="SVGID_00000115495863367259843040000017948017691322677407_">
			<use xlink:href="#SVGID_00000068651806660970788430000015127229006773957045_"  style="overflow:visible;"/>
		</clipPath>
		<g id="g482" style="clip-path:url(#SVGID_00000115495863367259843040000017948017691322677407_);">
			<g>
				<defs>
					<polyline id="SVGID_00000109708226607760157150000012831915097191504560_" points="680.4,238.9 940.2,271.3 965,72.3 
						705.2,39.9 680.4,238.9 					"/>
				</defs>
				<clipPath id="SVGID_00000005961912925156009860000000136163962774343855_">
					<use xlink:href="#SVGID_00000109708226607760157150000012831915097191504560_"  style="overflow:visible;"/>
				</clipPath>
				<g id="g488" style="clip-path:url(#SVGID_00000005961912925156009860000000136163962774343855_);">
					<path id="path494" class="st16" d="M680.4,238.9l259.8,32.4l24.8-199L705.2,39.9L680.4,238.9"/>
					<path id="path496" class="st16" d="M680.6,235l-0.5,4.2l4.2,0.5l0.1-0.6l-3.6-0.5l0.5-3.6L680.6,235"/>
					<path id="path498" class="st16" d="M692.4,240.7l8.1,1l0.1-0.6l-8.1-1L692.4,240.7z M708.7,242.8l8.1,1l0.1-0.6l-8.1-1
						L708.7,242.8z M724.9,244.8l8.1,1l0.1-0.6l-8.1-1L724.9,244.8z M741.2,246.8l8.1,1l0.1-0.6l-8.1-1L741.2,246.8z M757.4,248.9
						l8.1,1l0.1-0.6l-8.1-1L757.4,248.9z M773.7,250.9l8.1,1l0.1-0.6l-8.1-1L773.7,250.9z M789.9,252.9l8.1,1l0.1-0.6l-8.1-1
						L789.9,252.9z M806.2,254.9l8.1,1l0.1-0.6l-8.1-1L806.2,254.9z M822.4,257l8.1,1l0.1-0.6l-8.1-1L822.4,257z M838.7,259l8.1,1
						l0.1-0.6l-8.1-1L838.7,259z M855,261l8.1,1l0.1-0.6l-8.1-1L855,261z M871.2,263l8.1,1l0.1-0.6l-8.1-1L871.2,263z M887.5,265.1
						l8.1,1l0.1-0.6l-8.1-1L887.5,265.1z M903.7,267.1l8.1,1l0.1-0.6l-8.1-1L903.7,267.1z M920,269.1l8.1,1l0.1-0.6l-8.1-1
						L920,269.1z"/>
					<path id="path500" class="st16" d="M936.2,271.2l4.2,0.5l0.5-4.2l-0.6-0.1l-0.5,3.6l-3.6-0.5L936.2,271.2"/>
					<path id="path502" class="st16" d="M941.9,259.8l1-7.6l-0.6-0.1l-1,7.6L941.9,259.8z M943.9,244.5l1-7.6l-0.6-0.1l-1,7.6
						L943.9,244.5z M945.8,229.2l1-7.6l-0.6-0.1l-1,7.6L945.8,229.2z M947.7,213.9l1-7.6l-0.6-0.1l-1,7.6L947.7,213.9z M949.6,198.6
						l1-7.6l-0.6-0.1l-1,7.6L949.6,198.6z M951.5,183.3l1-7.6l-0.6-0.1l-1,7.6L951.5,183.3z M953.4,168l1-7.6l-0.6-0.1l-1,7.6
						L953.4,168z M955.3,152.8l1-7.6l-0.6-0.1l-1,7.6L955.3,152.8z M957.2,137.5l1-7.6l-0.6-0.1l-1,7.6L957.2,137.5z M959.1,122.2
						l1-7.6l-0.6-0.1l-1,7.6L959.1,122.2z M961,106.9l1-7.6l-0.6-0.1l-1,7.6L961,106.9z M962.9,91.6l1-7.6l-0.6-0.1l-1,7.6"/>
					<path id="path504" class="st16" d="M964.8,76.3l0.5-4.2l-4.2-0.5l-0.1,0.6l3.6,0.5l-0.5,3.6L964.8,76.3"/>
					<path id="path506" class="st16" d="M953,70.5l-8.1-1l-0.1,0.6l8.1,1L953,70.5z M936.7,68.5l-8.1-1l-0.1,0.6l8.1,1L936.7,68.5z
						 M920.5,66.5l-8.1-1l-0.1,0.6l8.1,1L920.5,66.5z M904.2,64.4l-8.1-1L896,64l8.1,1L904.2,64.4z M888,62.4l-8.1-1l-0.1,0.6l8.1,1
						L888,62.4z M871.7,60.4l-8.1-1l-0.1,0.6l8.1,1L871.7,60.4z M855.5,58.4l-8.1-1l-0.1,0.6l8.1,1L855.5,58.4z M839.2,56.3l-8.1-1
						l-0.1,0.6l8.1,1L839.2,56.3z M823,54.3l-8.1-1l-0.1,0.6l8.1,1L823,54.3z M806.7,52.3l-8.1-1l-0.1,0.6l8.1,1L806.7,52.3z
						 M790.5,50.2l-8.1-1l-0.1,0.6l8.1,1L790.5,50.2z M774.2,48.2l-8.1-1l-0.1,0.6l8.1,1L774.2,48.2z M757.9,46.2l-8.1-1l-0.1,0.6
						l8.1,1L757.9,46.2z M741.7,44.2l-8.1-1l-0.1,0.6l8.1,1L741.7,44.2z M725.4,42.1l-8.1-1l-0.1,0.6l8.1,1L725.4,42.1z"/>
					<path id="path508" class="st16" d="M709.2,40.1l-4.2-0.5l-0.5,4.2l0.6,0.1l0.5-3.6l3.6,0.5L709.2,40.1"/>
					<path id="path510" class="st16" d="M703.5,51.5l-1,7.6l0.6,0.1l1-7.6L703.5,51.5z M701.6,66.8l-1,7.6l0.6,0.1l1-7.6L701.6,66.8
						z M699.6,82l-1,7.6l0.6,0.1l1-7.6L699.6,82z M697.7,97.3l-1,7.6l0.6,0.1l1-7.6L697.7,97.3z M695.8,112.6l-1,7.6l0.6,0.1l1-7.6
						L695.8,112.6z M693.9,127.9l-1,7.6l0.6,0.1l1-7.6L693.9,127.9z M692,143.2l-1,7.6l0.6,0.1l1-7.6L692,143.2z M690.1,158.5
						l-1,7.6l0.6,0.1l1-7.6L690.1,158.5z M688.2,173.8l-1,7.6l0.6,0.1l1-7.6L688.2,173.8z M686.3,189.1l-1,7.6l0.6,0.1l1-7.6
						L686.3,189.1z M684.4,204.4l-1,7.6l0.6,0.1l1-7.6L684.4,204.4z M682.5,219.7l-1,7.6l0.6,0.1l1-7.6"/>
					<path id="path512" class="st1" d="M843.7,15c-2.7,18.1-1.6,37,4.1,54.5c5.6,17.1,16,32.6,30.8,43.1
						c14.7,10.3,32.1,15.6,48.8,21.6c16.6,6,33.7,12.9,45.7,26.5c12.1,13.7,17.4,32.5,31.2,44.8c1.6,1.4,3.3,2.7,5.1,3.9
						c0.9,0.6,1.7-0.8,0.8-1.4c-15.4-10.3-21.4-29-31.9-43.4c-10.4-14.1-25.6-22.4-41.6-28.7c-16.5-6.4-33.9-11-49.4-19.7
						c-7.9-4.4-15-9.9-21-16.7c-5.9-6.7-10.7-14.5-14.2-22.8c-7.2-16.9-9.5-35.8-7.8-54.1c0.2-2.4,0.5-4.7,0.9-7.1
						C845.5,14.4,843.9,13.9,843.7,15"/>
					<path id="path514" class="st1" d="M705.2,43.5c0.6,17.7,1.6,36.8,13.5,51.1c10.5,12.6,26.4,18.8,40.5,26.5
						c7.4,4,14.5,8.6,20.7,14.5c6.4,6,11.8,13.1,16.2,20.7c9.3,16,14.2,34.1,15.9,52.4c2.1,21.9-0.1,44-2.8,65.8
						c-0.3,2.7-0.7,5.4-1,8.1c-0.1,1.1,1.5,1.1,1.7,0c2.8-21.8,5.5-43.8,4.4-65.8c-0.9-18.5-4.6-37-12.7-53.8
						c-7.4-15.4-18.3-28.9-32.8-38.2c-13.9-8.9-30-14.3-42.6-25.1c-6.7-5.8-11.7-13-14.6-21.4c-3.1-8.9-3.9-18.4-4.4-27.8
						c-0.1-2.3-0.2-4.6-0.3-6.9C706.8,42.4,705.1,42.4,705.2,43.5"/>
					<path id="path516" class="st1" d="M662.8,96.7c25,17,52.1,35.6,63.3,65.1c2.7,7.1,4.2,14.4,4.5,22c0.3,8.7-0.8,17.3-2,25.9
						c-2.2,15.7-5,32.2,0,47.7c4.2,12.9,14.8,24.7,28.8,26.2c1.1,0.1,1.1-1.6,0-1.7c-13.1-1.4-23.1-12.6-27.1-24.5
						c-5.3-15.8-2.2-32.8,0.1-48.8c1.2-8.2,2.2-16.5,1.9-24.7c-0.3-7.3-1.7-14.5-4.2-21.4c-4.8-13.3-13.2-25-23.1-35
						c-12.3-12.4-26.9-22.3-41.4-32.1C662.7,94.7,661.9,96.1,662.8,96.7"/>
					<path id="path518" class="st1" d="M888.7,44.5c-1.3,10.8-1.6,22.6,4.1,32.3c4.8,8.2,13,13.2,21.5,16.9
						c8.9,3.9,18.4,6.7,26.9,11.5c9,5,16.9,11.8,23.3,19.8c7.3,9.1,12.5,19.7,15.2,30.9c0.3,1,1.9,0.6,1.6-0.4
						c-4.7-19.4-16.8-36.6-33.2-47.9c-8.1-5.6-17.2-9-26.4-12.6c-8.8-3.5-18.1-7.3-24.4-14.6c-8.6-9.9-8.5-23.6-7.1-35.9
						C890.5,43.5,888.9,43.5,888.7,44.5"/>
					<path id="path520" class="st1" d="M800.2,50c-2.8,21.1-5.5,44.1,5.8,63.3c8.7,14.9,23.6,24.7,37.6,34.1
						c7.4,5,14.9,10,21.7,15.8c7.3,6.3,13.4,13.5,18.1,21.9c10.4,18.2,14.6,39,23.8,57.7c8,16.1,20.5,32.2,38.6,37.2
						c2.1,0.6,4.2,1,6.3,1.2c1.1,0.1,1.1-1.5,0-1.7c-19.1-2.4-32.8-17.9-41.5-33.9c-9.7-17.8-13.9-38.1-23-56.2
						c-4.3-8.6-9.7-16.5-16.5-23.2c-6.1-6-13-11-20-15.9c-14-9.7-29.5-18.6-39.9-32.3c-6-7.9-9.6-17.1-11.1-26.9
						c-1.6-11-0.7-22.1,0.6-33.1c0.3-2.7,0.7-5.4,1-8.2C802,48.9,800.3,48.9,800.2,50"/>
					<path id="path522" class="st1" d="M682.2,145.9c10.2,10.2,17.2,23.3,20.1,37.4c3.2,15.9,1.2,32.2-0.6,48.1c-1,9-2,18-2.1,27.1
						c0,1.1,1.7,1.1,1.7,0c0.2-16.6,3.4-33,4.3-49.7c0.8-15.4-1-30.6-8-44.5c-3.6-7.2-8.4-13.8-14.1-19.6
						C682.6,144,681.4,145.1,682.2,145.9"/>
				</g>
			</g>
		</g>
	</g>
</g>
<g id="g524">
	<g>
		<defs>
			<polyline id="SVGID_00000062888011506432646670000010124212001414695818_" points="680.4,238.9 940.2,271.3 965,72.3 705.2,39.9 
				680.4,238.9 			"/>
		</defs>
		<clipPath id="SVGID_00000041974123584938871970000010306634977260867001_">
			<use xlink:href="#SVGID_00000062888011506432646670000010124212001414695818_"  style="overflow:visible;"/>
		</clipPath>
		<g id="g526" style="clip-path:url(#SVGID_00000041974123584938871970000010306634977260867001_);">
			<path id="path532" class="st1" d="M848.6,169.9L849,144l-20-2.8l-4.2,29.5l-23.2,0.2l41.2,30.9l33.3-31.2L848.6,169.9"/>
			<path id="path534" class="st0" d="M848.6,169.9l0.5,0l0.4-26.4l-21-2.9l-4.3,29.6l-24.3,0.2l42.8,32.2l34.6-32.4l-28.7-0.8
				L848.6,169.9l0.5,0L848.6,169.9l0,0.5l26.1,0.7l-32,30l-39.6-29.7l22.1-0.2l4.2-29.4l19.1,2.6l-0.4,26l0.5,0L848.6,169.9"/>
			<path id="path536" class="st1" d="M789.7,146.8c0,0,19-7.6,24.5-8.7c6.1-1.3,3.9-4.3-3.5-6.4c0,0,13.2-3.7,16.7-5.1
				c5.6-2.1,2.7-6.6-13.3-1.9c0,0,18.1-4.6,16.8-8.5c-1.1-3.3-15.9,3.7-18.8,4.6c0,0,15.7-7.9,13.7-10.6c-2-2.7-16.5,5.9-16.5,5.9
				s12.5-9.9,7.8-10.9c-3.2-0.7-37.9,24-37.9,24L789.7,146.8"/>
			<path id="path538" class="st0" d="M789.7,146.8l0.2,0.5c0,0,1.2-0.5,3.1-1.2c2.8-1.1,7.1-2.7,11.3-4.2c4.1-1.5,8.1-2.8,10.1-3.2
				c1.2-0.3,2.2-0.6,2.8-1c0.7-0.4,1.1-1,1.1-1.6c0-0.5-0.2-1-0.6-1.4c-1.1-1.2-3.4-2.3-6.8-3.3l-0.1,0.5l0.1,0.5c0,0,3.3-0.9,7-2
				c3.7-1.1,7.9-2.4,9.7-3c0.9-0.3,1.6-0.7,2.1-1.2c0.5-0.4,0.8-1,0.8-1.5c0-0.4-0.1-0.7-0.4-1c-0.4-0.4-0.9-0.7-1.7-0.9
				c-0.7-0.2-1.7-0.3-2.8-0.3c-2.7,0-6.5,0.6-11.6,2.1l0.3,0.9c0,0,4.2-1.1,8.5-2.6c2.1-0.8,4.3-1.7,5.9-2.6c0.8-0.5,1.5-1,2-1.5
				c0.5-0.5,0.9-1.1,0.9-1.8c0-0.2,0-0.4-0.1-0.6c-0.2-0.4-0.5-0.8-0.9-0.9c-0.4-0.2-0.9-0.2-1.4-0.2c-2.3,0-6,1.2-9.4,2.5
				c-1.7,0.6-3.3,1.3-4.7,1.8c-1.4,0.5-2.4,1-3,1.1l0.1,0.5l0.2,0.4c0,0,3.5-1.8,7-3.9c1.7-1.1,3.5-2.2,4.8-3.4
				c0.7-0.6,1.2-1.1,1.6-1.6c0.4-0.5,0.7-1,0.7-1.6c0-0.3-0.1-0.6-0.3-0.8v0c-0.2-0.3-0.5-0.5-0.8-0.6c-0.3-0.1-0.6-0.1-1-0.1
				c-1.2,0-2.7,0.4-4.3,1c-4.9,1.8-11,5.4-11.1,5.4l0.2,0.4l0.3,0.4c0,0,2.2-1.8,4.5-3.9c1.1-1.1,2.2-2.2,3.1-3.3
				c0.4-0.5,0.8-1.1,1.1-1.6c0.3-0.5,0.4-1,0.4-1.5c0-0.4-0.1-0.7-0.4-1c-0.3-0.3-0.6-0.4-1-0.5l-0.2,0c-0.4,0-0.8,0.1-1.2,0.3
				c-1.8,0.7-5,2.5-8.7,4.9c-11.3,7.1-28,19-28,19l-0.4,0.3l10.8,18.2l0.4-0.2L789.7,146.8l0.4-0.3l-10.4-17.4l-0.4,0.3l0.3,0.4
				c0,0,0.5-0.4,1.5-1c3.3-2.3,11.5-8,19.3-13.2c3.9-2.6,7.7-5,10.8-6.8c1.5-0.9,2.8-1.6,3.9-2.1c0.5-0.3,1-0.4,1.3-0.6
				c0.4-0.1,0.6-0.2,0.7-0.2l0,0c0.3,0.1,0.5,0.2,0.5,0.2c0.1,0.1,0.1,0.2,0.1,0.3c0,0.2-0.1,0.6-0.3,1c-0.8,1.5-2.9,3.6-4.8,5.4
				c-0.9,0.9-1.8,1.6-2.5,2.2c-0.7,0.6-1.1,0.9-1.1,0.9l0.6,0.8c0,0,0.7-0.4,1.8-1c1.6-0.9,4.2-2.2,6.7-3.4c2.5-1.1,5-2,6.4-2
				c0.3,0,0.5,0,0.7,0.1c0.2,0.1,0.3,0.1,0.3,0.2l0,0l0.1,0.2c0,0.2-0.1,0.6-0.5,1c-0.6,0.8-1.7,1.7-3.1,2.7c-2,1.5-4.5,2.9-6.5,4.1
				c-1,0.6-1.9,1-2.5,1.4c-0.6,0.3-1,0.5-1,0.5l0.4,0.9c0.6-0.2,1.7-0.6,3.1-1.2c2-0.8,4.7-1.9,7.2-2.7c2.5-0.9,5-1.5,6.5-1.5
				c0.5,0,0.8,0.1,1.1,0.2c0.2,0.1,0.3,0.2,0.4,0.4l0,0.3c0,0.3-0.2,0.7-0.6,1.1c-0.7,0.8-2.1,1.6-3.7,2.3c-2.5,1.2-5.5,2.2-7.9,2.9
				c-1.2,0.4-2.3,0.7-3,0.9c-0.8,0.2-1.2,0.3-1.2,0.3l0.1,0.5l0.1,0.5c5.1-1.5,8.8-2.1,11.3-2.1c1.5,0,2.5,0.2,3.1,0.5
				c0.3,0.1,0.5,0.3,0.6,0.4c0.1,0.1,0.1,0.2,0.1,0.3c0,0.2-0.1,0.5-0.5,0.8c-0.4,0.3-1,0.7-1.8,1c-1.7,0.7-5.9,1.9-9.7,3
				c-1.9,0.5-3.6,1.1-4.9,1.4c-1.3,0.4-2.1,0.6-2.1,0.6l-1.7,0.5l1.7,0.5c2.2,0.6,3.9,1.3,5.1,2c0.6,0.3,1,0.7,1.3,1
				c0.3,0.3,0.4,0.6,0.4,0.7c0,0.2-0.1,0.5-0.6,0.8c-0.5,0.3-1.3,0.6-2.5,0.9c-2.8,0.6-8.9,2.8-14.4,4.8c-5.5,2-10.2,3.9-10.2,3.9
				L789.7,146.8l0.4-0.3L789.7,146.8"/>
			<path id="path540" class="st24" d="M815.5,127.1l-7-12.4"/>
			<path id="path542" class="st0" d="M816,126.9l-7-12.4l-1,0.6l7,12.4"/>
			<path id="path544" class="st0" d="M810.8,131.3c0,0-0.8-1.3-2.1-2.6c-1.3-1.3-3.3-2.7-5.7-2.7c-0.7,0-1.4,0.1-2.1,0.3l0.4,1.1
				c0.6-0.2,1.2-0.3,1.7-0.3c2,0,3.7,1.1,4.9,2.4c0.6,0.6,1.1,1.2,1.4,1.7c0.2,0.2,0.3,0.4,0.4,0.5l0.1,0.1l0,0L810.8,131.3"/>
			<path id="path546" class="st2" d="M792.4,125l8.2,14.5c0.5,0.8,1.5,1.1,2.3,0.6l24.5-14.3c0.8-0.5,1.1-1.5,0.6-2.3l-8.2-14.5
				c-0.5-0.8-1.5-1.1-2.3-0.6l-24.5,14.3C792.3,123.2,792,124.2,792.4,125"/>
			<path id="path548" class="st2" d="M792.4,125l-0.5,0.3l8.2,14.5c0.4,0.7,1.2,1.1,1.9,1.1c0.4,0,0.8-0.1,1.1-0.3l24.5-14.3
				c0.7-0.4,1.1-1.2,1.1-2c0-0.4-0.1-0.8-0.3-1.1l-8.2-14.5c-0.4-0.7-1.2-1.1-1.9-1.1c-0.4,0-0.8,0.1-1.1,0.3l-24.5,14.3
				c-0.7,0.4-1.1,1.2-1.1,2c0,0.4,0.1,0.8,0.3,1.1v0L792.4,125l0.5-0.3c-0.1-0.2-0.1-0.4-0.1-0.6c0-0.4,0.2-0.8,0.6-1l24.5-14.3
				c0.2-0.1,0.4-0.1,0.5-0.1c0.4,0,0.7,0.2,1,0.6l8.2,14.5c0.1,0.2,0.1,0.4,0.1,0.6c0,0.4-0.2,0.8-0.6,1l-24.5,14.3
				c-0.2,0.1-0.4,0.1-0.5,0.1c-0.4,0-0.7-0.2-1-0.6l-8.2-14.5v0L792.4,125"/>
			<path id="path550" class="st0" d="M795.8,123.3l8,14l22.1-12.9l-8-14L795.8,123.3"/>
			<path id="path552" class="st0" d="M795.8,123.3l-0.5,0.3l8.3,14.5l23.1-13.5l-8.5-15l-23.1,13.5l0.3,0.5L795.8,123.3l0.3,0.5
				l21.6-12.6l7.4,13L804,136.6l-7.7-13.5L795.8,123.3l0.3,0.5L795.8,123.3"/>
			<path id="path554" class="st6" d="M799.4,150.3l-32.6,18.8l54.8,1.5l-21.4,47.9c0,0-66.6,2-88.7-31.1
				c-22.1-33.1,69.1-66.6,69.1-66.6L799.4,150.3"/>
			<path id="path556" class="st6" d="M799.4,150.3l-0.3-0.4L765,169.6l55.9,1.5l-21.1,47.2l0.5,0.2l0-0.5c0,0-0.8,0-2.2,0
				c-5.9,0-22.5-0.4-40.1-4.5c-17.6-4.1-36.2-11.8-45.9-26.4c-2.3-3.5-3.4-7-3.4-10.4c0-7.1,4.4-14.1,11.2-20.7
				c10.1-9.9,25.4-18.6,38.2-24.8c6.4-3.1,12.1-5.6,16.2-7.3c2.1-0.9,3.7-1.5,4.9-2c1.2-0.4,1.8-0.7,1.8-0.7l-0.2-0.5l-0.4,0.3
				l18.7,29.5L799.4,150.3l-0.3-0.4L799.4,150.3l0.4-0.3l-18.9-29.8l-0.4,0.1c0,0-18.2,6.7-36.4,17c-9.1,5.2-18.2,11.3-25.1,17.9
				c-6.8,6.7-11.5,13.9-11.5,21.4c0,3.7,1.1,7.3,3.5,11c10,14.9,28.8,22.7,46.5,26.8c17.7,4.1,34.5,4.5,40.4,4.5c1.5,0,2.3,0,2.3,0
				l0.3,0l21.8-48.9l-53.8-1.5l31.5-18.2l-0.3-0.4L799.4,150.3"/>
			<path id="path558" class="st1" d="M805.2,122.7c-0.3-21,14.1-38.2,32.2-38.4c18.1-0.3,33,16.5,33.3,37.5c0,0.9,0,1.9-0.1,2.8
				c4.4-2.5,9.4-2.3,12.1,0.8c3.2,3.7,2,10.1-2.8,14.3c-4.4,3.9-10.2,4.5-13.7,1.8c-5.6,11.1-15.9,18.6-27.7,18.8
				C820.4,160.5,805.5,143.7,805.2,122.7"/>
			<path id="path560" class="st0" d="M805.2,122.7l0.5,0c0-0.2,0-0.4,0-0.6c0-10.2,3.5-19.5,9.3-26.2c5.7-6.7,13.6-10.9,22.4-11
				c0.1,0,0.3,0,0.4,0c8.8,0,16.8,4.1,22.6,10.8c5.9,6.7,9.5,15.9,9.7,26.2v0c0,0.2,0,0.3,0,0.5c0,0.8,0,1.5-0.1,2.3l0,1l0.8-0.5
				c1.9-1.1,4-1.6,5.8-1.6c2.2,0,4.2,0.8,5.6,2.3c1.1,1.3,1.7,2.9,1.7,4.7c0,3-1.5,6.3-4.4,8.9c-2.5,2.2-5.5,3.3-8.2,3.3
				c-1.8,0-3.5-0.5-4.8-1.5l-0.5-0.4l-0.3,0.6c-5.5,10.9-15.6,18.3-27.3,18.5c-0.1,0-0.3,0-0.4,0c-8.8,0-16.8-4.1-22.6-10.8
				c-5.9-6.7-9.5-15.9-9.7-26.2L805.2,122.7l-0.5,0c0.2,10.5,3.9,20,10,26.9c6,6.9,14.3,11.1,23.4,11.1c0.1,0,0.3,0,0.4,0
				c12.1-0.2,22.6-7.8,28.2-19l-0.5-0.2l-0.3,0.4c1.5,1.2,3.4,1.8,5.5,1.8c3,0,6.2-1.2,8.9-3.6c3.1-2.7,4.8-6.3,4.8-9.7
				c0-2-0.6-3.9-1.9-5.4c-1.6-1.8-3.9-2.7-6.4-2.7c-2.1,0-4.3,0.6-6.4,1.8l0.3,0.5l0.5,0c0-0.8,0.1-1.5,0.1-2.3c0-0.2,0-0.3,0-0.5v0
				v0c-0.2-10.5-3.9-20-10-26.9c-6-6.9-14.3-11.1-23.4-11.1c-0.1,0-0.3,0-0.4,0c-9.1,0.1-17.3,4.5-23.2,11.4
				c-5.9,6.9-9.5,16.4-9.5,26.9c0,0.2,0,0.4,0,0.7L805.2,122.7"/>
			<path id="path562" class="st0" d="M879.5,128.9l-11,7l0.6,0.9l11-7"/>
			<path id="path564" class="st25" d="M828.7,135.1l1.4-10.4l1.9,10.4L828.7,135.1"/>
			<path id="path566" class="st25" d="M828.3,135.4l1.5-11.2l0,0l0.2-0.1l0.1,0.2l-0.1,0.5l-1.4,10.4l3.3,0h0l0.2,0.2l-0.2,0.2
				L828.3,135.4"/>
			<path id="path568" class="st0" d="M829.6,124.3l-1.6,11.5l3.9,0c0.2,0,0.4-0.2,0.4-0.4c0-0.2-0.2-0.4-0.4-0.4l-3,0l1.4-10.6
				c0-0.2-0.1-0.4-0.3-0.4S829.6,124.1,829.6,124.3"/>
			<path id="path570" class="st26" d="M847.2,148.9c-5.8,0-10.5-4.4-10.6-9.8c-0.1-5.5,4.6-9.9,10.5-10c0,0,0.1,0,0.1,0
				c5.8,0,10.5,4.4,10.6,9.8c0.1,5.5-4.6,9.9-10.5,10C847.2,148.9,847.2,148.9,847.2,148.9"/>
			<path id="path572" class="st26" d="M815.4,148.9c-4-4.6-7-10.3-8.5-16.8c1.9-1.8,4.5-2.9,7.4-2.9c0,0,0.1,0,0.1,0
				c5.8,0,10.5,4.4,10.6,9.8C825,144.1,820.8,148.4,815.4,148.9"/>
			<path id="path574" class="st0" d="M815.4,148.9c-1-1.2-2.1-2.4-3.2-3.5c-0.6-1.1-1.2-2.1-1.7-3.2c-1.2-2.7-2-5.7-3.8-8.1
				c-0.1-0.5-0.2-1-0.3-1.4c0.2-0.2,0.4-0.4,0.5-0.5C808.4,138.5,811.4,144.3,815.4,148.9C815.4,148.9,815.4,148.9,815.4,148.9"/>
			<path id="path576" class="st0" d="M843.3,125.9c0,1.9,1.1,3.4,2.3,3.4c1.3,0,2.3-1.6,2.3-3.5c0-1.9-1.1-3.4-2.3-3.4
				C844.3,122.4,843.3,124,843.3,125.9"/>
			<path id="path578" class="st0" d="M814.7,127c0,1.9,1.1,3.4,2.3,3.4c1.3,0,2.3-1.6,2.3-3.5c0-1.9-1.1-3.4-2.3-3.4
				C815.7,123.5,814.7,125.1,814.7,127"/>
			<path id="path580" class="st0" d="M810.7,118c0.2-1.3,0.8-2.2,1.5-2.9c0.8-0.7,1.7-1.2,2.7-1.5c1-0.2,2.1-0.2,3.2,0.2
				c1,0.3,1.9,1.1,2.5,2.2l0,0.1l0,0.2l-0.1,0l-1.3-0.2c-0.4-0.1-0.8-0.1-1.3-0.1c-0.8,0-1.7,0.1-2.5,0.3c-1.7,0.3-3.2,1.1-4.7,2
				l-0.2,0l0-0.1L810.7,118"/>
			<path id="path582" class="st0" d="M840.2,116c0.8-1,1.7-1.6,2.7-1.8c1-0.3,2.1-0.3,3.1,0c1,0.3,2,0.8,2.7,1.7
				c0.7,0.8,1.2,1.9,1.2,3.1l0,0.1l-0.1,0.1l-0.1,0l-1-0.8c-0.3-0.3-0.7-0.5-1-0.7c-0.7-0.4-1.5-0.7-2.4-0.9
				c-1.6-0.5-3.4-0.6-5.1-0.5l-0.1-0.1L840.2,116L840.2,116"/>
			<path id="path584" class="st0" d="M824.5,138.4c1.1,1.2,2.2,2,3.5,2.5c1.3,0.5,2.6,0.7,3.8,0.4c1.3-0.2,2.5-0.8,3.5-1.6
				c1-0.9,1.9-2,2.5-3.5l0.1,0c-0.2,1.6-0.8,3-1.9,4.2c-1.1,1.2-2.5,2-4.1,2.2c-1.6,0.3-3.2-0.1-4.6-0.8c-1.4-0.8-2.5-2-3.1-3.4
				L824.5,138.4"/>
			<path id="path586" class="st0" d="M846,71.9c-13.8,1.9-30.7-5.1-45.7,1.4c-2.1,0.9-3.3,3.3-2.7,5.5c0.5,1.6,1.7,3.1,4.4,4.1
				c0,0-14.9,2.3-13.1,12c0,0,0.6,5.9,13.1,4.6c0,0-12.1,9.2,2.8,9.3l0.8,8.4l1.9-8.4c3.1-0.2,7-0.6,12.1-1.5c0,0-3.5,7.3,15.5,3.1
				l8.6-2.1c2.4-0.6,4.7-1.8,7.1-2.3c10.4-2.2,14.4,28.3,14.4,28.3l1.9,0l3.4-9.6c0.2-0.5,4.7-1.2,5.1-1.7
				C894.9,96.5,872.7,68.2,846,71.9"/>
			<path id="path588" class="st0" d="M846,71.9l-0.1-0.4c-1.7,0.2-3.5,0.3-5.4,0.3c-7.8,0-16.4-1.8-24.9-1.8
				c-5.2,0-10.5,0.7-15.5,2.8c-1.9,0.8-3.1,2.7-3.1,4.6c0,0.4,0.1,0.9,0.2,1.3c0.5,1.7,1.8,3.3,4.7,4.3l0.1-0.4l-0.1-0.4
				c0,0-3.4,0.5-6.7,2.1c-1.7,0.8-3.4,1.9-4.7,3.3c-1.3,1.4-2.2,3.2-2.2,5.4c0,0.5,0,1.1,0.1,1.6l0.4-0.1l-0.4,0
				c0,0.1,0.1,1.4,1.5,2.6c1.4,1.3,3.9,2.5,8.6,2.5c1,0,2.1-0.1,3.3-0.2l0-0.4l-0.2-0.3c0,0-1.2,0.9-2.4,2.1
				c-1.2,1.3-2.4,2.8-2.4,4.4c0,0.5,0.1,1,0.4,1.4c0.5,0.6,1.2,1.1,2.4,1.5c1.2,0.3,2.8,0.6,5,0.6l0-0.4l-0.4,0l1,10.7l2.4-10.8
				l-0.4-0.1l0,0.4c3.1-0.2,7.1-0.6,12.1-1.5l-0.1-0.4l-0.3-0.2c0,0-0.3,0.6-0.3,1.4c0,0.7,0.3,1.7,1.2,2.4c1,0.7,2.6,1.2,5.2,1.2
				c2.3,0,5.5-0.4,9.8-1.3h0l8.6-2.1c2.5-0.6,4.8-1.8,7.1-2.3c0.3-0.1,0.7-0.1,1-0.1c1.1,0,2.1,0.4,3.1,1.1c3.4,2.6,6,9.3,7.6,15.4
				c0.8,3,1.4,5.9,1.8,8c0.2,1.1,0.3,1.9,0.4,2.5c0.1,0.6,0.1,0.9,0.1,0.9l0,0.3l2.5,0l3.5-9.8l-0.4-0.1l0.3,0.2l-0.2-0.1l0.1,0.1
				l0,0l-0.2-0.1l0.1,0.1l0,0l0,0l0,0l0,0l0,0c0,0,0.1-0.1,0.3-0.1c0.5-0.2,1.6-0.5,2.6-0.7c0.5-0.1,1-0.2,1.3-0.4
				c0.2-0.1,0.3-0.1,0.5-0.2c0.1-0.1,0.3-0.1,0.4-0.3v0c5.1-7,7.3-14.2,7.3-20.8c0-8.6-3.7-16.4-9.6-22c-5.9-5.6-14.1-9.1-23-9.1
				c-1.6,0-3.1,0.1-4.7,0.3L846,71.9l0.1,0.4c1.6-0.2,3.1-0.3,4.6-0.3c8.7,0,16.7,3.4,22.4,8.9c5.8,5.5,9.4,13.1,9.4,21.5
				c0,6.5-2.2,13.5-7.2,20.4v0l0.1,0.1l-0.1-0.1l0,0l0.1,0.1l-0.1-0.1c0,0-0.1,0.1-0.3,0.1c-0.5,0.2-1.7,0.5-2.7,0.7
				c-0.5,0.1-1,0.3-1.3,0.4c-0.2,0.1-0.3,0.1-0.5,0.2c-0.1,0.1-0.3,0.1-0.4,0.3l0,0l-3.4,9.4l-1.7,0l0,0.4l0.4,0
				c0,0-0.9-7.1-3.1-14.3c-1.1-3.6-2.5-7.1-4.2-9.9c-0.9-1.4-1.8-2.5-2.9-3.3c-1.1-0.8-2.3-1.3-3.6-1.3c-0.4,0-0.7,0-1.1,0.1
				c-2.5,0.5-4.8,1.7-7.2,2.3l-8.6,2.1l0.1,0.4l-0.1-0.4c-4.3,1-7.4,1.3-9.6,1.3c-2.5,0-4-0.5-4.7-1c-0.8-0.6-0.9-1.2-0.9-1.8
				c0-0.3,0.1-0.6,0.1-0.8l0.1-0.2l0-0.1l0,0l0.3-0.7l-0.7,0.1c-5,0.9-8.9,1.3-12,1.5l-0.3,0l-1.4,6.4l-0.6-6.3l-0.3,0
				c-2.8,0-4.6-0.4-5.7-0.9c-0.5-0.3-0.9-0.5-1.1-0.9c-0.2-0.3-0.3-0.6-0.3-1c0-1.1,1.1-2.7,2.2-3.9c0.6-0.6,1.1-1.1,1.6-1.5
				c0.2-0.2,0.4-0.3,0.5-0.4c0.1-0.1,0.2-0.1,0.2-0.2l1.1-0.8l-1.3,0.1c-1.2,0.1-2.3,0.2-3.2,0.2c-4.6,0-6.9-1.2-8.1-2.3
				c-0.6-0.6-0.9-1.1-1.1-1.5c-0.1-0.2-0.1-0.4-0.2-0.5l0-0.1l0,0v0l0,0l0,0c-0.1-0.5-0.1-1-0.1-1.5c0-2,0.8-3.6,2-4.9
				c1.8-2,4.5-3.3,6.8-4.1c1.1-0.4,2.2-0.7,2.9-0.8c0.4-0.1,0.7-0.1,0.9-0.2c0.2,0,0.3-0.1,0.3-0.1l1.5-0.2l-1.4-0.5
				c-2.6-0.9-3.7-2.4-4.2-3.8c-0.1-0.4-0.2-0.7-0.2-1.1c0-1.7,1.1-3.3,2.6-3.9c4.9-2.1,10-2.8,15.2-2.8c8.5,0,17,1.8,24.9,1.8
				c1.9,0,3.7-0.1,5.5-0.3L846,71.9"/>
			<path id="path590" class="st6" d="M821.7,170.6c0,0,12.8,29.5,33.4-1.1c0,0,35.5-3.7,48,10.2c36,39.9,11.8,135.8,11.8,135.8
				l-135.4,3C785.9,318.7,797.8,178.9,821.7,170.6"/>
			<path id="path592" class="st6" d="M821.7,170.6l-0.5,0.2c0,0,1.4,3.3,4.1,6.5c1.3,1.6,3,3.3,4.9,4.5c1.9,1.2,4.2,2.1,6.7,2.1
				c2.6,0,5.5-0.9,8.6-3.1c3.1-2.2,6.4-5.7,10-11l-0.4-0.3l0.1,0.5c0,0,0.3,0,0.7-0.1c1.5-0.1,5-0.4,9.5-0.4c5.7,0,13.1,0.4,20,1.9
				c6.9,1.5,13.4,4.2,17.3,8.6c15.2,16.8,19.6,43.9,19.6,69.4c0,17.2-2,33.7-4,45.8c-1,6.1-2,11.1-2.7,14.6c-0.4,1.7-0.7,3.1-0.9,4
				c-0.2,0.9-0.3,1.4-0.3,1.4l0.5,0.1l0-0.5l-135.4,3l0,1.1h0c0.2,0,0.4-0.1,0.6-0.2c0.3-0.2,0.6-0.5,0.8-1c0.5-0.8,0.9-2,1.4-3.6
				c1.7-6,3.8-17.5,6.2-31.5c3.6-21,8.1-47.6,13.6-69.7c2.8-11,5.8-20.9,9.1-28.3c1.7-3.7,3.4-6.8,5.2-9.2c1.8-2.3,3.6-3.9,5.5-4.5
				L821.7,170.6l-0.5,0.2L821.7,170.6l-0.2-0.5c-3.2,1.1-6,4.3-8.7,9c-4.6,8.2-8.7,20.9-12.3,35.5c-5.4,21.9-9.7,47.8-13.2,68.3
				c-1.8,10.2-3.3,19.1-4.7,25.4c-0.7,3.1-1.3,5.7-1.9,7.3c-0.3,0.8-0.6,1.5-0.8,1.9c-0.1,0.2-0.2,0.3-0.3,0.4l-0.1,0l0,0l0,0.1V318
				l0,0l0,0.1V318v0l0,0h0v0l0,0l0,0.5l0,0.5l135.8-3l0.1-0.4c0,0,8-31.6,8-66.1c0-25.6-4.4-52.9-19.9-70.1
				c-4.2-4.7-10.9-7.3-17.9-8.9c-7-1.5-14.5-1.9-20.2-1.9c-6.1,0-10.3,0.4-10.4,0.4l-0.2,0l-0.1,0.2c-3.5,5.2-6.7,8.6-9.7,10.7
				c-3,2.1-5.6,2.9-8,2.9c-2.3,0-4.4-0.8-6.2-1.9c-2.7-1.7-4.9-4.4-6.3-6.6c-0.7-1.1-1.3-2.1-1.7-2.8c-0.2-0.4-0.3-0.6-0.4-0.8
				c-0.1-0.2-0.1-0.3-0.1-0.3l-0.2-0.5l-0.5,0.2L821.7,170.6"/>
			<path id="path594" class="st0" d="M816.5,171.7c-0.5,1-1,2-1.5,2.9c-0.5,1-1,2-1.4,3c-0.9,2-1.8,3.9-2.6,6
				c-1.6,4-3.1,8.1-4.4,12.3c-1.4,4.1-2.6,8.3-3.8,12.5l-1.9,6.3c-0.7,2.1-1.3,4.2-2,6.3l-0.1,0c2-8.5,4.1-17.1,6.7-25.4
				c2.7-8.3,6.2-16.5,11-23.8L816.5,171.7"/>
			<path id="path596" class="st6" d="M866.6,200.6c3.8,17.7,7.6,35.5,11.4,53.2l0.8,95.5l39.1-0.9l6.6-66.6
				c2.1-20.9,0.9-40.8-2.7-62.2c-2.4-14.2-7.4-29.5-17.9-39.9c-8-7.9-19.7-10.6-30.6-11.2c-6-0.3-12.2-0.1-18.2,0.9"/>
			<path id="path598" class="st0" d="M866.6,200.6l11.7,53.2l0,0v0l1,95.5l-0.6-0.5l39.1-1l-0.6,0.6c1.8-18.7,3.7-37.4,5.6-56.1
				c0.5-4.7,1-9.3,1.4-14c0.4-4.7,0.6-9.3,0.7-14c0.2-9.4-0.3-18.7-1.3-28.1c-0.5-4.7-1.1-9.3-1.9-13.9c-0.7-4.6-1.6-9.2-2.9-13.7
				c-2.5-9-6.2-17.8-12.1-25c-0.7-0.9-1.5-1.8-2.3-2.6c-0.8-0.9-1.6-1.6-2.5-2.4c-1.8-1.5-3.7-2.8-5.7-3.9
				c-4.1-2.3-8.6-3.7-13.2-4.6c-4.6-0.9-9.3-1.3-14-1.4c-4.7-0.1-9.4,0.2-14,0.9c4.6-0.8,9.3-1.1,14-1.1c4.7,0,9.4,0.3,14,1.2
				c4.6,0.9,9.2,2.2,13.4,4.5c2.1,1.1,4.1,2.4,5.9,3.9c1.8,1.5,3.4,3.3,4.9,5.1c6,7.3,9.8,16.2,12.3,25.3c1.3,4.5,2.2,9.2,2.9,13.8
				c0.8,4.6,1.4,9.3,2,14c1.1,9.3,1.6,18.8,1.4,28.2c-0.1,4.7-0.3,9.4-0.6,14.1c-0.4,4.7-0.9,9.4-1.3,14
				c-1.8,18.7-3.6,37.4-5.5,56.1l-0.1,0.6l-0.6,0l-39.1,0.8l-0.5,0l0-0.5l-0.6-95.5l0,0.1L866.6,200.6"/>
		</g>
	</g>
</g>
<path id="path600" class="st0" d="M696.1,241.6l7.9,1l0.2-1.3l-7.9-1L696.1,241.6z M711.8,243.5l7.9,1l0.2-1.3l-7.9-1L711.8,243.5z
	 M727.6,245.5l7.9,1l0.2-1.3l-7.9-1L727.6,245.5z M743.3,247.5l7.9,1l0.2-1.3l-7.9-1L743.3,247.5z M759.1,249.4l7.9,1l0.2-1.3
	l-7.9-1L759.1,249.4z M774.8,251.4l7.9,1l0.2-1.3l-7.9-1L774.8,251.4z M790.6,253.4l7.9,1l0.2-1.3l-7.9-1L790.6,253.4z M806.4,255.3
	l7.9,1l0.2-1.3l-7.9-1L806.4,255.3z M822.1,257.3l7.9,1l0.2-1.3l-7.9-1L822.1,257.3z M837.9,259.3l7.9,1l0.2-1.3l-7.9-1L837.9,259.3
	z M853.6,261.2l7.9,1l0.2-1.3l-7.9-1L853.6,261.2z M869.4,263.2l7.9,1l0.2-1.3l-7.9-1L869.4,263.2z M885.1,265.1l7.9,1l0.2-1.3
	l-7.9-1L885.1,265.1z M900.9,267.1l7.9,1l0.2-1.3l-7.9-1L900.9,267.1z M916.6,269.1l7.9,1l0.2-1.3l-7.9-1L916.6,269.1z M932.4,271
	l8.4,1l0.1-0.8l-1.3-0.2l0,0.2l0.7,0.1l0.1-0.7l-7.7-1L932.4,271z M941.9,263.4l1-7.9l-1.3-0.2l-1,7.9L941.9,263.4z M943.8,247.6
	l1-7.9l-1.3-0.2l-1,7.9L943.8,247.6z M945.8,231.9l1-7.9l-1.3-0.2l-1,7.9L945.8,231.9z M947.8,216.1l1-7.9l-1.3-0.2l-1,7.9
	L947.8,216.1z M949.7,200.4l1-7.9l-1.3-0.2l-1,7.9L949.7,200.4z M951.7,184.6l1-7.9l-1.3-0.2l-1,7.9L951.7,184.6z M953.7,168.9
	l1-7.9l-1.3-0.2l-1,7.9L953.7,168.9z M955.6,153.1l1-7.9l-1.3-0.2l-1,7.9L955.6,153.1z M957.6,137.3l1-7.9l-1.3-0.2l-1,7.9
	L957.6,137.3z M959.6,121.6l1-7.9l-1.3-0.2l-1,7.9L959.6,121.6z M961.5,105.8l1-7.9l-1.3-0.2l-1,7.9L961.5,105.8z M963.5,90.1l1-7.9
	l-1.3-0.2l-1,7.9L963.5,90.1z M965.4,74.3l0.3-2.6l-6.6-0.8l-0.2,1.3l5.3,0.7l-0.2,1.3L965.4,74.3z M951.3,69.9l-7.9-1l-0.2,1.3
	l7.9,1L951.3,69.9z M935.5,68l-7.9-1l-0.2,1.3l7.9,1L935.5,68z M919.8,66l-7.9-1l-0.2,1.3l7.9,1L919.8,66z M904,64l-7.9-1l-0.2,1.3
	l7.9,1L904,64z M888.2,62.1l-7.9-1l-0.2,1.3l7.9,1L888.2,62.1z M872.5,60.1l-7.9-1l-0.2,1.3l7.9,1L872.5,60.1z M856.7,58.1l-7.9-1
	l-0.2,1.3l7.9,1L856.7,58.1z M841,56.2l-7.9-1l-0.2,1.3l7.9,1L841,56.2z M825.2,54.2l-7.9-1l-0.2,1.3l7.9,1L825.2,54.2z M809.5,52.2
	l-7.9-1l-0.2,1.3l7.9,1L809.5,52.2z M793.7,50.3l-7.9-1l-0.2,1.3l7.9,1L793.7,50.3z M777.9,48.3l-7.9-1l-0.2,1.3l7.9,1L777.9,48.3z
	 M762.2,46.4l-7.9-1l-0.2,1.3l7.9,1L762.2,46.4z M746.4,44.4l-7.9-1l-0.2,1.3l7.9,1L746.4,44.4z M730.7,42.4l-7.9-1l-0.2,1.3l7.9,1
	L730.7,42.4z M714.9,40.5l-7.9-1l-0.2,1.3l7.9,1L714.9,40.5z M703.8,46l-1,7.9l1.3,0.2l1-7.9L703.8,46z M701.8,61.7l-1,7.9l1.3,0.2
	l1-7.9L701.8,61.7z M699.8,77.5l-1,7.9l1.3,0.2l1-7.9L699.8,77.5z M697.9,93.2l-1,7.9l1.3,0.2l1-7.9L697.9,93.2z M695.9,109l-1,7.9
	l1.3,0.2l1-7.9L695.9,109z M694,124.7l-1,7.9l1.3,0.2l1-7.9L694,124.7z M692,140.5l-1,7.9l1.3,0.2l1-7.9L692,140.5z M690,156.3
	l-1,7.9l1.3,0.2l1-7.9L690,156.3z M688.1,172l-1,7.9l1.3,0.2l1-7.9L688.1,172z M686.1,187.8l-1,7.9l1.3,0.2l1-7.9L686.1,187.8z
	 M684.1,203.5l-1,7.9l1.3,0.2l1-7.9L684.1,203.5z M682.2,219.3l-1,7.9l1.3,0.2l1-7.9L682.2,219.3z M680.2,235l-0.6,4.5l8.5,1.1
	l0.2-1.3l-7.2-0.9l0.4-3.2L680.2,235"/>
<path id="path602" class="st11" d="M970.3,144c-4.5-16.4-21.5-25.9-38-21.4c-7.9,2.2-14.2,7.2-18.2,13.7l-22.8-4l18.5,16.4
	c-0.5,3.9-0.2,7.9,0.9,11.9c4.5,16.4,21.5,25.9,38,21.4C965.1,177.3,974.8,160.4,970.3,144"/>
<path id="path604" class="st11" d="M970.3,144l0.8-0.2c-3.9-14-16.6-23.1-30.5-23.1c-2.8,0-5.7,0.4-8.5,1.2
	c-8.1,2.2-14.6,7.4-18.6,14l0.7,0.4l0.1-0.8l-25.6-4.5l20.6,18.3l0.5-0.6l-0.8-0.1c-0.2,1.3-0.2,2.5-0.2,3.8c0,2.8,0.4,5.6,1.1,8.4
	c3.9,14,16.6,23.1,30.5,23.1c2.8,0,5.7-0.4,8.5-1.2c14.1-3.9,23.3-16.6,23.3-30.5c0-2.8-0.4-5.6-1.1-8.4L970.3,144l-0.8,0.2
	c0.7,2.7,1.1,5.3,1.1,7.9c0,13.1-8.8,25.2-22.1,28.9c-2.7,0.7-5.4,1.1-8.1,1.1c-13.2,0-25.2-8.7-28.9-21.9c-0.7-2.6-1.1-5.3-1.1-7.9
	c0-1.2,0.1-2.4,0.2-3.6l0.1-0.4L894,133.6l20.5,3.6l0.3-0.5c3.9-6.3,10-11.2,17.7-13.3c2.7-0.7,5.4-1.1,8.1-1.1
	c13.2,0,25.2,8.7,28.9,21.9L970.3,144"/>
<path id="path606" class="st16" d="M942.3,158.9c-2.9,0.9-6.1-0.7-7-3.7c-0.9-2.9,0.7-6.1,3.7-7c2.9-0.9,6.1,0.7,7,3.7
	C946.9,154.9,945.2,158,942.3,158.9z M956.8,151.3l-1.5-4.9l-4.2,1.3c-0.7-1.2-1.6-2.3-2.7-3.2l2-3.9l-4.6-2.4l-2,3.9
	c-1.3-0.4-2.8-0.5-4.2-0.4l-1.3-4.2l-4.9,1.5l1.3,4.2c-1.2,0.7-2.3,1.6-3.2,2.7l-3.9-2l-2.4,4.6l3.9,2c-0.4,1.3-0.5,2.8-0.4,4.2
	l-4.2,1.3l1.5,4.9l4.2-1.3c0.7,1.2,1.6,2.3,2.7,3.2l-2,3.9l4.6,2.4l2-3.9c1.3,0.4,2.8,0.5,4.2,0.4l1.3,4.2l4.9-1.5l-1.3-4.2
	c1.2-0.7,2.3-1.6,3.2-2.7l3.9,2l2.4-4.6l-3.9-2c0.4-1.3,0.5-2.8,0.4-4.2L956.8,151.3"/>
<path id="path608" class="st11" d="M779.2,24.9L709.8,21c-11.3-0.6-20.9,6.4-21.4,15.7l-1.2,20.9c-0.5,9.3,8.2,17.4,19.5,18
	l39.5,2.2l38.6,26.3l-8.7-24.6c11.3,0.6,20.9-6.4,21.4-15.7l1.2-20.9C799.2,33.6,790.5,25.5,779.2,24.9"/>
<path id="path610" class="st11" d="M779.2,24.9l0-0.8l-69.4-3.9c-0.5,0-1,0-1.5,0l0,0c-5.5,0-10.6,1.8-14.3,4.7
	c-3.8,2.9-6.2,7.1-6.5,11.9l-1.2,20.9c0,0.3,0,0.6,0,0.8c0,4.8,2.3,9.2,5.9,12.4c3.7,3.2,8.7,5.4,14.4,5.7l39.2,2.2l40.5,27.6
	l-9.5-27l-0.8,0.3l0,0.8c0.5,0,1,0,1.5,0c5.5,0,10.6-1.8,14.3-4.7c3.8-2.9,6.2-7.1,6.5-11.9l1.2-20.9h0c0-0.3,0-0.6,0-0.8
	c0-4.8-2.3-9.2-5.9-12.4c-3.7-3.2-8.7-5.4-14.4-5.7L779.2,24.9l0,0.8c5.3,0.3,10,2.3,13.4,5.3c3.4,3,5.4,6.9,5.4,11.1
	c0,0.2,0,0.5,0,0.7l0,0l-1.2,20.9c-0.2,4.2-2.4,7.9-5.9,10.6c-3.4,2.7-8.1,4.4-13.3,4.4c-0.4,0-0.9,0-1.4,0l-1.3-0.1l8.2,23.4
	l-36.6-25l-39.7-2.2c-5.3-0.3-10-2.3-13.4-5.3c-3.4-3-5.4-6.9-5.4-11.1c0-0.2,0-0.5,0-0.7l1.2-20.9c0.2-4.2,2.4-7.9,5.9-10.6
	c3.4-2.7,8.1-4.4,13.3-4.4c0.4,0,0.9,0,1.4,0l69.4,3.9L779.2,24.9"/>
<path id="path612" class="st16" d="M713.1,50.7c-0.1,2.1-1.9,3.6-3.9,3.5c-2-0.1-3.6-1.9-3.5-3.9c0.1-2.1,1.9-3.6,3.9-3.5
	C711.7,46.8,713.2,48.6,713.1,50.7"/>
<path id="path614" class="st16" d="M713.1,50.7l-0.8,0c-0.1,1.6-1.4,2.8-2.9,2.8l-0.2,0c-1.5-0.1-2.7-1.4-2.7-2.9l0-0.2v0
	c0.1-1.6,1.4-2.8,2.9-2.8l0.2,0c1.5,0.1,2.7,1.4,2.7,2.9l0,0.2l0,0L713.1,50.7l0.8,0l0-0.3c0-2.4-1.8-4.4-4.2-4.5l-0.2,0
	c-2.4,0-4.3,1.9-4.5,4.3v0l0,0.3c0,2.4,1.8,4.4,4.2,4.5l0.2,0c2.4,0,4.3-1.9,4.5-4.3v0L713.1,50.7"/>
<path id="path616" class="st16" d="M745.2,52.5c-0.1,2.1-1.9,3.6-3.9,3.5c-2-0.1-3.6-1.9-3.5-3.9c0.1-2.1,1.9-3.6,3.9-3.5
	S745.3,50.4,745.2,52.5"/>
<path id="path618" class="st16" d="M745.2,52.5l-0.8,0c-0.1,1.6-1.4,2.8-2.9,2.8l-0.2,0c-1.5-0.1-2.7-1.4-2.7-2.9l0-0.2v0
	c0.1-1.6,1.4-2.8,2.9-2.8l0.2,0c1.5,0.1,2.7,1.4,2.7,2.9l0,0.2v0L745.2,52.5l0.8,0l0-0.3c0-2.4-1.8-4.4-4.2-4.5l-0.2,0
	c-2.4,0-4.3,1.9-4.5,4.3v0l0,0.3c0,2.4,1.8,4.4,4.2,4.5l0.2,0c2.4,0,4.3-1.9,4.5-4.3v0L745.2,52.5"/>
<path id="path620" class="st16" d="M777.3,54.3c-0.1,2.1-1.9,3.6-3.9,3.5c-2-0.1-3.6-1.9-3.5-3.9c0.1-2.1,1.9-3.6,3.9-3.5
	C775.9,50.4,777.4,52.2,777.3,54.3"/>
<path id="path622" class="st16" d="M777.3,54.3l-0.8,0c-0.1,1.6-1.4,2.8-2.9,2.8l-0.2,0c-1.5-0.1-2.7-1.4-2.7-2.9l0-0.2v0
	c0.1-1.6,1.4-2.8,2.9-2.8l0.2,0c1.5,0.1,2.7,1.4,2.7,2.9l0,0.2v0L777.3,54.3l0.8,0l0-0.3c0-2.4-1.8-4.4-4.2-4.5l-0.2,0
	c-2.4,0-4.3,1.9-4.5,4.3v0l0,0.3c0,2.4,1.8,4.4,4.2,4.5l0.2,0c2.4,0,4.3-1.9,4.5-4.3v0L777.3,54.3"/>
</svg>
