<?xml version="1.0" encoding="UTF-8"?>
<svg id="Layer_1" data-name="Layer 1" xmlns="http://www.w3.org/2000/svg" viewBox="0 0 271.75 356.96">
  <defs>
    <style>
      .cls-1 {
        fill: #226d33;
      }

      .cls-2 {
        isolation: isolate;
      }

      .cls-3 {
        fill: #27b586;
      }

      .cls-4 {
        fill: #e8e9d9;
      }
    </style>
  </defs>
  <path id="path230" class="cls-4" d="m257.93,346.47c-8.24,6.86-18.36,5.71-29.97,3.71-21.18-3.66-45.35-.38-66.66,1.04-45.96,3.07-92.18,8.87-138.21,3.63-5.34-.61-11.11-1.58-14.81-5.49-4.08-4.32-4.39-10.88-4.47-16.83C2.54,234.26,1.28,135.99.02,37.72-.11,27.84.36,16.57,7.93,10.21c3.67-3.08,8.46-4.45,13.15-5.4,27.76-5.61,58.36-1.07,86.77-2.05C140.33,1.63,172.8-.49,205.32.1c38.95.71,61.22,9.82,63,51.7,3.45,81.07,1.93,162.91,3.35,244.36.25,14.19.31,29.15-6.68,41.5-2.17,3.83-4.52,6.7-7.06,8.81"/>
  <path id="path232" class="cls-3" d="m244.63,332.04c-7.34,6.27-16.36,5.22-26.71,3.39-18.87-3.35-40.41-.35-59.4.95-40.96,2.8-82.13,8.11-123.15,3.32-4.76-.56-9.9-1.45-13.19-5.02-3.64-3.95-3.92-9.94-3.98-15.38-1.13-89.83-2.25-179.66-3.38-269.49-.11-9.03.31-19.33,7.05-25.15,3.27-2.82,7.53-4.07,11.72-4.93,24.73-5.13,52-.98,77.31-1.88,28.94-1.03,57.88-2.97,86.85-2.43,34.71.65,54.54,8.98,56.13,47.26,3.07,74.11,1.72,148.92,2.99,223.37.22,12.97.27,26.65-5.95,37.93-1.93,3.5-4.03,6.12-6.29,8.05"/>
  <path id="path234" class="cls-4" d="m58.63,292.42c.69,1.96,2.03,3.7,3.82,4.74,1.79,1.04,4.04,1.32,5.99.61,1.05-.38,1.99-1.03,2.86-1.73.97-.76,1.9-1.61,2.5-2.68.85-1.51,1.28-3.59,1.38-5.33,2.14-.49,3.98-2.03,4.99-3.98,1.01-1.95,1.23-4.27.76-6.41-.74-3.34-3.4-6.77-6.56-8.1-.83-2.2-1.88-4.41-3.62-6-1.97-1.8-4.77-2.65-7.4-2.25-2.64.4-5.31,2.38-6.66,4.68-2.48-.83-5.38-.24-7.35,1.49-1,.88-1.74,2-2.39,3.16-.74,1.34-1.38,2.79-1.47,4.32-.13,2.18.94,4.4,2.74,5.65-.99,1.76-1.45,3.76-1.03,5.73.43,1.97,1.52,3.77,2.99,5.15.77.71,1.65,1.32,2.63,1.67,2.02.71,3.88.2,5.81-.72"/>
  <path id="path236" class="cls-1" d="m57.3,278.97c-.08.72.08,1.45.35,2.13.84,2.09,2.92,3.73,5.16,3.82,4.26.17,6.43-5.22,3.77-8.46-2.77-3.4-8.8-1.76-9.28,2.52"/>
  <path id="path238" class="cls-1" d="m30.8,257.1c-.47,1.38-.48,2.92.06,4.27.54,1.35,1.67,2.47,3.05,2.92.75.24,1.54.29,2.33.28.86,0,1.74-.07,2.54-.4,1.13-.47,2.26-1.43,3.07-2.35,1.4.65,3.08.6,4.48-.04,1.4-.64,2.52-1.83,3.19-3.22,1.04-2.17,1.05-5.21-.13-7.31.49-1.58.87-3.25.59-4.88-.31-1.84-1.49-3.52-3.12-4.44-1.63-.92-3.96-.98-5.7-.29-1.01-1.53-2.87-2.46-4.7-2.35-.93.06-1.83.35-2.69.72-.99.42-1.97.94-2.68,1.75-1.01,1.15-1.38,2.84-.93,4.3-1.3.55-2.43,1.45-3.04,2.72-.62,1.27-.79,2.74-.57,4.14.12.73.34,1.44.74,2.06.81,1.27,2.05,1.79,3.52,2.11"/>
  <path id="path240" class="cls-4" d="m35.88,249.09c-.35.36-.58.83-.73,1.32-.44,1.52,0,3.33,1.2,4.34,2.28,1.94,5.81-.11,5.74-3.05-.07-3.08-4.1-4.77-6.22-2.62"/>
  <path id="path242" class="cls-1" d="m231.72,158.81c-.47,1.38-.48,2.92.06,4.27s1.67,2.47,3.05,2.92c.75.24,1.54.29,2.33.28.86,0,1.74-.07,2.54-.4,1.12-.47,2.26-1.43,3.06-2.35,1.4.65,3.08.6,4.48-.04,1.4-.64,2.52-1.83,3.19-3.22,1.04-2.17,1.05-5.21-.13-7.31.49-1.58.87-3.25.59-4.88-.31-1.84-1.49-3.52-3.12-4.44-1.63-.92-3.96-.98-5.7-.29-1.02-1.53-2.87-2.46-4.7-2.35-.93.06-1.83.35-2.69.72-.99.42-1.97.94-2.68,1.75-1.01,1.15-1.38,2.84-.93,4.3-1.31.54-2.43,1.45-3.04,2.72s-.79,2.74-.57,4.14c.11.73.34,1.44.73,2.06.81,1.27,2.06,1.79,3.52,2.11"/>
  <path id="path244" class="cls-4" d="m236.8,150.8c-.35.36-.58.83-.73,1.33-.44,1.52,0,3.33,1.2,4.34,2.28,1.94,5.81-.11,5.74-3.05-.07-3.08-4.1-4.77-6.22-2.62"/>
  <path id="path246" class="cls-4" d="m205.42,115.83c-.87,1.64-1.21,3.58-.81,5.4.41,1.81,1.59,3.47,3.24,4.32.89.46,1.89.68,2.88.84,1.09.17,2.21.27,3.29.02,1.52-.35,3.14-1.33,4.35-2.32,1.62,1.11,3.75,1.39,5.65.88s3.56-1.78,4.69-3.39c1.76-2.52,2.4-6.35,1.36-9.24.95-1.89,1.77-3.92,1.76-6.03-.01-2.39-1.15-4.75-3.01-6.25s-4.8-2.06-7.13-1.55c-.96-2.14-3.11-3.69-5.44-3.94-1.18-.12-2.38.07-3.54.35-1.34.32-2.68.78-3.74,1.65-1.52,1.24-2.33,3.29-2.06,5.23-1.76.42-3.36,1.32-4.4,2.8-1.04,1.48-1.57,3.29-1.58,5.1,0,.94.13,1.89.5,2.75.76,1.77,2.22,2.68,4,3.39"/>
  <path id="path248" class="cls-1" d="m213.49,106.8c-.52.38-.91.93-1.19,1.52-.87,1.83-.69,4.19.61,5.72,2.47,2.92,7.34,1.07,7.87-2.65.56-3.89-4.18-6.87-7.29-4.59"/>
  <path id="path250" class="cls-4" d="m33.1,79.41c-1.39.65-2.58,1.77-3.22,3.16-.63,1.4-.68,3.08,0,4.47.36.75.91,1.39,1.48,1.99.63.66,1.33,1.28,2.16,1.65,1.18.52,2.74.68,4.03.63.52,1.54,1.79,2.79,3.3,3.39,1.51.61,3.24.6,4.79.09,2.41-.79,4.75-3,5.5-5.43,1.57-.78,3.12-1.71,4.16-3.11,1.18-1.58,1.6-3.71,1.12-5.63-.49-1.92-2.15-3.75-3.94-4.58.43-1.89-.22-3.99-1.64-5.31-.72-.67-1.61-1.14-2.51-1.53-1.04-.45-2.16-.82-3.29-.77-1.62.06-3.18,1.02-3.97,2.43-1.37-.6-2.88-.8-4.3-.34-1.42.46-2.68,1.39-3.58,2.58-.47.62-.86,1.31-1.04,2.07-.38,1.55.13,2.88.96,4.24"/>
  <path id="path252" class="cls-1" d="m42.93,77.45c-.53,0-1.06.16-1.54.41-1.48.77-2.54,2.43-2.45,4.09.18,3.16,4.32,4.36,6.52,2.17,2.3-2.3.66-6.62-2.53-6.67"/>
  <path id="path254" class="cls-1" d="m240.08,292.76c-4.58,4.76-12.23,8-17.7,4.29-2.74-1.86-4.24-5.01-6.13-7.74-1.89-2.72-4.77-5.31-8.06-4.94-3.02.34-5.18,3.01-6.84,5.56-2.65,4.07-4.92,8.38-6.78,12.87-1.61,3.89-2.96,7.99-5.61,11.27-2.64,3.28-7.03,5.59-11.07,4.4-5.19-1.53-9.08-8.3-14.2-6.58-3.15,1.06-4.52,4.94-7.52,6.38-2.61,1.25-5.84.27-8.02-1.63-2.18-1.9-3.53-4.55-4.84-7.13-3.73-7.4-7.96-15.3-15.43-18.89-6.9-3.32-15.33-2.13-22.09,1.49-6.75,3.62-12.08,9.38-16.88,15.36-2.78,3.46-5.52,7.11-9.33,9.38-3.81,2.27-9.05,2.81-12.49,0-1.94-1.59-3.02-3.97-4.64-5.88-1.62-1.91-4.32-3.4-6.57-2.31-1.58.76-2.39,2.53-3.71,3.68-2.81,2.43-7.41,1.46-10.11-1.1-2.69-2.56-3.96-6.24-5.13-9.77-1.66-5.02-3.32-10.04-4.98-15.05-2.11-6.37-4.55-13.21-10.1-16.99-1.28-.87-2.77-1.44-4.32-1.74.22,17.21.43,34.42.65,51.63.07,5.44.34,11.43,3.98,15.38,3.29,3.57,8.43,4.46,13.19,5.02,41.02,4.79,82.2-.52,123.15-3.32,18.99-1.3,40.53-4.3,59.4-.95,10.34,1.83,19.36,2.88,26.71-3.39,2.26-1.93,4.36-4.55,6.29-8.05,6.23-11.29,6.17-24.97,5.95-37.93-.06-3.43-.09-6.87-.13-10.3-1.35.52-2.62,1.2-3.73,2.04-5.25,4.01-8.35,10.19-12.94,14.95"/>
  <g id="g500">
    <g id="text504" class="cls-2">
      <g class="cls-2">
        <path class="cls-1" d="m73.77,89.56v-30.29h12.87c3.24,0,5.59.27,7.06.82,1.47.54,2.64,1.51,3.52,2.9.88,1.39,1.32,2.98,1.32,4.77,0,2.27-.67,4.15-2,5.63-1.34,1.48-3.33,2.41-5.99,2.8,1.32.77,2.41,1.62,3.27,2.54.86.92,2.02,2.56,3.48,4.92l3.7,5.91h-7.31l-4.42-6.59c-1.57-2.36-2.64-3.84-3.22-4.45-.58-.61-1.19-1.03-1.84-1.26-.65-.23-1.67-.34-3.08-.34h-1.24v12.65h-6.12Zm6.12-17.48h4.52c2.93,0,4.77-.12,5.5-.37s1.3-.67,1.71-1.28c.41-.61.62-1.36.62-2.27,0-1.02-.27-1.84-.82-2.47-.54-.63-1.31-1.02-2.3-1.19-.5-.07-1.98-.1-4.46-.1h-4.77v7.69Z"/>
      </g>
      <g class="cls-2">
        <path class="cls-1" d="m109,82.57l5.79.97c-.74,2.12-1.92,3.74-3.52,4.85-1.6,1.11-3.61,1.66-6.02,1.66-3.82,0-6.64-1.25-8.47-3.74-1.45-2-2.17-4.52-2.17-7.56,0-3.64.95-6.48,2.85-8.54,1.9-2.06,4.3-3.09,7.21-3.09,3.26,0,5.84,1.08,7.73,3.23,1.89,2.16,2.79,5.46,2.71,9.91h-14.55c.04,1.72.51,3.06,1.4,4.02.9.96,2.01,1.44,3.35,1.44.91,0,1.67-.25,2.29-.74.62-.5,1.09-1.29,1.4-2.4Zm.33-5.87c-.04-1.68-.48-2.96-1.3-3.83-.83-.87-1.83-1.31-3.02-1.31-1.27,0-2.31.46-3.14,1.38-.83.92-1.23,2.18-1.22,3.76h8.68Z"/>
      </g>
      <g class="cls-2">
        <path class="cls-1" d="m138.06,89.56h-5.39v-3.22c-.9,1.25-1.95,2.19-3.17,2.8-1.22.61-2.45.92-3.69.92-2.52,0-4.68-1.02-6.48-3.05-1.8-2.03-2.7-4.87-2.7-8.5s.88-6.55,2.62-8.48c1.75-1.94,3.96-2.9,6.63-2.9,2.45,0,4.57,1.02,6.36,3.06v-10.91h5.81v30.29Zm-15.5-11.45c0,2.34.32,4.04.97,5.08.94,1.52,2.25,2.27,3.93,2.27,1.34,0,2.47-.57,3.41-1.7.94-1.14,1.41-2.83,1.41-5.09,0-2.52-.46-4.34-1.36-5.44-.91-1.11-2.07-1.66-3.49-1.66s-2.53.55-3.46,1.64-1.39,2.73-1.39,4.91Z"/>
      </g>
      <g class="cls-2">
        <path class="cls-1" d="m155.12,89.56v-3.29c-.8,1.17-1.85,2.09-3.15,2.77s-2.68,1.01-4.12,1.01-2.8-.32-3.97-.97c-1.17-.65-2.02-1.56-2.54-2.73-.52-1.17-.79-2.79-.79-4.86v-13.89h5.81v10.08c0,3.09.11,4.98.32,5.67.21.7.6,1.25,1.17,1.65.56.41,1.28.61,2.15.61.99,0,1.88-.27,2.67-.82.79-.54,1.32-1.22,1.61-2.02.29-.81.43-2.78.43-5.92v-9.26h5.81v21.94h-5.39Z"/>
      </g>
      <g class="cls-2">
        <path class="cls-1" d="m182.79,74.1l-5.72,1.03c-.19-1.14-.63-2-1.31-2.58s-1.57-.87-2.66-.87c-1.45,0-2.6.5-3.46,1.5-.86,1-1.29,2.67-1.29,5.01,0,2.6.44,4.44,1.31,5.52.87,1.07,2.05,1.61,3.52,1.61,1.1,0,2-.31,2.71-.94.7-.63,1.2-1.7,1.49-3.23l5.7.97c-.59,2.62-1.73,4.59-3.41,5.93-1.68,1.34-3.93,2-6.76,2-3.21,0-5.77-1.01-7.68-3.04-1.91-2.02-2.86-4.83-2.86-8.41s.96-6.44,2.87-8.46c1.92-2.02,4.5-3.03,7.77-3.03,2.67,0,4.8.58,6.37,1.73,1.58,1.15,2.71,2.9,3.4,5.26Z"/>
      </g>
      <g class="cls-2">
        <path class="cls-1" d="m197.86,82.57l5.79.97c-.74,2.12-1.92,3.74-3.52,4.85-1.6,1.11-3.61,1.66-6.02,1.66-3.82,0-6.64-1.25-8.47-3.74-1.45-2-2.17-4.52-2.17-7.56,0-3.64.95-6.48,2.85-8.54,1.9-2.06,4.3-3.09,7.21-3.09,3.26,0,5.84,1.08,7.73,3.23,1.89,2.16,2.79,5.46,2.71,9.91h-14.55c.04,1.72.51,3.06,1.41,4.02.89.96,2.01,1.44,3.35,1.44.91,0,1.67-.25,2.29-.74.62-.5,1.09-1.29,1.4-2.4Zm.33-5.87c-.04-1.68-.48-2.96-1.3-3.83-.83-.87-1.83-1.31-3.02-1.31-1.27,0-2.31.46-3.14,1.38s-1.23,2.18-1.22,3.76h8.68Z"/>
      </g>
    </g>
  </g>
  <g id="g506">
    <g id="text510" class="cls-2">
      <g class="cls-2">
        <path class="cls-4" d="m85.92,145.33v-30.29h12.87c3.24,0,5.59.27,7.06.82,1.47.54,2.64,1.51,3.52,2.9s1.32,2.98,1.32,4.77c0,2.27-.67,4.15-2,5.63-1.34,1.48-3.33,2.41-5.99,2.8,1.32.77,2.41,1.62,3.28,2.54.86.92,2.02,2.56,3.48,4.92l3.7,5.91h-7.31l-4.42-6.59c-1.57-2.36-2.64-3.84-3.22-4.45-.58-.61-1.19-1.03-1.84-1.26-.65-.23-1.67-.34-3.08-.34h-1.24v12.65h-6.12Zm6.12-17.48h4.52c2.93,0,4.77-.12,5.5-.37s1.3-.67,1.71-1.28c.41-.61.62-1.36.62-2.27,0-1.02-.27-1.84-.82-2.47-.54-.63-1.31-1.02-2.3-1.19-.5-.07-1.98-.1-4.46-.1h-4.77v7.69Z"/>
      </g>
      <g class="cls-2">
        <path class="cls-4" d="m121.16,138.35l5.79.97c-.74,2.12-1.92,3.74-3.52,4.85s-3.61,1.66-6.02,1.66c-3.82,0-6.64-1.25-8.47-3.74-1.45-2-2.17-4.52-2.17-7.56,0-3.64.95-6.48,2.85-8.54,1.9-2.06,4.3-3.09,7.21-3.09,3.26,0,5.84,1.08,7.73,3.23,1.89,2.16,2.79,5.46,2.71,9.91h-14.55c.04,1.72.51,3.06,1.41,4.02.89.96,2.01,1.44,3.35,1.44.91,0,1.67-.25,2.29-.74.62-.5,1.09-1.29,1.4-2.4Zm.33-5.87c-.04-1.68-.48-2.96-1.3-3.83-.83-.87-1.83-1.31-3.02-1.31-1.27,0-2.31.46-3.14,1.38s-1.23,2.18-1.22,3.76h8.68Z"/>
      </g>
      <g class="cls-2">
        <path class="cls-4" d="m144.53,145.33v-3.29c-.8,1.17-1.85,2.09-3.15,2.77s-2.68,1.01-4.12,1.01-2.8-.32-3.97-.97c-1.17-.65-2.02-1.56-2.54-2.73-.52-1.17-.79-2.79-.79-4.86v-13.89h5.81v10.08c0,3.09.11,4.98.32,5.67.21.7.6,1.25,1.17,1.65.56.41,1.28.61,2.15.61.99,0,1.88-.27,2.67-.82.79-.54,1.32-1.22,1.61-2.02.29-.81.43-2.78.43-5.92v-9.26h5.81v21.94h-5.39Z"/>
      </g>
      <g class="cls-2">
        <path class="cls-4" d="m151.03,139.07l5.83-.89c.25,1.13.75,1.99,1.51,2.57.76.59,1.82.88,3.18.88,1.5,0,2.63-.28,3.39-.83.51-.39.76-.9.76-1.55,0-.44-.14-.81-.41-1.1-.29-.28-.94-.53-1.94-.76-4.68-1.03-7.65-1.98-8.91-2.83-1.74-1.18-2.6-2.83-2.6-4.94,0-1.9.75-3.5,2.25-4.79,1.5-1.29,3.83-1.94,6.98-1.94s5.23.49,6.7,1.47c1.46.98,2.46,2.42,3.02,4.34l-5.48,1.01c-.23-.85-.68-1.51-1.33-1.96s-1.59-.68-2.8-.68c-1.53,0-2.62.21-3.29.64-.44.3-.66.7-.66,1.18,0,.41.19.76.58,1.05.52.39,2.33.93,5.42,1.63,3.09.7,5.25,1.56,6.48,2.58,1.21,1.03,1.82,2.47,1.82,4.32,0,2.01-.84,3.74-2.52,5.19s-4.17,2.17-7.46,2.17c-2.99,0-5.36-.61-7.1-1.82s-2.88-2.86-3.42-4.94Z"/>
      </g>
      <g class="cls-2">
        <path class="cls-4" d="m185.71,138.35l5.79.97c-.74,2.12-1.92,3.74-3.52,4.85s-3.61,1.66-6.02,1.66c-3.82,0-6.64-1.25-8.47-3.74-1.45-2-2.17-4.52-2.17-7.56,0-3.64.95-6.48,2.85-8.54,1.9-2.06,4.3-3.09,7.21-3.09,3.26,0,5.84,1.08,7.73,3.23,1.89,2.16,2.79,5.46,2.71,9.91h-14.55c.04,1.72.51,3.06,1.41,4.02.89.96,2.01,1.44,3.35,1.44.91,0,1.67-.25,2.29-.74.62-.5,1.09-1.29,1.4-2.4Zm.33-5.87c-.04-1.68-.48-2.96-1.3-3.83-.83-.87-1.83-1.31-3.02-1.31-1.27,0-2.31.46-3.14,1.38s-1.23,2.18-1.22,3.76h8.68Z"/>
      </g>
    </g>
  </g>
  <g id="g512">
    <g id="text516" class="cls-2">
      <g class="cls-2">
        <path class="cls-1" d="m69.4,201.11v-30.29h12.87c3.24,0,5.59.27,7.06.82,1.47.54,2.64,1.51,3.52,2.9.88,1.39,1.32,2.98,1.32,4.77,0,2.27-.67,4.15-2,5.63-1.34,1.48-3.33,2.41-5.99,2.8,1.32.77,2.41,1.62,3.27,2.54s2.02,2.56,3.48,4.92l3.7,5.91h-7.31l-4.42-6.59c-1.57-2.36-2.64-3.84-3.22-4.45-.58-.61-1.19-1.03-1.84-1.26-.65-.23-1.67-.34-3.08-.34h-1.24v12.65h-6.12Zm6.12-17.48h4.52c2.93,0,4.77-.12,5.5-.37.73-.25,1.3-.67,1.71-1.28.41-.61.62-1.36.62-2.27,0-1.02-.27-1.84-.82-2.47s-1.31-1.02-2.3-1.19c-.5-.07-1.98-.1-4.46-.1h-4.77v7.69Z"/>
      </g>
      <g class="cls-2">
        <path class="cls-1" d="m104.64,194.13l5.79.97c-.74,2.12-1.92,3.74-3.52,4.85-1.6,1.11-3.61,1.66-6.02,1.66-3.82,0-6.64-1.25-8.47-3.74-1.45-2-2.17-4.52-2.17-7.56,0-3.64.95-6.48,2.85-8.54,1.9-2.06,4.3-3.09,7.21-3.09,3.26,0,5.84,1.08,7.73,3.23,1.89,2.16,2.79,5.46,2.71,9.91h-14.55c.04,1.72.51,3.06,1.4,4.02.9.96,2.01,1.44,3.35,1.44.91,0,1.67-.25,2.29-.74.62-.5,1.09-1.29,1.4-2.4Zm.33-5.87c-.04-1.68-.48-2.96-1.3-3.83-.83-.88-1.83-1.31-3.02-1.31-1.27,0-2.31.46-3.14,1.38-.83.92-1.23,2.18-1.22,3.76h8.68Z"/>
      </g>
      <g class="cls-2">
        <path class="cls-1" d="m132.71,185.66l-5.72,1.03c-.19-1.14-.63-2-1.31-2.58s-1.57-.87-2.66-.87c-1.45,0-2.6.5-3.46,1.5-.86,1-1.29,2.67-1.29,5.01,0,2.6.44,4.44,1.31,5.52.87,1.08,2.05,1.61,3.52,1.61,1.1,0,2-.31,2.71-.94.7-.63,1.2-1.71,1.49-3.23l5.7.97c-.59,2.62-1.73,4.59-3.41,5.93-1.68,1.34-3.93,2-6.76,2-3.21,0-5.77-1.01-7.68-3.04-1.91-2.03-2.86-4.83-2.86-8.41s.96-6.44,2.87-8.46c1.92-2.02,4.5-3.03,7.77-3.03,2.67,0,4.8.58,6.37,1.73,1.58,1.15,2.71,2.9,3.4,5.26Z"/>
      </g>
      <g class="cls-2">
        <path class="cls-1" d="m132.32,179.17h6.18l5.25,15.58,5.12-15.58h6.01l-7.75,21.12-1.38,3.82c-.51,1.28-1,2.26-1.46,2.93-.46.67-.99,1.22-1.59,1.64-.6.42-1.34.75-2.21.98s-1.86.35-2.96.35-2.21-.12-3.29-.35l-.52-4.54c.91.18,1.73.27,2.46.27,1.35,0,2.35-.4,3-1.19.65-.79,1.14-1.8,1.49-3.03l-8.35-22Z"/>
      </g>
      <g class="cls-2">
        <path class="cls-1" d="m174.07,185.66l-5.72,1.03c-.19-1.14-.63-2-1.31-2.58s-1.57-.87-2.66-.87c-1.45,0-2.6.5-3.46,1.5-.86,1-1.29,2.67-1.29,5.01,0,2.6.44,4.44,1.31,5.52.87,1.08,2.05,1.61,3.52,1.61,1.1,0,2-.31,2.71-.94.7-.63,1.2-1.71,1.49-3.23l5.7.97c-.59,2.62-1.73,4.59-3.41,5.93-1.68,1.34-3.93,2-6.76,2-3.21,0-5.77-1.01-7.68-3.04-1.91-2.03-2.86-4.83-2.86-8.41s.96-6.44,2.87-8.46c1.92-2.02,4.5-3.03,7.77-3.03,2.67,0,4.8.58,6.37,1.73,1.58,1.15,2.71,2.9,3.4,5.26Z"/>
      </g>
      <g class="cls-2">
        <path class="cls-1" d="m176.43,201.11v-30.29h5.81v30.29h-5.81Z"/>
      </g>
      <g class="cls-2">
        <path class="cls-1" d="m202.23,194.13l5.79.97c-.74,2.12-1.92,3.74-3.52,4.85-1.6,1.11-3.61,1.66-6.02,1.66-3.82,0-6.64-1.25-8.47-3.74-1.45-2-2.17-4.52-2.17-7.56,0-3.64.95-6.48,2.85-8.54,1.9-2.06,4.3-3.09,7.21-3.09,3.26,0,5.84,1.08,7.73,3.23,1.89,2.16,2.79,5.46,2.71,9.91h-14.55c.04,1.72.51,3.06,1.41,4.02.89.96,2.01,1.44,3.35,1.44.91,0,1.67-.25,2.29-.74.62-.5,1.09-1.29,1.4-2.4Zm.33-5.87c-.04-1.68-.48-2.96-1.3-3.83s-1.83-1.31-3.02-1.31c-1.27,0-2.31.46-3.14,1.38s-1.23,2.18-1.22,3.76h8.68Z"/>
      </g>
    </g>
  </g>
  <g id="g518">
    <g id="text522" class="cls-2">
      <g class="cls-2">
        <path class="cls-4" d="m77.28,256.9v-30.29h12.87c3.24,0,5.59.27,7.06.82,1.47.54,2.64,1.51,3.52,2.9.88,1.39,1.32,2.98,1.32,4.77,0,2.27-.67,4.15-2,5.63-1.34,1.48-3.33,2.41-5.99,2.8,1.32.77,2.41,1.62,3.27,2.54s2.02,2.56,3.48,4.92l3.7,5.91h-7.31l-4.42-6.59c-1.57-2.36-2.64-3.84-3.22-4.45-.58-.61-1.19-1.03-1.84-1.26-.65-.23-1.67-.34-3.08-.34h-1.24v12.65h-6.12Zm6.12-17.48h4.52c2.93,0,4.77-.12,5.5-.37.73-.25,1.3-.67,1.71-1.28.41-.61.62-1.36.62-2.27,0-1.02-.27-1.84-.82-2.47s-1.31-1.02-2.3-1.19c-.5-.07-1.98-.1-4.46-.1h-4.77v7.69Z"/>
      </g>
      <g class="cls-2">
        <path class="cls-4" d="m112.52,249.91l5.79.97c-.74,2.12-1.92,3.74-3.52,4.85-1.6,1.11-3.61,1.66-6.02,1.66-3.82,0-6.64-1.25-8.47-3.74-1.45-2-2.17-4.52-2.17-7.56,0-3.64.95-6.48,2.85-8.54,1.9-2.06,4.3-3.09,7.21-3.09,3.26,0,5.84,1.08,7.73,3.23,1.89,2.16,2.79,5.46,2.71,9.91h-14.55c.04,1.72.51,3.06,1.41,4.02.89.96,2.01,1.44,3.35,1.44.91,0,1.67-.25,2.29-.74.62-.5,1.09-1.29,1.4-2.4Zm.33-5.87c-.04-1.68-.48-2.96-1.3-3.83s-1.83-1.31-3.02-1.31c-1.27,0-2.31.46-3.14,1.38s-1.23,2.18-1.22,3.76h8.68Z"/>
      </g>
      <g class="cls-2">
        <path class="cls-4" d="m121.29,234.95h5.41v3.22c.7-1.1,1.65-2,2.85-2.69,1.2-.69,2.53-1.03,3.99-1.03,2.55,0,4.71,1,6.49,3,1.78,2,2.67,4.78,2.67,8.35s-.9,6.51-2.69,8.54c-1.79,2.03-3.96,3.05-6.51,3.05-1.21,0-2.31-.24-3.29-.72-.99-.48-2.02-1.31-3.11-2.48v11.05h-5.81v-30.29Zm5.74,10.6c0,2.47.49,4.29,1.47,5.47.98,1.18,2.17,1.77,3.57,1.77s2.47-.54,3.37-1.62,1.34-2.85,1.34-5.32c0-2.3-.46-4.01-1.38-5.12-.92-1.12-2.07-1.67-3.43-1.67s-2.6.55-3.53,1.64c-.94,1.09-1.41,2.72-1.41,4.87Z"/>
      </g>
      <g class="cls-2">
        <path class="cls-4" d="m156.9,249.91l5.79.97c-.74,2.12-1.92,3.74-3.52,4.85-1.6,1.11-3.61,1.66-6.02,1.66-3.82,0-6.64-1.25-8.47-3.74-1.45-2-2.17-4.52-2.17-7.56,0-3.64.95-6.48,2.85-8.54,1.9-2.06,4.3-3.09,7.21-3.09,3.26,0,5.84,1.08,7.73,3.23,1.89,2.16,2.79,5.46,2.71,9.91h-14.55c.04,1.72.51,3.06,1.41,4.02.89.96,2.01,1.44,3.35,1.44.91,0,1.67-.25,2.29-.74.62-.5,1.09-1.29,1.4-2.4Zm.33-5.87c-.04-1.68-.48-2.96-1.3-3.83s-1.83-1.31-3.02-1.31c-1.27,0-2.31.46-3.14,1.38s-1.23,2.18-1.22,3.76h8.68Z"/>
      </g>
      <g class="cls-2">
        <path class="cls-4" d="m170.17,241.65l-5.27-.95c.59-2.12,1.61-3.69,3.06-4.71,1.45-1.02,3.6-1.53,6.45-1.53,2.59,0,4.52.31,5.79.92,1.27.61,2.16,1.39,2.68,2.33s.77,2.68.77,5.2l-.06,6.78c0,1.93.09,3.35.28,4.27.19.92.53,1.9,1.04,2.94h-5.74c-.15-.39-.34-.96-.56-1.71-.1-.34-.17-.57-.21-.68-.99.96-2.05,1.69-3.18,2.17-1.13.48-2.33.72-3.62.72-2.26,0-4.04-.61-5.34-1.84-1.3-1.23-1.95-2.78-1.95-4.65,0-1.24.3-2.34.89-3.32.59-.97,1.42-1.71,2.49-2.23s2.61-.97,4.62-1.35c2.71-.51,4.59-.98,5.64-1.42v-.58c0-1.12-.28-1.91-.83-2.39-.55-.47-1.59-.71-3.12-.71-1.03,0-1.84.2-2.42.61-.58.41-1.05,1.12-1.41,2.14Zm7.77,4.71c-.74.25-1.92.54-3.53.89-1.61.34-2.67.68-3.16,1.01-.76.54-1.14,1.22-1.14,2.05s.3,1.51.91,2.11c.61.59,1.38.89,2.31.89,1.05,0,2.04-.34,3-1.03.7-.52,1.16-1.16,1.38-1.92.15-.5.23-1.44.23-2.83v-1.16Z"/>
      </g>
      <g class="cls-2">
        <path class="cls-4" d="m198.05,234.95v4.63h-3.97v8.84c0,1.79.04,2.83.11,3.13.08.3.25.54.52.73.27.19.6.29.98.29.54,0,1.32-.19,2.33-.56l.5,4.5c-1.35.58-2.88.87-4.59.87-1.05,0-1.99-.18-2.83-.53-.84-.35-1.46-.81-1.85-1.36s-.66-1.31-.82-2.26c-.12-.67-.19-2.04-.19-4.09v-9.57h-2.67v-4.63h2.67v-4.36l5.83-3.39v7.75h3.97Z"/>
      </g>
    </g>
  </g>
</svg>