<?xml version="1.0" encoding="UTF-8"?>
<svg id="Layer_1" data-name="Layer 1" xmlns="http://www.w3.org/2000/svg" viewBox="0 0 266.06 266.06">
  <defs>
    <style>
      .cls-1 {
        fill: #216e34;
      }

      .cls-2 {
        fill: #226d33;
      }

      .cls-3 {
        isolation: isolate;
      }

      .cls-4 {
        fill: #27b586;
      }

      .cls-5 {
        fill: #e8e9d9;
      }
    </style>
  </defs>
  <path id="path94" class="cls-5" d="m266.06,133.03c0,73.47-59.56,133.03-133.03,133.03S0,206.5,0,133.03,59.56,0,133.03,0s133.03,59.56,133.03,133.03"/>
  <path id="path96" class="cls-1" d="m62.49,134.8c1.67,59.34,76.51,87.72,120.49,49.54,21.76-18.89,26.46-53.47,13.29-79.11-13.89-27.02-45.35-44.39-75.67-40.28-33.65,4.56-59.05,36.2-58.11,69.85"/>
  <path id="path98" class="cls-5" d="m78.22,88.68c.24,1.94,1.39,4.81,2.84,7.57.73,1.37,1.53,2.7,2.34,3.83.81,1.13,1.62,2.07,2.42,2.69,2.45,1.86,5.5,2.87,8.57,2.87.67,0,1.34-.05,2.01-.15,2.99-.46,5.8-1.78,8.41-1.77.54,0,1.08.05,1.61.18,1.74.41,3.1,1.33,4.34,2.54,1.85,1.82,3.34,4.32,5.12,6.51,1.77,2.19,3.92,4.12,7.08,4.56.37.05.74.08,1.11.08,1.65,0,3.26-.49,4.7-1.2,2.28-1.14,4.87-2.83,6.2-5.3.79-1.49,1.07-3.12,1.07-4.75,0-1.29-.17-2.58-.42-3.81-.54-2.7-1.35-5.28-1.34-7.84v-.2c0-.65.1-1.24.36-1.65.22-.35.57-.6,1.02-.77.45-.17,1.01-.24,1.56-.24h.34c.76.05,1.58.17,2.45.18.56,0,1.13-.05,1.71-.24,1.36-.44,2.31-1.47,2.88-2.66.58-1.2.83-2.58.83-3.9,0-.19,0-.38-.02-.57-.11-1.98-.57-3.89-.56-5.66,0-.65.06-1.27.2-1.88.22-.93.7-1.77,1.38-2.12.55-.31,1.4-.34,2.33-.65,1.18-.39,1.92-1.24,2.28-2.15.37-.91.43-1.87.43-2.71,0-.63-.04-1.19-.04-1.56v-.25c.04-.37-.23-.69-.6-.72-.37-.03-.69.24-.72.61,0,.11-.01.23-.01.35,0,.45.04.99.04,1.56,0,.76-.07,1.57-.33,2.2-.27.64-.67,1.11-1.48,1.39-.66.24-1.59.25-2.53.73-1.19.64-1.78,1.86-2.05,2.99-.18.73-.24,1.47-.24,2.19,0,1.99.47,3.91.57,5.73,0,.16.01.33.01.49,0,1.15-.23,2.36-.69,3.32-.47.97-1.15,1.67-2.09,1.97-.4.13-.83.18-1.3.18-.73,0-1.54-.12-2.38-.17-.14,0-.27-.01-.41-.01-.67,0-1.37.08-2.02.33-.65.24-1.28.66-1.69,1.31-.47.76-.54,1.61-.56,2.33v.22c0,2.83.86,5.5,1.36,8.1.23,1.17.39,2.38.39,3.56,0,1.48-.25,2.89-.91,4.12-1.07,2.04-3.44,3.65-5.61,4.73-1.3.65-2.72,1.06-4.11,1.06-.31,0-.62-.02-.93-.06-1.8-.26-3.2-1.05-4.45-2.18-1.88-1.69-3.38-4.14-5.13-6.39-1.74-2.24-3.79-4.31-6.84-5.03-.64-.15-1.28-.21-1.91-.21-3.03.01-5.87,1.39-8.6,1.78-.6.09-1.21.13-1.81.13-2.77,0-5.56-.92-7.76-2.6-.62-.47-1.38-1.33-2.14-2.4-1.15-1.61-2.32-3.69-3.23-5.69-.91-1.99-1.57-3.91-1.71-5.1-.05-.37-.38-.63-.74-.58s-.63.38-.58.74"/>
  <path id="path100" class="cls-5" d="m194.33,102.7c-.5,2.32-1.54,5.07-2.95,7.55-1.4,2.49-3.18,4.72-5.06,6.05-3.9,2.78-8.56,4.42-13.3,5.53-3.2.75-6.69,1.31-9.57,3.34-2.05,1.45-3.52,3.47-4.85,5.44-.91,1.35-1.92,2.94-1.93,4.78,0,.25.02.51.06.77.26,1.51,1.2,2.62,2.28,3.49,1.09.88,2.34,1.57,3.39,2.28,2.07,1.39,3.81,3.34,4.6,5.63.72,2.08.66,4.45.9,6.86.25,2.42.93,5.09,2.98,6.79,1.72,1.41,3.86,1.7,5.87,1.99,2.03.28,3.94.54,5.37,1.57.74.53,1.36,1.26,1.98,2.07.62.81,1.25,1.68,2.07,2.44,1.66,1.51,4.41,2.32,6.78,2.34.49,0,.97-.04,1.41-.12.36-.07.6-.41.54-.77-.07-.36-.41-.6-.77-.54-.36.07-.75.1-1.18.1-2.05.01-4.63-.81-5.88-1.98-.69-.64-1.28-1.45-1.92-2.27-.64-.83-1.33-1.68-2.26-2.34-1.8-1.28-3.95-1.52-5.96-1.8-2.02-.27-3.87-.59-5.21-1.7-1.6-1.3-2.27-3.61-2.5-5.9-.24-2.29-.15-4.77-.97-7.16-.91-2.64-2.86-4.79-5.12-6.31-1.11-.75-2.34-1.43-3.3-2.21-.96-.78-1.63-1.62-1.81-2.68-.03-.18-.04-.36-.04-.54-.01-1.3.8-2.72,1.7-4.03,1.32-1.95,2.71-3.82,4.52-5.1,2.53-1.8,5.84-2.38,9.1-3.13,4.84-1.13,9.66-2.82,13.77-5.74,2.12-1.51,3.97-3.88,5.45-6.49,1.47-2.6,2.56-5.44,3.09-7.93.08-.36-.15-.71-.51-.79-.36-.08-.71.15-.79.51"/>
  <path id="path102" class="cls-5" d="m93.01,129.2l-.21-.63c-4.29,1.43-8.32,4.54-9.65,9.01-.23.79-.38,1.63-.38,2.47,0,.69.1,1.39.33,2.06.64,1.88,2.06,3.12,3.53,4.2,1.47,1.08,3.02,2.04,4.1,3.25,1.74,1.93,2.46,4.75,3.87,7.33,2.06,3.71,5.36,6.35,7.69,9.54,1.84,2.5,3.16,5.39,4.55,8.3,1.39,2.9,2.85,5.81,5.02,8.31.4.46.87.92,1.42,1.28.55.36,1.19.64,1.91.64.21,0,.42-.02.63-.07.81-.19,1.41-.74,1.81-1.36.4-.62.64-1.34.77-2.02.13-.73.19-1.47.19-2.19,0-2.37-.52-4.69-.51-6.83,0-1.02.11-1.99.42-2.92.92-2.82,3.6-4.85,6.1-7,1.18-1.03,2.36-2.23,3.27-3.58.9-1.35,1.53-2.89,1.53-4.56,0-.21-.01-.43-.03-.64-.16-1.51-.78-2.8-.96-4.02-.06-.37-.09-.74-.09-1.11,0-1.68.56-3.45,1.16-5.27.59-1.82,1.22-3.68,1.22-5.6,0-.82-.12-1.65-.41-2.47-.78-2.22-2.55-3.66-4.57-4.61-2.03-.95-4.36-1.44-6.48-1.79-5.28-.87-10.71-1.9-16.15-1.9-3.43,0-6.86.41-10.26,1.55l.21.63.21.63c3.23-1.08,6.51-1.48,9.83-1.48,5.28,0,10.64,1.01,15.94,1.88,2.07.34,4.29.82,6.13,1.68,1.84.86,3.25,2.06,3.88,3.84.23.67.33,1.34.33,2.03,0,1.62-.56,3.37-1.15,5.19-.59,1.82-1.22,3.71-1.22,5.68,0,.44.03.88.1,1.32.25,1.47.85,2.73.95,3.93.02.17.03.34.03.51,0,1.33-.5,2.61-1.31,3.82-.8,1.21-1.9,2.33-3.03,3.31-2.41,2.12-5.36,4.23-6.49,7.59-.37,1.11-.49,2.23-.49,3.34,0,2.35.52,4.66.51,6.83,0,.67-.05,1.32-.16,1.95-.1.54-.3,1.11-.57,1.53-.28.43-.61.69-1.01.79l-.32.04c-.36,0-.76-.15-1.17-.42-.41-.27-.81-.65-1.15-1.05-2.03-2.32-3.44-5.12-4.82-8.01-1.38-2.89-2.73-5.86-4.68-8.51-2.49-3.36-5.73-5.98-7.6-9.39-1.32-2.36-2.02-5.3-4.04-7.58-1.27-1.41-2.9-2.4-4.31-3.44-1.42-1.04-2.57-2.1-3.06-3.55-.17-.52-.25-1.07-.25-1.64,0-.69.12-1.41.32-2.1,1.14-3.9,4.8-6.79,8.8-8.13l-.21-.63"/>
  <path id="path104" class="cls-4" d="m228.5,101.78c1.49.79,3.26,1.1,4.91.73,1.65-.37,3.15-1.45,3.93-2.95.42-.81.62-1.72.77-2.62.16-.99.25-2.01.02-2.99-.32-1.38-1.21-2.86-2.11-3.96,1.01-1.48,1.27-3.42.8-5.15-.47-1.73-1.62-3.24-3.09-4.27-2.29-1.6-5.78-2.19-8.41-1.24-1.72-.86-3.57-1.61-5.49-1.6-2.17.01-4.32,1.05-5.69,2.74-1.36,1.69-1.87,4.37-1.41,6.49-1.95.88-3.36,2.83-3.58,4.95-.11,1.08.06,2.17.31,3.22.29,1.22.71,2.44,1.5,3.41,1.13,1.38,3,2.12,4.76,1.88.38,1.6,1.2,3.06,2.55,4.01,1.34.95,3,1.43,4.64,1.44.85,0,1.72-.12,2.5-.45,1.61-.69,2.44-2.02,3.09-3.65"/>
  <path id="path106" class="cls-2" d="m220.27,94.43c.35.47.85.83,1.38,1.08,1.66.79,3.82.63,5.21-.56,2.65-2.25.97-6.68-2.41-7.17-3.54-.51-6.25,3.81-4.18,6.64"/>
  <path id="path108" class="cls-4" d="m26.86,149.58c.31,1.85,1.23,3.62,2.68,4.83,1.44,1.2,3.41,1.8,5.26,1.47,1-.18,1.93-.61,2.83-1.1.98-.53,1.95-1.14,2.65-2.01,1-1.22,1.7-3.01,2.06-4.54,1.99-.11,3.87-1.19,5.08-2.78s1.76-3.62,1.67-5.61c-.14-3.1-1.99-6.58-4.6-8.26-.4-2.1-.99-4.23-2.31-5.92-1.48-1.91-3.85-3.1-6.26-3.16-2.42-.05-5.12,1.31-6.68,3.15-2.09-1.12-4.77-1.05-6.8.19-1.03.63-1.87,1.52-2.63,2.46-.87,1.08-1.67,2.27-1.99,3.63-.46,1.93.16,4.07,1.57,5.47-1.15,1.42-1.88,3.13-1.81,4.96.07,1.83.77,3.61,1.87,5.06.57.76,1.27,1.44,2.09,1.9,1.7.95,3.43.78,5.3.26"/>
  <path id="path110" class="cls-2" d="m27.77,137.36c-.18.63-.16,1.31-.02,1.95.43,2,2.03,3.79,4.02,4.22,3.78.82,6.55-3.67,4.69-6.98-1.95-3.47-7.59-2.94-8.69.81"/>
  <path id="path112" class="cls-4" d="m225.81,167.55c.62,1.77,1.84,3.36,3.47,4.3,1.63.94,3.67,1.19,5.43.55.95-.35,1.8-.94,2.6-1.57.88-.69,1.72-1.46,2.27-2.43.78-1.37,1.16-3.26,1.26-4.83,1.94-.45,3.61-1.84,4.53-3.61s1.11-3.87.69-5.81c-.67-3.03-3.08-6.14-5.95-7.35-.75-2-1.71-4-3.29-5.44-1.79-1.63-4.32-2.4-6.71-2.04-2.39.36-4.82,2.16-6.04,4.24-2.25-.75-4.88-.21-6.66,1.35-.9.79-1.58,1.82-2.17,2.87-.68,1.21-1.25,2.53-1.34,3.91-.12,1.98.85,3.99,2.48,5.12-.89,1.59-1.32,3.41-.93,5.2.39,1.79,1.38,3.42,2.71,4.67.69.65,1.49,1.2,2.39,1.51,1.84.64,3.51.18,5.27-.66"/>
  <path id="path114" class="cls-5" d="m224.61,155.35c-.07.65.07,1.31.32,1.93.76,1.9,2.65,3.38,4.68,3.47,3.87.16,5.83-4.73,3.42-7.68-2.51-3.08-7.98-1.6-8.42,2.28"/>
  <g id="g346">
    <g id="text350" class="cls-3">
      <g class="cls-3">
        <path class="cls-2" d="m70.19,73.48l-15.17-15.5,3.15-3.09,12.59,12.86,7.84-7.68,2.58,2.63-11,10.76Z"/>
      </g>
    </g>
    <g id="text354" class="cls-3">
      <g class="cls-3">
        <path class="cls-2" d="m77.77,66.36l-13.22-17.41,12.91-9.81,2.24,2.95-9.39,7.14,2.93,3.86,8.74-6.64,2.23,2.93-8.74,6.64,3.6,4.74,9.73-7.39,2.23,2.93-13.24,10.06Z"/>
      </g>
    </g>
    <g id="text358" class="cls-3">
      <g class="cls-3">
        <path class="cls-2" d="m91.13,57.29l-9.15-15.69-5.6,3.27-1.86-3.19,15.01-8.75,1.86,3.19-5.59,3.26,9.15,15.69-3.81,2.22Z"/>
      </g>
    </g>
    <g id="text362" class="cls-3">
      <g class="cls-3">
        <path class="cls-2" d="m86.55,35.14l3.82-1.72,1.23,2.73c.5,1.11.79,2.02.89,2.75.1.73,0,1.46-.31,2.21-.3.75-.8,1.45-1.48,2.11l-1.46-1.24c.66-.6,1.05-1.2,1.17-1.79.13-.59.03-1.28-.3-2.06l-1.85.83-1.72-3.82Z"/>
      </g>
    </g>
    <g id="text366" class="cls-3">
      <g class="cls-3">
        <path class="cls-2" d="m99.81,45.3l3.97-1.68c.68,1.3,1.5,2.15,2.45,2.56.96.41,2.07.41,3.36,0,1.36-.42,2.29-1.03,2.8-1.82.51-.79.64-1.57.4-2.34-.16-.49-.43-.87-.83-1.12-.4-.25-1-.4-1.8-.43-.55-.02-1.77.03-3.66.15-2.43.15-4.23-.04-5.4-.57-1.64-.75-2.72-1.94-3.24-3.59-.33-1.06-.34-2.15-.03-3.26.31-1.11.96-2.09,1.94-2.93s2.27-1.51,3.88-2.01c2.62-.82,4.77-.86,6.45-.13,1.68.73,2.86,2.05,3.53,3.94l-4.15,1.51c-.52-1.02-1.14-1.66-1.88-1.95-.74-.28-1.7-.24-2.89.13-1.22.38-2.1.94-2.64,1.65-.34.46-.43.96-.26,1.51.15.49.5.85,1.02,1.07.67.28,2.11.34,4.31.18,2.2-.16,3.87-.13,5.02.08,1.14.21,2.13.68,2.97,1.4.84.72,1.46,1.74,1.87,3.06.37,1.2.39,2.42.06,3.67-.34,1.25-1.03,2.32-2.09,3.21-1.05.89-2.49,1.62-4.3,2.18-2.64.83-4.85.85-6.65.08-1.79-.78-3.2-2.29-4.2-4.54Z"/>
      </g>
    </g>
    <g id="text370" class="cls-3">
      <g class="cls-3">
        <path class="cls-2" d="m119.81,47.36l-2.02-21.77,9.25-.86c2.33-.22,4.04-.18,5.12.12,1.09.29,2,.91,2.73,1.85.73.94,1.15,2.05,1.27,3.34.15,1.63-.2,3.03-1.06,4.18-.86,1.15-2.23,1.96-4.12,2.41,1,.47,1.84,1,2.52,1.61.68.61,1.62,1.71,2.83,3.3l3.05,4-5.26.49-3.62-4.44c-1.29-1.59-2.16-2.58-2.61-2.99-.46-.4-.93-.66-1.41-.78-.48-.12-1.23-.13-2.24-.04l-.89.08.84,9.09-4.39.41Zm3.23-12.97l3.25-.3c2.11-.2,3.42-.41,3.92-.63.51-.23.89-.57,1.15-1.04.26-.46.35-1.02.29-1.67-.07-.73-.32-1.31-.75-1.72-.43-.41-1.01-.65-1.73-.7-.36-.02-1.43.06-3.21.22l-3.43.32.51,5.52Z"/>
      </g>
    </g>
    <g id="text374" class="cls-3">
      <g class="cls-3">
        <path class="cls-2" d="m133.75,46.44l1.11-21.83,16.19.82-.19,3.69-11.78-.6-.25,4.84,10.96.56-.19,3.68-10.96-.56-.3,5.94,12.2.62-.19,3.68-16.61-.84Z"/>
      </g>
    </g>
    <g id="text378" class="cls-3">
      <g class="cls-3">
        <path class="cls-2" d="m160.14,41.97l3.94,2.16c-1.1,2.21-2.52,3.74-4.24,4.59-1.72.84-3.73,1.04-6.03.59-2.85-.56-5-1.99-6.45-4.3-1.45-2.31-1.85-5.15-1.19-8.52.7-3.57,2.17-6.16,4.4-7.78s4.85-2.13,7.85-1.54c2.62.51,4.61,1.71,5.94,3.58.8,1.11,1.27,2.57,1.42,4.38l-4.49.18c-.04-1.16-.39-2.14-1.07-2.95-.68-.8-1.59-1.32-2.75-1.54-1.59-.31-2.99,0-4.21.95s-2.07,2.7-2.57,5.25c-.53,2.71-.42,4.74.33,6.08.75,1.34,1.9,2.17,3.46,2.47,1.15.23,2.21.05,3.19-.51.97-.57,1.79-1.6,2.46-3.1Z"/>
      </g>
    </g>
    <g id="text382" class="cls-3">
      <g class="cls-3">
        <path class="cls-2" d="m163.55,52.04l3.1-8.66-3.27-14.62,4.87,1.75,1.93,9.88,7.66-6.44,4.79,1.71-11.85,9.24-3.09,8.63-4.14-1.48Z"/>
      </g>
    </g>
    <g id="text386" class="cls-3">
      <g class="cls-3">
        <path class="cls-2" d="m185.73,54l3.12,3.22c-1.71,1.79-3.51,2.83-5.4,3.13-1.89.29-3.87-.11-5.94-1.23-2.56-1.38-4.19-3.38-4.89-6.01-.7-2.63-.24-5.46,1.39-8.49,1.73-3.2,3.89-5.25,6.5-6.13,2.61-.88,5.26-.6,7.96.86,2.35,1.27,3.89,3,4.61,5.18.43,1.29.45,2.83.06,4.61l-4.34-1.15c.31-1.12.26-2.16-.15-3.13-.41-.97-1.13-1.73-2.17-2.29-1.43-.77-2.86-.88-4.3-.33s-2.78,1.96-4.01,4.26c-1.31,2.43-1.81,4.4-1.49,5.91.32,1.5,1.18,2.63,2.58,3.39,1.03.56,2.1.71,3.2.45,1.1-.26,2.19-1,3.27-2.24Z"/>
      </g>
    </g>
    <g id="text390" class="cls-3">
      <g class="cls-3">
        <path class="cls-2" d="m181.56,61.32l12.84-17.47,3.56,2.61-10.66,14.51,8.85,6.5-2.18,2.97-12.4-9.11Z"/>
      </g>
    </g>
    <g id="text394" class="cls-3">
      <g class="cls-3">
        <path class="cls-2" d="m189.82,67.65l15.04-15.87,11.77,11.15-2.54,2.68-8.56-8.11-3.33,3.52,7.97,7.55-2.53,2.67-7.97-7.55-4.09,4.32,8.87,8.4-2.53,2.67-12.07-11.44Z"/>
      </g>
    </g>
  </g>
  <g id="g396">
    <g id="text400" class="cls-3">
      <g class="cls-3">
        <path class="cls-4" d="m47.71,196.3l3.07,3.06c-.95,1.12-1.44,2.21-1.46,3.25-.02,1.05.4,2.09,1.26,3.13.91,1.1,1.83,1.74,2.76,1.92s1.7,0,2.33-.51c.4-.33.64-.73.73-1.2.09-.47,0-1.08-.28-1.84-.19-.51-.7-1.63-1.52-3.35-1.06-2.21-1.56-3.96-1.51-5.25.07-1.81.78-3.27,2.12-4.38.86-.71,1.87-1.13,3.03-1.27,1.16-.13,2.31.1,3.46.7,1.15.6,2.27,1.55,3.34,2.85,1.76,2.13,2.61,4.12,2.57,5.96-.04,1.85-.82,3.44-2.34,4.78l-2.98-3.3c.75-.87,1.12-1.7,1.1-2.49-.02-.8-.42-1.68-1.22-2.64-.82-1-1.67-1.61-2.54-1.83-.56-.15-1.06-.04-1.5.33-.4.33-.6.78-.61,1.36,0,.73.48,2.09,1.46,4.08.98,1.99,1.59,3.56,1.83,4.7.24,1.15.18,2.24-.18,3.3-.36,1.05-1.07,2.02-2.14,2.91-.97.8-2.1,1.28-3.4,1.44-1.29.16-2.55-.08-3.78-.73-1.23-.65-2.45-1.71-3.66-3.18-1.77-2.14-2.63-4.2-2.59-6.17.04-1.97.92-3.84,2.63-5.63Z"/>
      </g>
    </g>
    <g id="text404" class="cls-3">
      <g class="cls-3">
        <path class="cls-4" d="m63.77,208.15l-2.4-3.06c1.34-.87,2.65-1.23,3.93-1.08,1.28.15,2.69.9,4.23,2.28,1.41,1.25,2.3,2.34,2.7,3.29.39.94.5,1.8.33,2.56-.17.76-.87,1.82-2.08,3.19l-3.3,3.65c-.93,1.05-1.56,1.86-1.91,2.45-.34.59-.62,1.29-.85,2.1l-3.12-2.77c.1-.28.28-.68.53-1.2.11-.23.19-.39.22-.47-1,.04-1.93-.07-2.77-.36-.84-.28-1.62-.73-2.31-1.35-1.23-1.09-1.9-2.28-2.01-3.57-.12-1.29.28-2.45,1.18-3.46.6-.67,1.29-1.13,2.08-1.37.79-.24,1.6-.25,2.43,0,.83.23,1.88.73,3.16,1.49,1.72,1.03,2.97,1.68,3.75,1.95l.28-.31c.54-.61.77-1.17.7-1.69-.07-.52-.52-1.15-1.35-1.89-.56-.5-1.09-.78-1.61-.83-.51-.06-1.11.1-1.79.48Zm1.94,6.3c-.52-.22-1.3-.63-2.35-1.22-1.04-.59-1.77-.92-2.2-.97-.67-.07-1.2.11-1.6.56-.39.44-.57.97-.52,1.58.04.61.32,1.15.83,1.6.57.5,1.28.8,2.12.88.63.05,1.19-.07,1.68-.38.32-.2.82-.67,1.49-1.43l.56-.63Z"/>
      </g>
    </g>
    <g id="text408" class="cls-3">
      <g class="cls-3">
        <path class="cls-4" d="m71.85,228.32l3.25-16.86,3.72,2.4-1.89,8.46-.74,2.75c.57-.45.94-.76,1.11-.91.36-.3.73-.6,1.11-.89l6.96-5.18,3.64,2.35-13.96,9.95-3.19-2.06Z"/>
      </g>
    </g>
    <g id="text412" class="cls-3">
      <g class="cls-3">
        <path class="cls-4" d="m92.83,233.56l3.54,2.36c-1.12,1.18-2.38,1.91-3.77,2.16-1.39.26-2.89.03-4.48-.69-2.53-1.13-4.03-2.8-4.5-4.99-.37-1.75-.1-3.64.81-5.65,1.08-2.41,2.55-4.01,4.42-4.81,1.87-.8,3.77-.77,5.69.09,2.16.97,3.55,2.45,4.16,4.43.61,1.99.23,4.44-1.15,7.37l-9.63-4.32c-.48,1.15-.57,2.18-.26,3.08.31.9.91,1.55,1.79,1.95.6.27,1.18.33,1.74.19.56-.14,1.1-.54,1.64-1.17Zm1.96-3.79c.47-1.12.56-2.1.28-2.92-.29-.82-.83-1.41-1.61-1.76-.84-.38-1.67-.38-2.49-.02-.82.37-1.46,1.08-1.92,2.13l5.75,2.57Z"/>
      </g>
    </g>
    <g id="text416" class="cls-3">
      <g class="cls-3">
        <path class="cls-4" d="m111.41,244.21l3.77-17.87-6.38-1.35.77-3.64,17.1,3.6-.77,3.64-6.37-1.34-3.77,17.87-4.34-.92Z"/>
      </g>
    </g>
    <g id="text420" class="cls-3">
      <g class="cls-3">
        <path class="cls-4" d="m126.09,224.02l-.5,8.07c1.46-1.5,3.13-2.2,5.01-2.08.97.06,1.83.29,2.59.7.76.41,1.31.9,1.67,1.49.36.58.59,1.22.69,1.91.1.69.11,1.75.02,3.17l-.57,9.33-4.21-.26.52-8.4c.1-1.67.09-2.73-.05-3.19-.13-.46-.39-.83-.78-1.12-.39-.29-.89-.45-1.49-.49-.7-.04-1.33.09-1.9.39-.57.31-1,.79-1.3,1.46-.3.67-.49,1.67-.57,3.01l-.49,7.96-4.21-.26,1.35-21.94,4.21.26Z"/>
      </g>
    </g>
    <g id="text424" class="cls-3">
      <g class="cls-3">
        <path class="cls-4" d="m148.37,240.19l4.25.28c-.38,1.59-1.11,2.84-2.19,3.76-1.08.92-2.49,1.47-4.23,1.64-2.75.28-4.89-.42-6.39-2.08-1.19-1.34-1.9-3.1-2.12-5.3-.26-2.62.21-4.75,1.44-6.38s2.88-2.54,4.98-2.76c2.36-.24,4.3.35,5.82,1.77,1.52,1.42,2.41,3.74,2.68,6.96l-10.5,1.06c.16,1.24.59,2.17,1.31,2.8.72.63,1.56.89,2.52.79.66-.07,1.19-.3,1.6-.71.41-.4.69-1.01.84-1.83Zm-.19-4.26c-.15-1.21-.56-2.1-1.22-2.67s-1.42-.81-2.27-.73c-.92.09-1.64.5-2.17,1.23-.53.73-.73,1.66-.61,2.8l6.27-.63Z"/>
      </g>
    </g>
    <g id="text428" class="cls-3">
      <g class="cls-3">
        <path class="cls-4" d="m165.2,241.69l-6.93-20.86,15.47-5.14,1.17,3.53-11.26,3.74,1.54,4.62,10.47-3.48,1.17,3.51-10.47,3.48,1.89,5.68,11.66-3.87,1.17,3.51-15.87,5.27Z"/>
      </g>
    </g>
    <g id="text432" class="cls-3">
      <g class="cls-3">
        <path class="cls-4" d="m177.65,224.98l-3.72,1.12c-.32-1.57-.17-2.92.42-4.05.6-1.14,1.82-2.17,3.67-3.11,1.67-.85,3.02-1.29,4.04-1.31,1.02-.02,1.85.19,2.5.63.64.44,1.38,1.48,2.21,3.11l2.19,4.4c.64,1.25,1.16,2.13,1.59,2.67s.97,1.05,1.65,1.56l-3.71,1.89c-.22-.2-.53-.51-.93-.92-.18-.19-.29-.32-.36-.37-.32.95-.77,1.77-1.34,2.45-.57.68-1.27,1.24-2.1,1.66-1.46.75-2.82.93-4.06.57-1.25-.36-2.18-1.15-2.8-2.36-.41-.8-.58-1.61-.52-2.44.06-.82.35-1.58.87-2.26s1.37-1.49,2.54-2.4c1.59-1.22,2.65-2.15,3.18-2.78l-.19-.37c-.37-.72-.81-1.15-1.32-1.27-.51-.12-1.26.06-2.25.57-.67.34-1.12.74-1.36,1.19-.24.45-.31,1.07-.2,1.85Zm6.58.48c-.4.41-1.06.99-1.99,1.74-.93.75-1.5,1.32-1.71,1.7-.31.6-.33,1.16-.06,1.7.27.53.7.88,1.28,1.06.59.18,1.18.12,1.79-.19.68-.34,1.21-.9,1.6-1.66.28-.57.37-1.14.26-1.7-.07-.37-.33-1.01-.79-1.91l-.38-.75Z"/>
      </g>
    </g>
    <g id="text436" class="cls-3">
      <g class="cls-3">
        <path class="cls-4" d="m198.95,225.1l-3.45,2.43-9.17-13.02,3.2-2.25,1.3,1.85c-.07-1.26.02-2.18.26-2.77.24-.58.64-1.07,1.2-1.47.79-.55,1.69-.87,2.73-.95l1.05,3.75c-.84.03-1.52.22-2.02.58-.48.34-.8.76-.95,1.26-.15.5-.07,1.17.22,2s1.23,2.35,2.78,4.57l2.83,4.02Z"/>
      </g>
    </g>
    <g id="text440" class="cls-3">
      <g class="cls-3">
        <path class="cls-4" d="m201.37,202.45l2.24,2.5-2.15,1.92,4.28,4.79c.87.97,1.39,1.51,1.58,1.64s.4.17.63.15c.24-.03.46-.13.67-.32.29-.26.62-.74.99-1.43l2.45,2.2c-.45.97-1.14,1.86-2.06,2.69-.57.51-1.16.87-1.79,1.08-.62.22-1.18.27-1.66.16-.48-.11-.99-.39-1.54-.83-.39-.31-1.09-1.01-2.08-2.12l-4.63-5.18-1.44,1.29-2.24-2.5,1.44-1.29-2.11-2.36,1.51-4.65,3.75,4.19,2.15-1.92Z"/>
      </g>
    </g>
    <g id="text444" class="cls-3">
      <g class="cls-3">
        <path class="cls-4" d="m202,192.77l6.18,5.21c-.34-2.06.1-3.82,1.32-5.26.62-.74,1.33-1.29,2.11-1.66.78-.36,1.51-.52,2.19-.46.68.06,1.33.25,1.94.58.61.33,1.47.95,2.56,1.87l7.14,6.02-2.72,3.22-6.43-5.42c-1.28-1.08-2.14-1.7-2.58-1.87-.45-.17-.9-.18-1.37-.04-.46.14-.89.44-1.29.91-.45.54-.72,1.12-.82,1.76-.09.64.04,1.28.4,1.92.36.64,1.05,1.39,2.07,2.25l6.1,5.14-2.72,3.22-16.8-14.18,2.72-3.22Z"/>
      </g>
    </g>
  </g>
</svg>