<?xml version="1.0" encoding="UTF-8"?>
<svg id="Layer_1" data-name="Layer 1" xmlns="http://www.w3.org/2000/svg" viewBox="0 0 330.59 219.64">
  <defs>
    <style>
      .cls-1 {
        fill: #226d33;
      }

      .cls-2 {
        isolation: isolate;
      }

      .cls-3 {
        fill: #27b586;
      }

      .cls-4 {
        fill: #e8e9d9;
      }
    </style>
  </defs>
  <path id="path176" class="cls-4" d="m292.85,1.13c-24.37-3.65-49.39,1.59-70.45,14.78-3.56,2.23-7.21,4.8-11.48,8.08-3.06,2.35-6.07,4.79-8.99,7.16-2.83,2.29-5.76,4.66-8.63,6.87-7.13,5.48-15.73,11.46-25.48,14.19-13.64,3.82-28.24,1.17-43.69-1.65-6.33-1.15-12.87-2.34-19.42-3.08-22.85-2.56-44.33.91-62.12,10.04-4.57,2.35-8.97,5.13-13.07,8.29-14.11,10.85-24.2,25.63-28.41,41.61l-1.12,4.26,3,3.23c7.26,7.81,10.87,19.72,14.36,31.25l.22.73c1.33,4.4,2.3,8.95,3.31,13.76.19.91.38,1.81.58,2.71,1.65,7.69,4.07,17.7,8.18,26.98,4.53,10.22,10.31,17.9,17.69,23.49l7.66,5.8,4.32-8.59.81-1.61c5.15-10.26,11.56-23.04,19.34-29.4.29-.24.59-.48.89-.71,8.15-6.27,19.23-9.72,34.87-10.84,11.26-.81,22.63-.42,33.8,1.15,2.27.32,4.62.7,6.89,1.07,8.23,1.33,16.75,2.71,25.64,2.03,18.76-1.44,34.07-11.46,46.57-21.08,3.97-3.05,7.92-6.28,11.74-9.41,3.76-3.07,7.65-6.25,11.5-9.22,7.15-5.5,16.71-12.28,27.25-15.97,9.1-3.19,23.25-4.73,39.86-4.36l4.62.1,2.4-3.95c6.1-10.04,6.76-23.68,1.82-37.42-2.74-7.62-6.7-14.39-10.53-20.94-1.6-2.74-3.11-5.32-4.54-7.97-5.22-9.67-9.88-22.52-12.78-35.25l-1.21-5.33-5.4-.81"/>
  <path id="path178" class="cls-1" d="m215.8,30.33c-5.95,4.57-11.71,9.48-17.62,14.03-8.71,6.7-17.75,12.63-28.2,15.55-21.51,6.03-44.01-2-66.16-4.48-19.56-2.19-39.94.16-57.58,9.21-4.14,2.13-8.12,4.65-11.84,7.51-12.13,9.33-21.6,22.32-25.55,37.31,8.69,9.35,12.63,22.74,16.38,35.1,1.7,5.61,2.83,11.38,4.06,17.12,3.68,17.15,9.16,35.37,22.88,45.77,5.61-11.15,12.68-25.79,22.22-33.61.36-.29.72-.58,1.08-.86,11.07-8.52,25.35-11.49,39.17-12.48,11.83-.85,23.74-.44,35.49,1.21,10.24,1.44,20.49,3.83,30.81,3.04,15.92-1.22,29.36-9.48,42.31-19.44,7.78-5.98,15.38-12.57,23.24-18.62,9.23-7.1,18.82-13.45,29.48-17.18,12.44-4.36,29.55-5.1,42.68-4.81,5.44-8.96,4.69-20.66,1.13-30.56-3.56-9.9-9.6-18.6-14.58-27.82-6.04-11.18-10.71-24.82-13.54-37.28-22.31-3.35-45.73,1.57-65.02,13.65-3.72,2.33-7.32,4.93-10.84,7.64"/>
  <path id="path180" class="cls-3" d="m33.29,117.81c.91.59,2.02.89,3.09.75,1.07-.14,2.09-.74,2.67-1.66.31-.49.49-1.06.64-1.63.16-.62.27-1.27.18-1.91-.13-.9-.61-1.89-1.12-2.65.73-.89,1-2.11.8-3.24-.2-1.13-.85-2.16-1.73-2.9-1.37-1.15-3.57-1.72-5.3-1.27-1.05-.65-2.18-1.23-3.41-1.33-1.39-.12-2.82.42-3.78,1.43s-1.44,2.68-1.27,4.06c-1.29.45-2.31,1.62-2.57,2.96-.13.68-.08,1.39.02,2.07.12.79.31,1.59.76,2.26.64.95,1.79,1.52,2.93,1.47.15,1.04.59,2.02,1.4,2.7.8.68,1.83,1.08,2.88,1.18.54.05,1.1.02,1.62-.15,1.06-.35,1.67-1.15,2.18-2.15"/>
  <path id="path182" class="cls-4" d="m28.45,112.66c.19.32.49.58.82.77,1.01.6,2.4.61,3.35-.06,1.82-1.29,1-4.21-1.13-4.71-2.23-.52-4.21,2.07-3.04,4"/>
  <path id="path184" class="cls-3" d="m301.53,86.48c1.34.87,2.97,1.31,4.55,1.1,1.58-.21,3.08-1.09,3.94-2.44.46-.73.73-1.56.94-2.4.23-.92.4-1.87.27-2.81-.19-1.32-.9-2.79-1.65-3.9,1.07-1.31,1.48-3.11,1.18-4.77-.29-1.66-1.25-3.18-2.55-4.27-2.02-1.69-5.25-2.54-7.8-1.87-1.54-.95-3.22-1.81-5.03-1.96-2.04-.17-4.15.62-5.57,2.1-1.42,1.48-2.12,3.95-1.87,5.98-1.9.66-3.39,2.38-3.78,4.36-.2,1-.12,2.04.03,3.05.17,1.17.47,2.35,1.13,3.33.94,1.39,2.64,2.24,4.32,2.16.22,1.53.88,2.97,2.06,3.98,1.18,1,2.7,1.59,4.24,1.74.8.08,1.62.03,2.39-.22,1.57-.52,2.46-1.69,3.21-3.17"/>
  <path id="path186" class="cls-4" d="m294.41,78.9c.29.47.73.85,1.21,1.13,1.5.88,3.53.91,4.94-.09,2.68-1.89,1.47-6.2-1.67-6.94-3.29-.77-6.19,3.06-4.48,5.89"/>
  <path id="path188" class="cls-4" d="m286.71,50.19c.92.6,2.05.9,3.14.76,1.09-.15,2.13-.75,2.72-1.68.32-.5.5-1.08.65-1.65.16-.63.28-1.29.19-1.94-.13-.91-.62-1.92-1.14-2.69.74-.9,1.02-2.14.81-3.29-.2-1.15-.86-2.19-1.76-2.94-1.39-1.17-3.62-1.75-5.38-1.29-1.06-.66-2.22-1.25-3.47-1.35-1.41-.12-2.86.43-3.84,1.45-.98,1.02-1.46,2.72-1.29,4.13-1.31.46-2.34,1.64-2.61,3.01-.14.69-.09,1.41.02,2.11.12.8.32,1.62.78,2.29.65.96,1.82,1.55,2.98,1.49.15,1.06.6,2.05,1.42,2.74.82.69,1.86,1.1,2.93,1.2.55.05,1.12.02,1.65-.15,1.08-.36,1.7-1.17,2.21-2.19"/>
  <path id="path190" class="cls-3" d="m281.79,44.95c.2.33.5.59.83.78,1.03.61,2.44.63,3.41-.06,1.85-1.31,1.01-4.28-1.15-4.78-2.27-.53-4.27,2.11-3.09,4.06"/>
  <path id="path192" class="cls-4" d="m47.59,96.82c.92.6,2.05.9,3.14.76,1.09-.15,2.13-.75,2.72-1.68.32-.5.5-1.08.65-1.65.16-.63.28-1.29.19-1.94-.13-.91-.62-1.92-1.14-2.69.74-.9,1.02-2.14.81-3.29-.2-1.15-.86-2.19-1.76-2.94-1.39-1.17-3.62-1.75-5.38-1.29-1.07-.66-2.22-1.25-3.47-1.35-1.41-.12-2.86.43-3.84,1.45-.98,1.02-1.46,2.72-1.29,4.13-1.31.46-2.34,1.64-2.61,3.01-.13.69-.09,1.41.02,2.1.12.81.32,1.62.78,2.29.65.96,1.82,1.55,2.98,1.49.15,1.06.61,2.05,1.42,2.74.82.69,1.86,1.1,2.93,1.2.55.05,1.12.02,1.65-.15,1.08-.36,1.7-1.17,2.21-2.19"/>
  <path id="path194" class="cls-3" d="m42.68,91.58c.2.33.5.59.84.78,1.03.61,2.44.63,3.41-.06,1.85-1.31,1.01-4.28-1.15-4.78-2.27-.53-4.27,2.11-3.09,4.06"/>
  <path id="path196" class="cls-4" d="m285.89,89.44c-1.12-1.08-2.77-1.38-4.32-1.39-5.2-.03-10.32,2.97-12.84,7.51-1.4,2.52-2.16,5.58-4.48,7.29,4.47,1.1,9.73.29,13.67-2.09,3.94-2.38,6.87-6.86,7.97-11.33"/>
  <path id="path198" class="cls-4" d="m296.7,100.54c-1.85-.07-3.74-.34-5.33-1.29-2.56-1.54-3.86-4.92-2.99-7.78.08-.27.89-.09,1.15,0,3.88,1.45,6.29,5.01,7.16,9.06"/>
  <path id="path200" class="cls-3" d="m74.26,80.82c-5.76-.3-11.61,2.34-15.19,6.86-.61.77-1.18,1.64-1.27,2.62,3.28.75,7.19.55,10.14-1.08,2.94-1.63,5.21-5.22,6.32-8.4"/>
  <path id="path202" class="cls-3" d="m60.85,69.73c-2.31,1.23-4.24,3.22-5.24,5.63s-1.03,5.26.08,7.62c2.25-.78,3.75-3.22,4.72-5.39.61-1.37,1.24-2.87.94-4.34-.17-.84-.53-2.67-.5-3.53"/>
  <path id="path204" class="cls-4" d="m38.15,142.18c-3.25-1.54-5.77-4.56-6.71-8.04s-.27-7.35,1.78-10.32c2.46,2.41,5.13,5.67,6.07,8.98.94,3.31.58,6.39-1.14,9.37"/>
  <g id="g446">
    <g id="text450" class="cls-2">
      <g class="cls-2">
        <path class="cls-4" d="m62.49,138.17l3.27-4.13c1.49.99,2.86,1.43,4.12,1.3,1.26-.12,2.46-.77,3.6-1.95,1.2-1.25,1.85-2.45,1.93-3.59.08-1.14-.23-2.06-.94-2.74-.45-.44-.97-.68-1.54-.72-.58-.04-1.3.16-2.18.59-.59.3-1.87,1.07-3.83,2.3-2.52,1.58-4.56,2.43-6.12,2.55-2.19.16-4.05-.49-5.57-1.95-.98-.94-1.63-2.1-1.95-3.48-.32-1.38-.2-2.8.36-4.27.56-1.47,1.55-2.95,2.97-4.43,2.32-2.41,4.6-3.72,6.83-3.92,2.23-.2,4.26.52,6.08,2.16l-3.57,4.04c-1.15-.78-2.2-1.11-3.16-.98-.96.13-1.96.74-3.02,1.83-1.08,1.13-1.7,2.23-1.86,3.32-.1.7.1,1.29.6,1.77.46.44,1.03.62,1.72.55.88-.09,2.46-.87,4.72-2.33,2.26-1.46,4.07-2.41,5.42-2.86,1.35-.45,2.68-.53,4-.24,1.32.28,2.58,1.01,3.8,2.18,1.1,1.06,1.84,2.36,2.21,3.9.37,1.54.25,3.09-.36,4.66-.61,1.57-1.72,3.19-3.32,4.86-2.34,2.43-4.7,3.76-7.08,3.98-2.38.22-4.76-.58-7.16-2.39Z"/>
      </g>
    </g>
    <g id="text454" class="cls-2">
      <g class="cls-2">
        <path class="cls-4" d="m75.89,119.78l-4.37,1.77c-.55-1.86-.53-3.51.07-4.95.6-1.44,1.96-2.83,4.09-4.17,1.93-1.22,3.51-1.89,4.74-2.03,1.23-.14,2.26.02,3.09.48.83.46,1.83,1.63,3.02,3.51l3.14,5.08c.91,1.44,1.64,2.45,2.21,3.05.57.6,1.29,1.16,2.16,1.7l-4.28,2.7c-.29-.22-.7-.55-1.22-1.02-.23-.21-.39-.35-.47-.41-.29,1.18-.74,2.22-1.35,3.11s-1.4,1.64-2.36,2.24c-1.68,1.06-3.3,1.44-4.84,1.14-1.55-.3-2.76-1.15-3.64-2.55-.58-.92-.88-1.89-.89-2.89-.02-1,.25-1.95.81-2.83.55-.89,1.49-1.95,2.81-3.18,1.78-1.65,2.96-2.89,3.53-3.71l-.27-.43c-.52-.83-1.1-1.3-1.74-1.39-.63-.1-1.52.22-2.66.93-.77.49-1.28,1.02-1.51,1.59-.24.57-.25,1.32-.04,2.25Zm8-.14c-.44.53-1.18,1.31-2.22,2.32-1.04,1.01-1.67,1.76-1.88,2.24-.31.75-.28,1.44.11,2.06.38.61.94.99,1.67,1.14.73.16,1.44.01,2.14-.43.78-.49,1.36-1.22,1.75-2.18.28-.72.32-1.41.13-2.08-.12-.44-.51-1.18-1.16-2.22l-.54-.86Z"/>
      </g>
    </g>
    <g id="text458" class="cls-2">
      <g class="cls-2">
        <path class="cls-4" d="m98.69,123.47l-13.51-15.87,5.09-1.7,6.58,8.21,2.04,2.79c0-.88,0-1.46-.02-1.74-.01-.57-.01-1.15,0-1.73l.37-10.52,4.99-1.66-1.17,20.77-4.37,1.46Z"/>
      </g>
    </g>
    <g id="text462" class="cls-2">
      <g class="cls-2">
        <path class="cls-4" d="m117.59,114.07l5.14.48c-.52,1.91-1.44,3.41-2.78,4.49-1.34,1.08-3.07,1.7-5.18,1.85-3.35.25-5.91-.66-7.68-2.73-1.4-1.66-2.2-3.83-2.4-6.5-.24-3.2.41-5.76,1.95-7.69,1.54-1.93,3.58-2.99,6.13-3.18,2.87-.21,5.2.57,7,2.34,1.8,1.77,2.8,4.61,3.02,8.53l-12.78.94c.15,1.51.65,2.66,1.5,3.44.85.78,1.86,1.13,3.03,1.04.8-.06,1.45-.33,1.97-.8.51-.48.87-1.21,1.08-2.2Zm-.09-5.18c-.15-1.47-.61-2.57-1.39-3.28-.78-.71-1.69-1.03-2.73-.96-1.11.08-2,.56-2.67,1.42s-.94,1.99-.83,3.38l7.62-.56Z"/>
      </g>
    </g>
    <g id="text466" class="cls-2">
      <g class="cls-2">
        <path class="cls-4" d="m141.37,104.46l-.84,3.99-3.42-.72-1.61,7.62c-.33,1.54-.48,2.45-.47,2.72.01.27.12.51.31.73.2.21.46.36.79.43.46.1,1.17.08,2.11-.06l-.39,3.97c-1.27.25-2.64.23-4.11-.08-.9-.19-1.68-.51-2.34-.97-.66-.46-1.11-.96-1.35-1.51-.24-.55-.34-1.25-.29-2.1.02-.6.21-1.79.58-3.56l1.74-8.25-2.3-.48.84-3.99,2.3.48.79-3.76,5.64-1.86-1.41,6.68,3.42.72Z"/>
      </g>
    </g>
    <g id="text470" class="cls-2">
      <g class="cls-2">
        <path class="cls-4" d="m151.68,99.8l-2.64,9.45c2.11-1.41,4.27-1.81,6.48-1.19,1.13.32,2.1.81,2.89,1.49.79.68,1.33,1.41,1.61,2.19.28.78.39,1.6.34,2.44s-.31,2.1-.78,3.77l-3.05,10.92-4.93-1.38,2.75-9.83c.55-1.95.8-3.22.76-3.79-.04-.58-.25-1.09-.64-1.53-.39-.44-.94-.76-1.65-.96-.82-.23-1.6-.23-2.36-.02-.75.22-1.39.69-1.91,1.4-.52.72-1,1.86-1.44,3.42l-2.61,9.32-4.92-1.38,7.19-25.7,4.92,1.38Z"/>
      </g>
    </g>
    <g id="text474" class="cls-2">
      <g class="cls-2">
        <path class="cls-4" d="m172.64,124.56l5.02,1.22c-.79,1.82-1.92,3.16-3.4,4.04-1.48.87-3.28,1.23-5.4,1.08-3.35-.24-5.75-1.51-7.21-3.82-1.14-1.85-1.62-4.11-1.43-6.78.23-3.2,1.24-5.64,3.04-7.33,1.8-1.69,3.98-2.44,6.53-2.26,2.87.21,5.06,1.31,6.58,3.33,1.52,2.01,2.11,4.97,1.75,8.88l-12.78-.92c-.07,1.52.26,2.72.98,3.62.73.9,1.68,1.39,2.85,1.47.8.06,1.49-.11,2.06-.51.58-.4,1.04-1.07,1.39-2.02Zm.66-5.13c.07-1.48-.23-2.63-.9-3.45-.67-.82-1.53-1.27-2.57-1.34-1.12-.08-2.06.26-2.85,1.02-.78.76-1.22,1.84-1.31,3.23l7.62.55Z"/>
      </g>
    </g>
    <g id="text478" class="cls-2">
      <g class="cls-2">
        <path class="cls-4" d="m184.56,107.31l3.84-2.82,1.68,2.29c-.08-1.15.13-2.28.62-3.39.49-1.11,1.25-2.05,2.29-2.81,1.81-1.33,3.86-1.75,6.17-1.26,2.3.49,4.39,2,6.25,4.54,1.91,2.6,2.76,5.09,2.55,7.47-.21,2.38-1.22,4.23-3.03,5.56-.86.63-1.77,1.04-2.72,1.21-.95.17-2.12.12-3.5-.14l5.77,7.85-4.12,3.03-15.8-21.5Zm9.61,4.53c1.29,1.75,2.58,2.79,3.89,3.11,1.31.33,2.46.12,3.46-.61.96-.7,1.47-1.67,1.54-2.91.07-1.23-.54-2.73-1.82-4.48-1.2-1.63-2.42-2.6-3.66-2.91-1.24-.31-2.34-.11-3.31.6-1.01.74-1.56,1.74-1.65,3.01s.42,2.66,1.54,4.19Z"/>
      </g>
    </g>
    <g id="text482" class="cls-2">
      <g class="cls-2">
        <path class="cls-4" d="m211.53,110.76l-17.45-20.19,3.87-3.34,17.45,20.19-3.87,3.34Z"/>
      </g>
    </g>
    <g id="text486" class="cls-2">
      <g class="cls-2">
        <path class="cls-4" d="m212.97,91.73l-4.09,2.36c-.81-1.76-1.01-3.4-.62-4.91.39-1.51,1.55-3.07,3.47-4.69,1.74-1.47,3.21-2.36,4.42-2.67,1.2-.31,2.24-.29,3.13.05s2.04,1.36,3.48,3.06l3.81,4.59c1.1,1.3,1.97,2.2,2.61,2.71.65.51,1.44.97,2.38,1.39l-3.86,3.27c-.32-.17-.77-.45-1.35-.84-.26-.18-.44-.29-.53-.34-.12,1.21-.42,2.3-.91,3.27-.49.97-1.16,1.81-2.02,2.54-1.52,1.28-3.07,1.89-4.64,1.8-1.57-.08-2.89-.76-3.96-2.02-.7-.83-1.13-1.75-1.29-2.74-.15-.99-.02-1.96.41-2.92.42-.95,1.2-2.13,2.34-3.54,1.54-1.88,2.53-3.27,2.99-4.17l-.33-.39c-.63-.75-1.27-1.13-1.91-1.13-.64,0-1.48.42-2.5,1.29-.7.59-1.12,1.18-1.28,1.79-.16.6-.07,1.35.27,2.24Zm7.91-1.25c-.36.59-.98,1.46-1.87,2.61-.89,1.15-1.41,1.97-1.55,2.48-.21.79-.07,1.47.4,2.02.46.55,1.07.85,1.81.9s1.43-.19,2.06-.72c.7-.6,1.18-1.39,1.43-2.4.17-.75.12-1.44-.16-2.08-.18-.42-.67-1.1-1.46-2.03l-.66-.78Z"/>
      </g>
    </g>
    <g id="text490" class="cls-2">
      <g class="cls-2">
        <path class="cls-4" d="m246.25,83.8l-4.24,2.86-5.51-8.18c-1.16-1.73-2.01-2.79-2.53-3.18-.52-.39-1.08-.58-1.68-.59-.6,0-1.18.18-1.76.57-.73.49-1.26,1.14-1.57,1.94s-.35,1.6-.12,2.41c.23.81.95,2.11,2.15,3.9l4.89,7.26-4.24,2.86-10.8-16.03,3.94-2.65,1.59,2.36c.18-2.75,1.33-4.85,3.45-6.28.94-.63,1.91-1.04,2.91-1.22,1-.18,1.88-.15,2.63.11.75.26,1.43.66,2.03,1.22.6.56,1.32,1.46,2.15,2.7l6.71,9.96Z"/>
      </g>
    </g>
    <g id="text494" class="cls-2">
      <g class="cls-2">
        <path class="cls-4" d="m254.11,74.38l5.04-1.14c.1,1.98-.32,3.69-1.25,5.13-.94,1.44-2.39,2.56-4.35,3.37-3.11,1.27-5.83,1.2-8.15-.22-1.85-1.15-3.28-2.96-4.29-5.44-1.21-2.96-1.39-5.6-.53-7.92.86-2.31,2.48-3.95,4.85-4.93,2.66-1.09,5.12-1.07,7.38.05,2.26,1.13,4.1,3.52,5.51,7.17l-11.86,4.86c.61,1.39,1.44,2.33,2.49,2.81,1.05.48,2.12.5,3.21.05.74-.3,1.28-.76,1.62-1.37.34-.61.46-1.42.35-2.42Zm-1.69-4.89c-.59-1.35-1.38-2.25-2.34-2.69-.97-.44-1.93-.46-2.9-.06-1.03.42-1.73,1.15-2.1,2.18-.37,1.03-.28,2.19.26,3.47l7.07-2.9Z"/>
      </g>
    </g>
    <g id="text498" class="cls-2">
      <g class="cls-2">
        <path class="cls-4" d="m266.27,58.42l.71,4.02-3.44.61,1.35,7.67c.27,1.55.46,2.45.58,2.7.11.25.3.43.56.56s.56.16.9.1c.47-.08,1.11-.36,1.94-.84l1.12,3.83c-1.08.71-2.37,1.19-3.85,1.45-.91.16-1.75.15-2.54-.02-.78-.18-1.39-.48-1.81-.9-.43-.42-.78-1.04-1.05-1.84-.21-.57-.47-1.74-.79-3.52l-1.46-8.3-2.31.41-.71-4.02,2.31-.41-.67-3.78,4.54-3.83,1.18,6.72,3.44-.61Z"/>
      </g>
    </g>
  </g>
</svg>