<?xml version="1.0" encoding="UTF-8"?>
<svg id="Layer_1" data-name="Layer 1" xmlns="http://www.w3.org/2000/svg" xmlns:xlink="http://www.w3.org/1999/xlink" viewBox="0 0 296.27 223.67">
  <defs>
    <style>
      .cls-1 {
        fill: #89cbd1;
      }

      .cls-2 {
        fill: #fff;
      }

      .cls-3 {
        fill: #9ce0e2;
      }

      .cls-4 {
        isolation: isolate;
      }

      .cls-5 {
        fill: #2d5556;
      }

      .cls-6 {
        clip-path: url(#clippath);
      }

      .cls-7 {
        fill: none;
      }

      .cls-8 {
        fill: #6bbec5;
      }
    </style>
    <clipPath id="clippath">
      <path class="cls-7" d="m96.17,208.75c25.18,3.12,88.71,1.25,115.49-35.57,6.17-8.48,9.81-18.05,11.75-27.74-9.52,15.28-24.43,34.58-85.89,37.15-61.46,2.58-100.35-39.29-100.35-39.29-7.95,23.27,14.39,59.92,59,65.45"/>
    </clipPath>
  </defs>
  <path id="path570" class="cls-2" d="m244.13,111.62c-2.85,5.17-6.54,11.42-10.07,17.34.16-5.58-.06-11-.53-16.12l9.49-.48c-.01.15-.03.25-.03.25.35-1.48,2.6-4.73,4.92-7.85-.92,1.65-1.83,3.31-2.74,4.96l-1.03,1.89m-1.1.65v.02l-.6-.03h.6m46.72-29.8c-3.97-2.98-8.18-4.49-12.51-4.49-6.21,0-11.37,2.9-15.91,7.43,1.87-4.12,2.48-8.1.9-12.06-1-2.51-3.78-6.89-11.15-8.02-1.85-.29-3.67-.25-5.42.03,7.18-10.78,11.49-21.66,12.3-23.78l3.9-10.22-10.82-1.6c-3.08-.46-6.12-.69-9.04-.69-8.12,0-15.07,1.78-20.95,4.62,6.58-5.97,12.17-13.33,11.2-20.63-1.03-7.69-6.96-13.05-14.42-13.05-8.1,0-15.07,6.38-16.94,15.51-.75,3.62-1.11,6.29-1.41,8.43-.53,3.89-.58,4.21-1.92,5.96l-3.45,4.52c-4.31-17.4-16.74-28.63-31.71-28.63-7.25,0-14.2,2.65-20.1,7.65-8.65,7.34-10.68,18.71-6.15,33.92-12.77-20.24-25.08-32.85-36.81-37.65-6.36-2.6-13.12-3.92-20.09-3.92-29.49,0-60.31,24.71-70.16,56.26-2.96,9.49-2.29,17.98,1.81,24.99l-1.46.45.89,3.35c-7.54,4.15-11.51,11.96-10.02,20.37,2.03,11.45,13.16,19.45,27.07,19.46h.56c5.19-.08,9.28-.34,12.69-.6-5.54,3.48-8.85,6.29-9.21,6.6l-1.8,1.55-.77,2.25c-4.29,12.57-1.83,27.66,6.77,41.4,11.46,18.31,31.33,30.89,54.99,34.95.96,2.13,2.35,3.5,3.24,4.22,2.14,1.73,4.79,2.65,7.67,2.65,3.85,0,8.01-1.64,12.93-5.11h.48c20.65,0,68.92-3.34,97.05-32.21l-3.95,7.79,16.54-2.2c17.09-2.27,33.79-14.01,36.47-25.62,1.3-5.65-.5-11-4.82-14.67,20.63-15.33,37.86-36.84,39.84-52.3,1.23-9.64-3.43-14.71-6.32-16.88"/>
  <path id="path572" class="cls-3" d="m234.26,112.5s-.84-41.01,15.48-38.5c16.32,2.51-16.32,28.46-15.48,38.5"/>
  <path id="path574" class="cls-3" d="m228.4,157.69c-2.74,1.12,14.23-25.11,23.43-41.84,9.21-16.74,19.25-36.41,32.64-26.36,13.39,10.04-20.17,53.5-56.07,68.21"/>
  <path id="path576" class="cls-3" d="m223.41,183.22s16.29-32.15,26.33-25.49c10.04,6.66-7.47,22.98-26.33,25.49"/>
  <path id="path578" class="cls-3" d="m194.97,132.81s7.97-22.59,2.33-28.24c-5.65-5.65-13.95,1.33-9.3,10.96,4.65,9.64,6.98,10.63,6.98,17.27"/>
  <path id="path580" class="cls-3" d="m175.12,116.55s15.9-57.74,10.46-79.92c-5.44-22.18-24.6-27.54-37.62-16.49-13.02,11.05-.04,36.89,11.67,55.35,11.72,18.47,16.32,31.02,15.48,41.07"/>
  <path id="path582" class="cls-5" d="m37.17,143.3s32.22-27.89,69.46-15.95c37.24,11.93,66.12,29.27,85.36,20.81,19.25-8.46,29.29-34.8,10.46-64.31,0,0-30.97,10.66-53.98-11.52,0,0,31.38-25.95,55.23-5.44,0,0,9.21-33.89,46.03-28.45,0,0-13.39,35.14-32.22,40.78,0,0,20.92,57.13-5.86,93.96-26.78,36.82-90.31,38.69-115.49,35.57-44.61-5.53-66.95-42.18-59-65.45"/>
  <path id="path584" class="cls-8" d="m96.17,208.75c25.18,3.12,88.71,1.25,115.49-35.57,6.17-8.48,9.81-18.05,11.75-27.74-9.52,15.28-24.43,34.58-85.89,37.15-61.46,2.58-100.35-39.29-100.35-39.29-7.95,23.27,14.39,59.92,59,65.45"/>
  <g id="g586">
    <g class="cls-6">
      <g id="g588">
        <path id="path594" class="cls-1" d="m43.05,177.16c-.87-1.39-1.67-2.8-2.39-4.22-.9-8.77-.91-17.64-.02-26.27.51.46,1.07.97,1.68,1.51-.86,9.56-.6,19.36.73,28.98"/>
        <path id="path596" class="cls-1" d="m53.05,189.29c-.86-.81-1.69-1.64-2.49-2.48-2.37-11.11-3.27-22.68-2.66-34,.56.44,1.14.89,1.74,1.34-.47,11.74.69,23.73,3.41,35.14"/>
        <path id="path598" class="cls-1" d="m65.4,198.54c-.94-.55-1.85-1.12-2.74-1.7-4.99-12.23-7.61-25.72-7.96-39.03.62.43,1.25.86,1.9,1.29.54,13.53,3.43,27.2,8.81,39.44"/>
        <path id="path600" class="cls-1" d="m75.03,203.3c-.84-.34-1.66-.7-2.47-1.06-3.33-8.1-5.27-16.97-6.76-24.96-.85-4.55-1.59-9.15-2.18-13.77.66.39,1.33.78,2.01,1.17.49,3.62,1.07,7.21,1.74,10.78,1.66,8.9,3.75,18.93,7.66,27.84"/>
        <path id="path602" class="cls-1" d="m89.79,207.72c-1.01-.2-2-.42-2.98-.65-9.62-11.21-15.51-26.01-18.38-40.83.7.38,1.41.75,2.13,1.13,3.09,14.83,9.27,29.51,19.24,40.36"/>
        <path id="path604" class="cls-1" d="m105.75,209.55c-.91-.05-1.8-.1-2.66-.16-11.17-9.34-18.9-23.45-23.84-37.89.77.33,1.54.66,2.32.99,5.08,14.29,12.91,28.15,24.18,37.06"/>
        <path id="path606" class="cls-1" d="m119.9,209.71c-11.45-8.05-20.55-20.26-27.31-33.18.83.26,1.66.52,2.5.77,6.85,12.74,16.02,24.7,27.5,32.33-.91.04-1.81.06-2.7.09"/>
        <path id="path608" class="cls-1" d="m136.94,208.55c-12.95-6.55-24.22-16.71-32.35-28.81.84.18,1.69.36,2.54.53,8.25,11.84,19.55,21.72,32.45,27.96-.88.11-1.76.22-2.64.32"/>
        <path id="path610" class="cls-1" d="m157.94,204.9c-13.76-4.05-26.48-12.42-36.87-22.67.85.07,1.71.14,2.57.19,10.36,9.99,22.96,18.11,36.52,21.92-.74.19-1.48.38-2.23.55"/>
        <path id="path612" class="cls-1" d="m176.21,199.14c-14.49-2.57-29.17-7.89-41.06-16.48.78-.02,1.58-.05,2.37-.08.11,0,.22,0,.33-.01,11.89,8.23,26.43,13.26,40.67,15.61-.77.33-1.54.65-2.31.96"/>
        <path id="path614" class="cls-1" d="m192.43,190.91c-13.76-.2-27.79-3.26-40.16-9.33.83-.08,1.66-.17,2.47-.26,12,5.73,25.54,8.69,38.78,8.88-.36.24-.73.47-1.09.71"/>
        <path id="path616" class="cls-1" d="m195.58,180.5c-6.85,0-13.74-.89-20.36-2.58.89-.21,1.77-.42,2.63-.64,5.99,1.41,12.19,2.16,18.35,2.16,3.71,0,7.4-.27,11.03-.82-.36.39-.72.78-1.09,1.17-3.48.48-7.01.72-10.55.72"/>
        <path id="path618" class="cls-1" d="m201.12,170.59c-1.46,0-2.93-.04-4.39-.12.47-.23.94-.47,1.39-.71,1.31.07,2.63.11,3.94.11,4.34,0,8.65-.4,12.69-1.39-.15.25-.3.5-.45.74-4.24.97-8.7,1.37-13.19,1.37"/>
        <path id="path620" class="cls-1" d="m211.7,160.25c.42-.39.82-.78,1.21-1.17,2.53-.55,5.02-1.37,7.4-2.43-.14.38-.28.77-.43,1.15-2.64,1.09-5.39,1.93-8.19,2.44"/>
      </g>
    </g>
  </g>
  <path id="path622" class="cls-5" d="m123.79,174.85s-31.67,33.48-24.41,39.34c7.25,5.86,35.29-26.88,39.47-36.03l-15.06-3.3"/>
  <path id="path624" class="cls-2" d="m80.45,145.08c.21-1.38,1.11-3.66,2.79-3.53,2.22.16,3.02,2.87,2.82,4.72-.08.78,2.16.75,2.26-.13.34-3.14-1.77-5.59-4.89-5.82-2.95-.22-4.83,2.22-5.24,4.9-.11.76,2.13.75,2.26-.13"/>
  <path id="path626" class="cls-3" d="m159.59,114.54S127.37,30.66,96,17.84C64.63,5.01,27.71,31.86,17.47,64.66c-10.24,32.8,37.21,36.59,75.15,35.21,37.93-1.39,58.19,3.32,66.97,14.66"/>
  <path id="path630" class="cls-3" d="m62.37,123.65s-31.81-31.14-45.75-26.05c-13.94,5.09-8.69,24.55,11.18,24.27,19.88-.29,23.37-3.42,34.57,1.78"/>
  <g id="g632">
    <g id="text638" class="cls-4">
      <g class="cls-4">
        <path class="cls-5" d="m34.82,67.98l4.03-.81c.38,1.87.98,3.37,1.8,4.51.82,1.14,2.01,2.01,3.57,2.61,1.55.6,3.26.81,5.11.63,1.64-.16,3.07-.59,4.27-1.28,1.2-.69,2.06-1.56,2.58-2.6s.72-2.15.61-3.32c-.12-1.18-.51-2.19-1.19-3.01-.68-.83-1.73-1.47-3.15-1.94-.91-.31-2.91-.73-5.98-1.27-3.07-.54-5.25-1.12-6.52-1.74-1.65-.79-2.92-1.84-3.82-3.17-.9-1.32-1.43-2.85-1.6-4.58-.19-1.9.1-3.73.88-5.47.77-1.75,2.01-3.14,3.72-4.17,1.71-1.03,3.66-1.66,5.85-1.87,2.41-.24,4.59,0,6.52.72,1.93.72,3.48,1.9,4.65,3.56s1.89,3.58,2.18,5.78l-4.1.77c-.46-2.36-1.38-4.09-2.79-5.18s-3.35-1.51-5.86-1.27c-2.61.26-4.45.99-5.54,2.22s-1.55,2.62-1.4,4.17c.13,1.36.67,2.43,1.59,3.22.92.79,3.17,1.48,6.76,2.05,3.59.57,6.08,1.14,7.45,1.7,2,.82,3.52,1.97,4.58,3.43s1.68,3.21,1.88,5.23c.2,2.01-.11,3.94-.93,5.82s-2.11,3.39-3.87,4.56-3.81,1.87-6.13,2.09c-2.95.29-5.47.04-7.56-.76-2.09-.8-3.8-2.14-5.13-4.03-1.33-1.89-2.15-4.09-2.45-6.6Z"/>
      </g>
      <g class="cls-4">
        <path class="cls-5" d="m55.52,78.18l8.81-38.92,4.64-.46,17.03,36.39-4.91.48-4.92-11.04-13.62,1.34-2.46,11.77-4.58.45Zm7.88-16.4l11.04-1.08-4.42-10.11c-1.35-3.07-2.37-5.6-3.08-7.59-.18,2.46-.53,4.92-1.05,7.37l-2.49,11.41Z"/>
      </g>
      <g class="cls-4">
        <path class="cls-5" d="m91.89,74.61l-16.32-36.46,4.67-.46,11.15,26.55c.9,2.13,1.67,4.13,2.32,6,.3-2.11.69-4.22,1.15-6.34l6.11-28.25,4.4-.43-9.06,38.95-4.42.43Z"/>
      </g>
      <g class="cls-4">
        <path class="cls-5" d="m104.28,73.39l-3.7-37.7,23.55-2.31.44,4.45-19.24,1.89,1.13,11.55,18.02-1.77.43,4.42-18.02,1.77,1.26,12.83,20-1.96.44,4.45-24.31,2.39Z"/>
      </g>
    </g>
    <g id="text644" class="cls-4">
      <g class="cls-4">
        <path class="cls-5" d="m25.99,113.63l-1.58-16.04-5.18.51-.21-2.15,12.46-1.22.21,2.15-5.2.51,1.58,16.04-2.08.2Z"/>
      </g>
      <g class="cls-4">
        <path class="cls-5" d="m30.55,113.18l-1.79-18.19,2.08-.2.73,7.47,8.17-.8-.73-7.47,2.08-.2,1.79,18.19-2.08.2-.84-8.57-8.17.8.84,8.57-2.08.2Z"/>
      </g>
      <g class="cls-4">
        <path class="cls-5" d="m42.37,112.02l-1.79-18.19,11.37-1.12.21,2.15-9.29.91.55,5.57,8.7-.85.21,2.13-8.7.85.61,6.19,9.65-.95.21,2.15-11.73,1.15Z"/>
      </g>
    </g>
    <g id="text650" class="cls-4">
      <g class="cls-4">
        <path class="cls-5" d="m59.33,105.36c-.47-4.81.27-8.68,2.24-11.62s4.71-4.58,8.24-4.93c2.31-.23,4.45.21,6.43,1.3,1.98,1.1,3.57,2.74,4.77,4.93,1.2,2.19,1.94,4.73,2.22,7.63.29,2.94.03,5.61-.76,8.03-.8,2.42-2.08,4.31-3.84,5.69-1.76,1.38-3.73,2.17-5.9,2.38-2.36.23-4.53-.22-6.51-1.36s-3.57-2.79-4.75-4.98c-1.18-2.18-1.89-4.55-2.14-7.09Zm3.42-.28c.34,3.49,1.42,6.16,3.24,8.01,1.82,1.85,3.95,2.65,6.4,2.41,2.49-.24,4.44-1.46,5.85-3.65,1.41-2.19,1.93-5.14,1.57-8.87-.23-2.36-.78-4.38-1.64-6.07-.86-1.69-2-2.95-3.42-3.79-1.42-.84-2.96-1.18-4.61-1.01-2.34.23-4.27,1.36-5.78,3.39-1.51,2.03-2.05,5.22-1.62,9.58Z"/>
      </g>
      <g class="cls-4">
        <path class="cls-5" d="m96.79,105.67l3.41.64c-.39,3.21-1.4,5.74-3.04,7.57-1.64,1.83-3.76,2.87-6.37,3.13-2.7.26-4.95-.16-6.77-1.26s-3.28-2.82-4.4-5.14c-1.12-2.32-1.81-4.87-2.08-7.63-.3-3.01-.06-5.69.72-8.04s2.02-4.19,3.75-5.53c1.72-1.35,3.69-2.13,5.9-2.34,2.5-.25,4.68.29,6.53,1.59s3.24,3.26,4.18,5.87l-3.17,1.21c-.79-2.05-1.78-3.5-2.98-4.35-1.2-.85-2.63-1.2-4.31-1.03-1.92.19-3.48.88-4.67,2.07-1.19,1.19-1.95,2.71-2.3,4.56-.35,1.85-.43,3.73-.24,5.64.24,2.46.76,4.58,1.56,6.36.8,1.78,1.9,3.05,3.3,3.83,1.4.78,2.86,1.1,4.38.95,1.85-.18,3.36-.96,4.53-2.32,1.16-1.36,1.85-3.29,2.07-5.76Z"/>
      </g>
      <g class="cls-4">
        <path class="cls-5" d="m96.85,115.91l-2.84-28.95,18.09-1.78.33,3.42-14.78,1.45.87,8.87,13.84-1.36.33,3.4-13.84,1.36.97,9.85,15.36-1.51.34,3.42-18.67,1.83Z"/>
      </g>
      <g class="cls-4">
        <path class="cls-5" d="m109.66,114.66l6.77-29.9,3.57-.35,13.08,27.95-3.77.37-3.78-8.48-10.46,1.03-1.89,9.04-3.52.35Zm6.05-12.6l8.48-.83-3.4-7.76c-1.04-2.36-1.82-4.3-2.36-5.83-.14,1.89-.41,3.78-.81,5.66l-1.91,8.76Z"/>
      </g>
      <g class="cls-4">
        <path class="cls-5" d="m130.41,112.62l-2.84-28.95,3.4-.33,15.37,21.44-2.23-22.73,3.17-.31,2.84,28.95-3.4.33-15.38-21.46,2.23,22.75-3.17.31Z"/>
      </g>
      <g class="cls-4">
        <path class="cls-5" d="m147.42,101.56l3.09-.62c.29,1.43.75,2.59,1.38,3.46.63.88,1.54,1.54,2.74,2,1.19.46,2.5.62,3.92.48,1.26-.12,2.36-.45,3.28-.98.92-.53,1.58-1.2,1.98-2,.4-.8.55-1.65.46-2.55-.09-.91-.39-1.68-.92-2.31-.52-.63-1.33-1.13-2.42-1.49-.7-.24-2.23-.56-4.59-.97-2.36-.41-4.03-.86-5.01-1.33-1.27-.61-2.24-1.42-2.94-2.43-.69-1.01-1.1-2.19-1.23-3.52-.14-1.46.08-2.86.67-4.2.59-1.34,1.54-2.41,2.86-3.2,1.31-.79,2.81-1.27,4.5-1.44,1.85-.18,3.52,0,5.01.56,1.48.55,2.67,1.46,3.57,2.73.89,1.27,1.45,2.75,1.68,4.44l-3.15.59c-.35-1.81-1.06-3.14-2.14-3.98-1.08-.84-2.58-1.16-4.5-.97-2,.2-3.42.76-4.25,1.7-.83.94-1.19,2.01-1.07,3.21.1,1.04.51,1.86,1.22,2.47.7.61,2.44,1.13,5.19,1.57,2.76.44,4.67.87,5.72,1.3,1.53.63,2.71,1.51,3.52,2.64.81,1.12,1.29,2.46,1.45,4.02.15,1.54-.09,3.03-.72,4.47-.63,1.44-1.62,2.61-2.97,3.5-1.35.9-2.92,1.43-4.71,1.61-2.26.22-4.2.03-5.81-.59-1.61-.61-2.92-1.64-3.94-3.09-1.02-1.45-1.65-3.14-1.88-5.07Z"/>
      </g>
    </g>
  </g>
</svg>