<?xml version="1.0" encoding="UTF-8"?>
<svg id="Layer_1" data-name="Layer 1" xmlns="http://www.w3.org/2000/svg" viewBox="0 0 251.02 255.99">
  <defs>
    <style>
      .cls-1 {
        fill: #fff;
      }

      .cls-2 {
        fill: #bedd86;
      }

      .cls-3 {
        fill: #9cc596;
      }

      .cls-4 {
        fill: #83b67c;
      }

      .cls-5 {
        isolation: isolate;
      }

      .cls-6 {
        fill: #c9ecac;
      }

      .cls-7 {
        fill: #c18033;
      }

      .cls-8 {
        fill: #bce797;
      }

      .cls-9 {
        fill: #aed468;
      }
    </style>
  </defs>
  <path id="path28" class="cls-1" d="m89.36,255.99l-.29-1.77.54.38-.25,1.39M231.88,74.84c7.08-13.5,4.74-26.6-6.94-36.25-5.77-4.77-12.18-7.19-19.03-7.19-2.69,0-5.19.38-7.46.97-2.86-6.84-9.05-13.23-20.3-15.76-3.01-.68-6-1.02-8.89-1.02-4.19,0-7.89.7-11.08,1.78-4.47-9.75-13.74-17.37-28.2-17.37-16.44,0-26.39,9.48-31.46,18.27-.85-.26-1.71-.5-2.58-.73-2.97-.77-5.94-1.15-8.83-1.15-16.92,0-27.53,12.61-33.14,22.17-4.17-1.93-8.95-2.99-13.99-2.99-13.12,0-29.83,7.26-37.39,27.64-6.21,16.75-.33,29.81,8.36,38.09-5.17,5.57-8.58,13.96-6.73,25.52,2.46,15.4,11.89,23.23,20.25,26.65-.21,8.55,2.57,19.28,13.42,25.86,4.69,2.84,9.99,4.29,15.73,4.29s10.68-1.35,14.73-2.91c.89,6.24,1.69,12.91,2.37,19.52-.33.27-.63.55-.92.85-1.98-1.4-4.21-2.24-6.76-2.24-1.15,0-2.28.19-3.36.55-3,1.02-5.27,3.35-6.23,6.4-1.29,4.13-.15,8.78,4.35,16.66-.19.14-.37.28-.53.42-2.55,2.14-3.8,5.37-3.36,8.65.36,2.68,1.04,7.66,17.71,15.33.9.43,2,.73,3.14.95l31.24-.36c2.25-.24,4.41-.57,6.22-1,3.06,1.38,8.29,1.45,9.33,1.45,2.17,0,3.99-.22,5.54-.69.39.27.79.52,1.2.75l14.53,1.9c.7-.11,1.39-.29,2.09-.53,1.53.28,3.2.42,5,.42.13,0,.27,0,.42,0l37.95-4.41c.95-.04,1.95-.11,3.04-.24,9.51-1.04,16.63-14.93,17.89-18.31,2.37-6.4.46-10.32-1.56-12.49-.59-.63-1.24-1.17-1.95-1.63.18-3.18-.54-4.82-.94-5.72-.73-1.65-1.87-3.05-3.28-4.08.49-6.58,1.01-12.73,1.54-18.29.54.02,1.09.03,1.63.03h0c13.19,0,24.58-6.51,30.45-17.42,6.45-11.98,3.18-23.3-1.91-31.24,7.31-5.5,16.33-14.95,17.71-28.76,1.6-15.97-10.15-26.66-18.99-32.35"/>
  <path id="path30" class="cls-8" d="m149.1,34.14s8.64-13.27,27.15-9.11c18.51,4.17,15.32,20.21,15.32,20.21,0,0,13.68-11.72,27.87,0,14.19,11.72,5.55,25.92,0,32.7,0,0,24.68,9.87,22.83,28.38-1.85,18.51-22.21,27.56-22.21,27.56,0,0,16.04,13.16,7.4,29.2-8.64,16.04-32.09,16.66-43.19,4.32,0,0-4.89,11.92-23.73,10.59-18.84-1.33-16.11-21.23-16.11-21.23,0,0-18.16-19.59-15.07-35.63,3.09-16.04,19.75-87,19.75-87"/>
  <path id="path32" class="cls-7" d="m166.38,165.26s18.2,35.99,18.2,70.45h6.17s3.09-65.2,8.33-84.64c0,0-11.11,29.31-14.81,30.23-3.7.93-14.5-16.66-17.89-16.04"/>
  <path id="path34" class="cls-6" d="m177.41,164.15c-7.47-4.01-4.23-12.96-4.23-12.96,6.82,4.32,4.23,12.96,4.23,12.96"/>
  <path id="path36" class="cls-6" d="m190.61,155.58c-7.47-4.01-4.22-12.96-4.22-12.96,6.82,4.32,4.22,12.96,4.22,12.96"/>
  <path id="path38" class="cls-6" d="m207.18,168.02c-4.07-7.06,3.13-13.2,3.13-13.2,3.38,7.01-3.13,13.2-3.13,13.2"/>
  <path id="path40" class="cls-6" d="m199.57,143.65c-4.07-7.06,3.13-13.2,3.13-13.2,3.38,7.01-3.13,13.2-3.13,13.2"/>
  <path id="path42" class="cls-6" d="m218.69,151.57c-7.47-4.01-4.22-12.96-4.22-12.96,6.82,4.32,4.22,12.96,4.22,12.96"/>
  <path id="path44" class="cls-6" d="m203.22,125.26c-7.47-4.01-4.22-12.96-4.22-12.96,6.82,4.32,4.22,12.96,4.22,12.96"/>
  <path id="path46" class="cls-6" d="m217.74,127.91c-4.07-7.06,3.13-13.2,3.13-13.2,3.38,7.01-3.13,13.2-3.13,13.2"/>
  <path id="path48" class="cls-6" d="m209.86,113.84c-4.07-7.06,3.13-13.2,3.13-13.2,3.38,7.01-3.13,13.2-3.13,13.2"/>
  <path id="path50" class="cls-6" d="m195.19,101.06c-7.47-4.01-4.22-12.96-4.22-12.96,6.82,4.32,4.22,12.96,4.22,12.96"/>
  <path id="path52" class="cls-6" d="m232.53,114.84c-7.47-4.01-4.22-12.96-4.22-12.96,6.82,4.32,4.22,12.96,4.22,12.96"/>
  <path id="path54" class="cls-6" d="m206.61,93.36c-7.47-4.01-4.22-12.96-4.22-12.96,6.82,4.32,4.22,12.96,4.22,12.96"/>
  <path id="path56" class="cls-6" d="m221.39,96.07c-7.47-4.01-4.22-12.96-4.22-12.96,6.82,4.32,4.22,12.96,4.22,12.96"/>
  <path id="path58" class="cls-6" d="m195.17,76.54c-4.07-7.06,3.13-13.2,3.13-13.2,3.38,7.01-3.13,13.2-3.13,13.2"/>
  <path id="path60" class="cls-6" d="m175.44,38.13c-1.04-.4-2.09-.73-3.14-1-.68-5.5,4.31-9.76,4.31-9.76,2.08,4.31.42,8.31-1.17,10.75"/>
  <path id="path62" class="cls-6" d="m209.86,73.02c-4.07-7.06,3.13-13.2,3.13-13.2,3.38,7.01-3.13,13.2-3.13,13.2"/>
  <path id="path64" class="cls-6" d="m203.19,57.78c-7.47-4.01-4.22-12.96-4.22-12.96,6.82,4.32,4.22,12.96,4.22,12.96"/>
  <path id="path66" class="cls-7" d="m114.86,157.55s4.63,59.13,2.16,78.16h7.05s.66-66.43,3.44-80.01l-12.65,1.85"/>
  <path id="path68" class="cls-4" d="m103.17,29.34s5-20.7,26.8-20.7,24.68,21.8,21.8,29.62c0,0,20.98-7.81,33.73,6.99,12.75,14.81,2.06,36.2-8.64,43.19,0,0,14.3,8.43,14.45,23.86.25,26.74-22.03,44.81-44.39,40.64l-62.35-24.6,18.6-99"/>
  <path id="path70" class="cls-7" d="m135.22,151.69s14.81,17.17,13.26,84.02h8.35s-1.71-82.17,8-113.95c0,0-13.27,25.92-14.81,27.46-1.54,1.54-21.02-12.03-21.02-12.03,0,0,4.54,11.31,6.22,14.5"/>
  <path id="path72" class="cls-3" d="m119.79,32.39c-7.47-4.01-4.22-12.96-4.22-12.96,6.82,4.32,4.22,12.96,4.22,12.96"/>
  <path id="path74" class="cls-3" d="m128.37,52.72c-4.07-7.06,3.13-13.2,3.13-13.2,3.39,7.01-3.13,13.2-3.13,13.2"/>
  <path id="path76" class="cls-3" d="m133.81,27.57c-4.07-7.06,3.13-13.2,3.13-13.2,3.38,7.01-3.13,13.2-3.13,13.2"/>
  <path id="path78" class="cls-3" d="m149.69,57.57c-7.47-4.01-4.23-12.96-4.23-12.96,6.82,4.32,4.23,12.96,4.23,12.96"/>
  <path id="path80" class="cls-3" d="m169.35,56.52c-7.47-4.01-4.22-12.96-4.22-12.96,6.82,4.32,4.22,12.96,4.22,12.96"/>
  <path id="path82" class="cls-3" d="m160.05,77c-7.47-4.01-4.22-12.96-4.22-12.96,6.82,4.32,4.22,12.96,4.22,12.96"/>
  <path id="path84" class="cls-3" d="m176.19,73.13c-4.07-7.06,3.13-13.2,3.13-13.2,3.38,7.01-3.13,13.2-3.13,13.2"/>
  <path id="path86" class="cls-3" d="m171.08,107.24c-4.07-7.06,3.13-13.2,3.13-13.2,3.38,7.01-3.13,13.2-3.13,13.2"/>
  <path id="path88" class="cls-3" d="m179.84,127.68c-7.47-4.01-4.22-12.96-4.22-12.96,6.82,4.32,4.22,12.96,4.22,12.96"/>
  <path id="path90" class="cls-3" d="m157.35,127.79c-7.47-4.01-4.22-12.96-4.22-12.96,6.82,4.32,4.22,12.96,4.22,12.96"/>
  <path id="path92" class="cls-9" d="m72.38,169.07s-16.45,11.11-30.03,2.88c-13.58-8.23-8.23-24.89-8.23-24.89,0,0-18.1-1.03-21.39-21.59-3.29-20.57,14.4-23.86,14.4-23.86,0,0-25.92-9.87-16.45-35.38,9.46-25.5,37.43-26.74,46.48-14.4,0,0,11.11-32.5,36.61-25.92,25.5,6.58,32.91,27.15,23.86,42.78,0,0,25.92-12.34,38.67,9.87,12.75,22.21-6.58,40.31-14.4,41.96,0,0,13.16,6.99,7.41,26.53-5.76,19.54-24.68,22.42-39.9,13.78,0,0-4.11,12.75-15.22,16.45-11.11,3.7-21.8-8.23-21.8-8.23"/>
  <path id="path94" class="cls-7" d="m52.64,127.93s16.45,11.52,20.98,32.5c4.52,20.98,8.64,62.53,7.4,75.28,0,0,.82-.82,11.52,0,0,0-6.86-50.74-3.29-74.87,3.99-26.94,12.34-48.54,12.34-48.54,0,0-13.88,36.2-18.25,37.84-2.24.84-8.94-5.11-15.61-11.07-6.35-5.67-12.68-11.35-15.08-11.14"/>
  <path id="path96" class="cls-2" d="m30.01,73.32c-7.09-4.01-4.01-12.96-4.01-12.96,6.48,4.32,4.01,12.96,4.01,12.96"/>
  <path id="path98" class="cls-2" d="m34.76,95.4c-4.07-7.06,3.13-13.2,3.13-13.2,3.38,7.01-3.13,13.2-3.13,13.2"/>
  <path id="path100" class="cls-2" d="m18.4,87.69c-4.07-7.06,3.13-13.2,3.13-13.2,3.38,7.01-3.13,13.2-3.13,13.2"/>
  <path id="path102" class="cls-2" d="m40.11,69.48c-4.07-7.06,3.13-13.2,3.13-13.2,3.38,7.01-3.13,13.2-3.13,13.2"/>
  <path id="path104" class="cls-2" d="m60.87,79.49c-7.1-4.01-4.01-12.96-4.01-12.96,6.48,4.32,4.01,12.96,4.01,12.96"/>
  <path id="path106" class="cls-2" d="m58.29,101.88c-7.1-4.01-4.01-12.96-4.01-12.96,6.48,4.32,4.01,12.96,4.01,12.96"/>
  <path id="path108" class="cls-2" d="m67.94,60.37c-4.07-7.06,3.13-13.2,3.13-13.2,3.38,7.01-3.13,13.2-3.13,13.2"/>
  <path id="path110" class="cls-2" d="m37.44,115.08c-4.07-7.06,3.13-13.2,3.13-13.2,3.38,7.01-3.13,13.2-3.13,13.2"/>
  <path id="path112" class="cls-2" d="m24.88,127.79c-7.1-4.01-4.01-12.96-4.01-12.96,6.48,4.32,4.01,12.96,4.01,12.96"/>
  <path id="path114" class="cls-2" d="m40.97,143.53c-7.1-4.01-4.01-12.96-4.01-12.96,6.48,4.32,4.01,12.96,4.01,12.96"/>
  <path id="path116" class="cls-2" d="m60.46,123.78c-7.09-4.01-4.01-12.96-4.01-12.96,6.48,4.32,4.01,12.96,4.01,12.96"/>
  <path id="path118" class="cls-2" d="m80.51,80.83c-7.09-4.01-4.01-12.96-4.01-12.96,6.48,4.32,4.01,12.96,4.01,12.96"/>
  <path id="path120" class="cls-2" d="m71.48,110.83c-7.09-4.01-4.01-12.96-4.01-12.96,6.48,4.32,4.01,12.96,4.01,12.96"/>
  <path id="path122" class="cls-2" d="m51.21,157.67c-4.07-7.06,3.13-13.2,3.13-13.2,3.38,7.01-3.13,13.2-3.13,13.2"/>
  <path id="path124" class="cls-2" d="m73.19,134.39c-4.07-7.06,3.13-13.2,3.13-13.2,3.38,7.01-3.13,13.2-3.13,13.2"/>
  <path id="path126" class="cls-2" d="m81.21,102.79c-4.07-7.06,3.13-13.2,3.13-13.2,3.38,7.01-3.13,13.2-3.13,13.2"/>
  <path id="path128" class="cls-2" d="m81.21,47.17c-4.07-7.06,3.13-13.2,3.13-13.2,3.38,7.01-3.13,13.2-3.13,13.2"/>
  <path id="path130" class="cls-2" d="m95.11,64.26c-7.1-4.01-4.01-12.96-4.01-12.96,6.48,4.32,4.01,12.96,4.01,12.96"/>
  <path id="path132" class="cls-2" d="m105.85,50.37c-7.47-4.01-4.22-12.96-4.22-12.96,6.82,4.32,4.22,12.96,4.22,12.96"/>
  <path id="path134" class="cls-2" d="m102.14,86.88c-7.47-4.01-4.22-12.96-4.22-12.96,6.82,4.32,4.22,12.96,4.22,12.96"/>
  <path id="path136" class="cls-2" d="m111.62,72.9c-7.47-4.01-4.22-12.96-4.22-12.96,6.82,4.32,4.22,12.96,4.22,12.96"/>
  <path id="path138" class="cls-2" d="m102.14,108.36c-7.47-4.01-4.22-12.96-4.22-12.96,6.82,4.32,4.22,12.96,4.22,12.96"/>
  <path id="path140" class="cls-2" d="m111.62,140.87c-7.47-4.01-4.22-12.96-4.22-12.96,6.82,4.32,4.22,12.96,4.22,12.96"/>
  <path id="path142" class="cls-2" d="m86.56,123.9c-4.07-7.06,3.13-13.2,3.13-13.2,3.38,7.01-3.13,13.2-3.13,13.2"/>
  <path id="path144" class="cls-2" d="m59.9,170.87c-4.07-7.06,3.13-13.2,3.13-13.2,3.38,7.01-3.13,13.2-3.13,13.2"/>
  <path id="path146" class="cls-2" d="m98.96,164.2c-4.07-7.06,3.13-13.2,3.13-13.2,3.38,7.01-3.13,13.2-3.13,13.2"/>
  <path id="path148" class="cls-2" d="m119.75,155.7c-4.07-7.06,3.13-13.2,3.13-13.2,3.38,7.01-3.13,13.2-3.13,13.2"/>
  <path id="path150" class="cls-2" d="m117.17,126.05c-7.47-4.01-4.22-12.96-4.22-12.96,6.82,4.32,4.22,12.96,4.22,12.96"/>
  <path id="path152" class="cls-2" d="m117.17,100.64c-7.47-4.01-4.22-12.96-4.22-12.96,6.82,4.32,4.22,12.96,4.22,12.96"/>
  <path id="path154" class="cls-2" d="m137.46,155.58c-7.47-4.01-4.22-12.96-4.22-12.96,6.82,4.32,4.22,12.96,4.22,12.96"/>
  <path id="path156" class="cls-2" d="m124.69,87c-4.07-7.06,3.13-13.2,3.13-13.2,3.39,7.01-3.13,13.2-3.13,13.2"/>
  <path id="path158" class="cls-2" d="m129.78,110.95c-4.07-7.06,3.13-13.2,3.13-13.2,3.38,7.01-3.13,13.2-3.13,13.2"/>
  <path id="path160" class="cls-2" d="m146.66,93.93c-7.47-4.01-4.22-12.96-4.22-12.96,6.82,4.32,4.22,12.96,4.22,12.96"/>
  <path id="path162" class="cls-2" d="m136.73,135.13c-7.47-4.01-4.22-12.96-4.22-12.96,6.82,4.32,4.22,12.96,4.22,12.96"/>
  <path id="path164" class="cls-4" d="m75.32,239.04s-15.43-7.1-12.5-9.56c2.93-2.47,13.11,4.78,13.11,4.78,0,0-18.48-24.99-13.48-26.69,5-1.7,13.48,19.75,13.48,19.75,0,0-3.24-19.75.92-20.67,4.17-.93,5.45,20.98,5.45,20.98,0,0,4.89-13.58,9.21-11.73,4.32,1.85-5.09,21.91-6.63,23.14-1.54,1.24-8.5.5-9.56,0"/>
  <path id="path166" class="cls-9" d="m86.97,237.67s-9.41-20.05-6.63-21.29c2.78-1.23,8.33,9.21,8.33,9.21,0,0-1.08-29.41,3.86-29.87,4.94-.46,4.63,29.87,4.63,29.87,0,0,3.39-17.07,6.48-17.07s0,17.07,0,17.07c0,0,7.25-10.29,10.18-8.9,2.93,1.39-1.7,11.42-1.7,11.42,0,0,8.17-8.95,10.8-5.87,2.62,3.09-7.25,13.89-11.42,15.43-4.17,1.54-20.52,2.62-24.53,0"/>
  <path id="path168" class="cls-8" d="m143.85,240.01s-10.64-13.11-8.02-14.04c2.62-.92,8.02,6.33,8.02,6.33,0,0-17.59-23.6-12.19-24.99,5.4-1.39,13.86,15.73,13.86,15.73,0,0-6.61-27.92-3.53-29.15,3.08-1.23,9.26,27.32,9.26,27.32,0,0,2.05-14.37,7.89-13.44s-2.18,16.66-2.18,16.66c0,0,10.33-9.91,12.49-7.5,2.16,2.41-9.72,21.85-12.65,23.08-2.93,1.23-9.72,1.7-12.96,0"/>
  <path id="path170" class="cls-9" d="m180.63,235s-10.03-15.28-7.87-16.82c2.16-1.54,6.32,7.25,6.32,7.25,0,0-10.22-25.79-5.71-27.15,4.51-1.36,8.65,22.08,8.65,22.08,0,0,1.9-19.44,5.07-18.54,3.17.91,2.01,19.46,2.01,19.46,0,0,3.55-12.68,6.94-11.6,3.39,1.08-2.93,14.81-2.93,14.81,0,0,6.01-6.63,8.18-4.32,2.16,2.32-6.48,15.83-10.95,16.32-4.47.49-7.56.18-9.72-1.51"/>
  <path id="path172" class="cls-4" d="m115.77,238.57s-15.43-7.1-12.49-9.56c2.93-2.47,13.11,4.78,13.11,4.78,0,0-18.48-24.99-13.48-26.69,5-1.7,13.48,19.74,13.48,19.74,0,0-3.24-19.74.93-20.67,4.16-.93,5.45,20.98,5.45,20.98,0,0,4.89-13.57,9.21-11.72,4.32,1.85-5.09,21.91-6.63,23.14-1.54,1.23-8.5.5-9.56,0"/>
  <path id="path174" class="cls-4" d="m176.97,237.96s13.83-9.85,10.49-11.73c-3.34-1.88-11.99,7.15-11.99,7.15,0,0,13.49-28,8.26-28.74-5.23-.73-9.56,21.92-9.56,21.92,0,0-.5-20-4.77-20.14-4.26-.13-1.44,21.63-1.44,21.63,0,0-7.33-12.43-11.23-9.8-3.9,2.62,9.09,20.57,10.84,21.49,1.75.93,8.45-1.09,9.4-1.79"/>
  <path id="path176" class="cls-9" d="m131.61,239.83s-10.03-15.28-7.87-16.82c2.16-1.54,6.32,7.25,6.32,7.25,0,0-10.21-25.79-5.71-27.15,4.51-1.36,8.65,22.09,8.65,22.09,0,0,1.9-19.44,5.07-18.54,3.17.91,2,19.46,2,19.46,0,0,3.55-12.68,6.94-11.6,3.39,1.08-2.93,14.81-2.93,14.81,0,0,6.02-6.63,8.17-4.32,2.16,2.31-6.48,15.83-10.95,16.33-4.47.49-7.56.18-9.72-1.52"/>
  <g id="g178">
    <g id="text182" class="cls-5">
      <g class="cls-5">
        <path class="cls-1" d="m79.47,92.41l-3.58-36.48-11.78,1.16-.48-4.88,28.33-2.78.48,4.88-11.83,1.16,3.58,36.48-4.73.46Z"/>
      </g>
      <g class="cls-5">
        <path class="cls-1" d="m89.85,91.39l-4.06-41.37,4.73-.46,1.67,16.99,18.58-1.82-1.67-16.99,4.73-.46,4.06,41.37-4.73.46-1.91-19.5-18.58,1.82,1.91,19.5-4.73.46Z"/>
      </g>
      <g class="cls-5">
        <path class="cls-1" d="m117.43,88.68l-4.06-41.37,4.73-.46,4.06,41.37-4.73.46Z"/>
      </g>
      <g class="cls-5">
        <path class="cls-1" d="m131,87.35l-4.06-41.37,4.85-.48,21.96,30.64-3.19-32.48,4.54-.45,4.06,41.37-4.85.48-21.97-30.66,3.19,32.51-4.54.45Z"/>
      </g>
      <g class="cls-5">
        <path class="cls-1" d="m158.02,84.7l-4.06-41.37,4.73-.46,2.01,20.51,15.74-22.26,6.41-.63-13.35,18.23,18.07,23.07-6.24.61-14.78-19.69-5.2,7.18,1.41,14.33-4.73.46Z"/>
      </g>
    </g>
    <g id="text186" class="cls-5">
      <g class="cls-5">
        <path class="cls-1" d="m72.04,138.62l-.64-6.49,20.24-2.02,2.01,20.52c-2.83,3.17-5.82,5.64-8.98,7.41-3.16,1.77-6.48,2.83-9.96,3.17-4.69.46-9.08-.28-13.14-2.23-4.06-1.95-7.29-5.03-9.68-9.24-2.39-4.21-3.85-9.03-4.38-14.46-.53-5.38-.05-10.5,1.44-15.36,1.49-4.86,3.95-8.6,7.38-11.22s7.52-4.17,12.28-4.63c3.46-.34,6.64,0,9.56,1.02,2.92,1.02,5.29,2.61,7.1,4.77,1.81,2.16,3.32,5.06,4.51,8.7l-5.53,2.37c-.99-2.75-2.1-4.87-3.33-6.38-1.22-1.5-2.87-2.65-4.94-3.42-2.07-.77-4.32-1.04-6.73-.81-2.89.28-5.34,1.04-7.35,2.26-2.01,1.23-3.58,2.73-4.71,4.52-1.13,1.79-1.96,3.71-2.48,5.77-.88,3.54-1.13,7.31-.73,11.31.48,4.93,1.62,8.98,3.42,12.16,1.79,3.18,4.17,5.43,7.13,6.77,2.96,1.33,6.02,1.85,9.17,1.54,2.74-.27,5.35-1.14,7.84-2.62,2.49-1.47,4.34-2.97,5.55-4.49l-1.01-10.3-14.05,1.38Z"/>
      </g>
      <g class="cls-5">
        <path class="cls-1" d="m85.15,159.24l-5.43-55.31,21.19-2.08c4.26-.42,7.55-.24,9.86.54,2.31.78,4.26,2.36,5.83,4.74,1.57,2.38,2.51,5.1,2.81,8.14.38,3.92-.39,7.34-2.32,10.25-1.93,2.91-5.15,4.95-9.67,6.13,1.76.77,3.13,1.56,4.08,2.38,2.04,1.78,4.03,4.06,5.97,6.84l9.79,14.24-7.96.78-7.45-10.89c-2.17-3.14-3.94-5.53-5.31-7.17-1.37-1.64-2.56-2.77-3.57-3.38s-2.02-1.01-3.03-1.19c-.73-.11-1.92-.08-3.55.08l-7.34.72,2.41,24.56-6.32.62Zm3.29-31.52l13.6-1.33c2.89-.28,5.12-.85,6.68-1.7,1.56-.85,2.69-2.08,3.39-3.69.7-1.6.96-3.3.78-5.09-.26-2.62-1.29-4.69-3.09-6.21-1.81-1.52-4.48-2.11-8.02-1.76l-15.13,1.48,1.8,18.3Z"/>
      </g>
      <g class="cls-5">
        <path class="cls-1" d="m120.24,155.79l-5.43-55.31,34.56-3.39.64,6.53-28.23,2.77,1.66,16.94,26.44-2.6.64,6.49-26.44,2.6,1.85,18.82,29.34-2.88.64,6.53-35.67,3.5Z"/>
      </g>
      <g class="cls-5">
        <path class="cls-1" d="m150.09,152.86l-5.43-55.31,34.56-3.39.64,6.53-28.23,2.77,1.66,16.94,26.44-2.59.64,6.49-26.44,2.59,1.85,18.83,29.34-2.88.64,6.53-35.67,3.5Z"/>
      </g>
      <g class="cls-5">
        <path class="cls-1" d="m179.74,149.95l-5.43-55.31,6.49-.64,29.37,40.96-4.26-43.42,6.07-.6,5.43,55.31-6.49.64-29.37-41,4.27,43.46-6.06.6Z"/>
      </g>
    </g>
  </g>
</svg>